<?xml version="1.0" encoding="UTF-8" standalone="no"?>
<!DOCTYPE svg PUBLIC "-//W3C//DTD SVG 1.1//EN" "http://www.w3.org/Graphics/SVG/1.1/DTD/svg11.dtd">
<svg width="100%" height="100%" viewBox="0 0 450 120" version="1.1" xmlns="http://www.w3.org/2000/svg" xmlns:xlink="http://www.w3.org/1999/xlink" xml:space="preserve" xmlns:serif="http://www.serif.com/" style="fill-rule:evenodd;clip-rule:evenodd;stroke-linejoin:round;stroke-miterlimit:2;">
    <path d="M310.513,14.47C312.233,11.37 314.357,7.583 315.662,5.399C316.204,4.493 316.622,3.844 316.832,3.581C317.041,3.319 317.233,3.19 317.336,3.131C318.244,2.616 320.02,2.141 323.352,2.141C325.58,2.141 326.897,2.353 327.681,2.616C328.925,3.034 329.517,3.68 329.884,4.287C330.268,4.923 330.411,5.621 330.414,6.388C330.414,6.39 330.414,6.393 330.414,6.396C330.414,6.396 330.418,15.777 330.42,25.081C332.361,21.923 334.728,18.05 335.223,17.263C336.028,15.984 338.543,14.876 341.613,14.876L361.064,14.876C363.762,14.876 365.845,15.746 367.291,17.195C368.155,18.061 368.816,19.156 369.209,20.479C370.339,18.555 371.242,17.029 371.409,16.77C372.332,15.343 374.783,14.556 376.903,14.556C386.866,14.556 393.903,14.627 397.192,14.627C400.61,14.627 402.601,15.752 403.829,17.056C404.765,18.05 405.265,19.227 405.531,20.323C406.618,18.47 407.477,17.022 407.653,16.77C408.636,15.363 411.026,14.556 413.146,14.556C423.109,14.556 430.147,14.627 433.435,14.627C436.854,14.627 438.845,15.752 440.072,17.056C441.925,19.023 442.071,21.707 442.071,23.063C442.071,24.372 441.958,25.737 441.222,26.814C441.034,27.088 440.807,27.36 440.522,27.615C441.478,28.647 442.071,30.058 442.071,31.903C442.071,33.752 441.949,41.105 441.888,44.635C441.868,45.885 441.406,47.055 440.769,48.13C438.959,51.183 435.306,57.283 435.291,57.304C435.291,57.304 434.557,58.698 430.572,58.698L403.657,58.698C402.257,58.698 401.14,58.213 400.358,57.418C399.948,57.001 399.625,56.492 399.412,55.903C398.865,56.749 398.512,57.298 398.508,57.304C398.508,57.304 397.774,58.698 393.789,58.698L367.413,58.698C366.014,58.698 364.896,58.213 364.114,57.418C363.42,56.712 362.974,55.742 362.891,54.561L361.054,57.15C361.054,57.15 360.321,58.577 356.336,58.577C352.111,58.577 335.835,58.673 331.423,58.673C330.024,58.673 328.906,58.176 328.124,57.362C327.372,56.579 326.911,55.477 326.888,54.128C325.48,55.834 324.371,57.148 324.334,57.179C324.334,57.179 322.583,58.655 320.369,58.655L312.445,58.655C311.234,58.655 309.748,58.259 308.739,57.141C308.067,56.397 307.572,55.328 307.572,53.782L307.572,35.006L305.45,37.411C305.45,37.411 305.571,47.287 305.45,47.498L299.674,58.316C299.429,58.749 298.973,59.015 298.479,59.015L291.053,59.015C289.842,59.015 288.356,58.615 287.347,57.486C286.675,56.734 286.18,55.654 286.18,54.093L286.18,50.387L281.343,57.213C281.343,57.213 281.197,57.498 280.681,57.813C281.931,57.978 282.904,58.256 283.57,58.544C284.48,58.938 285.044,59.444 285.356,59.851C286.284,61.057 286.193,62.245 285.545,63.271C285.52,63.311 277.709,72.703 275.126,75.808L288.966,91.47C289.419,91.908 289.518,92.597 289.206,93.144L282.771,104.237C282.526,104.667 282.069,104.932 281.574,104.932L275.126,104.932C274.819,104.932 274.081,104.815 273.387,104.074C272.443,103.066 265.367,94.866 265.367,94.866L262.115,104.237C261.895,104.738 261.4,105.061 260.853,105.061L254.011,105.061C252.8,105.061 251.314,104.665 250.304,103.547C249.633,102.803 249.138,101.734 249.138,100.188C249.138,99.86 249.139,99.093 249.142,97.996C247.533,100.753 246.194,103.101 246.194,103.101C246.101,103.283 245.314,104.576 241.767,104.576C237.542,104.576 220.704,104.838 216.291,104.838C213.338,104.838 211.765,104.091 210.938,103.101C210.3,102.338 210.021,101.377 210.021,100.241L210.021,100.121L207.595,104.355C207.34,104.744 206.906,104.979 206.442,104.979L201.463,104.979C201.121,104.979 199.484,104.854 199.244,104.647C198.515,104.815 197.605,104.979 196.847,104.979L176.439,104.979C175.04,104.979 173.922,104.488 173.14,103.684C172.526,103.053 172.107,102.213 171.96,101.201C171.212,102.441 170.678,103.311 170.64,103.343C170.64,103.343 168.889,104.819 166.676,104.819L158.271,104.819C157.06,104.819 155.574,104.423 154.565,103.305C153.893,102.561 153.398,101.492 153.398,99.946L153.398,98.065C151.648,100.736 149.918,103.43 149.907,103.445C149.907,103.445 149.174,104.838 145.189,104.838L118.813,104.838C117.414,104.838 116.296,104.353 115.514,103.558C114.741,102.773 114.277,101.659 114.277,100.293C114.277,95.252 114.277,78.843 114.277,78.875C114.277,78.875 114.313,77.38 115.228,75.825C116.36,73.902 122.355,63.65 122.809,62.91C123.723,61.422 126.182,60.696 128.303,60.696C138.266,60.696 145.303,60.768 148.591,60.768C152.01,60.768 154.001,61.892 155.228,63.196C155.434,63.414 155.619,63.642 155.784,63.875C156.65,62.005 157.588,59.985 158.233,58.606C157.679,58.608 157.2,58.608 156.813,58.608C155.414,58.608 154.296,58.112 153.514,57.299C152.745,56.5 152.281,55.368 152.277,53.979C151.091,55.805 150.16,57.255 150.152,57.265C150.152,57.265 149.419,58.659 145.434,58.659L119.057,58.659C117.658,58.659 116.541,58.173 115.758,57.378C114.986,56.593 114.521,55.48 114.521,54.113C114.521,49.072 114.521,32.663 114.522,32.696C114.522,32.696 114.558,31.2 115.473,29.645C116.605,27.722 122.599,17.47 123.054,16.731C123.968,15.243 126.427,14.516 128.547,14.516C138.51,14.516 145.548,14.588 148.836,14.588C152.254,14.588 154.246,15.713 155.473,17.016C157.035,18.675 157.384,20.843 157.455,22.295C158.875,19.959 160.194,17.817 160.613,17.262C161.55,16.022 163.933,14.879 167.003,14.879L186.454,14.879C189.152,14.879 191.235,15.748 192.681,17.194C193.109,17.623 193.488,18.108 193.808,18.649C194.61,17.354 195.278,16.276 195.319,16.213C195.682,15.651 196.235,15.098 197.18,14.69C198.04,14.319 199.517,14.014 202.033,14.014C204.571,14.014 206.049,14.345 206.904,14.73C207.793,15.13 208.367,15.615 208.731,16.15C210.563,15.158 213.092,14.37 216.529,14.37C217.903,14.37 218.788,14.787 219.437,15.392C219.472,15.425 219.507,15.459 219.541,15.493C219.891,15.258 220.312,15.046 220.816,14.871C221.845,14.513 223.477,14.251 225.715,14.251C227.705,14.251 229.064,14.379 229.996,14.623C231.794,15.094 232.66,15.99 233.181,17.143C233.208,17.204 233.234,17.266 233.256,17.328L236.258,25.561C236.258,25.561 241.911,16.05 242.044,15.944C242.044,15.944 243.309,14.957 244.584,14.623C245.516,14.379 246.875,14.251 248.865,14.251C252.392,14.251 254.534,15.037 255.384,15.758C255.695,16.022 255.943,16.298 256.135,16.584C257.269,15.644 259.416,14.876 261.902,14.876L281.353,14.876C284.051,14.876 286.135,15.747 287.58,17.198C288.133,17.753 288.602,18.402 288.972,19.144C289.892,17.66 290.715,16.332 290.761,16.262C291.124,15.701 291.677,15.148 292.622,14.74C293.482,14.369 294.959,14.065 297.475,14.065C300.013,14.065 301.491,14.396 302.346,14.78C303.235,15.18 303.809,15.664 304.173,16.199C305.735,15.354 307.805,14.656 310.513,14.47ZM190.696,62.928L208.852,62.928C212.343,62.928 212.405,65.308 212.405,66.342L212.405,91.729C212.405,92.045 212.149,92.301 211.833,92.301C210.194,92.301 205.491,92.301 203.851,92.301C203.536,92.301 203.279,92.045 203.279,91.729L203.279,91.309C201.892,91.82 200.365,92.027 198.855,92.027L191.798,92.027C186.199,92.027 180.292,90.404 180.292,78.472L180.292,75.79C180.292,65.227 184.524,62.928 190.696,62.928ZM283.077,61.421L271.277,75.582C271.277,75.582 281.63,87.735 285.154,91.083C285.343,91.263 285.404,91.539 285.307,91.782C285.21,92.024 284.975,92.183 284.714,92.183C281.849,92.183 276.007,92.183 274.646,92.183C274.463,92.183 274.288,92.104 274.167,91.967C272.828,90.448 264.874,81.099 264.874,81.099L264.874,91.545C264.874,91.898 264.589,92.183 264.237,92.183C262.57,92.183 258.099,92.183 256.433,92.183C256.264,92.183 256.102,92.116 255.982,91.996C255.862,91.877 255.795,91.714 255.795,91.545C255.794,86.812 255.786,55.037 255.795,54.909L255.796,54.903C255.796,54.055 256.324,53.724 260.181,53.724C263.999,53.724 264.856,54.173 264.856,54.903L264.874,70.918L272.662,61.171C273.369,60.224 274.685,59.887 277.995,59.887C281.54,59.887 283.439,60.848 283.077,61.421ZM146.221,81.636C146.221,81.448 146.146,81.267 146.012,81.134C145.879,81.001 145.698,80.927 145.51,80.927C142.267,80.935 129.024,80.968 129.024,80.968C126.548,80.968 124.004,79.75 124.004,77.285C124.004,76.448 123.939,69.069 123.939,68.813C123.939,64.707 126.348,62.99 129.096,62.99L149.313,62.99C155.302,62.99 155.29,68.219 155.29,69.797C155.29,70.823 155.489,72.199 151.549,72.199C147.61,72.199 147.213,71.612 147.213,71.145C147.213,70.678 146.898,70.418 146.575,70.418C146.252,70.418 136.719,70.43 133.705,70.43C133.482,70.43 133.268,70.519 133.111,70.677C132.953,70.834 132.864,71.048 132.864,71.271C132.864,71.709 132.864,72.573 132.864,73.01C132.864,73.233 132.953,73.447 133.111,73.605C133.268,73.763 133.482,73.851 133.705,73.851C137.304,73.851 151.224,73.851 151.224,73.851C153.701,73.851 155.29,75.069 155.29,77.534L155.29,88.673C155.29,90.861 153.594,92.156 150.846,92.156L129.529,92.156C125.517,92.156 124.004,89.81 124.004,86.877L124.004,84.363C124.004,83.826 124.467,82.633 128.407,82.633C132.346,82.633 132.532,83.167 132.749,83.6C132.963,84.028 133.297,84.363 133.705,84.363C134.114,84.363 142.735,84.367 145.512,84.368C145.7,84.369 145.88,84.294 146.013,84.161C146.146,84.028 146.221,83.848 146.221,83.66C146.221,83.068 146.221,82.228 146.221,81.636ZM161.988,62.988L161.935,59.097C161.935,58.135 162,57.222 166.324,57.222C170.587,57.222 171.008,58.178 171.011,59.059L171.02,62.988L174.353,62.933C175.314,62.933 175.984,62.734 175.984,66.674C175.984,70.201 175.397,70.628 174.629,70.678L174.629,70.683L171.02,70.683L171.02,82.765C171.02,84.341 171.915,84.352 171.915,84.352L173.6,84.3C174.561,84.3 175.231,84.102 175.231,88.041C175.231,91.981 174.499,92.052 173.6,92.052C173.6,92.052 165.911,92.053 164.215,92.053C161.716,92.053 161.988,90.173 161.988,89.03L161.988,70.683L160.696,70.687C159.735,70.687 159.065,70.886 159.065,66.946C159.065,63.006 159.797,62.935 160.696,62.935L161.988,62.988ZM246.72,79.575C250.077,79.575 251.221,80.218 251.221,81.907C251.221,91.079 245.893,91.899 240.753,91.899L229.89,91.899C223.955,91.899 217.693,90.575 217.693,78.55L217.693,75.847C217.693,65.201 222.179,62.884 228.721,62.884L240.519,62.884C246.624,62.884 251.143,66.552 251.143,70.725L251.208,72.489C251.208,73.568 250.441,74.588 247.023,74.588C243.606,74.588 242.529,74.305 242.529,72.489C242.529,70.674 238.515,70.828 237.342,70.828L232.179,70.828C228.441,70.828 226.665,72.041 226.665,75.13L226.665,78.881C226.665,82.522 229.376,83.625 232.179,83.625L237.715,83.625C239.143,83.625 242.529,84.144 242.529,81.907C242.529,81.905 242.303,79.575 246.72,79.575ZM203.222,80.278L203.222,74.696C203.222,71.85 202.032,70.81 198.328,70.81L193.958,70.81C190.431,70.81 188.756,72.014 188.756,75.079L188.756,78.801C188.756,82.413 190.607,83.508 193.253,83.508L198.681,83.508C201.062,83.508 203.222,82.851 203.222,80.278ZM228.666,80.056C228.719,80.189 228.787,80.304 228.871,80.393C229.448,80.999 230.401,81.067 231.325,81.067L238.846,81.067C239.028,81.067 239.248,81.079 239.49,81.093L239.486,81.069C239.486,81.069 239.378,80.075 238.386,80.075L228.666,80.056ZM195.258,80.044C195.184,79.653 195.07,79.337 194.846,79.132C194.643,78.944 194.353,78.892 194.001,78.894L190.748,78.894L190.748,78.976C190.748,79.801 190.777,80.39 191.14,80.721C191.485,81.037 192.01,81.024 192.586,81.024L195.258,81.024L195.258,80.044ZM212.43,34.633L210.009,37.382C210.009,37.382 210.129,47.432 210.009,47.643L204.232,58.069C203.987,58.501 203.531,58.768 203.037,58.768L195.611,58.768C194.4,58.768 192.914,58.368 191.905,57.237C191.233,56.485 190.738,55.404 190.738,53.841L190.738,51.045L186.444,57.087C186.444,57.087 185.71,58.512 181.726,58.512C180.181,58.512 177.024,58.525 173.425,58.541C173.45,58.747 173.46,58.951 173.461,59.151L173.464,60.386L174.144,60.375C175.199,60.375 176.064,60.554 176.796,61.141C177.274,61.524 177.78,62.109 178.09,63.199C178.286,63.887 178.434,64.992 178.434,66.775L178.434,66.813C179.661,65.28 180.59,64.138 180.6,64.129C182.909,61.737 186.135,60.847 190.029,60.847C190.029,60.847 208.186,60.847 208.186,60.847C210.569,60.847 211.961,61.652 212.84,62.545C214.201,63.929 214.398,65.825 214.398,66.919L214.398,68.827C215.058,67.966 215.69,67.135 216.195,66.438C216.725,65.472 217.344,64.662 218.034,63.982C220.44,61.612 223.808,60.729 227.867,60.729C227.867,60.729 241.65,60.729 241.65,60.729C244.576,60.729 247.171,61.391 249.272,62.501C249.297,62.381 249.337,62.264 249.393,62.154C249.393,62.154 250.207,60.555 251.152,58.71C250.012,58.595 249.088,58.128 248.413,57.425C247.641,56.619 247.176,55.478 247.176,54.076L247.176,42.579L245.293,47.289C245.242,47.414 239.151,58.061 239.151,58.061C238.902,58.478 238.453,58.733 237.968,58.733L225.54,58.733C223.64,58.733 222.148,57.753 220.769,54.368C219.675,51.682 214.361,39.174 212.43,34.633ZM272.278,58.655C270.909,58.66 269.362,58.667 267.739,58.674L267.744,62.827L270.85,59.882C271.227,59.405 271.681,58.991 272.278,58.655ZM146.016,35.909C146.016,35.72 145.941,35.54 145.808,35.407C145.674,35.274 145.494,35.2 145.306,35.2C142.062,35.208 128.82,35.24 128.82,35.24C126.343,35.24 123.8,34.023 123.8,31.558C123.8,30.721 123.734,23.341 123.734,23.086C123.734,18.98 126.144,17.263 128.892,17.263L149.109,17.263C155.097,17.263 155.086,22.491 155.086,24.069C155.086,25.096 154.459,26.141 151.345,26.141C148.23,26.141 147.008,25.223 147.008,24.756C147.008,24.289 146.694,24.36 146.37,24.36C146.047,24.36 136.514,24.372 133.501,24.372C133.278,24.372 133.064,24.461 132.906,24.619C132.748,24.776 132.66,24.99 132.66,25.213C132.66,25.651 132.66,26.515 132.66,26.952C132.66,27.175 132.748,27.389 132.906,27.547C133.064,27.705 133.278,27.793 133.501,27.793C137.1,27.793 151.019,27.793 151.019,27.793C153.496,27.793 155.086,29.011 155.086,31.476L155.086,42.946C155.086,45.134 153.39,46.429 150.642,46.429L129.324,46.429C125.313,46.429 123.8,44.082 123.8,41.15L123.8,38.636C123.8,38.099 124.263,36.906 128.202,36.906C132.142,36.906 132.327,37.771 132.544,38.204C132.758,38.631 133.092,38.967 133.501,38.967C133.909,38.967 142.53,38.971 145.307,38.972C145.495,38.972 145.675,38.897 145.808,38.765C145.941,38.632 146.016,38.451 146.016,38.263C146.016,37.671 146.016,36.501 146.016,35.909ZM294.222,46.376C293.91,46.376 293.657,46.124 293.656,45.812C293.651,41.835 293.615,18.203 293.615,18.203C293.615,17.242 294.339,16.572 298.279,16.572C302.218,16.572 302.243,17.304 302.243,18.203L302.246,21.44L302.249,21.488C302.249,21.488 304.423,16.924 312.114,16.924C313.818,16.924 313.745,17.852 313.745,21.77C313.745,25.688 313.013,26.351 312.114,26.351L309.775,26.356C305.034,26.434 302.69,27.667 302.69,28.538L302.69,45.811C302.69,46.123 302.436,46.376 302.124,46.376C300.502,46.376 295.843,46.376 294.222,46.376ZM198.407,46.376C198.095,46.376 197.842,46.124 197.841,45.812C197.835,41.835 197.8,18.203 197.8,18.203C197.8,17.242 198.524,16.572 202.464,16.572C206.403,16.572 206.428,17.304 206.428,18.203L206.431,21.44L206.433,21.488C206.433,21.488 208.608,16.924 216.298,16.924C218.003,16.924 217.929,17.852 217.929,21.77C217.929,25.688 217.197,26.351 216.298,26.351L213.959,26.356C209.219,26.434 206.874,27.667 206.874,28.538L206.874,45.811C206.874,46.123 206.621,46.376 206.309,46.376C204.686,46.376 200.028,46.376 198.407,46.376ZM189.989,46.21L167.226,46.184C163.021,46.184 160.936,44.604 160.936,40.399C160.936,24.39 160.835,22.961 160.835,22.961C160.835,21.156 161.627,17.103 166.404,17.103L186.337,17.103C190.09,17.103 192.235,19.208 192.235,22.961L192.235,33.353C192.235,34.626 191.281,34.998 190.479,34.998L170.005,34.998L170.005,36.479C170.005,38.013 170.508,38.944 173.041,38.944C175.174,38.944 189.989,38.963 189.989,38.963C190.95,38.963 192.235,39.167 192.235,42.396C192.235,45.626 190.888,46.21 189.989,46.21ZM285.16,46.21L262.397,46.184C258.192,46.184 256.107,44.604 256.107,40.399C256.107,24.39 256.006,22.961 256.006,22.961C256.006,21.156 256.798,17.103 261.575,17.103L281.508,17.103C285.26,17.103 287.406,19.208 287.406,22.961L287.406,33.353C287.406,34.626 286.452,34.998 285.65,34.998L265.176,34.998L265.176,36.479C265.176,38.013 265.679,38.944 268.212,38.944C270.345,38.944 285.16,38.963 285.16,38.963C286.121,38.963 287.406,39.167 287.406,42.396C287.406,45.626 286.059,46.21 285.16,46.21ZM364.889,46.21L342.126,46.184C337.921,46.184 335.836,44.604 335.836,40.399C335.836,24.39 335.735,22.961 335.735,22.961C335.735,21.156 336.527,17.103 341.304,17.103L361.237,17.103C364.99,17.103 367.135,19.208 367.135,22.961L367.135,33.353C367.135,34.626 366.181,34.998 365.379,34.998L344.905,34.998L344.905,36.479C344.905,38.013 345.408,38.944 347.941,38.944C350.074,38.944 364.889,38.963 364.889,38.963C365.85,38.963 367.135,39.167 367.135,42.396C367.135,45.626 365.788,46.21 364.889,46.21ZM430.611,35.673C430.611,35.484 430.536,35.304 430.403,35.171C430.269,35.038 430.089,34.964 429.9,34.964C426.657,34.972 413.415,35.004 413.415,35.004C410.938,35.004 408.394,33.787 408.394,31.322C408.394,30.485 408.329,23.105 408.329,22.85C408.329,18.744 410.738,17.027 413.487,17.027L433.704,17.027C439.692,17.027 439.681,22.255 439.681,23.833C439.681,24.86 439.054,25.905 435.94,25.905C432.825,25.905 431.603,25.318 431.603,24.851C431.603,24.384 431.288,24.455 430.965,24.455C430.642,24.455 421.109,24.467 418.096,24.467C417.873,24.467 417.659,24.556 417.501,24.713C417.343,24.871 417.255,25.085 417.255,25.308C417.255,25.746 417.255,26.61 417.255,27.047C417.255,27.27 417.343,27.484 417.501,27.642C417.659,27.799 417.873,27.888 418.096,27.888C421.694,27.888 435.614,27.888 435.614,27.888C438.091,27.888 439.681,29.106 439.681,31.57L439.681,42.71C439.681,44.898 437.985,46.193 435.236,46.193L413.919,46.193C409.908,46.193 408.394,43.846 408.394,40.914L408.394,38.4C408.394,37.863 408.858,36.67 412.797,36.67C416.737,36.67 416.922,37.204 417.139,37.637C417.353,38.065 417.687,38.4 418.096,38.4C418.504,38.4 427.125,38.404 429.902,38.405C430.09,38.405 430.27,38.331 430.403,38.198C430.536,38.065 430.611,37.885 430.611,37.697C430.611,37.105 430.611,36.265 430.611,35.673ZM394.296,35.673C394.296,35.484 394.221,35.304 394.088,35.171C393.955,35.038 393.774,34.964 393.586,34.964C390.342,34.972 377.1,35.004 377.1,35.004C374.623,35.004 372.08,33.787 372.08,31.322C372.08,30.485 372.015,23.105 372.015,22.85C372.015,18.744 374.424,17.027 377.172,17.027L397.389,17.027C403.377,17.027 403.366,22.255 403.366,23.833C403.366,24.86 402.739,25.905 399.625,25.905C396.511,25.905 395.288,25.318 395.288,24.851C395.288,24.384 394.974,24.455 394.65,24.455C394.327,24.455 384.794,24.467 381.781,24.467C381.558,24.467 381.344,24.556 381.186,24.713C381.028,24.871 380.94,25.085 380.94,25.308C380.94,25.746 380.94,26.61 380.94,27.047C380.94,27.27 381.028,27.484 381.186,27.642C381.344,27.799 381.558,27.888 381.781,27.888C385.38,27.888 399.299,27.888 399.299,27.888C401.776,27.888 403.366,29.106 403.366,31.57L403.366,42.71C403.366,44.898 401.67,46.193 398.922,46.193L377.604,46.193C373.593,46.193 372.08,43.846 372.08,40.914L372.08,38.4C372.08,37.863 372.543,36.67 376.482,36.67C380.422,36.67 380.608,37.204 380.824,37.637C381.038,38.065 381.372,38.4 381.781,38.4C382.19,38.4 390.81,38.404 393.587,38.405C393.775,38.405 393.955,38.331 394.088,38.198C394.221,38.065 394.296,37.885 394.296,37.697C394.296,37.105 394.296,36.265 394.296,35.673ZM318.396,43.1L318.343,6.334C318.343,5.37 318.693,4.699 323.017,4.699C327.28,4.699 327.417,5.412 327.42,6.296C327.42,6.296 327.429,26.257 327.429,36.822C327.429,38.401 328.779,38.36 328.779,38.36C329.74,38.36 330.41,38.162 330.41,42.109C330.41,46.056 329.678,46.128 328.779,46.128C328.779,46.128 322.319,46.128 320.624,46.128C318.124,46.128 318.396,44.245 318.396,43.1ZM237.276,37.617L243.24,18.131C243.695,17.127 244.93,16.809 248.284,16.809C251.96,16.809 253.667,17.521 253.336,18.44C253.336,18.44 244.947,40.255 243.072,45.132C242.85,45.71 242.294,46.091 241.675,46.091C239.596,46.091 234.914,46.091 232.848,46.091C232.236,46.091 231.687,45.719 231.459,45.152C229.519,40.315 220.743,18.44 220.743,18.44C220.413,17.521 222.12,16.809 225.796,16.809C229.149,16.809 230.385,17.127 230.84,18.131L237.276,37.617ZM356.63,24.626C357.065,24.626 358.032,24.853 358.032,26.041L358.032,27.996C358.03,27.995 344.577,27.995 344.574,27.996L344.574,26.041C344.574,24.853 345.542,24.626 345.976,24.626L356.63,24.626ZM181.73,24.626C182.164,24.626 183.132,24.853 183.132,26.041L183.132,27.996C183.13,27.995 169.677,27.995 169.674,27.996L169.674,26.041C169.674,24.853 170.642,24.626 171.076,24.626L181.73,24.626ZM276.901,24.626C277.335,24.626 278.303,24.853 278.303,26.041L278.303,27.996C278.301,27.995 264.847,27.995 264.845,27.996L264.845,26.041C264.845,24.853 265.813,24.626 266.247,24.626L276.901,24.626Z" style="fill:rgb(226,113,82);"/>
    <g transform="matrix(0.394196,0,0,0.394196,-250.172,-337.805)">
        <path d="M717.797,1027.64C717.95,1027.42 717.966,1027.13 717.838,1026.88C717.71,1026.64 717.459,1026.49 717.186,1026.49C711.399,1026.49 688.852,1026.49 673.973,1026.49C670.378,1026.49 666.93,1025.06 664.389,1022.52C661.848,1019.98 660.422,1016.53 660.425,1012.93C660.44,994.207 660.467,961.445 660.477,950.032C660.479,947.373 661.176,944.761 662.499,942.455C667.271,934.138 679.313,913.151 685.583,902.223C688.016,897.983 692.53,895.369 697.418,895.369L837.493,895.369C840.44,895.369 843.156,896.969 844.584,899.547C846.013,902.126 845.929,905.276 844.366,907.776C839.167,916.087 832.678,926.461 829.303,931.857C828.844,932.591 828.819,933.516 829.239,934.273C829.658,935.03 830.455,935.5 831.321,935.5C838.802,935.5 854.471,935.5 865.449,935.5C872.043,935.5 877.389,940.846 877.389,947.44C877.389,963.68 877.389,992.459 877.389,1007.79C877.389,1014.53 875.68,1021.17 872.422,1027.07C868.317,1034.51 861.656,1045.05 857.455,1052.66C854.168,1058.62 847.901,1062.32 841.096,1062.32C813.362,1062.32 741.509,1062.32 709.633,1062.32C706.62,1062.32 703.854,1060.66 702.443,1057.99C701.032,1055.33 701.207,1052.11 702.898,1049.62C708.629,1041.16 715.51,1031.02 717.797,1027.64ZM738.058,1021.32C735.309,1021.32 732.731,1022.65 731.147,1024.9C726.778,1031.1 717.848,1043.77 713.354,1050.14C712.829,1050.89 712.763,1051.86 713.183,1052.67C713.602,1053.48 714.437,1053.99 715.349,1053.99C735.473,1053.99 813.545,1053.99 838.057,1053.99C842.576,1053.99 846.749,1051.57 849.002,1047.65C852.21,1042.08 857.72,1033.96 861.024,1028.22C861.843,1026.8 861.841,1025.04 861.017,1023.62C860.194,1022.19 858.674,1021.32 857.029,1021.32C832.247,1021.32 757.035,1021.32 738.058,1021.32ZM703.458,986.173C698.836,986.189 694.477,988.323 691.63,991.965C687.568,997.162 681.565,1004.84 677.108,1010.54C675.998,1011.96 675.795,1013.89 676.585,1015.51C677.375,1017.13 679.02,1018.16 680.823,1018.16C695.884,1018.16 723.237,1018.16 723.237,1018.16C723.237,1018.16 723.237,1018.16 723.237,1018.16C724.735,1015 727.92,1012.98 731.418,1012.98C748.193,1012.98 797.047,1012.98 813.391,1012.98C816.745,1012.98 819.857,1011.24 821.608,1008.38C824.718,1003.3 829.689,995.179 832.76,990.163C833.31,989.264 833.331,988.137 832.814,987.219C832.297,986.3 831.324,985.732 830.269,985.736C808.943,985.81 728.288,986.087 703.458,986.173ZM833.739,1006.21C832.889,1007.57 832.846,1009.3 833.628,1010.7C834.41,1012.11 835.893,1012.98 837.503,1012.98C844.515,1012.98 854.613,1012.98 861.289,1012.98C863.124,1012.98 864.885,1012.25 866.183,1010.96C867.48,1009.66 868.21,1007.9 868.21,1006.06C868.21,992.766 868.21,963.802 868.21,950.616C868.21,946.87 865.173,943.833 861.427,943.833C839.709,943.833 772.043,943.833 750.467,943.833C746.305,943.833 742.432,945.96 740.199,949.473C736.263,955.665 731.68,965.538 727.804,971.636C727.116,972.719 727.072,974.091 727.69,975.217C728.308,976.342 729.49,977.041 730.773,977.041C750.272,977.041 807.615,977.041 836.134,977.041C839.313,977.041 842.241,978.764 843.785,981.543C845.329,984.321 845.244,987.718 843.565,990.417C840.219,995.795 836.506,1001.76 833.739,1006.21ZM814.364,935.5C815.275,935.5 816.124,935.04 816.622,934.277C819.253,930.248 827.745,917.243 832.385,910.138C833,909.195 833.05,907.992 832.514,907.002C831.978,906.012 830.943,905.395 829.817,905.395C809.37,905.395 739.037,905.395 709.779,905.395C706.35,905.395 703.061,906.757 700.637,909.182C698.212,911.606 696.85,914.895 696.85,918.323C696.85,931.192 696.85,950.875 696.85,964.044C696.85,967.644 698.325,971.088 700.931,973.572C703.536,976.057 707.046,977.366 710.642,977.195C710.643,977.195 712.336,977.195 712.336,977.195C712.381,976.829 726.019,953.284 733.547,941.742C736.087,937.848 740.422,935.5 745.071,935.5C762.651,935.5 805.875,935.5 814.364,935.5Z" style="fill:rgb(226,113,82);"/>
    </g>
</svg>
