<?xml version="1.0" encoding="UTF-8" standalone="no"?>
<!DOCTYPE svg PUBLIC "-//W3C//DTD SVG 1.1//EN" "http://www.w3.org/Graphics/SVG/1.1/DTD/svg11.dtd">
<svg width="100%" height="100%" viewBox="0 0 450 120" version="1.1" xmlns="http://www.w3.org/2000/svg" xmlns:xlink="http://www.w3.org/1999/xlink" xml:space="preserve" xmlns:serif="http://www.serif.com/" style="fill-rule:evenodd;clip-rule:evenodd;stroke-linejoin:round;stroke-miterlimit:2;">
    <path d="M310.304,14.388C312.461,10.594 314.527,6.987 315.496,5.364C316.038,4.458 316.456,3.809 316.666,3.546C316.875,3.285 317.067,3.156 317.171,3.097C318.078,2.581 319.854,2.107 323.187,2.107C325.414,2.107 326.731,2.319 327.515,2.582C328.759,2.999 329.351,3.646 329.718,4.253C330.102,4.888 330.245,5.587 330.248,6.353C330.248,6.356 330.248,6.358 330.248,6.361C330.248,6.361 330.252,16.237 330.255,25.771C332.651,21.668 334.922,17.808 335.36,17.228C336.297,15.988 338.68,14.844 341.75,14.844L361.201,14.844C363.899,14.844 365.982,15.713 367.428,17.16C368.24,17.973 368.872,18.988 369.272,20.204C370.399,18.296 371.211,16.931 371.344,16.736C372.33,15.283 374.717,14.521 376.837,14.521C378.957,14.521 393.838,14.593 397.126,14.593C400.544,14.593 402.536,15.718 403.763,17.021C404.701,18.017 405.202,19.197 405.467,20.295C406.622,18.339 407.457,16.934 407.592,16.736C408.579,15.283 410.966,14.521 413.086,14.521C415.206,14.521 430.086,14.593 433.375,14.593C436.793,14.593 438.784,15.718 440.012,17.021C441.865,18.989 442.011,21.672 442.011,23.029C442.011,24.337 441.898,25.703 441.161,26.78C440.974,27.053 440.746,27.325 440.462,27.581C441.418,28.613 442.011,30.023 442.011,31.869C442.011,33.718 441.888,41.07 441.828,44.601C441.808,45.851 441.356,47.027 440.708,48.096C438.81,51.228 432.937,61.361 432.921,61.382C432.921,61.382 432.188,62.776 428.203,62.776C423.978,62.776 404.676,62.663 400.264,62.663C398.864,62.663 397.747,62.177 396.965,61.382C396.687,61.1 396.449,60.776 396.259,60.413C395.845,61.017 395.598,61.378 395.595,61.382C395.595,61.382 394.861,62.776 390.877,62.776C386.652,62.776 368.428,62.663 364.015,62.663C362.616,62.663 361.498,62.177 360.716,61.382C360.6,61.264 360.491,61.139 360.389,61.006L360.254,61.242C360.254,61.242 359.521,62.667 355.536,62.667L327.394,62.667C325.995,62.667 324.877,62.171 324.095,61.358C323.417,60.654 322.977,59.692 322.878,58.523C321.55,60.093 320.625,61.173 320.597,61.196C320.597,61.196 318.846,62.672 316.632,62.672L308.228,62.672C307.017,62.672 305.531,62.277 304.521,61.159C303.85,60.415 303.355,59.345 303.355,57.799C303.355,57.047 303.342,54.488 303.324,51.151L297.311,62.004C297.066,62.437 296.61,62.703 296.116,62.703L286.17,62.703C286.049,62.703 285.926,62.7 285.801,62.691C285.729,62.856 285.643,63.017 285.543,63.175C285.518,63.215 277.707,72.607 275.124,75.712L288.965,91.374C289.417,91.812 289.516,92.501 289.204,93.048L280.887,107.66C280.641,108.089 280.185,108.355 279.69,108.355C279.69,108.355 279.667,108.425 278.213,108.425C277.906,108.425 277.168,108.308 276.474,107.567C275.529,106.559 265.352,94.872 265.352,94.872L260.935,107.66C260.715,108.16 260.22,108.484 259.673,108.484L249.983,108.484C248.772,108.484 247.285,108.088 246.276,106.97C245.794,106.436 245.403,105.734 245.221,104.809C244.457,106.135 243.971,106.986 243.971,106.986C243.879,107.167 243.092,108.46 239.544,108.46L212.665,108.46C209.711,108.46 208.139,107.713 207.311,106.723C207.004,106.356 206.78,105.943 206.631,105.486L205.255,107.853C205,108.242 204.567,108.476 204.102,108.476L199.123,108.476C198.781,108.476 197.144,108.352 196.904,108.145C196.175,108.312 195.265,108.476 194.507,108.476L172.017,108.476C170.618,108.476 169.5,107.985 168.718,107.181C168.63,107.09 168.546,106.995 168.466,106.896C168.403,106.995 168.365,107.051 168.357,107.058C168.357,107.058 166.606,108.534 164.393,108.534L154.378,108.534C153.167,108.534 151.681,108.138 150.671,107.02C150,106.276 149.505,105.207 149.505,103.661L149.505,103.594C148.091,105.606 147.021,107.108 147.015,107.117C147.015,107.117 146.281,108.51 142.297,108.51L115.45,108.51C114.051,108.51 112.933,108.025 112.151,107.23C111.378,106.445 110.914,105.331 110.914,103.965C110.914,98.924 110.899,84.329 110.9,84.361C110.9,84.361 110.903,82.846 111.851,81.311C112.661,79.998 122.276,63.563 122.764,62.845C122.8,62.792 122.838,62.74 122.878,62.689C119.7,62.674 117.022,62.663 115.66,62.663C114.261,62.663 113.143,62.177 112.361,61.382C111.589,60.597 111.124,59.484 111.124,58.117C111.124,53.076 111.124,38.22 111.124,38.252C111.124,38.252 111.128,36.737 112.076,35.202C112.886,33.888 122.501,17.454 122.989,16.736C123.975,15.283 126.362,14.521 128.482,14.521C130.602,14.521 145.483,14.593 148.771,14.593C152.189,14.593 154.181,15.718 155.408,17.021C156.982,18.693 157.325,20.881 157.392,22.334C158.939,19.703 160.173,17.639 160.483,17.228C161.42,15.988 163.804,14.844 166.874,14.844L186.324,14.844C189.022,14.844 191.106,15.713 192.551,17.16C192.914,17.523 193.241,17.927 193.528,18.371C194.31,17.067 195.552,15.309 197.066,14.656C197.926,14.284 199.403,13.98 201.919,13.98C204.457,13.98 205.935,14.311 206.79,14.696C207.679,15.096 208.253,15.58 208.617,16.115C210.449,15.124 212.978,14.335 216.415,14.335C217.789,14.335 218.674,14.753 219.323,15.358C219.345,15.379 219.367,15.4 219.389,15.421C219.727,15.201 220.13,15.002 220.607,14.836C221.636,14.478 223.269,14.217 225.507,14.217C227.497,14.217 228.856,14.345 229.787,14.589C231.586,15.06 232.451,15.955 232.972,17.109C233,17.17 233.025,17.231 233.048,17.294L236.049,25.526C236.049,25.526 241.703,16.015 241.836,15.91C241.836,15.91 243.101,14.923 244.376,14.589C245.307,14.345 246.666,14.217 248.656,14.217C252.184,14.217 254.326,15.002 255.175,15.724C255.529,16.024 255.803,16.341 256.004,16.669C257.157,15.665 259.264,14.844 261.865,14.844L281.316,14.844C284.014,14.844 286.097,15.713 287.543,17.16C288.045,17.663 288.479,18.243 288.831,18.9C289.789,17.309 291.4,14.831 292.458,14.656C293.382,14.503 294.796,13.98 297.311,13.98C299.849,13.98 301.327,14.311 302.183,14.696C303.072,15.096 303.646,15.58 304.009,16.115C305.563,15.274 307.618,14.579 310.304,14.388ZM190.696,62.928L208.852,62.928C212.343,62.928 212.405,65.308 212.405,66.342L212.405,91.729C212.405,92.045 212.149,92.301 211.833,92.301C210.194,92.301 205.491,92.301 203.851,92.301C203.536,92.301 203.279,92.045 203.279,91.729L203.279,91.309C201.892,91.82 200.365,92.027 198.855,92.027L191.798,92.027C186.199,92.027 180.292,90.404 180.292,78.472L180.292,75.79C180.292,65.227 184.524,62.928 190.696,62.928ZM283.077,61.421L271.277,75.582C271.277,75.582 281.63,87.735 285.154,91.083C285.343,91.263 285.404,91.539 285.307,91.782C285.21,92.024 284.975,92.183 284.714,92.183C281.849,92.183 276.007,92.183 274.646,92.183C274.463,92.183 274.288,92.104 274.167,91.967C272.828,90.448 264.874,81.099 264.874,81.099L264.874,91.545C264.874,91.898 264.589,92.183 264.237,92.183C262.57,92.183 258.099,92.183 256.433,92.183C256.264,92.183 256.102,92.116 255.982,91.996C255.862,91.877 255.795,91.714 255.795,91.545C255.794,86.812 255.786,55.037 255.795,54.909L255.796,54.903C255.796,54.055 256.324,53.724 260.181,53.724C263.999,53.724 264.856,54.173 264.856,54.903L264.874,70.918L272.662,61.171C273.369,60.224 274.685,59.887 277.995,59.887C281.54,59.887 283.439,60.848 283.077,61.421ZM146.221,81.636C146.221,81.448 146.146,81.267 146.012,81.134C145.879,81.001 145.698,80.927 145.51,80.927C142.267,80.935 129.024,80.968 129.024,80.968C126.548,80.968 124.004,79.75 124.004,77.285C124.004,76.448 123.939,69.069 123.939,68.813C123.939,64.707 126.348,62.99 129.096,62.99L149.313,62.99C155.302,62.99 155.29,68.219 155.29,69.797C155.29,70.823 155.489,72.199 151.549,72.199C147.61,72.199 147.213,71.612 147.213,71.145C147.213,70.678 146.898,70.418 146.575,70.418C146.252,70.418 136.719,70.43 133.705,70.43C133.482,70.43 133.268,70.519 133.111,70.677C132.953,70.834 132.864,71.048 132.864,71.271C132.864,71.709 132.864,72.573 132.864,73.01C132.864,73.233 132.953,73.447 133.111,73.605C133.268,73.763 133.482,73.851 133.705,73.851C137.304,73.851 151.224,73.851 151.224,73.851C153.701,73.851 155.29,75.069 155.29,77.534L155.29,88.673C155.29,90.861 153.594,92.156 150.846,92.156L129.529,92.156C125.517,92.156 124.004,89.81 124.004,86.877L124.004,84.363C124.004,83.826 124.467,82.633 128.407,82.633C132.346,82.633 132.532,83.167 132.749,83.6C132.963,84.028 133.297,84.363 133.705,84.363C134.114,84.363 142.735,84.367 145.512,84.368C145.7,84.369 145.88,84.294 146.013,84.161C146.146,84.028 146.221,83.848 146.221,83.66C146.221,83.068 146.221,82.228 146.221,81.636ZM161.988,62.988L161.935,59.097C161.935,58.135 162,57.222 166.324,57.222C170.587,57.222 171.008,58.178 171.011,59.059L171.02,62.988L174.353,62.933C175.314,62.933 175.984,62.734 175.984,66.674C175.984,70.201 175.397,70.628 174.629,70.678L174.629,70.683L171.02,70.683L171.02,82.765C171.02,84.341 171.915,84.352 171.915,84.352L173.6,84.3C174.561,84.3 175.231,84.102 175.231,88.041C175.231,91.981 174.499,92.052 173.6,92.052C173.6,92.052 165.911,92.053 164.215,92.053C161.716,92.053 161.988,90.173 161.988,89.03L161.988,70.683L160.696,70.687C159.735,70.687 159.065,70.886 159.065,66.946C159.065,63.006 159.797,62.935 160.696,62.935L161.988,62.988ZM246.72,79.575C250.077,79.575 251.221,80.218 251.221,81.907C251.221,91.079 245.893,91.899 240.753,91.899L229.89,91.899C223.955,91.899 217.693,90.575 217.693,78.55L217.693,75.847C217.693,65.201 222.179,62.884 228.721,62.884L240.519,62.884C246.624,62.884 251.143,66.552 251.143,70.725L251.208,72.489C251.208,73.568 250.441,74.588 247.023,74.588C243.606,74.588 242.529,74.305 242.529,72.489C242.529,70.674 238.515,70.828 237.342,70.828L232.179,70.828C228.441,70.828 226.665,72.041 226.665,75.13L226.665,78.881C226.665,82.522 229.376,83.625 232.179,83.625L237.715,83.625C239.143,83.625 242.529,84.144 242.529,81.907C242.529,81.905 242.303,79.575 246.72,79.575ZM203.222,80.278L203.222,74.696C203.222,71.85 202.032,70.81 198.328,70.81L193.958,70.81C190.431,70.81 188.756,72.014 188.756,75.079L188.756,78.801C188.756,82.413 190.607,83.508 193.253,83.508L198.681,83.508C201.062,83.508 203.222,82.851 203.222,80.278ZM228.695,80.021C228.749,80.155 228.817,80.269 228.901,80.358C229.478,80.965 230.431,81.033 231.355,81.033L238.876,81.033C239.058,81.033 239.278,81.045 239.52,81.058L239.516,81.034C239.516,81.034 239.408,80.04 238.415,80.04L228.695,80.021ZM195.114,79.936C195.04,79.544 194.926,79.229 194.703,79.023C194.499,78.835 194.21,78.783 193.858,78.786L190.605,78.786L190.605,78.867C190.605,79.692 190.633,80.281 190.996,80.613C191.342,80.929 191.866,80.915 192.443,80.915L195.114,80.915L195.114,79.936ZM209.942,42.838C209.954,45.226 209.951,47.509 209.895,47.609L202.621,60.738L208.042,60.738C210.425,60.738 211.818,61.543 212.696,62.436C214.058,63.82 214.254,65.716 214.254,66.81L214.254,69.389C215.115,68.041 215.829,66.949 216.225,66.403C216.754,65.437 217.373,64.627 218.064,63.948C218.559,63.459 219.096,63.034 219.67,62.667C218.203,62.356 216.981,61.203 215.837,58.394C214.893,56.078 211.735,47.646 209.942,42.838ZM182.22,62.583C181.765,62.636 181.248,62.667 180.66,62.667L177.982,62.667C178.043,62.82 178.099,62.985 178.15,63.164C178.346,63.853 178.494,64.958 178.494,66.74C178.494,66.959 178.492,67.169 178.487,67.369C179.661,65.371 180.449,64.027 180.456,64.02C180.995,63.462 181.584,62.985 182.22,62.583ZM243.047,50.844C241.241,54.012 238.699,58.461 237.423,60.694L241.679,60.694C242.396,60.694 243.093,60.734 243.766,60.81C243.263,60.067 242.972,59.124 242.972,58.02C242.972,56.293 243.004,53.626 243.047,50.844ZM146.016,35.909C146.016,35.72 145.941,35.54 145.808,35.407C145.674,35.274 145.494,35.2 145.306,35.2C142.062,35.208 128.82,35.24 128.82,35.24C126.343,35.24 123.8,34.023 123.8,31.558C123.8,30.721 123.734,23.341 123.734,23.086C123.734,18.98 126.144,17.263 128.892,17.263L149.109,17.263C155.097,17.263 155.086,22.491 155.086,24.069C155.086,25.096 154.459,26.141 151.345,26.141C148.23,26.141 147.008,25.223 147.008,24.756C147.008,24.289 146.694,24.36 146.37,24.36C146.047,24.36 136.514,24.372 133.501,24.372C133.278,24.372 133.064,24.461 132.906,24.619C132.748,24.776 132.66,24.99 132.66,25.213C132.66,25.651 132.66,26.515 132.66,26.952C132.66,27.175 132.748,27.389 132.906,27.547C133.064,27.705 133.278,27.793 133.501,27.793C137.1,27.793 151.019,27.793 151.019,27.793C153.496,27.793 155.086,29.011 155.086,31.476L155.086,42.946C155.086,45.134 153.39,46.429 150.642,46.429L129.324,46.429C125.313,46.429 123.8,44.082 123.8,41.15L123.8,38.636C123.8,38.099 124.263,36.906 128.202,36.906C132.142,36.906 132.327,37.771 132.544,38.204C132.758,38.631 133.092,38.967 133.501,38.967C133.909,38.967 142.53,38.971 145.307,38.972C145.495,38.972 145.675,38.897 145.808,38.765C145.941,38.632 146.016,38.451 146.016,38.263C146.016,37.671 146.016,36.501 146.016,35.909ZM294.222,46.376C293.91,46.376 293.657,46.124 293.656,45.812C293.651,41.835 293.615,18.203 293.615,18.203C293.615,17.242 294.339,16.572 298.279,16.572C302.218,16.572 302.243,17.304 302.243,18.203L302.246,21.44L302.249,21.488C302.249,21.488 304.423,16.924 312.114,16.924C313.818,16.924 313.745,17.852 313.745,21.77C313.745,25.688 313.013,26.351 312.114,26.351L309.775,26.356C305.034,26.434 302.69,27.667 302.69,28.538L302.69,45.811C302.69,46.123 302.436,46.376 302.124,46.376C300.502,46.376 295.843,46.376 294.222,46.376ZM198.407,46.376C198.095,46.376 197.842,46.124 197.841,45.812C197.835,41.835 197.8,18.203 197.8,18.203C197.8,17.242 198.524,16.572 202.464,16.572C206.403,16.572 206.428,17.304 206.428,18.203L206.431,21.44L206.433,21.488C206.433,21.488 208.608,16.924 216.298,16.924C218.003,16.924 217.929,17.852 217.929,21.77C217.929,25.688 217.197,26.351 216.298,26.351L213.959,26.356C209.219,26.434 206.874,27.667 206.874,28.538L206.874,45.811C206.874,46.123 206.621,46.376 206.309,46.376C204.686,46.376 200.028,46.376 198.407,46.376ZM189.989,46.21L167.226,46.184C163.021,46.184 160.936,44.604 160.936,40.399C160.936,24.39 160.835,22.961 160.835,22.961C160.835,21.156 161.627,17.103 166.404,17.103L186.337,17.103C190.09,17.103 192.235,19.208 192.235,22.961L192.235,33.353C192.235,34.626 191.281,34.998 190.479,34.998L170.005,34.998L170.005,36.479C170.005,38.013 170.508,38.944 173.041,38.944C175.174,38.944 189.989,38.963 189.989,38.963C190.95,38.963 192.235,39.167 192.235,42.396C192.235,45.626 190.888,46.21 189.989,46.21ZM285.16,46.21L262.397,46.184C258.192,46.184 256.107,44.604 256.107,40.399C256.107,24.39 256.006,22.961 256.006,22.961C256.006,21.156 256.798,17.103 261.575,17.103L281.508,17.103C285.26,17.103 287.406,19.208 287.406,22.961L287.406,33.353C287.406,34.626 286.452,34.998 285.65,34.998L265.176,34.998L265.176,36.479C265.176,38.013 265.679,38.944 268.212,38.944C270.345,38.944 285.16,38.963 285.16,38.963C286.121,38.963 287.406,39.167 287.406,42.396C287.406,45.626 286.059,46.21 285.16,46.21ZM364.889,46.21L342.126,46.184C337.921,46.184 335.836,44.604 335.836,40.399C335.836,24.39 335.735,22.961 335.735,22.961C335.735,21.156 336.527,17.103 341.304,17.103L361.237,17.103C364.99,17.103 367.135,19.208 367.135,22.961L367.135,33.353C367.135,34.626 366.181,34.998 365.379,34.998L344.905,34.998L344.905,36.479C344.905,38.013 345.408,38.944 347.941,38.944C350.074,38.944 364.889,38.963 364.889,38.963C365.85,38.963 367.135,39.167 367.135,42.396C367.135,45.626 365.788,46.21 364.889,46.21ZM394.296,35.673C394.296,35.484 394.221,35.304 394.088,35.171C393.955,35.038 393.774,34.964 393.586,34.964C390.342,34.972 377.1,35.004 377.1,35.004C374.623,35.004 372.08,33.787 372.08,31.322C372.08,30.485 372.015,23.105 372.015,22.85C372.015,18.744 374.424,17.027 377.172,17.027L397.389,17.027C403.377,17.027 403.366,22.255 403.366,23.833C403.366,24.86 402.739,25.905 399.625,25.905C396.511,25.905 395.288,25.318 395.288,24.851C395.288,24.384 394.974,24.455 394.65,24.455C394.327,24.455 384.794,24.467 381.781,24.467C381.558,24.467 381.344,24.556 381.186,24.713C381.028,24.871 380.94,25.085 380.94,25.308C380.94,25.746 380.94,26.61 380.94,27.047C380.94,27.27 381.028,27.484 381.186,27.642C381.344,27.799 381.558,27.888 381.781,27.888C385.38,27.888 399.299,27.888 399.299,27.888C401.776,27.888 403.366,29.106 403.366,31.57L403.366,42.71C403.366,44.898 401.67,46.193 398.922,46.193L377.604,46.193C373.593,46.193 372.08,43.846 372.08,40.914L372.08,38.4C372.08,37.863 372.543,36.67 376.482,36.67C380.422,36.67 380.608,37.204 380.824,37.637C381.038,38.065 381.372,38.4 381.781,38.4C382.19,38.4 390.81,38.404 393.587,38.405C393.775,38.405 393.955,38.331 394.088,38.198C394.221,38.065 394.296,37.885 394.296,37.697C394.296,37.105 394.296,36.265 394.296,35.673ZM430.611,35.673C430.611,35.484 430.536,35.304 430.403,35.171C430.269,35.038 430.089,34.964 429.9,34.964C426.657,34.972 413.415,35.004 413.415,35.004C410.938,35.004 408.394,33.787 408.394,31.322C408.394,30.485 408.329,23.105 408.329,22.85C408.329,18.744 410.738,17.027 413.487,17.027L433.704,17.027C439.692,17.027 439.681,22.255 439.681,23.833C439.681,24.86 439.054,25.905 435.94,25.905C432.825,25.905 431.603,25.318 431.603,24.851C431.603,24.384 431.288,24.455 430.965,24.455C430.642,24.455 421.109,24.467 418.096,24.467C417.873,24.467 417.659,24.556 417.501,24.713C417.343,24.871 417.255,25.085 417.255,25.308C417.255,25.746 417.255,26.61 417.255,27.047C417.255,27.27 417.343,27.484 417.501,27.642C417.659,27.799 417.873,27.888 418.096,27.888C421.694,27.888 435.614,27.888 435.614,27.888C438.091,27.888 439.681,29.106 439.681,31.57L439.681,42.71C439.681,44.898 437.985,46.193 435.236,46.193L413.919,46.193C409.908,46.193 408.394,43.846 408.394,40.914L408.394,38.4C408.394,37.863 408.858,36.67 412.797,36.67C416.737,36.67 416.922,37.204 417.139,37.637C417.353,38.065 417.687,38.4 418.096,38.4C418.504,38.4 427.125,38.404 429.902,38.405C430.09,38.405 430.27,38.331 430.403,38.198C430.536,38.065 430.611,37.885 430.611,37.697C430.611,37.105 430.611,36.265 430.611,35.673ZM318.396,43.1L318.343,6.334C318.343,5.37 318.693,4.699 323.017,4.699C327.28,4.699 327.417,5.412 327.42,6.296C327.42,6.296 327.429,26.257 327.429,36.822C327.429,38.401 328.779,38.36 328.779,38.36C329.74,38.36 330.41,38.162 330.41,42.109C330.41,46.056 329.678,46.128 328.779,46.128C328.779,46.128 322.319,46.128 320.624,46.128C318.124,46.128 318.396,44.245 318.396,43.1ZM237.276,37.617L243.24,18.131C243.695,17.127 244.93,16.809 248.284,16.809C251.96,16.809 253.667,17.521 253.336,18.44C253.336,18.44 244.947,40.255 243.072,45.132C242.85,45.71 242.294,46.091 241.675,46.091C239.596,46.091 234.914,46.091 232.848,46.091C232.236,46.091 231.687,45.719 231.459,45.152C229.519,40.315 220.743,18.44 220.743,18.44C220.413,17.521 222.12,16.809 225.796,16.809C229.149,16.809 230.385,17.127 230.84,18.131L237.276,37.617ZM356.63,24.626C357.065,24.626 358.032,24.853 358.032,26.041L358.032,27.996C358.03,27.995 344.577,27.995 344.574,27.996L344.574,26.041C344.574,24.853 345.542,24.626 345.976,24.626L356.63,24.626ZM181.73,24.626C182.164,24.626 183.132,24.853 183.132,26.041L183.132,27.996C183.13,27.995 169.677,27.995 169.674,27.996L169.674,26.041C169.674,24.853 170.642,24.626 171.076,24.626L181.73,24.626ZM276.901,24.626C277.335,24.626 278.303,24.853 278.303,26.041L278.303,27.996C278.301,27.995 264.847,27.995 264.845,27.996L264.845,26.041C264.845,24.853 265.813,24.626 266.247,24.626L276.901,24.626Z" style="fill:rgb(226,113,82);"/>
    <g transform="matrix(0.394196,0,0,0.394196,-250.172,-337.805)">
        <path d="M717.797,1027.64C717.95,1027.42 717.966,1027.13 717.838,1026.88C717.71,1026.64 717.459,1026.49 717.186,1026.49C711.399,1026.49 688.852,1026.49 673.973,1026.49C670.378,1026.49 666.93,1025.06 664.389,1022.52C661.848,1019.98 660.422,1016.53 660.425,1012.93C660.44,994.207 660.467,961.445 660.477,950.032C660.479,947.373 661.176,944.761 662.499,942.455C667.271,934.138 679.313,913.151 685.583,902.223C688.016,897.983 692.53,895.369 697.418,895.369L837.493,895.369C840.44,895.369 843.156,896.969 844.584,899.547C846.013,902.126 845.929,905.276 844.366,907.776C839.167,916.087 832.678,926.461 829.303,931.857C828.844,932.591 828.819,933.516 829.239,934.273C829.658,935.03 830.455,935.5 831.321,935.5C838.802,935.5 854.471,935.5 865.449,935.5C872.043,935.5 877.389,940.846 877.389,947.44C877.389,963.68 877.389,992.459 877.389,1007.79C877.389,1014.53 875.68,1021.17 872.422,1027.07C868.317,1034.51 861.656,1045.05 857.455,1052.66C854.168,1058.62 847.901,1062.32 841.096,1062.32C813.362,1062.32 741.509,1062.32 709.633,1062.32C706.62,1062.32 703.854,1060.66 702.443,1057.99C701.032,1055.33 701.207,1052.11 702.898,1049.62C708.629,1041.16 715.51,1031.02 717.797,1027.64ZM738.058,1021.32C735.309,1021.32 732.731,1022.65 731.147,1024.9C726.778,1031.1 717.848,1043.77 713.354,1050.14C712.829,1050.89 712.763,1051.86 713.183,1052.67C713.602,1053.48 714.437,1053.99 715.349,1053.99C735.473,1053.99 813.545,1053.99 838.057,1053.99C842.576,1053.99 846.749,1051.57 849.002,1047.65C852.21,1042.08 857.72,1033.96 861.024,1028.22C861.843,1026.8 861.841,1025.04 861.017,1023.62C860.194,1022.19 858.674,1021.32 857.029,1021.32C832.247,1021.32 757.035,1021.32 738.058,1021.32ZM703.458,986.173C698.836,986.189 694.477,988.323 691.63,991.965C687.568,997.162 681.565,1004.84 677.108,1010.54C675.998,1011.96 675.795,1013.89 676.585,1015.51C677.375,1017.13 679.02,1018.16 680.823,1018.16C695.884,1018.16 723.237,1018.16 723.237,1018.16C723.237,1018.16 723.237,1018.16 723.237,1018.16C724.735,1015 727.92,1012.98 731.418,1012.98C748.193,1012.98 797.047,1012.98 813.391,1012.98C816.745,1012.98 819.857,1011.24 821.608,1008.38C824.718,1003.3 829.689,995.179 832.76,990.163C833.31,989.264 833.331,988.137 832.814,987.219C832.297,986.3 831.324,985.732 830.269,985.736C808.943,985.81 728.288,986.087 703.458,986.173ZM833.739,1006.21C832.889,1007.57 832.846,1009.3 833.628,1010.7C834.41,1012.11 835.893,1012.98 837.503,1012.98C844.515,1012.98 854.613,1012.98 861.289,1012.98C863.124,1012.98 864.885,1012.25 866.183,1010.96C867.48,1009.66 868.21,1007.9 868.21,1006.06C868.21,992.766 868.21,963.802 868.21,950.616C868.21,946.87 865.173,943.833 861.427,943.833C839.709,943.833 772.043,943.833 750.467,943.833C746.305,943.833 742.432,945.96 740.199,949.473C736.263,955.665 731.68,965.538 727.804,971.636C727.116,972.719 727.072,974.091 727.69,975.217C728.308,976.342 729.49,977.041 730.773,977.041C750.272,977.041 807.615,977.041 836.134,977.041C839.313,977.041 842.241,978.764 843.785,981.543C845.329,984.321 845.244,987.718 843.565,990.417C840.219,995.795 836.506,1001.76 833.739,1006.21ZM814.364,935.5C815.275,935.5 816.124,935.04 816.622,934.277C819.253,930.248 827.745,917.243 832.385,910.138C833,909.195 833.05,907.992 832.514,907.002C831.978,906.012 830.943,905.395 829.817,905.395C809.37,905.395 739.037,905.395 709.779,905.395C706.35,905.395 703.061,906.757 700.637,909.182C698.212,911.606 696.85,914.895 696.85,918.323C696.85,931.192 696.85,950.875 696.85,964.044C696.85,967.644 698.325,971.088 700.931,973.572C703.536,976.057 707.046,977.366 710.642,977.195C710.643,977.195 712.336,977.195 712.336,977.195C712.381,976.829 726.019,953.284 733.547,941.742C736.087,937.848 740.422,935.5 745.071,935.5C762.651,935.5 805.875,935.5 814.364,935.5Z" style="fill:rgb(226,113,82);"/>
    </g>
</svg>
