<?xml version="1.0" encoding="UTF-8" standalone="no"?>
<!DOCTYPE svg PUBLIC "-//W3C//DTD SVG 1.1//EN" "http://www.w3.org/Graphics/SVG/1.1/DTD/svg11.dtd">
<svg width="100%" height="100%" viewBox="0 0 450 120" version="1.1" xmlns="http://www.w3.org/2000/svg" xmlns:xlink="http://www.w3.org/1999/xlink" xml:space="preserve" xmlns:serif="http://www.serif.com/" style="fill-rule:evenodd;clip-rule:evenodd;stroke-linejoin:round;stroke-miterlimit:2;">
    <g transform="matrix(1,0,0,1,-1337.42,-185.948)">
        <g>
            <g transform="matrix(0.307377,0,0,0.305857,660.603,-406.545)">
                <path d="M3602.84,2053.79C3602.84,2053.17 3602.59,2052.58 3602.16,2052.15C3601.72,2051.71 3601.14,2051.47 3600.52,2051.47C3589.97,2051.5 3546.89,2051.6 3546.89,2051.6C3538.83,2051.6 3530.56,2047.62 3530.56,2039.56C3530.56,2036.83 3530.35,2012.7 3530.35,2011.86C3530.35,1998.44 3538.18,1992.83 3547.12,1992.83L3612.9,1992.83C3632.38,1992.83 3632.34,2009.92 3632.34,2015.08C3632.34,2018.43 3630.3,2021.85 3620.17,2021.85C3610.04,2021.85 3606.06,2019.93 3606.06,2018.4C3606.06,2016.88 3605.04,2017.11 3603.99,2017.11C3602.94,2017.11 3571.92,2017.15 3562.12,2017.15C3561.39,2017.15 3560.7,2017.44 3560.18,2017.96C3559.67,2018.47 3559.38,2019.17 3559.38,2019.9C3559.38,2021.33 3559.38,2024.15 3559.38,2025.59C3559.38,2026.31 3559.67,2027.01 3560.18,2027.53C3560.7,2028.05 3561.39,2028.34 3562.12,2028.34C3573.83,2028.34 3619.11,2028.34 3619.11,2028.34C3627.17,2028.34 3632.34,2032.32 3632.34,2040.37L3632.34,2076.8C3632.34,2083.95 3626.82,2088.18 3617.88,2088.18L3548.53,2088.18C3535.48,2088.18 3530.56,2080.51 3530.56,2070.92L3530.56,2062.7C3530.56,2060.95 3532.06,2057.05 3544.88,2057.05C3557.7,2057.05 3558.3,2058.79 3559.01,2060.21C3559.7,2061.61 3560.79,2062.7 3562.12,2062.7C3563.45,2062.7 3591.49,2062.72 3600.53,2062.72C3601.14,2062.72 3601.73,2062.48 3602.16,2062.04C3602.59,2061.61 3602.84,2061.02 3602.84,2060.4C3602.84,2058.47 3602.84,2055.72 3602.84,2053.79Z" style="fill:rgb(226,113,82);"/>
            </g>
            <g transform="matrix(0.307377,0,0,0.305857,624.288,-406.545)">
                <path d="M3602.84,2053.79C3602.84,2053.17 3602.59,2052.58 3602.16,2052.15C3601.72,2051.71 3601.14,2051.47 3600.52,2051.47C3589.97,2051.5 3546.89,2051.6 3546.89,2051.6C3538.83,2051.6 3530.56,2047.62 3530.56,2039.56C3530.56,2036.83 3530.35,2012.7 3530.35,2011.86C3530.35,1998.44 3538.18,1992.83 3547.12,1992.83L3612.9,1992.83C3632.38,1992.83 3632.34,2009.92 3632.34,2015.08C3632.34,2018.43 3630.3,2021.85 3620.17,2021.85C3610.04,2021.85 3606.06,2019.93 3606.06,2018.4C3606.06,2016.88 3605.04,2017.11 3603.99,2017.11C3602.94,2017.11 3571.92,2017.15 3562.12,2017.15C3561.39,2017.15 3560.7,2017.44 3560.18,2017.96C3559.67,2018.47 3559.38,2019.17 3559.38,2019.9C3559.38,2021.33 3559.38,2024.15 3559.38,2025.59C3559.38,2026.31 3559.67,2027.01 3560.18,2027.53C3560.7,2028.05 3561.39,2028.34 3562.12,2028.34C3573.83,2028.34 3619.11,2028.34 3619.11,2028.34C3627.17,2028.34 3632.34,2032.32 3632.34,2040.37L3632.34,2076.8C3632.34,2083.95 3626.82,2088.18 3617.88,2088.18L3548.53,2088.18C3535.48,2088.18 3530.56,2080.51 3530.56,2070.92L3530.56,2062.7C3530.56,2060.95 3532.06,2057.05 3544.88,2057.05C3557.7,2057.05 3558.3,2058.79 3559.01,2060.21C3559.7,2061.61 3560.79,2062.7 3562.12,2062.7C3563.45,2062.7 3591.49,2062.72 3600.53,2062.72C3601.14,2062.72 3601.73,2062.48 3602.16,2062.04C3602.59,2061.61 3602.84,2061.02 3602.84,2060.4C3602.84,2058.47 3602.84,2055.72 3602.84,2053.79Z" style="fill:rgb(226,113,82);"/>
            </g>
            <g transform="matrix(0.307377,0,0,0.307377,425.86,-409.877)">
                <path d="M4152.72,2088.75L4078.66,2088.67C4064.98,2088.67 4058.2,2083.53 4058.2,2069.85C4058.2,2017.77 4057.87,2013.12 4057.87,2013.12C4057.87,2007.24 4060.45,1994.06 4075.99,1994.06L4140.84,1994.06C4153.05,1994.06 4160.02,2000.91 4160.02,2013.12C4160.02,2013.12 4160.02,2040.93 4160.02,2046.92C4160.02,2051.07 4156.92,2052.28 4154.31,2052.28L4087.7,2052.28L4087.7,2057.1C4087.7,2062.09 4089.34,2065.12 4097.58,2065.12C4104.52,2065.12 4152.72,2065.18 4152.72,2065.18C4155.85,2065.18 4160.02,2065.84 4160.02,2076.35C4160.02,2086.85 4155.64,2088.75 4152.72,2088.75ZM4125.85,2018.53C4127.26,2018.53 4130.41,2019.27 4130.41,2023.14L4130.41,2029.5C4130.4,2029.5 4086.64,2029.5 4086.63,2029.5L4086.63,2023.14C4086.63,2019.27 4089.78,2018.53 4091.19,2018.53L4125.85,2018.53Z" style="fill:rgb(226,113,82);"/>
            </g>
            <g transform="matrix(0.307377,0,0,0.307968,516.824,-413.497)">
                <path d="M3705.52,2086.4L3705.35,1967.02C3705.35,1963.89 3706.49,1961.71 3720.56,1961.71C3734.43,1961.71 3734.87,1964.03 3734.88,1966.89C3734.88,1966.89 3734.91,2031.71 3734.91,2066.02C3734.91,2071.14 3739.3,2071.01 3739.3,2071.01C3742.43,2071.01 3744.61,2070.37 3744.61,2083.18C3744.61,2096 3742.22,2096.23 3739.3,2096.23C3739.3,2096.23 3718.28,2096.23 3712.77,2096.23C3704.64,2096.23 3705.52,2090.12 3705.52,2086.4Z" style="fill:rgb(226,113,82);fill-rule:nonzero;"/>
            </g>
            <g transform="matrix(0.307377,0,0,0.307377,306.319,-409.877)">
                <path d="M4311.72,2089.29C4310.71,2089.29 4309.88,2088.47 4309.88,2087.46C4309.86,2074.52 4309.75,1997.64 4309.75,1997.64C4309.75,1994.51 4312.1,1992.33 4324.92,1992.33C4337.74,1992.33 4337.82,1994.71 4337.82,1997.64L4337.83,2008.17L4337.84,2008.32C4337.84,2008.32 4344.91,1993.48 4369.93,1993.48C4375.47,1993.48 4375.24,1996.5 4375.24,2009.24C4375.24,2021.99 4372.85,2024.15 4369.93,2024.15L4362.32,2024.16C4346.9,2024.42 4339.27,2028.43 4339.27,2031.26L4339.27,2087.45C4339.27,2088.47 4338.45,2089.29 4337.43,2089.29C4332.15,2089.29 4317,2089.29 4311.72,2089.29Z" style="fill:rgb(226,113,82);fill-rule:nonzero;"/>
            </g>
            <g transform="matrix(0.307377,0,0,0.307377,346.131,-409.877)">
                <path d="M4152.72,2088.75L4078.66,2088.67C4064.98,2088.67 4058.2,2083.53 4058.2,2069.85C4058.2,2017.77 4057.87,2013.12 4057.87,2013.12C4057.87,2007.24 4060.45,1994.06 4075.99,1994.06L4140.84,1994.06C4153.05,1994.06 4160.02,2000.91 4160.02,2013.12C4160.02,2013.12 4160.02,2040.93 4160.02,2046.92C4160.02,2051.07 4156.92,2052.28 4154.31,2052.28L4087.7,2052.28L4087.7,2057.1C4087.7,2062.09 4089.34,2065.12 4097.58,2065.12C4104.52,2065.12 4152.72,2065.18 4152.72,2065.18C4155.85,2065.18 4160.02,2065.84 4160.02,2076.35C4160.02,2086.85 4155.64,2088.75 4152.72,2088.75ZM4125.85,2018.53C4127.26,2018.53 4130.41,2019.27 4130.41,2023.14L4130.41,2029.5C4130.4,2029.5 4086.64,2029.5 4086.63,2029.5L4086.63,2023.14C4086.63,2019.27 4089.78,2018.53 4091.19,2018.53L4125.85,2018.53Z" style="fill:rgb(226,113,82);"/>
            </g>
            <g transform="matrix(0.307377,0,0,0.307377,250.96,-409.877)">
                <path d="M4152.72,2088.75L4078.66,2088.67C4064.98,2088.67 4058.2,2083.53 4058.2,2069.85C4058.2,2017.77 4057.87,2013.12 4057.87,2013.12C4057.87,2007.24 4060.45,1994.06 4075.99,1994.06L4140.84,1994.06C4153.05,1994.06 4160.02,2000.91 4160.02,2013.12C4160.02,2013.12 4160.02,2040.93 4160.02,2046.92C4160.02,2051.07 4156.92,2052.28 4154.31,2052.28L4087.7,2052.28L4087.7,2057.1C4087.7,2062.09 4089.34,2065.12 4097.58,2065.12C4104.52,2065.12 4152.72,2065.18 4152.72,2065.18C4155.85,2065.18 4160.02,2065.84 4160.02,2076.35C4160.02,2086.85 4155.64,2088.75 4152.72,2088.75ZM4125.85,2018.53C4127.26,2018.53 4130.41,2019.27 4130.41,2023.14L4130.41,2029.5C4130.4,2029.5 4086.64,2029.5 4086.63,2029.5L4086.63,2023.14C4086.63,2019.27 4089.78,2018.53 4091.19,2018.53L4125.85,2018.53Z" style="fill:rgb(226,113,82);"/>
            </g>
            <g transform="matrix(0.307377,0,0,0.307377,210.503,-409.877)">
                <path d="M4311.72,2089.29C4310.71,2089.29 4309.88,2088.47 4309.88,2087.46C4309.86,2074.52 4309.75,1997.64 4309.75,1997.64C4309.75,1994.51 4312.1,1992.33 4324.92,1992.33C4337.74,1992.33 4337.82,1994.71 4337.82,1997.64L4337.83,2008.17L4337.84,2008.32C4337.84,2008.32 4344.91,1993.48 4369.93,1993.48C4375.47,1993.48 4375.24,1996.5 4375.24,2009.24C4375.24,2021.99 4372.85,2024.15 4369.93,2024.15L4362.32,2024.16C4346.9,2024.42 4339.27,2028.43 4339.27,2031.26L4339.27,2087.45C4339.27,2088.47 4338.45,2089.29 4337.43,2089.29C4332.15,2089.29 4317,2089.29 4311.72,2089.29Z" style="fill:rgb(226,113,82);fill-rule:nonzero;"/>
            </g>
            <g transform="matrix(0.307377,0,0,0.307377,361.645,-359.571)">
                <path d="M3701.52,1979.67L3701.35,1967.02C3701.35,1963.89 3701.56,1960.92 3715.63,1960.92C3729.5,1960.92 3730.87,1964.03 3730.88,1966.89L3730.91,1979.67L3741.75,1979.5C3744.88,1979.5 3747.06,1978.85 3747.06,1991.67C3747.06,2003.14 3745.15,2004.53 3742.65,2004.69L3742.65,2004.71L3730.91,2004.71L3730.91,2044.02C3730.91,2049.14 3733.82,2049.18 3733.82,2049.18L3739.3,2049.01C3742.43,2049.01 3744.61,2048.37 3744.61,2061.18C3744.61,2074 3742.22,2074.23 3739.3,2074.23C3739.3,2074.23 3714.28,2074.23 3708.77,2074.23C3700.64,2074.23 3701.52,2068.12 3701.52,2064.4L3701.52,2004.71L3697.32,2004.72C3694.19,2004.72 3692.01,2005.37 3692.01,1992.55C3692.01,1979.74 3694.4,1979.5 3697.32,1979.5L3701.52,1979.67Z" style="fill:rgb(226,113,82);fill-rule:nonzero;"/>
            </g>
            <g transform="matrix(0.307377,0,0,0.307377,249.033,-405.109)">
                <path d="M4461.83,2122.73L4423.44,2168.8C4423.44,2168.8 4457.12,2208.34 4468.59,2219.23C4469.2,2219.81 4469.4,2220.71 4469.09,2221.5C4468.77,2222.29 4468.01,2222.81 4467.16,2222.81C4457.84,2222.81 4438.83,2222.81 4434.4,2222.81C4433.81,2222.81 4433.24,2222.55 4432.85,2222.1C4428.49,2217.16 4402.61,2186.75 4402.61,2186.75L4402.61,2220.73C4402.61,2221.88 4401.68,2222.81 4400.54,2222.81C4395.11,2222.81 4380.57,2222.81 4375.15,2222.81C4374.6,2222.81 4374.07,2222.59 4373.68,2222.2C4373.29,2221.81 4373.07,2221.28 4373.07,2220.73C4373.07,2205.33 4373.05,2101.96 4373.07,2101.54L4373.07,2101.52L4373.08,2101.52C4373.08,2098.76 4374.79,2097.69 4387.34,2097.69C4399.76,2097.69 4402.55,2099.15 4402.55,2101.52L4402.61,2153.62L4427.95,2121.91C4430.25,2118.83 4434.53,2117.74 4445.3,2117.74C4456.83,2117.74 4463.01,2120.86 4461.83,2122.73Z" style="fill:rgb(226,113,82);fill-rule:nonzero;"/>
            </g>
            <g transform="matrix(0.307377,0,0,0.32228,808.46,14.3434)">
                <path d="M2341.28,727.728L2400.35,727.728C2411.71,727.728 2411.91,735.112 2411.91,738.319L2411.91,817.092C2411.91,818.073 2411.08,818.867 2410.05,818.867C2404.71,818.867 2389.41,818.867 2384.08,818.867C2383.05,818.867 2382.22,818.073 2382.22,817.092C2382.22,816.409 2382.22,815.79 2382.22,815.79C2377.71,817.377 2372.74,818.019 2367.83,818.019L2344.87,818.019C2326.65,818.019 2307.43,812.982 2307.43,775.959L2307.43,767.638C2307.43,734.861 2321.2,727.728 2341.28,727.728ZM2382.03,781.564L2382.03,764.241C2382.03,755.41 2378.16,752.183 2366.11,752.183L2351.89,752.183C2340.42,752.183 2334.97,755.919 2334.97,765.43L2334.97,776.978C2334.97,788.187 2340.99,791.583 2349.6,791.583L2367.26,791.583C2375.01,791.583 2382.03,789.545 2382.03,781.564Z" style="fill:rgb(226,113,82);fill-rule:nonzero;"/>
            </g>
            <g transform="matrix(0.307377,0,0,0.307377,248.131,-403.124)">
                <path d="M4346.49,2175.33C4357.41,2175.33 4361.13,2177.42 4361.13,2182.92C4361.13,2212.76 4343.8,2215.43 4327.07,2215.43L4291.73,2215.43C4272.42,2215.43 4252.05,2211.12 4252.05,2172L4252.05,2163.2C4252.05,2128.57 4266.65,2121.03 4287.93,2121.03L4326.31,2121.03C4346.17,2121.03 4360.88,2132.97 4360.88,2146.54L4361.09,2152.28C4361.09,2155.79 4358.59,2159.11 4347.47,2159.11C4336.35,2159.11 4332.85,2158.19 4332.85,2152.28C4332.85,2146.38 4319.79,2146.87 4315.98,2146.87L4299.18,2146.87C4287.02,2146.87 4281.24,2150.82 4281.24,2160.87L4281.24,2173.07C4281.24,2184.92 4290.06,2188.51 4299.18,2188.51L4317.19,2188.51C4321.84,2188.51 4332.85,2190.2 4332.85,2182.92C4332.85,2182.91 4332.12,2175.33 4346.49,2175.33Z" style="fill:rgb(226,113,82);fill-rule:nonzero;"/>
            </g>
            <g transform="matrix(0.307377,0,0,0.305857,376.212,-360.582)">
                <path d="M3602.84,2053.79C3602.84,2053.17 3602.59,2052.58 3602.16,2052.15C3601.72,2051.71 3601.14,2051.47 3600.52,2051.47C3589.97,2051.5 3546.89,2051.6 3546.89,2051.6C3538.83,2051.6 3530.56,2047.62 3530.56,2039.56C3530.56,2036.83 3530.35,2012.7 3530.35,2011.86C3530.35,1998.44 3538.18,1992.83 3547.12,1992.83L3612.9,1992.83C3632.38,1992.83 3632.34,2009.92 3632.34,2015.08C3632.34,2018.43 3632.99,2022.93 3620.17,2022.93C3607.35,2022.93 3606.06,2021.01 3606.06,2019.49C3606.06,2017.96 3605.04,2017.11 3603.99,2017.11C3602.94,2017.11 3571.92,2017.15 3562.12,2017.15C3561.39,2017.15 3560.7,2017.44 3560.18,2017.96C3559.67,2018.47 3559.38,2019.17 3559.38,2019.9C3559.38,2021.33 3559.38,2024.15 3559.38,2025.59C3559.38,2026.31 3559.67,2027.01 3560.18,2027.53C3560.7,2028.05 3561.39,2028.34 3562.12,2028.34C3573.83,2028.34 3619.11,2028.34 3619.11,2028.34C3627.17,2028.34 3632.34,2032.32 3632.34,2040.37L3632.34,2076.8C3632.34,2083.95 3626.82,2088.18 3617.88,2088.18L3548.53,2088.18C3535.48,2088.18 3530.56,2080.51 3530.56,2070.92L3530.56,2062.7C3530.56,2060.95 3532.06,2057.05 3544.88,2057.05C3557.7,2057.05 3558.3,2058.79 3559.01,2060.21C3559.7,2061.61 3560.79,2062.7 3562.12,2062.7C3563.45,2062.7 3591.49,2062.72 3600.53,2062.72C3601.14,2062.72 3601.73,2062.48 3602.16,2062.04C3602.59,2061.61 3602.84,2061.02 3602.84,2060.4C3602.84,2058.47 3602.84,2055.72 3602.84,2053.79Z" style="fill:rgb(226,113,82);"/>
            </g>
            <g transform="matrix(0.307377,0,0,0.307377,209.345,-409.877)">
                <path d="M4441.95,2060.8L4461.35,1997.4C4462.83,1994.14 4466.85,1993.1 4477.76,1993.1C4489.72,1993.1 4495.27,1995.42 4494.19,1998.41C4494.19,1998.41 4466.9,2069.38 4460.8,2085.24C4460.08,2087.12 4458.27,2088.37 4456.26,2088.37C4449.49,2088.37 4434.26,2088.37 4427.54,2088.37C4425.55,2088.37 4423.76,2087.16 4423.02,2085.31C4416.71,2069.57 4388.16,1998.41 4388.16,1998.41C4387.08,1995.42 4392.64,1993.1 4404.6,1993.1C4415.51,1993.1 4419.53,1994.14 4421.01,1997.4L4441.95,2060.8Z" style="fill:rgb(226,113,82);fill-rule:nonzero;"/>
            </g>
            <g transform="matrix(0.307377,0,0,0.305857,376.008,-406.277)">
                <path d="M3602.84,2053.79C3602.84,2053.17 3602.59,2052.58 3602.16,2052.15C3601.72,2051.71 3601.14,2051.47 3600.52,2051.47C3589.97,2051.5 3546.89,2051.6 3546.89,2051.6C3538.83,2051.6 3530.56,2047.62 3530.56,2039.56C3530.56,2036.83 3530.35,2012.7 3530.35,2011.86C3530.35,1998.44 3538.18,1992.83 3547.12,1992.83L3612.9,1992.83C3632.38,1992.83 3632.34,2009.92 3632.34,2015.08C3632.34,2018.43 3630.3,2021.85 3620.17,2021.85C3610.04,2021.85 3606.06,2018.85 3606.06,2017.32C3606.06,2015.8 3605.04,2016.03 3603.99,2016.03C3602.94,2016.03 3571.92,2016.07 3562.12,2016.07C3561.39,2016.07 3560.7,2016.36 3560.18,2016.87C3559.67,2017.39 3559.38,2018.09 3559.38,2018.82C3559.38,2020.25 3559.38,2023.07 3559.38,2024.5C3559.38,2025.23 3559.67,2025.93 3560.18,2026.45C3560.7,2026.96 3561.39,2027.25 3562.12,2027.25C3573.83,2027.25 3619.11,2027.25 3619.11,2027.25C3627.17,2027.25 3632.34,2031.24 3632.34,2039.29L3632.34,2076.8C3632.34,2083.95 3626.82,2088.18 3617.88,2088.18L3548.53,2088.18C3535.48,2088.18 3530.56,2080.51 3530.56,2070.92L3530.56,2062.7C3530.56,2060.95 3532.06,2057.05 3544.88,2057.05C3557.7,2057.05 3558.3,2059.87 3559.01,2061.29C3559.7,2062.69 3560.79,2063.78 3562.12,2063.78C3563.45,2063.78 3591.49,2063.8 3600.53,2063.8C3601.14,2063.8 3601.73,2063.56 3602.16,2063.12C3602.59,2062.69 3602.84,2062.1 3602.84,2061.49C3602.84,2059.55 3602.84,2055.72 3602.84,2053.79Z" style="fill:rgb(226,113,82);"/>
            </g>
        </g>
    </g>
    <g transform="matrix(0.394196,0,0,0.394196,-250.172,-337.805)">
        <path d="M717.797,1027.64C717.95,1027.42 717.966,1027.13 717.838,1026.88C717.71,1026.64 717.459,1026.49 717.186,1026.49C711.399,1026.49 688.852,1026.49 673.973,1026.49C670.378,1026.49 666.93,1025.06 664.389,1022.52C661.848,1019.98 660.422,1016.53 660.425,1012.93C660.44,994.207 660.467,961.445 660.477,950.032C660.479,947.373 661.176,944.761 662.499,942.455C667.271,934.138 679.313,913.151 685.583,902.223C688.016,897.983 692.53,895.369 697.418,895.369L837.493,895.369C840.44,895.369 843.156,896.969 844.584,899.547C846.013,902.126 845.929,905.276 844.366,907.776C839.167,916.087 832.678,926.461 829.303,931.857C828.844,932.591 828.819,933.516 829.239,934.273C829.658,935.03 830.455,935.5 831.321,935.5C838.802,935.5 854.471,935.5 865.449,935.5C872.043,935.5 877.389,940.846 877.389,947.44C877.389,963.68 877.389,992.459 877.389,1007.79C877.389,1014.53 875.68,1021.17 872.422,1027.07C868.317,1034.51 861.656,1045.05 857.455,1052.66C854.168,1058.62 847.901,1062.32 841.096,1062.32C813.362,1062.32 741.509,1062.32 709.633,1062.32C706.62,1062.32 703.854,1060.66 702.443,1057.99C701.032,1055.33 701.207,1052.11 702.898,1049.62C708.629,1041.16 715.51,1031.02 717.797,1027.64ZM738.058,1021.32C735.309,1021.32 732.731,1022.65 731.147,1024.9C726.778,1031.1 717.848,1043.77 713.354,1050.14C712.829,1050.89 712.763,1051.86 713.183,1052.67C713.602,1053.48 714.437,1053.99 715.349,1053.99C735.473,1053.99 813.545,1053.99 838.057,1053.99C842.576,1053.99 846.749,1051.57 849.002,1047.65C852.21,1042.08 857.72,1033.96 861.024,1028.22C861.843,1026.8 861.841,1025.04 861.017,1023.62C860.194,1022.19 858.674,1021.32 857.029,1021.32C832.247,1021.32 757.035,1021.32 738.058,1021.32ZM703.458,986.173C698.836,986.189 694.477,988.323 691.63,991.965C687.568,997.162 681.565,1004.84 677.108,1010.54C675.998,1011.96 675.795,1013.89 676.585,1015.51C677.375,1017.13 679.02,1018.16 680.823,1018.16C695.884,1018.16 723.237,1018.16 723.237,1018.16C723.237,1018.16 723.237,1018.16 723.237,1018.16C724.735,1015 727.92,1012.98 731.418,1012.98C748.193,1012.98 797.047,1012.98 813.391,1012.98C816.745,1012.98 819.857,1011.24 821.608,1008.38C824.718,1003.3 829.689,995.179 832.76,990.163C833.31,989.264 833.331,988.137 832.814,987.219C832.297,986.3 831.324,985.732 830.269,985.736C808.943,985.81 728.288,986.087 703.458,986.173ZM833.739,1006.21C832.889,1007.57 832.846,1009.3 833.628,1010.7C834.41,1012.11 835.893,1012.98 837.503,1012.98C844.515,1012.98 854.613,1012.98 861.289,1012.98C863.124,1012.98 864.885,1012.25 866.183,1010.96C867.48,1009.66 868.21,1007.9 868.21,1006.06C868.21,992.766 868.21,963.802 868.21,950.616C868.21,946.87 865.173,943.833 861.427,943.833C839.709,943.833 772.043,943.833 750.467,943.833C746.305,943.833 742.432,945.96 740.199,949.473C736.263,955.665 731.68,965.538 727.804,971.636C727.116,972.719 727.072,974.091 727.69,975.217C728.308,976.342 729.49,977.041 730.773,977.041C750.272,977.041 807.615,977.041 836.134,977.041C839.313,977.041 842.241,978.764 843.785,981.543C845.329,984.321 845.244,987.718 843.565,990.417C840.219,995.795 836.506,1001.76 833.739,1006.21ZM814.364,935.5C815.275,935.5 816.124,935.04 816.622,934.277C819.253,930.248 827.745,917.243 832.385,910.138C833,909.195 833.05,907.992 832.514,907.002C831.978,906.012 830.943,905.395 829.817,905.395C809.37,905.395 739.037,905.395 709.779,905.395C706.35,905.395 703.061,906.757 700.637,909.182C698.212,911.606 696.85,914.895 696.85,918.323C696.85,931.192 696.85,950.875 696.85,964.044C696.85,967.644 698.325,971.088 700.931,973.572C703.536,976.057 707.046,977.366 710.642,977.195C710.643,977.195 712.336,977.195 712.336,977.195C712.381,976.829 726.019,953.284 733.547,941.742C736.087,937.848 740.422,935.5 745.071,935.5C762.651,935.5 805.875,935.5 814.364,935.5Z" style="fill:rgb(226,113,82);"/>
    </g>
</svg>
