<?xml version="1.0" encoding="utf-8"?>
<!-- Generator: Adobe Illustrator 15.0.2, SVG Export Plug-In . SVG Version: 6.00 Build 0)  -->
<!DOCTYPE svg PUBLIC "-//W3C//DTD SVG 1.1//EN" "http://www.w3.org/Graphics/SVG/1.1/DTD/svg11.dtd">
<svg version="1.1" id="Layer_1" xmlns="http://www.w3.org/2000/svg" xmlns:xlink="http://www.w3.org/1999/xlink" x="0px" y="0px"
	 width="2500px" height="2500px" viewBox="0 0 2500 2500" enable-background="new 0 0 2500 2500" xml:space="preserve">
<g>
	<path d="M1526.022,1266.912c-4.591-0.907-10.052-3.645-14.643-7.289c-42.022-41.14,11.906-88.674,73.137-116.092v-77.688
		c14.616,8.223,21.932,9.144,22.853,10.972l47.521-47.534l-15.525-40.206c138.012-48.441,193.756-66.729,306.151-85.925
		l-20.09-19.182l33.786-19.183c74.952,25.576,146.234,31.983,133.445,95.95c3.645-42.956-49.35-59.401-131.591-83.162
		l-15.551,10.052l30.168,24.669c-134.354,23.773-217.516,50.271-316.242,85.003l13.71,34.733l-49.351,49.351
		c8.236,1.841,94.161,31.996,183.704-31.984c0.908,0,1.854-0.907,1.854-1.828c-2.763-4.565-8.235-9.144-15.551-15.538
		c25.589,1.829,42.956,25.59,39.312,49.351h-11.906c1.854-7.303,0-16.459-3.645-21.933
		c-68.545,51.179-149.892,58.494-218.437,34.733v60.322c-32.904,11.88-93.228,48.429-92.306,84.083
		C1508.644,1255.94,1517.787,1262.348,1526.022,1266.912L1526.022,1266.912z"/>
	<path fill="#D9783E" d="M1807.506,1251.375c-74.927,38.377-146.209,68.545-255.894,73.11
		c-142.563-2.736-165.417-98.7-97.779-199.241c63.967-101.45,165.416-191.939,327.188-249.513
		c46.613-16.458,116.066-35.653,181.875-36.562c95.95-0.908,188.269,29.247,182.795,121.553
		c-3.645,70.387-105.106,169.994-158.113,242.197c-22.854,31.075-26.498,51.191,11.88,49.363
		c141.655-9.145,269.628-58.494,388.432-109.686c-80.426,54.849-496.302,263.208-498.091,120.645
		c0.882-17.38,9.117-36.562,21.905-56.678c13.735-20.104,31.997-42.035,51.192-63.06c28.326-32.904,98.713-110.58,121.565-158.114
		c40.206-88.648-49.376-93.227-125.236-120.632l-33.786,19.183l20.09,19.182c-112.396,19.183-168.152,37.47-306.15,85.925
		l15.524,40.206l-47.521,47.535c-0.908-1.842-8.235-2.75-22.853-10.973v77.688c-61.23,27.418-115.158,74.939-73.137,116.093
		c4.592,3.645,10.052,6.381,14.643,7.289C1601.87,1309.868,1807.506,1251.375,1807.506,1251.375L1807.506,1251.375z
		 M548.997,1463.404v-46.613h68.545v46.613H548.997z M550.826,1656.252v-167.258h63.979v167.258H550.826L550.826,1656.252z
		 M1306.652,1568.512c0-15.525-3.645-27.405-11.854-36.549c-8.236-9.144-20.116-13.709-33.812-13.709h-0.908
		c-14.63,0.908-25.602,4.565-33.838,13.709c-8.21,9.144-11.867,21.932-11.867,38.403c0,16.445,3.657,29.233,11.867,38.378
		c8.236,9.144,19.208,12.788,33.838,12.788c14.617,0,26.497-4.565,34.733-13.709
		C1303.008,1598.68,1306.652,1584.97,1306.652,1568.512z M1260.064,1488.073c8.708-1.862,17.592-2.78,26.497-2.737
		c26.497,0,47.521,7.315,63.046,22.854c14.644,15.551,22.854,36.549,22.854,63.071c0,28.326-7.289,50.258-22.854,65.783
		c-14.616,15.551-35.641,23.761-62.138,23.761c-9.144,0-18.287-1.829-27.405-3.645l-13.722-5.474
		c-11.881-6.407-22.853-14.643-31.983-26.523v18.288c0,4.591-0.921,9.144-1.842,12.788h-63.98
		c0.921-6.407,0.921-12.788,1.842-19.195c0-6.381,0.921-12.788,0.921-18.262v-201.991h63.06v95.951
		c10.051-9.118,21.011-16.446,32.904-20.998C1251.842,1489.928,1255.474,1488.994,1260.064,1488.073L1260.064,1488.073z
		 M1987.564,1509.097c33.812,0,61.23,28.353,61.23,62.164c0,33.812-27.405,61.23-61.23,61.23s-62.138-27.405-62.138-61.23
		S1953.752,1509.097,1987.564,1509.097z M1987.564,1660.817c49.35,0,89.569-40.206,89.569-89.543
		c0-50.284-40.232-90.49-89.569-90.49c-49.376,0-90.49,40.206-90.49,90.49C1897.088,1620.611,1938.188,1660.817,1987.564,1660.817z
		 M1658.534,1630.676h28.353v25.589h-28.352L1658.534,1630.676L1658.534,1630.676z M1874.234,1635.229
		c-9.144,7.314-27.405,25.589-63.046,25.589c-45.692,0-89.569-35.641-89.569-89.543c0-53.929,43.877-90.49,89.569-90.49
		c33.812,0,53.902,18.262,63.046,25.589c-5.473,8.236-10.051,22.854-11.88,29.234c-17.354-22.853-38.378-26.497-51.166-26.497
		c-33.812,0-61.256,28.352-61.256,62.164c0,32.904,27.431,61.229,61.256,61.229c19.183,0,37.47-8.235,51.166-26.497
		C1865.999,1620.611,1871.498,1629.755,1874.234,1635.229z M2117.34,1656.252v-167.258h25.59v23.761
		c5.499-8.21,12.814-14.617,21.023-20.091c9.339-4.782,19.676-7.289,30.168-7.314c11.881,0,21.932,2.736,30.168,7.314
		c8.21,5.474,13.709,12.788,17.354,21.932c12.788-19.194,30.168-29.259,51.191-29.259c16.445,0,29.234,4.591,38.378,13.709
		c9.144,9.144,13.709,23.761,13.709,42.955v114.251h-28.326v-105.107c0-11.88-0.908-19.195-2.736-24.668
		c-2.025-4.922-5.552-9.079-10.077-11.881c-5.285-3.017-11.27-4.591-17.354-4.564c-11.881,0-21.024,3.618-29.26,11.854
		c-7.289,7.315-11.854,20.116-11.854,37.496v96.871h-28.353V1547.5c0-12.788-1.828-21.932-6.407-28.352
		c-4.565-6.407-12.788-9.117-22.853-9.117c-8.209,0-15.524,1.803-21.905,6.381c-7.315,3.645-11.906,10.052-14.644,18.287
		c-3.645,8.21-4.564,20.09-4.564,34.707v86.833h-29.248V1656.252L2117.34,1656.252z M2333.948,1452.432v-31.996h-11.88v-3.645h29.26
		v3.645h-11.881v31.996H2333.948z M2355.893,1452.432v-35.641h7.315l8.21,25.59c0.934,1.854,0.934,3.67,1.854,4.591
		c0-0.907,0.908-2.736,1.829-5.499l8.235-24.669h6.381v35.642h-4.578v-30.142l-10.052,30.142h-4.591l-10.025-30.142v30.142h-4.579
		V1452.432z M1538.811,1631.584c-6.407,10.051-16.472,16.471-30.168,21.932c-2.736,0.908-6.381,1.828-9.144,2.736
		c-12.558,3.086-25.446,4.619-38.377,4.565c-21.024,0-37.47-4.565-49.351-13.709c-10.972-8.21-17.379-21.024-17.379-37.47
		c0-10.052,2.736-19.195,7.314-27.405c4.565-7.314,10.973-13.734,19.183-19.195c6.407-4.591,16.472-7.314,28.352-9.144
		c10.973-1.828,27.432-2.736,50.258-2.736h38.378v-2.736v-1.855c0-9.117-2.736-16.445-8.21-20.998
		c-5.474-4.591-12.788-7.314-22.853-7.314c-2.736,0-5.499,0.908-7.315,0.908c-8.21,0-14.616,1.828-19.182,4.591
		c-5.499,2.736-9.144,8.21-10.052,15.524h-64.9c1.828-18.287,11.88-31.996,28.325-41.14c14.644-8.21,36.575-11.881,65.809-12.788
		h8.236c31.075,0,54.849,5.499,69.453,15.551c14.616,10.025,21.932,26.497,21.932,48.429v84.991c0,4.591,0.908,9.144,0.908,12.788
		c0.907,2.736,1.828,6.407,2.736,9.144h-59.401c-1.829-2.736-2.736-6.407-3.645-10.052c0-2.736-0.908-7.289-0.908-10.973V1631.584
		L1538.811,1631.584z M1499.499,1624.256c10.973-0.908,20.116-4.565,26.523-10.025c7.289-6.407,11.854-16.472,11.854-28.353v-3.645
		h-5.474c-12.788,0-23.761,0-32.904,0.908c-10.025,0.907-17.354,1.829-22.826,4.565c-10.052,2.736-15.551,9.144-15.551,18.287
		c0,5.474,2.736,10.025,8.235,13.709c5.474,2.736,13.709,4.565,23.761,4.565L1499.499,1624.256z M1047.114,1631.584
		c-7.315,10.051-17.367,16.471-31.076,21.932c-2.736,0.908-5.485,1.828-9.144,2.736c-10.959,2.736-23.761,4.565-38.377,4.565
		c-21.024,0-37.47-4.565-48.442-13.709c-11.88-8.21-17.354-21.024-17.354-37.47c0-10.052,1.815-19.195,6.394-27.405
		c4.565-7.314,10.96-13.734,19.195-19.195c7.303-4.591,16.446-7.314,28.326-9.144c10.973-1.828,27.418-2.736,50.271-2.736h38.39
		v-2.736v-1.855c0-9.117-2.736-16.445-8.223-20.998c-5.486-4.591-12.801-7.314-22.853-7.314c-2.736,0-4.565,0.908-7.315,0.908
		c-8.223,0-14.616,1.828-19.195,4.591c-5.473,2.736-8.21,8.21-10.051,15.524h-64.888c2.749-18.287,11.893-31.996,28.339-41.14
		c15.524-8.21,37.47-11.881,65.795-12.788h8.236c31.075,0,54.836,5.499,69.453,15.551c14.616,10.025,22.853,26.497,22.853,48.429
		v97.779c0.908,2.736,1.829,6.407,2.736,9.144h-59.414c-1.865-3.016-2.82-6.506-2.75-10.052c-0.895-2.736-0.895-7.289-0.895-10.973
		v-3.644H1047.114L1047.114,1631.584z M1006.882,1624.256c11.894-0.908,20.104-4.565,26.51-10.025
		c8.224-6.407,11.881-16.472,11.881-28.353v-3.645h-5.486c-12.801,0-23.761,0-32.904,0.908c-9.144,0.907-16.459,1.829-21.932,4.565
		c-10.973,2.736-15.538,9.144-15.538,18.287c0,5.474,2.736,10.025,7.302,13.709c5.499,2.736,13.709,4.565,24.682,4.565
		L1006.882,1624.256z M814.047,1568.512c0-15.525-3.657-27.405-11.893-36.549c-8.223-9.144-19.183-13.709-33.8-13.709
		c-15.537,0.908-26.51,4.565-34.732,13.709c-8.236,9.144-11.894,21.932-11.894,38.403c0,16.445,3.657,29.233,11.894,38.378
		c8.223,9.144,20.103,12.788,33.812,12.788h0.908c14.617,0,25.59-4.565,33.799-13.709
		C810.39,1598.68,814.047,1584.971,814.047,1568.512z M768.354,1488.073c8.401-1.862,16.984-2.78,25.59-2.736
		c26.51,0,47.534,7.314,63.059,22.853c15.525,15.551,22.853,36.549,22.853,63.072c0,28.325-7.314,50.258-21.918,65.782
		c-15.551,15.551-35.654,23.761-62.164,23.761c-10.052,0-19.183-1.829-27.405-3.645c-4.692-1.503-9.272-3.332-13.709-5.474
		c-12.802-6.407-23.761-14.643-31.997-26.523v5.5c0,4.565,0,8.235-0.921,12.788c0,4.591-0.907,9.144-0.907,12.788h-64.888
		c0.921-6.407,1.828-12.788,1.828-19.195c0.921-6.381,0.921-12.788,0.921-18.262v-201.991h63.98v95.951
		c9.09-9.146,19.987-16.299,31.996-20.998C759.211,1489.928,763.776,1488.994,768.354,1488.073L768.354,1488.073z M270.238,1416.791
		h46.613l116.987,239.461H357.07l-21.023-48.429H205.363l-22.84,48.429h-72.229l125.223-239.461H270.238L270.238,1416.791z
		 M270.238,1561.21h43.877l-41.141-92.306l-2.736,4.564l-42.969,87.754h42.969V1561.21L270.238,1561.21z M444.812,1656.252v-239.461
		h63.979v239.461H444.812z M279.382,1067.671h-16.446v63.979h33.825v-63.979H279.382z M1193.335,1207.511h31.075
		c10.052,0,17.367-2.749,20.104-8.235c3.657-4.565,6.395-16.459,9.144-34.721c6.407,8.224,16.446,13.709,27.405,15.538
		c-6.381,23.761-12.788,37.482-18.262,41.127c-5.485,4.565-15.537,6.395-31.075,6.395h-141.669
		c-26.497,0-39.298-10.96-39.298-32.904v-159.035c0-11.881-0.908-25.59-1.829-41.127h200.149
		c-0.908,16.458-0.908,38.39-0.908,65.809c0,27.418,0,49.35,0.908,66.729h-23.748v-18.288h-151.72v74.031
		c0,16.459,9.144,24.682,26.51,24.682H1193.335L1193.335,1207.511z M1193.335,1087.774h31.997v-72.203h-64.901v72.203H1193.335
		L1193.335,1087.774z M1106.516,1087.774h31.983v-72.203h-64.888v72.203H1106.516L1106.516,1087.774z M896.302,1207.511h31.075
		c10.052,0,17.367-2.749,20.104-8.235c3.67-4.565,6.394-16.459,9.144-34.721c7.315,8.224,16.472,13.709,27.418,15.538
		c-6.394,23.761-12.788,37.482-18.274,41.127c-5.486,4.565-15.551,6.395-31.075,6.395H793.023c-26.497,0-39.299-10.96-39.299-32.904
		v-159.035c0-11.881-0.921-25.59-0.921-41.127h199.255c-0.908,16.458-0.908,38.39-0.908,65.809c0,27.418,0,49.35,0.908,66.729
		h-23.761v-18.288H776.564v74.031c0,16.459,9.144,24.682,26.511,24.682H896.302L896.302,1207.511z M896.302,1087.774h31.996v-72.203
		h-64.9v72.203H896.302z M809.469,1087.774h31.997v-72.203h-64.901v72.203H809.469z M599.268,1208.419h47.534
		c12.789-0.908,26.498-0.908,42.035-0.908v21.933c-13.944-1.746-27.981-2.664-42.035-2.75H473.137
		c-13.709,0-30.167,0.908-47.521,2.75v-21.933c18.274,0,33.799,0,47.521,0.908h70.374v-38.378h-52.086
		c-10.973,0-24.682,0-40.22,0.908v-21.024c15.538,0.908,29.247,1.829,40.22,2.75h52.099v-32.904h-86.845
		c0.921-15.538,1.842-34.733,1.842-56.665c0-21.023,0-45.692-1.842-71.282h199.254c-0.921,15.538-0.921,37.47-0.921,63.98
		c0,26.497,0,48.429,0.921,63.979h-90.49v32.904h55.744c13.696-1.106,27.406-2.023,41.128-2.749v21.023
		c-16.459-0.907-30.155-0.907-41.128-0.907h-55.744v38.377h33.825V1208.419z M599.268,1102.404h33.812v-36.562h-67.638v36.562
		H599.268z M599.268,1049.384h33.812v-40.206h-67.638v40.219h33.825V1049.384z M512.436,1102.404h31.075v-36.562h-62.151v36.562
		H512.436z M512.436,1049.384h31.075v-40.206h-62.151v40.219h31.076V1049.384z M279.382,1151.754h-16.446v28.339h-21.945
		c0.921-11.88,0.921-33.812,0.921-65.809c0-31.996,0-53.928-0.921-65.809h77.688c-0.907,14.617-0.907,34.733-0.907,60.322
		c0,25.59,0,45.692,0.907,60.31h-21.918v-17.354H279.382L279.382,1151.754z M279.382,1010.085h62.151v180.98
		c0,9.131-1.829,14.617-6.395,16.445c-3.645,0.908-12.801,1.829-26.51,1.829c5.499,8.223,8.235,17.354,10.051,26.497
		c16.459-1.829,27.419-4.565,34.733-8.223c7.315-3.657,10.052-12.802,10.052-28.339v-189.19c7.314,0,18.287,0,31.983,0.921v-21.932
		c-14.617,0.908-24.669,0.908-29.247,0.908H265.673c-9.144,0-20.104,0-34.733-0.908v21.932c17.354-0.921,29.247-0.921,34.733-0.921
		H279.382L279.382,1010.085z M177.011,1080.459c15.551,22.854,24.682,39.299,27.418,50.258c2.736,11.894,1.841,19.195-2.737,21.945
		c-4.565,2.736-13.722,5.473-26.51,7.302c4.578,8.223,8.236,16.459,10.052,24.669c11.159-2.482,21.719-7.142,31.075-13.709
		c9.144-7.303,13.709-17.354,12.789-31.983c-1.842-13.71-10.973-33.812-30.155-60.323c9.144-30.154,17.366-59.414,25.589-88.647
		h-82.241c0.908,15.537,0.908,54.836,0.908,116.079c0,62.15,0,105.106-0.908,129.775h23.76v-225.739h31.089
		C189.812,1037.503,183.418,1061.277,177.011,1080.459L177.011,1080.459z"/>
</g>
</svg>
