<?xml version="1.0" encoding="utf-8"?>
<!-- Generator: Adobe Illustrator 15.0.2, SVG Export Plug-In . SVG Version: 6.00 Build 0)  -->
<!DOCTYPE svg PUBLIC "-//W3C//DTD SVG 1.1//EN" "http://www.w3.org/Graphics/SVG/1.1/DTD/svg11.dtd">
<svg version="1.1" id="Layer_1" xmlns="http://www.w3.org/2000/svg" xmlns:xlink="http://www.w3.org/1999/xlink" x="0px" y="0px"
	 width="2279.605px" height="1561.045px" viewBox="110.23 469.462 2279.605 1561.045"
	 enable-background="new 110.23 469.462 2279.605 1561.045" xml:space="preserve">
<path fill="#F1E04A" stroke="#272727" stroke-width="2.791" stroke-miterlimit="2.613" d="M852.01,492.565l-248.202-21.581v4.317
	L145.897,876.679l-34.24,543.783l376.603,461.827l141.215,12.943l1643.321,133.771L2388.33,617.711L852.01,492.565L852.01,492.565z"
	/>
<path fill="#FFFFFF" stroke="#272727" stroke-width="1.395" stroke-miterlimit="2.613" d="M334.192,1165.839
	c0,34.539-29.96,64.745-64.188,64.745c-38.52,0-68.467-30.206-68.467-64.745c0-38.844,29.96-69.051,68.467-69.051
	C304.245,1096.788,334.192,1126.995,334.192,1165.839z"/>
<path fill="none" stroke="#B3465D" stroke-width="0.947" stroke-miterlimit="2.613" d="M488.26,1882.289"/>
<path fill="#272727" d="M702.235,906.885l4.267-60.426l17.12,4.318c25.667,0,64.188,0,59.907,34.524
	c0,25.901-34.24,25.901-64.188,25.901L702.235,906.885L702.235,906.885z M501.1,1152.896l265.336,21.58
	c98.429,8.625,201.122-12.955,209.683-99.271c4.28-51.788-29.96-86.313-89.867-107.896v-4.318
	c51.36-8.625,77.027-43.15,81.308-77.689c8.561-99.257-98.428-125.158-205.414-133.781l-226.815-21.582L501.1,1152.896z
	 M697.942,997.518h17.12c34.239,4.318,81.307,8.639,81.307,43.163c-4.279,34.525-51.347,30.207-85.587,30.207l-21.388-4.306
	L697.942,997.518L697.942,997.518z M1027.465,773.102l363.776,30.207l-8.573,112.215l-166.896-12.943l-4.279,43.15l154.056,12.956
	l-8.561,107.896l-154.056-12.957l-4.293,43.163l175.469,12.943l-8.561,116.533l-372.311-34.524L1027.465,773.102L1027.465,773.102z
	 M1455.428,1079.525l8.562,8.638c34.228,21.582,72.722,43.163,119.813,47.481c17.096,0,51.349,0,51.349-21.58
	c4.278-17.265-21.4-21.582-42.787-25.901l-38.533-8.638c-77.027-17.264-136.948-60.427-132.668-125.158
	c8.56-99.271,132.668-146.74,248.229-133.796c64.16,4.317,119.813,21.581,171.161,47.481l-64.188,103.576
	c-29.974-17.263-68.468-34.525-111.255-38.845c-17.12-4.318-42.813,0-42.813,17.263c-4.28,17.263,21.4,21.582,38.533,25.901
	l42.787,8.625c81.319,21.594,141.228,64.743,132.668,133.796c-8.562,99.257-128.375,142.434-248.202,129.464
	c-68.468-4.306-145.508-25.888-205.415-51.788L1455.428,1079.525L1455.428,1079.525z"/>
<path fill="#272727" d="M1849.125,837.834l415.109,34.525l-12.84,138.114l-106.975-12.957l-25.693,289.175l-196.842-17.275
	l25.68-289.148l-111.28-4.317L1849.125,837.834L1849.125,837.834z M753.582,1403.212l4.28-60.413h12.84
	c29.96,4.307,64.188,4.307,64.188,34.525c-4.293,30.193-34.239,30.193-64.188,25.888H753.582L753.582,1403.212z M548.167,1649.209
	l269.603,21.582c94.147,8.638,201.136-12.943,205.415-99.271c4.28-51.774-29.96-90.605-85.587-107.883v-4.306
	c47.066-8.638,72.734-43.163,77.027-81.995c8.56-94.938-98.428-125.158-201.136-133.796l-231.095-17.263L548.167,1649.209
	L548.167,1649.209z M745.021,1493.857h17.12c34.24,4.307,85.587,4.307,81.32,43.164c-4.293,34.498-51.36,30.192-81.32,25.887
	h-21.399L745.021,1493.857L745.021,1493.857z M1579.521,1308.273l-21.398,250.303c-8.562,120.853-115.535,168.335-265.323,155.378
	c-154.067-8.638-248.215-73.383-239.655-198.528l21.4-250.329l196.855,17.275l-17.12,237.36c-4.28,30.219-4.28,60.412,47.079,64.744
	c55.627,4.307,59.907-25.913,59.907-56.106l21.4-237.386L1579.521,1308.273L1579.521,1308.273z"/>
<path fill="#272727" d="M1802.058,1325.521l51.349,116.521h8.56c4.28-12.943,12.841-25.888,21.4-38.831l42.787-64.745l222.51,17.275
	l-205.415,224.416l-17.095,181.277l-192.602-17.249l17.12-181.278l-171.162-254.636L1802.058,1325.521L1802.058,1325.521z"/>
</svg>
