<?xml version="1.0" encoding="utf-8"?>
<!-- Generator: Adobe Illustrator 15.0.2, SVG Export Plug-In . SVG Version: 6.00 Build 0)  -->
<!DOCTYPE svg PUBLIC "-//W3C//DTD SVG 1.1//EN" "http://www.w3.org/Graphics/SVG/1.1/DTD/svg11.dtd">
<svg version="1.1" id="Layer_1" xmlns="http://www.w3.org/2000/svg" xmlns:xlink="http://www.w3.org/1999/xlink" x="0px" y="0px"
	 width="2426.488px" height="715.71px" viewBox="36.756 892.151 2426.488 715.71"
	 enable-background="new 36.756 892.151 2426.488 715.71" xml:space="preserve">
<g>
	<path d="M2117.262,892.151c-191.07,0-345.979,154.896-345.979,345.98s154.896,345.981,345.979,345.981
		c191.084,0,345.982-154.897,345.982-345.981S2308.346,892.151,2117.262,892.151z M2117.262,1441.369
		c-142.083-0.598-257.618-93.889-318.771-205.714c61.762-111.216,177.905-201.407,318.771-201.407
		c143.329,0,258.229,89.582,318.771,201.407C2375.49,1347.48,2261.836,1441.991,2117.262,1441.369z"/>
	<path d="M2117.262,1421.604c101.32,0,183.458-82.15,183.458-183.471c0-101.333-82.125-183.471-183.458-183.471
		c-101.332,0-183.47,82.138-183.47,183.471C1933.792,1339.452,2015.942,1421.604,2117.262,1421.604z M610.253,910.529h309.511
		c131.462,0,222.989,80.711,222.989,163.068c0,61.567-23.294,119.814-153.095,148.103c49.92,6.653,186.375,43.254,186.375,173.056
		c0,129.801-143.108,193.042-241.289,193.042H610.253v-6.667H931.41c76.548,0,124.809-31.62,124.809-176.389
		c0-144.781-53.254-178.062-119.813-179.723h-99.843v-6.641h105.665c43.268,0,89.024-6.652,89.024-146.441
		c0-139.787-54.914-154.768-113.161-154.768H836.55v663.961H713.402V917.183H610.229v-6.652L610.253,910.529L610.253,910.529z
		 M173.224,1253.411c0-256.271,74.875-347.784,163.069-347.784c124.809,0,193.029,184.715,214.663,256.27V913.94
		c-21.634,16.641-31.621,24.967-54.914,24.967c-23.294,0-58.247-11.646-74.888-21.634c-16.642-9.986-49.921-18.301-83.201-18.301
		c-109.828,0-301.197,144.77-301.197,354.438c0,247.942,169.735,354.45,301.197,354.45c33.28,0,69.895-13.308,86.534-23.308
		c16.641-9.985,48.261-23.293,71.555-23.293c23.293,0,33.28,8.326,54.914,24.968v-249.616
		c-18.313,96.521-89.854,264.583-214.663,264.583c-35.771,0-84.861-16.641-107.325-39.934
		C222.055,1554.089,173.224,1519.642,173.224,1253.411L173.224,1253.411z M1619.443,1454.533
		c-1.646,54.914-43.268,128.142-129.802,126.468c-86.534-1.659-191.355-66.562-231.303-241.289v236.296
		c16.64-14.967,44.939-41.594,89.88-21.634c44.915,19.974,111.488,33.281,141.423,33.281c29.974,0,194.701-31.621,201.355-221.316
		c1.673-94.848-66.574-143.108-108.168-158.089c-48.261-18.312-116.469-39.934-156.429-53.254
		c-39.922-13.308-104.821-54.9-103.174-131.461c1.673-76.548,48.26-118.143,111.514-118.143c63.228,0,148.089,49.92,191.355,226.311
		V897.08c-24.953,21.633-44.939,31.62-59.907,31.62c-13.294,0-51.982-15.188-71.541-21.219c-21.635-6.653-42.865-9.157-69.921-8.729
		c-47.416,0.727-158.904,58.234-166.401,213.002c-5.46,113.071,78.221,156.429,116.495,169.723
		c33.279,11.646,129.801,46.602,158.074,58.247C1561.209,1351.358,1622.79,1391.306,1619.443,1454.533L1619.443,1454.533z"/>
</g>
</svg>
