<svg xmlns="http://www.w3.org/2000/svg" width="2500" height="2492" viewBox="16.548 15.478 463.846 462.454"><g fill="#0083ca"><path d="M241.281 15.478h14.379C325.601 19.422 375.469 45.98 412.44 83.2c36.972 37.22 64.301 86.31 67.953 156.548v13.915c-3.551 71.361-31.363 118.459-67.953 156.78-38.437 36.4-85.688 63.979-157.012 67.488h-14.147c-69.932-3.952-119.809-30.499-156.78-67.721C47.53 372.99 20.2 323.901 16.548 253.663v-13.915c.182-.051.271-.194.232-.464 3.497-69.97 30.976-119.57 67.722-156.316 36.915-36.917 87.3-63.665 156.779-67.49zm-45.457 33.165c-13.78 3.69-26.138 8.376-37.339 13.915-34.094 16.859-62.21 40.979-81.869 71.896-19.188 30.178-35.802 68.999-33.396 119.904 1.517 32.093 8.84 59.089 20.408 82.101 22.845 45.437 57.625 78.916 105.758 99.264 23.802 10.062 53.295 17.12 86.507 15.538 31.857-1.517 59.462-8.678 82.333-20.177 44.824-22.538 80.149-57.312 99.728-105.293 9.902-24.271 17.39-52.31 15.771-86.276-3.064-64.343-29.237-107.971-63.778-141.241-17.091-16.462-37.671-30.465-61.923-40.586-23.531-9.82-54.164-17.101-86.972-15.539-16.129.768-31.344 2.776-45.228 6.494z"/><path d="M227.135 186.637c7.348 4.866 14.864 9.565 21.801 14.843-15.671 9.84-31.034 19.989-46.616 29.918 2.366 1.809 5.056 3.293 7.421 5.102 15.712-9.954 31.429-19.902 47.081-29.918 7.02 4.345 13.931 8.798 20.41 13.684-15.684 9.906-30.842 20.336-46.385 30.381 2.303 1.873 5.126 3.224 7.652 4.871 16.065-9.833 31.73-20.066 47.544-30.149v-32.934h34.789v65.635c9.817.54 20.642.077 30.847.23v30.847h-65.636v-31.311c-19.284 11.716-39.046 24.965-58.444 37.34-20.201-13.117-39.67-26.97-59.836-40.122-5.842 18.517-19.717 32.447-42.675 34.093-14.318 1.024-30.588-.765-47.08 0v-96.712c20.618 1.366 43.258-2.757 59.604 2.319 14.453 4.489 24.7 16.021 29.454 30.382 20.181-12.675 40.038-25.672 60.069-38.499zm-115.963 36.876v34.788c8.287.041 14.59.522 19.481-3.246 7.277-5.605 8.743-19.5 2.319-26.904-4.287-4.94-11.525-5.977-21.569-5.334-.268.039-.251.367-.231.696zM360.722 192.435h34.788v65.866h30.614v30.847h-65.636v-96.017c-.018-.329-.037-.657.234-.696z"/></g></svg>