<?xml version="1.0" encoding="utf-8"?>
<!-- Generator: Adobe Illustrator 15.0.2, SVG Export Plug-In . SVG Version: 6.00 Build 0)  -->
<!DOCTYPE svg PUBLIC "-//W3C//DTD SVG 1.1//EN" "http://www.w3.org/Graphics/SVG/1.1/DTD/svg11.dtd">
<svg version="1.1" id="Layer_1" xmlns="http://www.w3.org/2000/svg" xmlns:xlink="http://www.w3.org/1999/xlink" x="0px" y="0px"
	 width="2279.433px" height="1568.941px" viewBox="110.282 441.385 2279.433 1568.941"
	 enable-background="new 110.282 441.385 2279.433 1568.941" xml:space="preserve">
<g>
	<path fill="#C23C40" d="M1389.686,534.056c-6.459,6.731-29.184,41.103-29.184,83.683c0,10.192,0.182,254.285,0,263.039
		c-0.35,18.572-11.698,45.03-21.05,54.355c-6.589,6.589-47.067,43.397-50.659,47.263l22.956,0.362
		c7.471-7.146,85.444-76.262,93.603-85.562c10.609-12.062,35.9-42.618,35.9-90.606l0.13-252.742
		c0-37.924,17.679-58.96,26.771-69.114c9.352-10.429,40.077-36.058,45.523-41.854l-24.085-0.714
		C1483.768,447.988,1397.699,525.664,1389.686,534.056L1389.686,534.056z M1196.629,1490.537l95.484,83.408h63.939
		c65.005,0,124.433-27.819,163.641-67.016c39.232-39.246,53.682-91.941,53.682-141.24v-136.728
		c0-45.952-28.884-72.683-36.886-80.697c-4.384-4.357-32.191-30.583-32.191-30.583v104.899c0,0,30.647,31.646,36.705,38.065
		c28.325,30.091,28.015,84.875-61.659,172.291c-15.706,15.291-60.517,57.599-122.175,57.599L1196.629,1490.537L1196.629,1490.537z"
		/>
	<path fill="#C23C40" d="M1462.211,929.388c-10.635,11.259-20.842,38.792-20.842,63.06v51.774h52.514
		c20.39,0,47.34-18.586,53.178-28.417c0.35-0.727,0-51.348,0-51.348s13.476,19.3,28.039,29.494
		c5.475-6.913,53.269-64.875,93.293-65.199c66.819-0.545,51.724,83.771,24.422,110.749c-8.847,8.677-48.312,44.888-60.518,56.496
		c-31.567,30.051-85.601,15.667-85.601-61.982c0,0-57.988,55.058-66.678,62.347c-8.741,7.289-38.649,38.974-38.649,38.974v136.416
		c0,65.42-21.53,87.364-39.363,107.04c-6.938,7.639-80.606,74.849-90.465,82.137l-24.059,0.545c0,0,43.11-39.193,51.749-48.169
		c9.831-10.208,21.284-30.934,21.284-65.433c0-8.742-1.09-214.364-1.09-214.364h-335.112
		c-116.561,0-141.476-129.359-142.201-163.964c-0.182-10.193,0-113.512,0-129.542c0-21.258-13.605-57.132-35.329-68.195h32.878
		c3.787,1.597,24.448,9.923,24.448,89.232c0,0-1.4,92.292-1.4,97.208c0,40.206,31.971,86.34,78.168,86.34l379.301-0.363
		c0.352-10.207,10.532-48.896,28.756-69.35c10.361-11.53,91.695-85.963,100.994-93.123l24.086-0.271
		C1510.342,884.823,1471.005,920.114,1462.211,929.388L1462.211,929.388z M1586.747,1007.076c0,0,21.958,29.144,32.424,37.521
		c40.854,32.774,60.245-2.425,32.827-40.075C1641.155,989.684,1599.133,993.964,1586.747,1007.076z"/>
	<path fill="#C23C40" d="M1180.054,1251.439c0,18.312-58.507,66.924-61.931,70.348c-4.229-19.728-18.987-41.516-62.592-85.146
		l64.019-64.019C1162.441,1215.578,1180.054,1224.722,1180.054,1251.439z M1291.075,517.61c12.84,12.84,40.479,47.677,23.891,64.291
		c-14.644,14.655-37.366,37.896-37.366,37.896c-1.142-8.378-22.412-28.546-22.412-28.546s0.183,61.827,0,69.479
		c-0.726,27.911-11.23,35.875-11.23,35.875s51.581,51.18,51.581,116.923c0,31.88,0.13,61.204,0.13,67.533
		c0,13.477-3.397,23.902-12.788,34.24c-4.631,5.136-52.45,53.176-59.727,59.727c-13.853,12.477-28.416,14.563-39.337,14.563
		h-177.804c-28.002,0-56.819-21.854-56.819-43.708c0-5.46,0.362-65.938,0.362-65.938c9.117,10.569,18.392,22.918,40.804,22.594
		c17.496-0.272,35.888-14.021,40.803-18.937c5.097-5.148,134.497-140.424,134.497-140.424s-60.608-56.186-100.529-82.877
		c-19.479-13.061-45.354,3.424-49.259,20.583c-12.243,53.812,0,134.535,0,134.535l-49.091-48.974
		c-19.753-19.806-19.04-64.604,4.514-88.155c3.735-3.748,39.609-44.305,85.186-44.305h70.983c47.625,0,99.712,47.442,99.712,47.442
		s7.651-8.379,7.651-16.483c0-24.409-0.907-90.244-0.907-90.244c-35.836-35.822-40.713-72.799-23.541-89.972
		c32.062-32.049,43.709-43.346,43.709-43.346S1253.696,480.271,1291.075,517.61L1291.075,517.61z M1068.008,874.85
		c-17.521,18.354-20.568,22.943-36.963,32.774h200.24c54.265,0,43.475-33.695,33.747-50.673
		c-19.961-34.837-82.968-99.568-82.968-99.568S1071.652,870.972,1068.008,874.85z"/>
	<path fill="#C23C40" d="M839.676,1057.113h-32.865c0,0,35.316,19.402,35.316,69.439v159.813
		c0,104.005,85.782,200.162,190.007,200.162h87.054c52.269,0,70.606-12.658,102.201-40.699
		c11.582-10.298,26.641-27.197,32.152-33.332c18.223-20.39,37.6-36.873,37.6-90.425v-52.309c0-45.212-26.174-64.031-38.832-76.677
		c-8.105-8.106-30.375-29.39-30.375-29.39v107.144c0,0,21.944,23.371,31.607,30.972c45.199,35.692,9.221,97.662-32.697,97.662
		c-8.379,0-179.526,0.053-191.188,0.351c-70.399,1.752-165.56-61.048-165.56-166.636v-86.832
		C864.11,1057.113,839.676,1057.113,839.676,1057.113L839.676,1057.113z"/>
	<path fill="#C23C40" d="M1049.202,1251.725c0,18.249-58.507,66.926-61.904,70.35c-4.188-19.729-18.987-41.518-62.618-85.146
		l64.02-64.019C1031.641,1215.838,1049.202,1224.942,1049.202,1251.725L1049.202,1251.725z M379.846,1962.468
		c-10.428,0-90.892-0.129-102.396-0.129c-32.295,0-29.831-26.809-32.658-49.727v-146.936c0,0,22.412-0.545,47.806-0.545
		c28.377,0,63.708-4.188,98.077,15.267c0,0-24.72-59.608-98.258-59.608h-47.625v-47.081c0,0,0-41.023-10.013-53.137
		c0,0,63.331,0.232,67.65,0.232c58.558,0.039,103.823-0.855,150.89,30.505c0,0-9.015-77.493-122.11-77.493H110.282
		c0,0,38.352,32.825,37.288,99.658l1.063,267.748c0,67.21,26.899,69.063,26.899,69.063H393.27c49.351,0,66.521-35.29,66.521-54.408
		l0.739-25.667C460.53,1930.188,444.863,1962.468,379.846,1962.468L379.846,1962.468z M959.464,1939.836v-187.271
		c0-72.671-59.375-91.981-103.589-91.981c-58.546,0-76.068,48.909-83.538,65.705c-13.061-45.589-58.688-66.237-96.119-66.237
		c-70.711,0-88.647,67.326-88.647,67.326s-1.674-65.018-58.455-65.018l-55.641,0.13c0,0,32.229,13.255,32.229,69.439l-0.091,207.944
		c0,68.662,27.689,69.854,27.689,69.854H625c-2.373-1.192-35.2-25.952-35.2-70.438v-184.456c1.129-8.195,14.98-36.056,54.538-36.056
		c22.412,0,47.041,23.358,46.483,49.622l-0.077,171.383c0,69.66,27.312,69.855,27.312,69.855h92.061c0,0-35.2-24.772-35.2-70.439
		l-0.272-184.508c3.45-10.285,15.564-35.344,50.312-35.344c27.677,0,50.854,23.358,50.31,49.637c0,0-0.182,156.44-0.091,170.968
		c0.415,70.114,27.327,69.479,27.327,69.479c47.938,0,92.061,0.193,92.061,0.193S959.464,1985.373,959.464,1939.836
		L959.464,1939.836z M1120.328,1939.758c0,46.16,35.33,69.896,35.33,69.896s-43.786-0.194-91.696-0.194
		c0,0-28.132,0.415-28.132-69.168v-0.312l0.091-208.527c0-54.992-31.866-69.116-31.866-69.116h55.641
		c19.623,0,60.466,0,60.466,77.768l-0.144,199.332L1120.328,1939.758L1120.328,1939.758z M1402.861,1688.533
		c0,0-8.846-24.992-46.938-24.992c-57.599,0-71.632,68.441-71.632,68.441c-4.683-54.098-19.183-70.09-59.829-70.09l-55.641,0.144
		c0,0,32.243,13.216,32.243,69.401l-0.104,208.217c0,68.714,27.678,69.842,27.678,69.842h91.696
		c-2.359-1.128-35.187-25.9-35.187-70.399l0.104-170.475c2.412-15.46,10.39-27.354,22.489-35.188
		c30.22-19.57,71.489-14.928,95.12,13.931L1402.861,1688.533L1402.861,1688.533z M1830.786,1701.114
		c31.062,0,54.239,13.565,54.239,13.565l0.271-52.396h-77.131l0.052-79.453c0,0-20.259,35.058-61.735,69.116
		c-26.043,21.387-80.736,47.807-80.736,47.807l58.234,1.05l-0.104,241.642c0,67.015,28.015,67.015,28.015,67.015
		c50.312,0,91.594,0.194,91.594,0.194s-35.407-23.734-35.407-67.807l0.078-240.86
		C1832.33,1701.062,1815.689,1701.114,1830.786,1701.114L1830.786,1701.114z M2109.636,1806.026
		c-51.45,53.812-91.825,45.382-124.172,84.81c0,0.052,5.188,53.461,46.056,72.307c13.955,6.473,70.595,26.912,107.3-36.419
		l-0.261,56.042c0,0-23.553,27.354-98.311,27.354c-90.102,0-151.812-70.842-151.812-166.921
		c0-94.473,50.311-182.174,145.301-182.666C2126.834,1660.052,2177.247,1735.276,2109.636,1806.026L2109.636,1806.026z
		 M2053.321,1783.979c15.227-28.132,27.211-99.582-24.824-95.666c-60.283,4.527-48.818,164.834-48.818,164.834
		C1999.847,1831.24,2030.092,1826.778,2053.321,1783.979L2053.321,1783.979z M1077.71,1634.229c23.631,0,42.8-18.755,42.8-41.88
		s-19.169-41.893-42.8-41.893s-42.801,18.768-42.801,41.893S1054.078,1634.229,1077.71,1634.229L1077.71,1634.229z M1498.41,1970.25
		c-20.921,0-35.875-21.764-35.875-44.071c0-86.689,70.984-98.661,89.959-121.799l0.155,146.169
		C1544.258,1957.993,1535.75,1970.25,1498.41,1970.25z M1552.494,1770.918c-21.336,37.379-187.297,45.303-161.85,173.665
		c10.051,50.906,43.979,65.743,86.638,65.743c41.438,0,66.34-21.633,76.78-41.764c6.188,38.65,25.707,40.882,25.707,40.882
		c47.948,0,91.722,0.193,91.722,0.193s-35.719-23.733-35.719-69.53v-195.144c0-46.679-51.749-83.007-106.768-83.007
		c-52.864,0-86.105,25.46-86.105,25.46v60.556c0,0,18.871-47.975,66.703-47.975c46.69,0,50.128,23.255,49.855,34.861
		C1559.459,1734.861,1564.18,1750.567,1552.494,1770.918L1552.494,1770.918z M2312.664,1915.336
		c0.506,24.552-21.451,56.795-68.168,56.795c-47.833,0-66.925-48.947-66.925-48.947v62.021c0,0,34.5,24.591,87.364,24.591
		c62.748,0,126.184-47.689,124.756-114.068c-0.453-23.358-8.793-43.255-21.529-60.413c-21.23-28.456-59.881-48.353-89.803-66.757
		c-17.068-10.519-26.146-29.312-26.342-35.926c-0.507-11.621,5.123-35.097,51.854-35.097c45.576,0,64.979,47.976,64.979,47.976
		l-0.182-58.092c0,0-34.876-27.689-87.754-27.689c-55.018,0-104.951,36.341-104.018,82.992
		c0.855,40.984,18.132,67.534,51.646,92.539c13.242,9.87,29.054,19.481,47.341,29.637
		C2302.587,1879.695,2312.314,1897.812,2312.664,1915.336L2312.664,1915.336z"/>
</g>
</svg>
