<?xml version="1.0" encoding="utf-8"?>
<!-- Generator: Adobe Illustrator 15.0.2, SVG Export Plug-In . SVG Version: 6.00 Build 0)  -->
<!DOCTYPE svg PUBLIC "-//W3C//DTD SVG 1.1//EN" "http://www.w3.org/Graphics/SVG/1.1/DTD/svg11.dtd">
<svg version="1.1" id="Layer_1" xmlns="http://www.w3.org/2000/svg" xmlns:xlink="http://www.w3.org/1999/xlink" x="0px" y="0px"
	 width="2279.424px" height="419.363px" viewBox="128.271 1040.317 2279.424 419.363"
	 enable-background="new 128.271 1040.317 2279.424 419.363" xml:space="preserve">
<g>
	<path d="M2398.667,1338.376l4.592-11.958h4.437v16.277h-2.894v-13.242h-0.077l-5.098,13.242h-1.972l-5.097-13.242h-0.078v13.242
		h-2.893v-16.277h4.409L2398.667,1338.376z M2386.761,1328.791h-5.019v13.904h-2.894v-13.904h-5.02v-2.373h12.918v2.373H2386.761z"
		/>
	<path fill="#CC2132" d="M998.866,1121.431h61.477v20.998c6.603-5.759,27.886-26.159,67.263-26.159
		c46.313,0,83.097,34.2,83.097,87.869v139.31h-64.952v-122.071c0-29.896-14.564-47.651-40.972-47.651
		c-25.615,0-41.011,16.731-41.011,47.651v122.071h-64.9L998.866,1121.431L998.866,1121.431z M1681.23,1232.439
		c0-30.714,22.957-55.913,54.823-55.913c31.894,0,54.823,25.199,54.823,55.913c0,30.686-22.931,55.911-54.823,55.911
		C1704.176,1288.352,1681.23,1263.139,1681.23,1232.439z M1617.174,1232.439c0,64.043,51.321,116.053,118.453,116.053
		c67.184,0,118.453-52.021,118.453-116.053c0-64.032-51.271-116.172-118.453-116.172
		C1668.495,1116.27,1617.174,1168.407,1617.174,1232.439z M789.781,1232.452c0-30.699,22.942-55.913,54.797-55.913
		c31.893,0,54.823,25.2,54.823,55.913c0,30.687-22.932,55.925-54.823,55.925C812.711,1288.391,789.781,1263.151,789.781,1232.452
		L789.781,1232.452z M725.685,1232.465c0,64.045,51.321,116.054,118.467,116.054c67.156,0,118.466-52.021,118.466-116.054
		s-51.31-116.184-118.466-116.184C777.006,1116.281,725.685,1168.434,725.685,1232.465z M2168.921,1121.431h65.81v222.029h-65.81
		V1121.431z M2168.921,1040.317h65.81v56.482h-65.81V1040.317z M2285.467,1040.317h65.81v303.143h-65.81V1040.317z
		 M2063.996,1232.322c0,31.309-24.047,55.627-55.446,55.627c-31.789,0-55.679-24.24-55.679-55.473
		c0-31.619,24.188-55.588,55.73-55.588C2040.3,1176.89,2063.996,1201.078,2063.996,1232.322z M1954.53,1343.46l0.662-17.081
		c4.604,3.476,24.928,22.165,67.507,22.165c55.978,0,107.908-50.141,107.908-116.066c0-66.042-48.74-116.183-107.183-116.183
		c-44.629,0-65.108,20.466-68.247,22.749v-98.713h-63.098v303.142h62.449L1954.53,1343.46L1954.53,1343.46z"/>
	<path fill="#CC2132" d="M343.012,1343.46l103.513-129.555l-91.594-92.476h90.932l40.583,41.866l74.744-96.196h76.224
		l-109.465,137.868l42.619,42.802l98.4-126.34h76.404l-133.147,168.244l169.074,170.007H689.11l-117.648-119.724l-62.515,81.01
		h-76.393l97.623-122.24l-42.657-43.177l-68.39,87.909L343.012,1343.46L343.012,1343.46z M128.271,1040.317h199.644v56.497H196.181
		v62.838h125.807v54.822H196.181v72.41h131.734v56.574H128.271V1040.317z M1262.633,1040.317h107.352l50.634,221.276h2.309
		l51.932-221.276h104.29v303.143h-63.838v-228.877h-2.918l-56.263,228.877h-71.735l-54.967-228.877h-2.892v228.877h-63.901v-303.143
		H1262.633z"/>
</g>
</svg>
