<?xml version="1.0" encoding="utf-8"?>
<!-- Generator: Adobe Illustrator 15.0.2, SVG Export Plug-In . SVG Version: 6.00 Build 0)  -->
<!DOCTYPE svg PUBLIC "-//W3C//DTD SVG 1.1//EN" "http://www.w3.org/Graphics/SVG/1.1/DTD/svg11.dtd">
<svg version="1.1" id="Layer_1" xmlns="http://www.w3.org/2000/svg" xmlns:xlink="http://www.w3.org/1999/xlink" x="0px" y="0px"
	 width="2279.409px" height="349.301px" viewBox="110.295 1075.35 2279.409 349.301"
	 enable-background="new 110.295 1075.35 2279.409 349.301" xml:space="preserve">
<g>
	<path d="M1495.984,1130.289v278.422h-80.736v-278.422H1495.984z M1049.241,1346.354c0,4.785-1.22,13.5-5.278,18.156
		c-4.061,4.656-7.887,6.758-12.775,7.978c-4.409,1.114-9.623,2.841-22.348,2.841c-12.723,0-17.924-1.727-22.359-2.841
		c-4.877-1.22-8.702-3.32-12.763-7.978c-4.06-4.657-5.278-13.371-5.278-18.156l0.014-216.104h-79.361v197.426
		c-1.79,34.812,10.766,64.823,47.105,78.584c9.507,3.594,41.426,10.816,72.617,10.816c31.192,0,63.099-7.225,72.632-10.816
		c36.341-13.761,48.896-44.759,47.104-79.568v-196.44h-79.361L1049.241,1346.354L1049.241,1346.354z M1228.729,1348.298
		c0,5.421,0.817,13.981,5.24,18.392c4.422,4.409,9.48,8.561,22.619,8.561c13.125,0,18.754-4.15,23.164-8.561
		c4.436-4.409,4.682-12.971,4.682-18.392l-0.024-218.048h80.763v199.631c0,22.854-3.45,29.233-7.627,38.079
		c-7.496,15.938-18.871,27.859-38.533,37.949c-12.113,6.213-33.163,11.142-62.371,11.142c-27.91-0.271-50.958-5.499-62.748-11.53
		c-19.647-10.052-29.312-21.634-36.834-37.561c-2.826-5.979-6.057-18.624-6.276-38.079l-0.013-25.615h77.974L1228.729,1348.298
		L1228.729,1348.298z M1546.164,1167.823v240.862h83.513V1286.16h103.02v-41.75h-103.02v-72.397h108.597v-41.763h-154.601
		c-11.646,0-21.958,0.739-29.337,8.105C1546.956,1145.723,1546.164,1155.308,1546.164,1167.823z M1846.895,1130.289v278.422h-80.724
		v-278.422H1846.895z M1896.906,1371.15c0,11.646,0.765,21.983,8.132,29.362c7.366,7.38,16.925,8.186,29.454,8.186l135.041,0.024
		v-41.774h-91.878v-236.659h-80.764v240.861H1896.906z M2091.775,1408.711v-278.422h89.091l48.739,183.756l48.74-183.756h111.358
		v278.422h-77.948v-194.909l-52.917,194.909h-68.221l-54.278-194.909v194.909H2091.775L2091.775,1408.711z M669.071,1167.823
		v240.862h83.538V1286.16h103.019v-41.75H752.609v-72.397h108.583v-41.763H706.592c-11.66,0-21.971,0.739-29.338,8.105
		C669.889,1145.723,669.071,1155.308,669.071,1167.823L669.071,1167.823z"/>
	<path fill="#CF432A" d="M403.217,1283.073h40.284v-122.954h-40.284V1283.073L403.217,1283.073z"/>
	<path fill="#CF432A" d="M292.741,1283.073c-20.247,0.506-40.503,0.506-60.75,0c-15.278-0.532-26.082-12.23-25.434-27.963
		l0.013-58.364h-32.438v86.327h-63.837v-182.562c0-15.421,10.544-25.161,25.226-25.161h247.852l73.461,61.748H174.119v23.021h72.734
		v79.959c0,4.293,4.254,9.053,8.508,9.312c4.793,0.324,9.603,0.324,14.396,0c4.241-0.39,8.495-5.007,8.495-9.3v-79.958h40.297
		l-0.014,95.017C319.264,1271.387,307.578,1282.567,292.741,1283.073L292.741,1283.073z"/>
	<path fill="#CF432A" d="M302.675,1342.721h-121.41l-45.07-37.871h153.368c38.001,0.688,51.166-23.463,51.166-49.194l0.014-95.548
		h40.492l0.013,103.421C381.83,1307.741,351.779,1342.721,302.675,1342.721L302.675,1342.721z"/>
	<path fill="#CF432A" d="M465.277,1144.167l62.579,52.604v200.447c0,15.784-10.598,27.432-27.496,27.432H279.005l-71.567-60.166
		h257.839V1144.167L465.277,1144.167z"/>
</g>
</svg>
