<?xml version="1.0" encoding="utf-8"?>
<!-- Generator: Adobe Illustrator 15.0.2, SVG Export Plug-In . SVG Version: 6.00 Build 0)  -->
<!DOCTYPE svg PUBLIC "-//W3C//DTD SVG 1.1//EN" "http://www.w3.org/Graphics/SVG/1.1/DTD/svg11.dtd">
<svg version="1.1" id="Layer_1" xmlns="http://www.w3.org/2000/svg" xmlns:xlink="http://www.w3.org/1999/xlink" x="0px" y="0px"
	 width="2279.398px" height="1482.38px" viewBox="110.295 484.563 2279.398 1482.38"
	 enable-background="new 110.295 484.563 2279.398 1482.38" xml:space="preserve">
<g>
	<path fill="#2F489A" d="M1470.291,1019.034c0,27.198-7.25,58.778-28.416,86.664h59.713V669.616h-191.006V847.82
		C1413.834,878.092,1470.291,940.658,1470.291,1019.034L1470.291,1019.034z"/>
	<path fill="#2F489A" d="M1140.12,832.23c43.124,0,83.227,9.521,113.913,17.264c-65.057-10.817-165.818,4.76-217.788,43.63v212.574
		h191.006V863.786c32.604,5.553,63.793,17.488,91.774,35.122v206.803h41.464c-39.064,41.711-112.099,67.119-175.17,57.768v8.729
		c181.707,13.554,258.644-67.857,258.644-159.476c0-107.884-107.131-171.047-216.699-183.848V669.616h-191.03v161.02
		c-123.759,23.477-244.791,93.032-244.791,208.073c0,177.104,261.769,286.775,489.894,286.775
		c346.28,0,612.821-158.181,612.821-380.235c0-268.901-384.916-460.686-687.138-460.686c-346.255,0-601.239,207.943-601.239,430.09
		c0,114.978,68.312,211.382,154.509,278.513l6.484-4.046c-68.222-53.565-129.736-137.064-129.736-251.81
		C655.026,694.193,972.02,557.31,1254.112,557.31c199.462,0,558.011,43.501,558.011,358.73
		c0,164.521-185.908,378.471-576.531,378.471c-199.968,0-355.269-101.332-355.269-246.788
		C880.322,921.812,984.651,832.23,1140.12,832.23z M400.221,1958.149v-24.837h66.95v-214.6H288.305v214.6h68.675v24.837H110.295
		v-24.837h62.748v-437.328h-62.748v-24.863H356.98v24.863h-68.675v193.885h178.866v-193.885h-66.95v-24.863h244.145v24.863h-62.685
		v437.328h62.685v24.837H400.221z M739.018,1471.121H850.83v57.755H739.018V1471.121z M683.908,1958.149v-24.824h60.18v-299.653
		h-60.18v-24.682h171.267v324.335H911.1v24.824H683.908z M935.224,1958.149v-24.837h61.866V1431.85h-61.866v-24.771h173.782v526.234
		h58.493v24.838L935.224,1958.149L935.224,1958.149z M1341.684,1958.149c-61.101,0-94.096-29.56-94.096-75.29v-249.188h-60.167
		v-24.682h60.167v-138.687c33.891,0,69.505,0.816,104.29,0v138.687h86.431v24.682h-86.431v299.653h88.129v24.824L1341.684,1958.149
		L1341.684,1958.149z M1859.54,1853.263c-12.672,32.735-65.251,113.681-193.249,113.681c-142.396,0-215.324-92.138-215.324-185.817
		c0-129.775,122.045-183.432,212.809-183.432c80.503,0,197.49,45.602,206.776,177.814
		C1872.25,1801.189,1869.617,1829.204,1859.54,1853.263z M1738.351,1664.916c-14.409-30.336-40.79-44.123-75.458-44.123
		c-87.312,0-88.984,85.081-88.984,158.763c0,99.206,9.299,116.976,16.005,128.945c11.115,20.077,34.836,38.442,73.862,38.442
		c87.286,0,87.286-88.985,86.457-170.617C1749.297,1687.328,1743.474,1676.122,1738.351,1664.916L1738.351,1664.916z
		 M2169.322,1958.149v-24.824h49.117v-205.908c0-46.419,0-92.06-54.267-92.06c-30.479,0-80.504,28.845-92.356,76.016
		c-4.203,14.396-3.398,29.649-3.398,68.184v153.756h55.926v24.823h-227.151v-24.823h60.166v-299.641h-60.166v-24.682h171.214v52.748
		c18.624-22.425,33.992-38.455,70.374-52.035c21.278-8.5,43.982-12.871,66.896-12.879c6.835,0,27.186,0,50.895,6.511
		c71.28,19.948,74.602,71.23,74.602,108.038v221.938h58.521v24.824h-220.369v0.015H2169.322z M1796.922,1245.162h-18.066v-6.395
		h44.812v6.395h-18.184v61.813h-8.562V1245.162z M1874.611,1294.512h0.35l22.243-55.743h11.452v68.208h-8.664v-51.27h-0.428
		l-21.153,51.27h-7.925l-21.815-51.27h-0.35v51.27h-8.69v-68.208h12.142L1874.611,1294.512z"/>
</g>
</svg>
