<?xml version="1.0" encoding="utf-8"?>
<!-- Generator: Adobe Illustrator 15.0.2, SVG Export Plug-In . SVG Version: 6.00 Build 0)  -->
<!DOCTYPE svg PUBLIC "-//W3C//DTD SVG 1.1//EN" "http://www.w3.org/Graphics/SVG/1.1/DTD/svg11.dtd">
<svg version="1.1" id="Layer_1" xmlns="http://www.w3.org/2000/svg" xmlns:xlink="http://www.w3.org/1999/xlink" x="0px" y="0px"
	 width="2500px" height="2500px" viewBox="0 0 2500 2500" enable-background="new 0 0 2500 2500" xml:space="preserve">
<path fill="#015294" d="M1246.449,8.167c37.002-0.213,73.863-8.594,110.582-0.781c162.571,14.417,322.862,59.091,467.472,135.228
	c187.073,95.81,348.011,241.477,464.766,416.051c119.104,177.557,189.624,386.647,205.532,599.716
	c-2.62,56.392-4.261,113.139,1.208,169.389c-11.641,162.003-52.202,322.656-124.496,468.537
	c-82.45,169.531-204.552,319.531-353.196,435.44c-185.227,145.241-412.5,236.079-647.017,257.606
	c-35.718,2.557-71.385,9.162-107.309,6.393c-23.8-1.57-48.16,6.037-71.022-3.701c87.578-246.37,175.071-492.826,263.424-738.991
	c96.157-1.775,192.4,0.64,288.558-1.136c61.371-2.131,122.024-39.496,142.194-99.148
	c81.321-228.977,164.702-457.315,243.467-687.286c12.926-34.73,20.099-73.438,9.801-109.802
	c-13.92-46.094-56.101-78.693-101.421-90.909c-39.339-12.216-80.901-7.741-121.378-8.451
	c-123.438-0.355-246.874,0.639-370.241-0.568c-1.988,4.119-6.044,12.287-8.025,16.335
	c-199.865,561.363-399.36,1122.877-600,1683.949c-206.108-53.48-398.153-160.582-551.278-308.594
	c-184.446-176.499-312.5-411.222-359.872-662.146c-14.844-75.354-20.242-152.06-24.361-228.551
	c3.338-159.304,29.474-319.318,89.488-467.472C239.702,415.057,578.409,120.384,972.159,36.15
	C770.597,595.028,573.722,1155.61,372.23,1714.56c12.854,3.906,26.349,2.415,39.56,2.55c73.438-0.355,146.946,0.149,220.383-0.143
	c10.015-0.07,8.949-13.991,13.14-20.383c88.494-249.858,178.054-499.361,266.832-749.077c5.327-15.482,10.299-31.107,17.4-45.81
	c46.023,0.781,92.046-0.213,138.068,0.497c-96.52,270.668-192.188,541.762-290.128,811.925c10.228,4.119,21.378,2.841,32.103,3.062
	c77.131-0.718,154.262,0.489,231.393-0.568c87.145-245.952,175.354-491.478,262.72-737.287
	c18.672-50.284,20.306-109.73-9.375-156.108c-25.923-41.051-75.142-60.653-122.088-62.57c-64.205-1.918-128.48,0.142-192.756-0.994
	C1067.826,508.949,1158.807,259.162,1246.449,8.167z"/>
<path fill="#015294" d="M1758.175,904.9c7.663-8.665,21.307-3.409,31.526-4.9c35.653,0.639,71.3-0.284,106.968,0.497
	c-83.032,237.003-169.965,472.656-251.641,710.156c-46.165,3.267-92.685,1.278-138.921,0.994
	C1590.412,1376.207,1673.863,1140.412,1758.175,904.9L1758.175,904.9z"/>
</svg>
