<?xml version="1.0" encoding="utf-8"?>
<!-- Generator: Adobe Illustrator 15.0.2, SVG Export Plug-In . SVG Version: 6.00 Build 0)  -->
<!DOCTYPE svg PUBLIC "-//W3C//DTD SVG 1.1//EN" "http://www.w3.org/Graphics/SVG/1.1/DTD/svg11.dtd">
<svg version="1.1" id="Layer_1" xmlns="http://www.w3.org/2000/svg" xmlns:xlink="http://www.w3.org/1999/xlink" x="0px" y="0px"
	 width="2426.488px" height="433.94px" viewBox="36.756 1033.029 2426.488 433.94"
	 enable-background="new 36.756 1033.029 2426.488 433.94" xml:space="preserve">
<g>
	<path d="M2431.986,1035.195c-17.017,0-31.412,13.086-31.412,30.828c0,17.911,14.383,30.998,31.412,30.998
		c16.848,0,31.258-13.087,31.258-30.998C2463.244,1048.281,2448.834,1035.195,2431.986,1035.195z M2431.986,1091.886
		c-14.163,0-25.174-10.96-25.174-25.849c0-14.643,11.023-25.682,25.174-25.682c13.98,0,25.031,11.037,25.031,25.682
		C2457.005,1080.926,2445.968,1091.886,2431.986,1091.886L2431.986,1091.886z"/>
	<path d="M2436.967,1068.242c5.24-0.662,9.248-3.438,9.248-9.818c0-7.03-4.177-10.143-12.594-10.143h-13.58v35.667h5.396v-15.46
		h6.213l9.429,15.46h6.057L2436.967,1068.242L2436.967,1068.242z M2425.449,1063.91v-11.037h7.342c3.773,0,7.781,0.804,7.781,5.227
		c0,5.474-4.072,5.812-8.664,5.812L2425.449,1063.91L2425.449,1063.91z M1149.562,1151.521H975.43
		c-6.378,0-11.549-5.172-11.549-11.551c0-6.378,5.171-11.549,11.549-11.549h227.736v-95.393H941.333
		c-44.046,0-79.765,37.249-79.765,81.307v52.826c0,44.053,35.712,79.764,79.765,79.764l0,0h163.366
		c6.376,0.009,11.538,5.183,11.529,11.558c-0.007,6.364-5.164,11.521-11.529,11.53H879.246v95.404h270.316
		c44.052,0,79.764-35.712,79.764-79.764l0,0v-52.813C1229.339,1188.77,1193.62,1151.521,1149.562,1151.521z M707.683,1033.029
		H596.116l-159.27,332.376h126.961l15.383-36.938l144.302-0.337l15.731,37.275h126.962L707.683,1033.029z M683.065,1233.074h-63.863
		l32.321-75.394l32.463,76.897L683.065,1233.074z M1877.166,1033.029H1765.6l-159.256,332.376h126.937l15.407-36.938l144.288-0.337
		l15.732,37.275h126.961L1877.166,1033.029z M1852.549,1233.074h-63.861l32.319-75.394l32.58,77.184L1852.549,1233.074z
		 M1595.554,1057.658c-19.985-23.086-59-24.616-95.393-24.616h-241.588v331.507l-0.454,0.415l242.042,0.454
		c36.405,0,75.406-1.53,95.393-24.617c20.013-23.072,24.616-35.395,24.616-141.563
		C1620.17,1093.064,1615.564,1080.73,1595.554,1057.658L1595.554,1057.658z M1501.679,1235.539c0,12.243-9.909,22.152-22.14,22.152
		h-106.495v-116.937h106.495c12.229,0,22.14,9.922,22.14,22.152V1235.539z M309.121,1194.605l-164.638-161.576H36.756v332.376
		h113.875v-160.021l158.49,160.021h113.888v-332.376H309.121V1194.605L309.121,1194.605z M2355.737,1340.788
		c20.013-23.073,24.616-35.396,24.616-141.564c0-106.171-4.604-118.491-24.616-141.564c-20.013-23.086-58.999-24.616-95.394-24.616
		h-113.888c-36.406,0-75.38,1.543-95.394,24.616c-19.985,23.073-24.615,35.395-24.615,141.564s4.63,118.491,24.615,141.564
		c20.014,23.087,59,24.616,95.394,24.616h115.405v101.565h113.888v-101.565l-83.215-0.13
		C2317.995,1363.421,2341.602,1357.092,2355.737,1340.788z M2261.862,1224.773c0,12.229-9.909,22.151-22.14,22.151h-72.656
		c-12.23-0.007-22.141-9.923-22.141-22.151v-61.88c0-12.229,9.909-22.151,22.141-22.151h72.656c12.229,0,22.14,9.909,22.14,22.151
		V1224.773z"/>
</g>
</svg>
