<svg xmlns="http://www.w3.org/2000/svg" width="2500" height="352" viewBox="13.248 6.086 1672.019 235.564"><path d="M111.301 6.1c-1.582.076-3.119.478-4.601 1.425 6.101 1.22 13.25 2.04 17.101 7.6 1.93 2.05 1.329 5.2-.601 7-3.649 4.35-9.915 5.715-15.274 4.325C89.755 22.16 72.57 13.82 53.9 11.65c-10-1.32-19.775 3.49-26.675 10.45-6.37 6.39-8.686 16.09-7.425 24.85 1.409 6.93 6.545 14.13 13.975 15.15-4.4-4.78-5.235-13.08-.675-18.05 2.58-3.2 7.165-3.64 10.975-3.05 14.47 2.69 28.57 7.045 43 9.975 8.08 2.2 16.065 4.825 24.325 6.325.15 9.87.15 19.73 0 29.6-5.33 3.98-10.42 8.265-15.65 12.375 5.09 3.81 10.34 7.38 15.601 10.95.34 13.96-.05 27.916.2 41.875-8.61 6.65-20.146 7.73-30.625 6.5-11.131-.619-21.011-7.25-28.301-15.3 12.221-6.52 24.676-12.67 37.176-18.649.439-22.011.079-44.031.199-66.051-15.62 6.55-31.08 13.45-46.65 20.1 4.5-11.51 13.654-20.835 24.575-26.375-2.851.17-5.841-.04-8.5 1.2-20.44 8.07-37.285 25.415-43.624 46.575-4.24 13.44-2.875 28.134 1.725 41.275 5.7 14.62 16.245 27.561 30.225 34.95 7.851 4.06 16.301 7.864 25.301 7.975 18.63 1.55 38.229-5.479 50.8-19.5 5.489-5.89 8.255-13.569 10.975-21 2.521-7.319 3.66-15.11 3.4-22.85-6.03 11.96-14.05 23.194-25 31.125.069-13.91-.025-27.815.024-41.725 4.761-3.63 9.54-7.255 14.15-11.075-4.73-4.19-9.43-8.375-14.15-12.575.021-9.78-.02-19.58 0-29.35 10.65-.56 22.905-6.18 25.775-17.35 2-7.29 3.045-15.925-1.425-22.525-4.11-4.68-9.44-8.745-15.7-9.875-3.466-.303-7.121-1.666-10.6-1.5zM61.475 73.175c-.04 21.2.125 42.4-.075 63.601-3.54 1.39-7.021 2.91-10.5 4.449C44.48 131.936 40.49 121 38.65 109.9c-.5-9.37 1.24-18.86 4.5-27.65 6.16-2.93 12.185-6.095 18.325-9.075zM1282.926 6.1c-1.716-.052-3.393.285-4.975 1.425 3.6.83 7.404 1.185 10.774 2.875 3 1.44 4.985 4.42 6.024 7.5.561 3.33-1.879 6.4-4.799 7.65-5.24 2.42-11.186 1.3-16.525-.15-12.801-3.92-25.266-8.99-38.325-12.05-6.71-1.43-13.745-2.78-20.524-1-7.351 2.07-14.811 5.59-19.15 12.15-5.601 7.23-6.305 17.175-3.575 25.675 2.25 5.67 6.81 11.245 13.25 11.975-2.101-2.7-5.715-5.425-4.675-9.275.58-3.82 2.164-7.695 5.225-10.175 3.061-2.31 7.25-2.28 10.8-1.25 13.021 2.42 25.73 6.075 38.601 9.125 8.72 1.85 17.095 5.105 25.875 6.725.15 9.83.035 19.66.074 29.5-4.719 4.17-9.439 8.335-14.1 12.575 4.7 3.63 9.315 7.35 14.075 10.9.069 13.991-.024 28 .075 42-8.26 6.189-19.13 7.715-29.15 6.324-11.069-.66-20.75-7.319-28.1-15.199 3.01-2.101 6.45-3.45 9.7-5.15 9.14-4.5 18.165-9.21 27.375-13.55.29-22.03.035-44.07.125-66.1-15.521 6.61-30.92 13.53-46.5 20 3.56-8.45 9.25-16.18 16.899-21.35 2.291-2.09 4.61-4.28 7.75-5-3.14.22-6.39.115-9.25 1.575-21.949 8.88-40.67 28.25-44.8 52.05-1.569 12.08-.444 24.625 3.775 36.075 5.409 13.44 14.935 25.38 27.325 33 5.93 3.61 12.3 6.515 18.949 8.524 15.92 2.65 32.996.36 46.926-8.1 9.189-6.41 17.725-14.72 21.574-25.5 4.131-9.15 5.791-19.145 6-29.125-1.92 2.51-3.045 5.495-4.675 8.175-5.29 8.88-12.135 16.925-20.475 23.075.1-13.95-.125-27.9.125-41.85 4.72-3.41 9.149-7.21 13.899-10.6-4.379-4.54-9.35-8.46-14-12.7-.09-9.78.11-19.57-.1-29.35 9.15-.59 18.405-4.695 23.325-12.725 5.12-8.25 5.09-19.49.149-27.8-3.89-5.14-10.004-8.45-16.324-9.4-2.835-.23-5.788-1.386-8.647-1.474zm-50.225 67.05c.119 21.16 0 42.315.049 63.475-3.609 1.51-7.175 3.105-10.775 4.625-5.22-7.34-9.285-15.595-11.375-24.375-2.31-11.5-1.699-23.965 3.65-34.575 6.2-2.96 12.31-6.06 18.451-9.15zM488.99 13.15c5.96 10.44 2.23 24.59-6.74 32.11-5.51 3.59-11.85 5.57-18.06 7.58.14 42.7.021 85.41.04 128.11.44 1.95-1.35 3.479-3.189 2.7-3.631-.17-4.591-4-6.131-6.58-22.34-41.08-44.439-82.3-66.96-123.29-.43 30.15-.01 60.33-.21 90.489 10.64 2.011 21 7.141 27.96 15.601 3.23-2.5 5.32-6.9 9.46-7.91-1.05 1.91-2.58 3.479-4.04 5.08-8.05 8.91-16.08 17.86-24.12 26.79-3.729-4.7-8.699-9.16-14.92-9.8-4.09-.16-8.819.05-11.8 3.28-3.43 3.06-5.729 8.22-3.28 12.59 2.87 6.27 10.09 7.97 16.17 9.47-7.6 1.5-16.109.62-22.239-4.47-4.88-4.17-9.311-9.461-10.58-15.92-1.71-8.9.95-18.791 7.6-25.101 7.271-7.19 17.93-9.87 27.91-9.3.27-13.141.15-26.28.06-39.42-4.85-.77-11.46-.08-13.72 4.99-1.31 4.11 1.771 7.57 4.82 9.82-3.78-.66-7.98-1.38-10.71-4.31-3.22-3.97-5.72-8.66-6.65-13.72-.93-6.51.78-13.93 6.2-18.12 5.67-4.39 13.22-4.99 20.14-4.83v-27.78c-2.51-3.77-4.92-8.09-9.229-10.04-2.82-1.17-6.5-1.59-8.93.61-3.36 2.85-4.171 7.38-5.5 11.35-1.29-9.69-.32-20.68 6.47-28.28 8.2-10.62 25.55-11.01 34.52-1.19 3.88 3.99 6.54 8.91 9.181 13.76 16.6 29.56 32.87 59.31 49.64 88.77.1-24.43.15-48.879-.02-73.31-2.881-1.12-6.09-1.09-9.021-2.11-5.46-1.44-10.01-4.96-14.05-8.77-2.52 2.96-5.061 5.91-7.41 9-.55-.3-1.64-.89-2.189-1.19 8.6-10.84 17.819-21.19 26.77-31.75 4.69 4.94 10.811 8.98 17.79 9.43 7.287-.839 14.457-6.669 14.967-14.339zM1047.211 36.8c12-7.82 23.979-15.71 36.02-23.47.1 46.14-.09 92.29.1 138.43 2.601 3.54 6.15 6.45 9.301 9.561 1.979-2.12 4.039-4.15 6.08-6.2.479.479 1.439 1.44 1.93 1.91-9.61 8.329-18.92 16.979-28.59 25.22-6.09-6.25-12.391-12.28-18.43-18.561-2.711 2.41-5.19 5.051-7.74 7.621-.521-.4-1.561-1.211-2.08-1.61 4.609-4.41 9.55-8.45 14.21-12.82-.04-34.97.03-69.94-.04-104.9-.112-6.541-3.442-14.371-10.761-15.181zM151.18 38.16c10.33-7.7 20.46-15.68 30.8-23.35.05 25.42-.01 50.85.03 76.28 8.75-7.22 17.569-14.35 26.229-21.67 6.95 7.21 13.44 14.87 20.6 21.85 3.021-2.17 6.12-4.23 9.29-6.17-.569 4.03-5.39 5.41-7.89 8.22.03 13.9 0 27.79.01 41.69.2 10.391-1.3 20.71-1.609 31.09-.471 11.26-4.84 22.771-13.62 30.16-7.141 6.381-16.9 8.68-26.21 9.45-.16.22-.5.67-.67.899l.25-.819c-3.21 0-6.41-.12-9.61-.36 4.021-2.08 8.57-3.41 11.74-6.85 3.64-4.061 7.88-7.93 9.67-13.24 2.93-8.1 3.02-16.83 3.31-25.33-.08-19.05.09-38.11-.09-57.15-4.24-5.53-9.32-10.41-13.82-15.75-2.46 2.63-5.409 4.84-7.52 7.76-.17 19.66-.02 39.33-.07 58.989 2.551 2.541 5.09 5.101 7.66 7.621 2.061-2.07 4.12-4.15 6.18-6.23.461.45 1.37 1.35 1.83 1.8-10 7.82-19.899 15.761-29.899 23.57-6.33-5.62-12.51-11.4-18.74-17.13-2.09 1.56-4.18 3.14-6.28 4.689-.449-.47-1.33-1.41-1.779-1.88 4.8-3.09 9.51-6.319 14.26-9.47-.01-34.96-.01-69.91 0-104.87-.101-2.67.03-5.55-1.38-7.93-.931-1.82-3.03-2.4-4.601-3.5-.351-1.159 1.309-1.649 1.929-2.369zM839.926 19.6c-9.4 7.61-18.59 15.455-27.9 23.175-.1-7.28.125-14.545-.125-21.825-1.439-.07-2.074.58-1.875 1.95-.05 51.46.016 102.915-.024 154.375-5.08-.971-10.17-1.985-15.2-3.125-.08-43.4-.005-86.791-.025-130.2-.109-5.49-1.89-11.01-5.5-15.2-4.5-5.33-11.535-7.805-18.324-8.275-8.051-.23-15.431 4-21.051 9.45-5.17 4.91-7.944 12.5-6.475 19.55.63-4.37 2.055-9.295 6.075-11.725 4.41-1.88 10.285-.365 12.925 3.775 2.26 3.34 2.485 7.515 2.575 11.425.02 11.73-.011 23.46 0 35.2-7.74.12-16.88 1.37-21.351 8.55-4.5 5.62-5.89 13.59-2.8 20.2 2.03 6.54 8.83 9.911 15.149 10.95-3.539-2.289-7.14-6.319-5.05-10.8 2.811-4.5 9.2-5.16 13.95-3.85.19 20.819.1 41.63.05 62.45-7.1 2.479-14.01 6.785-17.8 13.475-2.76 4.77-2.83 10.475-2.6 15.825.85 9.38 7.04 17.944 15.35 22.225 6.28 2.94 13.35 3.03 20.15 2.8 19.3-1.149 37.635-8.81 56.975-9.449 5.76-.431 9.135 5.935 7.625 10.925-1.15 4.51-4.93 7.56-8.5 10.2 6.79-1.44 13.55-3.99 18.85-8.601 5.98-5.069 8.73-13.245 8.351-20.925-.45-7.6-6.58-13.255-12.95-16.525-8.39-4.92-18.52-3.824-27.75-2.824-17.34 2-34.24 7.505-51.75 7.975-5.939.4-11.484-3.805-12.675-9.625-1.34-5.609 3.215-10.516 7.825-12.925 9.979-4.71 21.465-2.966 31.875-.775 12.07 1.261 23.395 6.185 35.475 7.425 6.86.78 14.146-.539 19.775-4.699 5.8-3.58 8.415-10.556 8.574-17.125.071-40.96-.074-81.916.076-122.875 3.74-3.25 7.864-6.165 11.125-9.925-4.561 1.13-7.42 5.405-11.15 8.025-7.371-6.132-14.585-12.422-21.875-18.652zm-20.451 20.7c4.2 3.6 8.335 7.27 12.525 10.9.01 12.9-.03 25.8 0 38.7-1.99 1.96-4.165 4.03-7.075 4.4-4.74 1-9.355-1.345-12.925-4.275.02-15.06.01-30.115 0-45.175 2.501-1.5 4.996-3 7.475-4.55zM812 93.6c6.141 3.12 14.041 4.065 20 .025-.02 5.85-.02 11.725 0 17.575-2.42-2.36-5.529-4.235-9-4.225-4.079-.09-7.829 1.835-11 4.225.02-5.86-.01-11.73 0-17.6zm10.95 15.225c3.96.1 7 3.055 9.05 6.175-.029 16.33.011 32.67 0 49 .32 5.01-3.129 9.295-6.899 12.175-3.64 2.89-8.58 2.99-13 2.75-.25-21.33-.011-42.694-.101-64.025 2.86-3.11 6.48-6.135 10.95-6.075zM1315.26 46.22c6.479-5.68 12.579-11.78 19.2-17.3 5.6 5.91 11.5 11.53 17.189 17.35-6.83 6.39-13.7 12.73-20.62 19.02-5.228-6.39-10.609-12.63-15.769-19.07zM567.36 52.3c4.05-2.78 9.17-2.61 13.851-3.21-3.53 2.79-7.45 6.03-7.931 10.84-.79 4.3 1.931 8.17 5.101 10.75 5.77 4.62 13.18 7.2 17.88 13.12 2.26 2.86 3.63 6.48 3.53 10.15-.03 19.4.02 38.79-.03 58.18 5.159 4.17 10.34 8.29 15.489 12.46 1.5-.97 3-1.939 4.511-2.91-.07-21.17.109-42.35-.091-63.51-2.649-3.13-6.319-5.37-9.35-8.16 7.44-6.85 14.73-13.88 22.32-20.56 6.6 6.48 13.54 12.61 20.31 18.91a204.04 204.04 0 0 1-7.93 7.94c-.05 18.61 0 37.22-.03 55.83 6.76 5.24 13.521 10.49 20.35 15.65.961-.561 1.931-1.11 2.921-1.66-.101-22.729.01-45.45-.061-68.18-3.13-2.67-6.37-5.22-9.46-7.94 7.3-6.9 14.69-13.68 22.03-20.53 7.31 5.72 14.63 11.44 21.899 17.21 2.521-2.78 5.101-5.54 7.98-7.97.37.53 1.13 1.6 1.5 2.13-6.22 5.54-12.4 11.15-18.43 16.9-.521 18.12-.01 36.3-.25 54.43-15.83 10.4-32.36 19.891-48.42 30.01-8.471-6.07-16.7-12.47-25.061-18.68-7.5 6.03-15.01 12.07-22.56 18.04-1.08 1.2-2.19-.55-3.08-1.05-7.061-5.67-14.08-11.391-21.23-16.93-3 2.619-6.149 5.069-9.159 7.689-.48-.46-1.42-1.37-1.9-1.82 3.67-2.539 7.26-5.21 10.93-7.75.021-17.57.021-35.13 0-52.7-.01-4.7-1.66-9.46-4.87-12.94-3.53-3.83-8.28-6.52-11.09-11.01-3.11-5.22-3.39-11.69-2.2-17.521C556.57 60.92 561.801 55.9 567.36 52.3zM1680.301 64.85c.72 1.84.949 3.895.049 5.725-2.209 5.05-8.229 6.99-13.35 6.9-5.359-.48-9.54-4.335-13.15-7.975-6.06 4.06-12.149 8.09-18.199 12.15-6.98 4.7-14.686 8.17-22.426 11.4-.029 9.94.009 19.86-.024 29.8 5.65 4.71 11.46 9.21 17 14.05-4.25 4.5-8.44 9.064-12.45 13.774-4.119 4.96-8.01 10.69-8.25 17.351-.24 7.569 3 15.765 9.7 19.774 2.96 1.74 6.56 3.29 10 1.95-4.28-1.53-9.545-4.63-9.175-9.85 1.189-4.94 7.055-8.245 11.925-6.825 5.05 1.44 9.22 5.05 12.45 9.1 12.98-9.35 26.65-17.705 40.85-25.075-.109-12.609.176-25.25-.125-37.85-6.27-4.4-12.25-9.195-18.449-13.675 6.56-8.31 13.159-17.1 15.899-27.5 1.019-4.389 1.364-9.924-2.275-13.224zm-41.801 18.9c4.211 6.05 9.785 11.935 17.426 13.175 7.609 1.79 14.984-2.335 19.975-7.825-6.83 12.63-17.425 22.77-28.375 31.85-2.96-3.14-6.145-6.065-9.074-9.225.118-9.32.018-18.655.048-27.975zm10.725 37.7c3.28 2.76 6.521 5.569 9.8 8.35 1.5.9.766 2.78.975 4.2-.09 10.83.136 21.695-.125 32.525-2.449-5.541-6.119-10.695-11.299-13.976-7.511-4.909-17.836-5.194-25.476-.425-3.5 1.939-6.3 4.835-8.95 7.775 3.79-7.4 9.915-13.24 15.676-19.101 6.58-6.338 13.159-12.668 19.399-19.348zM298.875 69.475c-8.64 5-16.989 10.455-25.449 15.725-7.171 3.74-14.455 7.27-21.676 10.9.03 20.25-.029 40.5.051 60.75-3.08 2.391-6.676 4.11-9.476 6.851.54.319 1.61.97 2.15 1.3 2.42-2.09 4.814-4.22 7.475-6 8.95 7.439 17.396 15.495 26.325 22.975.439-.229 1.325-.694 1.775-.925 15.119-11.72 30.395-23.265 45.524-34.975l-1.875-1.65c-8.42 6.56-16.61 13.466-24.95 20.125-6.89-6.2-13.555-12.645-20.425-18.875-2.34-1.71-1.03-4.955-1.2-7.375 14.11-10.33 28.226-20.665 42.125-31.275-6.939-12.441-13.654-24.991-20.374-37.551zm-21.8 14.925c7.14 11.73 14.315 23.42 21.375 35.2-7.18 5.05-14.3 10.16-21.399 15.3-.071-16.83-.106-33.67.024-50.5zM532.725 69.45c-6.09 4.01-12.22 7.97-18.45 11.75-9.109 5.7-18.984 9.99-28.525 14.9.03 20.24-.055 40.485.025 60.725-2.939 2.19-6.189 3.925-9.05 6.225.3.53.925 1.595 1.225 2.125 3.17-2.13 6.3-4.315 9.55-6.325 8.19 7.83 16.5 15.541 24.75 23.301 15.431-11.461 30.57-23.33 45.851-35 1.96-.4.35-3.58-.9-2.351-8.28 6.42-16.314 13.17-24.475 19.75-6.4-6.35-12.755-12.729-19.125-19.1-2.061-1.81-.84-4.83-.95-7.2 13.58-10.08 26.74-20.735 40.35-30.775-6.271-12.9-13.606-25.315-20.276-38.025zm-20.25 15.35c7 11.4 13.415 23.18 19.875 34.9-6.67 4.89-13.115 10.08-19.726 15.05-.309-16.64.001-33.3-.149-49.95zM927.176 69.5c-6.68 3.89-13.271 7.9-19.75 12.1-7.61 4.64-15.926 7.935-24.025 11.575.19 21.24.055 42.485.075 63.726-2.71 2.699-5.445 5.39-8.075 8.149.551-.03 1.65-.11 2.2-.149 1.92-2.051 3.92-4.051 5.9-6.051 9.09 7.44 18.045 15.041 27.075 22.551 1.489 1.439 3.175-.705 4.625-1.226 14.52-7.94 28.239-17.295 43.199-24.425.23-19.79.07-39.575.101-59.375 2.7-2.7 5.435-5.39 8.075-8.15-.53.01-1.586.055-2.125.075-2.521 2.07-5.07 4.085-7.601 6.125-9.899-8.3-19.755-16.665-29.674-24.925zM910.25 84.175c7.141 6.71 14.41 13.32 21.551 20.05-.07 21.07-.05 42.13-.05 63.2-7.32-6.42-14.271-13.229-21.5-19.75l-.001-63.5z"/><path d="M1084.48 116.7c10.3-15.81 20.82-31.48 31.38-47.13a29.66 29.66 0 0 0 16.19 6.9c5.84.01 10.819-3.46 15.22-6.93-1.11 8.53-3.95 17.39-10.5 23.32-5.71 5.24-14.37 6.5-21.56 3.94-4.24-1.44-8.16-3.7-11.671-6.47-.62 1.46-1.13 2.97-1.5 4.51 14.62 22.02 28.98 44.24 43.341 66.44 3.299-2.14 6.189-4.841 9.1-7.47.57.359 1.699 1.08 2.27 1.439-10.33 9.21-20.99 18.05-31.58 26.97-13.61-21.809-26.92-43.809-40.69-65.519zM1579.076 69.475c-6.361 3.87-12.746 7.735-19.025 11.725-8.69 6.04-18.655 9.8-27.875 14.9.1 20.24 0 40.495.049 60.725-3.18 2.1-6.319 4.239-9.5 6.3.41.5 1.24 1.525 1.65 2.025 2.74-2.03 5.215-4.44 8.176-6.2 8.25 7.67 16.879 14.925 25.25 22.475.799 1.28 1.965-.03 2.774-.55 15.08-11.62 30.2-23.17 45.3-34.75-1.77-3.1-3.779-.095-5.55 1.175-7.09 5.771-14.165 11.535-21.274 17.275-7.271-6.63-14.291-13.505-21.701-19.976a62.045 62.045 0 0 1-.024-6.25c14.15-10.25 28.136-20.74 42.175-31.149-6.761-12.61-13.546-25.195-20.425-37.725zM1557.25 84.75c7.65 11.31 14.371 23.26 21.551 34.9-7.28 4.991-14.36 10.27-21.6 15.3.119-16.73.01-33.47.049-50.2zM995.5 71.14c5.721 5.21 10.53 11.35 15.841 16.98 5.78-5.54 11.43-11.24 17.01-16.99 4.06 2.6 8.29 6.25 13.5 5.2 3.67-.25 5.58-3.85 8.7-5.32.01 7.65-1.75 15.69-6.811 21.63-5.8 6.94-16.77 8.97-24.529 4.21-2.98-1.45-4.961-4.23-7.74-5.94.069 20.92.039 41.83.02 62.75 4.12 3.17 8.25 6.33 12.49 9.35 3.08-2.02 5.449-5.74 9.34-6.09-9.141 8.7-18.72 16.98-28.25 25.27-7.16-6.75-14.48-13.33-21.561-20.159-2.76 2.479-5.31 5.18-7.939 7.79-.42-.49-1.26-1.461-1.68-1.95 3.47-3.86 7.34-7.34 10.89-11.13-.13-17.9.07-35.8-.09-53.69-1.9-4.52-5.2-8.44-7.59-12.76-3.271 1.93-5.65 5.95-9.72 6.09 9.25-8.551 18.92-16.641 28.119-25.241zM1366.57 93.52c8.51-7.45 16.84-15.09 25.4-22.48 6.14 6.77 12.49 13.35 18.52 20.22 9.04-6.53 17.721-13.55 26.67-20.22 6.271 6.72 12.42 13.55 18.75 20.22 8.87-6.72 17.631-13.58 26.561-20.21 6.1 6.8 12.39 13.43 18.561 20.17 3.779-2.41 7.25-5.3 11.1-7.61.29 2.24-1.75 3.26-3.17 4.5-2.061 1.66-4.061 3.4-6.12 5.05-.171 18.62.04 37.24-.11 55.859a395.015 395.015 0 0 0 10.86 10.84c1.95-2.029 3.95-4.02 5.85-6.1.57.36 1.72 1.07 2.29 1.43-9.33 9.19-18.949 18.101-28.529 27.03-6.75-7.97-13.83-15.68-20.421-23.79 1.601-1.47 3.16-3 4.7-4.539.02-16.061 0-32.121 0-48.171-5.1-5.689-10.18-11.4-15.439-16.939-1.521 1.55-3.041 3.09-4.541 4.649-.02 20.08.08 40.16-.05 60.24 2.53 2.84 5.38 5.38 7.95 8.21-6.91 6.13-13.57 12.55-20.439 18.74a943.739 943.739 0 0 1-18.95-20.53c1.77-2.18 5.319-3.76 4.76-7.08-.08-15.66.08-31.33-.08-46.979-4.28-5.96-9.08-11.73-14.04-17.17-1.449 1.54-2.92 3.05-4.4 4.56.041 19.45-.109 38.91.07 58.36 2.1 3.579 5.23 6.51 7.84 9.739-6.71 7.051-13.64 13.9-20.63 20.67-6.68-7.959-13.6-15.709-20.33-23.619 2.101-1.631 4.22-3.24 6.33-4.87-.06-16.431-.12-32.87.03-49.3-3.939-4.88-8.26-9.44-12.4-14.15-2.939 2.18-5.529 4.92-8.89 6.46-.163-1.53 1.347-2.26 2.297-3.19z"/><path d="M1307.381 94.81c8.8-8.06 17.91-15.81 26.8-23.78 6.33 7.2 12.479 14.56 18.78 21.79 3.27-2.56 6.199-5.6 9.819-7.71-.27 1.15-.579 2.34-1.649 2.99-2.711 2.25-5.4 4.51-8.131 6.7.041 18.65-.08 37.29.061 55.94 3.561 4.02 7.24 7.96 10.561 12.199 2.77-1.689 5.08-4 7.72-5.879.56.299 1.689.89 2.25 1.18-8.79 8.24-17.91 16.14-27.07 23.949-6.09-7.319-12.34-14.52-18.569-21.729-2.711 2.46-4.971 5.44-7.94 7.58-.42-.39-1.26-1.19-1.681-1.59 2.641-2.5 5.131-5.16 7.811-7.64.21-16.94.01-33.9.1-50.841-.16-2.36.601-5.15-1.239-7.03-3.261-4.05-6.261-8.31-9.73-12.18-2.583 2.091-5.034 4.361-7.893 6.051z"/></svg>