<?xml version="1.0" encoding="utf-8"?>
<!-- Generator: Adobe Illustrator 15.0.2, SVG Export Plug-In . SVG Version: 6.00 Build 0)  -->
<!DOCTYPE svg PUBLIC "-//W3C//DTD SVG 1.1//EN" "http://www.w3.org/Graphics/SVG/1.1/DTD/svg11.dtd">
<svg version="1.1" id="Layer_1" xmlns="http://www.w3.org/2000/svg" xmlns:xlink="http://www.w3.org/1999/xlink" x="0px" y="0px"
	 width="1969.414px" height="708.803px" viewBox="302.069 895.61 1969.414 708.803"
	 enable-background="new 302.069 895.61 1969.414 708.803" xml:space="preserve">
<g>
	<path d="M554.341,927.04c-128.153,150.501-251.03,337.136-252.262,476.639c-0.479,52.488,16.277,98.312,56.47,133.019
		c57.846,49.984,121.579,67.61,185.001,67.716c92.683,0.129,184.716-37.263,256.775-66.095
		c121.358-48.532,1462.86-631.097,1462.86-631.097c12.942-6.483,10.518-14.563-5.683-10.53
		c-6.536,1.634-1460.434,395.643-1460.434,395.643c-27.54,7.789-55.996,11.863-84.615,12.114
		c-111.733,0.661-211.16-61.36-210.355-192.058C502.41,1061.251,518.064,999.58,554.341,927.04L554.341,927.04z"/>
</g>
</svg>
