<?xml version="1.0" encoding="utf-8"?>
<!-- Generator: Adobe Illustrator 15.0.2, SVG Export Plug-In . SVG Version: 6.00 Build 0)  -->
<!DOCTYPE svg PUBLIC "-//W3C//DTD SVG 1.1//EN" "http://www.w3.org/Graphics/SVG/1.1/DTD/svg11.dtd">
<svg version="1.1" id="Layer_1" xmlns="http://www.w3.org/2000/svg" xmlns:xlink="http://www.w3.org/1999/xlink" x="0px" y="0px"
	 width="460.968px" height="157.922px" viewBox="75.516 285.746 460.968 157.922"
	 enable-background="new 75.516 285.746 460.968 157.922" xml:space="preserve">
<path fill="#008ABF" d="M485.236,443.668c1.433,0,3.056-0.771,4.179-1.367c27.448-14.465,46.992-42.805,47.069-77.597
	c-0.077-34.78-19.621-63.123-47.069-77.583c-1.123-0.592-2.746-1.375-4.179-1.375c-2.388,0-3.688,1.472-3.688,4.168v16.59
	c0,2.126,0.709,3.391,2.101,4.413c0,0,0.418,0.31,1.229,0.841c17.832,11.845,28.483,30.231,28.483,52.946
	c0,22.728-10.651,41.113-28.483,52.953c-0.812,0.542-1.229,0.845-1.229,0.845c-1.392,1.026-2.101,2.293-2.101,4.41v16.598
	C481.549,442.199,482.85,443.668,485.236,443.668 M173.28,414.104h16.089c2.939,0,4.423-1.545,4.423-4.423v-50.689
	c0-5.955,7.447-9.716,15.426-9.716c5.008,0,8.699,1.117,10.93,3.315c1.96,1.927,2.893,4.82,2.889,8.608v48.482
	c0,2.972,1.561,4.423,4.423,4.423h16.097c2.939,0,4.427-1.545,4.427-4.423v-48.343c0.042-22.251-13.452-31.785-31.372-31.785
	c-6.089,0-15.636,1.755-22.82,6.532V305.12c0-3.019-1.654-4.456-4.365-4.456H173.28c-2.719,0-4.439,1.437-4.439,4.456v104.561
	C168.841,412.652,170.41,414.104,173.28,414.104 M80.547,409.02c0.608,0.236,14.729,5.988,32.479,5.988h0.229
	c30.001-0.047,44.56-12.491,44.645-33.25c0.093-22.665-14.551-29.521-33.618-35.59c-18.266-5.827-21.151-9.375-21.151-15.38
	c0-5.976,5.817-9.084,15.705-9.084c9.299,0,21.929,3.019,26.174,3.944c3.277,0.713,4.834-1.09,4.834-3.576v-11.056
	c0.008-2.318-0.794-4.439-4.268-5.595c-7.774-2.596-17.347-4.223-29.641-4.055c-18.68,0.256-38.258,8.294-38.258,31.285
	c0,17.107,10.434,26.84,33.122,33.866c16.403,5.078,21.771,9.903,21.756,16.515c-0.016,6.944-6.093,10.817-19.563,10.817
	c-14.06,0-27.209-5.449-32.511-6.754c-3.307-0.821-4.965,0.724-4.965,3.338v12.661C75.516,406.596,78.037,408.048,80.547,409.02
	 M380.574,415.483c12.475,0,20.767-4.535,25.043-7.677c4.35,3.156,12.158,7.77,24.036,7.77c19.726,0,34.416-8.16,34.416-29.252
	V336.5c0-2.975-1.562-4.439-4.432-4.439h-14.47c-2.947,0-4.441,1.557-4.441,4.439v47.975c0,5.357-3.126,10.772-12.022,10.772
	c-5.886,0-11.409-2.696-11.409-7.96V336.5c0-2.975-1.561-4.439-4.427-4.439h-14.475c-2.937,0-4.428,1.557-4.428,4.439v50.787
	c0,5.666-5.73,7.96-11.9,7.96c-8.827,0-11.474-5.202-11.474-10.772V336.5c0-2.975-1.549-4.439-4.423-4.439h-14.473
	c-2.94,0-4.433,1.557-4.433,4.439v49.823C347.266,405.143,360.864,415.483,380.574,415.483 M293.705,416.533h0.236
	c2.026-0.02,2.731-0.022,4.431-0.022c12.634,0,27.239-3.77,31.36-4.899c1.605-0.438,4.601-1.273,4.601-4.85v-41.313
	c0.051-13.585-2.385-21.112-8.271-26.869c-5.673-5.548-15.437-9.059-29.73-9.059c-8.633,0-17.955,1.43-24.66,3.474
	c-2.533,0.792-4.202,2.391-4.202,5.511v9.857c-0.039,2.299,1.471,4.177,5.589,3.244c4.822-1.112,13.501-2.932,21.58-2.932
	c10.601,0,16.255,4.944,16.255,12.552v2.843c-5.213-1.227-10.321-2.018-16.497-2.018c-22.069,0-35.795,9.958-35.795,27.944
	C258.603,405.44,270.3,416.533,293.705,416.533 M298.5,377.989c5.046,0,9.645,0.906,12.395,1.987v15.945
	c-1.355,0.396-7.643,2.088-14.465,2.088c-9.536,0-14.222-3.862-14.222-9.609C282.206,382.582,286.311,377.989,298.5,377.989"/>
</svg>
