<svg id="Layer_1" xmlns="http://www.w3.org/2000/svg" viewBox="0 0 327 80" enable-background="new 0 0 327 80" width="2500" height="612"><style>.st0{fill:#23336a}.st1{fill:url(#SVGID_1_)}.st2{filter:url(#Adobe_OpacityMaskFilter)}.st3{opacity:.9;mask:url(#SVGID_2_);fill:url(#SVGID_3_);enable-background:new}.st4{filter:url(#Adobe_OpacityMaskFilter_1_)}.st5{fill:url(#SVGID_5_)}.st6{opacity:.3;mask:url(#SVGID_4_);fill:url(#SVGID_6_);enable-background:new}.st7{fill:#fff}</style><path class="st0" d="M147.5 0H7.3C3.3 0 0 3.3 0 7.3v65.3c0 4 3.3 7.3 7.3 7.3h140.1V0z"/><linearGradient id="SVGID_1_" gradientUnits="userSpaceOnUse" x1="236.863" y1="2.15" x2="236.863" y2="81.775" gradientTransform="matrix(1 0 0 -1 0 82)"><stop offset="0" stop-color="#d82231"/><stop offset=".256" stop-color="#c51f2d"/><stop offset=".772" stop-color="#941724"/><stop offset="1" stop-color="#7c131f"/></linearGradient><path class="st1" d="M147.5 0H319c4 0 7.3 3.3 7.3 7.3v65.3c0 4-3.3 7.3-7.3 7.3H147.5V0z"/><defs><filter id="Adobe_OpacityMaskFilter" filterUnits="userSpaceOnUse" x="147.5" y="1.6" width="171" height="39.5"><feColorMatrix values="1 0 0 0 0 0 1 0 0 0 0 0 1 0 0 0 0 0 1 0"/></filter></defs><linearGradient id="SVGID_3_" gradientUnits="userSpaceOnUse" x1="232.95" y1="80.103" x2="232.95" y2="50.858" gradientTransform="matrix(1 0 0 -1 0 82)"><stop offset="0" stop-color="#d36b75"/><stop offset=".141" stop-color="#d5515d"/><stop offset=".295" stop-color="#d63c4a"/><stop offset=".468" stop-color="#d72d3d"/><stop offset=".675" stop-color="#d82535"/><stop offset="1" stop-color="#d82233"/></linearGradient><path class="st3" d="M147.5 1.6h171c-5.5 24-26.3 39.5-34.2 39.5H147.5V1.6z"/><defs><filter id="Adobe_OpacityMaskFilter_1_" filterUnits="userSpaceOnUse" x="9.4" y="1.6" width="138" height="39.5"><feColorMatrix values="1 0 0 0 0 0 1 0 0 0 0 0 1 0 0 0 0 0 1 0"/></filter></defs><mask maskUnits="userSpaceOnUse" x="9.4" y="1.6" width="138" height="39.5" id="SVGID_4_"><g class="st4"><linearGradient id="SVGID_5_" gradientUnits="userSpaceOnUse" x1="5777.446" y1="81.35" x2="5777.446" y2="37.266" gradientTransform="rotate(180 2879.506 41)"><stop offset="0" stop-color="#fff"/><stop offset="1"/></linearGradient><path class="st5" d="M-380.2 0h723.6v42.1h-723.6z"/></g></mask><linearGradient id="SVGID_6_" gradientUnits="userSpaceOnUse" x1="5680.562" y1="83.102" x2="5680.562" y2="3.612" gradientTransform="rotate(180 2879.506 41)"><stop offset="0" stop-color="#fff"/><stop offset=".033" stop-color="#ebeff7"/><stop offset=".116" stop-color="#becde4"/><stop offset=".205" stop-color="#97aed4"/><stop offset=".299" stop-color="#7694c6"/><stop offset=".399" stop-color="#5b7fbb"/><stop offset=".507" stop-color="#466fb3"/><stop offset=".628" stop-color="#3764ad"/><stop offset=".773" stop-color="#2f5da9"/><stop offset="1" stop-color="#2c5ba8"/></linearGradient><path class="st6" d="M147.5 1.6H9.4c5.5 24 26.3 39.5 34.2 39.5h103.9V1.6z"/><path class="st7" d="M97.4 75.1c1 .5 2.9 1.1 5.4 1.1 4.2.1 6.5-1.5 8.2-5.3l22.6-50.4c-.9-.5-3-1.1-4.7-1.1-2.9-.1-6.8.5-9.3 6.5l-7.3 17.3-14.4-23.3c-.9-.3-3.2-.7-4.8-.7-5.1 0-7.9 1.9-10.8 5.1l-14 15.2 11.2 17.7c2.1 3.2 4.8 4.9 9.2 4.9 2.9 0 5.3-.7 6.4-1.2L81.7 40.4l9.6-10.2L107 54.9l-9.6 20.2zm-29.7-19c0 3.7-1.5 5.9-8.7 5.9-1 0-1.8-.1-2.6-.2V12.4c0-3.7 1.3-7.7 8.6-7.7.9 0 1.9.1 2.7.3v51.1zm-14.9-7.5c0 6.9-4.5 12-13.7 13-6.7.7-16.3-.1-20.9-.6-.2-.7-.3-1.7-.3-2.4 0-6 3.3-7.4 6.3-7.4 3.2 0 8.2.6 11.9.6 4.1 0 5.4-1.4 5.4-2.7 0-1.7-1.6-2.4-4.8-3.1L28 44.3c-7.3-1.4-11.1-6.4-11.1-11.7 0-6.5 4.6-11.9 13.6-12.9 6.8-.7 15.1.1 19.7.6.2.8.2 1.5.2 2.3 0 6-3.2 7.3-6.3 7.3-2.4 0-6-.4-10.2-.4-4.2 0-6 1.2-6 2.6 0 1.5 1.7 2.1 4.3 2.6l8.3 1.5c8.6 1.6 12.3 6.4 12.3 12.4zM187.9 65.6h-14c-1.6 0-3-.2-4-.5s-1.7-.7-2.2-1.2c-.5-.5-.9-1.1-1.1-1.9-.2-.8-.3-1.6-.3-2.5V20.1c0-.9.1-1.7.3-2.5.2-.7.5-1.3 1.1-1.9.5-.5 1.3-.9 2.2-1.2 1-.3 2.3-.4 3.9-.4h13.5c4.1 0 7.5.3 10.2 1 2.7.7 5 1.6 6.7 2.8 1.7 1.2 2.9 2.6 3.6 4.2.7 1.6 1.1 3.3 1.1 5.2 0 2.6-.8 4.7-2.3 6.6-1.6 1.9-3.8 3.3-6.6 4.3l-1.4.5 1.4.4c4 1.1 6.8 2.7 8.5 4.7 1.7 2 2.5 4.3 2.5 6.9 0 4.8-1.9 8.4-5.7 11-3.7 2.6-9.6 3.9-17.4 3.9zm-8.9-9.2h7.6c3.7 0 6.3-.5 7.9-1.4 1.7-1 2.6-2.7 2.6-5.1 0-.7-.1-1.4-.4-2.1-.3-.8-.8-1.5-1.6-2.1-.7-.6-1.8-1-3.1-1.4-1.3-.4-3-.5-5.1-.5H179v12.6zm0-20.8h7.6c1.8 0 3.3-.2 4.4-.5 1.2-.3 2.1-.8 2.9-1.4.7-.6 1.2-1.2 1.5-2 .3-.7.4-1.4.4-2.2 0-2-.8-3.5-2.3-4.5-1.5-.9-3.8-1.4-7.2-1.4H179v12zM230.5 54.9v-9.7h18.2c4.3 0 6.7-1.5 6.7-7.1 0-1.3-.1-2.6-.4-3.4h-24.5V24.6h18.7c4.3 0 6.7-1.5 6.7-7 0-1.3-.2-2.6-.4-3.4h-28c-8 0-9.5 4.2-9.5 8.4v42.9h32.3c4.3 0 6.7-1.5 6.7-7 0-1.3-.1-2.6-.4-3.5l-26.1-.1zM290.8 24.7h10.1c3.3 0 6.7-1.5 6.7-8.1 0-.8-.1-1.7-.2-2.4h-39.2c-3.3 0-6.7 1.5-6.7 8.1 0 .8.1 1.7.2 2.5h16.6v40.8c.9.2 2 .2 3.1.2 7.7 0 9.5-2.2 9.5-6.2l-.1-34.9z"/></svg>