<?xml version="1.0" encoding="utf-8"?>
<!-- Generator: Adobe Illustrator 15.0.2, SVG Export Plug-In . SVG Version: 6.00 Build 0)  -->
<!DOCTYPE svg PUBLIC "-//W3C//DTD SVG 1.1//EN" "http://www.w3.org/Graphics/SVG/1.1/DTD/svg11.dtd">
<svg version="1.1" id="Laag_1" xmlns="http://www.w3.org/2000/svg" xmlns:xlink="http://www.w3.org/1999/xlink" x="0px" y="0px"
	 width="810.144px" height="161.824px" viewBox="19.582 344.08 810.144 161.824"
	 enable-background="new 19.582 344.08 810.144 161.824" xml:space="preserve">
<path id="XMLID_94_" fill="#EE2A24" d="M81.083,505.904c-55.479-0.127-61.373-36.131-61.501-51.506h29.341
	c0.128,7.303,3.459,24.344,29.981,24.344c8.457,0,15.119-1.281,19.988-3.715c6.278-3.332,9.481-8.586,9.481-15.762
	c0-11.273-9.738-14.605-25.625-18.705l-15.375-3.717c-23.447-5.893-45.613-11.402-45.613-45.356c0-6.663,1.41-19.475,10.122-30.11
	c9.481-11.531,24.6-17.297,45.101-17.297c19.604,0,34.466,6.022,44.46,17.81c10.25,12.172,11.531,26.394,11.531,32.032h-29.213
	c-0.769-6.278-2.69-22.807-28.957-22.807c-6.406,0-12.3,1.409-16.528,3.972c-5.253,3.204-7.944,7.944-7.944,14.094
	c0,11.916,9.225,14.222,14.863,15.631l34.722,9.225c19.604,5.125,37.669,13.708,37.669,41.384c0,19.859-7.816,34.082-23.576,42.539
	C101.071,505.136,86.593,505.904,81.083,505.904"/>
<polyline id="XMLID_93_" fill="#EE2A24" points="209.338,501.804 178.844,501.804 178.844,375.856 135.666,375.856 135.666,348.181 
	252.389,348.181 252.389,375.856 209.338,375.856 209.338,501.804 "/>
<polyline id="XMLID_92_" fill="#EE2A24" points="698.396,501.804 589.361,501.804 589.232,348.053 694.937,348.053 694.937,375.984 
	619.214,375.984 619.214,407.503 688.787,407.503 688.787,435.306 619.214,435.306 619.214,474.001 698.396,474.001 
	698.396,501.804 "/>
<path id="XMLID_89_" fill="#EE2A24" d="M326.702,501.804l-9.226-31.52h-52.274l-9.866,31.52h-32.16l51.122-153.623h34.852
	l50.609,153.623H326.702 M273.401,443.251h35.619l-17.554-59.835L273.401,443.251z"/>
<path id="XMLID_86_" fill="#EE2A24" d="M396.787,501.804h-30.366l-0.128-153.623h65.601c27.547,0,44.717,18.962,44.717,49.329
	c0,7.944-2.307,19.988-8.457,29.855c-8.072,12.811-20.627,19.346-37.412,19.346h-33.954L396.787,501.804 M396.787,419.547
	l27.419,0.128c21.909,0,21.909-16.528,21.909-23.576c0-14.862-7.559-20.884-25.88-20.884h-23.447V419.547z"/>
<path id="XMLID_85_" fill="#EE2A24" d="M483.273,484.763V372.397c0-15.631,13.066-28.316,29.34-28.316
	c15.375,0,27.42,10.635,29.598,25.625l9.738,50.097l-27.934,5.381l-10.25-53.043c0,0-0.127-0.641-0.768-0.641
	c-0.385,0.128-0.514,0.513-0.514,0.769L512.613,474h70.213v27.805h-84.18C490.062,501.804,483.273,493.091,483.273,484.763"/>
<path id="XMLID_82_" fill="#EE2A24" d="M815.761,350.103l4.484,0.128c2.816-0.128,4.1,1.025,4.1,3.332
	c0,2.05-1.281,2.947-3.076,3.075l3.332,5.253h-1.922l-3.203-5.125h-1.922v5.125h-1.793v-11.66 M817.554,355.356h1.922
	c1.537,0,3.074-0.128,3.074-1.922c0-1.538-1.408-1.793-2.561-1.793h-2.436V355.356L817.554,355.356z"/>
<path id="XMLID_79_" fill="#EE2A24" d="M829.726,355.997c0,5.51-4.482,10.122-10.121,10.122c-5.51,0-9.994-4.612-9.994-10.122
	c0-5.509,4.484-9.994,9.994-9.994C825.242,346.003,829.726,350.487,829.726,355.997 M819.603,347.541
	c-4.611,0-8.455,3.844-8.455,8.456c0,4.741,3.844,8.457,8.455,8.457c4.74,0,8.457-3.716,8.457-8.457
	C828.06,351.384,824.345,347.541,819.603,347.541z"/>
<path id="XMLID_78_" fill="#EE2A24" d="M764.894,505.904c-55.35-0.127-61.371-36.131-61.371-51.506h29.213
	c0.256,7.303,3.459,24.344,29.98,24.344c8.455,0,15.246-1.281,20.115-3.715c6.279-3.332,9.355-8.586,9.355-15.762
	c0-11.273-9.609-14.605-25.627-18.705l-15.246-3.717c-23.447-5.893-45.613-11.402-45.613-45.356c0-6.663,1.281-19.475,10.123-30.11
	c9.352-11.531,24.6-17.297,44.971-17.297c19.605,0,34.596,6.022,44.461,17.81c10.377,12.172,11.531,26.394,11.66,32.032h-29.342
	c-0.643-6.278-2.691-22.807-28.957-22.807c-6.406,0-12.172,1.409-16.527,3.972c-5.254,3.204-7.943,7.944-7.943,14.094
	c0,11.916,9.354,14.222,14.861,15.631l34.852,9.225c19.475,5.125,37.67,13.708,37.67,41.384c0,19.859-7.945,34.082-23.576,42.539
	C784.882,505.136,770.533,505.904,764.894,505.904"/>
</svg>
