<?xml version="1.0" encoding="utf-8"?>
<!-- Generator: Adobe Illustrator 15.0.2, SVG Export Plug-In . SVG Version: 6.00 Build 0)  -->
<!DOCTYPE svg PUBLIC "-//W3C//DTD SVG 1.1//EN" "http://www.w3.org/Graphics/SVG/1.1/DTD/svg11.dtd">
<svg version="1.1" id="Layer_1" xmlns="http://www.w3.org/2000/svg" xmlns:xlink="http://www.w3.org/1999/xlink" x="0px" y="0px"
	 width="2279.405px" height="655.648px" viewBox="110.297 922.176 2279.405 655.648"
	 enable-background="new 110.297 922.176 2279.405 655.648" xml:space="preserve">
<g>
	<path fill="#28539C" d="M285.166,1464.234h277.515c3.242,0,3.242,1.621,0,3.241c-30.829,14.593-76.274,60.037-76.274,60.037
		c-30.829,30.855-55.174,50.312-108.738,50.312H111.514c-1.622,0-1.622-3.243,0-3.243c29.208-16.212,73.033-61.658,73.033-61.658
		C202.393,1491.821,239.72,1464.234,285.166,1464.234z M2109.338,1464.234h279.148c1.621,0,1.621,1.621,0,3.241
		c-32.451,14.593-76.275,60.037-76.275,60.037c-32.477,30.855-56.82,50.312-108.752,50.312h-266.152c-1.621,0-1.621-3.243,0-3.243
		c29.208-16.212,73.033-61.658,73.033-61.658C2028.199,1491.821,2063.893,1464.234,2109.338,1464.234z M741.209,1464.234h277.514
		c3.243,0,3.243,1.621,0,3.241c-30.828,14.593-76.273,60.037-76.273,60.037c-30.829,30.855-55.174,50.312-108.739,50.312H569.178
		c-3.242,0-3.242-3.243-1.621-3.243c29.208-16.212,73.033-61.658,73.033-61.658C658.449,1491.821,695.776,1464.234,741.209,1464.234
		z M1197.252,1464.234h277.527c3.241,0,3.241,1.621,0,3.241c-30.829,14.593-76.275,60.037-76.275,60.037
		c-30.855,30.855-55.174,50.312-107.131,50.312h-266.152c-1.621,0-1.621-3.243-1.621-3.243
		c30.829-16.212,73.033-61.658,73.033-61.658C1114.492,1491.821,1151.818,1464.234,1197.252,1464.234z M1653.295,1464.234h279.148
		c1.621,0,1.621,1.621-1.621,3.241c-30.829,14.593-76.275,60.037-76.275,60.037c-30.854,30.855-55.199,50.312-107.131,50.312
		h-266.152c-1.62,0-1.62-3.243,0-3.243c29.209-16.212,73.033-61.658,73.033-61.658
		C1570.535,1491.821,1607.849,1464.234,1653.295,1464.234L1653.295,1464.234z"/>
	<path fill="#CC2131" d="M1729.583,922.176c-175.3,0-292.144,90.88-292.144,228.839c0,126.599,107.13,210.979,266.151,210.979
		c51.957,0,97.402-6.485,150.955-21.104v-105.47c-37.34,42.19-82.786,58.403-131.475,58.403
		c-94.136,0-159.035-61.659-159.035-152.538c0-89.271,66.521-154.186,160.655-154.186c50.311,0,90.893,19.469,123.368,53.554
		V933.537C1813.964,927.04,1771.761,922.176,1729.583,922.176L1729.583,922.176z M421.491,996.817
		c64.914,0,142.823,12.981,175.286,40.568V936.768H135.858v100.619c32.45-27.587,102.241-38.947,176.895-38.947v275.904
		c0,40.558-3.242,51.933-19.468,73.033h147.687c-16.225-21.102-19.479-32.477-19.479-73.033L421.491,996.817L421.491,996.817z
		 M892.151,1095.828c-25.967,9.74-74.654,11.361-98.998,11.361h-38.962V998.451h51.932c47.067,0,126.585,9.728,157.427,37.327
		V936.78H627.607c16.225,19.468,19.467,32.45,19.467,71.397v266.165c0,40.558-3.242,51.933-17.847,73.033h357.044v-100.633
		c-48.688,37.327-142.81,37.327-180.137,37.327h-51.943v-115.225h37.326c25.967,0,73.033,3.242,100.62,12.982v-86.002h0.014
		V1095.828z M1390.372,949.763c-53.553-17.847-123.343-27.587-176.896-27.587c-97.377,0-191.511,30.829-191.511,134.704
		c0,178.529,292.118,84.396,292.118,194.769c0,35.691-51.932,50.31-94.122,50.31c-74.654,0-126.585-12.996-191.512-55.187v90.879
		c48.688,16.237,115.236,25.966,186.635,25.966c100.62,0,194.755-29.208,194.755-134.691c0-188.256-290.497-103.86-290.497-194.754
		c0-37.327,47.067-50.31,87.637-50.31c68.17,0,142.823,21.089,183.38,61.671v-95.77H1390.372L1390.372,949.763z M2140.193,928.661
		c-157.44,0-269.422,90.879-269.422,219.099c0,126.599,100.646,209.357,248.318,209.357c159.035,0,269.396-87.624,269.396-217.464
		C2388.486,1013.056,2287.867,928.661,2140.193,928.661z M2128.818,1295.459c-84.381,0-137.959-68.169-137.959-152.562
		c0-84.395,53.578-152.563,137.959-152.563c82.76,0,137.959,68.169,137.959,152.563
		C2266.777,1227.29,2211.578,1295.459,2128.818,1295.459z"/>
</g>
</svg>
