<svg width="402" height="245" viewBox="0 0 402 245" fill="none" xmlns="http://www.w3.org/2000/svg">
<path d="M398.781 94.9023C394.359 120.161 381.285 143.085 363.783 161.611C345.976 180.409 324.117 194.902 299.866 203.989C293.984 206.199 287.968 208.039 281.855 209.499C274.707 211.186 267.116 212.077 260.432 208.372C256.253 206.059 252.524 202.67 250.815 198.111C249.409 194.039 249.227 189.644 250.291 185.47C252.458 175.842 258.398 167.099 265.104 159.99C271.626 153.051 279.519 148.256 287.95 143.947C298.65 138.481 310.058 133.995 321.806 131.498C332.189 129.288 344.216 128.338 353.944 133.442C366.354 139.954 368.425 155.755 366.244 168.277C363.841 182.067 356.258 194.486 346.258 204.107C335.653 214.316 322.565 221.572 309.086 227.288C296.2 232.793 282.727 236.809 268.929 239.258C242.87 243.811 215.809 241.954 190.812 233.115C165.166 224.025 142.46 207.76 124.641 187.304C106.283 166.23 91.4776 140.16 86.7095 112.397C85.5733 105.862 85.1336 99.2246 85.3978 92.5966C85.4936 90.4678 82.1773 90.4678 82.0815 92.5966C80.8508 121.899 93.718 150.79 110.27 174.288C126.63 197.529 148.304 217.138 173.958 229.616C198.755 241.579 226.296 246.716 253.74 244.496C267.845 243.35 281.76 240.513 295.187 236.047C309.513 231.317 323.7 225.108 336.154 216.526C348.314 208.143 358.86 197.153 364.895 183.555C370.481 171.032 372.81 155.364 366.797 142.576C364.129 136.786 359.423 132.179 353.576 129.634C348.565 127.556 343.193 126.485 337.768 126.481C325.313 126.253 312.844 129.774 301.348 134.282C295.691 136.492 290.16 139.013 284.781 141.832C280.293 144.086 275.971 146.656 271.847 149.523C263.741 155.502 257.012 163.148 252.112 171.946C247.513 180.137 244.057 190.56 247.852 199.724C249.857 204.571 253.659 208.313 258.17 210.928C264.868 214.817 272.312 214.795 279.733 213.344C292.733 210.795 305.46 205.875 317.317 199.982C329.298 194.004 340.56 186.684 350.886 178.163C371.41 161.22 388.345 139.343 397.181 114.077C399.273 108.105 400.875 101.973 401.972 95.742C402.333 93.6574 399.142 92.7955 398.773 94.8654L398.781 94.9023Z" fill="#E27152"/>
<path d="M65.4783 102.791C69.8995 99.3954 74.2373 95.9106 78.4915 92.3367C79.5378 91.4531 80.5842 90.5695 81.6232 89.6711C82.6083 88.8927 83.539 88.0467 84.4086 87.1392C85.8823 85.4611 87.1866 82.8624 85.6244 80.7908C85.4523 80.5168 85.2059 80.2981 84.9144 80.1605C84.623 80.023 84.2985 79.9723 83.9794 80.0144C83.6603 80.0566 83.3598 80.1898 83.1133 80.3984C82.8669 80.607 82.6848 80.8822 82.5885 81.1917C80.2821 88.1118 82.9938 95.4626 86.3761 101.521C89.6063 107.303 93.7418 112.52 98.6229 116.973C101.389 119.494 104.376 121.758 107.546 123.737C109.359 124.881 111.032 121.992 109.219 120.856C104.042 117.607 99.3985 113.567 95.4543 108.88C91.5194 104.194 87.9382 98.6776 86.0887 92.7896C84.9833 89.285 84.6149 85.6096 85.7865 82.0753L82.758 82.4762C83.6938 83.7162 81.4537 85.4463 80.6284 86.1368C78.7862 87.7406 76.9269 89.3271 75.0503 90.8963C71.361 93.9702 67.6128 96.9724 63.8056 99.9028C63.4353 100.135 63.1672 100.502 63.0562 100.927C62.9453 101.352 62.9998 101.804 63.2087 102.19C63.433 102.57 63.7967 102.846 64.2213 102.959C64.6459 103.071 65.0974 103.011 65.4783 102.791Z" fill="#E27152"/>
<path d="M67.4215 39.7193C66.9532 39.4781 66.4444 39.341 65.9257 39.3165C65.4071 39.292 64.8891 39.3804 64.403 39.5766C63.9168 39.7727 63.4724 40.0725 63.0964 40.4579C62.7204 40.8434 62.4206 41.3067 62.2149 41.8199C61.411 43.9564 60.9874 46.2366 60.9662 48.5417C60.8563 49.1199 60.857 49.716 60.9682 50.2939C61.0794 50.8717 61.2987 51.419 61.6128 51.9026C62.3268 52.6859 63.2922 53.1456 64.3109 53.187C65.3288 53.2028 66.3198 52.8347 67.112 52.1462C67.9042 51.4578 68.4475 50.4925 68.6479 49.4179C69.2768 46.8328 69.402 44.1356 69.0159 41.4958L65.961 42.8882C68.2689 46.6212 70.7328 50.4502 74.4455 52.6948C74.8284 52.9368 75.2849 53.005 75.7146 52.8846C76.1443 52.7641 76.5119 52.4649 76.7367 52.0526C76.9614 51.6403 77.0248 51.149 76.9129 50.6864C76.8011 50.2238 76.5231 49.828 76.1402 49.586C72.9404 47.6655 70.8555 44.3166 68.8486 41.0757C68.6414 40.7035 68.317 40.4236 67.9344 40.2871C67.5518 40.1505 67.1365 40.1663 66.7637 40.3315C66.3953 40.5056 66.0958 40.8142 65.9183 41.203C65.7408 41.5918 65.6967 42.0355 65.7937 42.4559C66.0138 44.2857 65.9308 46.143 65.5484 47.9416C65.4802 48.285 65.387 48.6221 65.2697 48.9498C65.2135 49.0739 65.1503 49.1943 65.0802 49.31C65.1694 49.1659 64.8572 49.55 65.0802 49.3939C65.0802 49.3939 64.6342 49.67 64.8572 49.5379H64.69C64.8461 49.5379 64.8238 49.5379 64.6119 49.5379H64.4335C64.5673 49.5379 64.5673 49.5379 64.4335 49.5379C64.3493 49.5252 64.2668 49.5011 64.1882 49.466V49.466C64.0991 49.394 64.0879 49.466 64.1882 49.466L64.0768 49.346C64.2552 50.0182 64.3332 50.1982 64.3221 49.8741V49.5139C64.3221 49.0338 64.3444 48.5537 64.389 48.0736C64.4485 47.1462 64.564 46.224 64.7346 45.3127C64.8149 44.5713 65.0189 43.8517 65.3366 43.1883C65.4927 42.9482 65.3366 43.0801 65.5596 42.9001C65.4147 43.0441 65.7714 42.768 65.8049 42.756C65.5708 42.8521 66.1282 42.756 65.8049 42.756C65.4816 42.756 65.961 42.8401 65.8049 42.756C66.1878 42.998 66.6443 43.0664 67.074 42.9459C67.5037 42.8255 67.8713 42.5262 68.096 42.114C68.3208 41.7017 68.3842 41.2102 68.2723 40.7476C68.1605 40.285 67.8825 39.8891 67.4996 39.6472L67.4215 39.7193Z" fill="#E27152"/>
<path d="M73.6878 37.9038C74.5537 40.3214 75.7511 42.6074 77.2459 44.6966C78.6111 46.8436 80.3921 48.6968 82.4844 50.1472C85.1733 51.6862 86.3438 48.5849 86.819 46.5483C87.468 43.6681 87.468 40.6799 86.819 37.7997C86.71 37.441 86.4884 37.1267 86.1868 36.9034C85.8853 36.6801 85.5198 36.5594 85.1443 36.5594C84.7689 36.5594 84.4033 36.6801 84.1018 36.9034C83.8002 37.1267 83.5786 37.441 83.4696 37.7997C82.9247 41.153 82.9247 44.572 83.4696 47.9253C83.9752 50.8376 83.8806 53.8223 83.1914 56.6968C82.3222 59.5436 80.0622 61.3258 77.5936 62.726C74.7077 64.4155 71.7059 65.9199 68.681 67.3548C66.6412 68.2922 68.4145 71.2893 70.4311 70.3519C73.6098 68.9138 76.7052 67.2989 79.7029 65.5148C82.4642 64.0572 84.6798 61.7476 86.0193 58.9303C88.8009 52.3689 85.3587 45.4488 86.7958 38.7601H83.4464C83.8844 40.6851 83.9591 42.6749 83.6666 44.6273C83.3743 45.5464 83.1344 46.4815 82.948 47.4277C82.6815 48.0411 83.006 47.879 83.9216 46.9185L83.5623 46.6176C83.2464 46.2733 82.9096 45.9488 82.554 45.6456C80.1107 43.2008 78.2284 40.2554 77.0372 37.0129C76.2723 34.9415 72.9113 35.8556 73.6878 37.9386V37.9038Z" fill="#E27152"/>
<path d="M98.7934 24.8599V47.6107C98.8079 48.0227 98.9722 48.4165 99.2572 48.7223C99.5422 49.0281 99.9294 49.2263 100.35 49.2817C100.772 49.3371 101.199 49.2461 101.558 49.025C101.917 48.8038 102.183 48.4666 102.31 48.0732C103.18 45.066 104.062 41.7119 106.435 39.4449C106.661 39.2251 107.09 39.0748 106.733 38.8897C106.796 39.0717 106.872 39.2494 106.959 39.4217C107.229 40.2102 107.432 41.0188 107.567 41.8392C108.066 43.5937 107.999 45.4544 107.376 47.1712C107.168 47.5654 107.118 48.0208 107.237 48.4485C107.356 48.8762 107.635 49.2456 108.02 49.4844C108.429 49.7136 108.914 49.7778 109.371 49.6632C109.828 49.5485 110.221 49.2641 110.464 48.8714C111.526 46.3253 111.718 43.5158 111.012 40.8559C110.571 38.7278 109.915 35.524 107.09 35.4199C104.575 35.3273 102.632 38.1379 101.559 40.0464C100.383 42.2931 99.4786 44.6646 98.8649 47.1133L102.37 47.576V24.8599C102.37 24.3998 102.181 23.9585 101.846 23.6331C101.511 23.3078 101.056 23.125 100.582 23.125C100.107 23.125 99.6524 23.3078 99.3171 23.6331C98.9818 23.9585 98.7934 24.3998 98.7934 24.8599V24.8599Z" fill="#E27152"/>
<path d="M116.157 38.6466C116.184 39.0734 116.184 39.5018 116.157 39.9286C116.157 40.1168 116.157 40.3167 116.157 40.5167C116.157 40.7166 116.157 40.646 116.157 40.5167C116.157 40.6225 116.157 40.7166 116.157 40.8107C116.025 41.634 115.839 42.4456 115.642 43.2454C115.154 44.8888 114.896 46.6011 114.876 48.3262C115.084 53.2072 121.082 52.0782 124.059 51.4666C124.468 51.3305 124.811 51.028 125.016 50.6237C125.22 50.2194 125.269 49.7454 125.153 49.3025C125.02 48.8681 124.737 48.5047 124.363 48.2862C123.989 48.0677 123.551 48.0106 123.139 48.1264C121.809 48.4595 120.444 48.6058 119.079 48.5616C118.805 48.5353 118.534 48.4841 118.269 48.4087C118.17 48.4087 117.919 48.4087 118.138 48.4087C117.984 48.3146 117.952 48.291 118.039 48.4087C118.086 48.4374 118.121 48.4834 118.138 48.538V48.6321C118.138 48.4321 118.083 48.3851 118.138 48.5027C118.192 48.6203 118.138 48.2086 118.138 48.1733C118.138 47.8675 118.138 47.3854 118.192 47.209C118.411 45.8734 118.692 44.5505 119.035 43.2454C119.412 41.7882 119.556 40.2731 119.462 38.7642C119.451 38.3001 119.274 37.8582 118.969 37.5299C118.663 37.2016 118.252 37.0119 117.82 37C117.385 37 116.967 37.1859 116.659 37.5167C116.351 37.8476 116.178 38.2963 116.178 38.7642L116.157 38.6466Z" fill="#E27152"/>
<path d="M117.748 33.5312C118.205 33.5312 118.643 33.3485 118.966 33.0233C119.289 32.698 119.471 32.2569 119.471 31.7969C119.471 31.3369 119.289 30.8959 118.966 30.5706C118.643 30.2454 118.205 30.0625 117.748 30.0625C117.291 30.0625 116.853 30.2454 116.529 30.5706C116.206 30.8959 116.025 31.3369 116.025 31.7969C116.025 32.2569 116.206 32.698 116.529 33.0233C116.853 33.3485 117.291 33.5312 117.748 33.5312Z" fill="#E27152"/>
<path d="M135.508 20.8381L132.535 32.4834C131.432 36.2905 130.541 40.1507 129.864 44.0477C129.753 44.4842 129.815 44.9445 130.038 45.3396C130.261 45.7348 130.63 46.0367 131.072 46.1871C131.529 46.3072 132.016 46.254 132.433 46.0386C132.849 45.8231 133.163 45.462 133.308 45.0306C133.974 41.1325 134.862 37.272 135.967 33.4663L138.94 21.8212C139.496 19.6471 136.003 18.7219 135.447 20.896L135.508 20.8381Z" fill="#E27152"/>
<path d="M130.384 52.0312C130.841 52.0312 131.28 51.8485 131.603 51.5233C131.926 51.198 132.107 50.7569 132.107 50.2969C132.107 49.8369 131.926 49.3957 131.603 49.0705C131.28 48.7452 130.841 48.5625 130.384 48.5625C129.927 48.5625 129.489 48.7452 129.166 49.0705C128.843 49.3957 128.661 49.8369 128.661 50.2969C128.661 50.7569 128.843 51.198 129.166 51.5233C129.489 51.8485 129.927 52.0312 130.384 52.0312Z" fill="#E27152"/>
<path d="M42.0798 26.6254C39.4122 26.8525 31.552 25.9717 30.2423 29.2264C28.7945 32.7054 34.6171 36.1823 36.8387 37.6403C39.2405 39.2153 41.8446 40.5057 44.2625 42.0657C45.9532 43.1035 47.5203 44.3226 48.9355 45.7011C50.9242 47.7161 51.5555 51.1376 48.868 52.5856C42.8109 55.8518 33.8009 51.475 30.0752 46.8823C28.9135 45.445 26.3818 46.9974 27.5709 48.4567C30.8391 52.6196 35.6397 55.3511 40.9574 56.0734C44.6693 56.5602 52.3904 56.309 54.5243 52.4383C56.9362 48.0576 50.1205 42.5454 47.156 40.5144C44.1916 38.4834 40.7932 36.8583 37.7806 34.7711C36.3768 33.7925 32.7262 32.1531 35.2743 30.1807C36.3357 29.3607 40.7844 29.7238 42.1664 29.6158C44.0585 29.4533 44.0068 26.5432 42.1024 26.6993L42.0798 26.6254Z" fill="#E27152"/>
</svg>
