<svg width="80" height="111" viewBox="0 0 80 111" fill="none" xmlns="http://www.w3.org/2000/svg">
<path d="M35.4689 72.6783C37.1594 71.4006 38.4256 69.6141 40.4758 68.8902L40.2672 69.7744C38.1008 68.5754 36.2509 66.921 34.834 64.9153C34.499 64.4402 35.249 63.7547 35.5914 64.2413C36.9565 66.1813 38.7417 67.7814 40.8339 68.94C41.2231 69.1582 41.0041 69.6907 40.6237 69.8256C38.7993 70.4697 37.5965 72.2257 36.0832 73.3688C35.5752 73.7512 34.9483 73.0719 35.4689 72.6783Z" fill="#E27152"/>
<path d="M45.9668 2.12109C38.6329 10.1424 29.3709 16.0141 21.6583 23.6276C18.3293 26.9134 15.285 30.5341 12.9754 34.5817C11.8003 36.6215 10.8559 38.7749 10.1606 41.0004C9.50031 43.1433 8.95865 45.4736 9.30237 47.6674C9.62735 49.744 10.9194 51.3918 12.998 51.9003C14.8197 52.342 16.8241 51.9445 18.6286 51.3763C20.5196 50.7856 22.336 49.9487 24.0291 48.8882C25.6358 47.8724 27.3667 46.4558 27.9443 44.5833C29.2524 40.3135 23.7468 38.219 20.5238 40.3298C16.1468 43.215 16.6999 49.1689 18.5349 53.0302C20.4952 57.1586 23.4679 61.1311 26.7659 64.2685C29.919 67.2699 33.889 69.5114 38.5121 69.1998C39.1175 69.1659 39.0324 70.085 38.4302 70.1286C34.0617 70.4232 30.196 68.5181 27.0583 65.8162C23.6113 62.8416 20.7628 58.9935 18.5106 55.0415C16.2408 51.0546 14.9274 45.7621 18.0365 41.5055C19.2301 39.8752 20.9724 38.7236 22.9691 38.5576C24.8422 38.4056 26.8236 39.036 28.0207 40.4299C28.565 41.081 28.9119 41.8771 29.0244 42.733C29.1369 43.5888 29.0106 44.472 28.6592 45.2878C27.874 47.1582 26.2183 48.5483 24.5358 49.629C21.2814 51.7197 16.7167 53.6282 12.9197 52.836C8.11603 51.8339 7.82226 46.6338 8.7828 42.5648C9.95868 37.582 12.5438 32.9585 15.7309 28.8798C24.0995 18.1728 36.2536 11.4065 45.37 1.43514C45.7847 0.98272 46.3775 1.66717 45.9717 2.11163L45.9668 2.12109Z" fill="#E27152"/>
<path d="M40.0315 84.7725C39.7646 84.7136 39.4911 84.7119 39.2272 84.7677C38.9633 84.8236 38.7145 84.9357 38.4958 85.0975C38.277 85.2592 38.0927 85.4673 37.954 85.7091C37.8153 85.9509 37.7251 86.2216 37.6886 86.5049C37.5632 87.6773 37.6476 88.8714 37.9375 90.0253C37.9577 90.3284 38.0358 90.626 38.1671 90.8999C38.2983 91.1738 38.4799 91.4183 38.7008 91.6186C39.1618 91.916 39.707 92.0188 40.2244 91.9058C40.738 91.7801 41.1881 91.4662 41.4964 91.0184C41.8048 90.5707 41.952 90.0174 41.9126 89.4545C41.8915 88.0811 41.6028 86.7178 41.0644 85.4503L39.7107 86.5466C41.3574 88.1077 43.0951 89.6963 45.2537 90.3298C45.4777 90.4003 45.7161 90.3745 45.9163 90.2579C46.1166 90.1414 46.2623 89.9437 46.3215 89.7083C46.3807 89.473 46.3485 89.2193 46.2319 89.003C46.1154 88.7867 45.9241 88.6255 45.7001 88.555C43.8414 88.016 42.3569 86.6174 40.9256 85.2625C40.7729 85.1039 40.5734 85.0067 40.3633 84.9887C40.1532 84.9708 39.9465 85.0332 39.7807 85.1646C39.6182 85.2999 39.508 85.4933 39.4695 85.7107C39.431 85.9282 39.4666 86.1555 39.5702 86.3527C39.9195 87.2375 40.1199 88.1758 40.1623 89.1241C40.1728 89.3045 40.1699 89.4851 40.1537 89.6641C40.1417 89.7335 40.1255 89.8019 40.1054 89.8688C40.1315 89.7852 40.0246 90.018 40.1164 89.9108C40.1164 89.9108 39.9282 90.1072 40.0231 90.012L39.939 90.0339C40.0175 90.0134 40.0063 90.0164 39.8998 90.0442L39.8101 90.0676C39.8774 90.05 39.8774 90.05 39.8101 90.0676C39.7661 90.0723 39.7216 90.0711 39.6775 90.0638V90.0638C39.6233 90.0396 39.627 90.077 39.6775 90.0638L39.6058 90.0186C39.7831 90.3308 39.8458 90.4104 39.7979 90.25L39.751 90.0702C39.6884 89.8305 39.637 89.5878 39.5968 89.3422C39.5058 88.8713 39.4435 88.3957 39.4105 87.9183C39.3542 87.5375 39.3628 87.1514 39.436 86.7784C39.4831 86.638 39.4219 86.7244 39.5105 86.6052C39.4564 86.6962 39.5997 86.5115 39.615 86.5011C39.5098 86.5798 39.7775 86.4587 39.615 86.5011C39.4525 86.5435 39.7044 86.5226 39.615 86.5011C39.839 86.5716 40.0773 86.5459 40.2776 86.4293C40.4778 86.3128 40.6236 86.1151 40.6828 85.8797C40.7419 85.6444 40.7097 85.3906 40.5932 85.1743C40.4766 84.958 40.2853 84.7968 40.0613 84.7263L40.0315 84.7725Z" fill="#E27152"/>
<path d="M42.9202 83.6664C43.645 84.7666 44.5095 85.7602 45.489 86.6187C46.4148 87.5221 47.4989 88.2275 48.6778 88.6932C50.1504 89.1296 50.2997 87.4363 50.2589 86.3606C50.1903 84.8423 49.8006 83.3501 49.118 81.9922C49.0197 81.8265 48.8739 81.697 48.7021 81.6227C48.5303 81.5484 48.3417 81.5333 48.1641 81.5797C47.9865 81.6261 47.8293 81.7315 47.7158 81.8803C47.6023 82.0291 47.5384 82.2133 47.5336 82.4059C47.7132 84.1477 48.159 85.8549 48.8541 87.462C49.473 88.8538 49.8175 90.3559 49.8663 91.8764C49.8264 93.4052 48.9897 94.5744 48.0046 95.5785C46.8598 96.7787 45.6361 97.9007 44.3923 98.9909C43.5497 99.711 44.7793 100.988 45.611 100.271C46.9271 99.1605 48.1807 97.9717 49.366 96.7105C50.4822 95.6415 51.229 94.2146 51.4952 92.6423C51.9554 89.0223 49.4247 85.992 49.2323 82.4746L47.6479 82.8884C48.1062 83.7955 48.401 84.7798 48.5172 85.7909C48.4987 86.286 48.5072 86.7825 48.5425 87.278C48.4963 87.6172 48.6287 87.4962 48.9366 86.9035L48.7274 86.7976C48.5331 86.6647 48.3314 86.5443 48.1237 86.4368C46.6491 85.5179 45.3747 84.2796 44.3883 82.8077C43.7564 81.8679 42.2857 82.7395 42.9247 83.6837L42.9202 83.6664Z" fill="#E27152"/>
<path d="M53.5753 74.5026L56.4131 85.369C56.4711 85.5641 56.5953 85.7325 56.7637 85.8446C56.932 85.9566 57.1337 86.0051 57.333 85.9813C57.5323 85.9575 57.7163 85.863 57.8526 85.7146C57.9889 85.5662 58.0685 85.3734 58.0775 85.1703C58.1 83.6301 58.0847 81.9228 58.8858 80.557C58.9619 80.425 59.1392 80.302 58.9527 80.2563C59.0044 80.3356 59.0611 80.4114 59.1226 80.4833C59.3441 80.8278 59.5379 81.1897 59.7019 81.5654C60.1486 82.344 60.3503 83.2406 60.2798 84.1349C60.2338 84.3481 60.2679 84.5715 60.3757 84.7616C60.4834 84.9517 60.657 85.0948 60.8625 85.163C61.0778 85.2237 61.3076 85.1964 61.5021 85.0871C61.6967 84.9778 61.8405 84.7951 61.9026 84.5785C62.0701 83.2358 61.8075 81.871 61.1533 80.6847C60.6863 79.7209 59.9871 78.2689 58.6833 78.5563C57.5225 78.8122 56.9853 80.3865 56.7332 81.4261C56.4759 82.6395 56.3587 83.8801 56.3837 85.1229L58.0427 84.9257L55.2093 74.0759C55.1519 73.8561 55.0108 73.6678 54.817 73.5524C54.6232 73.437 54.3926 73.404 54.1759 73.4606C53.9592 73.5172 53.7742 73.6587 53.6616 73.8542C53.5489 74.0496 53.5179 74.2828 53.5753 74.5026V74.5026Z" fill="#E27152"/>
<path d="M64.0218 79.1008C64.0854 79.2943 64.137 79.4917 64.1761 79.6917C64.1987 79.7784 64.2228 79.8706 64.2469 79.9627C64.2709 80.0549 64.2624 80.0224 64.2469 79.9627C64.2596 80.0115 64.2709 80.0549 64.2823 80.0983C64.3227 80.4931 64.3373 80.8889 64.3455 81.2805C64.3251 82.095 64.4159 82.9144 64.6148 83.7118C65.2953 85.9373 67.8389 84.7171 69.0952 84.0879C69.2616 83.9774 69.3785 83.7979 69.4212 83.5877C69.4639 83.3775 69.4289 83.1533 69.3237 82.9627C69.2117 82.778 69.0417 82.6435 68.8483 82.5864C68.6548 82.5294 68.4525 82.5541 68.2824 82.6555C67.7282 82.9643 67.136 83.191 66.5208 83.3299C66.3954 83.3497 66.2682 83.3577 66.1405 83.3539C66.0965 83.3654 65.9841 83.3948 66.0819 83.3692C66.0021 83.3437 65.9846 83.3367 66.0379 83.3807C66.0621 83.3885 66.0833 83.4057 66.0974 83.4289L66.1088 83.4722C66.0847 83.38 66.0546 83.3648 66.0932 83.4126C66.1318 83.4604 66.0578 83.277 66.0535 83.2608C66.0167 83.1198 65.9587 82.8976 65.9619 82.8099C65.8988 82.1688 65.8652 81.5262 65.8613 80.8846C65.8541 80.1691 65.7361 79.4539 65.5126 78.7693C65.4517 78.5567 65.3197 78.3736 65.1437 78.2579C64.9677 78.1423 64.7612 78.1028 64.5668 78.1477C64.3722 78.1985 64.2081 78.3329 64.1104 78.5213C64.0126 78.7097 63.9894 78.9368 64.0457 79.1524L64.0218 79.1008Z" fill="#E27152"/>
<path d="M63.2256 76.031C63.3787 75.991 63.5097 75.8919 63.5897 75.7553C63.6697 75.6188 63.6922 75.456 63.6522 75.3029C63.6122 75.1498 63.513 75.0188 63.3765 74.9388C63.2399 74.8588 63.0772 74.8363 62.924 74.8763C62.7709 74.9163 62.64 75.0155 62.56 75.1521C62.48 75.2886 62.4575 75.4513 62.4975 75.6045C62.5374 75.7576 62.6366 75.8886 62.7732 75.9686C62.9097 76.0486 63.0725 76.071 63.2256 76.031Z" fill="#E27152"/>
<path d="M70.7782 67.2607L70.7365 73.2131C70.6573 75.1761 70.6907 77.1369 70.8365 79.0871C70.8352 79.3101 70.9239 79.5218 71.0854 79.6812C71.2469 79.8407 71.4697 79.9365 71.7108 79.9503C71.9553 79.9477 72.1936 79.8583 72.3761 79.7007C72.5586 79.5431 72.6712 79.3295 72.6903 79.1044C72.5388 77.1552 72.5033 75.1948 72.5842 73.232L72.626 67.2797C72.6342 66.1683 70.7633 66.1849 70.7551 67.2962L70.7782 67.2607Z" fill="#E27152"/>
<path d="M72.2649 82.3046C72.418 82.2646 72.549 82.1654 72.629 82.0289C72.709 81.8923 72.7315 81.7296 72.6915 81.5764C72.6515 81.4233 72.5523 81.2924 72.4158 81.2124C72.2792 81.1324 72.1165 81.1099 71.9633 81.1499C71.8102 81.1899 71.6793 81.289 71.5993 81.4256C71.5193 81.5621 71.4968 81.7249 71.5368 81.878C71.5768 82.0311 71.6759 82.1621 71.8125 82.2421C71.949 82.3221 72.1118 82.3446 72.2649 82.3046Z" fill="#E27152"/>
<path d="M31.4854 81.532C30.3581 81.628 27.0365 81.2558 26.4831 82.6312C25.8713 84.1014 28.3318 85.5706 29.2706 86.1867C30.2855 86.8523 31.386 87.3976 32.4078 88.0569C33.1222 88.4954 33.7845 89.0106 34.3825 89.5931C35.2229 90.4446 35.4897 91.8905 34.354 92.5024C31.7943 93.8826 27.9869 92.0331 26.4124 90.0923C25.9215 89.4849 24.8517 90.1409 25.3542 90.7576C26.7353 92.5168 28.7639 93.671 31.0111 93.9763C32.5797 94.182 35.8425 94.0759 36.7442 92.4402C37.7635 90.5889 34.8833 88.2596 33.6305 87.4013C32.3778 86.5431 30.9417 85.8563 29.6686 84.9743C29.0754 84.5607 27.5327 83.868 28.6095 83.0345C29.058 82.6879 30.938 82.8414 31.522 82.7957C32.3215 82.7271 32.2997 81.4973 31.4949 81.5633L31.4854 81.532Z" fill="#E27152"/>
</svg>
