<svg width="30" height="30" viewBox="0 0 30 30" fill="none" xmlns="http://www.w3.org/2000/svg">
<path d="M19 17.7857H17V12.2143H19V17.7857ZM19 22.4286V27.0714C19 27.3177 18.8946 27.5539 18.7071 27.728C18.5196 27.9022 18.2652 28 18 28H12C11.7348 28 11.4804 27.9022 11.2929 27.728C11.1054 27.5539 11 27.3177 11 27.0714V22.4286H13V26.1429H17V22.4286H19ZM11 17.7857V12.2143H13V17.7857H11ZM19 7.57143H17V3.85714H13V7.57143H11V2.92857C11 2.6823 11.1054 2.44611 11.2929 2.27197C11.4804 2.09783 11.7348 2 12 2H18C18.2652 2 18.5196 2.09783 18.7071 2.27197C18.8946 2.44611 19 2.6823 19 2.92857V7.57143Z" fill="#383736"/>
<path d="M6.28776 7.9L4.1957 10.275L6.28588 12.65H22.3589V7.9H6.28776ZM5.86484 6H23.2987C23.548 6 23.787 6.10009 23.9633 6.27825C24.1395 6.45641 24.2385 6.69804 24.2385 6.95V13.6C24.2385 13.852 24.1395 14.0936 23.9633 14.2718C23.787 14.4499 23.548 14.55 23.2987 14.55H5.86484C5.732 14.55 5.60066 14.5216 5.47949 14.4666C5.35831 14.4116 5.25005 14.3312 5.16184 14.2308L2.23709 10.9058C2.08436 10.7319 2 10.5075 2 10.275C2 10.0425 2.08436 9.81805 2.23709 9.6442L5.16184 6.3192C5.25005 6.2188 5.35831 6.13844 5.47949 6.08341C5.60066 6.02839 5.732 5.99996 5.86484 6ZM25.8005 20.725L23.7122 23.1H7.63924V18.35H23.7104L25.8005 20.725ZM24.1333 16.45H6.70129C6.45203 16.45 6.21298 16.5501 6.03673 16.7282C5.86047 16.9064 5.76146 17.148 5.76146 17.4V24.05C5.76146 24.302 5.86047 24.5436 6.03673 24.7218C6.21298 24.8999 6.45203 25 6.70129 25H24.1352C24.268 25 24.3993 24.9716 24.5205 24.9166C24.6417 24.8616 24.75 24.7812 24.8382 24.6808L27.7629 21.3558C27.9156 21.1819 28 20.9575 28 20.725C28 20.4925 27.9156 20.2681 27.7629 20.0942L24.8382 16.7692C24.75 16.6688 24.6417 16.5884 24.5205 16.5334C24.3993 16.4784 24.268 16.45 24.1352 16.45H24.1333Z" fill="#383736"/>
</svg>
