<svg width="77" height="80" viewBox="0 0 77 80" fill="none" xmlns="http://www.w3.org/2000/svg">
<path d="M74.0593 79.4806C74.5446 79.6494 75.0819 79.6376 75.5597 79.4478C76.0375 79.258 76.419 78.9047 76.6249 78.4613C76.897 77.7874 76.9187 77.0491 76.6867 76.3643C76.438 75.5377 76.1199 74.7308 75.7354 73.951C75.3319 73.0263 74.7415 71.6858 74.2231 70.8076C73.5965 69.7452 69.7919 63.8502 69.1751 63.0504C68.2597 61.8628 65.6186 58.9881 65.1025 58.4679C64.732 58.1138 64.3615 57.7596 63.9544 57.3706C65.7193 56.125 65.6684 54.443 65.4346 53.1038C65.2243 51.9001 64.4651 50.9158 63.8016 49.8503C62.6125 47.9685 61.2728 46.1728 59.7939 44.4782C55.2861 39.1563 49.8826 34.644 44.8825 29.741C43.8108 28.6843 42.6579 27.6956 41.5253 26.6939C38.8723 24.3451 36.2133 22.0085 33.5484 19.6842C32.7754 19.0101 26.169 13.7685 25.3793 13.2294C24.412 12.5689 20.4196 9.78806 19.4346 9.16459C18.1703 8.34975 14.2762 5.99692 13.6319 5.63445C12.9876 5.27198 12.2546 4.9218 11.5761 4.55365C11.0135 4.25307 8.57823 3.00896 7.93038 2.68623C7.49743 2.47726 7.07906 2.24988 6.6461 2.0409C5.48606 1.47119 4.30283 0.922449 3.12522 0.37907C2.99789 0.31667 2.69733 0.207278 2.41378 0.103378C2.18794 0.0153076 1.93729 -0.00271559 1.69892 0.051977C1.46056 0.10667 1.24716 0.231171 1.09032 0.407049C0.423556 1.18206 1.71206 2.07938 1.88121 2.19794C2.44128 2.52049 3.02566 2.80522 3.62988 3.04994C4.01203 3.22653 4.39266 3.3262 4.74619 3.50778C6.0868 4.19616 7.41554 4.91094 8.77019 5.61274C9.79122 6.13583 17.9004 10.9325 18.7269 11.4853C19.5534 12.0381 27.7714 17.9737 29.0672 18.9427C29.1739 19.0447 29.298 19.1256 29.4076 19.2249C32.9685 22.375 36.6135 25.4438 40.1047 28.662C45.4431 33.5812 50.7321 38.5572 55.9715 43.5901C60.6007 48.6561 62.746 52.3237 63.1841 53.5564C63.474 54.1245 63.2391 55.8298 62.4213 55.4363L61.6999 54.7468C59.0809 52.2435 56.549 49.6511 53.7995 47.2711C52.3235 45.9951 50.4794 45.0519 48.2409 45.3004C46.7572 45.4671 45.7884 46.3846 45.1513 47.4252C44.4175 48.6105 44.7002 49.9211 45.7319 50.988C48.6812 54.0279 50.3418 54.855 51.3092 55.3431C52.3609 55.9107 53.4614 56.3965 54.5998 56.7955C55.8997 57.204 57.2302 57.5245 58.5807 57.7543C59.3715 57.8956 60.2118 57.8147 61.0238 57.8846C61.279 57.9306 61.5104 58.0534 61.6826 58.234C62.6308 59.1727 63.5849 60.1061 64.4838 61.0893C65.1504 61.818 65.7648 62.5886 66.3822 63.3565C66.8682 63.9612 67.6498 64.967 68.1157 65.5847C68.5815 66.2025 69.0588 66.8204 69.4848 67.4324C70.1472 68.3997 70.8097 69.3671 71.4147 70.355C72.0888 71.4683 72.7543 72.5895 73.3077 73.7546C73.7602 74.7829 74.1545 75.8327 74.489 76.8996C74.5135 76.9716 74.5219 77.0475 74.5137 77.1227C74.4967 77.4376 74.3471 77.7341 74.0972 77.9482C73.9041 78.0748 73.7549 78.251 73.6677 78.4549C73.5806 78.6589 73.5593 78.8819 73.6066 79.0964C73.6426 79.19 73.7026 79.2739 73.7815 79.3409C73.8604 79.4078 73.9558 79.4558 74.0593 79.4806ZM59.1611 55.5383C58.8001 55.5175 58.4407 55.4781 58.0845 55.4203C56.9276 55.1663 52.9025 53.788 52.1202 53.3205C51.0324 52.6841 50.0149 51.9499 49.0821 51.1283C48.5927 50.728 48.1376 50.2929 47.7207 49.8271C47.452 49.4921 47.336 49.0719 47.3975 48.657C47.4591 48.242 47.6934 47.8655 48.05 47.6083C48.486 47.3081 48.8935 47.3364 49.6718 47.5413C50.6944 47.8435 51.6337 48.3478 52.4254 49.0196C54.5808 50.9449 58.9345 55.2732 59.1466 55.5514L59.1611 55.5383Z" fill="#383736"/>
</svg>
