<svg width="31" height="25" viewBox="0 0 31 25" fill="none" xmlns="http://www.w3.org/2000/svg">
<path fill-rule="evenodd" clip-rule="evenodd" d="M8.19734 19.8069C8.21923 19.7739 8.2215 19.7305 8.2032 19.693C8.18495 19.6571 8.14907 19.6346 8.11005 19.6346C7.28322 19.6346 4.06168 19.6346 1.93576 19.6346C1.4221 19.6346 0.92944 19.4205 0.566378 19.0402C0.203319 18.6598 -0.000427966 18.1432 6.74962e-07 17.6041C0.00214389 14.8005 0.00600194 9.8945 0.00743078 8.18549C0.0077165 7.7873 0.107309 7.39616 0.296341 7.05087C0.978167 5.80546 2.69874 2.66276 3.5946 1.02635C3.94222 0.391433 4.58721 0 5.28561 0H25.2996C25.7207 0 26.1088 0.239588 26.3128 0.625631C26.517 1.01182 26.505 1.48352 26.2817 1.85788C25.5388 3.1024 24.6117 4.65586 24.1294 5.46389C24.0639 5.5738 24.0603 5.71231 24.1203 5.82567C24.1802 5.93902 24.294 6.00939 24.4178 6.00939C25.4866 6.00939 27.7255 6.00939 29.294 6.00939C30.2362 6.00939 31 6.80993 31 7.79733C31 10.2292 31 14.5387 31 16.8344C31 17.8437 30.7558 18.838 30.2903 19.7215C29.7038 20.8356 28.752 22.4139 28.1518 23.5535C27.6822 24.4459 26.7867 25 25.8144 25C21.8518 25 11.5853 25 7.03088 25C6.60039 25 6.20518 24.7514 6.00357 24.3516C5.80195 23.9533 5.82698 23.4711 6.06859 23.0982C6.88744 21.8314 7.8706 20.313 8.19734 19.8069ZM11.0923 18.8605C10.6995 18.8605 10.3311 19.0596 10.1048 19.3966C9.48056 20.325 8.20464 22.2223 7.56253 23.1761C7.48752 23.2884 7.47811 23.4337 7.5381 23.555C7.59799 23.6763 7.7173 23.7526 7.84757 23.7526C10.7229 23.7526 21.8779 23.7526 25.3802 23.7526C26.0259 23.7526 26.6221 23.3902 26.944 22.8033C27.4024 21.9692 28.1897 20.7532 28.6618 19.8937C28.7788 19.6811 28.7785 19.4175 28.6607 19.2049C28.5432 18.9908 28.326 18.8605 28.091 18.8605C24.5501 18.8605 13.8037 18.8605 11.0923 18.8605ZM6.14859 13.5974C5.48821 13.5998 4.86537 13.9194 4.45859 14.4647C3.87821 15.2429 3.0205 16.3927 2.38368 17.2462C2.22508 17.4589 2.19609 17.7479 2.30896 17.9905C2.42184 18.2331 2.65687 18.3873 2.91448 18.3873C5.06642 18.3873 8.97465 18.3873 8.97465 18.3873C9.18866 17.9141 9.64376 17.6116 10.1435 17.6116C12.5404 17.6116 19.5207 17.6116 21.8559 17.6116C22.3351 17.6116 22.7798 17.3511 23.03 16.9228C23.4743 16.1621 24.1846 14.946 24.6234 14.1949C24.702 14.0603 24.705 13.8915 24.6311 13.754C24.5572 13.6164 24.4182 13.5314 24.2674 13.5319C21.2204 13.543 9.69631 13.5845 6.14859 13.5974ZM24.7633 16.5978C24.6418 16.8015 24.6357 17.0606 24.7474 17.2702C24.8591 17.4813 25.071 17.6116 25.3011 17.6116C26.3029 17.6116 27.7458 17.6116 28.6996 17.6116C28.9618 17.6116 29.2134 17.5023 29.3989 17.3091C29.5842 17.1144 29.6885 16.8509 29.6885 16.5754C29.6885 14.5847 29.6885 10.2475 29.6885 8.27294C29.6885 7.71198 29.2546 7.25721 28.7193 7.25721C25.6162 7.25721 15.9481 7.25721 12.8653 7.25721C12.2706 7.25721 11.7172 7.57573 11.3982 8.10178C10.8358 9.02899 10.181 10.5074 9.62716 11.4205C9.52887 11.5828 9.5226 11.7882 9.61087 11.9568C9.69918 12.1252 9.86806 12.2299 10.0514 12.2299C12.8374 12.2299 21.0306 12.2299 25.1055 12.2299C25.5597 12.2299 25.978 12.4879 26.1986 12.9041C26.4192 13.3201 26.4071 13.8287 26.1672 14.2329C25.6891 15.0383 25.1586 15.9315 24.7633 16.5978ZM21.995 6.00939C22.1251 6.00939 22.2464 5.94049 22.3176 5.82626C22.6935 5.22292 23.9068 3.27551 24.5698 2.21158C24.6577 2.07037 24.6648 1.89023 24.5882 1.74198C24.5116 1.59373 24.3638 1.50134 24.2029 1.50134C21.2814 1.50134 11.2321 1.50134 7.05174 1.50134C6.56179 1.50134 6.09188 1.70529 5.74555 2.06842C5.39903 2.4314 5.20445 2.92391 5.20445 3.43723C5.20445 5.36428 5.20445 8.31173 5.20445 10.2837C5.20445 10.8228 5.41521 11.3385 5.78755 11.7105C6.15974 12.0826 6.66126 12.2786 7.17506 12.253C7.17521 12.253 7.41709 12.253 7.41709 12.253C7.42352 12.1982 9.37213 8.67244 10.4477 6.94409C10.8106 6.36099 11.43 6.00939 12.0943 6.00939C14.6061 6.00939 20.782 6.00939 21.995 6.00939Z" fill="#383736"/>
</svg>
