<svg width="351" height="276" viewBox="0 0 351 276" fill="none" xmlns="http://www.w3.org/2000/svg">
<path d="M0.590183 230.392C-0.680934 236.998 0.0245419 243.743 3.45656 249.62C6.63435 255.104 11.7189 259.295 17.1529 262.465C30.239 270.073 45.9564 273.027 60.8094 274.739C80.2566 277.055 99.953 276.177 119.116 272.14C136.422 268.412 153.143 261.711 167.323 251.003C180.669 240.916 192.446 227.082 197.524 210.922C200.162 202.515 200.448 192.72 194.696 185.506C190.063 179.705 181.667 175.996 174.587 179.66C171.136 181.436 168.448 185.062 169.026 189.069C169.604 193.076 173.017 196.226 176.106 198.578C181.51 202.593 188.287 204.312 194.957 203.359C201.948 202.452 208.513 199.352 214.379 195.573C220.5 191.565 226.136 186.865 231.177 181.569C236.26 176.16 240.885 170.341 245.007 164.172C250.223 156.58 254.979 148.683 259.25 140.525C267.893 124.041 274.897 106.511 278.774 88.2971C279.664 84.1171 280.365 79.8905 280.878 75.6175C281.018 74.47 279.607 73.9501 278.723 74.3876C271.294 78.1914 265.504 84.3728 260.801 91.1564L263.267 92.5956C265.585 88.5559 268.2 84.6929 271.09 81.038C272.463 79.377 273.988 77.4053 275.755 76.1374C276.48 75.6175 276.785 75.7063 277.706 76.3466C279.658 77.697 281.151 79.8652 282.511 81.7735C284.234 84.1953 285.816 86.7122 287.411 89.2164C288.683 91.2008 289.903 93.407 291.562 95.0998C292.833 96.4058 294.879 94.3897 293.589 93.0774C292.032 91.4987 290.907 89.3813 289.719 87.5174C287.952 84.7468 286.198 81.951 284.234 79.3073C282.708 77.2468 281.011 74.9201 278.736 73.6014C275.317 71.6488 272.705 74.8694 270.544 77.2912C266.73 81.4945 263.705 86.3001 260.801 91.1374C259.841 92.735 262.237 94.0664 263.267 92.5765C267.715 86.186 273.169 80.4167 280.166 76.8347L278.018 75.5668C275.946 92.6843 270.499 109.39 263.521 125.1C256.553 140.919 247.811 155.901 237.463 169.758C229.557 180.256 219.553 189.925 207.808 196.043C202.202 198.965 195.904 201.064 189.504 200.626C186.475 200.421 183.524 199.576 180.847 198.147C177.752 196.486 174.454 193.969 172.699 190.876C170.57 187.122 172.979 183.338 176.646 181.803C179.989 180.409 183.834 180.979 186.968 182.634C194.525 186.634 197.251 194.939 196.355 203.042C195.414 211.493 191.27 219.582 186.675 226.607C182.313 233.163 177.079 239.098 171.117 244.251C158.863 254.946 144.074 262.306 128.484 266.801C110.815 271.873 92.2569 273.705 73.9083 272.881C64.7648 272.482 55.6649 271.391 46.6873 269.616C40.2605 268.414 33.9525 266.649 27.8366 264.342C17.0321 260.145 5.36327 252.854 3.17695 240.555C2.67225 237.417 2.74112 234.215 3.38029 231.102C3.7235 229.308 0.965194 228.566 0.621992 230.341L0.590183 230.392Z" fill="white"/>
<path d="M295.37 0.726037L288.169 16.8175L286.42 20.7333C285.988 21.6915 285.612 22.9883 284.836 23.7293C284.06 24.4703 282.858 24.0743 281.968 23.7293C281.069 23.3894 280.226 22.9156 279.468 22.324C277.645 20.9102 276.353 18.9171 275.804 16.6705C275.365 14.8755 272.624 15.6357 273.044 17.4307C273.645 19.8399 274.921 22.0256 276.72 23.7293C278.546 25.4541 281.173 26.9936 283.717 27C286.993 27 288.068 23.9593 289.193 21.4424L293.214 12.4544L297.819 2.15695C297.999 1.82662 298.047 1.43943 297.953 1.07478C297.858 0.71013 297.628 0.395649 297.31 0.19582C296.982 0.00436508 296.592 -0.0493381 296.226 0.0463736C295.859 0.142085 295.544 0.379475 295.351 0.706874L295.37 0.726037Z" fill="white"/>
<path d="M283.361 2.92659C287.284 3.16516 291.17 3.83828 294.954 4.93435C298.778 6.03243 302.502 7.49437 306.213 8.94981C306.575 9.04991 306.96 8.99905 307.286 8.80822C307.612 8.61738 307.853 8.30186 307.955 7.9297C308.047 7.55604 307.996 7.16014 307.812 6.82473C307.628 6.48933 307.325 6.24038 306.968 6.12989C303.162 4.63546 299.344 3.14103 295.413 2.02995C291.475 0.923259 287.436 0.243824 283.361 0.00270744C281.543 -0.101253 281.549 2.82263 283.361 2.92659Z" fill="white"/>
<path d="M301.008 19.1069C299.45 19.3884 297.949 19.9452 296.57 20.7533C295.862 21.1781 295.19 21.6631 294.56 22.2035C293.807 22.8367 293.078 23.5713 293.005 24.6288C292.933 25.6863 293.613 26.4652 294.22 27.2061C294.672 27.8154 295.251 28.3092 295.914 28.6499C297.735 29.5047 299.709 28.7005 301.014 27.2504C301.341 26.8802 301.645 26.4889 301.925 26.0789C302.196 25.7232 302.438 25.3439 302.648 24.9454C302.891 24.3998 303.011 23.8036 302.999 23.2023C302.988 22.6009 302.845 22.0102 302.581 21.4752C302.476 21.1161 302.243 20.8127 301.93 20.6277C301.617 20.4426 301.248 20.3901 300.899 20.4811C300.292 20.6964 299.648 21.5006 299.946 22.2351C300.082 22.5431 300.192 22.8631 300.274 23.1913C300.274 23.2547 300.274 23.3243 300.316 23.3876C300.274 23.109 300.316 23.3876 300.316 23.3876C300.316 23.3876 300.316 23.6853 300.316 23.3876C300.316 23.4889 300.274 23.5586 300.316 23.4193C300.178 23.7147 300.009 23.9929 299.812 24.2488L299.563 24.6098C299.411 24.8314 299.521 24.6731 299.563 24.6098C299.503 24.6961 299.438 24.7786 299.369 24.8568C299.182 25.1013 298.979 25.3319 298.762 25.547L298.628 25.6673C298.476 25.8129 298.786 25.5723 298.628 25.6673C298.47 25.7623 298.367 25.8509 298.227 25.9269C298.227 25.9269 297.972 26.0536 298.124 25.9839C298.276 25.9143 298.094 25.9839 298.069 25.9839C297.924 26.0283 297.778 26.0726 297.62 26.1042C297.893 26.0472 297.584 26.1042 297.468 26.1042C297.353 26.1042 297.183 26.1042 297.365 26.1042C297.547 26.1042 297.213 26.0599 297.213 26.0599C297.213 26.0599 297.007 25.9903 297.171 26.0599C297.335 26.1296 297.128 26.0599 297.086 26.0092C296.977 25.9456 296.872 25.8758 296.77 25.8003C297.031 25.9839 296.691 25.7053 296.636 25.6483C296.582 25.5913 296.43 25.4267 296.333 25.3127C296.236 25.1987 296.236 25.1924 296.193 25.129C296.151 25.0657 296.06 24.9581 296.157 25.0911C296.254 25.224 296.12 25.0404 296.096 25.0024C296.072 24.9644 296.035 24.9074 295.999 24.8631C295.962 24.8187 295.835 24.6161 295.756 24.4895C295.677 24.3628 295.707 24.2868 295.756 24.5275C295.777 24.6318 295.777 24.7397 295.756 24.8441L295.701 24.9834L295.756 24.8821C295.756 24.9201 295.556 25.1037 295.756 24.8821C295.847 24.7808 295.944 24.6858 296.041 24.5971L296.357 24.3058L296.545 24.1475C296.74 23.9829 296.473 24.1982 296.6 24.1032C297.083 23.7312 297.588 23.3907 298.112 23.0837C298.409 22.9127 298.719 22.7671 299.023 22.6151C299.071 22.6151 299.266 22.5074 299.023 22.6151L299.241 22.5201L299.751 22.3238C300.414 22.0894 301.095 21.9115 301.786 21.7918C302.133 21.6884 302.428 21.4465 302.606 21.1184C302.785 20.7902 302.832 20.4021 302.739 20.0378C302.634 19.6787 302.401 19.3752 302.088 19.1902C301.775 19.0052 301.406 18.9527 301.057 19.0436L301.008 19.1069Z" fill="white"/>
<path d="M309.151 23.7765L304.206 31.7656C304.071 31.9877 304 32.2402 304 32.4974C304 32.7546 304.071 33.0072 304.206 33.2293C304.345 33.4427 304.536 33.6201 304.762 33.746C304.989 33.8719 305.244 33.9425 305.506 33.9515C306.402 34.0503 307.309 33.9979 308.186 33.7967C308.57 33.6914 308.895 33.445 309.092 33.1109C309.289 32.7768 309.341 32.3816 309.238 32.0106C309.124 31.6441 308.867 31.3341 308.521 31.1454C308.175 30.9568 307.767 30.904 307.382 30.9983C307.328 30.9983 306.765 31.1014 307.027 31.0692C306.874 31.0895 306.719 31.1003 306.564 31.1014C306.206 31.1132 305.848 31.096 305.492 31.0499L306.792 33.2293L311.757 25.2402C311.868 25.0756 311.943 24.8911 311.978 24.6978C312.013 24.5046 312.006 24.3065 311.959 24.1157C311.912 23.9249 311.825 23.7452 311.704 23.5876C311.583 23.4299 311.43 23.2976 311.254 23.1986C311.078 23.0995 310.883 23.0358 310.681 23.0114C310.478 22.9869 310.273 23.0021 310.077 23.0561C309.881 23.1101 309.699 23.2018 309.541 23.3256C309.383 23.4494 309.252 23.6028 309.158 23.7765H309.151Z" fill="white"/>
<path d="M312.501 22C314.496 22 314.503 19 312.501 19C310.5 19 310.5 22 312.501 22Z" fill="white"/>
<path d="M314.962 25.6929L311.185 34.4167C311.016 34.7261 310.96 35.0867 311.028 35.434C311.097 35.7813 311.285 36.0925 311.559 36.3118C311.837 36.5381 312.188 36.6519 312.545 36.6314C312.901 36.6109 313.237 36.4575 313.489 36.2006C315.015 34.5862 316.699 33.1326 318.513 31.8617C319.318 31.3269 320.182 30.8883 321.086 30.5547C321.603 30.3735 322.132 30.2315 322.669 30.13C322.875 30.13 323.081 30.0646 323.312 30.0516H323.724C324.078 30.0516 324.001 30.0058 323.499 29.8621L323.126 29.2086C323.055 28.9603 323.222 28.725 323.074 29.0844C322.991 29.287 322.888 29.4896 322.791 29.6856L322.193 30.888C321.781 31.6787 321.356 32.4628 320.906 33.2339C320.018 34.7826 319.047 36.2791 318.018 37.7298C317.911 37.8965 317.839 38.0835 317.806 38.2794C317.772 38.4752 317.779 38.6759 317.824 38.8693C317.869 39.0627 317.952 39.2448 318.069 39.4045C318.185 39.5643 318.332 39.6984 318.501 39.7988C318.67 39.8991 318.857 39.9637 319.051 39.9885C319.246 40.0133 319.443 39.9979 319.631 39.9431C319.819 39.8884 319.994 39.7955 320.146 39.67C320.298 39.5445 320.423 39.3891 320.514 39.2131C321.614 37.6741 322.634 36.0774 323.57 34.4298C324.033 33.6195 324.47 32.8026 324.888 31.9727C325.401 31.1592 325.771 30.2615 325.982 29.3197C326.021 29.0298 325.996 28.7347 325.908 28.456C325.821 28.1773 325.673 27.9221 325.475 27.709C325.278 27.496 325.036 27.3305 324.768 27.2248C324.499 27.119 324.211 27.0756 323.923 27.0979C322.973 27.0938 322.026 27.2258 321.112 27.49C319.39 27.9812 317.768 28.7776 316.319 29.8424C314.58 31.15 312.944 32.5918 311.423 34.1553L313.694 35.9327L317.477 27.209C317.658 26.869 317.705 26.4718 317.608 26.0981C317.511 25.7244 317.278 25.402 316.956 25.1963C316.624 25.0028 316.229 24.9498 315.859 25.0488C315.488 25.1478 315.17 25.3909 314.975 25.7256L314.962 25.6929Z" fill="white"/>
<path d="M251.584 28.0225C249.389 27.9172 247.017 28.1278 245.384 29.8328C244.582 30.6466 244.091 31.7369 244.002 32.9004C243.966 34.0904 244.373 35.2487 245.138 36.1326C245.857 36.9567 246.748 37.5965 247.743 38.0022C248.861 38.5635 250.07 38.9007 251.307 38.9962C253.571 39.0883 255.874 37.5084 256 35.0004C255.964 33.6724 255.661 32.3671 255.111 31.1691C254.612 29.8525 253.906 28.3911 252.341 28.424C252.155 28.424 251.97 28.4624 251.798 28.5368C251.626 28.6112 251.47 28.7203 251.338 28.8579C251.206 28.9954 251.101 29.1587 251.03 29.3384C250.959 29.5181 250.922 29.7107 250.922 29.9052C250.922 30.0997 250.959 30.2923 251.03 30.472C251.101 30.6517 251.206 30.815 251.338 30.9525C251.47 31.0901 251.626 31.1992 251.798 31.2736C251.97 31.348 252.155 31.3864 252.341 31.3864C252.243 31.3692 252.149 31.3335 252.064 31.281C252.205 31.3984 252.385 31.4536 252.565 31.4348C252.745 31.416 252.91 31.3247 253.027 31.1804C253.143 31.036 253.201 30.85 253.188 30.6619C253.175 30.4737 253.092 30.2984 252.957 30.1731C252.822 30.0478 252.645 29.9824 252.464 29.9909C252.284 29.9994 252.114 30.0811 251.99 30.2186C251.866 30.356 251.799 30.5385 251.802 30.7271C251.805 30.9157 251.879 31.0955 252.007 31.2284C252.152 31.3929 251.893 31.0375 252.007 31.2284C252.046 31.2829 252.082 31.34 252.114 31.3995C252.28 31.7038 252.413 32.0261 252.512 32.3606C252.65 32.7358 252.77 33.1242 252.884 33.5126C253 33.8838 253.084 34.2648 253.136 34.6514C253.142 34.7391 253.142 34.8271 253.136 34.9148C253.136 35.1781 253.174 34.8095 253.136 35.0135L253.079 35.2044C253.149 34.9674 253.117 35.132 253.079 35.2044L252.947 35.4217C252.947 35.4217 253.086 35.2571 252.978 35.3756C252.923 35.4424 252.864 35.5061 252.802 35.5665C252.758 35.6126 252.537 35.7706 252.751 35.6257C252.625 35.7113 252.493 35.7837 252.367 35.8627C252.24 35.9417 252.367 35.8627 252.411 35.8627L252.171 35.9483L251.837 36.0339H251.711H251.326C250.547 35.9394 249.787 35.7173 249.074 35.3756C248.487 35.1211 247.94 34.7748 247.453 34.3487C247.408 34.3026 247.125 33.9669 247.257 34.1512C247.159 34.0143 247.073 33.869 246.998 33.7167C246.998 33.7167 246.872 33.4139 246.923 33.5653C246.973 33.7167 246.923 33.4731 246.923 33.4731C246.923 33.4731 246.872 33.2822 246.86 33.1901C246.86 33.3415 246.86 33.2691 246.86 33.1572C246.86 33.0452 246.86 32.9794 246.86 32.8872C246.86 32.9596 246.797 33.1571 246.86 32.8872C246.86 32.8214 246.86 32.7556 246.91 32.6963C246.961 32.6371 247.024 32.4001 246.954 32.5581C246.885 32.7161 246.954 32.5054 246.992 32.4923L247.125 32.2553C247.125 32.2158 247.282 32.0315 247.125 32.2553C247.181 32.1829 247.244 32.1171 247.301 32.0512L247.491 31.8537C247.491 31.8537 247.781 31.6036 247.655 31.7023C247.528 31.8011 247.718 31.6628 247.724 31.6562C247.73 31.6497 247.913 31.5311 248.008 31.4785C248.332 31.2997 248.681 31.1753 249.042 31.1098C249.877 30.9742 250.723 30.9389 251.565 31.0045C251.941 31.0028 252.301 30.8462 252.567 30.5688C252.833 30.2914 252.983 29.9157 252.985 29.5234C252.975 29.1337 252.823 28.7627 252.558 28.4871C252.294 28.2115 251.939 28.0522 251.565 28.0422L251.584 28.0225Z" fill="white"/>
<path d="M258.946 32.7471C258.108 34.6141 257.264 36.4748 256.427 38.3482C255.961 39.3988 255.684 40.5381 256.641 41.4368C257.409 42.1646 258.486 42.0697 259.449 41.9241C261.114 41.7046 262.724 41.1766 264.197 40.3672C264.953 39.9488 265.641 39.4174 266.237 38.7913C267.006 37.9622 267.396 36.5445 266.42 35.69C266.151 35.4275 265.791 35.2807 265.416 35.2807C265.041 35.2807 264.68 35.4275 264.411 35.69C262.466 37.8166 261.893 40.7532 262.151 43.576C262.16 43.9506 262.313 44.3073 262.576 44.5723C262.84 44.8373 263.195 44.9904 263.568 45C263.942 44.9967 264.301 44.8456 264.566 44.5793C264.831 44.3129 264.981 43.9526 264.984 43.576C264.932 42.9995 264.917 42.4202 264.94 41.8418C264.947 41.3363 265.01 40.8331 265.129 40.3419C265.238 39.8571 265.394 39.3843 265.595 38.9305C265.807 38.4815 266.085 38.0675 266.42 37.7027H264.411C264.288 37.5903 264.203 37.4416 264.169 37.2779C264.135 37.1141 264.154 36.9438 264.222 36.7913C264.267 36.7027 264.222 36.728 264.178 36.8609C264.348 36.7407 264.134 36.8609 264.065 36.9495C263.996 37.0381 263.832 37.171 263.712 37.2723L263.561 37.3925C263.092 37.7352 262.59 38.0299 262.063 38.2723C261.586 38.4826 261.093 38.6541 260.589 38.7849C260.017 38.9388 259.437 39.0614 258.851 39.152H258.694C258.776 39.152 258.769 39.152 258.694 39.152H258.366C258.089 39.152 258.366 39.152 258.461 39.2153C258.535 39.2637 258.594 39.3322 258.63 39.4128C258.667 39.4935 258.68 39.5831 258.669 39.671C258.723 40.0929 258.773 40.1625 258.82 39.8798C258.719 40.0254 258.902 39.69 258.92 39.652L259.122 39.1963L259.613 38.1141L261.395 34.1395C261.574 33.8105 261.62 33.4253 261.525 33.0629C261.431 32.7005 261.202 32.3883 260.885 32.1901C260.56 32.0027 260.174 31.9513 259.811 32.0472C259.448 32.1432 259.137 32.3786 258.946 32.7028V32.7471Z" fill="white"/>
<path d="M277.578 44.0213C276.842 43.0125 275.899 42.1776 274.814 41.574C273.396 40.8855 272.131 41.7492 271.027 42.613C269.194 44.0578 267.82 46.0164 267.073 48.2461C266.611 49.6106 268.455 50.5682 269.393 49.6169C270.626 48.3651 270.787 46.6688 271.039 45.0415C271.323 43.1637 271.582 41.286 271.804 39.4083C271.805 39.2231 271.77 39.0397 271.7 38.8684C271.631 38.6972 271.529 38.5416 271.4 38.4107C271.271 38.2797 271.117 38.176 270.949 38.1055C270.78 38.035 270.599 37.9992 270.416 38C270.052 38.011 269.705 38.163 269.447 38.4247C269.189 38.6865 269.039 39.0383 269.029 39.4083C268.837 41.0106 268.634 42.5379 268.412 44.1402C268.301 44.8662 268.208 45.5985 268.048 46.3121C268.048 46.4498 267.986 46.5874 267.949 46.7251C267.912 46.8628 267.752 47.2634 267.85 47.0381C267.795 47.1695 267.727 47.2822 267.665 47.4011C267.604 47.5201 267.561 47.5514 267.665 47.4512C267.61 47.5201 267.548 47.5827 267.48 47.6515L269.8 49.016C269.837 48.9096 269.874 48.7969 269.917 48.6842C269.96 48.5716 270.04 48.3651 269.96 48.5591C270.046 48.3651 270.133 48.171 270.231 47.9832C270.414 47.6034 270.62 47.2355 270.848 46.8816C270.91 46.7815 270.984 46.6876 271.046 46.5875L271.132 46.4748C271.264 46.3121 271.399 46.1493 271.539 45.9866C271.838 45.6533 272.157 45.3397 272.495 45.0477L272.711 44.8662C272.785 44.8099 272.785 44.8099 272.711 44.8662L272.822 44.7786C272.995 44.6534 273.168 44.5345 273.346 44.4218C273.346 44.4218 273.895 44.0964 273.895 44.0901C273.932 44.2278 273.346 43.9023 273.698 44.1589C274.433 44.6863 275.09 45.3187 275.647 46.0367C275.907 46.3004 276.26 46.4485 276.628 46.4485C276.996 46.4485 277.349 46.3004 277.609 46.0367C277.86 45.768 278 45.4118 278 45.0415C278 44.6711 277.86 44.3149 277.609 44.0463L277.578 44.0213Z" fill="white"/>
<path d="M294.331 36.7335C292.242 40.9741 288.676 44.1529 285.651 47.7259C284.864 48.6542 284.103 49.6333 283.407 50.6124C282.71 51.5915 281.782 52.8058 282.046 54.09C282.311 55.3743 283.587 56.0482 284.909 55.9973C286.354 55.9274 287.805 55.7049 289.243 55.5523C289.625 55.5426 289.988 55.3888 290.258 55.1226C290.528 54.8564 290.684 54.4981 290.694 54.1218C290.689 53.7439 290.535 53.383 290.264 53.1157C289.992 52.8485 289.626 52.6962 289.243 52.6913L285.445 53.0855C285.193 53.0855 284.935 53.0855 284.69 53.1427C284.445 53.1999 284.4 53.1427 284.535 53.1427C284.644 53.1729 284.74 53.2369 284.808 53.3251C284.877 53.4134 284.915 53.5211 284.916 53.6323C285.03 53.4649 285.129 53.2884 285.213 53.1046C285.348 52.8948 285.483 52.6786 285.625 52.4688C286.764 50.8389 288.021 49.2921 289.385 47.8404C292.126 44.8205 295.028 41.8515 296.84 38.1767C297.652 36.5237 295.15 35.0741 294.331 36.7335Z" fill="white"/>
<path d="M284.49 48.7677C287.801 49.0667 291.051 49.8017 294.146 50.9511C294.522 51.0475 294.923 51.0001 295.262 50.8193C295.601 50.6384 295.85 50.3387 295.955 49.9855C296.049 49.6311 295.994 49.2563 295.802 48.9391C295.61 48.6218 295.295 48.3865 294.923 48.2818C291.57 47.0613 288.051 46.2931 284.47 46C284.081 46.0032 283.709 46.15 283.434 46.4089C283.159 46.6677 283.003 47.0178 283 47.3838C283.008 47.7484 283.166 48.0959 283.44 48.3537C283.714 48.6116 284.083 48.7599 284.47 48.7677H284.49Z" fill="white"/>
<path d="M292.492 58.3196C293.411 58.8491 294.427 59.1867 295.479 59.3124C296.473 59.571 297.521 59.5384 298.497 59.2182C300.997 58.1688 300.053 54.3983 298.029 53.3803C296.004 52.3623 293.567 53.5626 292.011 54.9262C291.285 55.5645 290.713 56.3593 290.336 57.2513C290.049 57.8169 289.942 58.4575 290.03 59.0862C290.108 59.4025 290.249 59.6998 290.443 59.9609C290.637 60.222 290.881 60.4416 291.161 60.6069C292.137 61.2387 293.152 61.8096 294.198 62.3162C295.367 62.9132 296.56 63.4473 297.772 63.9501C298.132 64.0486 298.516 64.0002 298.84 63.8154C299.164 63.6305 299.403 63.3243 299.504 62.9635C299.59 62.6015 299.536 62.22 299.352 61.8967C299.169 61.5733 298.87 61.3324 298.516 61.2228L298.247 61.1097H298.172L297.629 60.8709C297.223 60.6887 296.816 60.5001 296.416 60.3053C295.679 59.945 294.954 59.568 294.242 59.1742C293.892 58.9794 293.548 58.7846 293.211 58.5835L292.667 58.2567C292.567 58.2002 292.567 58.1185 292.667 58.2567C292.536 58.0745 292.667 58.2944 292.711 58.3761C292.754 58.4578 292.711 58.5835 292.767 58.6589C292.823 58.7343 292.767 58.6589 292.817 58.5583C292.867 58.4578 292.867 58.4075 292.892 58.3321C292.954 58.1373 292.786 58.5269 292.892 58.3321C293.045 58.0378 293.219 57.7544 293.41 57.4838C293.229 57.7163 293.504 57.3832 293.567 57.3204C293.629 57.2576 293.785 57.0942 293.898 56.9873C294.01 56.8805 294.304 56.6543 294.073 56.8302C294.229 56.7099 294.392 56.5988 294.56 56.4972C294.831 56.3304 295.11 56.1793 295.398 56.0447C295.117 56.183 295.573 55.9819 295.648 55.9568C295.841 55.8939 296.035 55.8562 296.229 55.806C296.423 55.7557 296.035 55.806 296.229 55.806C296.314 55.8153 296.4 55.8153 296.485 55.806C296.679 55.806 296.304 55.7431 296.485 55.806C296.516 55.806 296.779 55.8814 296.616 55.806C296.454 55.7306 296.691 55.8625 296.735 55.8751C296.904 55.9316 296.598 55.7243 296.735 55.8751C296.786 55.9326 296.84 55.9872 296.898 56.0385C297.004 56.139 296.798 55.85 296.898 56.0385C296.941 56.1265 297.104 56.5035 297.004 56.2207C297.058 56.3688 297.104 56.5198 297.141 56.6731C297.21 56.9371 297.141 56.736 297.141 56.6731C297.141 56.7423 297.073 56.9874 297.141 56.8554C297.141 56.8554 297.273 56.5789 297.141 56.7297C297.01 56.8805 297.279 56.5977 297.335 56.56C297.104 56.6983 297.398 56.56 297.41 56.56C297.315 56.6006 297.213 56.626 297.11 56.6354C297.11 56.6354 297.473 56.6354 297.166 56.6354H296.891C296.729 56.6354 296.566 56.6355 296.404 56.5915C296.71 56.6229 296.473 56.5915 296.404 56.5915L296.004 56.5349C295.61 56.4658 295.21 56.3904 294.823 56.2835C294.611 56.2244 294.402 56.1531 294.198 56.0699C294.26 56.0699 294.404 56.1767 294.198 56.0699L293.854 55.8751C293.695 55.7711 293.516 55.7007 293.329 55.6681C293.141 55.6356 292.949 55.6416 292.764 55.6857C292.579 55.7299 292.405 55.8113 292.253 55.925C292.1 56.0387 291.972 56.1824 291.876 56.3474C291.78 56.5124 291.718 56.6952 291.694 56.8849C291.67 57.0745 291.685 57.267 291.737 57.4508C291.79 57.6345 291.879 57.8057 291.999 57.954C292.119 58.1022 292.267 58.2245 292.436 58.3133L292.492 58.3196Z" fill="white"/>
<path d="M312.044 61.1959C310.558 60.3008 308.961 59.6604 307.191 60.1951C305.709 60.6488 304.315 61.327 303.065 62.203C302.351 62.618 301.726 63.1557 301.223 63.7881C301.085 64.0237 301.009 64.2867 301.001 64.5554C300.992 64.8241 301.052 65.0908 301.174 65.3336C301.297 65.5764 301.479 65.7883 301.705 65.952C301.932 66.1156 302.196 66.2262 302.477 66.2747C303.325 66.3974 304.182 66.4515 305.039 66.4363C305.884 66.4736 306.742 66.5358 307.594 66.5171C309.416 66.4736 311.318 66.0198 312.579 64.7019L310.479 62.7251C308.486 64.9272 307.36 67.7088 307.29 70.6013C307.292 70.9718 307.449 71.3266 307.727 71.5885C308.005 71.8505 308.382 71.9984 308.776 72C309.168 71.9936 309.542 71.8442 309.819 71.5832C310.096 71.3223 310.255 70.9703 310.261 70.6013C310.318 68.4473 311.133 66.3721 312.579 64.7019C312.849 64.4358 313 64.0818 313 63.7135C313 63.3453 312.849 62.9912 312.579 62.7251C312.299 62.4647 311.922 62.3186 311.529 62.3186C311.136 62.3186 310.759 62.4647 310.479 62.7251C310.38 62.8308 310.275 62.9241 310.162 63.0235L310.109 63.067L309.925 63.1789C309.793 63.2535 309.661 63.3219 309.522 63.3841C309.383 63.4462 309.436 63.4276 309.522 63.3841L309.304 63.4587C308.686 63.6473 308.039 63.7357 307.389 63.7198C306.63 63.7198 305.877 63.6763 305.118 63.6452L303.976 63.5892L303.316 63.5581H303.032C303.237 63.5705 303.433 63.6449 303.59 63.7703C303.747 63.8958 303.857 64.0655 303.903 64.2544V64.9941C303.639 65.3671 303.613 65.4479 303.824 65.2366L304.075 65.0252L304.458 64.7206C304.63 64.5963 304.96 64.3725 305.244 64.1984C305.853 63.8238 306.493 63.4954 307.158 63.2162C307.671 62.9424 308.252 62.8029 308.842 62.8122C308.664 62.7811 309.119 62.893 309.172 62.9116C309.292 62.9524 309.409 63.0001 309.522 63.0546C309.872 63.2287 310.182 63.4338 310.552 63.6327C310.72 63.7356 310.909 63.8052 311.107 63.8374C311.305 63.8696 311.508 63.8637 311.703 63.8201C311.899 63.7764 312.083 63.6958 312.244 63.5833C312.405 63.4708 312.541 63.3287 312.642 63.1655C312.744 63.0023 312.809 62.8214 312.834 62.6338C312.859 62.4462 312.843 62.2557 312.788 62.074C312.733 61.8922 312.639 61.7229 312.512 61.5762C312.385 61.4296 312.228 61.3087 312.051 61.2208L312.044 61.1959Z" fill="white"/>
<path d="M314.94 65.7043L312.167 71.8518C312.007 72.149 311.96 72.4913 312.034 72.8188C312.108 73.1463 312.299 73.4379 312.573 73.6427C312.846 73.8474 313.185 73.9522 313.531 73.9385C313.876 73.9248 314.205 73.7936 314.461 73.5679C315.426 72.8324 316.404 72.1473 317.46 71.5061C317.946 71.2044 318.439 70.8775 318.937 70.6261L319.695 70.2112L320.201 69.941C320.083 69.9724 319.959 69.9688 319.843 69.9307C319.727 69.8926 319.626 69.8217 319.553 69.7272L319.177 69.0986C319.274 68.6838 319.248 68.6461 319.093 68.9981C319.035 69.1175 318.97 69.2369 318.905 69.3564L318.503 70.0604C318.205 70.5695 317.894 71.0661 317.57 71.5564C316.944 72.5152 316.265 73.4405 315.536 74.3285C314.551 75.5228 315.769 77.3834 317.305 76.5474C320.214 74.9571 323 72.2227 326.569 72.3924L325.539 69.9787C322.264 73.3323 319.34 76.994 316.812 80.9098C315.815 82.4561 318.335 83.8767 319.333 82.3367C321.725 78.6248 324.495 75.1545 327.599 71.9776C327.794 71.7766 327.925 71.5253 327.976 71.254C328.027 70.9827 327.996 70.7028 327.888 70.448C327.779 70.1931 327.597 69.9742 327.363 69.8173C327.129 69.6605 326.853 69.5725 326.569 69.5638C322.365 69.3689 319.261 72.2353 315.834 74.1022L317.603 76.3274C318.697 75.0128 319.699 73.629 320.603 72.185C321.373 70.9278 322.922 68.9415 321.503 67.6089C320.084 66.2763 318.205 67.7535 316.968 68.4638C315.393 69.4061 313.878 70.441 312.433 71.5627L314.72 73.2725L317.493 67.1249C317.676 66.7981 317.724 66.4156 317.627 66.0557C317.529 65.6957 317.294 65.3856 316.968 65.1888C316.633 65.0026 316.236 64.9517 315.863 65.0469C315.489 65.1422 315.17 65.376 314.973 65.698L314.94 65.7043Z" fill="white"/>
<path d="M348.613 61.4358L329.403 81.5198C328.14 82.8571 330.136 84.9015 331.412 83.5642L350.597 63.4802C351.86 62.143 349.864 60.0985 348.588 61.4358H348.613Z" fill="white"/>
<path d="M325.503 89C327.496 89 327.503 86 325.503 86C323.503 86 323.496 89 325.503 89Z" fill="white"/>
</svg>
