<svg width="161" height="126" viewBox="0 0 161 126" fill="none" xmlns="http://www.w3.org/2000/svg">
<path d="M0.271002 105.106C-0.312674 108.132 0.0112693 111.222 1.5872 113.915C3.04639 116.427 5.3811 118.347 7.87632 119.799C13.8853 123.285 21.1024 124.638 27.9227 125.422C36.8525 126.483 45.8968 126.081 54.6959 124.231C62.6427 122.524 70.3209 119.454 76.8318 114.548C82.9604 109.927 88.3682 103.589 90.7 96.186C91.9111 92.3347 92.0424 87.8473 89.4013 84.542C87.2738 81.8845 83.4186 80.1854 80.1675 81.8641C78.5829 82.6774 77.3484 84.3387 77.6139 86.1743C77.8795 88.01 79.4467 89.4535 80.865 90.531C83.3464 92.3703 86.4583 93.1576 89.521 92.721C92.7312 92.3056 95.7458 90.8854 98.4395 89.1543C101.25 87.3178 103.838 85.1649 106.153 82.7384C108.487 80.2603 110.611 77.5947 112.503 74.7686C114.898 71.2903 117.082 67.6727 119.043 63.9349C123.012 56.3834 126.228 48.3525 128.009 40.008C128.417 38.093 128.739 36.1567 128.975 34.1991C129.039 33.6734 128.391 33.4353 127.985 33.6357C124.574 35.3783 121.915 38.2102 119.755 41.318L120.888 41.9773C121.952 40.1266 123.153 38.3568 124.48 36.6824C125.111 35.9215 125.811 35.0182 126.622 34.4373C126.955 34.1991 127.095 34.2398 127.518 34.5332C128.414 35.1518 129.1 36.1451 129.725 37.0194C130.515 38.1289 131.242 39.2819 131.975 40.4292C132.558 41.3383 133.119 42.349 133.88 43.1245C134.464 43.7228 135.404 42.7992 134.811 42.198C134.096 41.4748 133.58 40.5047 133.034 39.6508C132.223 38.3816 131.417 37.1007 130.515 35.8895C129.815 34.9456 129.036 33.8797 127.991 33.2755C126.421 32.381 125.221 33.8564 124.229 34.9659C122.478 36.8916 121.089 39.0931 119.755 41.3092C119.315 42.0412 120.415 42.6511 120.888 41.9686C122.931 39.0409 125.435 36.3978 128.648 34.7568L127.661 34.1759C126.71 42.0179 124.209 49.6712 121.004 56.8684C117.805 64.1157 113.791 70.9791 109.039 77.3274C105.409 82.1372 100.815 86.5664 95.4219 89.3692C92.8479 90.7082 89.9558 91.6696 87.017 91.4692C85.6262 91.375 84.2713 90.9879 83.0421 90.3335C81.6209 89.5726 80.1063 88.4195 79.3008 87.0021C78.3231 85.2827 79.4292 83.5487 81.1131 82.8458C82.6482 82.2069 84.4138 82.4683 85.8525 83.2263C89.3225 85.059 90.5745 88.8639 90.163 92.5758C89.7311 96.4474 87.8283 100.153 85.7183 103.372C83.7152 106.375 81.3119 109.094 78.5741 111.455C72.9475 116.355 66.1564 119.727 58.9976 121.786C50.8845 124.109 42.3628 124.949 33.9375 124.571C29.7389 124.388 25.5604 123.888 21.438 123.075C18.487 122.525 15.5905 121.716 12.7821 120.659C7.82085 118.736 2.46273 115.396 1.4588 109.761C1.22705 108.324 1.25868 106.857 1.55218 105.431C1.70977 104.609 0.443201 104.269 0.285609 105.082L0.271002 105.106Z" fill="white"/>
<path d="M134.843 0.322683L131.675 7.47444L130.905 9.21482C130.715 9.64069 130.549 10.217 130.208 10.5464C129.867 10.8757 129.338 10.6997 128.946 10.5464C128.55 10.3953 128.18 10.1847 127.846 9.92176C127.044 9.29341 126.475 8.4076 126.234 7.40913C126.041 6.61134 124.834 6.9492 125.019 7.74699C125.284 8.81772 125.845 9.78917 126.637 10.5464C127.44 11.3129 128.596 11.9972 129.715 12C131.157 12 131.63 10.6486 132.125 9.52996L133.894 5.53531L135.92 0.958644C136 0.81183 136.021 0.639745 135.979 0.477679C135.937 0.315613 135.836 0.175844 135.696 0.0870312C135.552 0.00194004 135.381 -0.0219281 135.219 0.0206105C135.058 0.0631491 134.919 0.168656 134.834 0.314166L134.843 0.322683Z" fill="white"/>
<path d="M129.628 1.30071C131.439 1.40674 133.232 1.7059 134.979 2.19304C136.744 2.68108 138.462 3.33083 140.175 3.9777C140.342 4.02218 140.52 3.99958 140.671 3.91476C140.821 3.82995 140.932 3.68972 140.979 3.52431C141.022 3.35824 140.998 3.18228 140.913 3.03321C140.828 2.88415 140.689 2.7735 140.524 2.7244C138.767 2.0602 137.005 1.39601 135.191 0.902201C133.373 0.410337 131.509 0.108366 129.628 0.00120331C128.789 -0.0450013 128.792 1.2545 129.628 1.30071V1.30071Z" fill="white"/>
<path d="M138.004 9.05346C137.225 9.19422 136.474 9.47262 135.785 9.87667C135.431 10.089 135.095 10.3316 134.78 10.6017C134.403 10.9184 134.039 11.2856 134.003 11.8144C133.966 12.3431 134.306 12.7326 134.61 13.103C134.836 13.4077 135.126 13.6546 135.457 13.8249C136.368 14.2524 137.354 13.8503 138.007 13.1252C138.171 12.9401 138.323 12.7445 138.463 12.5395C138.598 12.3616 138.719 12.172 138.824 11.9727C138.945 11.6999 139.005 11.4018 139 11.1011C138.994 10.8004 138.922 10.5051 138.79 10.2376C138.738 10.0581 138.622 9.90636 138.465 9.81384C138.309 9.72131 138.124 9.69507 137.949 9.74053C137.646 9.84818 137.324 10.2503 137.473 10.6176C137.541 10.7716 137.596 10.9316 137.637 11.0957C137.637 11.1273 137.637 11.1622 137.658 11.1938C137.637 11.0545 137.658 11.1938 137.658 11.1938C137.658 11.1938 137.658 11.3426 137.658 11.1938C137.658 11.2445 137.637 11.2793 137.658 11.2096C137.589 11.3573 137.505 11.4965 137.406 11.6244L137.282 11.8049C137.206 11.9157 137.26 11.8366 137.282 11.8049C137.252 11.8481 137.219 11.8893 137.184 11.9284C137.091 12.0506 136.99 12.166 136.881 12.2735L136.814 12.3337C136.738 12.4065 136.893 12.2862 136.814 12.3337C136.735 12.3811 136.683 12.4255 136.614 12.4635C136.614 12.4635 136.486 12.5268 136.562 12.492C136.638 12.4571 136.547 12.492 136.535 12.492C136.462 12.5141 136.389 12.5363 136.31 12.5521C136.447 12.5236 136.292 12.5521 136.234 12.5521C136.176 12.5521 136.091 12.5521 136.183 12.5521C136.274 12.5521 136.107 12.53 136.107 12.53C136.107 12.53 136.003 12.4951 136.085 12.53C136.167 12.5648 136.064 12.5299 136.043 12.5046C135.989 12.4728 135.936 12.4379 135.885 12.4001C136.016 12.492 135.846 12.3526 135.818 12.3242C135.791 12.2957 135.715 12.2133 135.666 12.1563C135.618 12.0994 135.618 12.0962 135.597 12.0645C135.575 12.0329 135.53 11.979 135.578 12.0455C135.627 12.112 135.56 12.0202 135.548 12.0012C135.536 11.9822 135.518 11.9537 135.499 11.9315C135.481 11.9094 135.417 11.8081 135.378 11.7447C135.339 11.6814 135.354 11.6434 135.378 11.7637C135.389 11.8159 135.389 11.8699 135.378 11.922L135.351 11.9917L135.378 11.941C135.378 11.96 135.278 12.0519 135.378 11.941C135.424 11.8904 135.472 11.8429 135.521 11.7986L135.679 11.6529L135.773 11.5738C135.87 11.4914 135.736 11.5991 135.8 11.5516C136.042 11.3656 136.294 11.1953 136.556 11.0418C136.705 10.9563 136.86 10.8835 137.011 10.8075C137.036 10.8075 137.133 10.7537 137.011 10.8075L137.121 10.76L137.376 10.6619C137.707 10.5447 138.047 10.4558 138.393 10.3959C138.567 10.3442 138.714 10.2232 138.803 10.0592C138.892 9.89511 138.916 9.70106 138.869 9.51889C138.817 9.33935 138.701 9.18762 138.544 9.0951C138.388 9.00258 138.203 8.97633 138.028 9.02179L138.004 9.05346Z" fill="white"/>
<path d="M141.575 11.3529L139.103 14.9844C139.036 15.0853 139 15.2001 139 15.317C139 15.4339 139.036 15.5487 139.103 15.6497C139.172 15.7467 139.268 15.8273 139.381 15.8845C139.495 15.9418 139.622 15.9738 139.753 15.9779C140.201 16.0229 140.654 15.9991 141.093 15.9076C141.285 15.8597 141.448 15.7477 141.546 15.5959C141.644 15.444 141.671 15.2644 141.619 15.0957C141.562 14.9291 141.434 14.7882 141.261 14.7025C141.088 14.6167 140.884 14.5927 140.691 14.6356C140.664 14.6356 140.383 14.6825 140.513 14.6678C140.437 14.6771 140.36 14.682 140.282 14.6825C140.103 14.6878 139.924 14.68 139.746 14.659L140.396 15.6497L142.879 12.0183C142.934 11.9435 142.972 11.8596 142.989 11.7717C143.006 11.6839 143.003 11.5939 142.98 11.5071C142.956 11.4204 142.913 11.3387 142.852 11.2671C142.791 11.1954 142.715 11.1353 142.627 11.0903C142.539 11.0452 142.441 11.0163 142.34 11.0052C142.239 10.994 142.137 11.0009 142.039 11.0255C141.941 11.0501 141.849 11.0917 141.77 11.148C141.691 11.2043 141.626 11.274 141.579 11.3529H141.575Z" fill="white"/>
<path d="M143.5 10C144.165 10 144.168 9 143.5 9C142.833 9 142.833 10 143.5 10Z" fill="white"/>
<path d="M144.849 11.3234L143.087 15.3945C143.007 15.5388 142.981 15.7071 143.013 15.8692C143.045 16.0313 143.133 16.1765 143.261 16.2788C143.391 16.3844 143.555 16.4376 143.721 16.428C143.887 16.4184 144.044 16.3468 144.161 16.227C144.874 15.4736 145.659 14.7952 146.506 14.2021C146.882 13.9525 147.285 13.7479 147.707 13.5922C147.948 13.5076 148.195 13.4414 148.445 13.394C148.542 13.394 148.638 13.3635 148.746 13.3574H148.938C149.103 13.3574 149.067 13.3361 148.833 13.269L148.659 12.964C148.626 12.8481 148.704 12.7383 148.635 12.9061C148.596 13.0006 148.548 13.0951 148.503 13.1866L148.223 13.7477C148.031 14.1167 147.833 14.4827 147.623 14.8425C147.209 15.5652 146.755 16.2636 146.275 16.9406C146.225 17.0184 146.192 17.1056 146.176 17.197C146.16 17.2884 146.163 17.3821 146.184 17.4723C146.205 17.5626 146.244 17.6476 146.299 17.7221C146.353 17.7967 146.422 17.8592 146.501 17.9061C146.579 17.9529 146.667 17.9831 146.757 17.9946C146.848 18.0062 146.94 17.999 147.028 17.9735C147.115 17.9479 147.197 17.9046 147.268 17.846C147.339 17.7875 147.397 17.7149 147.44 17.6328C147.953 16.9146 148.429 16.1695 148.866 15.4006C149.082 15.0224 149.286 14.6412 149.481 14.2539C149.72 13.8743 149.893 13.4554 149.992 13.0158C150.01 12.8806 149.998 12.7429 149.957 12.6128C149.916 12.4827 149.847 12.3636 149.755 12.2642C149.663 12.1648 149.55 12.0876 149.425 12.0382C149.3 11.9889 149.165 11.9686 149.031 11.979C148.587 11.9771 148.146 12.0387 147.719 12.162C146.916 12.3912 146.158 12.7629 145.482 13.2598C144.671 13.87 143.907 14.5429 143.198 15.2725L144.257 16.1019L146.023 12.0309C146.107 11.8722 146.129 11.6869 146.084 11.5124C146.039 11.338 145.93 11.1876 145.78 11.0916C145.624 11.0013 145.44 10.9766 145.267 11.0228C145.094 11.069 144.946 11.1824 144.855 11.3386L144.849 11.3234Z" fill="white"/>
<path d="M115.792 13.0102C114.695 12.9623 113.509 13.0581 112.692 13.8331C112.291 14.203 112.045 14.6986 112.001 15.2275C111.983 15.7684 112.187 16.2949 112.569 16.6966C112.928 17.0712 113.374 17.362 113.871 17.5464C114.43 17.8016 115.035 17.9549 115.653 17.9983C116.786 18.0402 117.937 17.322 118 16.182C117.982 15.5783 117.83 14.985 117.555 14.4405C117.306 13.8421 116.953 13.1778 116.171 13.1927C116.077 13.1927 115.985 13.2102 115.899 13.244C115.813 13.2778 115.735 13.3274 115.669 13.3899C115.603 13.4525 115.551 13.5267 115.515 13.6083C115.479 13.69 115.461 13.7776 115.461 13.866C115.461 13.9544 115.479 14.042 115.515 14.1236C115.551 14.2053 115.603 14.2795 115.669 14.3421C115.735 14.4046 115.813 14.4542 115.899 14.488C115.985 14.5218 116.077 14.5393 116.171 14.5393C116.122 14.5315 116.075 14.5152 116.032 14.4914C116.103 14.5447 116.193 14.5698 116.282 14.5613C116.372 14.5527 116.455 14.5112 116.513 14.4456C116.572 14.38 116.6 14.2954 116.594 14.2099C116.587 14.1244 116.546 14.0447 116.478 13.9878C116.411 13.9308 116.323 13.9011 116.232 13.905C116.142 13.9088 116.057 13.9459 115.995 14.0084C115.933 14.0709 115.899 14.1539 115.901 14.2396C115.903 14.3253 115.939 14.4071 116.003 14.4674C116.076 14.5422 115.947 14.3807 116.003 14.4674C116.023 14.4922 116.041 14.5182 116.057 14.5452C116.14 14.6836 116.207 14.8301 116.256 14.9821C116.325 15.1527 116.385 15.3292 116.442 15.5057C116.5 15.6744 116.542 15.8477 116.568 16.0234C116.571 16.0632 116.571 16.1032 116.568 16.1431C116.568 16.2628 116.587 16.0952 116.568 16.188L116.54 16.2747C116.574 16.167 116.559 16.2418 116.54 16.2747L116.473 16.3735C116.473 16.3735 116.543 16.2987 116.489 16.3525C116.461 16.3829 116.432 16.4119 116.401 16.4393C116.379 16.4603 116.268 16.5321 116.376 16.4662C116.313 16.5051 116.246 16.5381 116.183 16.574C116.12 16.6099 116.183 16.574 116.205 16.574L116.086 16.6129L115.918 16.6518H115.855H115.663C115.273 16.6088 114.893 16.5078 114.537 16.3525C114.243 16.2369 113.97 16.0795 113.726 15.8858C113.704 15.8648 113.562 15.7122 113.629 15.796C113.58 15.7338 113.536 15.6677 113.499 15.5985C113.499 15.5985 113.436 15.4609 113.461 15.5297C113.487 15.5985 113.461 15.4878 113.461 15.4878C113.461 15.4878 113.436 15.401 113.43 15.3591C113.43 15.4279 113.43 15.395 113.43 15.3442C113.43 15.2933 113.43 15.2634 113.43 15.2215C113.43 15.2544 113.398 15.3442 113.43 15.2215C113.43 15.1915 113.43 15.1616 113.455 15.1347C113.48 15.1078 113.512 15 113.477 15.0719C113.442 15.1437 113.477 15.0479 113.496 15.0419L113.562 14.9342C113.562 14.9163 113.641 14.8325 113.562 14.9342C113.591 14.9013 113.622 14.8714 113.651 14.8415L113.745 14.7517C113.745 14.7517 113.89 14.638 113.827 14.6829C113.764 14.7278 113.859 14.6649 113.862 14.6619C113.865 14.6589 113.957 14.6051 114.004 14.5811C114.166 14.4999 114.341 14.4433 114.521 14.4136C114.938 14.3519 115.362 14.3359 115.783 14.3657C115.971 14.3649 116.151 14.2937 116.284 14.1676C116.417 14.0415 116.492 13.8708 116.492 13.6924C116.488 13.5153 116.411 13.3467 116.279 13.2214C116.147 13.0961 115.969 13.0237 115.783 13.0192L115.792 13.0102Z" fill="white"/>
<path d="M118.339 15.3448C117.958 16.2065 117.575 17.0653 117.194 17.93C116.982 18.4148 116.856 18.9406 117.291 19.3554C117.641 19.6914 118.13 19.6475 118.568 19.5804C119.325 19.479 120.056 19.2354 120.726 18.8618C121.069 18.6687 121.382 18.4234 121.653 18.1344C122.003 17.7518 122.18 17.0974 121.736 16.7031C121.614 16.5819 121.45 16.5142 121.28 16.5142C121.109 16.5142 120.946 16.5819 120.823 16.7031C119.939 17.6846 119.678 19.04 119.796 20.3428C119.8 20.5157 119.869 20.6803 119.989 20.8026C120.109 20.9249 120.27 20.9956 120.44 21C120.61 20.9985 120.773 20.9287 120.894 20.8058C121.014 20.6829 121.082 20.5166 121.084 20.3428C121.06 20.0767 121.053 19.8093 121.064 19.5424C121.067 19.309 121.095 19.0768 121.15 18.8501C121.199 18.6263 121.27 18.4081 121.361 18.1987C121.458 17.9915 121.584 17.8004 121.736 17.632H120.823C120.767 17.5801 120.729 17.5115 120.713 17.4359C120.698 17.3604 120.706 17.2817 120.737 17.2114C120.758 17.1705 120.737 17.1822 120.717 17.2435C120.795 17.188 120.697 17.2435 120.666 17.2844C120.634 17.3253 120.56 17.3866 120.506 17.4334L120.437 17.4889C120.224 17.647 119.995 17.783 119.756 17.8949C119.539 17.992 119.315 18.0711 119.086 18.1315C118.826 18.2025 118.562 18.2591 118.296 18.3009H118.224C118.262 18.3009 118.259 18.3009 118.224 18.3009H118.076C117.95 18.3009 118.076 18.3009 118.119 18.3301C118.152 18.3525 118.179 18.3841 118.196 18.4213C118.212 18.4585 118.218 18.4999 118.213 18.5405C118.238 18.7352 118.261 18.7673 118.282 18.6368C118.236 18.704 118.319 18.5492 118.327 18.5317L118.419 18.3214L118.642 17.8219L119.452 15.9874C119.533 15.8356 119.555 15.6578 119.512 15.4906C119.468 15.3233 119.364 15.1792 119.22 15.0878C119.073 15.0012 118.897 14.9775 118.732 15.0218C118.567 15.0661 118.426 15.1747 118.339 15.3244V15.3448Z" fill="white"/>
<path d="M126.808 19.5089C126.474 19.0885 126.045 18.7407 125.552 18.4891C124.907 18.2023 124.332 18.5622 123.831 18.9221C122.997 19.5241 122.373 20.3401 122.033 21.2692C121.823 21.8378 122.661 22.2368 123.088 21.8404C123.648 21.3188 123.721 20.612 123.836 19.9339C123.965 19.1516 124.083 18.3692 124.184 17.5868C124.184 17.5096 124.168 17.4332 124.137 17.3618C124.105 17.2905 124.058 17.2257 124 17.1711C123.941 17.1165 123.871 17.0733 123.795 17.044C123.718 17.0146 123.636 16.9997 123.553 17C123.387 17.0046 123.23 17.0679 123.112 17.177C122.995 17.286 122.927 17.4326 122.922 17.5868C122.835 18.2544 122.743 18.8908 122.642 19.5584C122.591 19.8609 122.549 20.1661 122.476 20.4634C122.476 20.5207 122.448 20.5781 122.431 20.6355C122.415 20.6929 122.342 20.8598 122.387 20.7659C122.361 20.8206 122.331 20.8676 122.302 20.9171C122.274 20.9667 122.255 20.9797 122.302 20.938C122.277 20.9667 122.249 20.9928 122.218 21.0215L123.273 21.59C123.289 21.5457 123.306 21.4987 123.326 21.4518C123.345 21.4048 123.382 21.3188 123.345 21.3996C123.385 21.3188 123.424 21.2379 123.469 21.1597C123.552 21.0014 123.646 20.8481 123.749 20.7007C123.777 20.6589 123.811 20.6198 123.839 20.5781L123.878 20.5312C123.938 20.4634 124 20.3955 124.063 20.3277C124.199 20.1889 124.344 20.0582 124.498 19.9366L124.596 19.8609C124.63 19.8375 124.63 19.8375 124.596 19.8609L124.646 19.8244C124.725 19.7723 124.803 19.7227 124.885 19.6758C124.885 19.6758 125.134 19.5402 125.134 19.5375C125.151 19.5949 124.885 19.4593 125.045 19.5662C125.379 19.7859 125.677 20.0495 125.931 20.3486C126.049 20.4585 126.209 20.5202 126.376 20.5202C126.544 20.5202 126.704 20.4585 126.822 20.3486C126.936 20.2367 127 20.0882 127 19.9339C127 19.7796 126.936 19.6312 126.822 19.5193L126.808 19.5089Z" fill="white"/>
<path d="M134.755 16.3301C133.779 18.2383 132.115 19.6688 130.704 21.2767C130.337 21.6944 129.982 22.135 129.657 22.5756C129.332 23.0162 128.898 23.5626 129.022 24.1405C129.145 24.7184 129.741 25.0217 130.358 24.9988C131.032 24.9673 131.709 24.8672 132.38 24.7985C132.558 24.7942 132.728 24.725 132.854 24.6052C132.98 24.4854 133.053 24.3242 133.057 24.1548C133.055 23.9848 132.983 23.8223 132.856 23.7021C132.73 23.5818 132.559 23.5133 132.38 23.5111L130.608 23.6885C130.49 23.6885 130.37 23.6885 130.255 23.7142C130.141 23.74 130.12 23.7142 130.183 23.7142C130.234 23.7278 130.278 23.7566 130.31 23.7963C130.342 23.836 130.36 23.8845 130.361 23.9345C130.414 23.8592 130.46 23.7798 130.499 23.6971C130.562 23.6026 130.626 23.5054 130.692 23.411C131.223 22.6775 131.81 21.9815 132.446 21.3282C133.725 19.9692 135.08 18.6332 135.925 16.9795C136.304 16.2357 135.137 15.5834 134.755 16.3301V16.3301Z" fill="white"/>
<path d="M130.688 22.1071C132.216 22.2267 133.716 22.5207 135.144 22.9805C135.318 23.019 135.503 23.0001 135.659 22.9277C135.816 22.8553 135.931 22.7355 135.979 22.5942C136.023 22.4524 135.997 22.3025 135.908 22.1756C135.82 22.0487 135.675 21.9546 135.503 21.9127C133.956 21.4245 132.331 21.1172 130.678 21C130.499 21.0013 130.327 21.06 130.2 21.1636C130.074 21.2671 130.002 21.4071 130 21.5535C130.004 21.6994 130.077 21.8383 130.203 21.9415C130.329 22.0446 130.5 22.1039 130.678 22.1071H130.688Z" fill="white"/>
<path d="M134.246 26.418C134.706 26.6587 135.213 26.8122 135.739 26.8693C136.237 26.9868 136.76 26.972 137.249 26.8265C138.499 26.3494 138.027 24.6356 137.014 24.1729C136.002 23.7101 134.783 24.2557 134.005 24.8755C133.643 25.1657 133.356 25.527 133.168 25.9324C133.025 26.1895 132.971 26.4807 133.015 26.7665C133.054 26.9102 133.124 27.0454 133.222 27.164C133.319 27.2827 133.441 27.3825 133.58 27.4577C134.069 27.7449 134.576 28.0044 135.099 28.2346C135.683 28.506 136.28 28.7488 136.886 28.9773C137.066 29.0221 137.258 29.0001 137.42 28.9161C137.582 28.8321 137.701 28.6929 137.752 28.5288C137.795 28.3643 137.768 28.1909 137.676 28.0439C137.584 27.897 137.435 27.7874 137.258 27.7376L137.124 27.6862H137.086L136.814 27.5777C136.611 27.4948 136.408 27.4091 136.208 27.3206C135.839 27.1568 135.477 26.9855 135.121 26.8065C134.946 26.7179 134.774 26.6294 134.605 26.538L134.333 26.3894C134.283 26.3637 134.283 26.3266 134.333 26.3894C134.268 26.3066 134.333 26.4066 134.355 26.4437C134.377 26.4808 134.355 26.538 134.383 26.5722C134.412 26.6065 134.383 26.5722 134.408 26.5265C134.433 26.4808 134.433 26.458 134.446 26.4237C134.477 26.3351 134.393 26.5122 134.446 26.4237C134.523 26.2899 134.609 26.1611 134.705 26.0381C134.615 26.1438 134.752 25.9924 134.783 25.9638C134.815 25.9353 134.893 25.861 134.949 25.8124C135.005 25.7639 135.152 25.661 135.036 25.741C135.114 25.6863 135.196 25.6358 135.28 25.5896C135.415 25.5138 135.555 25.4451 135.699 25.384C135.558 25.4468 135.786 25.3554 135.824 25.344C135.921 25.3154 136.018 25.2983 136.114 25.2754C136.211 25.2526 136.018 25.2754 136.114 25.2754C136.157 25.2797 136.2 25.2797 136.243 25.2754C136.339 25.2754 136.152 25.2469 136.243 25.2754C136.258 25.2754 136.389 25.3097 136.308 25.2754C136.227 25.2412 136.346 25.3011 136.368 25.3069C136.452 25.3326 136.299 25.2383 136.368 25.3069C136.393 25.333 136.42 25.3578 136.449 25.3811C136.502 25.4268 136.399 25.2954 136.449 25.3811C136.471 25.4211 136.552 25.5925 136.502 25.464C136.529 25.5313 136.552 25.5999 136.571 25.6696C136.605 25.7896 136.571 25.6982 136.571 25.6696C136.571 25.701 136.536 25.8124 136.571 25.7525C136.571 25.7525 136.636 25.6268 136.571 25.6953C136.505 25.7639 136.639 25.6353 136.668 25.6182C136.552 25.681 136.699 25.6182 136.705 25.6182C136.657 25.6366 136.607 25.6482 136.555 25.6525C136.555 25.6525 136.736 25.6525 136.583 25.6525H136.446C136.364 25.6525 136.283 25.6525 136.202 25.6325C136.355 25.6468 136.236 25.6325 136.202 25.6325L136.002 25.6068C135.805 25.5754 135.605 25.5411 135.411 25.4925C135.305 25.4656 135.201 25.4332 135.099 25.3954C135.13 25.3954 135.202 25.444 135.099 25.3954L134.927 25.3069C134.847 25.2596 134.758 25.2276 134.664 25.2128C134.571 25.198 134.475 25.2007 134.382 25.2208C134.29 25.2409 134.203 25.2778 134.126 25.3295C134.05 25.3812 133.986 25.4465 133.938 25.5215C133.89 25.5965 133.859 25.6797 133.847 25.7659C133.835 25.8521 133.843 25.9396 133.869 26.0231C133.895 26.1066 133.939 26.1844 133.999 26.2518C134.059 26.3192 134.134 26.3747 134.218 26.4151L134.246 26.418Z" fill="white"/>
<path d="M143.522 27.4983C142.779 27.1253 141.98 26.8585 141.096 27.0813C140.355 27.2703 139.658 27.5529 139.032 27.9179C138.675 28.0908 138.363 28.3149 138.111 28.5784C138.043 28.6766 138.005 28.7861 138 28.8981C137.996 29.01 138.026 29.1212 138.087 29.2223C138.148 29.3235 138.239 29.4118 138.353 29.48C138.466 29.5482 138.598 29.5942 138.739 29.6145C139.162 29.6656 139.591 29.6881 140.019 29.6818C140.442 29.6973 140.871 29.7232 141.297 29.7155C142.208 29.6973 143.159 29.5083 143.789 28.9591L142.74 28.1355C141.743 29.053 141.18 30.212 141.145 31.4172C141.146 31.5716 141.225 31.7194 141.364 31.8286C141.503 31.9377 141.691 31.9993 141.888 32C142.084 31.9973 142.271 31.9351 142.409 31.8264C142.548 31.7176 142.627 31.5709 142.631 31.4172C142.659 30.5197 143.066 29.655 143.789 28.9591C143.925 28.8483 144 28.7008 144 28.5473C144 28.3939 143.925 28.2463 143.789 28.1355C143.65 28.027 143.461 27.9661 143.264 27.9661C143.068 27.9661 142.879 28.027 142.74 28.1355C142.69 28.1795 142.637 28.2184 142.581 28.2598L142.555 28.2779L142.462 28.3246C142.396 28.3556 142.33 28.3841 142.261 28.41C142.192 28.4359 142.218 28.4282 142.261 28.41L142.152 28.4411C141.843 28.5197 141.519 28.5565 141.195 28.5499C140.815 28.5499 140.439 28.5318 140.059 28.5188L139.488 28.4955L139.158 28.4826H139.016C139.119 28.4877 139.217 28.5187 139.295 28.571C139.374 28.6232 139.428 28.694 139.452 28.7727V29.0809C139.32 29.2363 139.306 29.27 139.412 29.1819L139.537 29.0938L139.729 28.9669C139.815 28.9151 139.98 28.8219 140.122 28.7493C140.427 28.5933 140.747 28.4564 141.079 28.3401C141.336 28.226 141.626 28.1679 141.921 28.1717C141.832 28.1588 142.06 28.2054 142.086 28.2132C142.146 28.2302 142.204 28.2501 142.261 28.2728C142.436 28.3453 142.591 28.4308 142.776 28.5136C142.86 28.5565 142.955 28.5855 143.054 28.5989C143.152 28.6123 143.254 28.6099 143.352 28.5917C143.449 28.5735 143.541 28.5399 143.622 28.4931C143.703 28.4462 143.77 28.387 143.821 28.3189C143.872 28.2509 143.904 28.1756 143.917 28.0974C143.93 28.0192 143.922 27.9399 143.894 27.8642C143.866 27.7884 143.819 27.7179 143.756 27.6568C143.693 27.5957 143.614 27.5453 143.525 27.5087L143.522 27.4983Z" fill="white"/>
<path d="M144.286 30.313L143.073 33.0453C143.003 33.1773 142.983 33.3295 143.015 33.475C143.047 33.6206 143.131 33.7502 143.25 33.8412C143.37 33.9322 143.519 33.9787 143.67 33.9727C143.821 33.9666 143.965 33.9083 144.077 33.8079C144.499 33.4811 144.927 33.1766 145.389 32.8916C145.601 32.7575 145.817 32.6122 146.035 32.5005L146.367 32.3161L146.588 32.196C146.536 32.21 146.482 32.2084 146.431 32.1914C146.381 32.1745 146.337 32.143 146.304 32.101L146.14 31.8216C146.183 31.6372 146.171 31.6205 146.103 31.7769C146.078 31.83 146.049 31.8831 146.021 31.9362L145.845 32.2491C145.715 32.4754 145.579 32.6961 145.437 32.914C145.163 33.3401 144.866 33.7513 144.547 34.146C144.116 34.6768 144.649 35.5037 145.321 35.1322C146.594 34.4254 147.812 33.2101 149.374 33.2855L148.923 32.2127C147.49 33.7032 146.211 35.3307 145.105 37.071C144.669 37.7583 145.772 38.3896 146.208 37.7052C147.255 36.0555 148.466 34.5131 149.825 33.1011C149.91 33.0118 149.967 32.9001 149.989 32.7796C150.012 32.659 149.998 32.5346 149.951 32.4213C149.903 32.3081 149.824 32.2107 149.721 32.141C149.619 32.0713 149.498 32.0322 149.374 32.0283C147.535 31.9417 146.177 33.2157 144.677 34.0454L145.451 35.0344C145.93 34.4501 146.368 33.8351 146.764 33.1933C147.101 32.6346 147.778 31.7518 147.158 31.1595C146.537 30.5672 145.715 31.2238 145.173 31.5394C144.484 31.9583 143.822 32.4182 143.189 32.9167L144.19 33.6766L145.403 30.9444C145.483 30.7992 145.504 30.6292 145.462 30.4692C145.419 30.3092 145.316 30.1714 145.173 30.0839C145.027 30.0012 144.853 29.9785 144.69 30.0209C144.527 30.0632 144.387 30.1671 144.3 30.3102L144.286 30.313Z" fill="white"/>
<path d="M159.915 28.1895L151.183 36.9217C150.609 37.5031 151.516 38.3919 152.096 37.8105L160.817 29.0783C161.391 28.4969 160.484 27.6081 159.904 28.1895H159.915Z" fill="white"/>
<path d="M149.501 40C150.165 40 150.168 39 149.501 39C148.834 39 148.832 40 149.501 40Z" fill="white"/>
</svg>
