<svg width="51" height="49" viewBox="0 0 51 49" fill="none" xmlns="http://www.w3.org/2000/svg">
<path fill-rule="evenodd" clip-rule="evenodd" d="M1.2526 46.2494C1.96116 46.523 2.68872 46.7637 3.42582 46.9013C6.03096 47.3678 14.8178 48.4411 16.5974 48.5191C17.1352 48.5689 17.7458 48.5214 18.2584 48.3261C19.1682 47.9769 19.3331 46.8825 18.582 46.2062C18.3179 45.9563 17.951 45.7837 17.5936 45.6812C16.5512 45.394 15.5057 45.1412 14.4539 44.9572C11.2808 44.4208 8.09042 43.9001 4.90946 43.4497C3.85442 43.3 2.76766 43.3208 1.69514 43.3602C0.894698 43.3902 0.22846 44.0394 0.215533 44.697C0.2073 45.4765 0.621533 46.0003 1.2526 46.2494ZM23.9835 24.6739L23.9834 24.6738C23.5218 24.5161 23.1072 24.3744 22.7043 24.1865C16.7203 21.419 11.5361 17.3805 6.67119 12.8777C6.10263 12.3484 5.57722 11.7038 5.2514 11.0095C5.07471 10.6356 5.17247 9.92953 5.41938 9.54373C5.60859 9.25476 6.25723 9.09344 6.60545 9.19378C7.27123 9.37459 7.94063 9.69196 8.52011 10.1032C12.3488 12.8073 16.1599 15.5268 19.9517 18.2786C21.0596 19.0874 22.1547 19.9262 23.2478 20.7635L23.248 20.7638C23.5517 20.9964 23.8552 21.2288 24.1588 21.4605C24.6302 21.8106 25.0823 22.193 25.5007 22.5893C25.9804 23.0254 26.2319 23.6446 25.8389 24.2042C25.8138 24.2395 25.7892 24.2751 25.7647 24.3107C25.5343 24.6455 25.3092 24.9724 24.6684 24.9131C24.4273 24.8255 24.2002 24.7479 23.9835 24.6739ZM50.5432 3.62711C50.4727 3.8973 50.4046 4.18313 50.3345 4.47774C50.1946 5.06455 50.0465 5.68619 49.855 6.28853L49.8546 6.28986C48.7085 9.85706 47.5625 13.4243 46.3843 16.9712C46.1261 17.7407 45.7345 18.4806 45.2987 19.1474C44.7227 20.0428 44.0012 20.3037 43.2565 20.0795C42.5118 19.8554 42.0965 19.196 42.1792 18.1171C42.2304 17.3802 42.3199 16.5951 42.5534 15.9095C44.1254 11.4154 45.7311 6.92444 47.3521 2.45212C47.5344 1.95157 47.8195 1.44328 48.1932 1.08117C49.1112 0.165784 50.3813 0.593801 50.5848 1.88896C50.6304 2.20932 50.6062 2.55078 50.5794 2.92827L50.5794 2.92831L50.5794 2.92835C50.5637 3.14808 50.5473 3.38001 50.5432 3.62711Z" fill="#E27152"/>
</svg>
