<svg width="66" height="87" viewBox="0 0 66 87" fill="none" xmlns="http://www.w3.org/2000/svg">
<path d="M34.9729 80.1109C34.6933 77.2675 34.3917 74.8653 34.2377 72.4577C33.9585 68.3754 33.8778 64.3317 35.4653 60.382C37.0801 56.3762 40.1477 53.9957 44.6261 53.6733C47.3761 53.4794 50.1733 53.9812 52.9323 54.2641C54.0104 54.38 55.0702 54.7811 56.6417 55.1724C55.3456 53.2752 54.3026 51.7998 53.3269 50.2853C50.9259 46.5938 48.361 42.991 46.2405 39.1699C43.3064 33.9474 44.9577 29.6191 50.7061 27.0381C52.9611 26.0275 55.5018 25.5202 57.926 24.8062C58.6563 24.5956 59.4103 24.485 60.2991 24.2959C56.8032 21.8106 53.4421 19.4945 50.2048 17.0729C42.6541 11.4163 46.0707 5.15047 52.0306 2.18539C53.6243 1.39208 55.4584 0.947731 57.2233 0.496773C58.4144 0.232298 59.6199 0.5821 59.9146 1.80996C60.1947 2.91906 59.2948 3.57647 58.2275 3.98317C57.1802 4.3983 56.091 4.75075 55.1165 5.26411C53.9781 5.86615 52.8305 6.48688 51.8377 7.28539C49.0506 9.53617 48.8423 11.7462 51.4022 14.2205C53.2046 15.9705 55.293 17.4804 57.3323 18.9921C59.2295 20.399 61.2123 21.7294 63.1952 23.0597C64.2076 23.7562 65.2017 24.4901 65.0264 25.7904C64.8293 27.2843 63.4651 27.6562 62.2084 28.0057C60.6111 28.4596 58.9556 28.6862 57.391 29.2215C55.4075 29.8733 53.4259 30.5709 51.6008 31.4921C49.129 32.7493 48.5349 34.1662 49.5376 36.6157C50.4966 38.9567 51.6232 41.3007 52.9793 43.471C55.91 48.1063 58.9937 52.6258 62.0974 57.1537C62.8291 58.2277 63.2131 59.2228 62.3987 60.2992C61.6317 61.3279 60.4771 61.2698 59.3025 60.9556C57.212 60.3909 55.1178 59.7346 53.0017 59.2718C51.1443 58.8728 49.2285 58.4943 47.3345 58.4178C42.2735 58.202 39.7087 60.0959 38.4306 64.6489C37.4625 68.0709 37.2356 71.5572 37.4822 75.0625C37.6508 77.5889 37.996 80.0996 38.2721 82.6036C38.4228 83.9286 38.5754 85.2994 37.029 86.045C35.5591 86.7328 34.3282 85.9893 33.1647 85.2067C32.6785 84.8669 32.2489 84.4607 31.8101 84.0733C30.9416 83.2797 30.0058 82.5253 29.2229 81.6551C23.3553 75.2202 16.0852 74.9305 8.22235 77.59C6.77436 78.0843 5.48103 79.0041 4.14223 79.7695C3.47739 80.1429 2.909 80.7146 2.2114 81.0066C1.71779 81.2269 0.885473 81.3495 0.550457 81.0959C0.17538 80.8253 0.0663398 80.0586 0.0573838 79.5817C0.0558858 78.5449 0.740996 77.4366 1.50246 76.766C3.01627 75.4434 4.6794 74.1612 6.51723 73.313C10.579 71.4186 14.9956 70.7774 19.5394 70.8655C23.4131 70.9419 26.6361 72.5014 29.4181 74.8665C31.2133 76.4332 32.8555 78.1157 34.9729 80.1109Z" fill="#383736"/>
</svg>
