<svg width="375" height="11634" viewBox="0 0 375 11634" fill="none" xmlns="http://www.w3.org/2000/svg">
<g filter="url(#filter0_f_136_1650)">
<ellipse cx="144.486" cy="605.276" rx="278.686" ry="111.19" transform="rotate(35.4722 144.486 605.276)" fill="#D0DBE0"/>
</g>
<g filter="url(#filter1_f_136_1650)">
<ellipse cx="247.898" cy="1114.86" rx="278.686" ry="111.19" transform="rotate(121.334 247.898 1114.86)" fill="#C1D2DA"/>
</g>
<g filter="url(#filter2_f_136_1650)">
<ellipse cx="381.898" cy="2904.86" rx="278.686" ry="111.19" transform="rotate(121.334 381.898 2904.86)" fill="#E27152" fill-opacity="0.54"/>
</g>
<g filter="url(#filter3_f_136_1650)">
<ellipse cx="206.898" cy="3848.86" rx="278.686" ry="111.19" transform="rotate(121.334 206.898 3848.86)" fill="#E27152" fill-opacity="0.54"/>
</g>
<g filter="url(#filter4_f_136_1650)">
<ellipse cx="259.898" cy="4847.86" rx="278.686" ry="111.19" transform="rotate(121.334 259.898 4847.86)" fill="#E27152" fill-opacity="0.54"/>
</g>
<g filter="url(#filter5_f_136_1650)">
<ellipse cx="108.898" cy="6661.86" rx="278.686" ry="111.19" transform="rotate(121.334 108.898 6661.86)" fill="#E27152" fill-opacity="0.31"/>
</g>
<g filter="url(#filter6_f_136_1650)">
<ellipse cx="196.473" cy="7379.83" rx="278.686" ry="111.19" transform="rotate(-135.881 196.473 7379.83)" fill="white"/>
</g>
<g filter="url(#filter7_f_136_1650)">
<ellipse cx="54.0959" cy="8343.77" rx="636.869" ry="254.097" transform="rotate(-135.881 54.0959 8343.77)" fill="white"/>
</g>
<g filter="url(#filter8_f_136_1650)">
<ellipse cx="335.382" cy="7849.78" rx="351.914" ry="140.406" transform="rotate(-135.881 335.382 7849.78)" fill="#C4DEE9"/>
</g>
<g filter="url(#filter9_f_136_1650)">
<ellipse cx="191.726" cy="9023.48" rx="351.914" ry="110.735" transform="rotate(-90 191.726 9023.48)" fill="#E27152" fill-opacity="0.17"/>
</g>
<g filter="url(#filter10_f_136_1650)">
<ellipse cx="82.8563" cy="10068.1" rx="351.914" ry="110.735" transform="rotate(-60 82.8563 10068.1)" fill="#E27152" fill-opacity="0.17"/>
</g>
<g filter="url(#filter11_f_136_1650)">
<ellipse cx="116.774" cy="11213.7" rx="351.914" ry="110.735" transform="rotate(-12.9383 116.774 11213.7)" fill="#C1D2DA"/>
</g>
<g filter="url(#filter12_f_136_1650)">
<ellipse cx="221.178" cy="11731.3" rx="351.914" ry="110.735" transform="rotate(56.3511 221.178 11731.3)" fill="white"/>
</g>
<g filter="url(#filter13_f_136_1650)">
<ellipse cx="131.898" cy="2432.86" rx="278.686" ry="111.19" transform="rotate(121.334 131.898 2432.86)" fill="#C1D2DA"/>
</g>
<g filter="url(#filter14_f_136_1650)">
<ellipse cx="170.898" cy="5425.86" rx="278.686" ry="111.19" transform="rotate(121.334 170.898 5425.86)" fill="#C1D2DA"/>
</g>
<g filter="url(#filter15_f_136_1650)">
<ellipse cx="154.479" cy="3485.97" rx="572.354" ry="228.357" transform="rotate(70.4814 154.479 3485.97)" fill="white"/>
</g>
<g filter="url(#filter16_f_136_1650)">
<path d="M364.754 129.384C386.701 173.227 328.785 171.618 262.745 204.677C196.704 237.735 147.547 292.943 125.6 249.101C103.653 205.258 139.398 142.917 205.439 109.858C271.479 76.7995 342.807 85.5416 364.754 129.384Z" fill="#E27152"/>
</g>
<g filter="url(#filter17_f_136_1650)">
<path d="M465.994 1961.36C502.585 2034.45 406.023 2031.77 295.914 2086.89C185.806 2142.01 103.847 2234.06 67.2553 2160.96C30.6635 2087.86 90.2606 1983.92 200.369 1928.8C310.478 1873.68 429.402 1888.26 465.994 1961.36Z" fill="#F5977D"/>
</g>
<g filter="url(#filter18_f_136_1650)">
<path d="M302.927 1837.62C252.734 1902.14 213.541 1813.85 116.352 1738.24C19.1624 1662.64 -99.2193 1628.35 -49.0267 1563.83C1.16601 1499.31 120.643 1508.29 217.832 1583.9C315.021 1659.5 353.119 1773.1 302.927 1837.62Z" fill="white"/>
</g>
<g filter="url(#filter19_f_136_1650)">
<path d="M396.926 2528.62C346.734 2593.14 307.54 2504.85 210.351 2429.24C113.162 2353.64 -5.21959 2319.35 44.9731 2254.83C95.1658 2190.31 214.642 2199.29 311.832 2274.9C409.021 2350.5 447.119 2464.1 396.926 2528.62Z" fill="white"/>
</g>
<defs>
<filter id="filter0_f_136_1650" x="-391.53" y="119.894" width="1072.03" height="970.765" filterUnits="userSpaceOnUse" color-interpolation-filters="sRGB">
<feFlood flood-opacity="0" result="BackgroundImageFix"/>
<feBlend mode="normal" in="SourceGraphic" in2="BackgroundImageFix" result="shape"/>
<feGaussianBlur stdDeviation="150" result="effect1_foregroundBlur_136_1650"/>
</filter>
<filter id="filter1_f_136_1650" x="-225.394" y="569.844" width="946.584" height="1090.04" filterUnits="userSpaceOnUse" color-interpolation-filters="sRGB">
<feFlood flood-opacity="0" result="BackgroundImageFix"/>
<feBlend mode="normal" in="SourceGraphic" in2="BackgroundImageFix" result="shape"/>
<feGaussianBlur stdDeviation="150" result="effect1_foregroundBlur_136_1650"/>
</filter>
<filter id="filter2_f_136_1650" x="-91.394" y="2359.84" width="946.584" height="1090.04" filterUnits="userSpaceOnUse" color-interpolation-filters="sRGB">
<feFlood flood-opacity="0" result="BackgroundImageFix"/>
<feBlend mode="normal" in="SourceGraphic" in2="BackgroundImageFix" result="shape"/>
<feGaussianBlur stdDeviation="150" result="effect1_foregroundBlur_136_1650"/>
</filter>
<filter id="filter3_f_136_1650" x="-266.394" y="3303.84" width="946.584" height="1090.04" filterUnits="userSpaceOnUse" color-interpolation-filters="sRGB">
<feFlood flood-opacity="0" result="BackgroundImageFix"/>
<feBlend mode="normal" in="SourceGraphic" in2="BackgroundImageFix" result="shape"/>
<feGaussianBlur stdDeviation="150" result="effect1_foregroundBlur_136_1650"/>
</filter>
<filter id="filter4_f_136_1650" x="-213.394" y="4302.84" width="946.584" height="1090.04" filterUnits="userSpaceOnUse" color-interpolation-filters="sRGB">
<feFlood flood-opacity="0" result="BackgroundImageFix"/>
<feBlend mode="normal" in="SourceGraphic" in2="BackgroundImageFix" result="shape"/>
<feGaussianBlur stdDeviation="150" result="effect1_foregroundBlur_136_1650"/>
</filter>
<filter id="filter5_f_136_1650" x="-364.394" y="6116.84" width="946.584" height="1090.04" filterUnits="userSpaceOnUse" color-interpolation-filters="sRGB">
<feFlood flood-opacity="0" result="BackgroundImageFix"/>
<feBlend mode="normal" in="SourceGraphic" in2="BackgroundImageFix" result="shape"/>
<feGaussianBlur stdDeviation="150" result="effect1_foregroundBlur_136_1650"/>
</filter>
<filter id="filter6_f_136_1650" x="-318.105" y="6869.99" width="1029.15" height="1019.68" filterUnits="userSpaceOnUse" color-interpolation-filters="sRGB">
<feFlood flood-opacity="0" result="BackgroundImageFix"/>
<feBlend mode="normal" in="SourceGraphic" in2="BackgroundImageFix" result="shape"/>
<feGaussianBlur stdDeviation="150" result="effect1_foregroundBlur_136_1650"/>
</filter>
<filter id="filter7_f_136_1650" x="-736.268" y="7564.23" width="1580.73" height="1559.08" filterUnits="userSpaceOnUse" color-interpolation-filters="sRGB">
<feFlood flood-opacity="0" result="BackgroundImageFix"/>
<feBlend mode="normal" in="SourceGraphic" in2="BackgroundImageFix" result="shape"/>
<feGaussianBlur stdDeviation="150" result="effect1_foregroundBlur_136_1650"/>
</filter>
<filter id="filter8_f_136_1650" x="-235.578" y="7284.8" width="1141.92" height="1129.96" filterUnits="userSpaceOnUse" color-interpolation-filters="sRGB">
<feFlood flood-opacity="0" result="BackgroundImageFix"/>
<feBlend mode="normal" in="SourceGraphic" in2="BackgroundImageFix" result="shape"/>
<feGaussianBlur stdDeviation="150" result="effect1_foregroundBlur_136_1650"/>
</filter>
<filter id="filter9_f_136_1650" x="-219.009" y="8371.57" width="821.469" height="1303.83" filterUnits="userSpaceOnUse" color-interpolation-filters="sRGB">
<feFlood flood-opacity="0" result="BackgroundImageFix"/>
<feBlend mode="normal" in="SourceGraphic" in2="BackgroundImageFix" result="shape"/>
<feGaussianBlur stdDeviation="150" result="effect1_foregroundBlur_136_1650"/>
</filter>
<filter id="filter10_f_136_1650" x="-417.575" y="9458.32" width="1000.86" height="1219.62" filterUnits="userSpaceOnUse" color-interpolation-filters="sRGB">
<feFlood flood-opacity="0" result="BackgroundImageFix"/>
<feBlend mode="normal" in="SourceGraphic" in2="BackgroundImageFix" result="shape"/>
<feGaussianBlur stdDeviation="150" result="effect1_foregroundBlur_136_1650"/>
</filter>
<filter id="filter11_f_136_1650" x="-527.116" y="10780.1" width="1287.78" height="867.271" filterUnits="userSpaceOnUse" color-interpolation-filters="sRGB">
<feFlood flood-opacity="0" result="BackgroundImageFix"/>
<feBlend mode="normal" in="SourceGraphic" in2="BackgroundImageFix" result="shape"/>
<feGaussianBlur stdDeviation="150" result="effect1_foregroundBlur_136_1650"/>
</filter>
<filter id="filter12_f_136_1650" x="-294.56" y="11131.9" width="1031.48" height="1198.74" filterUnits="userSpaceOnUse" color-interpolation-filters="sRGB">
<feFlood flood-opacity="0" result="BackgroundImageFix"/>
<feBlend mode="normal" in="SourceGraphic" in2="BackgroundImageFix" result="shape"/>
<feGaussianBlur stdDeviation="150" result="effect1_foregroundBlur_136_1650"/>
</filter>
<filter id="filter13_f_136_1650" x="-341.394" y="1887.84" width="946.584" height="1090.04" filterUnits="userSpaceOnUse" color-interpolation-filters="sRGB">
<feFlood flood-opacity="0" result="BackgroundImageFix"/>
<feBlend mode="normal" in="SourceGraphic" in2="BackgroundImageFix" result="shape"/>
<feGaussianBlur stdDeviation="150" result="effect1_foregroundBlur_136_1650"/>
</filter>
<filter id="filter14_f_136_1650" x="-302.394" y="4880.84" width="946.584" height="1090.04" filterUnits="userSpaceOnUse" color-interpolation-filters="sRGB">
<feFlood flood-opacity="0" result="BackgroundImageFix"/>
<feBlend mode="normal" in="SourceGraphic" in2="BackgroundImageFix" result="shape"/>
<feGaussianBlur stdDeviation="150" result="effect1_foregroundBlur_136_1650"/>
</filter>
<filter id="filter15_f_136_1650" x="-433.439" y="2641.07" width="1175.84" height="1689.8" filterUnits="userSpaceOnUse" color-interpolation-filters="sRGB">
<feFlood flood-opacity="0" result="BackgroundImageFix"/>
<feBlend mode="normal" in="SourceGraphic" in2="BackgroundImageFix" result="shape"/>
<feGaussianBlur stdDeviation="150" result="effect1_foregroundBlur_136_1650"/>
</filter>
<filter id="filter16_f_136_1650" x="-180.864" y="-210.186" width="850.347" height="775.53" filterUnits="userSpaceOnUse" color-interpolation-filters="sRGB">
<feFlood flood-opacity="0" result="BackgroundImageFix"/>
<feBlend mode="normal" in="SourceGraphic" in2="BackgroundImageFix" result="shape"/>
<feGaussianBlur stdDeviation="150" result="effect1_foregroundBlur_136_1650"/>
</filter>
<filter id="filter17_f_136_1650" x="-243.522" y="1595.38" width="1017.4" height="892.658" filterUnits="userSpaceOnUse" color-interpolation-filters="sRGB">
<feFlood flood-opacity="0" result="BackgroundImageFix"/>
<feBlend mode="normal" in="SourceGraphic" in2="BackgroundImageFix" result="shape"/>
<feGaussianBlur stdDeviation="150" result="effect1_foregroundBlur_136_1650"/>
</filter>
<filter id="filter18_f_136_1650" x="-360.957" y="1220.75" width="986.007" height="939.209" filterUnits="userSpaceOnUse" color-interpolation-filters="sRGB">
<feFlood flood-opacity="0" result="BackgroundImageFix"/>
<feBlend mode="normal" in="SourceGraphic" in2="BackgroundImageFix" result="shape"/>
<feGaussianBlur stdDeviation="150" result="effect1_foregroundBlur_136_1650"/>
</filter>
<filter id="filter19_f_136_1650" x="-266.957" y="1911.75" width="986.007" height="939.209" filterUnits="userSpaceOnUse" color-interpolation-filters="sRGB">
<feFlood flood-opacity="0" result="BackgroundImageFix"/>
<feBlend mode="normal" in="SourceGraphic" in2="BackgroundImageFix" result="shape"/>
<feGaussianBlur stdDeviation="150" result="effect1_foregroundBlur_136_1650"/>
</filter>
</defs>
</svg>
