<svg width="1440" height="9881" viewBox="0 0 1440 9881" fill="none" xmlns="http://www.w3.org/2000/svg">
<g filter="url(#filter0_f_101_3726)">
<path d="M1355.38 535.193C1302.54 663.855 1198.01 537.009 1004.21 457.416C810.407 377.823 600.714 375.624 653.554 246.962C706.393 118.301 906.337 78.5228 1100.14 158.116C1293.94 237.708 1408.22 406.532 1355.38 535.193Z" fill="#E27152"/>
</g>
<g filter="url(#filter1_f_101_3726)">
<path d="M1899.75 4888.07C1745.74 5083.43 1628.21 4813.99 1333.95 4582.01C1039.68 4350.04 680.114 4243.37 834.117 4048.01C988.12 3852.66 1351.51 3882.34 1645.78 4114.32C1940.05 4346.3 2053.75 4692.72 1899.75 4888.07Z" fill="#E27152" fill-opacity="0.49"/>
</g>
<g filter="url(#filter2_f_101_3726)">
<path d="M156.295 1261.17C258.631 1090.08 325.848 1259.93 505.649 1367.48C685.449 1475.03 909.747 1479.54 807.411 1650.63C705.074 1821.72 476.357 1873.23 296.557 1765.68C116.756 1658.13 53.9588 1432.25 156.295 1261.17Z" fill="#FFD3C7"/>
</g>
<g filter="url(#filter3_f_101_3726)">
<path d="M490.296 2743.17C592.632 2572.08 659.849 2741.93 839.649 2849.48C1019.45 2957.03 1243.75 2961.54 1141.41 3132.63C1039.08 3303.72 810.358 3355.23 630.557 3247.68C450.757 3140.13 387.959 2914.25 490.296 2743.17Z" fill="#FFD3C7"/>
</g>
<g filter="url(#filter4_f_101_3726)">
<path d="M-160.704 4892.17C-58.3681 4721.08 8.84891 4890.93 188.649 4998.48C368.45 5106.03 592.748 5110.54 490.411 5281.63C388.075 5452.72 159.358 5504.23 -20.4423 5396.68C-200.243 5289.13 -263.04 5063.25 -160.704 4892.17Z" fill="#FFD3C7"/>
</g>
<g filter="url(#filter5_f_101_3726)">
<ellipse cx="240.074" cy="6894.01" rx="551.23" ry="319.553" transform="rotate(-144.36 240.074 6894.01)" fill="#DBE7EC"/>
</g>
<g filter="url(#filter6_f_101_3726)">
<path d="M591.986 5733.94C526.701 5545.58 700.025 5603.26 897.983 5534.65C1095.94 5466.04 1243.57 5297.12 1308.86 5485.48C1374.14 5673.85 1266.59 5882.17 1068.63 5950.78C870.671 6019.39 657.271 5922.31 591.986 5733.94Z" fill="#FFD3C7"/>
</g>
<g filter="url(#filter7_f_101_3726)">
<path d="M453.986 2231.94C388.701 2043.58 562.025 2101.26 759.983 2032.65C957.942 1964.04 1105.57 1795.12 1170.86 1983.48C1236.14 2171.85 1128.59 2380.17 930.629 2448.78C732.671 2517.39 519.27 2420.31 453.986 2231.94Z" fill="#FFD3C7"/>
</g>
<g filter="url(#filter8_f_101_3726)">
<path d="M938.986 5162.94C873.701 4974.58 1047.03 5032.26 1244.98 4963.65C1442.94 4895.04 1590.57 4726.12 1655.86 4914.48C1721.14 5102.85 1613.59 5311.17 1415.63 5379.78C1217.67 5448.39 1004.27 5351.31 938.986 5162.94Z" fill="#FFD3C7"/>
</g>
<g filter="url(#filter9_f_101_3726)">
<ellipse cx="775.677" cy="167.379" rx="310.965" ry="195.206" transform="rotate(35.0457 775.677 167.379)" fill="white"/>
</g>
<g filter="url(#filter10_f_101_3726)">
<ellipse cx="1070.16" cy="925.571" rx="310.965" ry="195.206" transform="rotate(-32.0859 1070.16 925.571)" fill="white"/>
</g>
<g opacity="0.5" filter="url(#filter11_f_101_3726)">
<ellipse cx="673.571" cy="1526.26" rx="401.263" ry="327.838" transform="rotate(36.5179 673.571 1526.26)" fill="white"/>
</g>
<g filter="url(#filter12_f_101_3726)">
<ellipse cx="467.007" cy="4838.97" rx="551.23" ry="450.364" transform="rotate(106.778 467.007 4838.97)" fill="white"/>
</g>
<g filter="url(#filter13_f_101_3726)">
<ellipse cx="1259.32" cy="5594.77" rx="551.23" ry="450.364" transform="rotate(106.778 1259.32 5594.77)" fill="white"/>
</g>
<g filter="url(#filter14_f_101_3726)">
<ellipse cx="437.006" cy="3107.97" rx="551.23" ry="450.364" transform="rotate(36.5179 437.006 3107.97)" fill="white"/>
</g>
<g filter="url(#filter15_f_101_3726)">
<ellipse cx="1176.8" cy="2278.46" rx="487.216" ry="329.795" transform="rotate(-6.58041 1176.8 2278.46)" fill="#D0DBE0"/>
</g>
<g filter="url(#filter16_f_101_3726)">
<ellipse cx="759.652" cy="5216.12" rx="487.216" ry="119.074" transform="rotate(-6.58041 759.652 5216.12)" fill="#D0DBE0"/>
</g>
<g filter="url(#filter17_f_101_3726)">
<ellipse cx="561.528" cy="3869.47" rx="487.216" ry="329.795" transform="rotate(64.671 561.528 3869.47)" fill="#D0DBE0"/>
</g>
<g filter="url(#filter18_f_101_3726)">
<ellipse cx="443.48" cy="555.999" rx="487.216" ry="194.389" transform="rotate(-5.84554 443.48 555.999)" fill="#D0DBE0"/>
</g>
<g filter="url(#filter19_f_101_3726)">
<ellipse cx="1074.48" cy="7356" rx="487.216" ry="194.389" transform="rotate(-5.84554 1074.48 7356)" fill="#D0DBE0"/>
</g>
<g filter="url(#filter20_f_101_3726)">
<ellipse cx="197.151" cy="8953.34" rx="487.216" ry="782.461" transform="rotate(-5.84554 197.151 8953.34)" fill="#D0DBE0"/>
</g>
<g filter="url(#filter21_f_101_3726)">
<ellipse cx="1188.17" cy="9732.22" rx="487.216" ry="411.321" transform="rotate(-5.84554 1188.17 9732.22)" fill="#D0DBE0"/>
</g>
<g filter="url(#filter22_f_101_3726)">
<ellipse cx="957.316" cy="6779.77" rx="551.23" ry="450.364" transform="rotate(106.778 957.316 6779.77)" fill="white"/>
</g>
<g filter="url(#filter23_f_101_3726)">
<ellipse cx="337.315" cy="8223.77" rx="551.23" ry="450.364" transform="rotate(106.778 337.315 8223.77)" fill="white"/>
</g>
<g filter="url(#filter24_f_101_3726)">
<ellipse cx="937.36" cy="8944.45" rx="163.4" ry="450.364" transform="rotate(106.778 937.36 8944.45)" fill="white"/>
</g>
<g filter="url(#filter25_f_101_3726)">
<ellipse cx="417.82" cy="9492.29" rx="163.4" ry="450.364" transform="rotate(-81.3479 417.82 9492.29)" fill="white"/>
</g>
<g filter="url(#filter26_f_101_3726)">
<ellipse cx="1119.07" cy="6244.01" rx="551.23" ry="319.553" transform="rotate(106.778 1119.07 6244.01)" fill="#FFDDD3"/>
</g>
<g filter="url(#filter27_f_101_3726)">
<ellipse cx="177.903" cy="7562.48" rx="361.387" ry="209.499" transform="rotate(106.778 177.903 7562.48)" fill="#FFDDD3"/>
</g>
<g filter="url(#filter28_f_101_3726)">
<ellipse cx="844.341" cy="8408.29" rx="472.887" ry="407.165" transform="rotate(106.778 844.341 8408.29)" fill="#FFDDD3"/>
</g>
<defs>
<filter id="filter0_f_101_3726" x="345.268" y="-182.896" width="1323.01" height="1073.1" filterUnits="userSpaceOnUse" color-interpolation-filters="sRGB">
<feFlood flood-opacity="0" result="BackgroundImageFix"/>
<feBlend mode="normal" in="SourceGraphic" in2="BackgroundImageFix" result="shape"/>
<feGaussianBlur stdDeviation="150" result="effect1_foregroundBlur_101_3726"/>
</filter>
<filter id="filter1_f_101_3726" x="497.231" y="3618.9" width="1771.2" height="1636.46" filterUnits="userSpaceOnUse" color-interpolation-filters="sRGB">
<feFlood flood-opacity="0" result="BackgroundImageFix"/>
<feBlend mode="normal" in="SourceGraphic" in2="BackgroundImageFix" result="shape"/>
<feGaussianBlur stdDeviation="150" result="effect1_foregroundBlur_101_3726"/>
</filter>
<filter id="filter2_f_101_3726" x="-192.808" y="888.328" width="1325.93" height="1233.52" filterUnits="userSpaceOnUse" color-interpolation-filters="sRGB">
<feFlood flood-opacity="0" result="BackgroundImageFix"/>
<feBlend mode="normal" in="SourceGraphic" in2="BackgroundImageFix" result="shape"/>
<feGaussianBlur stdDeviation="150" result="effect1_foregroundBlur_101_3726"/>
</filter>
<filter id="filter3_f_101_3726" x="141.192" y="2370.33" width="1325.93" height="1233.52" filterUnits="userSpaceOnUse" color-interpolation-filters="sRGB">
<feFlood flood-opacity="0" result="BackgroundImageFix"/>
<feBlend mode="normal" in="SourceGraphic" in2="BackgroundImageFix" result="shape"/>
<feGaussianBlur stdDeviation="150" result="effect1_foregroundBlur_101_3726"/>
</filter>
<filter id="filter4_f_101_3726" x="-509.807" y="4519.33" width="1325.93" height="1233.52" filterUnits="userSpaceOnUse" color-interpolation-filters="sRGB">
<feFlood flood-opacity="0" result="BackgroundImageFix"/>
<feBlend mode="normal" in="SourceGraphic" in2="BackgroundImageFix" result="shape"/>
<feGaussianBlur stdDeviation="150" result="effect1_foregroundBlur_101_3726"/>
</filter>
<filter id="filter5_f_101_3726" x="-545.191" y="6180.95" width="1570.53" height="1426.13" filterUnits="userSpaceOnUse" color-interpolation-filters="sRGB">
<feFlood flood-opacity="0" result="BackgroundImageFix"/>
<feBlend mode="normal" in="SourceGraphic" in2="BackgroundImageFix" result="shape"/>
<feGaussianBlur stdDeviation="150" result="effect1_foregroundBlur_101_3726"/>
</filter>
<filter id="filter6_f_101_3726" x="277.983" y="5099.26" width="1349.96" height="1173.53" filterUnits="userSpaceOnUse" color-interpolation-filters="sRGB">
<feFlood flood-opacity="0" result="BackgroundImageFix"/>
<feBlend mode="normal" in="SourceGraphic" in2="BackgroundImageFix" result="shape"/>
<feGaussianBlur stdDeviation="150" result="effect1_foregroundBlur_101_3726"/>
</filter>
<filter id="filter7_f_101_3726" x="139.983" y="1597.26" width="1349.96" height="1173.53" filterUnits="userSpaceOnUse" color-interpolation-filters="sRGB">
<feFlood flood-opacity="0" result="BackgroundImageFix"/>
<feBlend mode="normal" in="SourceGraphic" in2="BackgroundImageFix" result="shape"/>
<feGaussianBlur stdDeviation="150" result="effect1_foregroundBlur_101_3726"/>
</filter>
<filter id="filter8_f_101_3726" x="624.984" y="4528.26" width="1349.96" height="1173.53" filterUnits="userSpaceOnUse" color-interpolation-filters="sRGB">
<feFlood flood-opacity="0" result="BackgroundImageFix"/>
<feBlend mode="normal" in="SourceGraphic" in2="BackgroundImageFix" result="shape"/>
<feGaussianBlur stdDeviation="150" result="effect1_foregroundBlur_101_3726"/>
</filter>
<filter id="filter9_f_101_3726" x="197.438" y="-372.26" width="1156.48" height="1079.28" filterUnits="userSpaceOnUse" color-interpolation-filters="sRGB">
<feFlood flood-opacity="0" result="BackgroundImageFix"/>
<feBlend mode="normal" in="SourceGraphic" in2="BackgroundImageFix" result="shape"/>
<feGaussianBlur stdDeviation="150" result="effect1_foregroundBlur_101_3726"/>
</filter>
<filter id="filter10_f_101_3726" x="486.945" y="391.822" width="1166.42" height="1067.5" filterUnits="userSpaceOnUse" color-interpolation-filters="sRGB">
<feFlood flood-opacity="0" result="BackgroundImageFix"/>
<feBlend mode="normal" in="SourceGraphic" in2="BackgroundImageFix" result="shape"/>
<feGaussianBlur stdDeviation="150" result="effect1_foregroundBlur_101_3726"/>
</filter>
<filter id="filter11_f_101_3726" x="-3.38602" y="870.676" width="1353.91" height="1311.16" filterUnits="userSpaceOnUse" color-interpolation-filters="sRGB">
<feFlood flood-opacity="0" result="BackgroundImageFix"/>
<feBlend mode="normal" in="SourceGraphic" in2="BackgroundImageFix" result="shape"/>
<feGaussianBlur stdDeviation="150" result="effect1_foregroundBlur_101_3726"/>
</filter>
<filter id="filter12_f_101_3726" x="-292.733" y="3995.3" width="1519.48" height="1687.33" filterUnits="userSpaceOnUse" color-interpolation-filters="sRGB">
<feFlood flood-opacity="0" result="BackgroundImageFix"/>
<feBlend mode="normal" in="SourceGraphic" in2="BackgroundImageFix" result="shape"/>
<feGaussianBlur stdDeviation="150" result="effect1_foregroundBlur_101_3726"/>
</filter>
<filter id="filter13_f_101_3726" x="499.576" y="4751.1" width="1519.48" height="1687.33" filterUnits="userSpaceOnUse" color-interpolation-filters="sRGB">
<feFlood flood-opacity="0" result="BackgroundImageFix"/>
<feBlend mode="normal" in="SourceGraphic" in2="BackgroundImageFix" result="shape"/>
<feGaussianBlur stdDeviation="150" result="effect1_foregroundBlur_101_3726"/>
</filter>
<filter id="filter14_f_101_3726" x="-380.834" y="2319.49" width="1635.68" height="1576.95" filterUnits="userSpaceOnUse" color-interpolation-filters="sRGB">
<feFlood flood-opacity="0" result="BackgroundImageFix"/>
<feBlend mode="normal" in="SourceGraphic" in2="BackgroundImageFix" result="shape"/>
<feGaussianBlur stdDeviation="150" result="effect1_foregroundBlur_101_3726"/>
</filter>
<filter id="filter15_f_101_3726" x="391.295" y="1646.06" width="1571.01" height="1264.8" filterUnits="userSpaceOnUse" color-interpolation-filters="sRGB">
<feFlood flood-opacity="0" result="BackgroundImageFix"/>
<feBlend mode="normal" in="SourceGraphic" in2="BackgroundImageFix" result="shape"/>
<feGaussianBlur stdDeviation="150" result="effect1_foregroundBlur_101_3726"/>
</filter>
<filter id="filter16_f_101_3726" x="-24.5507" y="4785.29" width="1568.4" height="861.67" filterUnits="userSpaceOnUse" color-interpolation-filters="sRGB">
<feFlood flood-opacity="0" result="BackgroundImageFix"/>
<feBlend mode="normal" in="SourceGraphic" in2="BackgroundImageFix" result="shape"/>
<feGaussianBlur stdDeviation="150" result="effect1_foregroundBlur_101_3726"/>
</filter>
<filter id="filter17_f_101_3726" x="-102.24" y="3106.92" width="1327.54" height="1525.1" filterUnits="userSpaceOnUse" color-interpolation-filters="sRGB">
<feFlood flood-opacity="0" result="BackgroundImageFix"/>
<feBlend mode="normal" in="SourceGraphic" in2="BackgroundImageFix" result="shape"/>
<feGaussianBlur stdDeviation="150" result="effect1_foregroundBlur_101_3726"/>
</filter>
<filter id="filter18_f_101_3726" x="-341.614" y="56.3081" width="1570.19" height="999.382" filterUnits="userSpaceOnUse" color-interpolation-filters="sRGB">
<feFlood flood-opacity="0" result="BackgroundImageFix"/>
<feBlend mode="normal" in="SourceGraphic" in2="BackgroundImageFix" result="shape"/>
<feGaussianBlur stdDeviation="150" result="effect1_foregroundBlur_101_3726"/>
</filter>
<filter id="filter19_f_101_3726" x="289.386" y="6856.31" width="1570.19" height="999.382" filterUnits="userSpaceOnUse" color-interpolation-filters="sRGB">
<feFlood flood-opacity="0" result="BackgroundImageFix"/>
<feBlend mode="normal" in="SourceGraphic" in2="BackgroundImageFix" result="shape"/>
<feGaussianBlur stdDeviation="150" result="effect1_foregroundBlur_101_3726"/>
</filter>
<filter id="filter20_f_101_3726" x="-594.115" y="7873.34" width="1582.53" height="2160" filterUnits="userSpaceOnUse" color-interpolation-filters="sRGB">
<feFlood flood-opacity="0" result="BackgroundImageFix"/>
<feBlend mode="normal" in="SourceGraphic" in2="BackgroundImageFix" result="shape"/>
<feGaussianBlur stdDeviation="150" result="effect1_foregroundBlur_101_3726"/>
</filter>
<filter id="filter21_f_101_3726" x="401.655" y="9020" width="1573.04" height="1424.44" filterUnits="userSpaceOnUse" color-interpolation-filters="sRGB">
<feFlood flood-opacity="0" result="BackgroundImageFix"/>
<feBlend mode="normal" in="SourceGraphic" in2="BackgroundImageFix" result="shape"/>
<feGaussianBlur stdDeviation="150" result="effect1_foregroundBlur_101_3726"/>
</filter>
<filter id="filter22_f_101_3726" x="197.575" y="5936.1" width="1519.48" height="1687.33" filterUnits="userSpaceOnUse" color-interpolation-filters="sRGB">
<feFlood flood-opacity="0" result="BackgroundImageFix"/>
<feBlend mode="normal" in="SourceGraphic" in2="BackgroundImageFix" result="shape"/>
<feGaussianBlur stdDeviation="150" result="effect1_foregroundBlur_101_3726"/>
</filter>
<filter id="filter23_f_101_3726" x="-422.425" y="7380.1" width="1519.48" height="1687.33" filterUnits="userSpaceOnUse" color-interpolation-filters="sRGB">
<feFlood flood-opacity="0" result="BackgroundImageFix"/>
<feBlend mode="normal" in="SourceGraphic" in2="BackgroundImageFix" result="shape"/>
<feGaussianBlur stdDeviation="150" result="effect1_foregroundBlur_101_3726"/>
</filter>
<filter id="filter24_f_101_3726" x="203.559" y="8441.03" width="1467.6" height="1006.84" filterUnits="userSpaceOnUse" color-interpolation-filters="sRGB">
<feFlood flood-opacity="0" result="BackgroundImageFix"/>
<feBlend mode="normal" in="SourceGraphic" in2="BackgroundImageFix" result="shape"/>
<feGaussianBlur stdDeviation="150" result="effect1_foregroundBlur_101_3726"/>
</filter>
<filter id="filter25_f_101_3726" x="-328.109" y="9017.07" width="1491.86" height="950.437" filterUnits="userSpaceOnUse" color-interpolation-filters="sRGB">
<feFlood flood-opacity="0" result="BackgroundImageFix"/>
<feBlend mode="normal" in="SourceGraphic" in2="BackgroundImageFix" result="shape"/>
<feGaussianBlur stdDeviation="150" result="effect1_foregroundBlur_101_3726"/>
</filter>
<filter id="filter26_f_101_3726" x="474.147" y="5408.16" width="1289.85" height="1671.71" filterUnits="userSpaceOnUse" color-interpolation-filters="sRGB">
<feFlood flood-opacity="0" result="BackgroundImageFix"/>
<feBlend mode="normal" in="SourceGraphic" in2="BackgroundImageFix" result="shape"/>
<feGaussianBlur stdDeviation="150" result="effect1_foregroundBlur_101_3726"/>
</filter>
<filter id="filter27_f_101_3726" x="-348.232" y="6911.17" width="1052.27" height="1302.61" filterUnits="userSpaceOnUse" color-interpolation-filters="sRGB">
<feFlood flood-opacity="0" result="BackgroundImageFix"/>
<feBlend mode="normal" in="SourceGraphic" in2="BackgroundImageFix" result="shape"/>
<feGaussianBlur stdDeviation="150" result="effect1_foregroundBlur_101_3726"/>
</filter>
<filter id="filter28_f_101_3726" x="131.187" y="7640.42" width="1426.31" height="1535.75" filterUnits="userSpaceOnUse" color-interpolation-filters="sRGB">
<feFlood flood-opacity="0" result="BackgroundImageFix"/>
<feBlend mode="normal" in="SourceGraphic" in2="BackgroundImageFix" result="shape"/>
<feGaussianBlur stdDeviation="150" result="effect1_foregroundBlur_101_3726"/>
</filter>
</defs>
</svg>
