<svg width="86" height="125" viewBox="0 0 86 125" fill="none" xmlns="http://www.w3.org/2000/svg">
<rect width="86" height="125" fill="#F0E5DF"/>
<rect x="7" y="7" width="72" height="111" fill="#F0E5DF" stroke="#726A66" stroke-width="2"/>
<path fill-rule="evenodd" clip-rule="evenodd" d="M30.2216 86.4822C30.2568 86.4315 30.2605 86.3647 30.231 86.3071C30.2015 86.2518 30.1437 86.2172 30.0807 86.2172C28.7471 86.2172 23.5511 86.2172 20.1222 86.2172C19.2937 86.2172 18.4991 85.8877 17.9135 85.3023C17.3279 84.717 16.9993 83.9219 17 83.0923C17.0035 78.7775 17.0097 71.2274 17.012 68.5972C17.0124 67.9845 17.1731 67.3825 17.478 66.8511C18.5777 64.9344 21.3528 60.0979 22.7977 57.5795C23.3584 56.6024 24.3987 56 25.5252 56H57.8058C58.485 56 59.1109 56.3687 59.44 56.9628C59.7693 57.5572 59.75 58.2831 59.3898 58.8592C58.1916 60.7745 56.6962 63.1652 55.9184 64.4088C55.8127 64.5779 55.8069 64.7911 55.9037 64.9655C56.0003 65.14 56.1839 65.2483 56.3835 65.2483C58.1075 65.2483 61.7185 65.2483 64.2484 65.2483C65.768 65.2483 67 66.4803 67 67.9999C67 71.7425 67 78.3747 67 81.9077C67 83.461 66.6062 84.9912 65.8553 86.3509C64.9093 88.0654 63.3743 90.4944 62.4062 92.2482C61.6487 93.6217 60.2044 94.4743 58.6362 94.4743C52.2448 94.4743 35.6861 94.4743 28.3401 94.4743C27.6458 94.4743 27.0083 94.0918 26.6832 93.4765C26.358 92.8635 26.3983 92.1214 26.788 91.5476C28.1088 89.5979 29.6945 87.2612 30.2216 86.4822ZM34.8908 85.0258C34.2572 85.0258 33.6631 85.3323 33.2981 85.8508C32.2912 87.2796 30.2333 90.1994 29.1977 91.6674C29.0767 91.8403 29.0614 92.0638 29.1582 92.2505C29.2548 92.4371 29.4472 92.5547 29.6574 92.5547C34.295 92.5547 52.287 92.5547 57.9358 92.5547C58.9772 92.5547 59.9389 91.997 60.4581 91.0936C61.1974 89.81 62.4672 87.9387 63.2286 86.6159C63.4174 86.2886 63.4169 85.883 63.227 85.5558C63.0374 85.2263 62.6871 85.0258 62.308 85.0258C56.5969 85.0258 39.2641 85.0258 34.8908 85.0258ZM26.9171 76.926C25.8519 76.9297 24.8474 77.4215 24.1913 78.2608C23.2552 79.4585 21.8718 81.2279 20.8446 82.5415C20.5888 82.8687 20.5421 83.3135 20.7241 83.6868C20.9062 84.0602 21.2853 84.2975 21.7008 84.2975C25.1716 84.2975 31.4752 84.2975 31.4752 84.2975C31.8204 83.5693 32.5544 83.1038 33.3606 83.1038C37.2264 83.1038 48.4849 83.1038 52.2515 83.1038C53.0244 83.1038 53.7416 82.7028 54.1451 82.0437C54.8618 80.873 56.0074 79.0015 56.7151 77.8456C56.8419 77.6384 56.8467 77.3786 56.7276 77.1671C56.6084 76.9553 56.3842 76.8244 56.1411 76.8253C51.2264 76.8424 32.6392 76.9062 26.9171 76.926ZM56.9407 81.5436C56.7448 81.857 56.7349 82.2557 56.9151 82.5784C57.0954 82.9033 57.4371 83.1038 57.8082 83.1038C59.4241 83.1038 61.7512 83.1038 63.2897 83.1038C63.7126 83.1038 64.1184 82.9356 64.4175 82.6383C64.7164 82.3387 64.8847 81.9331 64.8847 81.5091C64.8847 78.4454 64.8847 71.7706 64.8847 68.7318C64.8847 67.8686 64.1848 67.1687 63.3215 67.1687C58.3165 67.1687 42.7227 67.1687 37.7504 67.1687C36.7913 67.1687 35.8988 67.6588 35.3842 68.4684C34.4771 69.8954 33.4209 72.1706 32.5277 73.5759C32.3691 73.8255 32.359 74.1417 32.5014 74.4012C32.6438 74.6605 32.9162 74.8215 33.2119 74.8215C37.7055 74.8215 50.9204 74.8215 57.4927 74.8215C58.2253 74.8215 58.9 75.2186 59.2559 75.859C59.6117 76.4992 59.5921 77.2821 59.2052 77.9041C58.4341 79.1435 57.5784 80.5181 56.9407 81.5436ZM52.4757 65.2483C52.6857 65.2483 52.8813 65.1423 52.9961 64.9665C53.6024 64.038 55.5594 61.0409 56.6287 59.4036C56.7704 59.1862 56.7819 58.909 56.6584 58.6809C56.5349 58.4527 56.2964 58.3105 56.0369 58.3105C51.3248 58.3105 35.1164 58.3105 28.3738 58.3105C27.5836 58.3105 26.8256 58.6244 26.267 59.1832C25.7081 59.7419 25.3942 60.4998 25.3942 61.2898C25.3942 64.2555 25.3942 68.7915 25.3942 71.8263C25.3942 72.656 25.7342 73.4497 26.3347 74.0221C26.9351 74.5948 27.744 74.8964 28.5727 74.857C28.5729 74.857 28.963 74.857 28.963 74.857C28.9734 74.7727 32.1163 69.3467 33.8512 66.6868C34.4365 65.7894 35.4355 65.2483 36.5069 65.2483C40.5583 65.2483 50.5194 65.2483 52.4757 65.2483Z" fill="#E27152" fill-opacity="0.1"/>
<path d="M15.0889 25.0615C14.7861 25.0615 14.5068 25.0264 14.251 24.9561C13.9971 24.8838 13.749 24.7627 13.5068 24.5928V23.585H14.1221L14.2158 24.2061C14.3115 24.2803 14.4355 24.3398 14.5879 24.3848C14.7422 24.4297 14.9092 24.4521 15.0889 24.4521C15.2529 24.4521 15.3906 24.4297 15.502 24.3848C15.6152 24.3379 15.7012 24.2725 15.7598 24.1885C15.8184 24.1025 15.8477 24.0029 15.8477 23.8896C15.8477 23.7803 15.8213 23.6846 15.7686 23.6025C15.7158 23.5186 15.6289 23.4434 15.5078 23.377C15.3887 23.3086 15.2266 23.2441 15.0215 23.1836C14.6934 23.0918 14.4199 22.9873 14.2012 22.8701C13.9824 22.7529 13.8184 22.6123 13.709 22.4482C13.6016 22.2822 13.5479 22.085 13.5479 21.8564C13.5479 21.6279 13.6104 21.4258 13.7354 21.25C13.8623 21.0723 14.0371 20.9326 14.2598 20.8311C14.4844 20.7295 14.7422 20.6777 15.0332 20.6758C15.3574 20.6719 15.6436 20.7119 15.8916 20.7959C16.1396 20.8799 16.3516 20.9932 16.5273 21.1357V22.0732H15.9268L15.8184 21.4844C15.7402 21.4316 15.6377 21.3867 15.5107 21.3496C15.3838 21.3125 15.2373 21.2939 15.0713 21.2939C14.9287 21.2939 14.8027 21.3164 14.6934 21.3613C14.584 21.4043 14.498 21.4678 14.4355 21.5518C14.373 21.6357 14.3418 21.7363 14.3418 21.8535C14.3418 21.9551 14.3691 22.0439 14.4238 22.1201C14.4785 22.1963 14.5703 22.2666 14.6992 22.3311C14.8281 22.3955 15.0029 22.4619 15.2236 22.5303C15.6904 22.6572 16.0439 22.8291 16.2842 23.0459C16.5264 23.2607 16.6475 23.54 16.6475 23.8838C16.6475 24.1221 16.582 24.3301 16.4512 24.5078C16.3223 24.6836 16.1406 24.8203 15.9062 24.918C15.6738 25.0137 15.4014 25.0615 15.0889 25.0615ZM17.0166 25V24.5195L17.4766 24.4316V21.3057L17.0166 21.2178V20.7344H20.2949V21.8594H19.6797L19.6357 21.3467H18.2734V22.4863H19.7441V23.1045H18.2734V24.3906H19.7119L19.7559 23.8662H20.3652V25H17.0166ZM20.8486 25V24.5195L21.3086 24.4316V21.3057L20.8486 21.2178V20.7344H22.8467C23.1689 20.7344 23.4453 20.7842 23.6758 20.8838C23.9082 20.9834 24.085 21.127 24.2061 21.3145C24.3291 21.502 24.3906 21.7266 24.3906 21.9883C24.3906 22.2383 24.3301 22.459 24.209 22.6504C24.0879 22.8418 23.918 22.9922 23.6992 23.1016C23.4824 23.209 23.2305 23.2637 22.9434 23.2656L22.1055 23.2686V24.4316L22.5654 24.5195V25H20.8486ZM23.6084 25L22.8408 23.0957L23.5732 22.9463L24.2295 24.4375L24.5781 24.5137V25H23.6084ZM22.1055 22.6533H22.8203C23.084 22.6533 23.2793 22.5996 23.4062 22.4922C23.5332 22.3828 23.5967 22.2246 23.5967 22.0176C23.5967 21.8145 23.5342 21.6523 23.4092 21.5312C23.2842 21.4102 23.0967 21.3496 22.8467 21.3496H22.1055V22.6533ZM26.4004 25L25.0146 21.2646L24.6455 21.2178V20.7344H26.2686V21.2178L25.8818 21.2793L26.7432 23.8369L26.8164 24.0918H26.834L26.9072 23.8428L27.7744 21.2764L27.3291 21.2178V20.7344H28.8906V21.2178L28.5127 21.2646L27.1973 25H26.4004ZM29.1865 25V24.5195L29.6465 24.4316V21.3057L29.1865 21.2178V20.7344H32.4648V21.8594H31.8496L31.8057 21.3467H30.4434V22.4863H31.9141V23.1045H30.4434V24.3906H31.8818L31.9258 23.8662H32.5352V25H29.1865ZM33.0186 25V24.5195L33.4785 24.4316V21.3057L33.0186 21.2178V20.7344H35.0166C35.3389 20.7344 35.6152 20.7842 35.8457 20.8838C36.0781 20.9834 36.2549 21.127 36.376 21.3145C36.499 21.502 36.5605 21.7266 36.5605 21.9883C36.5605 22.2383 36.5 22.459 36.3789 22.6504C36.2578 22.8418 36.0879 22.9922 35.8691 23.1016C35.6523 23.209 35.4004 23.2637 35.1133 23.2656L34.2754 23.2686V24.4316L34.7354 24.5195V25H33.0186ZM35.7783 25L35.0107 23.0957L35.7432 22.9463L36.3994 24.4375L36.748 24.5137V25H35.7783ZM34.2754 22.6533H34.9902C35.2539 22.6533 35.4492 22.5996 35.5762 22.4922C35.7031 22.3828 35.7666 22.2246 35.7666 22.0176C35.7666 21.8145 35.7041 21.6523 35.5791 21.5312C35.4541 21.4102 35.2666 21.3496 35.0166 21.3496H34.2754V22.6533ZM37.1318 25V24.5195L37.5918 24.4316V21.3057L37.1318 21.2178V20.7344H37.5918H38.3887H38.8955V21.2178L38.3887 21.3057V24.3906H39.6572L39.7041 23.7549H40.3135V25H37.1318ZM40.6533 25V24.5195L41.1133 24.4316V21.3057L40.6533 21.2178V20.7344H43.9316V21.8594H43.3164L43.2725 21.3467H41.9102V22.4863H43.3809V23.1045H41.9102V24.3906H43.3486L43.3926 23.8662H44.002V25H40.6533ZM46.1846 25.0615C45.8818 25.0615 45.6025 25.0264 45.3467 24.9561C45.0928 24.8838 44.8447 24.7627 44.6025 24.5928V23.585H45.2178L45.3115 24.2061C45.4072 24.2803 45.5312 24.3398 45.6836 24.3848C45.8379 24.4297 46.0049 24.4521 46.1846 24.4521C46.3486 24.4521 46.4863 24.4297 46.5977 24.3848C46.7109 24.3379 46.7969 24.2725 46.8555 24.1885C46.9141 24.1025 46.9434 24.0029 46.9434 23.8896C46.9434 23.7803 46.917 23.6846 46.8643 23.6025C46.8115 23.5186 46.7246 23.4434 46.6035 23.377C46.4844 23.3086 46.3223 23.2441 46.1172 23.1836C45.7891 23.0918 45.5156 22.9873 45.2969 22.8701C45.0781 22.7529 44.9141 22.6123 44.8047 22.4482C44.6973 22.2822 44.6436 22.085 44.6436 21.8564C44.6436 21.6279 44.7061 21.4258 44.8311 21.25C44.958 21.0723 45.1328 20.9326 45.3555 20.8311C45.5801 20.7295 45.8379 20.6777 46.1289 20.6758C46.4531 20.6719 46.7393 20.7119 46.9873 20.7959C47.2354 20.8799 47.4473 20.9932 47.623 21.1357V22.0732H47.0225L46.9141 21.4844C46.8359 21.4316 46.7334 21.3867 46.6064 21.3496C46.4795 21.3125 46.333 21.2939 46.167 21.2939C46.0244 21.2939 45.8984 21.3164 45.7891 21.3613C45.6797 21.4043 45.5938 21.4678 45.5312 21.5518C45.4688 21.6357 45.4375 21.7363 45.4375 21.8535C45.4375 21.9551 45.4648 22.0439 45.5195 22.1201C45.5742 22.1963 45.666 22.2666 45.7949 22.3311C45.9238 22.3955 46.0986 22.4619 46.3193 22.5303C46.7861 22.6572 47.1396 22.8291 47.3799 23.0459C47.6221 23.2607 47.7432 23.54 47.7432 23.8838C47.7432 24.1221 47.6777 24.3301 47.5469 24.5078C47.418 24.6836 47.2363 24.8203 47.002 24.918C46.7695 25.0137 46.4971 25.0615 46.1846 25.0615ZM49.8115 25.0615C49.5088 25.0615 49.2295 25.0264 48.9736 24.9561C48.7197 24.8838 48.4717 24.7627 48.2295 24.5928V23.585H48.8447L48.9385 24.2061C49.0342 24.2803 49.1582 24.3398 49.3105 24.3848C49.4648 24.4297 49.6318 24.4521 49.8115 24.4521C49.9756 24.4521 50.1133 24.4297 50.2246 24.3848C50.3379 24.3379 50.4238 24.2725 50.4824 24.1885C50.541 24.1025 50.5703 24.0029 50.5703 23.8896C50.5703 23.7803 50.5439 23.6846 50.4912 23.6025C50.4385 23.5186 50.3516 23.4434 50.2305 23.377C50.1113 23.3086 49.9492 23.2441 49.7441 23.1836C49.416 23.0918 49.1426 22.9873 48.9238 22.8701C48.7051 22.7529 48.541 22.6123 48.4316 22.4482C48.3242 22.2822 48.2705 22.085 48.2705 21.8564C48.2705 21.6279 48.333 21.4258 48.458 21.25C48.585 21.0723 48.7598 20.9326 48.9824 20.8311C49.207 20.7295 49.4648 20.6777 49.7559 20.6758C50.0801 20.6719 50.3662 20.7119 50.6143 20.7959C50.8623 20.8799 51.0742 20.9932 51.25 21.1357V22.0732H50.6494L50.541 21.4844C50.4629 21.4316 50.3604 21.3867 50.2334 21.3496C50.1064 21.3125 49.96 21.2939 49.7939 21.2939C49.6514 21.2939 49.5254 21.3164 49.416 21.3613C49.3066 21.4043 49.2207 21.4678 49.1582 21.5518C49.0957 21.6357 49.0645 21.7363 49.0645 21.8535C49.0645 21.9551 49.0918 22.0439 49.1465 22.1201C49.2012 22.1963 49.293 22.2666 49.4219 22.3311C49.5508 22.3955 49.7256 22.4619 49.9463 22.5303C50.4131 22.6572 50.7666 22.8291 51.0068 23.0459C51.249 23.2607 51.3701 23.54 51.3701 23.8838C51.3701 24.1221 51.3047 24.3301 51.1738 24.5078C51.0449 24.6836 50.8633 24.8203 50.6289 24.918C50.3965 25.0137 50.124 25.0615 49.8115 25.0615ZM54.915 25.0615C54.6123 25.0615 54.333 25.0264 54.0771 24.9561C53.8232 24.8838 53.5752 24.7627 53.333 24.5928V23.585H53.9482L54.042 24.2061C54.1377 24.2803 54.2617 24.3398 54.4141 24.3848C54.5684 24.4297 54.7354 24.4521 54.915 24.4521C55.0791 24.4521 55.2168 24.4297 55.3281 24.3848C55.4414 24.3379 55.5273 24.2725 55.5859 24.1885C55.6445 24.1025 55.6738 24.0029 55.6738 23.8896C55.6738 23.7803 55.6475 23.6846 55.5947 23.6025C55.542 23.5186 55.4551 23.4434 55.334 23.377C55.2148 23.3086 55.0527 23.2441 54.8477 23.1836C54.5195 23.0918 54.2461 22.9873 54.0273 22.8701C53.8086 22.7529 53.6445 22.6123 53.5352 22.4482C53.4277 22.2822 53.374 22.085 53.374 21.8564C53.374 21.6279 53.4365 21.4258 53.5615 21.25C53.6885 21.0723 53.8633 20.9326 54.0859 20.8311C54.3105 20.7295 54.5684 20.6777 54.8594 20.6758C55.1836 20.6719 55.4697 20.7119 55.7178 20.7959C55.9658 20.8799 56.1777 20.9932 56.3535 21.1357V22.0732H55.7529L55.6445 21.4844C55.5664 21.4316 55.4639 21.3867 55.3369 21.3496C55.21 21.3125 55.0635 21.2939 54.8975 21.2939C54.7549 21.2939 54.6289 21.3164 54.5195 21.3613C54.4102 21.4043 54.3242 21.4678 54.2617 21.5518C54.1992 21.6357 54.168 21.7363 54.168 21.8535C54.168 21.9551 54.1953 22.0439 54.25 22.1201C54.3047 22.1963 54.3965 22.2666 54.5254 22.3311C54.6543 22.3955 54.8291 22.4619 55.0498 22.5303C55.5166 22.6572 55.8701 22.8291 56.1104 23.0459C56.3525 23.2607 56.4736 23.54 56.4736 23.8838C56.4736 24.1221 56.4082 24.3301 56.2773 24.5078C56.1484 24.6836 55.9668 24.8203 55.7324 24.918C55.5 25.0137 55.2275 25.0615 54.915 25.0615ZM57.8418 25V24.5195L58.3018 24.4316V21.3467H57.4844L57.4287 21.874H56.8281V20.7344H60.5781V21.874H59.9746L59.9189 21.3467H59.0986V24.4316L59.5615 24.5195V25H57.8418ZM60.3174 25V24.5195L60.625 24.4756L62.0107 20.7344H62.8047L64.1787 24.4756L64.4834 24.5195V25H63.0801V24.5195L63.3818 24.4639L63.1738 23.8369H61.6299L61.4219 24.4639L61.7207 24.5195V25H60.3174ZM61.8262 23.2363H62.9775L62.4531 21.7188L62.4121 21.5957H62.3945L62.3506 21.7246L61.8262 23.2363ZM66.6279 25.0615C66.21 25.0615 65.8496 24.9736 65.5469 24.7979C65.2461 24.6221 65.0146 24.375 64.8525 24.0566C64.6904 23.7363 64.6094 23.3613 64.6094 22.9316V22.8057C64.6094 22.3916 64.6885 22.0244 64.8467 21.7041C65.0049 21.3838 65.2314 21.1318 65.5264 20.9482C65.8213 20.7646 66.1729 20.6729 66.5811 20.6729C66.8682 20.6729 67.1357 20.7148 67.3838 20.7988C67.6318 20.8809 67.8506 21.002 68.04 21.1621V22.1699H67.4395L67.3574 21.5166C67.293 21.4697 67.2217 21.4297 67.1436 21.3965C67.0674 21.3633 66.9834 21.3379 66.8916 21.3203C66.8018 21.3027 66.7041 21.2939 66.5986 21.2939C66.3486 21.2939 66.1348 21.3564 65.957 21.4814C65.7793 21.6045 65.6426 21.7783 65.5469 22.0029C65.4531 22.2275 65.4062 22.4932 65.4062 22.7998V22.9316C65.4062 23.2422 65.4561 23.5107 65.5557 23.7373C65.6553 23.9639 65.7969 24.1387 65.9805 24.2617C66.166 24.3828 66.3867 24.4434 66.6426 24.4434C66.7695 24.4434 66.8955 24.4297 67.0205 24.4023C67.1455 24.373 67.2568 24.335 67.3545 24.2881L67.4395 23.6875H68.0342V24.6865C67.8701 24.7939 67.667 24.8838 67.4248 24.9561C67.1826 25.0264 66.917 25.0615 66.6279 25.0615ZM69.5752 23.916L69.1621 23.4385L71.2363 21.2676L71.2422 21.2559L70.8438 21.2178V20.7344H72.5166V21.2178L72.1152 21.2969L69.5752 23.916ZM68.4678 25V24.5195L68.9277 24.4316V21.3057L68.4678 21.2178V20.7344H70.167V21.2178L69.7246 21.3057V24.4316L70.167 24.5195V25H68.4678ZM70.9375 25V24.5195L71.3271 24.4814V24.4785L70.2227 22.9551L70.7383 22.4131L72.2559 24.4463L72.6689 24.5195V25H70.9375Z" fill="#757270"/>
<line x1="17" y1="35.5" x2="68" y2="35.5" stroke="#484442" stroke-opacity="0.5"/>
<path d="M34.082 58V57.5195L34.542 57.4316V54.3057L34.082 54.2178V53.7344H34.542H35.9658C36.4561 53.7344 36.8389 53.832 37.1143 54.0273C37.3896 54.2207 37.5273 54.5117 37.5273 54.9004C37.5273 55.0957 37.4727 55.2705 37.3633 55.4248C37.2559 55.5791 37.1035 55.6943 36.9062 55.7705C37.0762 55.8076 37.2188 55.874 37.334 55.9697C37.4492 56.0654 37.5361 56.1816 37.5947 56.3184C37.6553 56.4551 37.6855 56.6045 37.6855 56.7666C37.6855 57.1709 37.5518 57.4775 37.2842 57.6865C37.0186 57.8955 36.6455 58 36.165 58H34.082ZM35.3389 57.3877H36.165C36.3994 57.3877 36.5781 57.335 36.7012 57.2295C36.8262 57.124 36.8887 56.9697 36.8887 56.7666C36.8887 56.6221 36.8652 56.5 36.8184 56.4004C36.7734 56.2988 36.7021 56.2217 36.6045 56.1689C36.5088 56.1162 36.3857 56.0898 36.2354 56.0898H35.3389V57.3877ZM35.3389 55.5273H36.0215C36.2461 55.5273 36.4199 55.4775 36.543 55.3779C36.668 55.2783 36.7305 55.1357 36.7305 54.9502C36.7305 54.7451 36.666 54.5938 36.5371 54.4961C36.4082 54.3984 36.2178 54.3496 35.9658 54.3496H35.3389V55.5273ZM40.0908 58.0615C39.7607 58.0615 39.4697 58.0039 39.2178 57.8887C38.9678 57.7715 38.7725 57.6025 38.6318 57.3818C38.4912 57.1592 38.4209 56.8906 38.4209 56.5762V54.3057L37.9639 54.2178V53.7344H39.6777V54.2178L39.2178 54.3057V56.5762C39.2178 56.7695 39.2529 56.9307 39.3232 57.0596C39.3955 57.1885 39.4971 57.2852 39.6279 57.3496C39.7588 57.4141 39.9131 57.4463 40.0908 57.4463C40.2725 57.4463 40.4297 57.415 40.5625 57.3525C40.6953 57.2881 40.7969 57.1914 40.8672 57.0625C40.9395 56.9336 40.9756 56.7715 40.9756 56.5762V54.3057L40.5156 54.2178V53.7344H42.2324V54.2178L41.7725 54.3057V56.5762C41.7725 56.8926 41.7021 57.1621 41.5615 57.3848C41.4209 57.6055 41.2246 57.7734 40.9727 57.8887C40.7207 58.0039 40.4268 58.0615 40.0908 58.0615ZM42.543 58V57.5195L43.0029 57.4316V54.3057L42.543 54.2178V53.7344H44.2598V54.2178L43.7998 54.3057V57.4316L44.2598 57.5195V58H42.543ZM44.6172 58V57.5195L45.0771 57.4316V54.3057L44.6172 54.2178V53.7344H45.0771H45.874H46.3809V54.2178L45.874 54.3057V57.3906H47.1426L47.1895 56.7549H47.7988V58H44.6172ZM48.1387 58V57.5195L48.6016 57.4229V54.3145L48.1387 54.2178V53.7344H48.6016H49.9697C50.3506 53.7344 50.6846 53.8242 50.9717 54.0039C51.2607 54.1836 51.4863 54.4307 51.6484 54.7451C51.8105 55.0596 51.8916 55.4209 51.8916 55.8291V55.9082C51.8916 56.3105 51.8115 56.6699 51.6514 56.9863C51.4932 57.3008 51.2705 57.5488 50.9834 57.7305C50.6982 57.9102 50.3652 58 49.9844 58H48.1387ZM49.3984 57.3877H49.9434C50.1875 57.3877 50.3945 57.3232 50.5645 57.1943C50.7344 57.0654 50.8643 56.8896 50.9541 56.667C51.0459 56.4443 51.0918 56.1914 51.0918 55.9082V55.8232C51.0918 55.5361 51.0459 55.2822 50.9541 55.0615C50.8643 54.8389 50.7344 54.665 50.5645 54.54C50.3945 54.4131 50.1875 54.3496 49.9434 54.3496H49.3984V57.3877Z" fill="#757270" fill-opacity="0.7"/>
<path d="M31.3398 78V77.5195L31.8027 77.4229V74.3145L31.3398 74.2178V73.7344H31.8027H33.1709C33.5518 73.7344 33.8857 73.8242 34.1729 74.0039C34.4619 74.1836 34.6875 74.4307 34.8496 74.7451C35.0117 75.0596 35.0928 75.4209 35.0928 75.8291V75.9082C35.0928 76.3105 35.0127 76.6699 34.8525 76.9863C34.6943 77.3008 34.4717 77.5488 34.1846 77.7305C33.8994 77.9102 33.5664 78 33.1855 78H31.3398ZM32.5996 77.3877H33.1445C33.3887 77.3877 33.5957 77.3232 33.7656 77.1943C33.9355 77.0654 34.0654 76.8896 34.1553 76.667C34.2471 76.4443 34.293 76.1914 34.293 75.9082V75.8232C34.293 75.5361 34.2471 75.2822 34.1553 75.0615C34.0654 74.8389 33.9355 74.665 33.7656 74.54C33.5957 74.4131 33.3887 74.3496 33.1445 74.3496H32.5996V77.3877ZM35.4766 78V77.5195L35.9365 77.4316V74.3057L35.4766 74.2178V73.7344H38.7549V74.8594H38.1396L38.0957 74.3467H36.7334V75.4863H38.2041V76.1045H36.7334V77.3906H38.1719L38.2158 76.8662H38.8252V78H35.4766ZM39.3086 78V77.5195L39.7686 77.4316V74.3057L39.3086 74.2178V73.7344H39.7686H41.3242C41.6465 73.7344 41.9229 73.791 42.1533 73.9043C42.3857 74.0156 42.5645 74.1729 42.6895 74.376C42.8145 74.5771 42.877 74.8115 42.877 75.0791C42.877 75.3486 42.8145 75.584 42.6895 75.7852C42.5645 75.9844 42.3857 76.1396 42.1533 76.251C41.9229 76.3623 41.6465 76.418 41.3242 76.418H40.5654V77.4316L41.0254 77.5195V78H39.3086ZM40.5654 75.8027H41.3242C41.5742 75.8027 41.7627 75.7354 41.8896 75.6006C42.0166 75.4658 42.0801 75.2939 42.0801 75.085C42.0801 74.874 42.0166 74.6992 41.8896 74.5605C41.7627 74.4199 41.5742 74.3496 41.3242 74.3496H40.5654V75.8027ZM43.1758 78V77.5195L43.6357 77.4316V74.3057L43.1758 74.2178V73.7344H43.6357H44.4326H44.9395V74.2178L44.4326 74.3057V77.3906H45.7012L45.748 76.7549H46.3574V78H43.1758ZM48.5078 78.0615C48.2227 78.0615 47.9639 78.0088 47.7314 77.9033C47.499 77.7959 47.2988 77.6455 47.1309 77.4521C46.9648 77.2568 46.8369 77.0283 46.7471 76.7666C46.6572 76.5029 46.6123 76.2139 46.6123 75.8994V75.835C46.6123 75.5225 46.6572 75.2354 46.7471 74.9736C46.8369 74.71 46.9648 74.4814 47.1309 74.2881C47.2988 74.0928 47.498 73.9414 47.7285 73.834C47.9609 73.7266 48.2197 73.6729 48.5049 73.6729C48.7959 73.6729 49.0576 73.7266 49.29 73.834C49.5244 73.9414 49.7256 74.0928 49.8936 74.2881C50.0615 74.4814 50.1895 74.71 50.2773 74.9736C50.3672 75.2354 50.4121 75.5225 50.4121 75.835V75.8994C50.4121 76.2139 50.3672 76.5029 50.2773 76.7666C50.1895 77.0283 50.0615 77.2568 49.8936 77.4521C49.7275 77.6455 49.5273 77.7959 49.293 77.9033C49.0586 78.0088 48.7969 78.0615 48.5078 78.0615ZM48.5078 77.4346C48.7578 77.4346 48.9648 77.3711 49.1289 77.2441C49.293 77.1152 49.415 76.9355 49.4951 76.7051C49.5771 76.4746 49.6182 76.2061 49.6182 75.8994V75.8291C49.6182 75.5264 49.5771 75.2607 49.4951 75.0322C49.4131 74.8037 49.2891 74.625 49.123 74.4961C48.959 74.3672 48.7529 74.3027 48.5049 74.3027C48.2627 74.3027 48.0605 74.3672 47.8984 74.4961C47.7363 74.623 47.6143 74.8008 47.5322 75.0293C47.4521 75.2578 47.4121 75.5244 47.4121 75.8291V75.8994C47.4121 76.2041 47.4521 76.4727 47.5322 76.7051C47.6143 76.9355 47.7363 77.1152 47.8984 77.2441C48.0625 77.3711 48.2656 77.4346 48.5078 77.4346ZM51.7861 78V77.5195L52.2461 77.4316V76.5176L50.9717 74.2764L50.5732 74.2178V73.7344H52.2256V74.2178L51.8477 74.2705L52.5977 75.7002L52.6621 75.832L52.6768 75.8291L52.7412 75.7031L53.5615 74.2705L53.0869 74.2178V73.7344H54.707V74.2178L54.2969 74.2764L53.04 76.4561V77.4316L53.5029 77.5195V78H51.7861Z" fill="#757270" fill-opacity="0.7"/>
<path d="M32.8779 98V97.5195L33.3379 97.4316V94.3057L32.8779 94.2178V93.7344H33.3379H34.1348H34.6416V94.2178L34.1348 94.3057V97.3906H35.4033L35.4502 96.7549H36.0596V98H32.8779ZM36.3994 98V97.5195L36.8594 97.4316V94.3057L36.3994 94.2178V93.7344H39.6777V94.8594H39.0625L39.0186 94.3467H37.6562V95.4863H39.127V96.1045H37.6562V97.3906H39.0947L39.1387 96.8662H39.748V98H36.3994ZM40.1904 98V97.5195L40.498 97.4756L41.8838 93.7344H42.6777L44.0518 97.4756L44.3564 97.5195V98H42.9531V97.5195L43.2549 97.4639L43.0469 96.8369H41.5029L41.2949 97.4639L41.5938 97.5195V98H40.1904ZM41.6992 96.2363H42.8506L42.3262 94.7188L42.2852 94.5957H42.2676L42.2236 94.7246L41.6992 96.2363ZM44.6729 98V97.5195L45.1328 97.4316V94.3057L44.6729 94.2178V93.7344H46.6709C46.9932 93.7344 47.2695 93.7842 47.5 93.8838C47.7324 93.9834 47.9092 94.127 48.0303 94.3145C48.1533 94.502 48.2148 94.7266 48.2148 94.9883C48.2148 95.2383 48.1543 95.459 48.0332 95.6504C47.9121 95.8418 47.7422 95.9922 47.5234 96.1016C47.3066 96.209 47.0547 96.2637 46.7676 96.2656L45.9297 96.2686V97.4316L46.3896 97.5195V98H44.6729ZM47.4326 98L46.665 96.0957L47.3975 95.9463L48.0537 97.4375L48.4023 97.5137V98H47.4326ZM45.9297 95.6533H46.6445C46.9082 95.6533 47.1035 95.5996 47.2305 95.4922C47.3574 95.3828 47.4209 95.2246 47.4209 95.0176C47.4209 94.8145 47.3584 94.6523 47.2334 94.5312C47.1084 94.4102 46.9209 94.3496 46.6709 94.3496H45.9297V95.6533ZM48.7891 98V97.5195L49.2461 97.4316V94.3057L48.7891 94.2178V93.7344H49.2461H50.0547L51.9619 96.7695L51.9795 96.7666V94.3057L51.4375 94.2178V93.7344H52.6943H53.1543V94.2178L52.6943 94.3057V98H51.9297L49.9814 94.9854L49.9639 94.9883V97.4316L50.5059 97.5195V98H48.7891Z" fill="#757270" fill-opacity="0.7"/>
</svg>
