<svg width="400" height="400" viewBox="0 0 400 400" fill="none" xmlns="http://www.w3.org/2000/svg">
<path d="M43.092 294.36L57.4676 302.66L217.618 25.2802L203.242 16.9802L43.092 294.36Z" fill="white"/>
<path d="M360.1 272.2H39.8V288.8H360.1V272.2Z" fill="white"/>
<path d="M46.1379 281.526L206.348 374.026L214.648 359.65L54.4379 267.15L46.1379 281.526Z" fill="white"/>
<path d="M185.312 40.4467L345.522 132.947L353.822 118.571L193.612 26.0711L185.312 40.4467Z" fill="white"/>
<path d="M46.1823 118.508L54.4823 132.883L214.692 40.3835L206.392 26.0079L46.1823 118.508Z" fill="white"/>
<path d="M182.418 25.2832L342.568 302.663L356.944 294.363L196.794 16.9832L182.418 25.2832Z" fill="white"/>
<path d="M69.1 107.5H52.5V292.5H69.1V107.5Z" fill="white"/>
<path d="M347.5 107.5H330.9V292.5H347.5V107.5Z" fill="white"/>
<path d="M196.272 354.442L203.522 366.999L342.861 286.549L335.611 273.992L196.272 354.442Z" fill="white"/>
<path d="M369.5 297.9C359.9 314.6 338.5 320.3 321.8 310.7C305.1 301.1 299.4 279.7 309 263C318.6 246.3 340 240.6 356.7 250.2C373.5 259.9 379.2 281.2 369.5 297.9Z" fill="white"/>
<path d="M90.9 137C81.3 153.7 59.9 159.4 43.2 149.8C26.5 140.2 20.8 118.8 30.4 102.1C40 85.4 61.4 79.7 78.1 89.3C94.8 99 100.5 120.3 90.9 137Z" fill="white"/>
<path d="M30.5 297.9C20.9 281.2 26.6 259.9 43.3 250.2C60 240.6 81.3 246.3 91 263C100.6 279.7 94.9 301 78.2 310.7C61.4 320.3 40.1 314.6 30.5 297.9Z" fill="white"/>
<path d="M309.1 137C299.5 120.3 305.2 99 321.9 89.3C338.6 79.7 359.9 85.4 369.6 102.1C379.2 118.8 373.5 140.1 356.8 149.8C340.1 159.4 318.7 153.7 309.1 137Z" fill="white"/>
<path d="M200 395.8C180.7 395.8 165.1 380.2 165.1 360.9C165.1 341.6 180.7 326 200 326C219.3 326 234.9 341.6 234.9 360.9C234.9 380.1 219.3 395.8 200 395.8Z" fill="white"/>
<path d="M200 74C180.7 74 165.1 58.4 165.1 39.1C165.1 19.8 180.7 4.2 200 4.2C219.3 4.2 234.9 19.8 234.9 39.1C234.9 58.4 219.3 74 200 74Z" fill="white"/>
</svg>
