<svg version="1.2" baseProfile="tiny-ps" xmlns="http://www.w3.org/2000/svg" viewBox="0 0 492 437" width="492" height="437">
	<title>React-icon-svg</title>
	<style>
		tspan { white-space:pre }
		.shp0 { fill: #ffffff } 
		.shp1 { fill: #61dafb } 
	</style>
	<g id="Layer">
		<path id="Layer" fill-rule="evenodd" class="shp0" d="M388.8 300.8C403.3 364.2 397 414.7 368.9 430.9C362.3 434.7 354.7 436.5 346.3 436.5C318.8 436.5 282.8 417.1 246.4 383.3C210 417.3 174 436.9 146.5 436.9C138.1 436.9 130.5 435.1 124 431.3C95.8 415.1 89.4 364.5 103.8 300.9C41.4 281.8 0.7 251 0.7 218.5C0.7 186.1 41.2 155.4 103.4 136.2C88.9 72.8 95.2 22.3 123.3 6.1C129.9 2.3 137.5 0.5 145.9 0.5L145.9 0.4C173.4 0.4 209.4 19.8 245.8 53.6C282.2 19.6 318.2 0 345.7 0L345.7 0.1C353.96 0.11 361.53 1.92 368 5.7C396.2 21.9 402.6 72.5 388.2 136.1C450.6 155.2 491.3 186 491.3 218.5C491.3 250.9 450.8 281.7 388.8 300.8ZM345.6 0.1L345.6 22.3C345.63 22.3 345.67 22.3 345.7 22.3L345.7 0.1C345.67 0.1 345.63 0.1 345.6 0.1ZM345.6 22.3C324.8 22.35 294.25 38.95 261.7 69.2C275.8 83.9 289.8 100.7 303.3 119.2C325.8 121.6 347.2 125.3 366.8 130.1C369 120 370.8 110.1 371.9 100.7C376.5 62.5 370.6 32.8 357 25C353.9 23.3 350.2 22.4 345.6 22.4L345.6 22.3ZM145.9 22.7L145.9 22.8C141.3 22.8 137.4 23.6 134.4 25.4C120.9 33.3 115.1 63 119.8 101.2C121 110.5 122.7 120.2 125 130.2C144.6 125.3 166 121.6 188.6 119.2C201.9 100.7 215.9 84 229.9 69.3C197.3 39.2 166.6 22.7 145.9 22.7ZM320.1 143.9C325 151.5 329.9 159.3 334.5 167.3C339.2 175.3 343.5 183.3 347.6 191.3C352.8 178 357.4 164.7 361.1 151.8C348 148.6 334.3 146 320.1 143.9ZM336 218.4C329.7 205 322.8 191.7 315.2 178.6C307.4 165.2 299.3 152.5 291 140.6C276.2 139.4 261.1 138.7 246 138.7C230.8 138.7 215.7 139.4 200.8 140.7C192.5 152.6 184.5 165.4 176.7 178.9C169.2 192 162.2 205.4 156 218.8C162.3 232.2 169.2 245.5 176.8 258.6C184.6 272 192.7 284.7 201 296.6C215.8 297.8 230.9 298.5 246 298.5C261.2 298.5 276.3 297.8 291.2 296.5C299.5 284.6 307.5 271.8 315.3 258.3C322.8 245.2 329.7 231.8 336 218.4ZM334.6 269.4C330 277.5 325.1 285.4 320.2 293.1C334.5 291 348.3 288.3 361.4 285.1C357.6 272.1 353 258.7 347.6 245.3C343.5 253.3 339.2 261.4 334.6 269.4ZM273.7 320C264.6 320.5 255.3 320.7 245.9 320.7C236.6 320.7 227.4 320.4 218.4 320C227.6 331.7 236.9 342.4 246.2 352C255.4 342.4 264.7 331.7 273.7 320ZM157.4 269.7C152.7 261.7 148.4 253.7 144.3 245.7C139.1 259 134.5 272.3 130.8 285.2C143.9 288.4 157.6 291 171.8 293.1C166.9 285.5 162.1 277.7 157.4 269.7ZM218.2 117C227.3 116.5 236.6 116.3 246 116.3C255.3 116.3 264.5 116.6 273.5 117C264.3 105.3 255 94.6 245.7 85C236.5 94.6 227.2 105.3 218.2 117ZM130.5 151.8C134.3 164.8 138.9 178.2 144.3 191.6C148.4 183.6 152.7 175.6 157.3 167.6C161.9 159.5 166.8 151.6 171.7 143.9C157.4 146 143.6 148.7 130.5 151.8ZM109.2 279.3C114.8 259.8 122.2 239.5 131.4 218.7C122.1 197.8 114.6 177.4 108.9 157.8C99.2 160.9 89.8 164.2 81.2 167.9C45.8 182.9 22.9 202.8 22.9 218.5C22.9 234.2 45.8 254 81.2 269.1C89.9 272.8 99.3 276.2 109.2 279.3ZM146.3 414.7C167.1 414.7 197.7 398.1 230.3 367.8C216.2 353.1 202.2 336.3 188.7 317.8C166.2 315.4 144.8 311.7 125.2 306.9C123 317 121.2 326.9 120.1 336.3C115.5 374.5 121.4 404.2 135 412C138 413.7 141.8 414.6 146.3 414.7ZM367 306.7C347.4 311.6 326 315.3 303.4 317.7C290.1 336.2 276.1 352.9 262.1 367.6C294.7 397.7 325.4 414.2 346.1 414.2C350.7 414.2 354.6 413.4 357.6 411.6C371.1 403.7 376.9 374 372.2 335.8C371.1 326.5 369.3 316.8 367 306.7ZM469.1 218.5C469.1 202.8 446.2 183 410.8 167.9C402 164.2 392.6 160.8 382.7 157.7C377.1 177.2 369.7 197.5 360.5 218.3C369.8 239.2 377.3 259.6 383 279.2C392.7 276.1 402.1 272.8 410.7 269.1C446.1 254.1 469 234.2 469.1 218.5Z" />
		<path id="Layer" class="shp1" d="M145.8 0.4L145.8 0.4L145.8 0.4L145.8 0.4Z" />
		<path id="Layer" class="shp0" d="M245.9 264.2C220.63 264.2 200.2 243.77 200.2 218.5C200.2 193.23 220.63 172.8 245.9 172.8C271.17 172.8 291.6 193.23 291.6 218.5C291.6 243.77 271.17 264.2 245.9 264.2Z" />
		<path id="Layer" class="shp1" d="M345.5 0.1L345.5 0.1L345.5 0.1L345.5 0.1Z" />
	</g>
</svg>