<svg width="124" height="124" viewBox="0 0 124 124" fill="none" xmlns="http://www.w3.org/2000/svg">
<path d="M26.4 78.2C26.4 85.3 20.6 91.1 13.5 91.1C6.40001 91.1 0.600006 85.3 0.600006 78.2C0.600006 71.1 6.40001 65.3 13.5 65.3H26.4V78.2Z" fill="black"/>
<path d="M32.9 78.2C32.9 71.1 38.7 65.3 45.8 65.3C52.9 65.3 58.7 71.1 58.7 78.2V110.5C58.7 117.6 52.9 123.4 45.8 123.4C38.7 123.4 32.9 117.6 32.9 110.5V78.2Z" fill="black"/>
<path d="M45.8 26.4C38.7 26.4 32.9 20.6 32.9 13.5C32.9 6.4 38.7 0.599998 45.8 0.599998C52.9 0.599998 58.7 6.4 58.7 13.5V26.4H45.8Z" fill="black"/>
<path d="M45.8 32.9C52.9 32.9 58.7 38.7 58.7 45.8C58.7 52.9 52.9 58.7 45.8 58.7H13.5C6.40001 58.7 0.600006 52.9 0.600006 45.8C0.600006 38.7 6.40001 32.9 13.5 32.9H45.8Z" fill="black"/>
<path d="M97.6 45.8C97.6 38.7 103.4 32.9 110.5 32.9C117.6 32.9 123.4 38.7 123.4 45.8C123.4 52.9 117.6 58.7 110.5 58.7H97.6V45.8Z" fill="black"/>
<path d="M91.1 45.8C91.1 52.9 85.3 58.7 78.2 58.7C71.1 58.7 65.3 52.9 65.3 45.8V13.5C65.3 6.4 71.1 0.599998 78.2 0.599998C85.3 0.599998 91.1 6.4 91.1 13.5V45.8Z" fill="black"/>
<path d="M78.2 97.6C85.3 97.6 91.1 103.4 91.1 110.5C91.1 117.6 85.3 123.4 78.2 123.4C71.1 123.4 65.3 117.6 65.3 110.5V97.6H78.2Z" fill="black"/>
<path d="M78.2 91.1C71.1 91.1 65.3 85.3 65.3 78.2C65.3 71.1 71.1 65.3 78.2 65.3H110.5C117.6 65.3 123.4 71.1 123.4 78.2C123.4 85.3 117.6 91.1 110.5 91.1H78.2Z" fill="black"/>
</svg>
