<svg width="1536" height="1536" viewBox="0 0 1536 1536" fill="none" xmlns="http://www.w3.org/2000/svg">
<path fill-rule="evenodd" clip-rule="evenodd" d="M1536 288V1248C1536 1327.33 1507.83 1395.17 1451.5 1451.5C1395.17 1507.83 1327.33 1536 1248 1536H288C208.667 1536 140.833 1507.83 84.5 1451.5C28.1667 1395.17 0 1327.33 0 1248V288C0 208.667 28.1667 140.833 84.5 84.5C140.833 28.1667 208.667 0 288 0H1248C1327.33 0 1395.17 28.1667 1451.5 84.5C1507.83 140.833 1536 208.667 1536 288ZM541 391C541 446.039 586.186 491 641.5 491H742V391C742 335.961 696.814 291 641.5 291C586.186 291 541 335.961 541 391ZM491 894.5C491 949.814 446.039 995 391 995C335.961 995 291 949.814 291 894.5C291 839.186 335.961 794 391 794H491V894.5ZM541 894.136C541 839.022 586.186 794 641.5 794C696.814 794 742 839.022 742 894.136V1144.86C742 1199.98 696.814 1245 641.5 1245C586.186 1245 541 1199.98 541 1144.86V894.136ZM641.864 541C696.978 541 742 586.186 742 641.5C742 696.814 696.978 742 641.864 742H391.136C336.022 742 291 696.814 291 641.5C291 586.186 336.022 541 391.136 541H641.864ZM1145 541C1089.96 541 1045 586.186 1045 641.5V742H1145C1200.04 742 1245 696.814 1245 641.5C1245 586.186 1200.04 541 1145 541ZM995 641.864C995 696.978 949.814 742 894.5 742C839.186 742 794 696.978 794 641.864V391.136C794 336.022 839.186 291 894.5 291C949.814 291 995 336.022 995 391.136V641.864ZM995 1145C995 1089.96 949.814 1045 894.5 1045H794V1145C794 1200.04 839.186 1245 894.5 1245C949.814 1245 995 1200.04 995 1145ZM894.136 995C839.022 995 794 949.814 794 894.5C794 839.186 839.022 794 894.136 794H1144.86C1199.98 794 1245 839.186 1245 894.5C1245 949.814 1199.98 995 1144.86 995H894.136Z" fill="black"/>
</svg>
