<svg width="954" height="954" viewBox="0 0 954 954" fill="none" xmlns="http://www.w3.org/2000/svg">
<path fill-rule="evenodd" clip-rule="evenodd" d="M350.5 200C295.186 200 250 155.039 250 100C250 44.9613 295.186 0 350.5 0C405.814 0 451 44.9613 451 100V200H350.5ZM100 704C155.039 704 200 658.814 200 603.5V503H100C44.9613 503 0 548.186 0 603.5C0 658.814 44.9613 704 100 704ZM350.5 503C295.186 503 250 548.022 250 603.136V853.864C250 908.978 295.186 954 350.5 954C405.814 954 451 908.978 451 853.864V603.136C451 548.022 405.814 503 350.5 503ZM451 350.5C451 295.186 405.978 250 350.864 250H100.136C45.0224 250 0 295.186 0 350.5C0 405.814 45.0224 451 100.136 451H350.864C405.978 451 451 405.814 451 350.5ZM754 350.5C754 295.186 798.961 250 854 250C909.039 250 954 295.186 954 350.5C954 405.814 909.039 451 854 451H754V350.5ZM603.5 451C658.814 451 704 405.978 704 350.864V100.136C704 45.0224 658.814 0 603.5 0C548.186 0 503 45.0224 503 100.136V350.864C503 405.978 548.186 451 603.5 451ZM603.5 754C658.814 754 704 798.961 704 854C704 909.039 658.814 954 603.5 954C548.186 954 503 909.039 503 854V754H603.5ZM503 603.5C503 658.814 548.022 704 603.136 704H853.864C908.978 704 954 658.814 954 603.5C954 548.186 908.978 503 853.864 503H603.136C548.022 503 503 548.186 503 603.5Z" fill="#FFFBF9"/>
</svg>
