<svg width="77" height="81" viewBox="0 0 77 81" fill="none" xmlns="http://www.w3.org/2000/svg">
<path d="M74.132 80.2453C74.6171 80.4148 75.1537 80.4041 75.6305 80.2154C76.1073 80.0267 76.4875 79.6746 76.6922 79.2321C76.9625 78.5594 76.9826 77.822 76.7493 77.1374C76.499 76.3113 76.1795 75.5047 75.7937 74.725C75.3886 73.8005 74.7959 72.4603 74.2762 71.582C73.648 70.5196 69.8348 64.6236 69.2169 63.8236C68.2999 62.6355 65.6556 59.7588 65.139 59.2382C64.7681 58.8837 64.3972 58.5292 63.9898 58.1398C65.7497 56.899 65.6951 55.2188 65.4587 53.8806C65.2459 52.6778 64.4854 51.6931 63.8203 50.6275C62.6284 48.7454 61.2863 46.949 59.8054 45.2535C55.2911 39.9286 49.8841 35.4108 44.879 30.5034C43.8062 29.4458 42.6525 28.456 41.519 27.4532C38.8639 25.1018 36.2029 22.7626 33.536 20.4357C32.7624 19.7608 26.1522 14.5121 25.3623 13.9721C24.3947 13.3105 20.4009 10.5249 19.4157 9.90022C18.1511 9.08382 14.2564 6.72602 13.612 6.3627C12.9677 5.99938 12.2348 5.64816 11.5563 5.27909C10.9937 4.97776 8.55861 3.73029 7.91082 3.40666C7.47792 3.19708 7.05954 2.96914 6.62664 2.75955C5.46672 2.18822 4.28369 1.63778 3.10628 1.09272C2.97897 1.03014 2.67852 0.920286 2.39509 0.81595C2.16932 0.727539 1.91893 0.70905 1.68097 0.763222C1.44302 0.817394 1.23016 0.941346 1.0739 1.11673C0.409673 1.88961 1.69863 2.78844 1.86785 2.9072C2.42796 3.23048 3.01228 3.51603 3.61631 3.76165C3.9984 3.93879 4.37879 4.03909 4.73231 4.22115C6.07284 4.91138 7.40158 5.62795 8.75616 6.3316C9.77714 6.8561 17.8873 11.6633 18.714 12.217C19.5408 12.7708 27.7621 18.7159 29.0586 19.6863C29.1653 19.7884 29.2895 19.8694 29.3992 19.9689C32.9628 23.1224 36.6103 26.1949 40.1045 29.4164C45.4475 34.3405 50.7412 39.3213 55.9856 44.3589C60.6206 49.4284 62.7715 53.0961 63.2119 54.3283C63.5026 54.8963 63.2719 56.5993 62.4542 56.2046L61.7321 55.5145C59.1106 53.0089 56.576 50.4144 53.8245 48.0317C52.3474 46.7543 50.5034 45.8085 48.2682 46.0524C46.7866 46.216 45.821 47.1307 45.187 48.1689C44.4568 49.3515 44.7421 50.6612 45.7749 51.7289C48.7275 54.7712 50.388 55.6007 51.3553 56.09C52.4069 56.659 53.5073 57.1464 54.6451 57.5473C55.9444 57.9578 57.274 58.2805 58.6234 58.5127C59.4136 58.6554 60.2527 58.5762 61.0638 58.6476C61.3188 58.6941 61.5503 58.8172 61.7226 58.9979C62.6718 59.9374 63.6268 60.8716 64.5269 61.8555C65.1943 62.5847 65.8097 63.3556 66.428 64.1239C66.9148 64.7289 67.6977 65.7351 68.1644 66.3531C68.6311 66.971 69.1092 67.5892 69.5361 68.2013C70.1998 69.1689 70.8636 70.1365 71.4701 71.1245C72.146 72.2379 72.8131 73.3592 73.3685 74.524C73.8227 75.5521 74.2189 76.6015 74.5554 77.6679C74.58 77.7399 74.5886 77.8157 74.5806 77.8908C74.5643 78.2053 74.4155 78.5012 74.1664 78.7146C73.9739 78.8407 73.8252 79.0164 73.7386 79.22C73.652 79.4236 73.6313 79.6462 73.679 79.8606C73.7151 79.9542 73.7753 80.0381 73.8542 80.1052C73.9332 80.1722 74.0285 80.2203 74.132 80.2453ZM59.1981 56.3002C58.8375 56.2788 58.4784 56.2387 58.1226 56.1803C56.9665 55.9243 52.9432 54.5397 52.1608 54.0713C51.0729 53.4334 50.0549 52.698 49.1214 51.8756C48.6318 51.4747 48.1762 51.0392 47.7587 50.5731C47.4896 50.238 47.3728 49.8181 47.4333 49.4037C47.4939 48.9893 47.7271 48.6136 48.0826 48.3574C48.5175 48.0584 48.9246 48.0875 49.7024 48.2936C50.7244 48.5974 51.6637 49.103 52.456 49.7756C54.613 51.703 58.9712 56.035 59.1837 56.3133L59.1981 56.3002Z" fill="#383736"/>
</svg>
