<svg width="25" height="30" viewBox="0 0 25 30" fill="none" xmlns="http://www.w3.org/2000/svg">
<path d="M6.90181 1L2.08038 12.3786C2.01369 12.5409 1.9879 12.7171 2.00526 12.8917C2.02262 13.0664 2.08261 13.234 2.17995 13.38C2.27729 13.5261 2.409 13.6459 2.56352 13.7291C2.71803 13.8123 2.89061 13.8563 3.06609 13.8571H9.04466L4.75895 28.8571L23.1661 11.4143C23.319 11.267 23.4247 11.0775 23.4697 10.87C23.5147 10.6625 23.4971 10.4463 23.419 10.2488C23.341 10.0514 23.206 9.88156 23.0312 9.76095C22.8565 9.64034 22.6498 9.57437 22.4375 9.57143H14.4018L18.6875 1H6.90181Z" stroke="#383736" stroke-width="2.14286" stroke-linecap="round" stroke-linejoin="round"/>
</svg>
