<svg width="393" height="348" viewBox="0 0 393 348" fill="none" xmlns="http://www.w3.org/2000/svg">
<path d="M4.19373 193.585C3.19401 132.714 29.8809 71.6201 76.9161 32.6602C90.8635 21.1139 107.241 12.7634 123.104 4.1766C125.458 2.89832 123.361 -0.686398 121.022 0.577994C106.637 8.36582 91.6133 15.9175 78.6725 25.9701C66.5232 35.4044 55.5194 45.9502 46.1262 58.1495C27.1039 82.8469 12.9691 110.948 5.74892 141.315C1.6869 158.433 -0.220903 175.993 0.0699458 193.585C0.111601 196.267 4.27708 196.274 4.23543 193.585H4.19373Z" fill="#E27152"/>
<path d="M12.7461 87.9321C12.9821 82.9301 17.2794 77.6989 19.8968 73.6069C22.8959 68.9245 26.0964 64.3672 29.5121 59.9765C36.1556 51.4458 43.5185 43.5015 51.5197 36.2309C53.5053 34.4177 50.5547 31.479 48.5761 33.2783C39.9431 41.1532 32.0425 49.7963 24.9717 59.1012C21.4311 63.7558 18.1126 68.5726 15.0163 73.5514C12.2948 77.9281 8.83746 82.6244 8.58753 87.9321C8.46257 90.6137 12.628 90.6137 12.753 87.9321H12.7461Z" fill="#E27152"/>
<path d="M303.774 347.279C324.206 336.635 341.187 320.539 354.6 301.934C361.686 292.009 367.862 281.465 373.053 270.428C378.607 258.722 383.738 246.586 386.577 233.9C389.793 219.201 391.914 204.284 392.923 189.271C393.11 186.59 388.945 186.603 388.757 189.271C387.796 202.487 386.017 215.631 383.432 228.627C380.982 241.063 376.559 252.776 371.332 264.294C361.765 285.358 349.164 305.164 332.488 321.317C323.351 330.224 312.971 337.757 301.671 343.68C299.297 344.916 301.4 348.543 303.754 347.279H303.774Z" fill="#E27152"/>
</svg>
