<svg width="453" height="116" viewBox="0 0 453 116" fill="none" xmlns="http://www.w3.org/2000/svg">
<path d="M0.834435 21.1621C14.2581 30.3363 31.3245 37.1817 47.1468 34.6733C54.3217 33.5324 62.1395 29.9847 65.9413 22.6157C69.3491 15.9891 69.2384 6.48665 62.8584 2.18872C57.0313 -1.71849 48.9716 0.83691 44.686 6.37733C38.9695 13.7463 39.5156 24.9287 42.0178 33.673C47.6444 53.3106 62.2778 67.5875 77.547 77.7775C113.629 101.862 156.237 109.817 197.454 113.044C242.979 116.592 289.934 117.631 334.843 107.3C372.55 98.6342 409.627 80.6454 437.684 50.2552C441.175 46.4808 444.486 42.519 447.659 38.4008C449.041 36.5878 446.712 33.9232 445.308 35.7439C421.979 66.056 390.093 85.9514 356.32 97.3526C317.065 110.637 275.639 112.302 234.947 111.153C196.438 110.067 157.246 107.496 120.203 94.5707C102.68 88.452 85.2335 80.0751 70.2684 67.9471C57.135 57.2882 42.5224 39.7604 43.5662 19.9821C43.8565 14.387 45.8749 8.76065 50.3679 5.91621C54.2664 3.44686 59.9414 2.99374 63.0727 7.21352C66.2039 11.4333 65.015 17.4503 62.5888 21.5763C60.1626 25.7023 55.953 28.2108 51.8471 29.6565C35.6516 35.3454 16.3387 27.3825 2.46573 17.8958C0.633969 16.6455 -1.03879 19.8884 0.792963 21.1387L0.834435 21.1621Z" fill="#E27152"/>
<path d="M420.396 38.1038C426.984 38.5194 433.589 38.4227 440.165 37.8145C444.548 37.4004 449.663 37.2598 452.608 33.0087L450.002 30.7346C444.32 45.7539 444.209 61.9924 444.368 78.0744C444.368 80.4891 447.707 80.4891 447.686 78.0744C447.534 62.766 447.444 46.9653 452.87 32.6337C453.527 30.8832 451.543 28.5154 450.264 30.3596C447.271 34.6575 440.456 34.1184 436.073 34.3841C430.849 34.7006 425.614 34.7006 420.389 34.3841C418.253 34.2591 418.26 38.0098 420.389 38.1349L420.396 38.1038Z" fill="#E27152"/>
</svg>
