<svg width="203" height="150" viewBox="0 0 203 150" fill="none" xmlns="http://www.w3.org/2000/svg">
<g clip-path="url(#clip0_101_4302)">
<path d="M101.625 20.9242C99.256 19.7631 93.0642 14.9908 90.305 17.1613C87.3151 19.4571 90.4673 25.455 91.6032 27.858C92.832 30.455 94.3762 32.9068 95.6262 35.4988C96.5271 37.2649 97.2316 39.1263 97.7268 41.0492C98.3832 43.8193 97.1787 47.1241 94.1733 47.0175C87.3982 46.7795 82.0109 38.3731 81.1965 32.4706C80.9452 30.6255 78.0185 30.6893 78.2817 32.5674C78.9279 37.8622 81.5954 42.6895 85.7202 46.0285C88.6082 48.3439 95.2574 52.0585 99.0256 49.7708C103.288 47.1799 100.331 38.9014 98.8581 35.6203C97.3856 32.3392 95.3407 29.1909 93.8561 25.8363C93.1674 24.2678 90.9165 20.9786 94.0705 20.557C95.3835 20.3827 98.9567 22.9657 100.179 23.5756C101.86 24.3979 103.294 21.8342 101.606 21.0001L101.625 20.9242Z" fill="#E27152"/>
<path d="M108.449 50.3509C111.133 51.8607 118.282 56.0295 120.03 51.0632C121.56 46.7089 115.823 43.3977 112.353 43.1476C108.552 42.8574 103.795 45.6706 104.263 50.0376C104.763 54.7247 111.786 57.7242 115.347 59.538C117.023 60.3793 118.448 57.8134 116.774 56.9625C113.968 55.5439 103.04 50.3747 109.069 46.7324C111.217 45.4309 115.232 46.0755 116.617 48.3578C116.808 48.4986 116.941 48.705 116.991 48.938C117.041 49.1711 117.005 49.4149 116.889 49.6236C117.108 50.4496 116.842 50.7208 116.091 50.4371C115.324 50.3999 114.575 50.19 113.9 49.823C112.513 49.2456 111.165 48.5808 109.862 47.8325C109.526 47.657 109.134 47.6206 108.77 47.731C108.407 47.8413 108.1 48.0896 107.915 48.4234C107.729 48.7572 107.68 49.1503 107.778 49.519C107.875 49.8877 108.112 50.203 108.437 50.3982L108.449 50.3509Z" fill="#E27152"/>
<path d="M138.106 38.8233C134.813 46.5985 127.947 52.859 125.572 61.1397C124.118 66.208 131.103 67.4748 134.809 67.742C136.678 67.8743 136.582 64.9384 134.723 64.8084C133.484 64.7186 130.71 64.5674 129.783 63.6062C128.523 62.2915 129.25 60.4527 129.704 59.0816C130.698 56.7072 131.921 54.4361 133.355 52.3008C135.712 48.2485 138.859 44.5697 140.686 40.2272C141.414 38.5097 138.874 37.0651 138.139 38.8112L138.106 38.8233Z" fill="#E27152"/>
<path d="M124.212 50.3677L137.09 56.6868C138.768 57.5186 140.196 54.9433 138.515 54.121L125.636 47.8017C123.958 46.9699 122.524 49.5336 124.212 50.3677Z" fill="#E27152"/>
<path d="M53.0777 33.7296L42.3627 54.201C41.4858 55.8722 44.0301 57.2978 44.9071 55.6266L55.622 35.1552C56.499 33.484 53.9547 32.0584 53.0777 33.7296Z" fill="#E27152"/>
<path d="M48.4091 48.7188C49.6193 49.2956 51.6668 49.8442 52.5488 50.8651C52.8239 51.1278 53.001 51.4778 53.0507 51.8566C53.1005 52.2354 53.0199 52.6202 52.8223 52.9474C52.5 53.6149 52.0159 54.1904 51.4147 54.6204C49.0945 56.3435 46.0621 55.4847 43.7592 54.2591C42.1042 53.3725 40.6793 55.9383 42.3344 56.8248C46.2474 58.9161 51.413 59.4778 54.5185 55.6379C55.1265 54.9239 55.559 54.0761 55.7811 53.1636C56.0032 52.251 56.0086 51.2996 55.7968 50.386C55.0709 47.9014 51.8548 47.0985 49.8291 46.1317C48.1366 45.3167 46.7118 47.8824 48.4043 48.6975L48.4091 48.7188Z" fill="#E27152"/>
<path d="M65.8234 54.0355C64.8315 53.3879 63.6581 53.079 62.4762 53.1542C61.2943 53.2295 60.1664 53.685 59.2588 54.4535C57.3222 55.9978 55.1623 58.7476 55.3719 61.298C55.4795 62.6646 57.4189 63.3281 58.1015 61.9624C59.663 58.8351 60.4414 55.1847 61.4831 51.8503C62.0433 50.0415 59.2075 49.3614 58.6496 51.1607C57.6917 54.2332 56.9995 57.6527 55.5572 60.5368L58.2868 61.2011C58.0793 58.6008 61.9967 54.8779 64.3987 56.6417C65.9249 57.7287 67.3332 55.1488 65.8259 54.0664L65.8234 54.0355Z" fill="#E27152"/>
<path d="M68.0488 64.2524C70.741 65.5224 77.2974 69.0432 78.6847 64.4122C79.9557 60.1762 74.3834 58.3261 71.2522 58.5719C67.8478 58.9124 63.1979 60.26 64.864 64.6364C66.4655 68.8257 72.1336 70.9813 76.2161 71.4307C78.0545 71.6463 78.7681 68.7965 76.9108 68.5762C74.5666 68.3589 72.3104 67.578 70.3318 66.2996C69.6132 65.8448 68.9559 65.2988 68.3762 64.6748C67.2855 63.4015 67.3722 62.7575 68.8621 62.0619C70.352 61.3662 73.3319 61.0434 74.919 62.0445C76.0629 62.5648 76.0653 63.0892 74.9049 63.6232C74.3382 63.4852 73.7715 63.3475 73.2233 63.1334C71.961 62.7108 70.7266 62.2083 69.5276 61.6291C67.8305 60.8331 66.3962 63.3968 68.1028 64.1951L68.0488 64.2524Z" fill="#E27152"/>
<path d="M88.8839 67.6401C86.545 66.2747 83.8675 64.6153 81.2786 66.3737C80.413 66.966 79.7624 67.8261 79.4259 68.823C79.0893 69.82 79.0852 70.8991 79.4142 71.8964C81.1351 76.9109 88.0708 76.1601 89.455 71.3772L86.6438 71.4589C87.1724 73.6033 87.7668 75.6828 88.4177 77.7763C88.9801 79.5761 91.7855 78.737 91.2137 76.9349C90.5627 74.8415 89.973 72.7429 89.4398 70.6176C89.3442 70.3131 89.153 70.0483 88.8949 69.863C88.6368 69.6776 88.3257 69.5817 88.0082 69.5896C87.6906 69.5974 87.3839 69.7086 87.1339 69.9065C86.8839 70.1045 86.7041 70.3786 86.6215 70.6875C85.934 73.06 81.9926 73.0177 82.0581 70.2823C82.1328 66.9746 86.1536 69.4447 87.459 70.2059C89.0884 71.1568 90.5061 68.5792 88.8839 67.6401Z" fill="#E27152"/>
<path d="M100.36 64.2653L93.0305 79.1712C92.8782 79.4822 92.8391 79.8368 92.92 80.173C93.0009 80.5093 93.1965 80.8061 93.4729 81.0113C93.7493 81.2166 94.0888 81.3174 94.4322 81.2962C94.7757 81.275 95.1012 81.1332 95.352 80.8954C99.1572 77.6588 103.25 74.7819 107.578 72.3012C109.209 71.3575 107.697 68.853 106.067 69.7966C101.527 72.4126 97.2382 75.448 93.2555 78.8633L95.5771 80.5872L102.914 65.6932C103.746 64.001 101.194 62.5636 100.36 64.2653Z" fill="#E27152"/>
<path d="M98.1681 77.7106C100.195 79.0002 101.071 81.6924 102.64 83.4652C103.887 84.8773 105.915 82.7507 104.675 81.3504C102.855 79.2948 101.994 76.6665 99.5835 75.1425C97.9986 74.132 96.5809 76.7095 98.1681 77.7106Z" fill="#E27152"/>
<path d="M111.535 77.87L103.699 93.9527C102.867 95.645 105.409 97.08 106.243 95.3783L114.08 79.2956C114.904 77.5915 112.36 76.166 111.535 77.87Z" fill="#E27152"/>
<path d="M111.73 80.1949C112.381 80.5509 113.051 80.872 113.737 81.157C114.765 81.6592 115.011 82.3742 115.068 83.4967C115.112 84.3439 115.178 85.3879 114.221 85.5784C113.093 85.6974 111.954 85.5514 110.893 85.1516C109.094 84.6128 108.408 87.4695 110.199 88.006C113.397 88.9657 117.366 88.9745 117.954 84.9149C118.245 83.2647 117.95 81.566 117.121 80.1164C116.188 78.7303 114.519 78.4753 113.197 77.6193C111.598 76.6254 110.192 79.1958 111.77 80.1945L111.73 80.1949Z" fill="#E27152"/>
<path d="M122.141 84.936C121.105 86.9717 119.632 89.3646 120.775 91.6584C121.791 93.7299 123.998 94.1161 125.949 93.1296C127.9 92.1431 130.036 90.2339 129.824 87.7737C129.632 85.5198 127.572 83.6679 125.84 82.4804C124.288 81.4173 122.88 83.9972 124.415 85.0461C125.162 85.5512 125.817 86.1812 126.353 86.9087C127.298 88.2473 126.55 89.2644 125.374 90.0668C125.06 90.3359 124.692 90.5319 124.294 90.6405C123.417 90.7495 123.246 90.0127 123.354 89.2426C123.642 88.2196 124.094 87.2503 124.692 86.3734C125.543 84.6858 122.999 83.2602 122.139 84.9455L122.141 84.936Z" fill="#E27152"/>
<path d="M132.836 87.8113C131.639 90.0596 130.564 92.2975 129.582 94.6889C128.86 96.4182 131.403 97.8533 132.126 96.1144C133.106 93.7729 134.185 91.4756 135.39 89.2391C135.54 88.9015 135.559 88.5198 135.444 88.1694C135.329 87.819 135.087 87.5253 134.766 87.3461C134.446 87.1669 134.07 87.1155 133.713 87.2016C133.355 87.2877 133.043 87.5051 132.836 87.8113Z" fill="#E27152"/>
<path d="M135.61 86.3196C135.986 86.411 136.383 86.3483 136.714 86.1453C137.045 85.9423 137.282 85.6157 137.374 85.2372C137.467 84.8587 137.406 84.4594 137.205 84.1271C137.004 83.7948 136.681 83.5566 136.305 83.4652C135.929 83.3737 135.532 83.4365 135.201 83.6395C134.871 83.8425 134.633 84.169 134.541 84.5476C134.449 84.9261 134.51 85.3253 134.71 85.6576C134.911 85.99 135.235 86.2281 135.61 86.3196Z" fill="#E27152"/>
<path d="M138.439 89.0034C137.324 91.1798 136.338 93.4201 135.485 95.7125C134.86 97.3745 137.312 98.0315 138.169 96.7688C138.865 95.759 142.937 91.1566 143.497 93.6211C143.731 94.6354 143.123 95.8178 142.797 96.7463C142.42 97.8437 142.045 98.9314 141.661 100.017C141.037 101.8 143.875 102.471 144.494 100.707C145.549 97.688 148.423 92.2096 144.467 90.0475C141.195 88.2432 137.228 92.992 135.625 95.3432L138.319 96.4021C139.089 94.3604 139.979 92.3659 140.983 90.429C141.853 88.746 139.299 87.3181 138.439 89.0034Z" fill="#E27152"/>
<path d="M156.16 86.5641L152.463 94.1502C151.32 96.5025 149.483 99.2 148.777 101.729C147.807 105.182 151.533 105.494 154.247 105.852C156.09 106.089 156.804 103.239 154.941 102.997C154.041 102.918 153.148 102.764 152.272 102.539C151.668 102.02 151.748 101.404 152.46 100.821C153.001 99.4039 153.668 98.0382 154.453 96.7411L158.714 87.992C159.546 86.2998 157.004 84.8647 156.169 86.5664L156.16 86.5641Z" fill="#E27152"/>
<path d="M149.915 94.5885C152.518 95.4842 155.093 96.4132 157.666 97.3922C159.415 98.0596 160.091 95.2006 158.361 94.5377C155.788 93.5588 153.213 92.6298 150.61 91.7341C148.836 91.131 148.15 93.9877 149.915 94.5885Z" fill="#E27152"/>
<path d="M168.814 100.67C166.707 99.3808 162.275 97.899 160.758 100.886C160.007 102.326 161.235 103.612 162.044 104.726C162.735 105.67 165.828 108.58 165.072 109.837L165.93 109.149C165.104 109.502 163.375 108.467 162.663 108.102C161.558 107.658 160.643 106.84 160.075 105.789C159.27 104.081 156.784 105.623 157.572 107.317C158.541 109.377 160.674 110.521 162.687 111.333C164.318 111.992 166.659 112.935 167.771 110.998C168.882 109.061 167.624 107.163 166.461 105.691C165.975 105.058 164.059 103.231 163.961 102.401C163.643 102.102 163.728 102.002 164.235 102.095C164.609 102.076 164.984 102.126 165.34 102.243C166.078 102.471 166.778 102.808 167.417 103.243C169.021 104.217 170.436 101.649 168.833 100.674L168.814 100.67Z" fill="#E27152"/>
<path d="M46.7038 78.5388C45.7028 80.4317 45.0825 82.5283 46.5343 84.3733C47.1617 85.1588 48.058 85.6799 49.0485 85.8353C50.0391 85.9907 51.0528 85.7692 51.8922 85.2137C52.7366 84.6378 53.4067 83.8381 53.8284 82.9036C54.2501 81.9691 54.4069 80.9362 54.2813 79.9194C53.8393 77.6249 51.9064 76.3179 49.9772 75.3243C48.3081 74.4545 46.881 77.0297 48.5524 77.8901C50.2239 78.7504 52.2811 79.9163 50.9744 81.9969C50.5247 82.6937 49.7468 83.341 48.9679 82.6777C48.1889 82.0145 48.8388 80.7415 49.2576 79.9666C50.144 78.2977 47.5902 76.8698 46.7038 78.5388Z" fill="#E27152"/>
<path d="M56.8929 80.5751C55.5343 83.1974 53.2972 86.5934 56.7267 88.698C59.5647 90.3966 62.7176 87.6365 64.496 85.5498L62.4018 83.5081C60.6191 85.6946 61.0344 88.8798 61.3882 91.4956C61.6394 93.3406 64.5662 93.2769 64.303 91.3987C64.0981 89.8976 63.4121 86.838 64.496 85.5498C65.6806 84.0945 63.6147 82.0598 62.4018 83.5081C61.6557 84.3949 60.0116 86.464 58.6781 86.2705C56.6649 85.9922 59.0775 82.7799 59.4914 81.9836C60.3589 80.3101 57.8051 78.8822 56.9376 80.5558L56.8929 80.5751Z" fill="#E27152"/>
<path d="M12.3445 62.1135L9.21053 68.5365C8.38561 70.2405 10.9299 71.6661 11.7643 69.9644L14.8983 63.5414C15.7232 61.8374 13.1789 60.4118 12.3445 62.1135Z" fill="#E27152"/>
<path d="M15.1657 59.0309C15.5414 59.1223 15.9384 59.0596 16.2692 58.8566C16.6 58.6536 16.8376 58.327 16.9298 57.9485C17.0219 57.57 16.961 57.1705 16.7605 56.8382C16.5599 56.5059 16.2361 56.2679 15.8604 56.1765C15.4846 56.085 15.0877 56.1476 14.7569 56.3506C14.4261 56.5535 14.1884 56.8804 14.0963 57.2589C14.0041 57.6374 14.0651 58.0366 14.2656 58.369C14.4662 58.7013 14.7899 58.9394 15.1657 59.0309Z" fill="#E27152"/>
<path d="M17.6472 63.2631L13.798 71.1448C13.6225 71.484 13.585 71.878 13.6934 72.2436C13.8018 72.6092 14.0475 72.9175 14.3786 73.103C14.7096 73.2884 15.0998 73.3365 15.4664 73.2371C15.8331 73.1376 16.1473 72.8983 16.3424 72.5701C16.969 71.6761 17.7472 70.9001 18.6411 70.2776C19.2055 69.8909 20.4938 68.9546 21.1742 69.2008L20.1272 68.2002C20.2417 69.003 20.1989 69.8213 20.0012 70.6086C19.9297 71.4781 19.8888 72.3449 19.855 73.2235C19.7951 75.1138 22.71 75.0169 22.7793 73.129C22.8452 71.0084 24.3391 65.4459 20.4487 66.2627C17.7317 66.8209 15.392 68.9527 13.8358 71.154L16.3802 72.5793L20.2388 64.6999C21.0637 62.9959 18.5193 61.5705 17.685 63.2723L17.6472 63.2631Z" fill="#E27152"/>
<path d="M35.9183 71.8824C33.8606 75.3222 33.5853 80.6873 38.9579 80.6042C41.965 80.5802 47.2614 76.6589 44.0403 73.698C43.8777 73.5462 43.6832 73.4334 43.4711 73.3678C43.259 73.3023 43.0348 73.2857 42.8151 73.3194C42.5954 73.353 42.386 73.4359 42.2023 73.5622C42.0186 73.6884 41.8653 73.8547 41.754 74.0485C39.5251 78.7669 38.253 83.8291 36.1352 88.5846C32.5792 96.6183 24.5116 90.6334 21.6298 85.4976C20.7001 83.8503 18.2162 85.3825 19.1364 87.0275C21.683 91.5677 28.1403 97.6744 33.9432 95.7408C36.7623 94.8043 37.9022 91.8063 39.0134 89.2549C40.9457 84.686 42.1886 79.9494 44.2983 75.4741L42.012 75.8246C37.9469 76.0849 36.7637 75.2461 38.4627 73.308C39.4389 71.6811 36.8828 70.2627 35.9183 71.8824Z" fill="#E27152"/>
<path d="M75.0175 89.6324C73.1311 88.7097 70.8494 86.945 68.9136 88.6508C67.2237 90.4143 66.0076 92.5813 65.3804 94.9466C64.8272 96.7671 67.6156 97.3954 68.2139 95.6362C68.989 93.3557 69.6958 91.0684 70.3221 88.7416C70.8163 86.9168 67.9828 86.2271 67.4886 88.052C66.8623 90.3788 66.1555 92.666 65.3804 94.9466L68.2139 95.6362C68.7033 94.1514 69.4282 92.7552 70.3605 91.5023C70.7871 90.9007 70.7439 90.7492 71.3776 91.105C72.0113 91.4608 72.8787 91.8433 73.6209 92.2053C75.2993 93.0371 76.7242 90.4711 75.0458 89.6393L75.0175 89.6324Z" fill="#E27152"/>
<path d="M95.1945 96.1761C90.5217 97.1653 89.4031 102.255 88.9831 106.406C88.6128 110.065 89.3245 115.69 84.6602 116.44C80.7736 117.076 75.5512 114.898 73.6257 111.587C72.6725 109.954 70.1793 111.484 71.1325 113.117C73.9633 117.928 81.3584 120.716 86.7621 119.148C95.374 116.649 87.7712 100.739 96.0209 98.9874C97.8637 98.6095 97.0278 95.7959 95.1945 96.1761Z" fill="#E27152"/>
<path d="M83.0095 107.108C86.7916 108.152 90.4736 109.53 94.0123 111.228C95.6953 112.04 97.1296 109.477 95.4371 108.662C91.6555 106.842 87.7196 105.365 83.6759 104.247C81.8669 103.746 81.1722 106.601 82.9812 107.102L83.0095 107.108Z" fill="#E27152"/>
<path d="M101.981 103.643C100.918 105.833 96.5184 112.029 101.092 113.011C104.305 113.703 107.665 110.872 108.822 108.09C109.536 106.389 107.237 104.983 106.278 106.664C104.846 109.178 105.011 111.869 105.337 114.639C105.579 116.482 108.497 116.416 108.252 114.542C107.959 112.334 107.652 110.103 108.822 108.09L106.278 106.664C105.681 108.091 104.178 110.114 102.446 110.076C101.809 110.062 102.24 110.428 102.224 109.88C102.207 109.332 102.799 108.71 103.004 108.276L104.573 105.08C105.397 103.376 102.853 101.951 102.019 103.652L101.981 103.643Z" fill="#E27152"/>
<path d="M111.831 109.004L109.564 114.62C109.004 116.015 110.739 117.768 111.886 116.344C112.6 115.446 113.409 114.629 114.299 113.908C115.168 113.095 116.195 112.473 117.315 112.082L116.263 111.675C117.754 113.277 116.709 116.873 116.118 118.603C115.526 120.334 118.339 121.069 118.951 119.293C119.857 116.641 120.753 111.891 118.386 109.652C117.143 108.472 115.302 109.747 114.126 110.469C112.476 111.495 111.01 112.795 109.789 114.312L112.108 116.045L114.385 110.431C115.078 108.695 112.536 107.26 111.831 109.004Z" fill="#E27152"/>
<path d="M129.47 115.373C127.777 114.436 126.254 113.582 124.431 114.66C122.928 115.573 121.775 116.968 121.156 118.62C119.801 122.664 124.463 124.847 127.582 125.636C127.958 125.728 128.355 125.665 128.685 125.462C129.016 125.259 129.254 124.932 129.346 124.554C129.438 124.175 129.377 123.776 129.177 123.444C128.976 123.112 128.652 122.873 128.277 122.782C126.983 122.467 123.788 121.619 123.871 119.835C124.073 118.957 124.582 118.179 125.305 117.644C126.278 116.773 127.066 117.398 128.042 117.948C128.377 118.098 128.757 118.116 129.105 117.999C129.454 117.881 129.746 117.637 129.925 117.314C130.104 116.991 130.157 116.612 130.073 116.253C129.988 115.893 129.773 115.579 129.47 115.373Z" fill="#E27152"/>
<path d="M138.615 112.489L134.642 120.592C133.808 122.294 131.885 124.769 131.896 126.656C131.926 130.312 138.729 129.327 140.99 129.202C142.863 129.114 142.788 126.173 140.906 126.259C139.63 126.322 135.211 126.888 134.329 125.948L134.729 127.346C135.214 125.065 136.889 122.581 137.925 120.505L141.134 113.938C141.959 112.234 139.414 110.809 138.58 112.511L138.615 112.489Z" fill="#E27152"/>
<path d="M134.105 119.675C136.414 119.944 138.657 120.613 140.737 121.652C142.415 122.484 143.85 119.92 142.164 119.077C139.856 117.908 137.366 117.145 134.8 116.821C132.964 116.596 132.241 119.443 134.105 119.675Z" fill="#E27152"/>
<path d="M147.446 123.355L143.748 130.942C142.926 132.636 145.468 134.071 146.293 132.367L149.99 124.781C150.822 123.089 148.27 121.651 147.446 123.355Z" fill="#E27152"/>
<path d="M150.371 120.339C150.747 120.43 151.143 120.368 151.474 120.165C151.805 119.962 152.043 119.635 152.135 119.256C152.227 118.878 152.166 118.478 151.966 118.146C151.765 117.814 151.441 117.576 151.065 117.484C150.69 117.393 150.293 117.456 149.962 117.659C149.631 117.862 149.394 118.188 149.301 118.567C149.209 118.945 149.27 119.345 149.471 119.677C149.671 120.009 149.995 120.247 150.371 120.339Z" fill="#E27152"/>
<path d="M154.292 126.836C152.767 128.249 150.831 130.247 150.212 132.293C149.52 134.604 151.959 136.135 153.954 136.157C154.999 136.106 156.014 135.78 156.897 135.211C157.78 134.643 158.5 133.851 158.985 132.917C160.227 130.77 158.966 128.881 157.65 127.139C156.532 125.648 154.022 127.163 155.154 128.678C155.652 129.344 156.723 130.451 156.52 131.289C156.315 131.802 155.978 132.251 155.544 132.59C155.109 132.929 154.594 133.145 154.049 133.217C152.347 133.266 153.469 132.189 154.055 131.384C154.74 130.472 155.509 129.626 156.351 128.859C157.734 127.573 155.638 125.541 154.254 126.827L154.292 126.836Z" fill="#E27152"/>
<path d="M162.203 131.12L159.313 137.159C158.619 138.613 160.463 140.16 161.632 138.892C162.325 138.142 163.057 137.429 163.823 136.755C164.61 136.07 165.577 135.549 166.345 134.859L166.261 134.385C166.189 134.68 166.119 134.966 166.104 135.274C165.986 135.76 165.873 136.226 165.799 136.732C165.517 137.893 165.234 139.054 164.867 140.194C164.307 142.002 167.142 142.683 167.7 140.883C168.322 138.988 168.794 137.048 169.113 135.079C169.29 134.456 169.227 133.788 168.938 133.21C168.649 132.632 168.154 132.185 167.552 131.958C166.143 131.454 164.864 132.312 163.773 133.054C162.259 134.171 160.851 135.428 159.568 136.808L161.897 138.544L164.778 132.503C165.593 130.796 163.049 129.371 162.234 131.077L162.203 131.12Z" fill="#E27152"/>
<path d="M177.234 135.665C175.997 134.991 173.807 133.591 172.346 134.334C170.884 135.077 170.85 136.943 171.24 138.217C171.81 139.989 173.209 141.226 174.131 142.781C174.582 143.399 174.837 144.138 174.865 144.905C174.742 145.782 174.729 145.466 174.009 145.462C172.771 145.453 171.288 144.518 170.242 143.921C169.906 143.745 169.515 143.709 169.151 143.819C168.787 143.93 168.48 144.178 168.295 144.512C168.11 144.846 168.061 145.239 168.158 145.607C168.256 145.976 168.492 146.291 168.818 146.487C171.09 147.796 175.977 150.245 177.444 146.681C177.701 145.939 177.804 145.152 177.745 144.37C177.685 143.587 177.466 142.826 177.1 142.133C176.686 141.246 173.244 137.425 174.172 136.613L172.782 137.021C173.865 137.23 174.898 137.642 175.828 138.236C176.164 138.411 176.556 138.447 176.92 138.337C177.283 138.227 177.59 137.978 177.775 137.645C177.961 137.311 178.01 136.918 177.912 136.549C177.815 136.18 177.578 135.865 177.253 135.67L177.234 135.665Z" fill="#E27152"/>
</g>
<defs>
<clipPath id="clip0_101_4302">
<rect width="182" height="109" fill="white" transform="translate(25.7766 0.306885) rotate(13.679)"/>
</clipPath>
</defs>
</svg>
