<svg width="30" height="26" viewBox="0 0 30 26" fill="none" xmlns="http://www.w3.org/2000/svg">
<path d="M15 24.7857C20.3256 24.7857 24.6429 20.4685 24.6429 15.1429C24.6429 9.81725 20.3256 5.5 15 5.5C9.6744 5.5 5.35714 9.81725 5.35714 15.1429C5.35714 20.4685 9.6744 24.7857 15 24.7857Z" stroke="#383736" stroke-width="2.14286" stroke-linecap="round" stroke-linejoin="round"/>
<path d="M5.35714 15.1428H1.07143" stroke="#383736" stroke-width="2.14286" stroke-linecap="round" stroke-linejoin="round"/>
<path d="M1.07143 22.643C2.14067 22.6461 3.19794 22.4179 4.17071 21.974C5.14348 21.5302 6.00874 20.8812 6.70714 20.0715" stroke="#383736" stroke-width="2.14286" stroke-linecap="round" stroke-linejoin="round"/>
<path d="M6.70714 10.2143C6.00874 9.40464 5.14348 8.75564 4.17071 8.31179C3.19794 7.86794 2.14067 7.63974 1.07143 7.64285" stroke="#383736" stroke-width="2.14286" stroke-linecap="round" stroke-linejoin="round"/>
<path d="M24.6429 15.1428H28.9286" stroke="#383736" stroke-width="2.14286" stroke-linecap="round" stroke-linejoin="round"/>
<path d="M28.9286 22.643C27.8593 22.6461 26.8021 22.4179 25.8293 21.974C24.8565 21.5302 23.9913 20.8812 23.2929 20.0715" stroke="#383736" stroke-width="2.14286" stroke-linecap="round" stroke-linejoin="round"/>
<path d="M23.2929 10.2143C23.9913 9.40464 24.8565 8.75564 25.8293 8.31179C26.8021 7.86794 27.8593 7.63974 28.9286 7.64285" stroke="#383736" stroke-width="2.14286" stroke-linecap="round" stroke-linejoin="round"/>
<path d="M17.6571 5.86436C18.4771 5.396 19.1586 4.71924 19.6328 3.90264C20.107 3.08604 20.3568 2.15863 20.3571 1.21436" stroke="#383736" stroke-width="2.14286" stroke-linecap="round" stroke-linejoin="round"/>
<path d="M9.64286 1.21436C9.64316 2.15863 9.89305 3.08604 10.3672 3.90264C10.8414 4.71924 11.5229 5.396 12.3429 5.86436" stroke="#383736" stroke-width="2.14286" stroke-linecap="round" stroke-linejoin="round"/>
<path d="M5.59286 13H24.4071" stroke="#383736" stroke-width="2.14286" stroke-linecap="round" stroke-linejoin="round"/>
</svg>
