<svg width="41" height="62" viewBox="0 0 41 62" fill="none" xmlns="http://www.w3.org/2000/svg">
<path fill-rule="evenodd" clip-rule="evenodd" d="M5.68011 1.68514C5.27898 2.41453 4.90513 3.16938 4.62679 3.9497C3.66167 6.7105 0.878883 16.0957 0.446935 18.0168C0.291645 18.5936 0.213598 19.2637 0.294871 19.849C0.441633 20.8881 1.44216 21.2277 2.23224 20.5111C2.5214 20.2609 2.75836 19.8877 2.92709 19.5146C3.4082 18.4247 3.85748 17.3263 4.24309 16.211C5.38855 12.8437 6.52267 9.45524 7.58854 6.06676C7.9423 4.94292 8.14145 3.75967 8.32011 2.58913C8.45297 1.71548 7.97387 0.896809 7.35525 0.786393C6.62065 0.663226 6.04247 1.03632 5.68011 1.68514ZM21.3722 30.0879C21.5033 29.844 21.622 29.6136 21.7354 29.3936L21.7354 29.3936C21.9768 28.9251 22.1936 28.5044 22.4525 28.1032C26.2758 22.1409 31.1649 17.2263 36.438 12.7233C37.0573 12.1976 37.7789 11.7354 38.5093 11.4938C38.903 11.3625 39.5625 11.5747 39.8851 11.8971C40.126 12.1432 40.1548 12.8599 39.9907 13.2162C39.6874 13.899 39.2522 14.5647 38.7444 15.1202C35.4012 18.7924 32.0466 22.4434 28.6648 26.0689C27.6721 27.1274 26.6531 28.1678 25.6359 29.2062L25.6358 29.2063C25.3532 29.4948 25.0707 29.7832 24.7889 30.0718C24.3608 30.5212 23.9054 30.9453 23.4432 31.3311C22.9309 31.7763 22.287 31.9501 21.8257 31.4452C21.7967 31.4131 21.7673 31.3814 21.7379 31.3499L21.7378 31.3498C21.461 31.0528 21.1906 30.7626 21.3722 30.0879ZM36.3445 61.0144L36.3441 61.0142C35.8135 60.7812 35.2515 60.5344 34.7157 60.2463L34.7139 60.2453C31.5431 58.5273 28.3724 56.8092 25.2266 55.0615C24.5446 54.6796 23.9151 54.1663 23.3629 53.619C22.6199 52.8936 22.5047 52.1175 22.8535 51.3923C23.2023 50.6672 23.9032 50.345 24.9106 50.5955C25.5997 50.761 26.3274 50.9733 26.9344 51.3169C30.9058 53.6123 34.8681 55.9416 38.8099 58.2836C39.2509 58.5467 39.6805 58.9157 39.9552 59.3526C40.6547 60.4301 40.0165 61.6598 38.7518 61.668C38.4398 61.6653 38.1206 61.588 37.7677 61.5025L37.7676 61.5025C37.5623 61.4527 37.3455 61.4002 37.112 61.358C36.869 61.2446 36.6107 61.1312 36.3445 61.0144Z" fill="#E27152"/>
</svg>
