<svg width="209" height="177" viewBox="0 0 209 177" fill="none" xmlns="http://www.w3.org/2000/svg">
<path d="M206.423 171.993C168.947 167.89 131.43 174.399 93.9119 172.34C77.7193 171.453 61.4921 168.95 46.1849 163.481C38.4417 160.752 31.0343 157.147 24.106 152.736C17.4588 148.466 10.6871 143.391 6.52304 136.528C2.58037 130.033 2.13077 122.352 6.3432 115.877C10.0438 110.214 16.1514 106.408 22.1346 103.559C28.3933 100.56 35.0263 98.4198 41.8549 97.195C48.3568 96.0581 56.1038 95.7184 61.9141 99.448C75.1393 107.975 65.7046 127.177 52.4932 129.256C34.5091 132.029 22.2245 114.331 18.0813 99.247C13.6475 83.1227 12.1949 64.9534 13.5092 48.2814C14.7611 32.3374 19.8797 16.4834 32.5724 6.04353C34.2186 4.65709 31.8806 2.34172 30.2206 3.6935C18.2266 13.558 12.6031 28.2335 10.7009 43.318C8.62583 59.9067 10.113 77.4314 13.3847 93.7844C16.691 110.276 25.4824 128.016 43.342 132.106C50.1898 133.665 57.3558 132.57 62.9101 128.147C68.1117 123.988 71.7915 117.416 71.6808 110.664C71.5905 107.547 70.655 104.514 68.9746 101.889C67.2941 99.2644 64.9322 97.148 62.1424 95.767C55.7995 92.5505 48.3084 92.7792 41.4606 93.923C28.2146 96.1344 11.9943 102.048 3.98449 113.5C-6.14886 127.988 5.07052 142.982 16.9331 151.807C31.4587 162.614 48.8065 168.992 66.4585 172.402C112.802 181.352 159.872 170.233 206.458 175.335C208.574 175.564 208.533 172.236 206.458 172.007L206.423 171.993Z" fill="#E27152"/>
<path d="M14.6503 5.38495C21.5672 4.77491 28.5534 6.54958 35.1452 3.58953L32.7104 1.71085C30.0192 10.1205 29.0938 18.9973 29.9921 27.7828C30.2065 29.8625 33.5336 29.911 33.3122 27.7828C32.4299 19.298 33.3156 10.7221 35.913 2.59819C36.3903 1.08004 34.6956 0.17195 33.4713 0.719593C27.6057 3.35383 20.8409 1.50982 14.6503 2.05746C12.5752 2.24463 12.5198 5.57212 14.6503 5.38495Z" fill="#E27152"/>
</svg>
