<svg width="60" height="61" viewBox="0 0 60 61" fill="none" xmlns="http://www.w3.org/2000/svg">
<path d="M25.4686 57.746C26.7692 56.7794 27.7119 55.3863 29.3204 54.8799L29.1873 55.5851C27.4136 54.5363 25.8753 53.1323 24.6691 51.4612C24.3839 51.0653 24.9564 50.5408 25.248 50.9462C26.4103 52.5623 27.895 53.9201 29.608 54.9336C29.9267 55.1243 29.7721 55.5455 29.4737 55.6399C28.0424 56.0905 27.1491 57.4613 25.9848 58.3261C25.594 58.6154 25.0682 58.0438 25.4686 57.746Z" fill="#E27152"/>
<path d="M34.2907 0.903912C28.4022 7.34157 20.9672 12.0553 14.7749 18.166C12.1022 20.8031 9.6577 23.7089 7.80277 26.9568C6.859 28.5936 6.10035 30.3216 5.54148 32.1071C5.01086 33.8265 4.57533 35.6962 4.85039 37.456C5.11045 39.1218 6.14678 40.4433 7.81473 40.8505C9.27648 41.2042 10.8852 40.8845 12.3336 40.4281C13.8514 39.9535 15.3094 39.2815 16.6685 38.4301C17.9583 37.6146 19.3478 36.4775 19.8121 34.9751C20.8634 31.5493 16.4458 29.871 13.8584 31.5655C10.3448 33.8817 10.7866 38.6579 12.2578 41.7549C13.8296 45.0662 16.2137 48.252 18.8594 50.7678C21.3887 53.1745 24.5739 54.9713 28.2842 54.7196C28.7701 54.6923 28.7015 55.4296 28.2182 55.4648C24.7122 55.7027 21.6106 54.1757 19.0935 52.0093C16.3283 49.6242 14.0436 46.5382 12.2376 43.3685C10.4175 40.1708 9.36533 35.9255 11.8619 32.5096C12.8204 31.2012 14.2191 30.2768 15.8216 30.1429C17.3248 30.0203 18.9147 30.5253 19.8749 31.6431C20.3114 32.1652 20.5896 32.8038 20.6796 33.4904C20.7695 34.1769 20.6679 34.8855 20.3855 35.5401C19.7547 37.0408 18.4255 38.1566 17.0749 39.0242C14.4624 40.7026 10.7985 42.2353 7.75155 41.6012C3.89684 40.7989 3.66294 36.6274 4.43525 33.3627C5.3807 29.3648 7.45693 25.6548 10.0162 22.3816C16.7359 13.789 26.4923 8.35645 33.812 0.35383C34.145 -0.00926697 34.6205 0.539613 34.2947 0.896321L34.2907 0.903912Z" fill="#E27152"/>
</svg>
