<svg width="81" height="59" viewBox="0 0 81 59" fill="none" xmlns="http://www.w3.org/2000/svg">
<path d="M19.2705 49.1495C18.0323 47.6314 15.2932 46.9382 14.062 48.9138C13.4118 49.9537 13.5086 51.5481 13.5155 52.7196C13.4339 54.0628 13.6833 55.4056 14.2418 56.6294C15.4454 58.7784 18.2191 58.709 19.6371 56.8096C20.3843 55.7111 20.7693 54.4056 20.7383 53.0765C20.7073 51.7474 20.2618 50.4614 19.4642 49.3991C18.5096 48.1443 16.3445 49.399 17.3198 50.6607C17.71 51.1227 17.9856 51.6707 18.1238 52.2599C18.2621 52.8491 18.2592 53.4627 18.1153 54.0505C17.9216 55.0002 16.7319 56.6848 16.2131 54.8963C15.9894 53.9125 15.924 52.8991 16.0194 51.8946C16.0194 51.444 15.9296 50.4389 16.4068 50.2032C16.8841 49.9675 17.3129 50.6746 17.5135 50.8964C18.5234 52.1581 20.2803 50.3834 19.2705 49.1495Z" fill="#E27152"/>
<path d="M21.2489 46.2935C21.1645 49.3275 21.4903 52.3589 22.2172 55.3054C22.5769 56.7611 24.5275 56.2967 24.6658 54.9726C24.9286 52.3731 24.1055 49.3367 25.8763 47.0422C26.1806 46.647 25.9316 46.6054 26.2221 47.2986C26.5126 47.9919 26.8239 48.595 27.1213 49.2397L28.9267 53.1078C29.6184 54.5636 31.7488 53.302 31.0778 51.8531C30.0818 49.725 29.231 47.4373 28.069 45.3923C27.4188 44.2415 26.2083 43.3681 24.9286 44.2347C23.649 45.1012 23.0265 47.0075 22.6322 48.3454C21.9405 50.5776 22.404 52.7127 22.1757 54.9726L24.6174 54.6399C23.9538 51.919 23.6583 49.1211 23.7389 46.3213C23.7874 44.713 21.2973 44.713 21.2489 46.3213V46.2935Z" fill="#E27152"/>
<path d="M47.6644 30.8416C41.3215 29.3304 38.1536 35.4654 39.1497 41.0181C39.6131 43.5692 40.948 46.0716 43.4381 47.1184C46.3917 48.3523 49.3937 46.5915 51.8561 45.0387C53.2395 44.193 51.9668 42.0302 50.6041 42.8828C49.1239 43.8048 47.5468 44.8724 45.7622 44.9071C43.5419 44.9487 42.3038 43.2711 41.7366 41.2122C40.7336 37.5659 42.2139 32.0964 47.0073 33.2402C48.5636 33.6076 49.2277 31.2021 47.699 30.8277L47.6644 30.8416Z" fill="#E27152"/>
<path d="M51.9738 28.4777C52.3542 33.0807 53.5439 37.4896 54.8305 41.9055C55.2801 43.4444 57.6872 42.7928 57.2375 41.2122C56.0132 37.0113 54.8304 32.8173 54.4708 28.4431C54.3393 26.8556 51.8492 26.8418 51.9806 28.4431L51.9738 28.4777Z" fill="#E27152"/>
<path d="M64.4729 23.1469C65.2476 28.3922 66.2436 33.596 67.461 38.7582C67.8345 40.3318 70.1587 39.6525 69.8613 38.065C68.9206 33.1015 72.3514 27.8053 74.2743 23.4103C74.8968 21.9753 72.9463 20.7276 72.1231 22.1487C70.1727 25.3612 68.4863 28.7275 67.0806 32.2142C67.0309 32.3997 67.0242 32.5942 67.0613 32.7827C67.0984 32.9711 67.1782 33.1485 67.2944 33.3012C67.4107 33.4539 67.5604 33.5778 67.732 33.6634C67.9036 33.749 68.0925 33.7939 68.2842 33.7947C70.0688 33.566 72.1715 34.7583 73.8178 35.3753C75.464 35.9923 77.1725 36.6924 78.8464 37.3787C80.3266 37.9818 80.9768 35.5694 79.5381 34.9733C76.3978 33.6908 71.7841 30.8694 68.3464 31.2992L69.543 32.8728C70.8817 29.5934 72.4849 26.4287 74.3365 23.4103L72.1854 22.1487C69.9373 27.2924 66.4235 32.9213 67.5233 38.7304L69.9235 38.0372C68.7061 32.8751 67.7101 27.6713 66.9354 22.4259C66.7002 20.8454 64.3 21.5178 64.5352 23.1191L64.4729 23.1469Z" fill="#E27152"/>
<path d="M53.2466 29.5174C56.297 29.7739 60.1635 28.4499 61.1526 32.4775C61.9204 35.6455 61.0974 40.1029 57.1547 40.6228C55.5845 40.8169 55.5638 43.3126 57.1547 43.1185C62.2041 42.4877 64.4175 37.8084 63.7811 33.1638C63.4975 31.0841 62.8888 29.0045 61.0143 27.8745C58.6902 26.4257 55.7989 27.2437 53.2327 27.0219C51.6349 26.8902 51.6487 29.3857 53.2327 29.5174H53.2466Z" fill="#E27152"/>
<path d="M32.1362 18.2181C33.1668 20.5611 34.3081 22.8418 35.5947 25.0809C36.3763 26.4674 38.5275 25.2195 37.7459 23.8192C36.4962 21.5871 35.3434 19.2994 34.2874 16.9563C33.6441 15.4937 31.5206 16.7554 32.1362 18.2181Z" fill="#E27152"/>
<path d="M32.219 15.1818C32.5492 15.1818 32.8659 15.0503 33.0994 14.8163C33.3329 14.5823 33.4641 14.2649 33.4641 13.9339C33.4641 13.603 33.3329 13.2857 33.0994 13.0517C32.8659 12.8177 32.5492 12.6862 32.219 12.6862C31.8888 12.6862 31.5721 12.8177 31.3386 13.0517C31.1051 13.2857 30.9739 13.603 30.9739 13.9339C30.9739 14.2649 31.1051 14.5823 31.3386 14.8163C31.5721 15.0503 31.8888 15.1818 32.219 15.1818Z" fill="#E27152"/>
<path d="M35.4909 2.5859C37.566 9.26855 38.8526 18.2249 43.8259 23.4657C43.9616 23.5986 44.1255 23.6991 44.3054 23.7597C44.4853 23.8202 44.6765 23.8392 44.8648 23.8152C45.053 23.7912 45.2334 23.7248 45.3925 23.6211C45.5515 23.5173 45.6852 23.3789 45.7833 23.2161L47.3327 20.0897C48.0244 18.6547 45.9009 17.3931 45.1816 18.8281L43.6322 21.9545L45.5896 21.705C43.1341 19.1123 42.1311 15.5144 41.0867 12.1939C40.0422 8.8734 38.9563 5.34495 37.891 1.92738C37.4207 0.395364 35.0136 1.04696 35.4909 2.5859Z" fill="#E27152"/>
<path d="M46.8623 1.53917C48.6719 7.40451 50.8221 13.1588 53.3019 18.7726C53.9314 20.159 54.5539 22.2388 56.3177 22.5785C57.7011 22.8141 58.4689 22.0862 58.9116 20.9008C59.4649 19.3896 57.0648 18.738 56.5114 20.2076C56.8365 19.3272 55.0589 16.6029 54.7061 15.771C53.9314 13.9594 53.1936 12.1316 52.4927 10.2876C51.3099 7.17504 50.2516 4.04862 49.2624 0.845946C48.7921 -0.68607 46.385 -0.034443 46.8623 1.53917Z" fill="#E27152"/>
<path d="M49.0341 13.1021C50.7267 11.9047 52.5124 10.8452 54.374 9.93406C55.8127 9.24084 54.5469 7.07107 53.1151 7.77816C51.2534 8.68934 49.4678 9.74879 47.7752 10.9462C46.4748 11.8613 47.7199 14.031 49.0341 13.1021Z" fill="#E27152"/>
<path d="M0.594594 15.5214L5.00762 41.3993C5.27738 42.9798 7.67755 42.3074 7.40779 40.7061L2.99476 14.8282C2.725 13.2477 0.324832 13.9201 0.594594 15.5214Z" fill="#E27152"/>
<path d="M2.87019 16.6306C4.18862 16.3404 5.56103 16.4147 6.84061 16.8455C8.75661 17.5387 9.41365 18.2943 9.44823 20.3116C9.48973 23.0845 7.17947 25.6078 4.60636 26.606L5.98975 28.4431C8.56978 24.7967 15.6182 26.7377 15.134 31.3476C14.7052 35.4237 10.5065 38.1135 7.04807 39.5623C5.58859 40.1724 6.22495 42.5847 7.73976 41.9678C13.3218 39.6316 20.0866 34.1552 17.1884 27.223C15.1617 22.3704 6.46706 23.5211 3.8732 27.1813C3.75533 27.394 3.70171 27.6365 3.71885 27.8792C3.73599 28.1219 3.82312 28.3544 3.96971 28.5483C4.11631 28.7423 4.31599 28.8893 4.54446 28.9715C4.77294 29.0538 5.02038 29.0676 5.25659 29.0115C8.57674 27.7359 13.5016 23.2924 12.6301 19.3064C11.6617 14.8906 6.01748 13.4625 2.25466 14.2112C0.684505 14.5162 1.34853 16.9217 2.94635 16.6167L2.87019 16.6306Z" fill="#E27152"/>
<path d="M21.6431 22.9666C21.5047 24.9561 22.8467 31.4516 26.1876 30.0582C27.6401 29.4482 27.8822 27.0566 28.0828 25.7325C28.2834 24.4085 28.7745 22.0793 27.6471 21.1434C27.4302 20.9402 27.1483 20.8208 26.8517 20.8065C26.5551 20.7923 26.2631 20.8843 26.0279 21.0659C25.7927 21.2475 25.6295 21.5069 25.5675 21.798C25.5055 22.089 25.5488 22.3927 25.6896 22.6547C26.8922 24.8825 28.6151 26.7853 30.7112 28.2004C32.0324 29.1086 33.2775 26.9527 31.9632 26.0445C30.2274 24.8532 28.8038 23.2599 27.8131 21.3999L25.8556 22.9112C25.8317 23.6921 25.7531 24.4705 25.6203 25.2404C25.5166 25.9336 25.3852 27.5211 24.7973 28.0133L25.6827 27.6458C24.3754 27.7567 24.0572 23.6182 24.1056 22.9458C24.2093 21.3444 21.7192 21.3514 21.6155 22.9458L21.6431 22.9666Z" fill="#E27152"/>
</svg>
