<svg width="50" height="54" viewBox="0 0 50 54" fill="none" xmlns="http://www.w3.org/2000/svg">
<path fill-rule="evenodd" clip-rule="evenodd" d="M3.73596 1.58674C3.43012 2.31286 3.15726 3.05912 2.98954 3.81697C2.41692 6.49581 0.997113 15.5397 0.852098 17.3737C0.781477 17.9275 0.807691 18.5581 0.988638 19.0901C1.3125 20.0342 2.42574 20.223 3.14501 19.4598C3.41021 19.1917 3.60026 18.8162 3.71813 18.4493C4.05006 17.3792 4.34694 16.3052 4.57373 15.2235C5.23864 11.9602 5.88811 8.67867 6.4654 5.40571C6.65714 4.32015 6.67571 3.199 6.67469 2.0922C6.6734 1.26618 6.03384 0.568044 5.36169 0.543545C4.5648 0.521819 4.01389 0.940135 3.73596 1.58674ZM24.9422 25.9246C25.0412 25.6822 25.1294 25.4538 25.2135 25.2358L25.2135 25.2358C25.3928 24.7715 25.5538 24.3544 25.7626 23.9503C28.8383 17.9463 33.2112 12.779 38.0571 7.94457C38.6267 7.37964 39.3148 6.86082 40.0481 6.54518C40.4431 6.37397 41.1749 6.48764 41.5685 6.74573C41.8632 6.94337 42.01 7.60374 41.8942 7.95437C41.6843 8.625 41.3321 9.29646 40.8852 9.8749C37.9455 13.697 34.9904 17.5009 32.0022 21.2846C31.1243 22.39 30.2154 23.4818 29.3082 24.5717L29.308 24.5718L29.3066 24.5736C29.055 24.8758 28.8035 25.1779 28.5529 25.48C28.1731 25.9502 27.7603 26.4003 27.3341 26.8158C26.8646 27.2927 26.2118 27.5346 25.6421 27.1249C25.6061 27.0988 25.5698 27.0731 25.5336 27.0476C25.1926 26.8072 24.8595 26.5725 24.9422 25.9246ZM46.6635 52.9129C46.3879 52.8383 46.0962 52.7657 45.7955 52.6909L45.7953 52.6908C45.1965 52.5418 44.562 52.3838 43.9487 52.1843L43.9484 52.1842L43.9482 52.1841C40.3154 50.9911 36.6826 49.798 33.0715 48.5743C32.2883 48.3063 31.5392 47.9099 30.8664 47.4724C29.9628 46.8939 29.715 46.1893 29.9662 45.4737C30.2174 44.7581 30.9064 44.3715 32.0125 44.4768C32.7681 44.5436 33.5721 44.6487 34.2698 44.8907C38.8426 46.5177 43.4112 48.1773 47.9602 49.8513C48.4693 50.0395 48.9834 50.3274 49.3449 50.6976C50.2596 51.6077 49.7842 52.8272 48.4479 52.9938C48.1175 53.0305 47.7674 52.999 47.3803 52.9642L47.3803 52.9642C47.155 52.944 46.9172 52.9226 46.6635 52.9129Z" fill="#383736"/>
</svg>
