<svg width="96" height="140" viewBox="0 0 96 140" fill="none" xmlns="http://www.w3.org/2000/svg">
<path d="M1.4077 137.049C12.0832 137.398 22.7411 135.944 32.9336 132.751C35.4183 131.97 37.8771 131.092 40.2843 130.098C42.6002 129.208 44.7962 128.033 46.8218 126.601C50.5972 123.774 53.3851 119.321 52.6301 114.448C51.9847 110.499 48.7579 107.775 45.1374 106.569C41.3293 105.397 37.2524 105.428 33.4629 106.659C29.3155 107.88 25.6507 110.361 22.9757 113.758C21.6905 115.433 20.8257 117.392 20.454 119.471C20.0823 121.549 20.2145 123.687 20.8395 125.703C22.3011 129.963 25.3313 133.506 29.3131 135.61C33.8307 138.049 38.9936 138.837 44.021 139.024C49.0483 139.211 54.2241 139.024 59.0514 137.527C63.3298 136.178 67.1855 133.743 70.242 130.46C76.302 124.006 79.3868 115.3 81.4455 106.84C83.8998 96.2896 85.2388 85.511 85.4402 74.6812C85.773 64.0346 85.3979 53.3777 84.3173 42.7809C83.2331 32.4552 81.652 21.9099 83.459 11.5971C83.8936 9.06871 84.5413 6.58166 85.3951 4.16249C86.0405 2.40066 83.2138 1.63912 82.5943 3.38805C79.2319 12.8749 79.4319 23.0393 80.3613 32.9198C80.8195 37.8181 81.4455 42.6971 81.865 47.5954C82.2909 52.6034 82.4587 57.6307 82.562 62.6516C82.8663 72.8787 82.3614 83.1137 81.0518 93.2611C80.3615 98.3177 79.368 103.328 78.0767 108.266C77.0779 112.227 75.6946 116.081 73.9464 119.773C72.2851 123.311 70.0303 126.54 67.2798 129.318C64.285 132.223 60.5579 134.262 56.4958 135.216C51.8944 136.326 47.0154 136.352 42.2978 136.029C37.7803 135.72 33.0756 134.79 29.2551 132.196C26.1057 130.06 23.4468 126.523 23.1241 122.632C22.8015 118.74 24.744 115.475 27.5772 113.048C30.424 110.657 33.9121 109.158 37.606 108.737C40.8328 108.401 44.5501 108.827 47.209 110.867C50.2551 113.203 50.4358 117.198 48.6482 120.392C46.4539 124.316 42.0913 126.323 38.0836 127.885C28.7065 131.554 18.7914 133.662 8.73254 134.125C6.29308 134.233 3.84932 134.246 1.40124 134.164C-0.470306 134.106 -0.463853 137.01 1.40124 137.068L1.4077 137.049Z" fill="#E27152"/>
<path d="M70.2163 12.1779C73.3785 10.8872 76.7086 9.82882 79.7289 8.22833C81.0335 7.58598 82.2101 6.7112 83.2009 5.64688C83.6556 5.11645 84.0617 4.54625 84.4142 3.94314C84.4981 3.80116 84.924 2.9751 85.1112 2.95574L83.7108 1.11645C82.2458 8.68654 87.7508 14.5464 92.8298 19.2898C94.1915 20.5805 96.2502 18.5154 94.882 17.2311C90.713 13.359 85.2855 8.24125 86.4923 1.89089C86.6536 1.05838 86.1051 -0.0451946 85.0919 0.0516096C83.4849 0.21295 82.6266 1.25843 81.8651 2.56852C81.1397 3.74727 80.1242 4.72046 78.9157 5.3952C77.626 6.11051 76.2842 6.7275 74.9016 7.24093L69.4547 9.40935C69.0887 9.52048 68.7795 9.76799 68.591 10.1007C68.4024 10.4334 68.3488 10.8259 68.4415 11.197C68.547 11.5666 68.7935 11.88 69.1279 12.0696C69.4623 12.2591 69.8579 12.3096 70.2292 12.2102L70.2163 12.1779Z" fill="#E27152"/>
</svg>
