<svg width="96" height="81" viewBox="0 0 96 81" fill="none" xmlns="http://www.w3.org/2000/svg">
<path d="M93.8172 77.0887C85.6147 77.5792 77.3217 78.031 69.145 76.9919C61.2329 75.9916 53.7596 73.2876 47.3834 68.4473C41.0072 63.6071 35.967 57.4116 31.301 51.1C26.3757 44.4503 21.9904 37.417 18.1873 30.0676C13.9685 21.9093 10.4911 13.3886 7.79692 4.60812C7.24837 2.82692 4.4475 3.58843 4.99606 5.38254C9.95717 21.5187 17.4885 36.7491 27.2998 50.4869C32.0496 57.1406 37.2319 63.7233 43.5048 69.0088C46.6285 71.6994 50.1019 73.955 53.8306 75.7141C57.5846 77.4177 61.5402 78.6365 65.602 79.341C74.9146 81.0061 84.4207 80.5285 93.8107 79.9864C95.6694 79.8767 95.6823 76.9726 93.8107 77.0823L93.8172 77.0887Z" fill="#E27152"/>
<path d="M2.98897 13.5529C4.15062 9.61186 5.38111 5.69451 6.68044 1.80082L3.87957 1.03284C2.93089 4.7824 7.46133 7.7898 10.2622 9.29349C13.499 10.9257 16.9588 12.0717 20.5299 12.6945C22.3563 13.0689 23.1114 10.268 21.3043 9.89368C18.3186 9.37533 15.4092 8.48646 12.6436 7.24769C11.3268 6.63798 10.0875 5.87318 8.95212 4.96956C8.15187 4.32419 6.37066 3.03346 6.68044 1.79436C7.1451 -0.0255611 4.46685 -0.741915 3.87957 1.02638C2.58884 4.89856 1.35835 8.81376 0.188097 12.772C-0.3411 14.5661 2.45977 15.3534 2.98897 13.5464V13.5529Z" fill="#E27152"/>
</svg>
