<svg width="46" height="59" viewBox="0 0 46 59" fill="none" xmlns="http://www.w3.org/2000/svg">
<path fill-rule="evenodd" clip-rule="evenodd" d="M8.26274 58.1416C9.10143 58.1596 9.94918 58.1419 10.7726 58.0284C13.6761 57.6096 23.3027 55.7474 25.2058 55.245C25.7897 55.1167 26.418 54.8776 26.8935 54.5371C27.7366 53.9305 27.5455 52.8938 26.5276 52.5275C26.1657 52.3879 25.7211 52.3507 25.3098 52.3736C24.1146 52.4508 22.9274 52.56 21.7565 52.7329C18.2306 53.2716 14.6916 53.83 11.186 54.4485C10.0232 54.6534 8.88381 55.0218 7.76566 55.4023C6.93133 55.6867 6.44516 56.4846 6.65093 57.0799C6.90228 57.7831 7.51397 58.1207 8.26274 58.1416ZM25.5849 31.2784C25.306 31.275 25.0449 31.2764 24.7957 31.2777L24.7957 31.2777C24.265 31.2804 23.7883 31.2828 23.3083 31.2392C16.186 30.6128 9.46428 28.5668 2.9168 25.9938C2.15055 25.6902 1.39023 25.2673 0.819763 24.7353C0.511265 24.4491 0.37513 23.7711 0.500967 23.3389C0.599639 23.0138 1.21664 22.6592 1.61069 22.64C2.36039 22.5933 3.15975 22.6705 3.89758 22.8623C8.7683 24.1183 13.6259 25.3939 18.4745 26.7052C19.8927 27.0928 21.308 27.5119 22.7206 27.9303C23.113 28.0465 23.5052 28.1627 23.8972 28.2781C24.5027 28.4485 25.0991 28.6546 25.6652 28.8841C26.3081 29.1306 26.7764 29.6176 26.5579 30.2556C26.5437 30.2959 26.5303 30.3364 26.5169 30.3768C26.391 30.757 26.2679 31.1283 25.5849 31.2784ZM45.409 3.05658C45.4282 3.32279 45.4549 3.60242 45.4824 3.89065L45.4824 3.89075C45.5372 4.46477 45.5951 5.07285 45.6039 5.67683L45.6039 5.67868C45.6441 9.25929 45.6844 12.8399 45.6862 16.4121C45.6841 17.1879 45.5404 17.9779 45.329 18.7154C45.0542 19.7028 44.4273 20.1608 43.6179 20.1869C42.8086 20.213 42.1816 19.744 41.9087 18.7421C41.717 18.0594 41.5474 17.3214 41.5527 16.6291C41.6286 12.0785 41.7389 7.52039 41.8704 2.97442C41.886 2.46535 42.0006 1.91768 42.2507 1.47507C42.8568 0.364341 44.2522 0.361153 44.8789 1.47073C45.0292 1.74663 45.1175 2.06312 45.2151 2.41302L45.2151 2.41305C45.2719 2.61672 45.3318 2.8317 45.409 3.05658Z" fill="#383736"/>
</svg>
