<svg width="103" height="133" viewBox="0 0 103 133" fill="none" xmlns="http://www.w3.org/2000/svg">
<g clip-path="url(#clip0_101_4371)">
<path d="M5.59824 10.5423C3.82191 12.5611 4.18229 16.6038 3.96378 19.128C3.64642 22.7737 3.40411 26.4253 3.23687 30.0827C3.18098 31.3053 4.53994 32.4128 5.64791 31.5002C12.1122 26.1386 19.4332 19.7993 22.2126 11.6184C22.8317 9.78899 20.063 8.59321 19.4414 10.4432C16.8215 18.1535 9.91505 24.0765 3.81404 29.0993L6.22009 30.5174C6.36187 27.4979 6.55105 24.4793 6.78764 21.4616C6.90441 20.0356 7.03116 18.6084 7.1679 17.18C7.29435 15.8727 7.07054 13.4187 7.97649 12.3893C9.26518 10.9326 6.87695 9.08681 5.59762 10.5373L5.59824 10.5423Z" fill="#E27152"/>
<path d="M22.9486 35.6964C24.7018 36.1421 25.995 37.5363 27.9082 37.5164C29.3404 37.5006 30.8169 36.6992 31.2791 35.2793C32.3791 31.896 27.4436 28.8826 24.5429 29.7242C21.6422 30.5657 18.8343 34.764 20.4045 37.613C22.0595 40.6135 25.713 41.4258 28.8783 41.2048C30.8171 41.0652 30.4403 38.073 28.5064 38.212C27.0947 38.3708 25.6675 38.1133 24.4006 37.4711C22.4422 36.3519 23.0306 34.6022 24.4527 33.2403C25.2637 32.4659 26.0122 32.4945 26.9593 33.0201C27.5572 33.3459 29.0939 34.4972 27.6187 34.4931C26.9743 34.4871 26.1901 33.8856 25.642 33.5941C24.9242 33.2073 24.1606 32.9125 23.369 32.7166C21.4899 32.2359 21.0708 35.2256 22.9337 35.6982L22.9486 35.6964Z" fill="#E27152"/>
<path d="M34.0818 36.0151C33.1644 38.0538 29.9359 42.3752 32.7158 44.2331C35.2895 45.9394 38.4978 42.679 39.7388 40.7166L37.0625 39.5702C36.7363 41.7177 35.923 48.5502 39.5803 48.5364C42.7915 48.5224 45.4941 43.5167 46.3495 40.9792C46.9686 39.1498 44.1999 37.954 43.5784 39.804C43.015 41.4695 42.0289 43.6484 40.5053 44.6835C39.6915 45.2303 39.9411 45.0778 39.8678 43.9169C39.7859 42.6149 39.8479 41.3077 40.0525 40.0192C40.2633 38.6153 38.2006 37.5547 37.3762 38.8727C36.9303 39.5794 36.3958 40.2263 35.7858 40.7975C35.4474 41.1333 34.5654 42.6813 34.8769 41.6398C35.3391 40.1388 36.228 38.6456 36.861 37.2146C37.6541 35.4396 34.8817 34.2544 34.0899 36.0394L34.0818 36.0151Z" fill="#E27152"/>
<path d="M16.0005 27.7416L13.2796 33.7828C12.4866 35.5579 15.254 36.7437 16.0508 34.958L18.7717 28.9168C19.5647 27.1417 16.7979 25.9609 16.0005 27.7416Z" fill="#E27152"/>
<path d="M19.5963 25.9272C21.5277 25.6872 21.1559 22.6944 19.2244 22.9344C17.293 23.1744 17.6698 26.1665 19.5963 25.9272Z" fill="#E27152"/>
<path d="M57.6088 46.5142C55.7198 49.7879 54.2766 57.9142 60.12 58.1607C64.1546 58.328 68.9177 52.3268 67.0326 48.5343C66.9185 48.2608 66.7264 48.027 66.4801 47.8621C66.2339 47.6971 65.9444 47.6083 65.648 47.6068C65.3515 47.6053 65.0612 47.691 64.8132 47.8535C64.5652 48.0159 64.3706 48.2477 64.2536 48.52C62.2354 52.6708 60.2689 56.8304 58.2395 60.9724C56.7437 64.0251 54.9191 67.8581 51.3452 68.8288C47.6235 69.8332 43.3225 67.521 40.4911 65.2491C37.6095 62.9072 35.4408 59.8064 34.2299 56.2972C33.5821 54.4681 30.7915 55.6252 31.4438 57.4486C34.1075 64.938 42.1459 72.9804 50.7725 72.0099C54.8562 71.5531 57.5741 68.4247 59.5031 65.065C62.3291 60.1554 64.5591 54.8133 67.026 49.7052L64.2471 49.6909C65.1987 51.5986 60.8315 56.9529 59.1769 54.2816C58.0468 52.4466 59.4929 49.2787 60.3868 47.7038C61.3582 46.018 58.5727 44.8497 57.6156 46.5286L57.6088 46.5142Z" fill="#E27152"/>
<path d="M71.8904 52.0234C70.9425 52.4321 70.1137 53.0742 69.4812 53.8897C68.8487 54.7052 68.4333 55.6675 68.2736 56.6868C67.9675 58.7508 68.8437 61.2758 71.1039 61.7648C73.0579 62.1957 75.6674 61.2941 76.7467 59.5797C78.1951 57.2877 76.9789 54.7594 75.7455 52.7043C74.7481 51.0402 72.3569 52.8821 73.3461 54.5219C73.8569 55.3701 74.6737 56.6007 74.3385 57.6554C74.1134 58.3722 72.6731 59.0576 71.926 58.8364C71.0479 58.5809 71.1463 57.2923 71.3789 56.5948C71.5135 56.1948 71.7319 55.828 72.0194 55.5189C72.307 55.2098 72.6571 54.9655 73.0465 54.8023C74.8193 54.0198 73.6769 51.2291 71.8891 52.0134L71.8904 52.0234Z" fill="#E27152"/>
<path d="M78.7991 56.9695L77.1219 60.6829C76.7238 61.558 76.1685 62.5133 76.3417 63.4997C76.6683 65.3535 78.726 65.5993 80.2072 65.1215C82.4734 64.3942 88.7123 60.1546 84.74 57.837C83.8603 57.3233 82.8016 58.1437 82.655 59.0027C82.2072 61.5341 81.941 64.0944 81.8584 66.6637C81.7982 68.5858 84.7833 69.0354 84.8416 67.0984C84.9278 64.5293 85.194 61.9694 85.6382 59.4374L83.5488 60.6087L83.8381 60.7753L83.0384 59.968L83.1411 60.3048L83.1477 59.1339C82.8536 59.8301 82.3671 60.4282 81.7452 60.8581C81.0087 61.4561 79.9225 61.6873 79.2477 62.2523C78.5729 62.8173 79.5651 62.3598 79.7468 62.1903C79.9284 62.0209 80.1642 61.2672 80.3073 60.9506L81.5628 58.1659C82.3558 56.3909 79.589 55.2101 78.7916 56.9907L78.7991 56.9695Z" fill="#E27152"/>
<path d="M94.6182 64.1262C92.9568 62.9904 90.8148 62.0662 89.0202 63.4896C87.4872 64.693 86.5664 67.112 85.9144 68.8797L88.6855 70.0549L90.4503 64.5984C91.0438 62.7671 88.2745 61.5664 87.6791 63.4232L85.9137 68.8747C85.324 70.6954 88.0084 71.9067 88.6849 70.0499C89.0777 68.9453 89.5731 67.8799 90.1646 66.8675C90.3437 66.4979 90.5783 66.1579 90.8604 65.8593C91.4789 65.4532 92.2917 66.1626 92.763 66.489C94.3584 67.5824 96.2223 65.2083 94.6157 64.1062L94.6182 64.1262Z" fill="#E27152"/>
<path d="M63.7284 91.4049L61.2181 96.9794C60.4251 98.7544 63.1925 99.9402 63.9893 98.1546L66.4996 92.5801C67.2932 90.8101 64.5258 89.6243 63.7284 91.4049Z" fill="#E27152"/>
<path d="M66.722 89.8426C68.6484 89.6033 68.2816 86.6098 66.3502 86.8498C64.4187 87.0898 64.7955 90.082 66.722 89.8426Z" fill="#E27152"/>
<path d="M67.8212 92.6943C67.3059 94.8907 67.1357 97.1537 67.3167 99.4023C67.4001 100.481 68.5101 100.849 69.3924 100.608C70.9118 100.181 72.3162 99.4198 73.5025 98.3793C74.6887 97.3387 75.6266 96.0457 76.2471 94.5953C77.0389 92.8103 74.2565 91.6264 73.4759 93.4201C73.001 94.5079 72.2818 95.4719 71.3741 96.2373C70.4664 97.0026 69.3947 97.5489 68.2419 97.8337L70.3181 99.0446C70.1745 97.0639 70.341 95.0729 70.8113 93.1433C71.2607 91.254 68.2744 90.8349 67.8281 92.7087L67.8212 92.6943Z" fill="#E27152"/>
<path d="M76.9165 99.9418C78.1243 100.486 79.931 101.771 81.3084 101.64C82.5255 101.524 83.1977 100.286 83.1406 99.1736C82.9943 96.6086 79.8075 94.8621 77.5461 95.8724C76.404 96.4431 75.4856 97.3791 74.9371 98.5315C74.3678 99.7013 74.6634 100.652 75.3318 101.709C76.1036 102.891 77.1131 103.9 78.296 104.671C79.4789 105.442 80.8094 105.959 82.203 106.189C84.1165 106.538 84.5462 103.552 82.6383 103.207C80.9116 102.91 79.3543 101.99 78.2627 100.62C77.7342 99.9567 77.5742 99.6068 78.2927 98.9857C78.8095 98.5366 79.0623 98.4495 79.6252 98.8202L79.9356 99.1159C80.1773 99.5924 80.3863 99.4804 80.5603 98.7598L81.7318 98.7661C80.4951 98.3227 79.2901 97.7955 78.1251 97.1882C76.3542 96.3953 75.1674 99.1614 76.9489 99.9581L76.9165 99.9418Z" fill="#E27152"/>
<path d="M60.6513 79.0386C58.3331 83.1405 55.9498 87.4126 54.305 91.8361C52.7346 96.0832 56.849 95.4657 59.6734 94.9071C61.5675 94.53 61.2106 91.5353 59.3015 91.9143C58.2178 92.1249 56.9207 92.5343 55.8179 92.4282L56.9955 93.3405C56.7688 92.8621 58.1705 90.5607 58.3936 90.0721C58.9031 88.9519 59.4307 87.8413 59.9763 86.7402C61.0654 84.5333 62.2255 82.3682 63.4349 80.2325C64.3901 78.5386 61.6046 77.3703 60.6638 79.0573L60.6513 79.0386Z" fill="#E27152"/>
<path d="M34.7767 73.5465C31.2056 70.2978 24.6332 75.0751 25.6452 79.4674C26.9275 85.0569 34.5825 82.9155 34.6734 77.7734C34.7046 76.1892 32.4991 75.2426 31.7953 76.961C30.1904 81.0306 28.3115 84.9869 26.1715 88.8027C25.2495 90.3962 24.4513 90.8246 22.6072 90.2585C21.713 89.9688 20.8409 89.615 19.9975 89.2C18.0653 88.2423 16.288 86.9999 14.7252 85.5143C13.2915 84.1729 11.4525 86.5844 12.8668 87.8928C14.8275 89.7266 17.0822 91.2185 19.5372 92.3063C21.5201 93.1742 24.1884 94.2964 26.2758 93.1912C28.3633 92.086 29.4099 89.2107 30.4283 87.2101C31.9365 84.2572 33.3045 81.2357 34.5645 78.1617L31.6814 77.3499C31.7609 78.023 31.5741 78.7005 31.1609 79.238C28.8639 80.0299 28.132 79.4286 28.9654 77.4341C29.5521 76.2824 31.6822 74.8274 32.9189 75.9299C34.3588 77.2401 36.2009 74.8536 34.7723 73.5521L34.7767 73.5465Z" fill="#E27152"/>
<path d="M43.3357 78.1104C42.192 77.6751 41.1603 76.9169 39.8808 77.0202C39.3065 77.0567 38.7598 77.2793 38.3235 77.6543C37.8872 78.0293 37.5852 78.5363 37.4631 79.0984C37.2007 80.4124 37.9477 81.5706 38.6792 82.6042C39.2568 83.4188 41.7014 85.7185 41.4548 86.752L42.0326 85.7736C41.3153 86.4857 38.9836 85.7067 38.1616 85.4137C37.0716 85.0427 35.7901 84.5181 35.438 83.3158C34.8981 81.4582 32.1088 82.6253 32.6525 84.4723C33.2521 86.5251 35.3677 87.645 37.2666 88.2853C38.9754 88.8632 41.9253 89.6009 43.5774 88.4586C45.3 87.2315 44.2799 85.2209 43.3921 83.8674C42.761 82.8669 41.9465 81.9805 41.2486 81.0136C40.9822 80.663 40.7386 80.2957 40.519 79.914C40.184 79.9911 40.1827 80.0621 40.5145 80.1222C41.0495 80.3495 41.5932 80.6467 42.127 80.864C43.9373 81.566 45.1335 78.7937 43.3033 78.0942L43.3357 78.1104Z" fill="#E27152"/>
<path d="M24.4044 68.0531C23.4358 67.617 22.3452 67.5326 21.3209 67.8143C20.2965 68.0959 19.4026 68.7261 18.7934 69.5961C17.5919 71.2649 17.0467 74.3413 18.1724 76.1818C19.3597 78.1109 22.1072 77.7493 23.7013 76.5484C25.6712 75.0678 25.8945 72.7861 25.6363 70.5035C25.3971 68.5781 22.4026 68.9502 22.6418 70.8756C22.7577 71.8083 22.9252 72.9119 22.3207 73.7163C22.0028 74.1357 21.0173 74.8508 20.6965 74.3487C20.3133 73.7531 20.7525 72.1486 21.0742 71.597C21.5439 70.8093 22.3727 70.4227 23.2132 70.8248C24.9579 71.6919 26.1378 68.9116 24.3894 68.055L24.4044 68.0531Z" fill="#E27152"/>
<path d="M16.4445 56.2378L9.89253 70.3981C9.26515 71.7524 8.2684 73.1931 9.42508 74.5081C10.5818 75.8231 12.7058 75.7467 14.2225 75.4316C16.1098 75.0401 15.7579 72.0448 13.8507 72.4388C13.4278 72.5928 12.9745 72.6451 12.5277 72.5915C12.0808 72.5379 11.6528 72.38 11.2784 72.1303L11.8437 73.5391C12.3711 70.8499 14.3721 67.9067 15.5313 65.4074L19.2194 57.4429C20.0137 55.6778 17.2562 54.4907 16.4432 56.2683L16.4445 56.2378Z" fill="#E27152"/>
<path d="M45.3031 101.899C62.1246 108.019 78.6281 114.979 94.7513 122.752C96.5085 123.598 97.6891 120.822 95.9276 119.982C79.8044 112.209 63.3009 105.249 46.4793 99.1295C44.659 98.4693 43.4622 101.237 45.3031 101.899Z" fill="#E27152"/>
</g>
<defs>
<clipPath id="clip0_101_4371">
<rect width="87" height="123" fill="white" transform="translate(0.806396 10.7267) rotate(-7.08229)"/>
</clipPath>
</defs>
</svg>
