<svg width="37" height="105" viewBox="0 0 37 105" fill="none" xmlns="http://www.w3.org/2000/svg">
<path d="M27 104C6.16664 73.3333 -21.5 10 34.5 2" stroke="#E27152" stroke-linecap="round"/>
<path d="M32.4289 0.859549C33.5127 1.23274 34.5894 1.62624 35.6591 2.04003L35.8932 1.21273C34.8608 0.90421 33.9928 2.2299 33.5547 3.052C33.0777 4.0028 32.7338 5.02332 32.5341 6.08064C32.4165 6.62099 33.1872 6.86526 33.3047 6.33067C33.471 5.44665 33.7395 4.58794 34.1038 3.77445C34.2828 3.38726 34.5043 3.02422 34.7634 2.69304C34.9483 2.45968 35.3197 1.93923 35.6608 2.04007C36.1619 2.19107 36.3808 1.39987 35.895 1.21278C34.8312 0.801698 33.7551 0.40822 32.6666 0.0323467C32.1732 -0.137655 31.9337 0.689502 32.4307 0.859595L32.4289 0.859549Z" fill="#E27152"/>
</svg>
