<svg width="109" height="88" viewBox="0 0 109 88" fill="none" xmlns="http://www.w3.org/2000/svg">
<path d="M4.45306 55.8766V31.1011L3.38176 32.5016C4.13684 32.3596 4.94354 33.2631 5.41465 33.7278C6.15682 34.4506 6.87963 35.2057 7.58952 35.9672C9.11258 37.587 10.5646 39.2779 11.9457 41.0204C14.6522 44.4573 17.0739 48.1092 19.1867 51.9399C20.0902 53.5727 22.6006 52.1077 21.6907 50.4749C19.3166 46.1823 16.572 42.1053 13.4881 38.2905C11.9651 36.4146 10.3646 34.6076 8.68664 32.8694C7.02806 31.1592 5.24041 29.2038 2.63314 29.6878C2.32102 29.7703 2.04489 29.9536 1.84766 30.2091C1.65043 30.4647 1.54314 30.7783 1.54248 31.1011V55.8895C1.54248 57.7546 4.44661 57.761 4.44661 55.8895L4.45306 55.8766Z" fill="#E27152"/>
<path d="M3.47212 47.2352C6.56351 44.3986 10.1139 42.1073 13.9722 40.4589C14.304 40.2636 14.5452 39.9451 14.6431 39.5728C14.7411 39.2004 14.6878 38.8044 14.4949 38.4712C14.2928 38.1469 13.9744 37.9121 13.6049 37.8149C13.2354 37.7177 12.8426 37.7655 12.5072 37.9484C8.42664 39.715 4.67547 42.1612 1.41341 45.1829C1.27866 45.3181 1.17185 45.4785 1.09909 45.655C1.02632 45.8314 0.989021 46.0205 0.989321 46.2114C0.98962 46.4022 1.02751 46.5912 1.10083 46.7674C1.17415 46.9436 1.28146 47.1037 1.41664 47.2384C1.55181 47.3732 1.71221 47.48 1.88866 47.5528C2.06512 47.6255 2.25417 47.6628 2.44504 47.6625C2.63591 47.6622 2.82485 47.6243 3.00108 47.551C3.1773 47.4777 3.33736 47.3704 3.47212 47.2352Z" fill="#E27152"/>
<path d="M17.4442 24.7765C16.4956 26.5965 17.5023 28.7971 18.0896 30.5848C18.735 32.5209 19.4449 34.457 20.2451 36.3543C21.8243 40.0867 23.7426 43.6662 25.9759 47.048C26.5245 47.8805 27.9959 48.1063 28.4864 47.048L28.7832 46.4026C28.9662 46.0671 29.014 45.6744 28.9168 45.3049C28.8196 44.9353 28.5848 44.6169 28.2605 44.4149C27.9265 44.2254 27.5316 44.174 27.1602 44.2717C26.7889 44.3694 26.4704 44.6084 26.2728 44.9376L25.9759 45.583H28.4864C26.4486 42.5317 24.6698 39.3152 23.1686 35.9671C22.4587 34.3602 21.8327 32.7403 21.2325 31.0624C20.9356 30.1911 20.6581 29.3199 20.3935 28.4422C20.258 27.9775 20.1225 27.5193 19.9999 27.0482C19.9482 26.8352 19.7804 26.4545 19.8902 26.2415C20.7485 24.5829 18.2445 23.1115 17.3862 24.7765H17.4442Z" fill="#E27152"/>
<path d="M23.4202 24.3442C24.6658 32.8114 26.9697 41.285 32.3779 48.0871C32.5352 48.2427 32.7259 48.3604 32.9355 48.4313C33.1451 48.5023 33.3681 48.5246 33.5876 48.4966C33.8071 48.4687 34.0174 48.3911 34.2025 48.2698C34.3876 48.1485 34.5427 47.9867 34.656 47.7967C35.6792 45.7611 36.4383 43.6032 36.9148 41.3753C37.2955 39.549 34.5011 38.7939 34.1139 40.6009C33.7159 42.5839 33.0652 44.5077 32.1778 46.3253L34.4624 46.0349C29.4027 39.6651 27.415 31.4626 26.2534 23.5698C26.1479 23.2001 25.9014 22.8867 25.567 22.6972C25.2326 22.5076 24.837 22.4571 24.4657 22.5566C24.0998 22.6677 23.7905 22.9152 23.6019 23.2479C23.4133 23.5807 23.3598 23.9731 23.4525 24.3442H23.4202Z" fill="#E27152"/>
<path d="M15.7727 72.7916C15.3317 72.5213 14.8197 72.3897 14.303 72.4138C13.7864 72.438 13.2889 72.6168 12.875 72.9271C12.4771 73.2389 12.147 73.6286 11.9051 74.0726C11.6631 74.5165 11.5145 75.0051 11.4682 75.5085C11.1519 77.5931 10.9131 79.6905 10.6356 81.775C10.4449 82.7 10.3819 83.6467 10.4485 84.5888C10.5208 85.0989 10.7233 85.5818 11.0364 85.991C11.3495 86.4001 11.7627 86.7218 12.2361 86.925C14.1206 87.7511 15.9212 86.8218 17.328 85.5375C19.0383 83.9757 20.6839 82.3107 22.3619 80.736C23.7171 79.4453 21.6649 77.3866 20.3096 78.6773L15.8437 82.9431C15.3869 83.4581 14.8484 83.8942 14.2497 84.2338L13.927 84.3371H13.8108C13.9722 84.3371 13.3268 84.2661 13.6172 84.3371C13.6172 84.3371 13.1848 84.2597 13.3913 84.2726C13.2429 84.1822 13.2235 84.1629 13.3333 84.2274C13.443 84.2919 13.3849 84.3113 13.3333 84.2274C13.2987 83.9791 13.2987 83.7271 13.3333 83.4788C13.3784 82.9818 13.4623 82.4849 13.5269 81.9944L13.9076 79.0839C14.0302 78.1804 14.14 77.2768 14.2626 76.3733C14.2757 75.9933 14.3727 75.6209 14.5465 75.2827C14.4562 75.3988 14.4562 75.2246 14.624 75.2504C14.6062 75.2679 14.5849 75.2815 14.5616 75.2904C14.5383 75.2993 14.5134 75.3032 14.4885 75.302C14.1529 75.1665 14.1012 75.1665 14.3207 75.302C14.4854 75.4088 14.67 75.4811 14.8634 75.5146C15.0569 75.548 15.2551 75.5419 15.4461 75.4965C15.6371 75.4512 15.8169 75.3676 15.9747 75.2508C16.1324 75.134 16.2649 74.9864 16.364 74.817C16.4632 74.6475 16.5269 74.4598 16.5514 74.265C16.5759 74.0702 16.5607 73.8725 16.5066 73.6838C16.4525 73.4951 16.3608 73.3193 16.2369 73.1671C16.1129 73.0148 15.9594 72.8893 15.7856 72.798L15.7727 72.7916Z" fill="#E27152"/>
<path d="M27.1504 78.2126C27.8487 78.2938 28.5547 78.1498 29.1654 77.8015C29.7761 77.4532 30.2594 76.9189 30.545 76.2765C31.0911 74.9951 31.3489 73.6093 31.3001 72.2172C31.3001 69.5712 30.4159 66.1895 27.5893 65.2731C26.9916 65.0827 26.3552 65.0486 25.7406 65.174C25.126 65.2994 24.5538 65.5801 24.0785 65.9894C23.3614 66.6373 22.8367 67.4702 22.5619 68.3966C22.0903 70.0287 21.8897 71.727 21.9682 73.424C21.9682 76.2959 24.5496 77.9415 27.1311 78.1997C27.5151 78.1963 27.8825 78.0422 28.1541 77.7707C28.4257 77.4991 28.5798 77.1317 28.5831 76.7476C28.5749 76.3651 28.4193 76.0005 28.1487 75.73C27.8782 75.4594 27.5136 75.3038 27.1311 75.2956C26.8471 75.2633 27.0859 75.2956 27.1311 75.2956L26.8794 75.2439C26.7085 75.2108 26.5403 75.1656 26.376 75.1084L26.1307 75.0245C26.3889 75.1149 26.1307 75.0245 26.0533 74.9858C25.8791 74.8954 25.7177 74.7922 25.5499 74.6954C25.3821 74.5986 25.4725 74.6502 25.5499 74.6954L25.3563 74.5276C25.2982 74.476 25.0014 74.1145 25.1692 74.3533C25.073 74.2167 24.9888 74.072 24.9175 73.9209C25.0724 74.2501 24.8465 73.424 24.8787 73.7919C24.84 73.2052 24.84 72.6167 24.8787 72.03C24.8787 71.7267 24.8787 71.4169 24.9368 71.1136C24.9368 70.9523 24.9368 70.7974 24.9885 70.636C24.9885 70.9523 24.9885 70.7328 24.9885 70.6683C24.9885 70.6038 25.0272 70.4295 25.053 70.3134C25.1094 70.0041 25.1826 69.6982 25.2724 69.3969C25.3176 69.2485 25.3692 69.1065 25.4208 68.9581C25.5112 68.7064 25.4208 68.9581 25.4208 68.9968L25.5693 68.7064C25.6403 68.5838 25.7177 68.4676 25.7952 68.345C25.6274 68.6096 25.7952 68.345 25.9049 68.2482L26.0533 68.1127C26.0146 68.1514 25.7887 68.274 26.0017 68.1579L26.1759 68.0546C26.4405 67.8804 25.8403 68.1514 26.2598 68.0546C26.305 68.0546 26.5309 68.0159 26.3114 68.0546H26.6148C26.3179 68.0546 26.9697 68.1837 26.7567 68.0998C27.0386 68.2089 27.2828 68.3972 27.4602 68.6419C27.688 68.9529 27.8624 69.2997 27.9765 69.668C28.1344 70.1393 28.2531 70.6228 28.3314 71.1136C28.4759 72.1722 28.4256 73.2483 28.183 74.2888C28.1314 74.5018 28.0733 74.7083 28.0023 74.9342C28.0733 74.7212 28.0023 74.9342 28.0023 74.9729C27.9412 75.0955 27.8722 75.2141 27.7958 75.3278C27.9507 75.1213 27.7958 75.3278 27.7958 75.3278C28.112 75.2052 27.5635 75.4504 27.8797 75.3278C27.6674 75.3771 27.4466 75.3771 27.2343 75.3278C26.8502 75.3312 26.4829 75.4853 26.2113 75.7569C25.9397 76.0284 25.7856 76.3958 25.7823 76.7799C25.7924 77.1457 25.938 77.4947 26.1907 77.7594C26.4435 78.0241 26.7854 78.1856 27.1504 78.2126Z" fill="#E27152"/>
<path d="M31.668 63.9114V68.5322C31.668 69.9778 31.3969 71.7074 32.1133 73.0497C32.2818 73.3182 32.5318 73.5257 32.8268 73.6419C33.1218 73.758 33.4462 73.7766 33.7525 73.6951C34.0577 73.6084 34.3265 73.425 34.5185 73.1725C34.7106 72.9199 34.8154 72.6119 34.8173 72.2946C34.5019 69.4594 35.1595 66.6011 36.6824 64.1889C37.0632 63.5822 37.5279 63.137 37.9151 62.5626L38.0442 62.4335C36.9019 61.9301 36.4953 61.9043 36.818 62.369C36.8696 62.5174 36.9599 62.6723 37.0245 62.8207L37.5408 64.0405L39.6834 69.113C39.8786 69.4449 40.1972 69.686 40.5695 69.784C40.9419 69.8819 41.3379 69.8286 41.6711 69.6357C41.9955 69.4338 42.23 69.1149 42.3261 68.745C42.4222 68.3751 42.3725 67.9824 42.1874 67.648L39.6059 61.5558C39.1606 60.5039 38.3797 59.4907 37.0761 59.7746C36.0371 60.0005 35.3659 61.0653 34.7657 61.8398C32.5579 64.854 31.5379 68.5759 31.9003 72.2946L34.6044 71.5589C34.6754 71.6815 34.5463 71.3524 34.5657 71.4621C34.585 71.5718 34.5657 71.1782 34.5657 71.1459C34.5657 70.8297 34.5657 70.5005 34.5657 70.1972V63.8985C34.5657 62.0334 31.6615 62.0269 31.6615 63.8985L31.668 63.9114Z" fill="#E27152"/>
<path d="M45.6206 55.2893C44.8959 55.1315 44.1389 55.2283 43.4772 55.5633C42.8154 55.8983 42.2892 56.451 41.9873 57.1285C41.2774 58.658 41.4516 60.9233 43.4135 61.3621C44.2325 61.5147 45.0689 61.5516 45.8982 61.4718C46.2789 61.4718 46.6661 61.4331 47.0533 61.4718L47.518 61.5041C47.247 61.5041 47.6277 61.5041 47.7181 61.5557C47.8692 61.5889 48.0179 61.632 48.1634 61.6848C47.9117 61.6009 48.2666 61.7429 48.3441 61.788L48.5054 61.8913C48.2989 61.7429 48.4667 61.8913 48.5054 61.8913C48.5441 61.8913 48.6603 62.0526 48.5635 61.9365C48.4667 61.8203 48.6732 62.1172 48.6732 62.1236C48.8023 62.3366 48.6732 62.0139 48.7248 62.2591C48.7248 62.343 48.7636 62.4334 48.7894 62.5173C48.7894 62.485 48.7894 62.2979 48.7894 62.4657C48.7894 62.6335 48.7894 62.7819 48.7894 62.9368C48.7894 62.9368 48.7894 63.182 48.7894 63.0207C48.7894 62.8593 48.7571 63.2014 48.7507 63.2401C48.7119 63.4208 48.6603 63.6015 48.6087 63.7758C48.6087 63.8403 48.5635 63.9113 48.5377 63.9758C48.5119 64.0403 48.3828 64.2856 48.5054 64.0597L48.4151 64.234L48.3505 64.3501C48.2924 64.434 48.2989 64.4211 48.3505 64.305C48.5441 64.2017 48.557 64.2081 48.3505 64.2598C48.144 64.3114 48.57 64.2598 48.3054 64.2598H47.9698C47.7548 64.2719 47.5393 64.2719 47.3244 64.2598C46.926 64.2555 46.5295 64.2035 46.1434 64.1049C45.772 64.0031 45.3753 64.0529 45.0407 64.2435C44.706 64.4342 44.4608 64.7499 44.359 65.1213C44.2571 65.4927 44.307 65.8894 44.4976 66.2241C44.6882 66.5587 45.004 66.8039 45.3754 66.9058C46.2047 67.0968 47.0543 67.1857 47.9052 67.1704C48.825 67.2278 49.732 66.9324 50.4415 66.3443C50.9823 65.7352 51.3519 64.9937 51.5128 64.1952C51.7211 63.412 51.7563 62.5927 51.6161 61.7945C51.4557 61.0337 51.0764 60.3364 50.5249 59.7883C49.9733 59.2402 49.2737 58.8653 48.5119 58.7097C47.743 58.542 46.9544 58.4833 46.1692 58.5354C45.8013 58.5354 45.4399 58.5741 45.0785 58.5806C44.8849 58.5806 44.6849 58.5806 44.4913 58.5806H44.246C44.046 58.5806 44.3751 58.6387 44.1428 58.5806C43.9104 58.5225 44.0911 58.5806 44.0911 58.5806C44.0911 58.5806 44.6591 59.4067 44.5042 58.9743C44.5042 58.9743 44.5042 59.213 44.5042 59.0646C44.5042 58.9162 44.5042 58.8646 44.5042 58.7807C44.5042 58.6968 44.5042 58.5548 44.5042 58.7484C44.5042 58.942 44.5364 58.6193 44.5429 58.6064C44.563 58.5536 44.5803 58.4997 44.5945 58.4451C44.5945 58.2966 44.4848 58.5935 44.5945 58.4773C44.6409 58.4213 44.6779 58.3581 44.7042 58.2902C44.743 58.1482 44.5623 58.4128 44.672 58.3224C44.7263 58.2757 44.776 58.2238 44.8204 58.1676C44.9237 58.0062 44.6397 58.3224 44.7752 58.1998C44.8139 58.1676 45.0205 58.0514 44.8398 58.1482C44.6591 58.245 44.8398 58.1482 44.9108 58.1482C45.0785 58.1482 44.801 58.1482 44.7946 58.1482C44.7881 58.1482 45.2141 58.1934 44.872 58.1482C45.2434 58.2509 45.6405 58.2018 45.9757 58.0118C46.311 57.8218 46.557 57.5064 46.6597 57.135C46.7624 56.7636 46.7133 56.3666 46.5233 56.0313C46.3333 55.6961 46.0179 55.45 45.6465 55.3473L45.6206 55.2893Z" fill="#E27152"/>
<path d="M50.6867 47.3965C51.573 50.9331 52.5217 54.4525 53.5328 57.9546C53.7845 58.8065 54.0362 59.6584 54.2943 60.5361C54.4612 61.3009 54.7373 62.0377 55.1139 62.7239C55.3174 63.0775 55.6069 63.374 55.9556 63.5857C56.3044 63.7975 56.701 63.9176 57.1086 63.935C57.5162 63.9524 57.9216 63.8664 58.2871 63.6852C58.6525 63.5039 58.9663 63.2331 59.1991 62.8981C59.3925 62.5657 59.4468 62.1703 59.3501 61.798C59.2534 61.4257 59.0136 61.1067 58.6828 60.9104C58.3492 60.722 57.9554 60.6706 57.5846 60.7669C57.2138 60.8632 56.8948 61.0998 56.6951 61.4267C57.2049 60.691 57.3404 61.3105 57.5082 61.0782C57.5082 61.0782 57.3469 60.6071 57.3469 60.62C57.1404 59.9746 56.9468 59.297 56.7532 58.6387C56.3616 57.3136 55.9787 55.9863 55.6044 54.6568C54.8558 52.0023 54.1502 49.3348 53.4876 46.6544C53.0359 44.8409 50.2608 45.6089 50.6867 47.4288V47.3965Z" fill="#E27152"/>
<path d="M51.9 58.245C52.4422 57.7159 53.0036 57.2125 53.578 56.7284L54.0426 56.3477L54.2492 56.1863C54.4234 56.0379 54.0878 56.3025 54.2492 56.1863C54.5654 55.9476 54.8945 55.7088 55.2172 55.4764C56.4686 54.5997 57.7871 53.8229 59.1604 53.1532C59.4909 52.9567 59.731 52.6382 59.8288 52.2663C59.9266 51.8945 59.8743 51.4991 59.6831 51.1654C59.4833 50.8387 59.1648 50.6018 58.7944 50.5044C58.4239 50.407 58.0302 50.4565 57.6954 50.6427C54.7952 52.0718 52.1399 53.9516 49.8284 56.2122C49.6858 56.3451 49.5713 56.5054 49.492 56.6835C49.4126 56.8616 49.3699 57.0539 49.3665 57.2489C49.3631 57.4438 49.3989 57.6375 49.472 57.8183C49.545 57.9991 49.6537 58.1634 49.7916 58.3013C49.9295 58.4392 50.0937 58.5479 50.2745 58.6209C50.4553 58.6939 50.649 58.7298 50.8439 58.7264C51.0389 58.7229 51.2312 58.6802 51.4093 58.6009C51.5874 58.5215 51.7478 58.4071 51.8807 58.2644L51.9 58.245Z" fill="#E27152"/>
<path d="M68.0535 47.9192C67.926 47.5026 67.6432 47.1509 67.2635 46.9371C66.8839 46.7233 66.4366 46.6636 66.0142 46.7705C65.3801 46.9748 64.8443 47.4072 64.5105 47.9838C63.9077 48.8647 63.5128 49.8709 63.3553 50.9266C62.9681 53.3467 63.5554 55.6829 63.6651 58.103L66.5176 57.7158C65.3882 55.0053 64.1168 52.3141 63.1875 49.5262C63.0764 49.1602 62.8289 48.851 62.4961 48.6624C62.1634 48.4738 61.7709 48.4203 61.3999 48.513C61.0302 48.6184 60.7168 48.8649 60.5273 49.1994C60.3377 49.5338 60.2872 49.9293 60.3866 50.3006C61.316 53.0821 62.5873 55.7797 63.7167 58.4838C63.8163 58.8182 64.0309 59.1066 64.3226 59.2979C64.6144 59.4892 64.9644 59.5712 65.3108 59.5293C65.657 59.4827 65.9749 59.3129 66.206 59.0509C66.4372 58.7889 66.5661 58.4524 66.5692 58.103C66.4853 56.296 66.0723 54.5084 66.0916 52.6949V52.1593C66.0916 52.1012 66.1562 51.5591 66.1239 51.772C66.176 51.4184 66.2536 51.069 66.3562 50.7266C66.4215 50.4548 66.5305 50.1954 66.6789 49.9586C66.7742 49.7812 66.882 49.6108 67.0016 49.4487C66.9328 49.5434 66.9521 49.524 67.0597 49.3907C66.9404 49.4989 66.7946 49.5738 66.6371 49.6078C66.4796 49.6418 66.316 49.6337 66.1626 49.5843L65.5173 49.21L65.5689 49.2551L65.201 48.6098V48.6872C65.3122 49.0532 65.5597 49.3624 65.8924 49.551C66.2251 49.7396 66.6176 49.7931 66.9887 49.7004C67.3583 49.595 67.6717 49.3484 67.8613 49.014C68.0508 48.6796 68.1013 48.2841 68.0019 47.9128L68.0535 47.9192Z" fill="#E27152"/>
<path d="M68.8279 47.7967C68.7892 49.6424 68.8924 51.5204 70.1186 53.0176C70.634 53.7197 71.3765 54.2217 72.2201 54.4381C73.0637 54.6546 73.9562 54.5723 74.7459 54.2051C75.1571 53.975 75.5081 53.6511 75.7705 53.2597C76.0329 52.8683 76.1993 52.4206 76.256 51.9528C76.398 51.0557 76.4884 50.1458 76.5593 49.2358C76.6303 48.3259 76.6626 47.4288 76.6626 46.5253C76.7211 45.5323 76.5603 44.5386 76.1915 43.6147C76.047 43.3681 75.8323 43.1701 75.5749 43.046C75.3174 42.9219 75.0288 42.8772 74.7459 42.9177C74.4676 42.9606 74.207 43.0807 73.9936 43.2644C73.7803 43.4481 73.6228 43.688 73.5391 43.9568C73.1777 44.9119 73.752 45.8928 74.1392 46.7641C74.449 47.4094 74.7846 48.1 75.1331 48.7453C75.8692 50.0972 76.7063 51.3916 77.6371 52.6175C77.8391 52.942 78.158 53.1764 78.5279 53.2725C78.8978 53.3686 79.2905 53.319 79.6248 53.1338C80.2185 52.7531 80.6445 51.7915 80.1476 51.1526C79.3115 50.0631 78.5504 48.9182 77.8694 47.7257C77.5338 47.1319 77.2241 46.5253 76.9143 45.9058C76.7788 45.6218 76.6497 45.3314 76.5206 45.041C76.5206 45.041 76.3399 44.6086 76.4174 44.8086C76.3794 44.7204 76.3471 44.6299 76.3206 44.5376C76.3206 44.615 76.3206 44.686 76.3206 44.7635L73.6681 45.112C73.5778 44.9119 73.6681 45.2927 73.7068 45.3443C73.6617 45.1055 73.7068 45.5185 73.7068 45.5702C73.7068 45.9251 73.7068 46.2801 73.7068 46.6415C73.7068 47.3191 73.7069 47.9967 73.6423 48.6744C73.5778 49.352 73.5391 50.0877 73.4552 50.7912L73.3971 51.2945C73.3971 51.0687 73.3648 51.4559 73.3584 51.4881L73.3261 51.6237C73.2745 51.785 73.2745 51.7979 73.3261 51.6559L73.2615 51.7721C73.3648 51.643 73.3648 51.643 73.2615 51.7721C73.3777 51.6817 73.3906 51.6624 73.3003 51.7205C73.2099 51.7786 73.2293 51.7592 73.3648 51.7205C73.2357 51.7205 73.0034 51.7205 73.268 51.7592C73.1841 51.7592 72.8485 51.6947 73.1518 51.7592L72.7904 51.6624C73.0808 51.7592 72.7388 51.6107 72.6872 51.5849C72.3774 51.4107 72.8356 51.7527 72.5775 51.5075L72.3 51.23C72.087 51.0106 72.3516 51.3591 72.2161 51.1074C72.1515 50.9977 72.0805 50.888 72.0225 50.7718C71.9644 50.6556 71.9515 50.6169 72.0225 50.7395L71.9708 50.5911C71.9321 50.4362 71.8869 50.2942 71.8482 50.1393C71.8482 50.1393 71.7643 49.6747 71.7966 49.907C71.7245 49.2276 71.7072 48.5434 71.745 47.8612C71.7416 47.4771 71.5875 47.1097 71.3159 46.8381C71.0443 46.5666 70.677 46.4125 70.2929 46.4091C69.9104 46.4174 69.5458 46.573 69.2752 46.8435C69.0047 47.1141 68.849 47.4787 68.8408 47.8612L68.8279 47.7967Z" fill="#E27152"/>
<path d="M83.6454 38.3872C82.818 38.2297 81.9615 38.3634 81.2215 38.7658C80.4815 39.1681 79.9037 39.8142 79.5861 40.5944C78.9994 41.8509 78.7206 43.2292 78.7729 44.615C78.8504 46.0025 79.3473 47.3965 80.709 48.0354C81.9516 48.5668 83.3332 48.68 84.6457 48.358C86.2591 48.0225 87.8725 46.8931 88.1694 45.1829C88.2721 44.8115 88.223 44.4145 88.033 44.0792C87.843 43.744 87.5276 43.4979 87.1562 43.3952C86.7848 43.2925 86.3878 43.3416 86.0525 43.5316C85.7173 43.7216 85.4712 44.037 85.3685 44.4084C85.3237 44.5345 85.2892 44.664 85.2653 44.7957C85.2653 44.7569 85.4266 44.4988 85.2653 44.7182C85.2653 44.7634 85.2201 44.8086 85.1943 44.8473C85.1685 44.886 85.0459 45.0796 85.1943 44.9054C85.3427 44.7311 85.1943 44.9054 85.1491 44.957L85.0394 45.0603C85.006 45.0979 84.9693 45.1325 84.9297 45.1635C84.8458 45.2345 84.8781 45.2087 85.0265 45.099C84.962 45.099 84.7813 45.2539 84.7232 45.2861C84.6651 45.3184 84.6006 45.3442 84.5425 45.3829C84.4844 45.4217 84.7361 45.3055 84.7361 45.3055C84.5459 45.356 84.3585 45.4163 84.1746 45.4862C83.9875 45.5378 83.7938 45.5701 83.6067 45.6024C83.4195 45.6346 83.4002 45.6024 83.7487 45.6024H83.5873H83.2582C83.0452 45.6024 82.8387 45.6024 82.6128 45.6024C82.2643 45.6024 82.9291 45.6734 82.6128 45.6024L82.2643 45.5249L82.0126 45.441C81.8384 45.3894 82.2966 45.5959 82.1482 45.4991L82.0514 45.4475L81.9288 45.3765C81.7416 45.2797 82.032 45.4539 82.0449 45.4733C82.0578 45.4926 81.89 45.3249 81.819 45.2539C81.7481 45.1829 81.9739 45.5314 81.9223 45.3765L81.8642 45.2861C81.69 44.9764 81.9223 45.5185 81.8642 45.2861C81.8061 45.0538 81.7803 44.8537 81.7158 44.6408C81.8319 45.0409 81.7158 44.7376 81.7158 44.5891C81.7158 44.4407 81.7158 44.3762 81.7158 44.2665C81.7167 43.9989 81.7339 43.7317 81.7674 43.4662C81.7674 43.1952 81.7158 43.7889 81.7674 43.421C81.7674 43.3113 81.8061 43.2016 81.8319 43.0919C81.89 42.8338 81.9546 42.5821 82.032 42.3304L82.1675 41.9561C82.1675 41.9109 82.245 41.7689 82.1675 41.9561C82.0901 42.1432 82.1675 41.9561 82.1675 41.9044L82.3289 41.6011C82.3502 41.561 82.3739 41.5222 82.3999 41.485C82.5483 41.2462 82.3676 41.485 82.3999 41.485C82.3999 41.4269 82.8 41.1171 82.6193 41.2526C82.4386 41.3882 82.8774 41.1365 82.8968 41.1042C82.9162 41.0719 82.6386 41.1816 82.7806 41.1558C82.7806 41.1558 83.0194 41.0913 83.0194 41.0977C83.0194 41.1042 82.6903 41.0977 82.9226 41.0977C83.1549 41.0977 82.6128 41.0203 82.9226 41.0977C83.294 41.2004 83.691 41.1514 84.0263 40.9614C84.3615 40.7714 84.6076 40.456 84.7103 40.0845C84.813 39.7131 84.7639 39.3161 84.5739 38.9809C84.3839 38.6456 84.0685 38.3996 83.697 38.2969L83.6454 38.3872Z" fill="#E27152"/>
<path d="M86.8658 27.0159L90.9638 39.2133L91.9835 42.2658C92.2739 43.1241 92.4869 44.0986 93.1516 44.7569C93.5036 45.1175 93.9823 45.3266 94.486 45.3398C94.9897 45.3531 95.4787 45.1694 95.8492 44.8279C96.5397 44.1825 96.7592 42.9434 97.0754 42.0593C97.7208 40.291 94.9005 39.5359 94.2745 41.2849L93.9131 42.2916L93.7582 42.7305C93.6292 43.0725 93.6163 43.1112 93.7582 42.8337L94.4036 42.4594L94.2294 42.5175H94.9973C95.2684 42.7757 95.3458 42.8402 95.2297 42.7111L95.0231 42.098L94.7134 41.1881L93.997 39.0519L92.5643 34.7861L89.6408 26.2479C89.0471 24.4861 86.2398 25.2412 86.84 27.0159H86.8658Z" fill="#E27152"/>
<path d="M90.3379 38.7035L90.6154 38.3421L90.3895 38.6325C91.5175 37.1753 92.8177 35.86 94.2617 34.7151C94.5336 34.4429 94.6863 34.0738 94.6863 33.689C94.6863 33.3042 94.5336 32.9352 94.2617 32.6629C94.1276 32.5272 93.9678 32.4195 93.7916 32.3464C93.6154 32.2733 93.4263 32.2361 93.2355 32.237C92.8557 32.2613 92.4948 32.4111 92.2094 32.6629C90.5452 33.9854 89.065 35.5242 87.808 37.2385C87.7095 37.4051 87.6456 37.5898 87.6201 37.7816C87.5946 37.9735 87.608 38.1685 87.6596 38.355C87.7622 38.7268 88.0079 39.0428 88.3429 39.2339C88.6779 39.425 89.075 39.4756 89.4473 39.3747C89.7976 39.2585 90.101 39.0321 90.312 38.7293L90.3379 38.7035Z" fill="#E27152"/>
<path d="M102.083 29.507C101.186 29.3648 100.268 29.5464 99.492 30.0194C98.7164 30.4923 98.1343 31.2257 97.8499 32.0885C97.5763 32.8549 97.4366 33.6626 97.4368 34.4763C97.3709 34.9707 97.4434 35.4738 97.6462 35.9295C97.849 36.3852 98.1742 36.7757 98.5856 37.0578C98.9738 37.2455 99.3966 37.351 99.8275 37.3677C100.258 37.3843 100.688 37.3118 101.09 37.1546C101.866 36.9048 102.657 36.7022 103.458 36.5479L104.103 36.4382H104.187L104.426 36.4059C104.826 36.3608 105.22 36.3479 105.62 36.3349C105.62 36.3349 105.394 36.2704 105.543 36.3349C105.691 36.3995 105.768 36.464 105.659 36.3349C105.549 36.2059 105.413 36.1478 105.536 36.264C105.659 36.3801 105.484 36.1994 105.472 36.1865C105.62 36.3608 105.472 36.2252 105.472 36.1413C105.543 36.393 105.472 36.1414 105.472 36.0897V36.3156C105.472 36.1349 105.472 36.1413 105.472 36.3156C105.472 36.4898 105.472 36.2575 105.472 36.2381C105.472 36.2188 105.207 36.5737 105.413 36.3608C105.297 36.4834 105.175 36.5996 105.046 36.7157C105.233 36.5479 105.084 36.6835 105.046 36.7157L104.775 36.89C104.587 37.0061 104.394 37.1158 104.2 37.2126L103.929 37.3417L103.794 37.4062C103.884 37.3611 103.89 37.3611 103.794 37.4062C103.587 37.4837 103.372 37.5547 103.148 37.6192C102.959 37.6785 102.768 37.7281 102.574 37.7676C102.476 37.7938 102.377 37.8132 102.277 37.8257C102.232 37.8257 101.812 37.8903 102.077 37.8645C101.694 37.8711 101.328 38.0262 101.058 38.2971C100.787 38.568 100.632 38.9335 100.625 39.3165C100.625 40.0264 101.27 40.8589 102.077 40.7686C103.744 40.6255 105.343 40.042 106.711 39.0777C107.458 38.5788 108.012 37.8384 108.279 36.9803C108.401 36.5258 108.413 36.0489 108.314 35.5888C108.215 35.1288 108.009 34.6988 107.711 34.3343C106.543 32.9145 104.271 33.4566 102.722 33.7471C101.923 33.9006 101.134 34.1032 100.36 34.3537L99.9602 34.4634C99.6956 34.5344 99.9602 34.4634 99.9602 34.4634H99.7343C99.7343 34.4311 99.9666 34.5021 99.986 34.5086C100.051 34.5355 100.11 34.575 100.16 34.6248C100.21 34.6747 100.249 34.7339 100.276 34.799C100.554 35.2959 100.276 34.6699 100.341 34.9152C100.405 35.1604 100.341 34.7538 100.341 34.728C100.331 34.5453 100.331 34.3622 100.341 34.1794V33.8955C100.341 33.6244 100.341 33.9407 100.341 33.7858C100.341 33.6309 100.425 33.3792 100.483 33.1727C100.483 33.0823 100.541 32.992 100.573 32.9081C100.515 33.0565 100.573 32.9533 100.606 32.8758L100.741 32.6499C100.638 32.8177 100.689 32.708 100.78 32.6112C100.87 32.5144 100.902 32.4951 100.96 32.437C101.019 32.3789 100.715 32.566 101.006 32.4047L101.219 32.2885C101.109 32.3466 101.064 32.3531 101.219 32.2885C101.47 32.2175 101.219 32.2885 101.18 32.2885C101.27 32.2885 101.606 32.2885 101.27 32.2885C101.641 32.3812 102.034 32.3277 102.367 32.1391C102.699 31.9505 102.947 31.6413 103.058 31.2753C103.156 30.904 103.104 30.5093 102.915 30.1753C102.726 29.8413 102.413 29.5946 102.045 29.4877L102.083 29.507Z" fill="#E27152"/>
<path d="M48.8346 20.7753C48.6991 23.1309 48.8798 25.6285 50.9708 27.1128C53.0618 28.5971 55.3722 27.5904 56.6306 25.6349C59.1217 21.7627 59.3411 16.4127 57.7084 12.1985C57.607 11.8677 57.3914 11.5837 57.1 11.3973C56.8086 11.2108 56.4605 11.134 56.1177 11.1805C55.7748 11.227 55.4597 11.3939 55.2286 11.6513C54.9975 11.9087 54.8654 12.2399 54.8559 12.5857C54.6106 17.8712 57.1405 22.6017 58.599 27.5387C59.2443 29.8169 60.0381 32.7016 59.1346 35.0185C58.3086 37.1224 56.0562 38.2905 54.1653 39.2585C52.5003 40.1104 53.9653 42.6144 55.6303 41.769C57.8891 40.6138 60.2769 39.1875 61.4837 36.8384C62.8326 34.2118 62.4712 31.0753 61.8129 28.3067C60.5673 23.0535 57.5083 18.1229 57.76 12.5857L54.9075 12.9729C56.153 16.0929 56.153 19.5721 54.9075 22.6921C54.6042 23.4149 53.9007 25.3122 52.8294 24.8411C51.4032 24.1958 51.6871 21.9951 51.7581 20.7753C51.8678 18.9102 48.9637 18.9167 48.854 20.7753H48.8346Z" fill="#E27152"/>
<path d="M61.7289 21.298C62.6956 21.7951 63.8152 21.9056 64.8604 21.6072C65.9056 21.3087 66.798 20.6237 67.3565 19.6911C67.831 18.7844 68.0352 17.7606 67.9449 16.7412C67.8545 15.7219 67.4733 14.7499 66.8466 13.9409C66.2939 13.2241 65.6593 12.5743 64.9557 12.0048C64.3081 11.3716 63.5213 10.8987 62.6582 10.6237C62.0652 10.4755 61.4403 10.5208 60.8748 10.753C60.3094 10.9853 59.833 11.3922 59.5153 11.9145C59.0029 12.8805 58.7348 13.9574 58.7344 15.0509C58.7344 16.29 59.3411 17.2839 59.6508 18.4391C59.7773 19.0364 60.0276 19.6006 60.3855 20.0952C60.7435 20.5899 61.2011 21.004 61.7289 21.3109C62.0618 21.5061 62.4586 21.561 62.832 21.4635C63.2054 21.3661 63.5247 21.1243 63.7199 20.7914C63.915 20.4585 63.9699 20.0617 63.8724 19.6883C63.775 19.315 63.5332 18.9956 63.2003 18.8005C63.1035 18.7489 62.7938 18.5101 63.0196 18.7166L62.697 18.4004C62.8906 18.5811 62.7744 18.5036 62.697 18.4004L62.5808 18.2067C62.4517 17.9938 62.5808 18.2067 62.5808 18.2455C62.5485 18.1357 62.5163 18.0325 62.4904 17.9228C62.2968 17.1548 61.9548 16.4578 61.7096 15.7092L61.6321 15.4511C61.6321 15.393 61.5934 15.1735 61.6321 15.4511C61.6192 15.2706 61.6192 15.0894 61.6321 14.9089C61.6321 14.8186 61.6321 14.7282 61.6321 14.6379C61.6321 14.7024 61.5869 14.896 61.6321 14.6379C61.6773 14.3797 61.716 14.2313 61.7676 14.0312C61.8193 13.8312 61.8644 13.6634 61.9225 13.4827C61.9806 13.302 62.0516 13.2762 61.9225 13.4827C61.9935 13.3536 62.0322 13.3988 61.9225 13.4827C61.9806 13.444 62.1484 13.3343 61.8903 13.4827L62.071 13.3794C62.071 13.4182 61.7418 13.4827 61.9935 13.4311C61.8451 13.4311 61.716 13.4311 61.929 13.4311C62.1419 13.4311 61.6386 13.3407 61.8257 13.4311C61.8848 13.4521 61.9451 13.4693 62.0064 13.4827C62.0903 13.4827 62.2065 13.6118 62.0645 13.4827L62.1161 13.5214L62.4711 13.7408L62.6453 13.8635C62.7938 13.9667 62.4388 13.6892 62.6453 13.8635C63.0971 14.2507 63.5746 14.6185 63.9877 15.0445C64.1038 15.1606 64.2136 15.2833 64.3233 15.4059C64.433 15.5285 64.3233 15.4446 64.3233 15.4059C64.3684 15.4704 64.4201 15.5349 64.4653 15.6059C64.5104 15.6769 64.6395 15.877 64.7169 16.019C64.7944 16.161 64.7944 16.1609 64.8331 16.2319C65.0138 16.5675 64.7557 15.9738 64.8783 16.3287C64.9299 16.4836 64.9751 16.6385 65.0138 16.7999C65.0424 16.8696 65.0577 16.944 65.059 17.0193C65.1042 16.7934 65.059 16.8515 65.059 16.9741C65.059 17.0967 65.059 17.2839 65.059 17.4323C65.0686 17.5095 65.0686 17.5875 65.059 17.6646C65.1687 17.3161 65.059 17.6646 65.059 17.7292L65.0009 17.9486C65.0009 17.9938 64.8589 18.2777 64.9493 18.0906C65.0396 17.9034 64.9493 18.1293 64.9041 18.1745C64.8589 18.2197 64.8073 18.3358 64.7557 18.4133C64.6201 18.6391 64.7557 18.4133 64.7557 18.4133C64.6718 18.4907 64.5943 18.5811 64.5169 18.6585C64.4394 18.7359 64.3297 18.7359 64.5169 18.6585C64.433 18.6972 64.3555 18.7553 64.2716 18.8005C64.1877 18.8457 63.9619 18.9037 64.2716 18.8005L64.0006 18.8844C63.9554 18.8844 63.7166 18.9554 63.9167 18.8844C64.1168 18.8134 63.8199 18.8844 63.7747 18.8844H63.5424C63.2068 18.8844 63.807 18.9683 63.4843 18.8844L63.2649 18.8263C62.9745 18.7553 63.4843 18.9425 63.1939 18.8263C62.861 18.6312 62.4642 18.5763 62.0908 18.6737C61.7174 18.7711 61.3981 19.0129 61.2029 19.3458C61.0078 19.6787 60.9529 20.0755 61.0504 20.4489C61.1478 20.8223 61.3896 21.1416 61.7225 21.3368L61.7289 21.298Z" fill="#E27152"/>
<path d="M67.2726 9.05554C67.2464 10.4948 67.5733 11.9186 68.2247 13.2023C68.8761 14.486 69.8322 15.5905 71.0092 16.4191C71.3311 16.7068 71.716 16.9151 72.1329 17.0272C72.5498 17.1392 72.9872 17.152 73.41 17.0645C73.8319 16.8988 74.2038 16.6269 74.4899 16.2753C74.7759 15.9237 74.9664 15.5042 75.0427 15.0574C75.4174 13.5648 75.5137 12.0158 75.3267 10.4882C75.1209 8.69688 74.5569 6.96524 73.6681 5.39635L71.39 7.15817L77.4629 13.6118C77.7381 13.8683 78.1022 14.0079 78.4784 14.0013C78.8546 13.9947 79.2135 13.8423 79.4795 13.5762C79.7456 13.3102 79.898 12.9513 79.9046 12.5751C79.9112 12.1989 79.7716 11.8348 79.5151 11.5595L73.4422 5.10592C72.2999 3.89264 70.351 5.44797 71.1577 6.86131C71.5177 7.47131 71.8057 8.12101 72.016 8.7974C72.1257 9.13944 72.2161 9.48793 72.2935 9.83642C72.3709 10.1849 72.4226 10.4818 72.4419 10.6754C72.5269 11.4146 72.5377 12.1605 72.4742 12.9019C72.4623 13.1842 72.4255 13.465 72.3645 13.7409C72.3258 13.9345 72.287 14.1216 72.2419 14.3088L72.1838 14.5089C72.1322 14.6723 72.1322 14.6723 72.1838 14.5089C72.0934 14.6508 72.0999 14.6508 72.1838 14.5089L73.0228 14.283C73.1196 14.3152 73.1002 14.283 72.9518 14.2249C72.8033 14.1668 72.784 14.1281 72.7065 14.07C72.5832 13.9957 72.4647 13.9138 72.3516 13.8248C72.5387 13.9732 72.229 13.715 72.1967 13.6892C71.7314 13.3057 71.3381 12.8424 71.035 12.3211C70.8866 12.0694 70.7511 11.8177 70.6285 11.5531C70.5575 11.3982 70.551 11.3788 70.6285 11.5015C70.6285 11.4111 70.5575 11.3208 70.5317 11.2304C70.5058 11.1401 70.4413 10.9529 70.3961 10.8174C70.351 10.6819 70.3122 10.4882 70.28 10.3204C70.28 10.2688 70.2025 9.79126 70.2283 10.0688C70.2058 9.7314 70.2058 9.3929 70.2283 9.05554C70.2283 8.67043 70.0754 8.3011 69.803 8.02878C69.5307 7.75647 69.1614 7.60347 68.7763 7.60347C68.3912 7.60347 68.0218 7.75647 67.7495 8.02878C67.4772 8.3011 67.3242 8.67043 67.3242 9.05554H67.2726Z" fill="#E27152"/>
<path d="M84.4005 0.840089C83.8206 0.648014 83.2067 0.580608 82.599 0.642274C81.9913 0.70394 81.4034 0.893287 80.874 1.19793C80.3445 1.50256 79.8854 1.91562 79.5267 2.41003C79.1679 2.90444 78.9177 3.46906 78.7923 4.0669C78.4071 6.73793 78.9565 9.46003 80.3476 11.7725C81.1543 13.1794 83.5035 12.2437 83.0001 10.6496C82.0279 7.54444 80.6477 4.58214 78.8956 1.84041C78.8043 1.66661 78.6788 1.5131 78.5266 1.38918C78.3743 1.26526 78.1985 1.1735 78.0098 1.11944C77.8211 1.06538 77.6234 1.05013 77.4286 1.07464C77.2338 1.09914 77.0461 1.16289 76.8766 1.26201C76.7072 1.36114 76.5596 1.49361 76.4428 1.65138C76.326 1.80916 76.2424 1.98896 76.1971 2.17995C76.1518 2.37095 76.1456 2.56915 76.179 2.76259C76.2125 2.95602 76.2848 3.14067 76.3916 3.30538C77.2202 4.59809 77.9639 5.94329 78.6181 7.33245C79.2395 8.65795 79.7678 10.0251 80.1992 11.424L82.8581 10.3076C82.3945 9.53714 82.0548 8.69872 81.8513 7.82292C81.7868 7.57768 81.7287 7.32598 81.6835 7.07429C81.6835 7.07429 81.619 6.67417 81.6384 6.81615C81.6577 6.95813 81.6384 6.5451 81.6384 6.55155C81.5846 6.06303 81.5695 5.57103 81.5932 5.08012C81.6022 4.75764 81.6861 4.44168 81.8384 4.15726L81.9675 3.96366C81.7868 4.21535 81.9675 4.00238 82.0062 3.96366L82.2192 3.77004C82.0643 3.89911 82.1353 3.83458 82.2579 3.77004L82.5161 3.62806C82.4128 3.6926 82.3354 3.6926 82.5161 3.62806L82.8 3.55062C82.9613 3.50544 83.013 3.51835 82.8 3.55062C82.9934 3.53772 83.1874 3.53772 83.3808 3.55062C83.2582 3.55062 83.1743 3.50544 83.3357 3.55062L83.6712 3.65388C84.0418 3.75488 84.4372 3.70496 84.7711 3.51507C85.1049 3.32518 85.3499 3.01077 85.4524 2.64066C85.5451 2.26959 85.4916 1.87711 85.303 1.54438C85.1144 1.21165 84.8052 0.964134 84.4392 0.853009L84.4005 0.840089Z" fill="#E27152"/>
</svg>
