<svg width="40" height="138" viewBox="0 0 40 138" fill="none" xmlns="http://www.w3.org/2000/svg">
<path d="M0.69361 3.84274C1.63408 3.48478 2.62445 3.19125 3.52269 2.74737C3.91068 2.56923 4.2606 2.32662 4.55529 2.03145C4.6905 1.88434 4.81126 1.7262 4.91612 1.55894C4.94107 1.51956 5.06774 1.29047 5.1234 1.2851L4.70692 0.774998C4.27123 2.87445 5.90842 4.4996 7.41893 5.81511C7.8239 6.17308 8.43615 5.60034 8.02926 5.24417C6.78937 4.17028 5.17522 2.75096 5.53414 0.989778C5.58212 0.758891 5.41899 0.452832 5.11766 0.479679C4.63975 0.524424 4.38448 0.814373 4.158 1.17771C3.94225 1.50462 3.64026 1.77452 3.28085 1.96165C2.89728 2.16003 2.49822 2.33114 2.08704 2.47353L0.46712 3.07491C0.358283 3.10573 0.266328 3.17438 0.210241 3.26665C0.154155 3.35893 0.138239 3.46778 0.165796 3.57069C0.19716 3.67321 0.270478 3.76012 0.369935 3.81269C0.469392 3.86525 0.587021 3.87926 0.697452 3.85169L0.69361 3.84274Z" fill="#E27152"/>
<path d="M11.5 137.5C11.5 130.5 47.5558 118.738 29 97.9999C24.5001 92.9707 20.5 114 36.5001 97.9999C53.1207 81.3792 -16 31 5.00003 1.5" stroke="#E27152" stroke-linecap="round"/>
</svg>
