<svg width="66" height="87" viewBox="0 0 66 87" fill="none" xmlns="http://www.w3.org/2000/svg">
<path d="M35.8289 79.9942C35.5436 77.1485 35.2371 74.7443 35.0785 72.3348C34.7916 68.2494 34.7038 64.2028 36.2897 60.2527C37.9029 56.2466 40.9761 53.869 45.4681 53.5529C48.2264 53.3629 51.0333 53.869 53.8014 54.1561C54.8831 54.2737 55.9469 54.6766 57.5241 55.0704C56.2207 53.17 55.1719 51.6922 54.1906 50.1752C51.7759 46.4778 49.1968 42.8689 47.0632 39.0421C44.1111 33.8119 45.7604 29.483 51.5226 26.9086C53.7829 25.9007 56.3308 25.3967 58.7614 24.6857C59.4937 24.476 60.2499 24.3664 61.1412 24.1785C57.6301 21.6864 54.2545 19.3639 51.0029 16.936C43.4189 11.2647 46.8358 4.99959 52.8094 2.04116C54.4069 1.24964 56.246 0.807649 58.0157 0.358946C59.2101 0.096021 60.42 0.447807 60.7176 1.67691C61.0005 2.78717 60.0989 3.44372 59.0289 3.84914C57.979 4.26303 56.887 4.61413 55.9103 5.12643C54.7693 5.72722 53.6192 6.34671 52.6246 7.14431C49.8325 9.39256 49.6272 11.6038 52.1993 14.0834C54.0103 15.8372 56.1078 17.3512 58.1561 18.8669C60.0616 20.2775 62.053 21.6116 64.0443 22.9457C65.061 23.6441 66.0595 24.3799 65.8859 25.6809C65.6906 27.1755 64.3228 27.5456 63.0627 27.8935C61.4611 28.3454 59.8008 28.5698 58.2322 29.1032C56.2435 29.7526 54.2568 30.4477 52.4275 31.3669C49.9501 32.6214 49.3565 34.0383 50.3664 36.4909C51.3324 38.8349 52.4665 41.1821 53.8305 43.3559C56.7782 47.9985 59.8792 52.5255 63.0002 57.061C63.7361 58.1367 64.123 59.1331 63.3078 60.209C62.5401 61.2372 61.3817 61.1775 60.203 60.8613C58.1049 60.2932 56.003 59.6334 53.8795 59.1672C52.0155 58.7653 50.0931 58.3838 48.193 58.3045C43.1157 58.0812 40.546 59.9726 39.2716 64.5269C38.3062 67.9498 38.0844 71.438 38.3376 74.9461C38.511 77.4744 38.8615 79.9873 39.1427 82.4934C39.2961 83.8195 39.4514 85.1914 37.9014 85.9353C36.428 86.6214 35.192 85.8757 34.0235 85.0908C33.5353 84.7501 33.1036 84.343 32.6628 83.9547C31.7902 83.1593 30.8502 82.403 30.0634 81.5311C24.1665 75.0834 16.873 74.7829 8.98987 77.4329C7.53815 77.9253 6.2423 78.8439 4.90057 79.6079C4.23425 79.9806 3.66504 80.5518 2.96573 80.8431C2.47094 81.0627 1.6362 81.1843 1.29971 80.9299C0.922995 80.6587 0.812328 79.8912 0.802539 79.4141C0.799295 78.3765 1.48471 77.2685 2.24744 76.5985C3.7638 75.2773 5.43001 73.9966 7.2722 73.1505C11.3436 71.2607 15.773 70.6255 20.3313 70.7203C24.2173 70.8023 27.453 72.3676 30.2478 74.7383C32.0513 76.3086 33.7014 77.9946 35.8289 79.9942Z" fill="#383736"/>
</svg>
