<svg width="46" height="59" viewBox="0 0 46 59" fill="none" xmlns="http://www.w3.org/2000/svg">
<path fill-rule="evenodd" clip-rule="evenodd" d="M8.36494 58.0244C9.20363 58.0424 10.0514 58.0247 10.8748 57.9112C13.7784 57.4924 23.4049 55.6302 25.3081 55.1278C25.892 54.9996 26.5202 54.7604 26.9957 54.4199C27.8388 53.8133 27.6477 52.7766 26.6298 52.4103C26.2679 52.2707 25.8233 52.2335 25.412 52.2565C24.2168 52.3337 23.0296 52.4428 21.8587 52.6158C18.3328 53.1544 14.7938 53.7129 11.2882 54.3313C10.1254 54.5363 8.98601 54.9046 7.86786 55.2851C7.03354 55.5695 6.54736 56.3674 6.75313 56.9627C7.00449 57.6659 7.61617 58.0035 8.36494 58.0244ZM24.8981 31.1599L24.8979 31.1599C24.3672 31.1626 23.8905 31.165 23.4105 31.1214C16.2882 30.495 9.56648 28.4491 3.019 25.8761C2.25275 25.5726 1.49244 25.1497 0.921966 24.6177C0.613468 24.3315 0.477334 23.6535 0.603171 23.2213C0.701842 22.8963 1.31884 22.5416 1.7129 22.5225C2.4626 22.4757 3.26195 22.5529 3.99979 22.7448C8.87051 24.0007 13.7281 25.2763 18.5767 26.5876C19.9948 26.9751 21.41 27.3942 22.8225 27.8125L22.8225 27.8125C23.215 27.9288 23.6073 28.045 23.9994 28.1604C24.6049 28.3308 25.2013 28.5368 25.7674 28.7664C26.4103 29.0128 26.8786 29.4999 26.6601 30.1378C26.6459 30.1781 26.6325 30.2187 26.6191 30.2591C26.4932 30.6392 26.3701 31.0105 25.6871 31.1606C25.4082 31.1572 25.1472 31.1586 24.8981 31.1599ZM45.5112 2.93872C45.5304 3.20492 45.5571 3.48453 45.5846 3.77274C45.6393 4.34682 45.6973 4.95499 45.7061 5.55904C45.7463 9.14035 45.7866 12.7217 45.7885 16.2945C45.7863 17.0704 45.6426 17.8604 45.4312 18.5979C45.1565 19.5853 44.5295 20.0433 43.7201 20.0694C42.9108 20.0956 42.2838 19.6265 42.0109 18.6246C41.8192 17.9419 41.6496 17.2039 41.6549 16.5116C41.7308 11.9609 41.8411 7.40264 41.9726 2.85657C41.9882 2.34748 42.1028 1.79979 42.3529 1.35718C42.959 0.24642 44.3544 0.243232 44.9811 1.35283C45.1314 1.62876 45.2197 1.94526 45.3173 2.29518L45.3173 2.29531C45.3741 2.49893 45.4341 2.71388 45.5112 2.93872Z" fill="#E27152"/>
</svg>
