<svg width="50" height="53" viewBox="0 0 50 53" fill="none" xmlns="http://www.w3.org/2000/svg">
<path fill-rule="evenodd" clip-rule="evenodd" d="M3.83793 1.46907C3.53209 2.1952 3.25922 2.94147 3.0915 3.69933C2.51889 6.37821 1.09908 15.4222 0.954065 17.2562C0.883443 17.8101 0.909657 18.4406 1.0906 18.9726C1.41447 19.9168 2.5277 20.1055 3.24698 19.3423C3.51218 19.0742 3.70222 18.6988 3.82009 18.3318C4.15203 17.2617 4.44891 16.1877 4.6757 15.106C5.34061 11.8427 5.99008 8.56109 6.56737 5.28809C6.75911 4.20252 6.77768 3.08135 6.77665 1.97454C6.77536 1.14851 6.13581 0.450366 5.46366 0.425866C4.66676 0.40414 4.11585 0.822461 3.83793 1.46907ZM25.0441 25.8074C25.1432 25.565 25.2313 25.3366 25.3155 25.1186C25.4948 24.6542 25.6558 24.2372 25.8645 23.833C28.9403 17.829 33.3132 12.6616 38.159 7.82716C38.7286 7.26223 39.4168 6.7434 40.15 6.42776C40.5451 6.25654 41.2769 6.37021 41.6705 6.62831C41.9652 6.82595 42.112 7.48633 41.9962 7.83697C41.7863 8.5076 41.4341 9.17907 40.9871 9.75751C38.0475 13.5796 35.0923 17.3836 32.1042 21.1673C31.2262 22.2728 30.3172 23.3647 29.4099 24.4547L29.4099 24.4547C29.1578 24.7575 28.906 25.0601 28.6549 25.3628C28.2751 25.833 27.8623 26.2831 27.4361 26.6986C26.9666 27.1755 26.3138 27.4174 25.744 27.0077C25.7081 26.9815 25.6718 26.9559 25.6355 26.9304C25.2946 26.69 24.9615 26.4552 25.0441 25.8074ZM46.7654 52.7959C46.4898 52.7214 46.1981 52.6487 45.8974 52.5739C45.2985 52.4248 44.664 52.2669 44.0506 52.0673C40.4177 50.8742 36.7848 49.681 33.1735 48.4572C32.3902 48.1892 31.6411 47.7928 30.9683 47.3553C30.0647 46.7767 29.8169 46.0722 30.0681 45.3565C30.3193 44.6409 31.0083 44.2543 32.1144 44.3596C32.8701 44.4264 33.6741 44.5315 34.3718 44.7735C38.9446 46.4006 43.5131 48.0602 48.0621 49.7342C48.5712 49.9225 49.0854 50.2104 49.4469 50.5806C50.3615 51.4907 49.8862 52.7103 48.5499 52.8769C48.2195 52.9136 47.8694 52.8821 47.4823 52.8473L47.4823 52.8473C47.257 52.827 47.0192 52.8056 46.7654 52.7959Z" fill="#E27152"/>
</svg>
