<svg width="98" height="89" viewBox="0 0 98 89" fill="none" xmlns="http://www.w3.org/2000/svg">
<path d="M8.02569 36.8045C11.5778 37.4344 14.6003 37.8977 17.5808 38.5181C22.6402 39.551 27.5875 40.7805 31.8708 43.736C36.2133 46.7385 38.0996 50.7425 37.0167 55.5631C36.3468 58.522 34.8149 61.3044 33.5619 64.1177C33.0657 65.2153 32.2285 66.2009 31.2347 67.7286C33.9703 66.9805 36.1092 66.3617 38.2735 65.8266C43.5564 64.4982 48.7853 62.9684 54.1335 61.9776C61.455 60.5855 66.178 63.7313 67.4252 70.6235C67.9121 73.3264 67.6926 76.1668 67.7629 78.9516C67.7787 79.7891 67.6649 80.6191 67.6021 81.6164C71.778 78.7431 75.7034 75.9565 79.7165 73.3347C89.0869 67.2225 95.5861 72.857 97.2311 80.0966C97.6714 82.0328 97.608 84.1085 97.5754 86.1135C97.5049 87.4538 96.6822 88.6095 95.091 88.5206C93.6491 88.4551 93.1455 87.2938 93.0022 86.0377C92.842 84.7999 92.7719 83.5384 92.4682 82.3454C92.1106 80.9509 91.7333 79.5408 91.0886 78.2358C89.2678 74.5693 86.6471 73.6316 82.7931 75.5228C80.0699 76.852 77.5447 78.5603 75.0334 80.2163C72.6964 81.7568 70.4245 83.4123 68.1525 85.0679C66.9715 85.9075 65.7511 86.7158 64.2264 86.1086C62.4735 85.4154 62.4704 83.858 62.4591 82.4211C62.4329 80.5915 62.7023 78.7745 62.5663 76.953C62.4266 74.6525 62.2304 72.3391 61.7106 70.1178C60.995 67.1063 59.4666 66.0201 56.1556 66.2798C52.991 66.5287 49.7676 66.9531 46.68 67.6756C40.0742 69.2549 33.5589 71.033 27.0267 72.8294C25.4788 73.2509 24.1414 73.3318 23.0999 72.1243C22.1008 70.9822 22.5517 69.7853 23.321 68.6506C24.6968 66.6328 26.1852 64.6409 27.4454 62.5631C28.5427 60.7368 29.6343 58.8425 30.3512 56.873C32.2808 51.6138 30.8212 48.2974 25.7018 45.4716C21.8566 43.3398 17.6891 41.9677 13.3423 41.0879C10.2125 40.4442 7.04371 39.9916 3.90571 39.4684C2.24377 39.1964 0.525479 38.9115 0.127492 37.0407C-0.225242 35.2693 1.08487 34.2148 2.42048 33.244C2.99412 32.8426 3.62987 32.5221 4.24589 32.1861C5.49766 31.5295 6.72391 30.7893 8.04068 30.2478C17.8037 26.1607 20.551 18.5994 19.9046 9.45515C19.7802 7.76974 19.0869 6.10886 18.5965 4.45026C18.3611 3.62879 17.8526 2.84444 17.7271 2.01492C17.6217 1.42357 17.7466 0.507243 18.1656 0.236919C18.6183 -0.0701077 19.5873 0.0643188 20.1705 0.209881C21.4327 0.54534 22.5556 1.62702 23.1208 2.64684C24.2316 4.67081 25.244 6.83891 25.6708 9.04991C26.6381 13.9428 25.9636 18.802 24.3596 23.5581C22.9908 27.6122 20.0314 30.4992 16.2371 32.6599C13.7393 34.041 11.151 35.2234 8.02569 36.8045Z" fill="#383736"/>
</svg>
