<svg width="81" height="73" viewBox="0 0 81 73" fill="none" xmlns="http://www.w3.org/2000/svg">
<path fill-rule="evenodd" clip-rule="evenodd" d="M1.33287 2.69517C1.01322 3.83409 0.746854 4.99776 0.640306 6.16144C0.294026 10.2714 -0.105527 24.0623 0.027658 26.8353C0.027658 27.6771 0.187479 28.6179 0.560396 29.3855C1.22632 30.7472 2.93108 30.8462 3.86337 29.5835C4.20965 29.1379 4.42275 28.5436 4.5293 27.9742C4.8223 26.3153 5.06204 24.6565 5.19522 22.9976C5.56814 17.9963 5.91442 12.9702 6.15415 7.96886C6.23406 6.31 6.0476 4.62638 5.83451 2.96752C5.67468 1.72957 4.58257 0.788722 3.57037 0.862999C2.37171 0.962035 1.62587 1.68005 1.33287 2.69517ZM37.772 35.6741C37.8742 35.2944 37.9627 34.9374 38.0472 34.5967C38.2271 33.8711 38.3888 33.2194 38.6244 32.5792C42.0872 23.0717 47.6542 14.604 53.9938 6.55733C54.7396 5.61648 55.6719 4.72516 56.7107 4.13094C57.2701 3.80907 58.3888 3.85859 59.0281 4.18046C59.5076 4.42805 59.8539 5.39365 59.7473 5.93835C59.5608 6.97823 59.1613 8.04288 58.6019 8.98373C54.9261 15.1983 51.2236 21.388 47.4678 27.5531C46.363 29.355 45.2092 31.1418 44.0576 32.9254L44.0575 32.9255L44.0568 32.9267C43.7371 33.4217 43.4176 33.9165 43.0994 34.4113C42.6199 35.1789 42.0872 35.9216 41.5278 36.6149C40.9152 37.4072 39.9829 37.8776 39.0506 37.3577C38.9918 37.3244 38.9325 37.292 38.8733 37.2598L38.8732 37.2597C38.3161 36.9557 37.772 36.6588 37.772 35.6741ZM74.1465 72.3519L74.1456 72.3517C73.2194 72.2272 72.2382 72.0952 71.2806 71.8974L71.2782 71.8969L71.2761 71.8965C65.604 70.7084 59.9319 69.5202 54.2864 68.2826C53.0612 68.0102 51.8625 67.5398 50.7704 66.9951C49.3054 66.2771 48.7993 65.262 49.0391 64.1478C49.2788 63.0337 50.2377 62.3404 51.9158 62.3157C53.0612 62.2909 54.2865 62.3156 55.3786 62.5632C62.5438 64.2469 69.709 65.98 76.8476 67.7379C77.6467 67.936 78.4724 68.2826 79.0851 68.7778C80.63 69.991 80.1505 71.8974 78.1794 72.3678C77.6912 72.4774 77.1603 72.488 76.5735 72.4998H76.5732C76.2317 72.5066 75.8712 72.5138 75.4891 72.5412C75.0621 72.475 74.6112 72.4144 74.1465 72.3519Z" fill="#E27152"/>
</svg>
