<svg width="30" height="30" viewBox="0 0 30 30" fill="none" xmlns="http://www.w3.org/2000/svg">
<path d="M27.8572 13.9287H19.2857C18.694 13.9287 18.2143 14.4084 18.2143 15.0001V27.8573C18.2143 28.449 18.694 28.9287 19.2857 28.9287H27.8572C28.4489 28.9287 28.9286 28.449 28.9286 27.8573V15.0001C28.9286 14.4084 28.4489 13.9287 27.8572 13.9287Z" stroke="#383736" stroke-width="2.14286" stroke-linecap="round" stroke-linejoin="round"/>
<path d="M27.8572 1.07153H19.2857C18.694 1.07153 18.2143 1.55123 18.2143 2.14296V6.4501C18.2143 7.04184 18.694 7.52153 19.2857 7.52153H27.8572C28.4489 7.52153 28.9286 7.04184 28.9286 6.4501V2.14296C28.9286 1.55123 28.4489 1.07153 27.8572 1.07153Z" stroke="#383736" stroke-width="2.14286" stroke-linecap="round" stroke-linejoin="round"/>
<path d="M10.7143 1.07153H2.14287C1.55114 1.07153 1.07144 1.55123 1.07144 2.14296V15.0001C1.07144 15.5918 1.55114 16.0715 2.14287 16.0715H10.7143C11.306 16.0715 11.7857 15.5918 11.7857 15.0001V2.14296C11.7857 1.55123 11.306 1.07153 10.7143 1.07153Z" stroke="#383736" stroke-width="2.14286" stroke-linecap="round" stroke-linejoin="round"/>
<path d="M10.7143 22.4788H2.14287C1.55114 22.4788 1.07144 22.9585 1.07144 23.5502V27.8573C1.07144 28.4491 1.55114 28.9288 2.14287 28.9288H10.7143C11.306 28.9288 11.7857 28.4491 11.7857 27.8573V23.5502C11.7857 22.9585 11.306 22.4788 10.7143 22.4788Z" stroke="#383736" stroke-width="2.14286" stroke-linecap="round" stroke-linejoin="round"/>
</svg>
