<svg width="43" height="63" viewBox="0 0 43 63" fill="none" xmlns="http://www.w3.org/2000/svg">
<path fill-rule="evenodd" clip-rule="evenodd" d="M9.67006 62.3659C10.4571 62.3743 11.251 62.3443 12.0174 62.212C14.7192 61.7257 23.6542 59.6058 25.4142 59.0429C25.9554 58.8979 26.5329 58.6336 26.9624 58.2627C27.7238 57.602 27.4951 56.4941 26.5234 56.115C26.1775 55.9702 25.7589 55.9362 25.3745 55.9661C24.2577 56.0643 23.1501 56.1967 22.0607 56.3972C18.7813 57.0201 15.4905 57.6642 12.2339 58.3723C11.1537 58.6069 10.1032 59.0163 9.07322 59.4384C8.30471 59.7539 7.88709 60.6148 8.10842 61.2497C8.37764 61.9997 8.96717 62.3533 9.67006 62.3659ZM23.8853 33.3802L23.8852 33.3802C23.3879 33.39 22.9411 33.3988 22.4891 33.3583C15.7829 32.7803 9.38435 30.6768 3.12399 28.0065C2.39122 27.6914 1.65832 27.2484 1.09816 26.686C0.795312 26.3836 0.635322 25.6592 0.73264 25.1947C0.809608 24.8453 1.37103 24.4574 1.7395 24.4318C2.44002 24.372 3.19301 24.4442 3.8938 24.6401C8.5195 25.9216 13.1339 27.2245 17.7414 28.5657C19.0894 28.9622 20.436 29.3927 21.7801 29.8223C22.1535 29.9417 22.5267 30.061 22.8997 30.1795C23.4754 30.354 24.0443 30.567 24.5859 30.8055C25.2003 31.061 25.6626 31.5765 25.4882 32.2626C25.4769 32.306 25.4662 32.3495 25.4556 32.393C25.3557 32.8017 25.2581 33.201 24.625 33.3706C24.3634 33.3707 24.1187 33.3755 23.8853 33.3802ZM41.8598 2.88727C41.8905 3.17211 41.9288 3.47123 41.9684 3.77955C42.0471 4.39366 42.1305 5.04422 42.1676 5.69102C42.3763 9.52597 42.5851 13.3609 42.7575 17.1874C42.7925 18.0183 42.6956 18.8663 42.5326 19.6589C42.3222 20.7199 41.7564 21.2186 40.999 21.2571C40.2415 21.2956 39.6314 20.8015 39.3278 19.732C39.1155 19.0034 38.9213 18.2152 38.8932 17.4737C38.747 12.599 38.6326 7.71584 38.5388 2.84541C38.5291 2.29999 38.6104 1.71194 38.8237 1.23465C39.3387 0.0371561 40.6466 0.0155559 41.2871 1.19574C41.4412 1.48929 41.5391 1.82711 41.6472 2.20058L41.6473 2.20066C41.7102 2.41802 41.7767 2.64746 41.8598 2.88727Z" fill="#383736"/>
</svg>
