<svg width="883" height="409" viewBox="0 0 883 409" fill="none" xmlns="http://www.w3.org/2000/svg">
<path d="M316 123H216V223H316V123Z" fill="url(#paint0_linear)"/>
<path d="M266.147 203.307C261.064 203.305 256.064 202.016 251.613 199.56L252.947 197.227C258.285 200.149 264.441 201.223 270.454 200.283C276.467 199.343 282 196.44 286.192 192.028C290.383 187.615 292.998 181.941 293.629 175.887C294.26 169.834 292.872 163.742 289.68 158.56L288.347 165.227L285.68 164.707L287.613 155C287.681 154.654 287.883 154.348 288.176 154.151C288.468 153.954 288.827 153.88 289.173 153.947L298.96 155.88L298.44 158.547L291.907 157.213C294.71 161.799 296.243 167.048 296.348 172.422C296.453 177.795 295.126 183.1 292.504 187.792C289.882 192.484 286.059 196.393 281.427 199.12C276.795 201.846 271.521 203.291 266.147 203.307ZM243.04 191.68C242.929 191.693 242.817 191.693 242.707 191.68L233.04 189.253L233.693 186.667L239.907 188.227C236.574 182.515 235.204 175.87 236.007 169.306C236.81 162.742 239.741 156.623 244.352 151.883C248.963 147.144 255 144.045 261.539 143.062C268.078 142.079 274.759 143.266 280.56 146.44L279.227 148.773C273.908 145.895 267.791 144.844 261.817 145.782C255.843 146.72 250.343 149.595 246.162 153.965C241.982 158.335 239.353 163.957 238.681 169.967C238.008 175.977 239.329 182.041 242.44 187.227L244.173 180.333L246.76 180.973L244.333 190.64C244.267 190.934 244.103 191.197 243.868 191.386C243.633 191.575 243.341 191.678 243.04 191.68ZM276.693 185.933C275.512 185.932 274.364 185.539 273.43 184.815C272.496 184.091 271.829 183.078 271.533 181.933H260.533C260.284 182.899 259.769 183.775 259.047 184.463C258.325 185.15 257.424 185.621 256.448 185.823C255.471 186.025 254.458 185.949 253.522 185.603C252.587 185.258 251.767 184.657 251.156 183.87C250.545 183.082 250.166 182.139 250.064 181.147C249.962 180.155 250.14 179.154 250.578 178.258C251.015 177.362 251.696 176.607 252.541 176.078C253.386 175.55 254.363 175.268 255.36 175.267C255.846 175.266 256.33 175.329 256.8 175.453L262.373 165.8C261.598 165.066 261.061 164.117 260.832 163.075C260.602 162.032 260.69 160.945 261.085 159.954C261.48 158.962 262.163 158.112 263.047 157.513C263.93 156.914 264.973 156.594 266.04 156.594C267.107 156.594 268.15 156.914 269.033 157.513C269.917 158.112 270.6 158.962 270.995 159.954C271.39 160.945 271.478 162.032 271.248 163.075C271.019 164.117 270.482 165.066 269.707 165.8L275.28 175.453C275.741 175.331 276.216 175.268 276.693 175.267C278.108 175.267 279.464 175.829 280.465 176.829C281.465 177.829 282.027 179.186 282.027 180.6C282.027 182.014 281.465 183.371 280.465 184.371C279.464 185.371 278.108 185.933 276.693 185.933ZM276.693 177.933C276.166 177.933 275.65 178.09 275.212 178.383C274.773 178.676 274.431 179.092 274.23 179.58C274.028 180.067 273.975 180.603 274.078 181.12C274.181 181.638 274.435 182.113 274.808 182.486C275.181 182.859 275.656 183.113 276.173 183.215C276.69 183.318 277.227 183.266 277.714 183.064C278.201 182.862 278.618 182.52 278.911 182.082C279.204 181.643 279.36 181.127 279.36 180.6C279.36 179.893 279.079 179.214 278.579 178.714C278.079 178.214 277.401 177.933 276.693 177.933ZM255.36 177.933C254.833 177.933 254.317 178.09 253.878 178.383C253.44 178.676 253.098 179.092 252.896 179.58C252.694 180.067 252.642 180.603 252.745 181.12C252.847 181.638 253.101 182.113 253.474 182.486C253.847 182.859 254.322 183.113 254.84 183.215C255.357 183.318 255.893 183.266 256.38 183.064C256.868 182.862 257.284 182.52 257.577 182.082C257.87 181.643 258.027 181.127 258.027 180.6C258.027 180.25 257.958 179.903 257.824 179.58C257.69 179.256 257.493 178.962 257.246 178.714C256.998 178.467 256.704 178.27 256.38 178.136C256.057 178.002 255.71 177.933 255.36 177.933ZM260.533 179.267H271.533C271.776 178.319 272.274 177.457 272.973 176.773L267.373 167.08C266.499 167.306 265.581 167.306 264.707 167.08L259.12 176.787C259.81 177.473 260.299 178.335 260.533 179.28V179.267ZM266.027 159.267C265.499 159.267 264.984 159.423 264.545 159.716C264.107 160.009 263.765 160.426 263.563 160.913C263.361 161.4 263.308 161.936 263.411 162.454C263.514 162.971 263.768 163.446 264.141 163.819C264.514 164.192 264.989 164.446 265.506 164.549C266.024 164.652 266.56 164.599 267.047 164.397C267.534 164.195 267.951 163.853 268.244 163.415C268.537 162.976 268.693 162.461 268.693 161.933C268.693 161.226 268.412 160.548 267.912 160.048C267.412 159.548 266.734 159.267 266.027 159.267Z" fill="white"/>
<path d="M821.12 357.24H805.94C805.56 357.243 805.186 357.137 804.864 356.935C804.542 356.733 804.284 356.443 804.12 356.1L782.84 310.38H774.24C773.71 310.38 773.201 310.169 772.826 309.794C772.451 309.419 772.24 308.91 772.24 308.38V295.24C772.24 294.71 772.451 294.201 772.826 293.826C773.201 293.451 773.71 293.24 774.24 293.24H793.22C793.596 293.247 793.962 293.359 794.277 293.564C794.592 293.769 794.842 294.059 795 294.4L816.24 340.12H821.12C821.65 340.12 822.159 340.331 822.534 340.706C822.909 341.081 823.12 341.59 823.12 342.12V355.24C823.12 355.77 822.909 356.279 822.534 356.654C822.159 357.029 821.65 357.24 821.12 357.24ZM807.12 353.24H819.12V344.12H815C814.617 344.121 814.243 344.012 813.92 343.807C813.598 343.601 813.341 343.307 813.18 342.96L791.96 297.24H776.26V306.38H784.12C784.503 306.379 784.877 306.488 785.2 306.693C785.522 306.899 785.779 307.193 785.94 307.54L807.12 353.24Z" fill="#D86613"/>
<path d="M779.86 357.24H763.62C763.283 357.239 762.951 357.153 762.656 356.989C762.361 356.826 762.113 356.591 761.933 356.305C761.753 356.02 761.649 355.694 761.629 355.357C761.609 355.021 761.675 354.684 761.82 354.38L778.8 318.82C778.962 318.48 779.217 318.192 779.536 317.99C779.854 317.789 780.223 317.681 780.6 317.68C780.975 317.679 781.342 317.784 781.661 317.982C781.979 318.18 782.235 318.463 782.4 318.8L790.54 335.6C790.668 335.869 790.734 336.162 790.734 336.46C790.734 336.758 790.668 337.051 790.54 337.32L781.66 356.1C781.498 356.44 781.243 356.728 780.924 356.93C780.606 357.131 780.237 357.239 779.86 357.24ZM766.8 353.24H778.58L786.58 336.48L780.58 324.3L766.8 353.24Z" fill="#D86613"/>
<path d="M793 376C783.704 376 774.617 373.244 766.888 368.079C759.159 362.915 753.135 355.574 749.578 346.986C746.02 338.398 745.09 328.948 746.903 319.831C748.717 310.714 753.193 302.339 759.766 295.766C766.339 289.193 774.714 284.717 783.831 282.903C792.948 281.09 802.398 282.02 810.986 285.578C819.574 289.135 826.915 295.159 832.079 302.888C837.244 310.617 840 319.704 840 329C839.989 341.462 835.034 353.41 826.222 362.222C817.41 371.034 805.462 375.989 793 376ZM793 286C784.495 286 776.182 288.522 769.111 293.247C762.039 297.972 756.528 304.687 753.273 312.545C750.019 320.402 749.167 329.048 750.826 337.389C752.485 345.73 756.581 353.392 762.594 359.406C768.608 365.419 776.27 369.515 784.611 371.174C792.952 372.833 801.598 371.981 809.455 368.727C817.313 365.472 824.028 359.961 828.753 352.89C833.478 345.818 836 337.505 836 329C835.984 317.601 831.449 306.673 823.388 298.612C815.327 290.551 804.399 286.016 793 286Z" fill="#D86613"/>
<path d="M766.88 66.88H746V46H766.88V66.88ZM750 62.88H762.88V50H750V62.88Z" fill="#3B48CC"/>
<path d="M766.88 91.2399H746V70.3799H766.88V91.2399ZM750 87.2399H762.88V74.3799H750V87.2399Z" fill="#3B48CC"/>
<path d="M766.88 115.62H746V94.7599H766.88V115.62ZM750 111.62H762.88V98.7599H750V111.62Z" fill="#3B48CC"/>
<path d="M766.88 140H746V119.12H766.88V140ZM750 136H762.88V123.12H750V136Z" fill="#3B48CC"/>
<path d="M840 66.88H770.38V46H840V66.88ZM774.38 62.88H836V50H774.38V62.88Z" fill="#3B48CC"/>
<path d="M840 91.2399H770.38V70.3799H840V91.2399ZM774.38 87.2399H836V74.3799H774.38V87.2399Z" fill="#3B48CC"/>
<path d="M840 115.62H770.38V94.7599H840V115.62ZM774.38 111.62H836V98.7599H774.38V111.62Z" fill="#3B48CC"/>
<path d="M840 140H770.38V119.12H840V140ZM774.38 136H836V123.12H774.38V136Z" fill="#3B48CC"/>
<g clip-path="url(#clip0)">
<path d="M107.96 192.82H25.96C24.3687 192.82 22.8426 192.188 21.7174 191.063C20.5921 189.937 19.96 188.411 19.96 186.82V133C19.96 131.409 20.5921 129.883 21.7174 128.757C22.8426 127.632 24.3687 127 25.96 127H107.96C109.551 127 111.077 127.632 112.203 128.757C113.328 129.883 113.96 131.409 113.96 133V186.78C113.965 187.571 113.814 188.356 113.515 189.088C113.216 189.821 112.775 190.487 112.217 191.049C111.659 191.61 110.996 192.055 110.265 192.359C109.535 192.664 108.751 192.82 107.96 192.82ZM26.04 131C25.5096 131 25.0009 131.211 24.6258 131.586C24.2507 131.961 24.04 132.47 24.04 133V186.78C24.04 187.31 24.2507 187.819 24.6258 188.194C25.0009 188.569 25.5096 188.78 26.04 188.78H108.04C108.57 188.78 109.079 188.569 109.454 188.194C109.829 187.819 110.04 187.31 110.04 186.78V133C110.04 132.47 109.829 131.961 109.454 131.586C109.079 131.211 108.57 131 108.04 131H26.04Z" fill="#232F3E"/>
<path d="M107 219H27C25.1518 218.984 23.3833 218.245 22.0745 216.94C20.7657 215.634 20.0209 213.868 20 212.02V203.36C20.0052 201.501 20.7431 199.72 22.0536 198.402C23.3641 197.084 25.1414 196.336 27 196.32H107C108.866 196.325 110.653 197.069 111.972 198.388C113.291 199.707 114.035 201.495 114.04 203.36V212.02C114.019 213.875 113.269 215.647 111.951 216.954C110.634 218.26 108.855 218.995 107 219ZM27 200.32C26.2007 200.331 25.4377 200.655 24.8762 201.224C24.3147 201.793 23.9999 202.561 24 203.36V212.02C24.0155 212.809 24.3372 213.561 24.897 214.117C25.4568 214.673 26.211 214.99 27 215H107C107.806 215 108.58 214.68 109.15 214.11C109.72 213.54 110.04 212.766 110.04 211.96V203.36C110.04 202.961 109.961 202.565 109.809 202.197C109.656 201.828 109.432 201.493 109.15 201.21C108.867 200.928 108.532 200.704 108.163 200.551C107.795 200.399 107.399 200.32 107 200.32H27Z" fill="#232F3E"/>
<path d="M104.5 185.32H29.5C28.9696 185.32 28.4609 185.109 28.0858 184.734C27.7107 184.359 27.5 183.85 27.5 183.32V136.44C27.5 135.91 27.7107 135.401 28.0858 135.026C28.4609 134.651 28.9696 134.44 29.5 134.44H104.5C105.03 134.44 105.539 134.651 105.914 135.026C106.289 135.401 106.5 135.91 106.5 136.44V183.32C106.5 183.85 106.289 184.359 105.914 184.734C105.539 185.109 105.03 185.32 104.5 185.32ZM31.5 181.32H102.5V138.44H31.5V181.32Z" fill="#232F3E"/>
<path d="M104.5 203.82H82C80.8954 203.82 80 204.715 80 205.82V209.58C80 210.685 80.8954 211.58 82 211.58H104.5C105.605 211.58 106.5 210.685 106.5 209.58V205.82C106.5 204.715 105.605 203.82 104.5 203.82Z" fill="#232F3E"/>
<path d="M212.035 161.173C212.634 160.6 212.655 159.651 212.082 159.052L202.751 149.296C202.178 148.698 201.228 148.677 200.63 149.249C200.031 149.822 200.01 150.771 200.583 151.37L208.877 160.042L200.206 168.336C199.607 168.909 199.586 169.859 200.158 170.457C200.731 171.056 201.681 171.077 202.279 170.504L212.035 161.173ZM116.967 159.5L210.965 161.588L211.031 158.589L117.033 156.5L116.967 159.5Z" fill="black"/>
</g>
<rect x="415" width="152" height="43" fill="#C4C4C4"/>
<path d="M453.123 28V26.8926L454.556 26.6465V16.5654L453.123 16.3193V15.2119H458.827C459.759 15.2119 460.544 15.3525 461.183 15.6338C461.827 15.9092 462.316 16.3105 462.65 16.8379C462.984 17.3652 463.151 18.0098 463.151 18.7715C463.151 19.5215 462.987 20.1514 462.659 20.6611C462.337 21.1709 461.877 21.5576 461.279 21.8213C460.682 22.0791 459.973 22.2168 459.152 22.2344L456.287 22.2871V26.6465L457.72 26.8926V28H453.123ZM461.569 28L458.722 21.6104L460.453 21.5928L462.817 26.708L463.705 26.8662V28H461.569ZM456.287 20.9248H458.651C459.618 20.9248 460.321 20.7402 460.761 20.3711C461.2 20.002 461.42 19.4629 461.42 18.7539C461.42 18.0801 461.209 17.5469 460.787 17.1543C460.365 16.7617 459.712 16.5654 458.827 16.5654H456.287V20.9248ZM469.576 28.1846C468.697 28.1846 467.933 27.9854 467.282 27.5869C466.632 27.1826 466.128 26.623 465.771 25.9082C465.419 25.1934 465.243 24.3672 465.243 23.4297V23.043C465.243 22.1406 465.428 21.335 465.797 20.626C466.172 19.9111 466.667 19.3486 467.282 18.9385C467.903 18.5225 468.58 18.3145 469.312 18.3145C470.168 18.3145 470.883 18.4902 471.457 18.8418C472.037 19.1934 472.474 19.6885 472.767 20.3271C473.06 20.96 473.206 21.707 473.206 22.5684V23.6494H467.036L467.01 23.6934C467.021 24.3027 467.127 24.8447 467.326 25.3193C467.531 25.7881 467.824 26.1572 468.205 26.4268C468.586 26.6963 469.043 26.8311 469.576 26.8311C470.162 26.8311 470.675 26.749 471.114 26.585C471.56 26.415 471.943 26.1836 472.266 25.8906L472.942 27.0156C472.603 27.3438 472.151 27.6221 471.589 27.8506C471.032 28.0732 470.361 28.1846 469.576 28.1846ZM467.089 22.2959H471.475V22.0674C471.475 21.6104 471.393 21.2031 471.229 20.8457C471.07 20.4824 470.83 20.1982 470.508 19.9932C470.191 19.7822 469.793 19.6768 469.312 19.6768C468.926 19.6768 468.574 19.791 468.258 20.0195C467.941 20.2422 467.681 20.5469 467.476 20.9336C467.271 21.3203 467.136 21.7598 467.071 22.252L467.089 22.2959ZM478.462 28.1846C477.823 28.1846 477.226 28.1201 476.669 27.9912C476.112 27.8623 475.521 27.6631 474.894 27.3936L474.876 25.1348H476.186L476.511 26.4971C476.839 26.6318 477.155 26.7314 477.46 26.7959C477.771 26.8545 478.104 26.8838 478.462 26.8838C479.165 26.8838 479.669 26.749 479.974 26.4795C480.278 26.21 480.431 25.876 480.431 25.4775C480.431 25.1025 480.275 24.7861 479.965 24.5283C479.66 24.2646 479.104 24.042 478.295 23.8604C477.146 23.5967 476.3 23.2451 475.755 22.8057C475.216 22.3604 474.946 21.7686 474.946 21.0303C474.946 20.5146 475.096 20.0547 475.395 19.6504C475.693 19.2402 476.109 18.915 476.643 18.6748C477.176 18.4346 477.797 18.3145 478.506 18.3145C479.227 18.3145 479.842 18.3965 480.352 18.5605C480.867 18.7246 481.315 18.9443 481.696 19.2197L481.784 21.3906H480.483L480.202 20.125C479.997 19.9727 479.754 19.8555 479.473 19.7734C479.191 19.6914 478.869 19.6504 478.506 19.6504C477.967 19.6504 477.527 19.7764 477.188 20.0283C476.854 20.2803 476.687 20.5967 476.687 20.9775C476.687 21.2002 476.733 21.3936 476.827 21.5576C476.927 21.7217 477.114 21.8711 477.39 22.0059C477.665 22.1348 478.069 22.2637 478.603 22.3926C479.927 22.7031 480.85 23.0986 481.371 23.5791C481.898 24.0596 482.162 24.6514 482.162 25.3545C482.162 26.1572 481.863 26.8311 481.266 27.376C480.674 27.915 479.739 28.1846 478.462 28.1846ZM487.893 28.1846C487.014 28.1846 486.255 27.9795 485.616 27.5693C484.983 27.1533 484.494 26.582 484.148 25.8555C483.803 25.123 483.63 24.2881 483.63 23.3506V23.1572C483.63 22.2197 483.803 21.3877 484.148 20.6611C484.494 19.9287 484.983 19.3545 485.616 18.9385C486.255 18.5225 487.008 18.3145 487.875 18.3145C488.754 18.3145 489.51 18.5225 490.143 18.9385C490.781 19.3545 491.273 19.9258 491.619 20.6523C491.965 21.3789 492.138 22.2139 492.138 23.1572V23.3506C492.138 24.2939 491.965 25.1318 491.619 25.8643C491.273 26.5908 490.784 27.1592 490.151 27.5693C489.519 27.9795 488.766 28.1846 487.893 28.1846ZM487.893 26.8311C488.443 26.8311 488.903 26.6816 489.272 26.3828C489.647 26.0781 489.929 25.665 490.116 25.1436C490.31 24.6162 490.406 24.0186 490.406 23.3506V23.1572C490.406 22.4893 490.31 21.8945 490.116 21.373C489.929 20.8457 489.647 20.4326 489.272 20.1338C488.897 19.8291 488.432 19.6768 487.875 19.6768C487.324 19.6768 486.861 19.8291 486.486 20.1338C486.111 20.4326 485.83 20.8457 485.643 21.373C485.455 21.8945 485.361 22.4893 485.361 23.1572V23.3506C485.361 24.0186 485.455 24.6162 485.643 25.1436C485.83 25.665 486.111 26.0781 486.486 26.3828C486.867 26.6816 487.336 26.8311 487.893 26.8311ZM493.21 28V26.8926L494.643 26.6465V15.6514L493.21 15.4053V14.2891H496.374V26.6465L497.807 26.8926V28H493.21ZM502.992 28L499.608 19.7383L498.624 19.6064V18.4902H502.614V19.6064L501.375 19.7822L503.484 25.1963L503.73 25.9609H503.783L504.064 25.1963L506.024 19.7822L504.75 19.6064V18.4902H508.731V19.6064L507.729 19.7383L504.513 28H502.992ZM513.75 28.1846C512.871 28.1846 512.106 27.9854 511.456 27.5869C510.806 27.1826 510.302 26.623 509.944 25.9082C509.593 25.1934 509.417 24.3672 509.417 23.4297V23.043C509.417 22.1406 509.602 21.335 509.971 20.626C510.346 19.9111 510.841 19.3486 511.456 18.9385C512.077 18.5225 512.754 18.3145 513.486 18.3145C514.342 18.3145 515.057 18.4902 515.631 18.8418C516.211 19.1934 516.647 19.6885 516.94 20.3271C517.233 20.96 517.38 21.707 517.38 22.5684V23.6494H511.21L511.184 23.6934C511.195 24.3027 511.301 24.8447 511.5 25.3193C511.705 25.7881 511.998 26.1572 512.379 26.4268C512.76 26.6963 513.217 26.8311 513.75 26.8311C514.336 26.8311 514.849 26.749 515.288 26.585C515.733 26.415 516.117 26.1836 516.439 25.8906L517.116 27.0156C516.776 27.3438 516.325 27.6221 515.763 27.8506C515.206 28.0732 514.535 28.1846 513.75 28.1846ZM511.263 22.2959H515.648V22.0674C515.648 21.6104 515.566 21.2031 515.402 20.8457C515.244 20.4824 515.004 20.1982 514.682 19.9932C514.365 19.7822 513.967 19.6768 513.486 19.6768C513.1 19.6768 512.748 19.791 512.432 20.0195C512.115 20.2422 511.854 20.5469 511.649 20.9336C511.444 21.3203 511.31 21.7598 511.245 22.252L511.263 22.2959ZM518.716 28V26.8926L520.148 26.6465V19.8525L518.716 19.6064V18.4902H521.695L521.845 19.7031L521.862 19.8701C522.132 19.3838 522.463 19.0029 522.855 18.7275C523.254 18.4521 523.708 18.3145 524.218 18.3145C524.399 18.3145 524.584 18.332 524.771 18.3672C524.965 18.3965 525.103 18.4258 525.185 18.4551L524.956 20.0635L523.752 19.9932C523.295 19.9639 522.911 20.0693 522.601 20.3096C522.29 20.5439 522.05 20.8604 521.88 21.2588V26.6465L523.312 26.8926V28H518.716Z" fill="black"/>
<rect x="415" y="152" width="152" height="43" fill="#C4C4C4"/>
<path d="M453.123 180V178.893L454.556 178.646V168.565L453.123 168.319V167.212H458.827C459.759 167.212 460.544 167.353 461.183 167.634C461.827 167.909 462.316 168.311 462.65 168.838C462.984 169.365 463.151 170.01 463.151 170.771C463.151 171.521 462.987 172.151 462.659 172.661C462.337 173.171 461.877 173.558 461.279 173.821C460.682 174.079 459.973 174.217 459.152 174.234L456.287 174.287V178.646L457.72 178.893V180H453.123ZM461.569 180L458.722 173.61L460.453 173.593L462.817 178.708L463.705 178.866V180H461.569ZM456.287 172.925H458.651C459.618 172.925 460.321 172.74 460.761 172.371C461.2 172.002 461.42 171.463 461.42 170.754C461.42 170.08 461.209 169.547 460.787 169.154C460.365 168.762 459.712 168.565 458.827 168.565H456.287V172.925ZM469.576 180.185C468.697 180.185 467.933 179.985 467.282 179.587C466.632 179.183 466.128 178.623 465.771 177.908C465.419 177.193 465.243 176.367 465.243 175.43V175.043C465.243 174.141 465.428 173.335 465.797 172.626C466.172 171.911 466.667 171.349 467.282 170.938C467.903 170.522 468.58 170.314 469.312 170.314C470.168 170.314 470.883 170.49 471.457 170.842C472.037 171.193 472.474 171.688 472.767 172.327C473.06 172.96 473.206 173.707 473.206 174.568V175.649H467.036L467.01 175.693C467.021 176.303 467.127 176.845 467.326 177.319C467.531 177.788 467.824 178.157 468.205 178.427C468.586 178.696 469.043 178.831 469.576 178.831C470.162 178.831 470.675 178.749 471.114 178.585C471.56 178.415 471.943 178.184 472.266 177.891L472.942 179.016C472.603 179.344 472.151 179.622 471.589 179.851C471.032 180.073 470.361 180.185 469.576 180.185ZM467.089 174.296H471.475V174.067C471.475 173.61 471.393 173.203 471.229 172.846C471.07 172.482 470.83 172.198 470.508 171.993C470.191 171.782 469.793 171.677 469.312 171.677C468.926 171.677 468.574 171.791 468.258 172.02C467.941 172.242 467.681 172.547 467.476 172.934C467.271 173.32 467.136 173.76 467.071 174.252L467.089 174.296ZM478.462 180.185C477.823 180.185 477.226 180.12 476.669 179.991C476.112 179.862 475.521 179.663 474.894 179.394L474.876 177.135H476.186L476.511 178.497C476.839 178.632 477.155 178.731 477.46 178.796C477.771 178.854 478.104 178.884 478.462 178.884C479.165 178.884 479.669 178.749 479.974 178.479C480.278 178.21 480.431 177.876 480.431 177.478C480.431 177.103 480.275 176.786 479.965 176.528C479.66 176.265 479.104 176.042 478.295 175.86C477.146 175.597 476.3 175.245 475.755 174.806C475.216 174.36 474.946 173.769 474.946 173.03C474.946 172.515 475.096 172.055 475.395 171.65C475.693 171.24 476.109 170.915 476.643 170.675C477.176 170.435 477.797 170.314 478.506 170.314C479.227 170.314 479.842 170.396 480.352 170.561C480.867 170.725 481.315 170.944 481.696 171.22L481.784 173.391H480.483L480.202 172.125C479.997 171.973 479.754 171.855 479.473 171.773C479.191 171.691 478.869 171.65 478.506 171.65C477.967 171.65 477.527 171.776 477.188 172.028C476.854 172.28 476.687 172.597 476.687 172.978C476.687 173.2 476.733 173.394 476.827 173.558C476.927 173.722 477.114 173.871 477.39 174.006C477.665 174.135 478.069 174.264 478.603 174.393C479.927 174.703 480.85 175.099 481.371 175.579C481.898 176.06 482.162 176.651 482.162 177.354C482.162 178.157 481.863 178.831 481.266 179.376C480.674 179.915 479.739 180.185 478.462 180.185ZM487.893 180.185C487.014 180.185 486.255 179.979 485.616 179.569C484.983 179.153 484.494 178.582 484.148 177.855C483.803 177.123 483.63 176.288 483.63 175.351V175.157C483.63 174.22 483.803 173.388 484.148 172.661C484.494 171.929 484.983 171.354 485.616 170.938C486.255 170.522 487.008 170.314 487.875 170.314C488.754 170.314 489.51 170.522 490.143 170.938C490.781 171.354 491.273 171.926 491.619 172.652C491.965 173.379 492.138 174.214 492.138 175.157V175.351C492.138 176.294 491.965 177.132 491.619 177.864C491.273 178.591 490.784 179.159 490.151 179.569C489.519 179.979 488.766 180.185 487.893 180.185ZM487.893 178.831C488.443 178.831 488.903 178.682 489.272 178.383C489.647 178.078 489.929 177.665 490.116 177.144C490.31 176.616 490.406 176.019 490.406 175.351V175.157C490.406 174.489 490.31 173.895 490.116 173.373C489.929 172.846 489.647 172.433 489.272 172.134C488.897 171.829 488.432 171.677 487.875 171.677C487.324 171.677 486.861 171.829 486.486 172.134C486.111 172.433 485.83 172.846 485.643 173.373C485.455 173.895 485.361 174.489 485.361 175.157V175.351C485.361 176.019 485.455 176.616 485.643 177.144C485.83 177.665 486.111 178.078 486.486 178.383C486.867 178.682 487.336 178.831 487.893 178.831ZM493.21 180V178.893L494.643 178.646V167.651L493.21 167.405V166.289H496.374V178.646L497.807 178.893V180H493.21ZM502.992 180L499.608 171.738L498.624 171.606V170.49H502.614V171.606L501.375 171.782L503.484 177.196L503.73 177.961H503.783L504.064 177.196L506.024 171.782L504.75 171.606V170.49H508.731V171.606L507.729 171.738L504.513 180H502.992ZM513.75 180.185C512.871 180.185 512.106 179.985 511.456 179.587C510.806 179.183 510.302 178.623 509.944 177.908C509.593 177.193 509.417 176.367 509.417 175.43V175.043C509.417 174.141 509.602 173.335 509.971 172.626C510.346 171.911 510.841 171.349 511.456 170.938C512.077 170.522 512.754 170.314 513.486 170.314C514.342 170.314 515.057 170.49 515.631 170.842C516.211 171.193 516.647 171.688 516.94 172.327C517.233 172.96 517.38 173.707 517.38 174.568V175.649H511.21L511.184 175.693C511.195 176.303 511.301 176.845 511.5 177.319C511.705 177.788 511.998 178.157 512.379 178.427C512.76 178.696 513.217 178.831 513.75 178.831C514.336 178.831 514.849 178.749 515.288 178.585C515.733 178.415 516.117 178.184 516.439 177.891L517.116 179.016C516.776 179.344 516.325 179.622 515.763 179.851C515.206 180.073 514.535 180.185 513.75 180.185ZM511.263 174.296H515.648V174.067C515.648 173.61 515.566 173.203 515.402 172.846C515.244 172.482 515.004 172.198 514.682 171.993C514.365 171.782 513.967 171.677 513.486 171.677C513.1 171.677 512.748 171.791 512.432 172.02C512.115 172.242 511.854 172.547 511.649 172.934C511.444 173.32 511.31 173.76 511.245 174.252L511.263 174.296ZM518.716 180V178.893L520.148 178.646V171.853L518.716 171.606V170.49H521.695L521.845 171.703L521.862 171.87C522.132 171.384 522.463 171.003 522.855 170.728C523.254 170.452 523.708 170.314 524.218 170.314C524.399 170.314 524.584 170.332 524.771 170.367C524.965 170.396 525.103 170.426 525.185 170.455L524.956 172.063L523.752 171.993C523.295 171.964 522.911 172.069 522.601 172.31C522.29 172.544 522.05 172.86 521.88 173.259V178.646L523.312 178.893V180H518.716Z" fill="black"/>
<rect x="415" y="308" width="152" height="43" fill="#C4C4C4"/>
<path d="M453.123 336V334.893L454.556 334.646V324.565L453.123 324.319V323.212H458.827C459.759 323.212 460.544 323.353 461.183 323.634C461.827 323.909 462.316 324.311 462.65 324.838C462.984 325.365 463.151 326.01 463.151 326.771C463.151 327.521 462.987 328.151 462.659 328.661C462.337 329.171 461.877 329.558 461.279 329.821C460.682 330.079 459.973 330.217 459.152 330.234L456.287 330.287V334.646L457.72 334.893V336H453.123ZM461.569 336L458.722 329.61L460.453 329.593L462.817 334.708L463.705 334.866V336H461.569ZM456.287 328.925H458.651C459.618 328.925 460.321 328.74 460.761 328.371C461.2 328.002 461.42 327.463 461.42 326.754C461.42 326.08 461.209 325.547 460.787 325.154C460.365 324.762 459.712 324.565 458.827 324.565H456.287V328.925ZM469.576 336.185C468.697 336.185 467.933 335.985 467.282 335.587C466.632 335.183 466.128 334.623 465.771 333.908C465.419 333.193 465.243 332.367 465.243 331.43V331.043C465.243 330.141 465.428 329.335 465.797 328.626C466.172 327.911 466.667 327.349 467.282 326.938C467.903 326.522 468.58 326.314 469.312 326.314C470.168 326.314 470.883 326.49 471.457 326.842C472.037 327.193 472.474 327.688 472.767 328.327C473.06 328.96 473.206 329.707 473.206 330.568V331.649H467.036L467.01 331.693C467.021 332.303 467.127 332.845 467.326 333.319C467.531 333.788 467.824 334.157 468.205 334.427C468.586 334.696 469.043 334.831 469.576 334.831C470.162 334.831 470.675 334.749 471.114 334.585C471.56 334.415 471.943 334.184 472.266 333.891L472.942 335.016C472.603 335.344 472.151 335.622 471.589 335.851C471.032 336.073 470.361 336.185 469.576 336.185ZM467.089 330.296H471.475V330.067C471.475 329.61 471.393 329.203 471.229 328.846C471.07 328.482 470.83 328.198 470.508 327.993C470.191 327.782 469.793 327.677 469.312 327.677C468.926 327.677 468.574 327.791 468.258 328.02C467.941 328.242 467.681 328.547 467.476 328.934C467.271 329.32 467.136 329.76 467.071 330.252L467.089 330.296ZM478.462 336.185C477.823 336.185 477.226 336.12 476.669 335.991C476.112 335.862 475.521 335.663 474.894 335.394L474.876 333.135H476.186L476.511 334.497C476.839 334.632 477.155 334.731 477.46 334.796C477.771 334.854 478.104 334.884 478.462 334.884C479.165 334.884 479.669 334.749 479.974 334.479C480.278 334.21 480.431 333.876 480.431 333.478C480.431 333.103 480.275 332.786 479.965 332.528C479.66 332.265 479.104 332.042 478.295 331.86C477.146 331.597 476.3 331.245 475.755 330.806C475.216 330.36 474.946 329.769 474.946 329.03C474.946 328.515 475.096 328.055 475.395 327.65C475.693 327.24 476.109 326.915 476.643 326.675C477.176 326.435 477.797 326.314 478.506 326.314C479.227 326.314 479.842 326.396 480.352 326.561C480.867 326.725 481.315 326.944 481.696 327.22L481.784 329.391H480.483L480.202 328.125C479.997 327.973 479.754 327.855 479.473 327.773C479.191 327.691 478.869 327.65 478.506 327.65C477.967 327.65 477.527 327.776 477.188 328.028C476.854 328.28 476.687 328.597 476.687 328.978C476.687 329.2 476.733 329.394 476.827 329.558C476.927 329.722 477.114 329.871 477.39 330.006C477.665 330.135 478.069 330.264 478.603 330.393C479.927 330.703 480.85 331.099 481.371 331.579C481.898 332.06 482.162 332.651 482.162 333.354C482.162 334.157 481.863 334.831 481.266 335.376C480.674 335.915 479.739 336.185 478.462 336.185ZM487.893 336.185C487.014 336.185 486.255 335.979 485.616 335.569C484.983 335.153 484.494 334.582 484.148 333.855C483.803 333.123 483.63 332.288 483.63 331.351V331.157C483.63 330.22 483.803 329.388 484.148 328.661C484.494 327.929 484.983 327.354 485.616 326.938C486.255 326.522 487.008 326.314 487.875 326.314C488.754 326.314 489.51 326.522 490.143 326.938C490.781 327.354 491.273 327.926 491.619 328.652C491.965 329.379 492.138 330.214 492.138 331.157V331.351C492.138 332.294 491.965 333.132 491.619 333.864C491.273 334.591 490.784 335.159 490.151 335.569C489.519 335.979 488.766 336.185 487.893 336.185ZM487.893 334.831C488.443 334.831 488.903 334.682 489.272 334.383C489.647 334.078 489.929 333.665 490.116 333.144C490.31 332.616 490.406 332.019 490.406 331.351V331.157C490.406 330.489 490.31 329.895 490.116 329.373C489.929 328.846 489.647 328.433 489.272 328.134C488.897 327.829 488.432 327.677 487.875 327.677C487.324 327.677 486.861 327.829 486.486 328.134C486.111 328.433 485.83 328.846 485.643 329.373C485.455 329.895 485.361 330.489 485.361 331.157V331.351C485.361 332.019 485.455 332.616 485.643 333.144C485.83 333.665 486.111 334.078 486.486 334.383C486.867 334.682 487.336 334.831 487.893 334.831ZM493.21 336V334.893L494.643 334.646V323.651L493.21 323.405V322.289H496.374V334.646L497.807 334.893V336H493.21ZM502.992 336L499.608 327.738L498.624 327.606V326.49H502.614V327.606L501.375 327.782L503.484 333.196L503.73 333.961H503.783L504.064 333.196L506.024 327.782L504.75 327.606V326.49H508.731V327.606L507.729 327.738L504.513 336H502.992ZM513.75 336.185C512.871 336.185 512.106 335.985 511.456 335.587C510.806 335.183 510.302 334.623 509.944 333.908C509.593 333.193 509.417 332.367 509.417 331.43V331.043C509.417 330.141 509.602 329.335 509.971 328.626C510.346 327.911 510.841 327.349 511.456 326.938C512.077 326.522 512.754 326.314 513.486 326.314C514.342 326.314 515.057 326.49 515.631 326.842C516.211 327.193 516.647 327.688 516.94 328.327C517.233 328.96 517.38 329.707 517.38 330.568V331.649H511.21L511.184 331.693C511.195 332.303 511.301 332.845 511.5 333.319C511.705 333.788 511.998 334.157 512.379 334.427C512.76 334.696 513.217 334.831 513.75 334.831C514.336 334.831 514.849 334.749 515.288 334.585C515.733 334.415 516.117 334.184 516.439 333.891L517.116 335.016C516.776 335.344 516.325 335.622 515.763 335.851C515.206 336.073 514.535 336.185 513.75 336.185ZM511.263 330.296H515.648V330.067C515.648 329.61 515.566 329.203 515.402 328.846C515.244 328.482 515.004 328.198 514.682 327.993C514.365 327.782 513.967 327.677 513.486 327.677C513.1 327.677 512.748 327.791 512.432 328.02C512.115 328.242 511.854 328.547 511.649 328.934C511.444 329.32 511.31 329.76 511.245 330.252L511.263 330.296ZM518.716 336V334.893L520.148 334.646V327.853L518.716 327.606V326.49H521.695L521.845 327.703L521.862 327.87C522.132 327.384 522.463 327.003 522.855 326.728C523.254 326.452 523.708 326.314 524.218 326.314C524.399 326.314 524.584 326.332 524.771 326.367C524.965 326.396 525.103 326.426 525.185 326.455L524.956 328.063L523.752 327.993C523.295 327.964 522.911 328.069 522.601 328.31C522.29 328.544 522.05 328.86 521.88 329.259V334.646L523.312 334.893V336H518.716Z" fill="black"/>
<path d="M216 173L201 164.34V181.66L216 173ZM117 174.5L202.5 174.5V171.5L117 171.5V174.5Z" fill="black"/>
<path d="M415 21L400 12.3397V29.6603L415 21ZM354 22.5L401.5 22.5V19.5L354 19.5V22.5Z" fill="black"/>
<path d="M743 93L728 84.3397V101.66L743 93ZM682 94.5L729.5 94.5V91.5L682 91.5V94.5Z" fill="black"/>
<path d="M743 329L727.951 320.425L728.049 337.745L743 329ZM567.009 331.5L729.509 330.577L729.492 327.577L566.991 328.5L567.009 331.5Z" fill="black"/>
<path d="M415 330L400 321.34V338.66L415 330ZM354 331.5H401.5V328.5H354V331.5Z" fill="black"/>
<path d="M415 173L400 164.34V181.66L415 173ZM316 174.5L401.5 174.5V171.5L316 171.5V174.5Z" fill="black"/>
<line x1="355.5" y1="21" x2="355.5" y2="330" stroke="black" stroke-width="3"/>
<line x1="683.5" y1="21" x2="683.5" y2="173" stroke="black" stroke-width="3"/>
<line x1="682" y1="22.5" x2="567" y2="22.5" stroke="black" stroke-width="3"/>
<line x1="685" y1="174.5" x2="567" y2="174.5" stroke="black" stroke-width="3"/>
<path d="M209.55 245V243.893L210.499 243.761L214.973 232.203H216.458L220.853 243.761L221.793 243.893V245H218.119V243.893L219.086 243.726L218.242 241.37H213.118L212.248 243.726L213.215 243.893V245H209.55ZM213.654 239.92H217.715L215.834 234.717L215.729 234.427H215.676L215.57 234.717L213.654 239.92ZM222.804 248.656V247.54L224.148 247.294V236.853L222.716 236.606V235.49H225.634L225.792 236.65C226.108 236.217 226.492 235.886 226.943 235.657C227.4 235.429 227.928 235.314 228.525 235.314C229.311 235.314 229.981 235.528 230.538 235.956C231.095 236.378 231.52 236.973 231.812 237.74C232.105 238.502 232.252 239.396 232.252 240.421V240.605C232.252 241.52 232.103 242.319 231.804 243.005C231.511 243.69 231.089 244.227 230.538 244.613C229.987 244.994 229.325 245.185 228.552 245.185C227.966 245.185 227.45 245.088 227.005 244.895C226.565 244.695 226.19 244.402 225.88 244.016V247.294L227.392 247.54V248.656H222.804ZM228.016 243.831C228.836 243.831 229.457 243.532 229.879 242.935C230.301 242.337 230.512 241.561 230.512 240.605V240.421C230.512 239.694 230.418 239.056 230.23 238.505C230.043 237.948 229.762 237.512 229.387 237.195C229.018 236.879 228.555 236.721 227.998 236.721C227.506 236.721 227.084 236.832 226.732 237.055C226.381 237.277 226.097 237.582 225.88 237.969V242.601C226.097 242.993 226.378 243.298 226.724 243.515C227.075 243.726 227.506 243.831 228.016 243.831ZM233.333 248.656V247.54L234.678 247.294V236.853L233.245 236.606V235.49H236.163L236.321 236.65C236.638 236.217 237.021 235.886 237.473 235.657C237.93 235.429 238.457 235.314 239.055 235.314C239.84 235.314 240.511 235.528 241.067 235.956C241.624 236.378 242.049 236.973 242.342 237.74C242.635 238.502 242.781 239.396 242.781 240.421V240.605C242.781 241.52 242.632 242.319 242.333 243.005C242.04 243.69 241.618 244.227 241.067 244.613C240.517 244.994 239.854 245.185 239.081 245.185C238.495 245.185 237.979 245.088 237.534 244.895C237.095 244.695 236.72 244.402 236.409 244.016V247.294L237.921 247.54V248.656H233.333ZM238.545 243.831C239.365 243.831 239.986 243.532 240.408 242.935C240.83 242.337 241.041 241.561 241.041 240.605V240.421C241.041 239.694 240.947 239.056 240.76 238.505C240.572 237.948 240.291 237.512 239.916 237.195C239.547 236.879 239.084 236.721 238.527 236.721C238.035 236.721 237.613 236.832 237.262 237.055C236.91 237.277 236.626 237.582 236.409 237.969V242.601C236.626 242.993 236.907 243.298 237.253 243.515C237.604 243.726 238.035 243.831 238.545 243.831ZM248.802 245.185C248.022 245.185 247.272 245.07 246.552 244.842C245.831 244.613 245.143 244.262 244.486 243.787V241.054H245.831L246.121 243.066C246.502 243.301 246.915 243.482 247.36 243.611C247.806 243.74 248.286 243.805 248.802 243.805C249.388 243.805 249.883 243.717 250.287 243.541C250.697 243.359 251.011 243.11 251.228 242.794C251.444 242.478 251.553 242.108 251.553 241.687C251.553 241.294 251.459 240.948 251.271 240.649C251.084 240.351 250.773 240.09 250.34 239.867C249.912 239.639 249.326 239.439 248.582 239.27C247.703 239.064 246.959 238.792 246.35 238.452C245.746 238.106 245.286 237.69 244.97 237.204C244.659 236.712 244.504 236.149 244.504 235.517C244.504 234.849 244.68 234.251 245.031 233.724C245.389 233.196 245.884 232.78 246.517 232.476C247.149 232.171 247.888 232.019 248.731 232.019C249.628 232.019 250.419 232.156 251.104 232.432C251.796 232.701 252.364 233.029 252.81 233.416V235.974H251.465L251.175 234.146C250.911 233.935 250.583 233.759 250.19 233.618C249.798 233.478 249.312 233.407 248.731 233.407C248.239 233.407 247.806 233.495 247.431 233.671C247.056 233.841 246.763 234.081 246.552 234.392C246.341 234.702 246.235 235.068 246.235 235.49C246.235 235.859 246.329 236.182 246.517 236.457C246.71 236.732 247.021 236.976 247.448 237.187C247.882 237.392 248.459 237.585 249.18 237.767C250.527 238.101 251.547 238.596 252.238 239.252C252.936 239.902 253.284 240.708 253.284 241.669C253.284 242.354 253.1 242.964 252.73 243.497C252.361 244.024 251.84 244.438 251.166 244.736C250.498 245.035 249.71 245.185 248.802 245.185ZM256.791 248.841C256.656 248.841 256.48 248.823 256.264 248.788C256.047 248.759 255.88 248.729 255.763 248.7L255.938 247.338C256.038 247.35 256.176 247.358 256.352 247.364C256.527 247.376 256.647 247.382 256.712 247.382C257.081 247.382 257.38 247.241 257.608 246.96C257.843 246.679 258.06 246.295 258.259 245.809L258.672 244.807L255.306 236.747L254.286 236.606V235.49H258.276V236.606L257.125 236.782L258.979 241.537L259.428 242.776H259.48L261.678 236.782L260.465 236.606V235.49H264.376V236.606L263.392 236.747L259.647 246.459C259.472 246.916 259.258 247.323 259.006 247.681C258.76 248.044 258.455 248.328 258.092 248.533C257.734 248.738 257.301 248.841 256.791 248.841ZM265.202 245V243.893L266.635 243.646V236.853L265.202 236.606V235.49H268.182L268.305 236.905C268.621 236.401 269.017 236.012 269.491 235.736C269.972 235.455 270.517 235.314 271.126 235.314C272.151 235.314 272.945 235.616 273.508 236.22C274.07 236.817 274.352 237.743 274.352 238.997V243.646L275.784 243.893V245H271.188V243.893L272.62 243.646V239.032C272.62 238.194 272.453 237.6 272.119 237.248C271.791 236.896 271.287 236.721 270.607 236.721C270.109 236.721 269.667 236.841 269.28 237.081C268.899 237.321 268.595 237.649 268.366 238.065V243.646L269.799 243.893V245H265.202ZM281.225 245.185C280.363 245.185 279.613 244.985 278.975 244.587C278.336 244.183 277.841 243.623 277.489 242.908C277.138 242.193 276.962 241.367 276.962 240.43V240.061C276.962 239.158 277.132 238.35 277.472 237.635C277.812 236.92 278.301 236.354 278.939 235.938C279.578 235.522 280.34 235.314 281.225 235.314C281.992 235.314 282.663 235.44 283.237 235.692C283.817 235.944 284.304 236.29 284.696 236.729L284.74 239.015H283.387L283.088 237.354C282.889 237.148 282.64 236.984 282.341 236.861C282.042 236.738 281.69 236.677 281.286 236.677C280.771 236.677 280.316 236.829 279.924 237.134C279.537 237.438 279.235 237.846 279.019 238.355C278.802 238.865 278.693 239.434 278.693 240.061V240.43C278.693 241.121 278.793 241.722 278.992 242.231C279.197 242.741 279.487 243.137 279.862 243.418C280.243 243.693 280.694 243.831 281.216 243.831C281.802 243.831 282.288 243.67 282.675 243.348C283.062 243.025 283.299 242.583 283.387 242.021H284.942L284.96 242.073C284.931 242.618 284.77 243.128 284.477 243.603C284.184 244.077 283.765 244.461 283.22 244.754C282.681 245.041 282.016 245.185 281.225 245.185ZM290.761 245V243.893L291.71 243.761L296.184 232.203H297.669L302.063 243.761L303.004 243.893V245H299.33V243.893L300.297 243.726L299.453 241.37H294.329L293.459 243.726L294.426 243.893V245H290.761ZM294.865 239.92H298.926L297.045 234.717L296.939 234.427H296.887L296.781 234.717L294.865 239.92ZM304.34 245V243.893L305.772 243.646V233.565L304.34 233.319V232.203H305.772H310.22C311.134 232.203 311.913 232.364 312.558 232.687C313.202 233.003 313.694 233.448 314.034 234.022C314.374 234.597 314.544 235.268 314.544 236.035C314.544 236.809 314.374 237.482 314.034 238.057C313.694 238.631 313.202 239.076 312.558 239.393C311.913 239.709 311.134 239.867 310.22 239.867H307.504V243.646L308.937 243.893V245H304.34ZM307.504 238.514H310.22C311.087 238.514 311.734 238.282 312.162 237.819C312.596 237.351 312.812 236.762 312.812 236.053C312.812 235.344 312.596 234.752 312.162 234.277C311.734 233.803 311.087 233.565 310.22 233.565H307.504V238.514ZM315.748 245V243.893L317.181 243.646V233.565L315.748 233.319V232.203H320.345V233.319L318.912 233.565V243.646L320.345 243.893V245H315.748Z" fill="black"/>
<path d="M48.4902 241.185C47.207 241.185 46.1348 240.903 45.2734 240.341C44.418 239.778 43.7734 239.008 43.3398 238.029C42.9121 237.051 42.6982 235.94 42.6982 234.698V234.514C42.6982 233.26 42.9238 232.146 43.375 231.174C43.8262 230.195 44.4736 229.425 45.3174 228.862C46.1611 228.3 47.1689 228.019 48.3408 228.019C49.167 228.019 49.9229 228.147 50.6084 228.405C51.2939 228.663 51.8623 228.991 52.3135 229.39V232.149H50.9336L50.749 230.128C50.5615 229.981 50.3447 229.858 50.0986 229.759C49.8584 229.659 49.5889 229.583 49.29 229.53C48.9971 229.478 48.6777 229.451 48.332 229.451C47.4941 229.451 46.7852 229.668 46.2051 230.102C45.625 230.529 45.1855 231.121 44.8867 231.877C44.5879 232.633 44.4385 233.506 44.4385 234.496V234.698C44.4385 235.771 44.5967 236.688 44.9131 237.449C45.2354 238.205 45.7012 238.782 46.3105 239.181C46.9258 239.579 47.6729 239.778 48.5518 239.778C48.9619 239.778 49.3633 239.729 49.7559 239.629C50.1484 239.529 50.4736 239.4 50.7314 239.242L50.9248 237.458H52.2783V240.235C51.7979 240.534 51.2236 240.769 50.5557 240.938C49.8877 241.103 49.1992 241.185 48.4902 241.185ZM53.8955 241V239.893L55.3281 239.646V228.651L53.8955 228.405V227.289H57.0596V239.646L58.4922 239.893V241H53.8955ZM59.6699 241V239.893L61.1025 239.646V232.853L59.6699 232.606V231.49H62.834V239.646L64.2666 239.893V241H59.6699ZM61.0146 229.144V227.289H62.834V229.144H61.0146ZM69.7949 241.185C68.916 241.185 68.1514 240.985 67.501 240.587C66.8506 240.183 66.3467 239.623 65.9893 238.908C65.6377 238.193 65.4619 237.367 65.4619 236.43V236.043C65.4619 235.141 65.6465 234.335 66.0156 233.626C66.3906 232.911 66.8857 232.349 67.501 231.938C68.1221 231.522 68.7988 231.314 69.5312 231.314C70.3867 231.314 71.1016 231.49 71.6758 231.842C72.2559 232.193 72.6924 232.688 72.9854 233.327C73.2783 233.96 73.4248 234.707 73.4248 235.568V236.649H67.2549L67.2285 236.693C67.2402 237.303 67.3457 237.845 67.5449 238.319C67.75 238.788 68.043 239.157 68.4238 239.427C68.8047 239.696 69.2617 239.831 69.7949 239.831C70.3809 239.831 70.8936 239.749 71.333 239.585C71.7783 239.415 72.1621 239.184 72.4844 238.891L73.1611 240.016C72.8213 240.344 72.3701 240.622 71.8076 240.851C71.251 241.073 70.5801 241.185 69.7949 241.185ZM67.3076 235.296H71.6934V235.067C71.6934 234.61 71.6113 234.203 71.4473 233.846C71.2891 233.482 71.0488 233.198 70.7266 232.993C70.4102 232.782 70.0117 232.677 69.5312 232.677C69.1445 232.677 68.793 232.791 68.4766 233.02C68.1602 233.242 67.8994 233.547 67.6943 233.934C67.4893 234.32 67.3545 234.76 67.29 235.252L67.3076 235.296ZM74.7783 241V239.893L76.2109 239.646V232.853L74.7783 232.606V231.49H77.7578L77.8809 232.905C78.1973 232.401 78.5928 232.012 79.0674 231.736C79.5479 231.455 80.0928 231.314 80.7021 231.314C81.7275 231.314 82.5215 231.616 83.084 232.22C83.6465 232.817 83.9277 233.743 83.9277 234.997V239.646L85.3604 239.893V241H80.7637V239.893L82.1963 239.646V235.032C82.1963 234.194 82.0293 233.6 81.6953 233.248C81.3672 232.896 80.8633 232.721 80.1836 232.721C79.6855 232.721 79.2432 232.841 78.8564 233.081C78.4756 233.321 78.1709 233.649 77.9424 234.065V239.646L79.375 239.893V241H74.7783ZM89.5967 241.149C88.8936 241.149 88.334 240.944 87.918 240.534C87.5078 240.118 87.3027 239.456 87.3027 238.548V232.773H85.7998V231.49H87.3027V229.196H89.0342V231.49H91.0996V232.773H89.0342V238.548C89.0342 239.005 89.125 239.342 89.3066 239.559C89.4883 239.775 89.7314 239.884 90.0361 239.884C90.2412 239.884 90.4697 239.866 90.7217 239.831C90.9736 239.79 91.1699 239.755 91.3105 239.726L91.5479 240.859C91.2959 240.936 90.9854 241.003 90.6162 241.062C90.2529 241.12 89.9131 241.149 89.5967 241.149Z" fill="black"/>
<path d="M725.474 167V165.893L726.906 165.646V155.565L725.474 155.319V154.203H726.906H730.483C731.614 154.203 732.599 154.473 733.437 155.012C734.28 155.551 734.937 156.292 735.405 157.235C735.874 158.179 736.108 159.257 736.108 160.47V160.742C736.108 161.926 735.883 162.992 735.432 163.941C734.98 164.885 734.339 165.632 733.507 166.183C732.681 166.728 731.702 167 730.571 167H725.474ZM728.638 165.646H730.483C731.292 165.646 731.986 165.427 732.566 164.987C733.146 164.542 733.592 163.95 733.902 163.212C734.219 162.468 734.377 161.645 734.377 160.742V160.452C734.377 159.521 734.219 158.688 733.902 157.956C733.592 157.218 733.146 156.635 732.566 156.207C731.986 155.779 731.292 155.565 730.483 155.565H728.638V165.646ZM739.396 170.841C739.261 170.841 739.085 170.823 738.868 170.788C738.651 170.759 738.484 170.729 738.367 170.7L738.543 169.338C738.643 169.35 738.78 169.358 738.956 169.364C739.132 169.376 739.252 169.382 739.316 169.382C739.686 169.382 739.984 169.241 740.213 168.96C740.447 168.679 740.664 168.295 740.863 167.809L741.276 166.807L737.91 158.747L736.891 158.606V157.49H740.881V158.606L739.729 158.782L741.584 163.537L742.032 164.776H742.085L744.282 158.782L743.069 158.606V157.49H746.98V158.606L745.996 158.747L742.252 168.459C742.076 168.916 741.862 169.323 741.61 169.681C741.364 170.044 741.06 170.328 740.696 170.533C740.339 170.738 739.905 170.841 739.396 170.841ZM747.807 167V165.893L749.239 165.646V158.853L747.807 158.606V157.49H750.786L750.909 158.905C751.226 158.401 751.621 158.012 752.096 157.736C752.576 157.455 753.121 157.314 753.73 157.314C754.756 157.314 755.55 157.616 756.112 158.22C756.675 158.817 756.956 159.743 756.956 160.997V165.646L758.389 165.893V167H753.792V165.893L755.225 165.646V161.032C755.225 160.194 755.058 159.6 754.724 159.248C754.396 158.896 753.892 158.721 753.212 158.721C752.714 158.721 752.271 158.841 751.885 159.081C751.504 159.321 751.199 159.649 750.971 160.065V165.646L752.403 165.893V167H747.807ZM762.695 167.185C761.705 167.185 760.952 166.944 760.437 166.464C759.921 165.978 759.663 165.295 759.663 164.416C759.663 163.812 759.827 163.288 760.155 162.843C760.489 162.392 760.97 162.043 761.597 161.797C762.224 161.545 762.974 161.419 763.847 161.419H765.543V160.487C765.543 159.913 765.367 159.468 765.016 159.151C764.67 158.835 764.181 158.677 763.548 158.677C763.149 158.677 762.804 158.727 762.511 158.826C762.218 158.92 761.951 159.052 761.711 159.222L761.526 160.549H760.19V158.369C760.618 158.023 761.116 157.763 761.685 157.587C762.253 157.405 762.883 157.314 763.574 157.314C764.729 157.314 765.634 157.59 766.29 158.141C766.946 158.691 767.274 159.479 767.274 160.505V165.084C767.274 165.207 767.274 165.327 767.274 165.444C767.28 165.562 767.289 165.679 767.301 165.796L768.224 165.893V167H765.736C765.684 166.742 765.643 166.511 765.613 166.306C765.584 166.101 765.563 165.896 765.552 165.69C765.218 166.118 764.799 166.476 764.295 166.763C763.797 167.044 763.264 167.185 762.695 167.185ZM762.95 165.734C763.524 165.734 764.049 165.597 764.523 165.321C764.998 165.046 765.338 164.715 765.543 164.328V162.605H763.785C762.988 162.605 762.391 162.796 761.992 163.177C761.594 163.558 761.395 163.982 761.395 164.451C761.395 164.867 761.523 165.187 761.781 165.409C762.039 165.626 762.429 165.734 762.95 165.734ZM769.568 167V165.893L771.001 165.646V158.853L769.568 158.606V157.49H772.557L772.671 158.729C772.976 158.278 773.368 157.93 773.849 157.684C774.329 157.438 774.886 157.314 775.519 157.314C776.151 157.314 776.693 157.461 777.145 157.754C777.602 158.047 777.944 158.486 778.173 159.072C778.472 158.533 778.867 158.105 779.359 157.789C779.852 157.473 780.426 157.314 781.082 157.314C782.055 157.314 782.822 157.648 783.385 158.316C783.947 158.979 784.229 159.978 784.229 161.313V165.646L785.661 165.893V167H781.056V165.893L782.488 165.646V161.296C782.488 160.358 782.327 159.696 782.005 159.31C781.683 158.917 781.205 158.721 780.572 158.721C779.969 158.721 779.482 158.935 779.113 159.362C778.75 159.784 778.539 160.317 778.48 160.962V165.646L779.913 165.893V167H775.316V165.893L776.749 165.646V161.296C776.749 160.405 776.582 159.755 776.248 159.345C775.92 158.929 775.442 158.721 774.815 158.721C774.288 158.721 773.854 158.829 773.515 159.046C773.175 159.263 772.914 159.567 772.732 159.96V165.646L774.165 165.893V167H769.568ZM791.11 167.185C790.231 167.185 789.473 166.979 788.834 166.569C788.201 166.153 787.712 165.582 787.366 164.855C787.021 164.123 786.848 163.288 786.848 162.351V162.157C786.848 161.22 787.021 160.388 787.366 159.661C787.712 158.929 788.201 158.354 788.834 157.938C789.473 157.522 790.226 157.314 791.093 157.314C791.972 157.314 792.728 157.522 793.36 157.938C793.999 158.354 794.491 158.926 794.837 159.652C795.183 160.379 795.355 161.214 795.355 162.157V162.351C795.355 163.294 795.183 164.132 794.837 164.864C794.491 165.591 794.002 166.159 793.369 166.569C792.736 166.979 791.983 167.185 791.11 167.185ZM791.11 165.831C791.661 165.831 792.121 165.682 792.49 165.383C792.865 165.078 793.146 164.665 793.334 164.144C793.527 163.616 793.624 163.019 793.624 162.351V162.157C793.624 161.489 793.527 160.895 793.334 160.373C793.146 159.846 792.865 159.433 792.49 159.134C792.115 158.829 791.649 158.677 791.093 158.677C790.542 158.677 790.079 158.829 789.704 159.134C789.329 159.433 789.048 159.846 788.86 160.373C788.673 160.895 788.579 161.489 788.579 162.157V162.351C788.579 163.019 788.673 163.616 788.86 164.144C789.048 164.665 789.329 165.078 789.704 165.383C790.085 165.682 790.554 165.831 791.11 165.831ZM796.753 167V165.893L798.186 165.646V155.565L796.753 155.319V154.203H798.186H801.763C802.894 154.203 803.878 154.473 804.716 155.012C805.56 155.551 806.216 156.292 806.685 157.235C807.153 158.179 807.388 159.257 807.388 160.47V160.742C807.388 161.926 807.162 162.992 806.711 163.941C806.26 164.885 805.618 165.632 804.786 166.183C803.96 166.728 802.981 167 801.851 167H796.753ZM799.917 165.646H801.763C802.571 165.646 803.266 165.427 803.846 164.987C804.426 164.542 804.871 163.95 805.182 163.212C805.498 162.468 805.656 161.645 805.656 160.742V160.452C805.656 159.521 805.498 158.688 805.182 157.956C804.871 157.218 804.426 156.635 803.846 156.207C803.266 155.779 802.571 155.565 801.763 155.565H799.917V165.646ZM808.671 167V165.893L810.104 165.646V155.565L808.671 155.319V154.203H810.104H814.19C815.526 154.203 816.569 154.493 817.319 155.073C818.075 155.647 818.453 156.512 818.453 157.666C818.453 158.234 818.271 158.744 817.908 159.195C817.551 159.641 817.076 159.972 816.484 160.188C817 160.294 817.442 160.502 817.812 160.812C818.181 161.117 818.465 161.492 818.664 161.938C818.869 162.377 818.972 162.86 818.972 163.388C818.972 164.56 818.591 165.456 817.829 166.077C817.067 166.692 816.036 167 814.735 167H808.671ZM811.835 165.646H814.735C815.526 165.646 816.139 165.453 816.572 165.066C817.012 164.674 817.231 164.12 817.231 163.405C817.231 162.901 817.149 162.471 816.985 162.113C816.827 161.756 816.581 161.48 816.247 161.287C815.919 161.094 815.503 160.997 814.999 160.997H811.835V165.646ZM811.835 159.644H814.639C815.26 159.644 815.761 159.465 816.142 159.107C816.528 158.744 816.722 158.252 816.722 157.631C816.722 156.939 816.505 156.424 816.071 156.084C815.638 155.738 815.011 155.565 814.19 155.565H811.835V159.644ZM827.928 167V165.893L829.36 165.646V155.513H826.46L826.205 157.288H824.904V154.203H835.539V157.288H834.256L833.992 155.513H831.092V165.646L832.524 165.893V167H827.928ZM839.143 167.185C838.152 167.185 837.399 166.944 836.884 166.464C836.368 165.978 836.11 165.295 836.11 164.416C836.11 163.812 836.274 163.288 836.603 162.843C836.937 162.392 837.417 162.043 838.044 161.797C838.671 161.545 839.421 161.419 840.294 161.419H841.99V160.487C841.99 159.913 841.814 159.468 841.463 159.151C841.117 158.835 840.628 158.677 839.995 158.677C839.597 158.677 839.251 158.727 838.958 158.826C838.665 158.92 838.398 159.052 838.158 159.222L837.974 160.549H836.638V158.369C837.065 158.023 837.563 157.763 838.132 157.587C838.7 157.405 839.33 157.314 840.021 157.314C841.176 157.314 842.081 157.59 842.737 158.141C843.394 158.691 843.722 159.479 843.722 160.505V165.084C843.722 165.207 843.722 165.327 843.722 165.444C843.728 165.562 843.736 165.679 843.748 165.796L844.671 165.893V167H842.184C842.131 166.742 842.09 166.511 842.061 166.306C842.031 166.101 842.011 165.896 841.999 165.69C841.665 166.118 841.246 166.476 840.742 166.763C840.244 167.044 839.711 167.185 839.143 167.185ZM839.397 165.734C839.972 165.734 840.496 165.597 840.971 165.321C841.445 165.046 841.785 164.715 841.99 164.328V162.605H840.232C839.436 162.605 838.838 162.796 838.439 163.177C838.041 163.558 837.842 163.982 837.842 164.451C837.842 164.867 837.971 165.187 838.229 165.409C838.486 165.626 838.876 165.734 839.397 165.734ZM851.069 167.185C850.448 167.185 849.909 167.067 849.452 166.833C848.995 166.593 848.614 166.241 848.31 165.778L848.151 167H846.657V154.651L845.225 154.405V153.289H848.389V158.615C848.688 158.193 849.057 157.871 849.496 157.648C849.941 157.426 850.46 157.314 851.052 157.314C851.837 157.314 852.505 157.528 853.056 157.956C853.612 158.378 854.037 158.973 854.33 159.74C854.629 160.508 854.778 161.401 854.778 162.421V162.605C854.778 163.52 854.629 164.319 854.33 165.005C854.037 165.69 853.612 166.227 853.056 166.613C852.505 166.994 851.843 167.185 851.069 167.185ZM850.63 165.778C851.444 165.778 852.048 165.488 852.44 164.908C852.839 164.328 853.038 163.561 853.038 162.605V162.421C853.038 161.688 852.95 161.047 852.774 160.496C852.599 159.939 852.332 159.506 851.975 159.195C851.617 158.879 851.163 158.721 850.612 158.721C850.079 158.721 849.628 158.85 849.259 159.107C848.896 159.365 848.605 159.711 848.389 160.145V164.346C848.605 164.785 848.898 165.134 849.268 165.392C849.643 165.649 850.097 165.778 850.63 165.778ZM855.912 167V165.893L857.345 165.646V154.651L855.912 154.405V153.289H859.076V165.646L860.509 165.893V167H855.912ZM865.905 167.185C865.026 167.185 864.262 166.985 863.611 166.587C862.961 166.183 862.457 165.623 862.1 164.908C861.748 164.193 861.572 163.367 861.572 162.43V162.043C861.572 161.141 861.757 160.335 862.126 159.626C862.501 158.911 862.996 158.349 863.611 157.938C864.232 157.522 864.909 157.314 865.642 157.314C866.497 157.314 867.212 157.49 867.786 157.842C868.366 158.193 868.803 158.688 869.096 159.327C869.389 159.96 869.535 160.707 869.535 161.568V162.649H863.365L863.339 162.693C863.351 163.303 863.456 163.845 863.655 164.319C863.86 164.788 864.153 165.157 864.534 165.427C864.915 165.696 865.372 165.831 865.905 165.831C866.491 165.831 867.004 165.749 867.443 165.585C867.889 165.415 868.272 165.184 868.595 164.891L869.271 166.016C868.932 166.344 868.48 166.622 867.918 166.851C867.361 167.073 866.69 167.185 865.905 167.185ZM863.418 161.296H867.804V161.067C867.804 160.61 867.722 160.203 867.558 159.846C867.399 159.482 867.159 159.198 866.837 158.993C866.521 158.782 866.122 158.677 865.642 158.677C865.255 158.677 864.903 158.791 864.587 159.02C864.271 159.242 864.01 159.547 863.805 159.934C863.6 160.32 863.465 160.76 863.4 161.252L863.418 161.296Z" fill="black"/>
<path d="M761.101 401V399.893L762.533 399.646V389.565L761.101 389.319V388.203H762.533H764.265H765.697V389.319L764.265 389.565V399.673H768.791L768.993 397.651H770.32V401H761.101ZM774.926 401.185C773.936 401.185 773.183 400.944 772.667 400.464C772.151 399.978 771.894 399.295 771.894 398.416C771.894 397.812 772.058 397.288 772.386 396.843C772.72 396.392 773.2 396.043 773.827 395.797C774.454 395.545 775.204 395.419 776.077 395.419H777.773V394.487C777.773 393.913 777.598 393.468 777.246 393.151C776.9 392.835 776.411 392.677 775.778 392.677C775.38 392.677 775.034 392.727 774.741 392.826C774.448 392.92 774.182 393.052 773.941 393.222L773.757 394.549H772.421V392.369C772.849 392.023 773.347 391.763 773.915 391.587C774.483 391.405 775.113 391.314 775.805 391.314C776.959 391.314 777.864 391.59 778.521 392.141C779.177 392.691 779.505 393.479 779.505 394.505V399.084C779.505 399.207 779.505 399.327 779.505 399.444C779.511 399.562 779.52 399.679 779.531 399.796L780.454 399.893V401H777.967C777.914 400.742 777.873 400.511 777.844 400.306C777.814 400.101 777.794 399.896 777.782 399.69C777.448 400.118 777.029 400.476 776.525 400.763C776.027 401.044 775.494 401.185 774.926 401.185ZM775.181 399.734C775.755 399.734 776.279 399.597 776.754 399.321C777.229 399.046 777.568 398.715 777.773 398.328V396.605H776.016C775.219 396.605 774.621 396.796 774.223 397.177C773.824 397.558 773.625 397.982 773.625 398.451C773.625 398.867 773.754 399.187 774.012 399.409C774.27 399.626 774.659 399.734 775.181 399.734ZM781.799 401V399.893L783.231 399.646V392.853L781.799 392.606V391.49H784.787L784.901 392.729C785.206 392.278 785.599 391.93 786.079 391.684C786.56 391.438 787.116 391.314 787.749 391.314C788.382 391.314 788.924 391.461 789.375 391.754C789.832 392.047 790.175 392.486 790.403 393.072C790.702 392.533 791.098 392.105 791.59 391.789C792.082 391.473 792.656 391.314 793.312 391.314C794.285 391.314 795.053 391.648 795.615 392.316C796.178 392.979 796.459 393.978 796.459 395.313V399.646L797.892 399.893V401H793.286V399.893L794.719 399.646V395.296C794.719 394.358 794.558 393.696 794.235 393.31C793.913 392.917 793.436 392.721 792.803 392.721C792.199 392.721 791.713 392.935 791.344 393.362C790.98 393.784 790.77 394.317 790.711 394.962V399.646L792.144 399.893V401H787.547V399.893L788.979 399.646V395.296C788.979 394.405 788.812 393.755 788.479 393.345C788.15 392.929 787.673 392.721 787.046 392.721C786.519 392.721 786.085 392.829 785.745 393.046C785.405 393.263 785.145 393.567 784.963 393.96V399.646L786.396 399.893V401H781.799ZM804.237 401.185C803.616 401.185 803.077 401.067 802.62 400.833C802.163 400.593 801.782 400.241 801.478 399.778L801.319 401H799.825V388.651L798.393 388.405V387.289H801.557V392.615C801.855 392.193 802.225 391.871 802.664 391.648C803.109 391.426 803.628 391.314 804.22 391.314C805.005 391.314 805.673 391.528 806.224 391.956C806.78 392.378 807.205 392.973 807.498 393.74C807.797 394.508 807.946 395.401 807.946 396.421V396.605C807.946 397.52 807.797 398.319 807.498 399.005C807.205 399.69 806.78 400.227 806.224 400.613C805.673 400.994 805.011 401.185 804.237 401.185ZM803.798 399.778C804.612 399.778 805.216 399.488 805.608 398.908C806.007 398.328 806.206 397.561 806.206 396.605V396.421C806.206 395.688 806.118 395.047 805.942 394.496C805.767 393.939 805.5 393.506 805.143 393.195C804.785 392.879 804.331 392.721 803.78 392.721C803.247 392.721 802.796 392.85 802.427 393.107C802.063 393.365 801.773 393.711 801.557 394.145V398.346C801.773 398.785 802.066 399.134 802.436 399.392C802.811 399.649 803.265 399.778 803.798 399.778ZM813.343 401.185C812.569 401.185 811.904 400.994 811.348 400.613C810.797 400.227 810.375 399.69 810.082 399.005C809.789 398.319 809.643 397.52 809.643 396.605V396.421C809.643 395.401 809.789 394.508 810.082 393.74C810.375 392.973 810.8 392.378 811.356 391.956C811.913 391.528 812.581 391.314 813.36 391.314C813.923 391.314 814.418 391.42 814.846 391.631C815.279 391.836 815.648 392.135 815.953 392.527V388.651L814.521 388.405V387.289H815.953H817.685V399.646L819.117 399.893V401H816.182L816.041 399.866C815.73 400.3 815.35 400.628 814.898 400.851C814.453 401.073 813.935 401.185 813.343 401.185ZM813.782 399.778C814.298 399.778 814.731 399.661 815.083 399.427C815.435 399.192 815.725 398.861 815.953 398.434V394.021C815.73 393.623 815.44 393.307 815.083 393.072C814.726 392.838 814.298 392.721 813.8 392.721C813.249 392.721 812.795 392.879 812.438 393.195C812.08 393.506 811.813 393.939 811.638 394.496C811.462 395.047 811.374 395.688 811.374 396.421V396.605C811.374 397.561 811.57 398.328 811.963 398.908C812.355 399.488 812.962 399.778 813.782 399.778ZM823.389 401.185C822.398 401.185 821.646 400.944 821.13 400.464C820.614 399.978 820.356 399.295 820.356 398.416C820.356 397.812 820.521 397.288 820.849 396.843C821.183 396.392 821.663 396.043 822.29 395.797C822.917 395.545 823.667 395.419 824.54 395.419H826.236V394.487C826.236 393.913 826.061 393.468 825.709 393.151C825.363 392.835 824.874 392.677 824.241 392.677C823.843 392.677 823.497 392.727 823.204 392.826C822.911 392.92 822.645 393.052 822.404 393.222L822.22 394.549H820.884V392.369C821.312 392.023 821.81 391.763 822.378 391.587C822.946 391.405 823.576 391.314 824.268 391.314C825.422 391.314 826.327 391.59 826.983 392.141C827.64 392.691 827.968 393.479 827.968 394.505V399.084C827.968 399.207 827.968 399.327 827.968 399.444C827.974 399.562 827.982 399.679 827.994 399.796L828.917 399.893V401H826.43C826.377 400.742 826.336 400.511 826.307 400.306C826.277 400.101 826.257 399.896 826.245 399.69C825.911 400.118 825.492 400.476 824.988 400.763C824.49 401.044 823.957 401.185 823.389 401.185ZM823.644 399.734C824.218 399.734 824.742 399.597 825.217 399.321C825.691 399.046 826.031 398.715 826.236 398.328V396.605H824.479C823.682 396.605 823.084 396.796 822.686 397.177C822.287 397.558 822.088 397.982 822.088 398.451C822.088 398.867 822.217 399.187 822.475 399.409C822.732 399.626 823.122 399.734 823.644 399.734Z" fill="black"/>
<defs>
<linearGradient id="paint0_linear" x1="195.293" y1="243.707" x2="336.707" y2="102.293" gradientUnits="userSpaceOnUse">
<stop stop-color="#B0084D"/>
<stop offset="1" stop-color="#FF4F8B"/>
</linearGradient>
<clipPath id="clip0">
<rect width="100" height="100" fill="white" transform="translate(17 123)"/>
</clipPath>
</defs>
</svg>
