<?xml version="1.0" standalone="no"?>
<!DOCTYPE svg PUBLIC "-//W3C//DTD SVG 20010904//EN"
 "http://www.w3.org/TR/2001/REC-SVG-20010904/DTD/svg10.dtd">
<svg version="1.0" xmlns="http://www.w3.org/2000/svg"
 width="700.000000pt" height="700.000000pt" viewBox="0 0 700.000000 700.000000"
 preserveAspectRatio="xMidYMid meet">
<metadata>
Created by potrace 1.11, written by Peter Selinger 2001-2013
</metadata>
<g transform="translate(0.000000,700.000000) scale(0.100000,-0.100000)"
fill="#000000" stroke="none">
<path d="M1119 6468 c-60 -10 -155 -59 -205 -105 -54 -50 -91 -110 -211 -343
-207 -402 -309 -600 -395 -765 -220 -424 -288 -568 -297 -635 -6 -38 -10 -558
-10 -1240 -1 -1282 -3 -1236 57 -1358 52 -108 181 -213 292 -238 19 -4 363 -8
763 -9 604 0 729 -3 736 -14 10 -16 26 11 -269 -471 -122 -200 -229 -383 -237
-405 -8 -22 -14 -71 -14 -109 0 -125 74 -234 183 -272 37 -12 328 -14 2228
-11 1202 1 2195 5 2208 9 57 17 69 22 112 41 67 31 119 68 179 130 66 68 87
102 181 287 41 80 89 172 108 205 18 32 63 116 99 185 37 69 87 163 113 210
130 240 190 392 232 585 22 99 22 110 25 1315 3 1174 2 1217 -16 1278 -11 34
-31 82 -45 106 -37 64 -127 141 -194 167 -57 23 -60 23 -656 24 l-599 2 -24
27 c-37 44 -30 75 51 219 156 279 340 606 386 687 70 122 84 183 66 282 -16
83 -86 172 -164 205 -34 15 -236 17 -2338 17 -1266 1 -2321 -2 -2345 -6z
m4401 -373 c33 -29 49 -72 40 -109 -4 -17 -92 -175 -195 -351 -103 -176 -204
-347 -223 -380 -95 -164 -124 -205 -150 -212 -15 -3 -544 -7 -1177 -8 -1233
-1 -1193 1 -1284 -52 -86 -50 -144 -114 -207 -231 -16 -29 -33 -61 -39 -70
-24 -41 -75 -132 -105 -187 -18 -33 -50 -90 -71 -127 -22 -36 -39 -69 -39 -71
0 -3 -17 -36 -39 -74 -21 -37 -73 -135 -116 -218 -43 -82 -103 -195 -132 -250
-29 -55 -65 -126 -80 -157 l-27 -57 -80 3 c-120 6 -201 42 -284 125 -50 50
-84 109 -113 191 l-22 65 -2 885 c-1 943 0 959 47 1055 35 70 94 140 152 180
110 76 -48 70 2153 70 1957 0 1971 0 1993 -20z m1014 -1367 c67 -15 136 -83
156 -153 12 -42 14 -224 14 -1085 l-1 -1035 -22 -50 c-28 -62 -64 -102 -116
-126 -37 -17 -73 -19 -464 -19 -409 0 -425 1 -457 20 -18 12 -42 40 -55 66
-36 75 -26 107 111 350 66 117 136 242 156 276 69 123 87 170 92 237 5 78 -16
157 -56 216 -31 44 -107 100 -156 114 -17 4 -811 9 -1765 9 -1690 1 -1735 1
-1760 20 -56 41 -68 114 -30 185 35 65 116 229 248 497 66 135 137 272 159
305 54 85 130 141 227 170 55 17 3646 20 3719 3z m-1031 -1497 c24 -2 61 -46
69 -83 6 -30 -16 -80 -110 -248 -13 -25 -38 -70 -54 -100 -17 -30 -55 -100
-86 -155 -162 -293 -170 -304 -255 -351 l-52 -29 -1400 -5 -1400 -5 -48 -28
c-56 -33 -111 -88 -127 -127 l-11 -26 -702 1 c-485 1 -710 4 -727 12 -66 29
-102 105 -88 185 8 41 29 80 109 192 54 78 104 148 109 156 6 8 41 58 78 110
37 52 74 105 82 116 8 12 44 63 79 113 71 102 145 175 212 208 107 54 32 52
1803 59 902 3 1642 7 1643 7 2 2 851 0 876 -2z m894 -1286 c50 -20 85 -72 91
-135 6 -62 -5 -85 -218 -460 -85 -151 -167 -297 -180 -324 -40 -78 -122 -161
-198 -198 l-67 -33 -2041 -3 -2042 -2 -25 30 c-48 56 -72 10 360 690 118 184
227 350 244 368 32 33 74 59 119 73 14 4 901 8 1972 8 1717 1 1952 -1 1985
-14z"/>
</g>
</svg>
