<?xml version="1.0" standalone="no"?>
<!DOCTYPE svg PUBLIC "-//W3C//DTD SVG 20010904//EN"
 "http://www.w3.org/TR/2001/REC-SVG-20010904/DTD/svg10.dtd">
<svg version="1.0" xmlns="http://www.w3.org/2000/svg"
 width="16.000000pt" height="16.000000pt" viewBox="0 0 16.000000 16.000000"
 preserveAspectRatio="xMidYMid meet">
<metadata>
Created by potrace 1.11, written by Peter Selinger 2001-2013
</metadata>
<g transform="translate(0.000000,16.000000) scale(0.001563,-0.001563)"
fill="#000000" stroke="none">
<path d="M0 5120 l0 -5120 5120 0 5120 0 0 5120 0 5120 -5120 0 -5120 0 0
-5120z m4715 2366 c288 -48 544 -153 785 -324 110 -78 303 -265 379 -369 l53
-72 57 28 c83 42 218 88 334 113 83 18 135 22 282 22 200 1 304 -16 474 -76
424 -149 759 -498 890 -923 46 -149 61 -257 61 -430 l0 -152 106 -52 c334
-162 585 -455 693 -806 46 -152 55 -216 55 -390 0 -174 -20 -296 -71 -439
-166 -461 -576 -798 -1063 -871 -81 -13 -471 -15 -2624 -15 -2788 0 -2631 -3
-2836 62 -149 48 -271 111 -402 210 -258 195 -435 479 -505 808 -27 131 -25
382 6 520 104 472 448 851 900 994 95 30 233 56 298 56 l44 0 -8 68 c-4 37 -8
157 -7 267 1 175 4 216 27 326 165 787 807 1371 1602 1458 115 13 354 6 470
-13z"/>
<path d="M5102 5998 c-11 -29 -93 -254 -182 -500 l-162 -447 -409 -136 c-225
-75 -409 -138 -409 -140 0 -2 184 -65 409 -140 l409 -136 183 -505 c100 -277
183 -503 184 -502 2 2 85 229 185 505 l182 502 409 136 c225 75 409 138 409
140 0 2 -184 65 -410 140 -225 75 -410 138 -410 140 0 7 -360 988 -364 992 -2
3 -13 -20 -24 -49z"/>
</g>
</svg>
