<svg width="693" height="154" viewBox="0 0 693 154" fill="none" xmlns="http://www.w3.org/2000/svg">
<path fill-rule="evenodd" clip-rule="evenodd" d="M52.8858 121.935C53.0272 121.726 53.0419 121.457 52.924 121.233C52.806 121.012 52.5747 120.874 52.3228 120.874C46.9881 120.874 26.2042 120.874 12.4889 120.874C9.17459 120.874 5.99644 119.557 3.65433 117.211C1.3119 114.866 -0.00287925 111.687 4.73454e-06 108.374C0.0141042 91.1114 0.0390994 60.9097 0.0477513 50.3896C0.049674 47.9382 0.692483 45.5317 1.91209 43.404C6.31112 35.739 17.4109 16.3939 23.1911 6.31917C25.4335 2.40978 29.5951 -1.24476e-06 34.1009 -1.24476e-06H163.223C165.94 -1.24476e-06 168.443 1.47732 169.76 3.8518C171.077 6.22948 171 9.13261 169.559 11.4366C164.766 19.0984 158.784 28.6636 155.673 33.6369C155.25 34.313 155.227 35.1654 155.614 35.864C156.001 36.5625 156.736 36.9951 157.533 36.9951C164.43 36.9951 178.874 36.9951 188.993 36.9951C195.072 36.9951 200 41.9235 200 48.0023V103.631C200 109.848 198.425 115.965 195.421 121.406C191.637 128.264 185.497 137.979 181.625 144.997C178.594 150.489 172.818 153.899 166.545 153.899H45.3606C42.5833 153.899 40.0332 152.364 38.7325 149.909C37.4319 147.458 37.5934 144.484 39.152 142.187C44.4351 134.397 50.7776 125.043 52.8858 121.935Z" fill="#E27152"/>
<path fill-rule="evenodd" clip-rule="evenodd" d="M71.5628 116.099C69.0284 116.099 66.6527 117.333 65.1924 119.403C61.1651 125.117 52.9336 136.794 48.7909 142.671C48.3067 143.36 48.2458 144.257 48.6326 145.003C49.0194 145.75 49.7894 146.218 50.6293 146.218C69.18 146.218 141.148 146.218 163.744 146.218C167.909 146.218 171.756 143.991 173.832 140.379C176.789 135.236 181.869 127.76 184.914 122.463C185.67 121.15 185.668 119.531 184.908 118.221C184.149 116.907 182.748 116.099 181.232 116.099C158.387 116.099 89.0558 116.099 71.5628 116.099Z" fill="#FFFBF9"/>
<path fill-rule="evenodd" clip-rule="evenodd" d="M39.6687 83.7059C35.4084 83.7187 31.3897 85.6863 28.7656 89.0445C25.0203 93.8351 19.4875 100.914 15.3788 106.169C14.3553 107.476 14.1682 109.255 14.8965 110.748C15.6246 112.244 17.1412 113.19 18.8031 113.19H57.9012C59.2817 110.277 62.2179 108.418 65.4428 108.418C80.9055 108.418 125.939 108.418 141.006 108.418C144.097 108.418 146.966 106.81 148.58 104.173C151.448 99.4909 156.03 92.0086 158.86 87.3846C159.368 86.5546 159.387 85.5164 158.91 84.6704C158.434 83.8212 157.536 83.2989 156.564 83.3021C136.906 83.3694 62.5566 83.6258 39.6687 83.7059Z" fill="#FFFBF9"/>
<path fill-rule="evenodd" clip-rule="evenodd" d="M159.763 102.173C158.979 103.432 158.94 105.019 159.66 106.316C160.381 107.614 161.748 108.419 163.232 108.419H185.159C186.851 108.419 188.473 107.746 189.67 106.55C190.866 105.352 191.538 103.731 191.538 102.039C191.538 89.7817 191.538 63.0823 191.538 50.928C191.538 47.4736 188.739 44.6762 185.286 44.6762C165.266 44.6762 102.891 44.6762 83.0013 44.6762C79.165 44.6762 75.5946 46.6373 73.5367 49.8738C69.9081 55.5841 65.684 64.6846 62.111 70.3051C61.4763 71.3017 61.4359 72.5674 62.0056 73.6057C62.5751 74.6439 63.6646 75.2881 64.8479 75.2881H161.971C164.901 75.2881 167.6 76.8774 169.023 79.4377C170.446 81.9981 170.369 85.1288 168.821 87.6187C165.736 92.5759 162.314 98.0747 159.763 102.173Z" fill="#FFFBF9"/>
<path fill-rule="evenodd" clip-rule="evenodd" d="M141.903 36.995C142.742 36.995 143.525 36.5689 143.985 35.8671C146.409 32.1532 154.237 20.1654 158.514 13.6156C159.082 12.7472 159.127 11.6352 158.634 10.7252C158.139 9.81191 157.185 9.24471 156.148 9.24471C137.3 9.24471 72.4656 9.24471 45.4949 9.24471C42.3341 9.24471 39.303 10.4976 37.0679 12.7343C34.8332 14.9678 33.5773 17.9992 33.5773 21.1619C33.5773 33.0247 33.5773 51.1682 33.5773 63.3066C33.5773 66.6264 34.9367 69.7987 37.3387 72.0899C39.7407 74.3811 42.9756 75.5859 46.2909 75.4289C46.2915 75.4289 47.8527 75.4289 47.8527 75.4289C47.8938 75.0924 60.4657 53.3888 67.4045 42.7469C69.746 39.158 73.7419 36.995 78.0278 36.995C94.2329 36.995 134.078 36.995 141.903 36.995Z" fill="#FFFBF9"/>
<path d="M301.421 140C289.909 140 280.014 137.506 271.737 132.517C263.459 127.474 257.101 120.512 252.66 111.632C248.22 102.697 246 92.3635 246 80.6325V77.4257C246 65.4206 248.193 54.8956 252.578 45.8507C257.018 36.751 263.213 29.6521 271.161 24.5541C279.11 19.4012 288.374 16.8248 298.954 16.8248C307.834 16.8248 315.838 17.976 322.964 20.2783C330.09 22.5258 336.23 25.7601 341.383 29.981V55.5534H325.513L322.882 38.9437C320.47 37.1347 317.4 35.7095 313.672 34.6679C309.945 33.6264 305.614 33.1056 300.681 33.1056C293.938 33.1056 287.99 34.9694 282.837 38.697C277.739 42.3698 273.765 47.5227 270.915 54.1556C268.119 60.7337 266.721 68.4356 266.721 77.2612V80.6325C266.721 89.3485 268.064 96.9408 270.75 103.409C273.491 109.878 277.465 114.894 282.673 118.457C287.935 122.02 294.322 123.801 301.832 123.801C306.601 123.801 310.794 123.363 314.412 122.486C318.085 121.609 321.21 120.512 323.786 119.197V95.5977L304.216 94.4466V79.728H344.507V127.255C339.957 130.818 334.147 133.833 327.075 136.3C320.059 138.767 311.507 140 301.421 140Z" fill="#E27152"/>
<path d="M396.886 140C387.347 140 379.892 136.985 374.52 130.955C369.203 124.87 366.544 115.442 366.544 102.669V64.5161L356.512 62.0493V49.3042H387.265V102.834C387.265 110.508 388.471 115.908 390.883 119.032C393.35 122.102 397.132 123.637 402.23 123.637C406.725 123.637 410.535 122.76 413.66 121.006C416.839 119.197 419.361 116.648 421.225 113.359V64.5161L410.042 62.0493V49.3042H441.946V123.144L452.471 125.61V138.273H423.609L422.211 126.186C419.416 130.626 415.852 134.052 411.522 136.464C407.246 138.821 402.367 140 396.886 140Z" fill="#E27152"/>
<path d="M461.68 138.273V125.61L474.014 123.144V64.5161L460.94 62.0493V49.3042H494.735V123.144L506.987 125.61V138.273H461.68ZM473.192 29.1588V10H494.735V29.1588H473.192Z" fill="#E27152"/>
<path d="M550.978 140C543.797 140 537.657 138.191 532.559 134.573C527.461 130.955 523.542 125.912 520.801 119.443C518.115 112.92 516.772 105.328 516.772 96.6667V94.9399C516.772 85.4565 518.115 77.179 520.801 70.1075C523.542 63.0361 527.461 57.5269 532.559 53.58C537.712 49.6331 543.824 47.6597 550.896 47.6597C555.994 47.6597 560.434 48.6464 564.216 50.6199C568.054 52.5385 571.343 55.3068 574.084 58.9247V25.2119L561.01 22.7451V10H594.805V123.144L607.139 125.61V138.273H576.879L575.235 127.502C572.439 131.613 569.013 134.738 564.956 136.875C560.955 138.958 556.295 140 550.978 140ZM556.816 123.637C560.763 123.637 564.162 122.787 567.012 121.088C569.863 119.334 572.22 116.812 574.084 113.523V74.3011C572.275 71.1217 569.917 68.6274 567.012 66.8185C564.162 64.9547 560.818 64.0228 556.98 64.0228C552.485 64.0228 548.785 65.3384 545.88 67.9696C543.029 70.5461 540.919 74.164 539.548 78.8235C538.178 83.4282 537.493 88.8003 537.493 94.9399V96.6667C537.493 104.889 539 111.44 542.015 116.319C545.085 121.198 550.019 123.637 556.816 123.637Z" fill="#E27152"/>
<path d="M657.626 140C649.238 140 641.92 138.136 635.671 134.409C629.477 130.626 624.653 125.419 621.199 118.786C617.801 112.153 616.101 104.56 616.101 96.0089V92.5553C616.101 83.8942 617.773 76.1923 621.117 69.4497C624.516 62.6523 629.175 57.335 635.096 53.4978C641.016 49.6057 647.758 47.6597 655.323 47.6597C663.381 47.6597 670.124 49.2768 675.551 52.5111C681.033 55.7453 685.171 60.35 687.967 66.3251C690.763 72.2454 692.161 79.3717 692.161 87.704V99.5446H637.562L637.398 99.9557C637.617 104.615 638.576 108.754 640.276 112.372C642.03 115.99 644.497 118.84 647.676 120.923C650.91 123.007 654.83 124.048 659.435 124.048C664.259 124.048 668.644 123.39 672.591 122.075C676.538 120.759 680.183 118.895 683.527 116.483L690.023 129.475C686.514 132.435 682.047 134.929 676.62 136.958C671.193 138.986 664.862 140 657.626 140ZM637.891 84.9905H672.344V82.8526C672.344 78.9606 671.741 75.5619 670.535 72.6565C669.384 69.6964 667.548 67.3941 665.026 65.7495C662.559 64.105 659.407 63.2827 655.57 63.2827C652.226 63.2827 649.293 64.2146 646.772 66.0784C644.25 67.9422 642.222 70.4912 640.687 73.7255C639.207 76.9049 638.193 80.5229 637.645 84.5794L637.891 84.9905Z" fill="#E27152"/>
</svg>
