<?xml version="1.0" encoding="UTF-8" standalone="no"?>
<!DOCTYPE svg PUBLIC "-//W3C//DTD SVG 1.1//EN" "http://www.w3.org/Graphics/SVG/1.1/DTD/svg11.dtd">
<svg width="100%" height="100%" viewBox="0 0 450 120" version="1.1" xmlns="http://www.w3.org/2000/svg" xmlns:xlink="http://www.w3.org/1999/xlink" xml:space="preserve" xmlns:serif="http://www.serif.com/" style="fill-rule:evenodd;clip-rule:evenodd;stroke-linejoin:round;stroke-miterlimit:2;">
    <path d="M310.546,14.407C312.261,11.317 314.368,7.561 315.666,5.389C316.207,4.483 316.626,3.834 316.836,3.571C317.045,3.31 317.236,3.18 317.34,3.122C318.248,2.606 320.024,2.132 323.356,2.132C325.584,2.132 326.9,2.344 327.685,2.607C328.929,3.024 329.521,3.671 329.888,4.278C330.272,4.913 330.415,5.612 330.417,6.378C330.417,6.381 330.417,6.383 330.417,6.386C330.417,6.386 330.421,15.436 330.424,24.574C330.559,24.221 330.74,23.848 330.983,23.478C332.56,21.082 335.009,17.567 335.231,17.253C336.183,15.903 338.551,14.869 341.621,14.869L361.072,14.869C363.77,14.869 365.853,15.738 367.299,17.185C368.146,18.033 368.798,19.102 369.194,20.389C370.119,18.759 371.074,17.1 371.364,16.76C372.711,15.181 374.738,14.546 376.858,14.546C386.821,14.546 393.858,14.618 397.146,14.618C400.565,14.618 402.556,15.742 403.783,17.046C404.737,18.058 405.238,19.26 405.5,20.373C406.427,18.759 407.372,17.119 407.634,16.76C408.523,15.541 411.15,14.546 413.127,14.546C417.297,14.546 430.128,14.618 433.416,14.618C436.834,14.618 438.826,15.742 440.053,17.046C441.906,19.014 442.052,21.697 442.052,23.053C442.052,24.362 441.939,25.728 441.203,26.805C441.015,27.078 440.788,27.35 440.503,27.605C441.459,28.637 442.052,30.048 442.052,31.894C442.052,33.743 441.93,41.095 441.869,44.625C441.849,45.875 441.459,47.092 440.75,48.121C438.763,51.016 438.202,51.389 438.186,51.411C438.186,51.411 437.453,52.804 433.468,52.804L407.091,52.804C405.692,52.804 404.574,52.319 403.792,51.524C403.439,51.165 403.151,50.738 402.941,50.249C402.181,51.225 401.927,51.396 401.916,51.411C401.916,51.411 401.183,52.804 397.198,52.804L370.822,52.804C369.422,52.804 368.305,52.319 367.523,51.524C366.936,50.927 366.527,50.141 366.364,49.199L364.602,51.345C364.602,51.345 363.869,52.77 359.884,52.77C355.659,52.77 338.981,52.866 334.568,52.866C333.169,52.866 332.051,52.37 331.269,51.557C330.837,51.108 330.502,50.555 330.29,49.91C329.664,50.676 329.165,51.253 329.126,51.285C329.126,51.285 327.375,52.761 325.162,52.761L312.618,52.761C311.407,52.761 309.921,52.365 308.912,51.247C308.24,50.504 307.745,49.434 307.745,47.888C307.745,46.625 307.71,40.823 307.672,34.849L305.449,37.372C305.449,37.372 305.569,47.422 305.449,47.633L303.011,52.033C302.765,52.466 302.309,52.733 301.816,52.733L290.759,52.733C289.548,52.733 288.062,52.332 287.052,51.202C286.713,50.822 286.419,50.359 286.211,49.793L284.89,51.403C284.89,51.403 284.156,52.828 280.172,52.828C277.923,52.828 272.259,52.855 266.787,52.881C267.516,53.572 267.715,54.401 267.715,55.259L267.724,62.755L270.83,59.811C271.498,58.966 272.405,58.319 273.923,57.949C274.898,57.712 276.252,57.587 278.194,57.587C280.671,57.587 282.495,58.017 283.55,58.473C284.459,58.867 285.023,59.373 285.336,59.78C286.263,60.986 286.173,62.174 285.525,63.2C285.499,63.24 277.689,72.631 275.106,75.737L288.946,91.399C289.399,91.837 289.497,92.526 289.185,93.073L286.259,98.068C286.014,98.498 285.557,98.764 285.062,98.764L269.875,98.764C269.568,98.764 268.853,98.684 268.136,97.966C266.982,96.813 265.367,94.839 265.367,94.839L264.266,98C264.046,98.501 263.551,98.824 263.004,98.824L253.99,98.824C252.779,98.824 251.293,98.428 250.284,97.31C250.168,97.183 250.058,97.045 249.955,96.897C249.811,97.167 249.73,97.322 249.73,97.322C249.637,97.503 248.851,98.797 245.303,98.797L216.194,98.797C213.832,98.797 212.353,98.319 211.432,97.62L211.157,98.1C210.903,98.489 210.469,98.723 210.004,98.723L205.026,98.723C204.683,98.723 203.047,98.599 202.806,98.392C202.077,98.559 201.168,98.723 200.41,98.723L176.465,98.723C175.3,98.723 174.33,98.383 173.586,97.804C172.893,98.241 171.647,98.868 170.204,98.868L158.303,98.868C157.092,98.868 155.606,98.472 154.596,97.354C154.426,97.166 154.268,96.957 154.125,96.724C153.575,97.401 153.381,97.532 153.372,97.545C153.372,97.545 152.638,98.938 148.654,98.938L122.277,98.938C120.878,98.938 119.76,98.453 118.978,97.658C118.206,96.873 117.741,95.759 117.741,94.393C117.741,89.352 117.741,72.943 117.741,72.975C117.741,72.975 117.686,71.422 118.693,69.925C119.929,68.087 122.215,63.518 122.819,62.894C124.251,61.417 126.193,60.68 128.313,60.68C138.276,60.68 145.313,60.752 148.602,60.752C152.02,60.752 154.011,61.877 155.239,63.18C155.449,63.403 155.637,63.635 155.805,63.874C157.283,60.681 158.97,57.051 159.062,56.91C159.456,56.304 160.079,55.678 161.248,55.241C162.119,54.917 163.524,54.654 165.809,54.654C168.549,54.654 170.146,55.059 171.074,55.508C173.108,56.492 173.481,57.898 173.486,59.142L173.488,60.376L174.168,60.365C175.224,60.365 176.088,60.544 176.821,61.131C177.299,61.514 177.804,62.1 178.114,63.189C178.309,63.873 178.457,64.968 178.458,66.731C179.686,65.198 180.616,64.055 180.626,64.045C182.935,61.653 186.161,60.763 190.055,60.763C190.055,60.763 208.212,60.763 208.212,60.763C210.595,60.763 211.987,61.568 212.866,62.461C214.227,63.845 214.424,65.741 214.424,66.835L214.424,68.783C215.074,67.934 215.696,67.116 216.194,66.428C216.724,65.462 217.343,64.652 218.033,63.972C220.44,61.603 223.808,60.719 227.867,60.719C227.867,60.719 241.649,60.719 241.649,60.719C244.562,60.719 247.147,61.376 249.243,62.476C249.266,62.34 249.31,62.207 249.373,62.083C249.373,62.083 253.751,53.48 253.99,53.152C254.069,53.045 254.155,52.938 254.253,52.832C253.316,52.653 252.544,52.223 251.96,51.615C251.187,50.812 250.722,49.674 250.722,48.277C250.722,45.346 250.722,38.745 250.723,33.603L245.254,47.279C245.204,47.405 242.522,52.071 242.522,52.071C242.273,52.488 241.824,52.743 241.339,52.743L228.196,52.743C226.296,52.743 224.805,51.763 223.426,48.378C222.473,46.04 218.348,36.119 216.029,30.547L210.014,37.372C210.014,37.372 210.134,47.422 210.014,47.633L207.576,52.033C207.33,52.466 206.875,52.733 206.381,52.733L195.324,52.733C194.113,52.733 192.627,52.332 191.617,51.202C191.349,50.902 191.11,50.549 190.918,50.135L189.925,51.345C189.925,51.345 189.191,52.77 185.206,52.77C180.982,52.77 164.706,52.866 160.293,52.866C158.894,52.866 157.776,52.37 156.994,51.557C156.307,50.843 155.863,49.862 155.774,48.67C154.096,51.065 153.606,51.39 153.591,51.411C153.591,51.411 152.858,52.804 148.873,52.804L122.497,52.804C121.098,52.804 119.98,52.319 119.198,51.524C118.425,50.739 117.961,49.625 117.961,48.259C117.961,43.217 117.961,26.523 117.961,26.556C117.961,26.556 117.905,25.002 118.912,23.505C120.149,21.667 122.435,17.098 123.039,16.475C124.471,14.997 126.413,14.26 128.533,14.26C138.496,14.26 145.533,14.332 148.822,14.332C152.24,14.332 154.231,15.457 155.459,16.76C157.017,18.415 157.368,20.862 157.44,22.314C158.546,20.528 160.39,17.5 160.553,17.253C161.421,15.935 163.873,14.869 166.943,14.869L186.394,14.869C189.092,14.869 191.175,15.738 192.621,17.185C193.064,17.628 193.453,18.131 193.78,18.693C194.596,17.375 195.282,16.268 195.324,16.203C195.687,15.642 196.24,15.089 197.185,14.681C198.045,14.309 199.523,14.005 202.038,14.005C204.576,14.005 206.054,14.336 206.909,14.72C207.799,15.12 208.373,15.605 208.736,16.14C210.568,15.149 213.097,14.36 216.535,14.36C217.908,14.36 218.794,14.778 219.442,15.383C219.471,15.41 219.5,15.438 219.528,15.466C219.873,15.238 220.285,15.032 220.777,14.861C221.806,14.503 223.439,14.242 225.676,14.242C227.667,14.242 229.025,14.369 229.957,14.614C231.755,15.085 232.621,15.98 233.142,17.134C233.17,17.194 233.195,17.256 233.218,17.319L236.219,25.551C236.219,25.551 240.859,17.856 242.005,15.935C242.4,15.272 243.27,14.947 244.545,14.614C245.477,14.369 246.836,14.242 248.826,14.242C252.354,14.242 254.495,15.027 255.345,15.749C255.688,16.04 255.956,16.346 256.155,16.664C257.34,15.685 259.375,14.927 261.909,14.927L281.359,14.927C284.057,14.927 286.141,15.796 287.586,17.242C288.124,17.781 288.584,18.408 288.948,19.124C289.877,17.624 290.713,16.275 290.759,16.203C291.122,15.642 291.675,15.089 292.62,14.681C293.48,14.309 294.957,14.005 297.473,14.005C300.011,14.005 301.489,14.336 302.344,14.72C303.233,15.12 303.807,15.605 304.171,16.14C305.74,15.291 307.821,14.591 310.546,14.407ZM190.696,62.928L208.852,62.928C212.343,62.928 212.405,65.308 212.405,66.342L212.405,91.729C212.405,92.045 212.149,92.301 211.833,92.301C210.194,92.301 205.491,92.301 203.851,92.301C203.536,92.301 203.279,92.045 203.279,91.729L203.279,91.309C201.892,91.82 200.365,92.027 198.855,92.027L191.798,92.027C186.199,92.027 180.292,90.404 180.292,78.472L180.292,75.79C180.292,65.227 184.524,62.928 190.696,62.928ZM283.077,61.421L271.277,75.582C271.277,75.582 281.63,87.735 285.154,91.083C285.343,91.263 285.404,91.539 285.307,91.782C285.21,92.024 284.975,92.183 284.714,92.183C281.849,92.183 276.007,92.183 274.646,92.183C274.463,92.183 274.288,92.104 274.167,91.967C272.828,90.448 264.874,81.099 264.874,81.099L264.874,91.545C264.874,91.898 264.589,92.183 264.237,92.183C262.57,92.183 258.099,92.183 256.433,92.183C256.264,92.183 256.102,92.116 255.982,91.996C255.862,91.877 255.795,91.714 255.795,91.545C255.794,86.812 255.786,55.037 255.795,54.909L255.796,54.903C255.796,54.055 256.324,53.724 260.181,53.724C263.999,53.724 264.856,54.173 264.856,54.903L264.874,70.918L272.662,61.171C273.369,60.224 274.685,59.887 277.995,59.887C281.54,59.887 283.439,60.848 283.077,61.421ZM146.221,81.636C146.221,81.448 146.146,81.267 146.012,81.134C145.879,81.001 145.698,80.927 145.51,80.927C142.267,80.935 129.024,80.968 129.024,80.968C126.548,80.968 124.004,79.75 124.004,77.285C124.004,76.448 123.939,69.069 123.939,68.813C123.939,64.707 126.348,62.99 129.096,62.99L149.313,62.99C155.302,62.99 155.29,68.219 155.29,69.797C155.29,70.823 155.489,72.199 151.549,72.199C147.61,72.199 147.213,71.612 147.213,71.145C147.213,70.678 146.898,70.418 146.575,70.418C146.252,70.418 136.719,70.43 133.705,70.43C133.482,70.43 133.268,70.519 133.111,70.677C132.953,70.834 132.864,71.048 132.864,71.271C132.864,71.709 132.864,72.573 132.864,73.01C132.864,73.233 132.953,73.447 133.111,73.605C133.268,73.763 133.482,73.851 133.705,73.851C137.304,73.851 151.224,73.851 151.224,73.851C153.701,73.851 155.29,75.069 155.29,77.534L155.29,88.673C155.29,90.861 153.594,92.156 150.846,92.156L129.529,92.156C125.517,92.156 124.004,89.81 124.004,86.877L124.004,84.363C124.004,83.826 124.467,82.633 128.407,82.633C132.346,82.633 132.532,83.167 132.749,83.6C132.963,84.028 133.297,84.363 133.705,84.363C134.114,84.363 142.735,84.367 145.512,84.368C145.7,84.369 145.88,84.294 146.013,84.161C146.146,84.028 146.221,83.848 146.221,83.66C146.221,83.068 146.221,82.228 146.221,81.636ZM161.988,62.988L161.935,59.097C161.935,58.135 162,57.222 166.324,57.222C170.587,57.222 171.008,58.178 171.011,59.059L171.02,62.988L174.353,62.933C175.314,62.933 175.984,62.734 175.984,66.674C175.984,70.201 175.397,70.628 174.629,70.678L174.629,70.683L171.02,70.683L171.02,82.765C171.02,84.341 171.915,84.352 171.915,84.352L173.6,84.3C174.561,84.3 175.231,84.102 175.231,88.041C175.231,91.981 174.499,92.052 173.6,92.052C173.6,92.052 165.911,92.053 164.215,92.053C161.716,92.053 161.988,90.173 161.988,89.03L161.988,70.683L160.696,70.687C159.735,70.687 159.065,70.886 159.065,66.946C159.065,63.006 159.797,62.935 160.696,62.935L161.988,62.988ZM246.72,79.575C250.077,79.575 251.221,80.218 251.221,81.907C251.221,91.079 245.893,91.899 240.753,91.899L229.89,91.899C223.955,91.899 217.693,90.575 217.693,78.55L217.693,75.847C217.693,65.201 222.179,62.884 228.721,62.884L240.519,62.884C246.624,62.884 251.143,66.552 251.143,70.725L251.208,72.489C251.208,73.568 250.441,74.588 247.023,74.588C243.606,74.588 242.529,74.305 242.529,72.489C242.529,70.674 238.515,70.828 237.342,70.828L232.179,70.828C228.441,70.828 226.665,72.041 226.665,75.13L226.665,78.881C226.665,82.522 229.376,83.625 232.179,83.625L237.715,83.625C239.143,83.625 242.529,84.144 242.529,81.907C242.529,81.905 242.303,79.575 246.72,79.575ZM203.222,80.278L203.222,74.696C203.222,71.85 202.032,70.81 198.328,70.81L193.958,70.81C190.431,70.81 188.756,72.014 188.756,75.079L188.756,78.801C188.756,82.413 190.607,83.508 193.253,83.508L198.681,83.508C201.062,83.508 203.222,82.851 203.222,80.278ZM228.665,80.046C228.719,80.179 228.786,80.294 228.871,80.383C229.448,80.99 230.4,81.057 231.325,81.057L238.845,81.057C239.028,81.057 239.248,81.069 239.489,81.083L239.486,81.059C239.486,81.059 239.378,80.065 238.385,80.065L228.665,80.046ZM195.284,79.961C195.21,79.569 195.096,79.253 194.872,79.048C194.668,78.86 194.379,78.808 194.027,78.81L190.774,78.811L190.774,78.892C190.774,79.717 190.803,80.306 191.166,80.637C191.511,80.953 192.036,80.94 192.612,80.94L195.284,80.94L195.284,79.961ZM146.016,35.909C146.016,35.72 145.941,35.54 145.808,35.407C145.674,35.274 145.494,35.2 145.306,35.2C142.062,35.208 128.82,35.24 128.82,35.24C126.343,35.24 123.8,34.023 123.8,31.558C123.8,30.721 123.734,23.341 123.734,23.086C123.734,18.98 126.144,17.263 128.892,17.263L149.109,17.263C155.097,17.263 155.086,22.491 155.086,24.069C155.086,25.096 154.459,26.141 151.345,26.141C148.23,26.141 147.008,25.223 147.008,24.756C147.008,24.289 146.694,24.36 146.37,24.36C146.047,24.36 136.514,24.372 133.501,24.372C133.278,24.372 133.064,24.461 132.906,24.619C132.748,24.776 132.66,24.99 132.66,25.213C132.66,25.651 132.66,26.515 132.66,26.952C132.66,27.175 132.748,27.389 132.906,27.547C133.064,27.705 133.278,27.793 133.501,27.793C137.1,27.793 151.019,27.793 151.019,27.793C153.496,27.793 155.086,29.011 155.086,31.476L155.086,42.946C155.086,45.134 153.39,46.429 150.642,46.429L129.324,46.429C125.313,46.429 123.8,44.082 123.8,41.15L123.8,38.636C123.8,38.099 124.263,36.906 128.202,36.906C132.142,36.906 132.327,37.771 132.544,38.204C132.758,38.631 133.092,38.967 133.501,38.967C133.909,38.967 142.53,38.971 145.307,38.972C145.495,38.972 145.675,38.897 145.808,38.765C145.941,38.632 146.016,38.451 146.016,38.263C146.016,37.671 146.016,36.501 146.016,35.909ZM198.407,46.376C198.095,46.376 197.842,46.124 197.841,45.812C197.835,41.835 197.8,18.203 197.8,18.203C197.8,17.242 198.524,16.572 202.464,16.572C206.403,16.572 206.428,17.304 206.428,18.203L206.431,21.44L206.433,21.488C206.433,21.488 208.608,16.924 216.298,16.924C218.003,16.924 217.929,17.852 217.929,21.77C217.929,25.688 217.197,26.351 216.298,26.351L213.959,26.356C209.219,26.434 206.874,27.667 206.874,28.538L206.874,45.811C206.874,46.123 206.621,46.376 206.309,46.376C204.686,46.376 200.028,46.376 198.407,46.376ZM294.222,46.376C293.91,46.376 293.657,46.124 293.656,45.812C293.651,41.835 293.615,18.203 293.615,18.203C293.615,17.242 294.339,16.572 298.279,16.572C302.218,16.572 302.243,17.304 302.243,18.203L302.246,21.44L302.249,21.488C302.249,21.488 304.423,16.924 312.114,16.924C313.818,16.924 313.745,17.852 313.745,21.77C313.745,25.688 313.013,26.351 312.114,26.351L309.775,26.356C305.034,26.434 302.69,27.667 302.69,28.538L302.69,45.811C302.69,46.123 302.436,46.376 302.124,46.376C300.502,46.376 295.843,46.376 294.222,46.376ZM189.989,46.21L167.226,46.184C163.021,46.184 160.936,44.604 160.936,40.399C160.936,24.39 160.835,22.961 160.835,22.961C160.835,21.156 161.627,17.103 166.404,17.103L186.337,17.103C190.09,17.103 192.235,19.208 192.235,22.961L192.235,33.353C192.235,34.626 191.281,34.998 190.479,34.998L170.005,34.998L170.005,36.479C170.005,38.013 170.508,38.944 173.041,38.944C175.174,38.944 189.989,38.963 189.989,38.963C190.95,38.963 192.235,39.167 192.235,42.396C192.235,45.626 190.888,46.21 189.989,46.21ZM285.16,46.21L262.397,46.184C258.192,46.184 256.107,44.604 256.107,40.399C256.107,24.39 256.006,22.961 256.006,22.961C256.006,21.156 256.798,17.103 261.575,17.103L281.508,17.103C285.26,17.103 287.406,19.208 287.406,22.961L287.406,33.353C287.406,34.626 286.452,34.998 285.65,34.998L265.176,34.998L265.176,36.479C265.176,38.013 265.679,38.944 268.212,38.944C270.345,38.944 285.16,38.963 285.16,38.963C286.121,38.963 287.406,39.167 287.406,42.396C287.406,45.626 286.059,46.21 285.16,46.21ZM364.889,46.21L342.126,46.184C337.921,46.184 335.836,44.604 335.836,40.399C335.836,24.39 335.735,22.961 335.735,22.961C335.735,21.156 336.527,17.103 341.304,17.103L361.237,17.103C364.99,17.103 367.135,19.208 367.135,22.961L367.135,33.353C367.135,34.626 366.181,34.998 365.379,34.998L344.905,34.998L344.905,36.479C344.905,38.013 345.408,38.944 347.941,38.944C350.074,38.944 364.889,38.963 364.889,38.963C365.85,38.963 367.135,39.167 367.135,42.396C367.135,45.626 365.788,46.21 364.889,46.21ZM394.296,35.673C394.296,35.484 394.221,35.304 394.088,35.171C393.955,35.038 393.774,34.964 393.586,34.964C390.342,34.972 377.1,35.004 377.1,35.004C374.623,35.004 372.08,33.787 372.08,31.322C372.08,30.485 372.015,23.105 372.015,22.85C372.015,18.744 374.424,17.027 377.172,17.027L397.389,17.027C403.377,17.027 403.366,22.255 403.366,23.833C403.366,24.86 402.739,25.905 399.625,25.905C396.511,25.905 395.288,25.318 395.288,24.851C395.288,24.384 394.974,24.455 394.65,24.455C394.327,24.455 384.794,24.467 381.781,24.467C381.558,24.467 381.344,24.556 381.186,24.713C381.028,24.871 380.94,25.085 380.94,25.308C380.94,25.746 380.94,26.61 380.94,27.047C380.94,27.27 381.028,27.484 381.186,27.642C381.344,27.799 381.558,27.888 381.781,27.888C385.38,27.888 399.299,27.888 399.299,27.888C401.776,27.888 403.366,29.106 403.366,31.57L403.366,42.71C403.366,44.898 401.67,46.193 398.922,46.193L377.604,46.193C373.593,46.193 372.08,43.846 372.08,40.914L372.08,38.4C372.08,37.863 372.543,36.67 376.482,36.67C380.422,36.67 380.608,37.204 380.824,37.637C381.038,38.065 381.372,38.4 381.781,38.4C382.19,38.4 390.81,38.404 393.587,38.405C393.775,38.405 393.955,38.331 394.088,38.198C394.221,38.065 394.296,37.885 394.296,37.697C394.296,37.105 394.296,36.265 394.296,35.673ZM430.611,35.673C430.611,35.484 430.536,35.304 430.403,35.171C430.269,35.038 430.089,34.964 429.9,34.964C426.657,34.972 413.415,35.004 413.415,35.004C410.938,35.004 408.394,33.787 408.394,31.322C408.394,30.485 408.329,23.105 408.329,22.85C408.329,18.744 410.738,17.027 413.487,17.027L433.704,17.027C439.692,17.027 439.681,22.255 439.681,23.833C439.681,24.86 439.054,25.905 435.94,25.905C432.825,25.905 431.603,25.318 431.603,24.851C431.603,24.384 431.288,24.455 430.965,24.455C430.642,24.455 421.109,24.467 418.096,24.467C417.873,24.467 417.659,24.556 417.501,24.713C417.343,24.871 417.255,25.085 417.255,25.308C417.255,25.746 417.255,26.61 417.255,27.047C417.255,27.27 417.343,27.484 417.501,27.642C417.659,27.799 417.873,27.888 418.096,27.888C421.694,27.888 435.614,27.888 435.614,27.888C438.091,27.888 439.681,29.106 439.681,31.57L439.681,42.71C439.681,44.898 437.985,46.193 435.236,46.193L413.919,46.193C409.908,46.193 408.394,43.846 408.394,40.914L408.394,38.4C408.394,37.863 408.858,36.67 412.797,36.67C416.737,36.67 416.922,37.204 417.139,37.637C417.353,38.065 417.687,38.4 418.096,38.4C418.504,38.4 427.125,38.404 429.902,38.405C430.09,38.405 430.27,38.331 430.403,38.198C430.536,38.065 430.611,37.885 430.611,37.697C430.611,37.105 430.611,36.265 430.611,35.673ZM318.396,43.1L318.343,6.334C318.343,5.37 318.693,4.699 323.017,4.699C327.28,4.699 327.417,5.412 327.42,6.296C327.42,6.296 327.429,26.257 327.429,36.822C327.429,38.401 328.779,38.36 328.779,38.36C329.74,38.36 330.41,38.162 330.41,42.109C330.41,46.056 329.678,46.128 328.779,46.128C328.779,46.128 322.319,46.128 320.624,46.128C318.124,46.128 318.396,44.245 318.396,43.1ZM237.276,37.617L243.24,18.131C243.695,17.127 244.93,16.809 248.284,16.809C251.96,16.809 253.667,17.521 253.336,18.44C253.336,18.44 244.947,40.255 243.072,45.132C242.85,45.71 242.294,46.091 241.675,46.091C239.596,46.091 234.914,46.091 232.848,46.091C232.236,46.091 231.687,45.719 231.459,45.152C229.519,40.315 220.743,18.44 220.743,18.44C220.413,17.521 222.12,16.809 225.796,16.809C229.149,16.809 230.385,17.127 230.84,18.131L237.276,37.617ZM356.63,24.626C357.065,24.626 358.032,24.853 358.032,26.041L358.032,27.996C358.03,27.995 344.577,27.995 344.574,27.996L344.574,26.041C344.574,24.853 345.542,24.626 345.976,24.626L356.63,24.626ZM181.73,24.626C182.164,24.626 183.132,24.853 183.132,26.041L183.132,27.996C183.13,27.995 169.677,27.995 169.674,27.996L169.674,26.041C169.674,24.853 170.642,24.626 171.076,24.626L181.73,24.626ZM276.901,24.626C277.335,24.626 278.303,24.853 278.303,26.041L278.303,27.996C278.301,27.995 264.847,27.995 264.845,27.996L264.845,26.041C264.845,24.853 265.813,24.626 266.247,24.626L276.901,24.626Z" style="fill:rgb(226,113,82);"/>
    <g transform="matrix(0.394196,0,0,0.394196,-250.172,-337.805)">
        <path d="M717.797,1027.64C717.95,1027.42 717.966,1027.13 717.838,1026.88C717.71,1026.64 717.459,1026.49 717.186,1026.49C711.399,1026.49 688.852,1026.49 673.973,1026.49C670.378,1026.49 666.93,1025.06 664.389,1022.52C661.848,1019.98 660.422,1016.53 660.425,1012.93C660.44,994.207 660.467,961.445 660.477,950.032C660.479,947.373 661.176,944.761 662.499,942.455C667.271,934.138 679.313,913.151 685.583,902.223C688.016,897.983 692.53,895.369 697.418,895.369L837.493,895.369C840.44,895.369 843.156,896.969 844.584,899.547C846.013,902.126 845.929,905.276 844.366,907.776C839.167,916.087 832.678,926.461 829.303,931.857C828.844,932.591 828.819,933.516 829.239,934.273C829.658,935.03 830.455,935.5 831.321,935.5C838.802,935.5 854.471,935.5 865.449,935.5C872.043,935.5 877.389,940.846 877.389,947.44C877.389,963.68 877.389,992.459 877.389,1007.79C877.389,1014.53 875.68,1021.17 872.422,1027.07C868.317,1034.51 861.656,1045.05 857.455,1052.66C854.168,1058.62 847.901,1062.32 841.096,1062.32C813.362,1062.32 741.509,1062.32 709.633,1062.32C706.62,1062.32 703.854,1060.66 702.443,1057.99C701.032,1055.33 701.207,1052.11 702.898,1049.62C708.629,1041.16 715.51,1031.02 717.797,1027.64ZM738.058,1021.32C735.309,1021.32 732.731,1022.65 731.147,1024.9C726.778,1031.1 717.848,1043.77 713.354,1050.14C712.829,1050.89 712.763,1051.86 713.183,1052.67C713.602,1053.48 714.437,1053.99 715.349,1053.99C735.473,1053.99 813.545,1053.99 838.057,1053.99C842.576,1053.99 846.749,1051.57 849.002,1047.65C852.21,1042.08 857.72,1033.96 861.024,1028.22C861.843,1026.8 861.841,1025.04 861.017,1023.62C860.194,1022.19 858.674,1021.32 857.029,1021.32C832.247,1021.32 757.035,1021.32 738.058,1021.32ZM703.458,986.173C698.836,986.189 694.477,988.323 691.63,991.965C687.568,997.162 681.565,1004.84 677.108,1010.54C675.998,1011.96 675.795,1013.89 676.585,1015.51C677.375,1017.13 679.02,1018.16 680.823,1018.16C695.884,1018.16 723.237,1018.16 723.237,1018.16C723.237,1018.16 723.237,1018.16 723.237,1018.16C724.735,1015 727.92,1012.98 731.418,1012.98C748.193,1012.98 797.047,1012.98 813.391,1012.98C816.745,1012.98 819.857,1011.24 821.608,1008.38C824.718,1003.3 829.689,995.179 832.76,990.163C833.31,989.264 833.331,988.137 832.814,987.219C832.297,986.3 831.324,985.732 830.269,985.736C808.943,985.81 728.288,986.087 703.458,986.173ZM833.739,1006.21C832.889,1007.57 832.846,1009.3 833.628,1010.7C834.41,1012.11 835.893,1012.98 837.503,1012.98C844.515,1012.98 854.613,1012.98 861.289,1012.98C863.124,1012.98 864.885,1012.25 866.183,1010.96C867.48,1009.66 868.21,1007.9 868.21,1006.06C868.21,992.766 868.21,963.802 868.21,950.616C868.21,946.87 865.173,943.833 861.427,943.833C839.709,943.833 772.043,943.833 750.467,943.833C746.305,943.833 742.432,945.96 740.199,949.473C736.263,955.665 731.68,965.538 727.804,971.636C727.116,972.719 727.072,974.091 727.69,975.217C728.308,976.342 729.49,977.041 730.773,977.041C750.272,977.041 807.615,977.041 836.134,977.041C839.313,977.041 842.241,978.764 843.785,981.543C845.329,984.321 845.244,987.718 843.565,990.417C840.219,995.795 836.506,1001.76 833.739,1006.21ZM814.364,935.5C815.275,935.5 816.124,935.04 816.622,934.277C819.253,930.248 827.745,917.243 832.385,910.138C833,909.195 833.05,907.992 832.514,907.002C831.978,906.012 830.943,905.395 829.817,905.395C809.37,905.395 739.037,905.395 709.779,905.395C706.35,905.395 703.061,906.757 700.637,909.182C698.212,911.606 696.85,914.895 696.85,918.323C696.85,931.192 696.85,950.875 696.85,964.044C696.85,967.644 698.325,971.088 700.931,973.572C703.536,976.057 707.046,977.366 710.642,977.195C710.643,977.195 712.336,977.195 712.336,977.195C712.381,976.829 726.019,953.284 733.547,941.742C736.087,937.848 740.422,935.5 745.071,935.5C762.651,935.5 805.875,935.5 814.364,935.5Z" style="fill:rgb(226,113,82);"/>
    </g>
</svg>
