<svg width="664" height="164" viewBox="0 0 664 164" fill="none" xmlns="http://www.w3.org/2000/svg">
<path fill-rule="evenodd" clip-rule="evenodd" d="M462.426 20.2844C465.05 15.5582 468.271 9.80613 470.26 6.48218C471.086 5.09675 471.728 4.10377 472.05 3.70137C472.371 3.30204 472.662 3.10394 472.823 3.01444C474.207 2.22572 476.923 1.50049 482.018 1.50049C485.43 1.50049 487.442 1.82483 488.643 2.22646C490.548 2.86524 491.45 3.85363 492.009 4.78235C492.598 5.75467 492.82 6.8226 492.82 7.99459C492.82 7.99918 492.82 8.00299 492.82 8.00682C492.82 8.00682 492.827 22.7355 492.835 37.149C495.857 32.2277 499.736 25.8797 500.523 24.6289C501.755 22.672 505.603 20.9768 510.3 20.9768H540.051C544.175 20.9768 547.357 22.3086 549.575 24.5249C550.83 25.7894 551.809 27.3745 552.421 29.2771C554.074 26.4626 555.382 24.2586 555.627 23.8746C557.042 21.6928 560.783 20.4879 564.026 20.4879C579.265 20.4879 590.029 20.5973 595.063 20.5973C600.288 20.5973 603.333 22.3178 605.215 24.3114C606.615 25.8009 607.379 27.5573 607.792 29.2036C609.422 26.4205 610.707 24.2548 610.975 23.8746C612.482 21.7226 616.131 20.4879 619.375 20.4879C634.614 20.4879 645.377 20.5973 650.411 20.5973C655.636 20.5973 658.681 22.3178 660.563 24.3114C663.393 27.321 663.615 31.426 663.615 33.4999C663.615 35.5012 663.447 37.5904 662.314 39.2374C662.031 39.6559 661.68 40.0721 661.251 40.4622C662.713 42.0404 663.615 44.1985 663.615 47.0214C663.615 49.8488 663.432 61.0967 663.34 66.4976C663.309 68.4025 662.598 70.1926 661.626 71.8374C658.857 76.5116 653.272 85.837 653.249 85.8752C653.249 85.8752 652.125 88.002 646.027 88.002H604.862C602.72 88.002 601.015 87.2599 599.814 86.0435C599.209 85.4315 598.727 84.6819 598.398 83.8174C597.595 85.0567 597.083 85.8599 597.075 85.8752C597.075 85.8752 595.95 88.002 589.861 88.002H549.514C547.372 88.002 545.666 87.2599 544.473 86.0435C543.471 85.0261 542.805 83.6491 542.629 81.9814L540.028 85.6381C540.028 85.6381 538.911 87.8184 532.814 87.8184C526.35 87.8184 501.457 87.9637 494.709 87.9637C492.567 87.9637 490.862 87.2063 489.668 85.9594C488.551 84.8042 487.855 83.1901 487.778 81.2164C485.828 83.7256 484.313 85.6381 484.259 85.684C484.259 85.684 481.582 87.9407 478.193 87.9407H465.341C463.489 87.9407 461.218 87.3364 459.672 85.6228C458.639 84.483 457.882 82.8458 457.882 80.4819V51.8264L454.761 55.3683C454.761 55.3683 454.944 70.1085 454.761 70.4374L445.925 86.9845C445.55 87.6424 444.854 88.0478 444.096 88.0478H432.744C430.885 88.0478 428.613 87.4359 427.075 85.707C426.042 84.5594 425.285 82.907 425.285 80.5202V75.6089L418.117 85.7299C418.117 85.7299 417.903 86.1506 417.153 86.6173C418.859 86.8774 420.198 87.2675 421.139 87.673C422.531 88.2773 423.388 89.05 423.87 89.6696C425.285 91.521 425.147 93.3341 424.16 94.9023C424.122 94.9635 412.173 109.33 408.226 114.081L429.393 138.033C430.082 138.707 430.235 139.762 429.76 140.596L419.915 157.564C419.54 158.222 418.844 158.627 418.086 158.627H405.892C405.425 158.627 404.293 158.444 403.238 157.311C401.792 155.774 393.323 143.297 393.323 143.297L388.358 157.564C388.022 158.329 387.264 158.826 386.43 158.826H376.623C374.772 158.826 372.5 158.214 370.954 156.508C369.929 155.368 369.172 153.731 369.172 151.367C369.172 150.794 369.164 149.325 369.141 147.221C366.41 151.995 364.001 156.317 364.001 156.317C363.855 156.6 362.654 158.574 357.23 158.574H318.261C313.747 158.574 311.345 157.434 310.075 155.919C309.096 154.749 308.675 153.28 308.675 151.543V151.314L305.003 157.725C304.613 158.321 303.947 158.681 303.236 158.681H295.624C295.104 158.681 292.595 158.49 292.227 158.168C291.118 158.428 289.726 158.681 288.563 158.681H257.351C255.209 158.681 253.503 157.923 252.302 156.699C251.468 155.835 250.864 154.718 250.588 153.387C249.563 155.085 248.844 156.24 248.791 156.286C248.791 156.286 246.113 158.543 242.732 158.543H229.872C228.021 158.543 225.748 157.939 224.203 156.233C223.178 155.093 222.421 153.456 222.421 151.092V148.216C219.743 152.301 217.096 156.424 217.081 156.447C217.081 156.447 215.957 158.574 209.867 158.574H169.521C167.378 158.574 165.673 157.832 164.479 156.615C163.293 155.414 162.582 153.716 162.582 151.62C162.582 143.916 162.582 118.816 162.582 118.862C162.582 118.862 162.643 116.575 164.043 114.196C165.772 111.258 174.937 95.5755 175.633 94.4509C177.033 92.1712 180.797 91.062 184.04 91.062C199.279 91.062 210.043 91.1691 215.069 91.1691C220.294 91.1691 223.346 92.8904 225.221 94.887C225.534 95.216 225.817 95.5679 226.07 95.9198C227.393 93.0586 228.831 89.968 229.818 87.8642C228.778 87.8642 227.898 87.8642 227.202 87.8642C225.06 87.8642 223.354 87.1069 222.153 85.8676C221.005 84.6742 220.309 82.9989 220.263 80.9486C218.481 83.695 217.096 85.8599 217.081 85.8752C217.081 85.8752 215.957 88.002 209.867 88.002H169.521C167.378 88.002 165.673 87.2599 164.479 86.0435C163.293 84.8425 162.582 83.1442 162.582 81.0481C162.582 73.3445 162.582 48.2439 162.582 48.2936C162.582 48.2936 162.589 45.9764 164.043 43.627C165.282 41.6189 174.891 24.9731 175.633 23.8746C177.148 21.6522 180.797 20.4879 184.04 20.4879C187.276 20.4879 210.043 20.5973 215.069 20.5973C220.294 20.5973 223.346 22.3178 225.221 24.3114C227.554 26.7885 228.12 30.0069 228.243 32.2254C230.392 28.6903 232.381 25.4673 233.009 24.6281C234.447 22.7309 238.088 20.9821 242.785 20.9821H272.536C276.667 20.9821 279.85 22.3109 282.06 24.5241C282.734 25.2011 283.331 25.9707 283.836 26.8314C285.082 24.8148 286.131 23.1211 286.192 23.0231C286.75 22.164 287.599 21.318 289.037 20.6937C290.353 20.1261 292.618 19.6594 296.466 19.6594C300.344 19.6594 302.609 20.1658 303.917 20.7549C305.271 21.3661 306.151 22.1074 306.709 22.926C309.509 21.4097 313.38 20.2041 318.635 20.2041C320.739 20.2041 322.093 20.8421 323.08 21.7678C323.126 21.8091 323.172 21.8519 323.218 21.8948C323.746 21.5459 324.373 21.2307 325.123 20.9691C326.699 20.4221 329.2 20.022 332.62 20.022C335.665 20.022 337.746 20.2178 339.168 20.5912C341.915 21.3118 343.238 22.6812 344.041 24.446C344.08 24.5386 344.118 24.6327 344.156 24.7291L348.746 37.3196C348.746 37.3196 357.391 22.773 357.597 22.6123C357.597 22.6123 359.533 21.1022 361.484 20.5912C362.907 20.2178 364.98 20.022 368.024 20.022C373.425 20.022 376.699 21.2238 378 22.3277C378.558 22.8021 378.987 23.3016 379.293 23.8218C380.945 22.2819 384.372 20.9768 388.381 20.9768H418.132C422.256 20.9768 425.446 22.3102 427.657 24.5302C428.437 25.3182 429.118 26.2301 429.661 27.2659C431.022 25.0619 432.224 23.1249 432.293 23.0201C432.851 22.1617 433.692 21.3164 435.138 20.6929C436.454 20.1253 438.719 19.6594 442.559 19.6594C446.445 19.6594 448.702 20.1659 450.01 20.7534C451.372 21.3646 452.252 22.1051 452.81 22.9229C455.181 21.6393 458.318 20.5782 462.426 20.2844ZM337.187 120.668C337.271 120.874 337.378 121.05 337.508 121.188C338.388 122.114 339.842 122.221 341.257 122.221H352.763C353.038 122.221 353.374 122.236 353.749 122.259L353.742 122.221C353.742 122.221 353.573 120.698 352.059 120.698L337.187 120.668ZM286.131 120.538C286.016 119.941 285.847 119.459 285.503 119.145C285.189 118.855 284.753 118.778 284.21 118.778H279.238V118.908C279.238 120.17 279.284 121.066 279.835 121.578C280.362 122.06 281.165 122.037 282.045 122.037H286.131V120.538ZM312.324 51.2488L308.66 55.4005C308.66 55.4005 308.843 70.774 308.66 71.0953L299.832 87.0381C299.449 87.7036 298.753 88.1091 298.003 88.1091H286.643C284.792 88.1091 282.52 87.497 280.974 85.7681C279.949 84.6206 279.192 82.9682 279.192 80.5737V76.1597L272.521 85.5387C272.521 85.5387 271.396 87.7189 265.307 87.7189C263.004 87.7189 258.368 87.7418 253.051 87.7648C253.09 88.0784 253.105 88.3922 253.105 88.6982L253.113 90.5877L254.153 90.5724C255.767 90.5724 257.091 90.8402 258.208 91.7429C258.942 92.3243 259.715 93.2193 260.189 94.887C260.472 95.8815 260.686 97.4498 260.709 99.9131C262.431 97.7711 263.7 96.2105 263.716 96.1952C267.242 92.5384 272.177 91.1768 278.136 91.1768H305.906C309.555 91.1768 311.681 92.4083 313.028 93.7701C315.109 95.8891 315.407 98.7885 315.407 100.464V103.44C316.402 102.147 317.35 100.892 318.115 99.8443C318.926 98.3601 319.875 97.1285 320.93 96.088C324.61 92.4619 329.759 91.1078 335.971 91.1078H357.046C361.506 91.1078 365.461 92.1177 368.667 93.8007C368.697 93.5865 368.766 93.3876 368.866 93.1963C368.866 93.1963 370.098 90.7789 371.528 87.9713C369.975 87.7342 368.698 87.0457 367.749 86.0588C366.563 84.8272 365.852 83.0753 365.852 80.9333V62.3207L362.562 70.5522C362.486 70.7435 353.168 87.0304 353.168 87.0304C352.785 87.6654 352.105 88.0555 351.363 88.0555H332.352C329.445 88.0555 327.165 86.5561 325.054 81.3847C323.386 77.2842 315.292 58.2356 312.324 51.2488ZM403.696 87.9407C401.631 87.9484 399.329 87.956 396.926 87.9713L396.934 94.2215L401.685 89.7232C402.22 89.0347 402.87 88.438 403.696 87.9407Z" fill="#E27152"/>
<path fill-rule="evenodd" clip-rule="evenodd" d="M279.336 94.5894H307.105C312.445 94.5894 312.537 98.2308 312.537 99.8143V138.638C312.537 139.12 312.147 139.518 311.665 139.518C309.156 139.518 301.965 139.518 299.455 139.518C298.973 139.518 298.584 139.12 298.584 138.638C298.584 138.302 298.584 137.996 298.584 137.996C296.464 138.784 294.123 139.097 291.813 139.097H281.019C272.459 139.097 263.424 136.611 263.424 118.366V114.265C263.424 98.1084 269.896 94.5894 279.336 94.5894ZM420.633 92.2867L402.586 113.944C402.586 113.944 418.422 132.534 423.807 137.652C424.098 137.927 424.19 138.348 424.045 138.723C423.899 139.09 423.54 139.335 423.142 139.335C418.758 139.335 409.823 139.335 407.742 139.335C407.459 139.335 407.191 139.212 407.008 139.006C404.958 136.68 392.794 122.382 392.794 122.382V138.363C392.794 138.899 392.358 139.335 391.815 139.335C389.267 139.335 382.428 139.335 379.881 139.335C379.621 139.335 379.376 139.235 379.192 139.052C379.008 138.868 378.909 138.615 378.909 138.363C378.902 131.118 378.894 82.5175 378.909 82.3263V82.3186C378.909 81.0181 379.712 80.5132 385.618 80.5132C391.455 80.5132 392.763 81.2017 392.763 82.3186L392.794 106.807L404.705 91.9042C405.784 90.4507 407.796 89.9382 412.86 89.9382C418.284 89.9382 421.191 91.4069 420.633 92.2867ZM211.312 123.201C211.312 122.918 211.197 122.642 210.99 122.436C210.791 122.229 210.516 122.122 210.225 122.122C205.268 122.13 185.011 122.183 185.011 122.183C181.224 122.183 177.33 120.317 177.33 116.545C177.33 115.267 177.23 103.984 177.23 103.594C177.23 97.3128 180.918 94.6812 185.118 94.6812H216.039C225.204 94.6812 225.181 102.683 225.181 105.093C225.181 106.669 225.487 108.773 219.459 108.773C213.438 108.773 212.826 107.87 212.826 107.158C212.826 106.447 212.344 106.049 211.855 106.049C211.357 106.049 196.776 106.064 192.171 106.064C191.827 106.064 191.498 106.202 191.261 106.439C191.016 106.684 190.886 107.013 190.886 107.35C190.886 108.023 190.886 109.339 190.886 110.012C190.886 110.349 191.016 110.677 191.261 110.922C191.498 111.159 191.827 111.297 192.171 111.297C197.672 111.297 218.962 111.297 218.962 111.297C222.748 111.297 225.181 113.164 225.181 116.928V133.964C225.181 137.315 222.588 139.296 218.388 139.296H185.783C179.648 139.296 177.33 135.708 177.33 131.218V127.378C177.33 126.551 178.041 124.731 184.062 124.731C190.09 124.731 190.373 125.542 190.71 126.207C191.031 126.865 191.544 127.378 192.171 127.378C192.798 127.378 205.98 127.385 210.225 127.385C210.516 127.385 210.791 127.27 210.99 127.064C211.197 126.865 211.312 126.59 211.312 126.299C211.312 125.396 211.312 124.111 211.312 123.201ZM235.425 94.6812L235.348 88.7294C235.348 87.2606 235.447 85.8606 242.057 85.8606C248.583 85.8606 249.225 87.3218 249.225 88.6759L249.241 94.6812L254.335 94.597C255.812 94.597 256.837 94.291 256.837 100.319C256.837 105.713 255.934 106.363 254.764 106.447V106.455H249.241V124.93C249.241 127.339 250.61 127.362 250.61 127.362L253.188 127.278C254.657 127.278 255.682 126.972 255.682 133C255.682 139.029 254.565 139.136 253.188 139.136C253.188 139.136 241.43 139.136 238.836 139.136C235.011 139.136 235.425 136.259 235.425 134.515V106.455H233.451C231.982 106.455 230.957 106.761 230.957 100.732C230.957 94.7118 232.074 94.597 233.451 94.597L235.425 94.6812ZM365.024 120.049C370.157 120.049 371.909 121.036 371.909 123.621C371.909 137.644 363.762 138.899 355.898 138.899H339.282C330.209 138.899 320.631 136.879 320.631 118.481V114.349C320.631 98.0701 327.493 94.5205 337.499 94.5205H355.538C364.879 94.5205 371.794 100.136 371.794 106.516L371.894 109.216C371.894 110.861 370.716 112.422 365.491 112.422C360.258 112.422 358.613 111.993 358.613 109.216C358.613 106.439 352.478 106.669 350.68 106.669H342.785C337.071 106.669 334.355 108.528 334.355 113.256V118.993C334.355 124.555 338.501 126.245 342.785 126.245H351.254C353.434 126.245 358.613 127.041 358.613 123.621C358.613 123.614 358.269 120.049 365.024 120.049ZM298.499 121.127V112.59C298.499 108.237 296.671 106.646 291.01 106.646H284.324C278.93 106.646 276.368 108.49 276.368 113.171V118.871C276.368 124.394 279.198 126.069 283.245 126.069H291.553C295.195 126.069 298.499 125.06 298.499 121.127ZM437.677 69.2753C437.203 69.2753 436.82 68.8851 436.812 68.4108C436.805 62.329 436.751 26.1832 436.751 26.1832C436.751 24.7121 437.861 23.6878 443.889 23.6878C449.909 23.6878 449.948 24.8078 449.948 26.1832L449.955 31.1336V31.2063C449.955 31.2063 453.283 24.2264 465.049 24.2264C467.65 24.2264 467.543 25.6462 467.543 31.6385C467.543 37.6308 466.418 38.6452 465.049 38.6452L461.469 38.6528C454.216 38.7722 450.629 40.6579 450.629 41.9906V68.4108C450.629 68.8851 450.246 69.2753 449.764 69.2753C447.285 69.2753 440.163 69.2753 437.677 69.2753ZM291.132 69.2753C290.65 69.2753 290.268 68.8851 290.268 68.4108C290.26 62.329 290.199 26.1832 290.199 26.1832C290.199 24.7121 291.308 23.6878 297.336 23.6878C303.357 23.6878 303.395 24.8078 303.395 26.1832L303.403 31.1336L303.411 31.2063C303.411 31.2063 306.731 24.2264 318.496 24.2264C321.105 24.2264 320.991 25.6462 320.991 31.6385C320.991 37.6308 319.874 38.6452 318.496 38.6452L314.916 38.6528C307.664 38.7722 304.084 40.6579 304.084 41.9906V68.4108C304.084 68.8851 303.694 69.2753 303.22 69.2753C300.733 69.2753 293.611 69.2753 291.132 69.2753ZM545.765 69.0229L510.949 68.977C504.515 68.977 501.333 66.5595 501.333 60.1312C501.333 35.6464 501.172 33.4592 501.172 33.4592C501.172 30.6991 502.389 24.4995 509.695 24.4995H540.18C545.918 24.4995 549.199 27.7194 549.199 33.4592V49.3545C549.199 51.3015 547.746 51.8706 546.514 51.8706H515.202V54.1358C515.202 56.4821 515.968 57.9065 519.846 57.9065C523.105 57.9065 545.765 57.934 545.765 57.934C547.233 57.934 549.199 58.247 549.199 63.1859C549.199 68.1278 547.142 69.0229 545.765 69.0229ZM278.257 69.0229L243.442 68.977C237.008 68.977 233.818 66.5595 233.818 60.1312C233.818 35.6464 233.665 33.4592 233.665 33.4592C233.665 30.6991 234.874 24.4995 242.18 24.4995H272.665C278.41 24.4995 281.692 27.7194 281.692 33.4592V49.3545C281.692 51.3015 280.231 51.8706 279.007 51.8706H247.687V54.1358C247.687 56.4821 248.46 57.9065 252.331 57.9065C255.598 57.9065 278.257 57.934 278.257 57.934C279.726 57.934 281.692 58.247 281.692 63.1859C281.692 68.1278 279.626 69.0229 278.257 69.0229ZM423.823 69.0229L389.007 68.977C382.573 68.977 379.383 66.5595 379.383 60.1312C379.383 35.6464 379.23 33.4592 379.23 33.4592C379.23 30.6991 380.439 24.4995 387.745 24.4995H418.23C423.976 24.4995 427.257 27.7194 427.257 33.4592C427.257 33.4592 427.257 46.537 427.257 49.3545C427.257 51.3015 425.796 51.8706 424.572 51.8706H393.253V54.1358C393.253 56.4821 394.026 57.9065 397.897 57.9065C401.163 57.9065 423.823 57.934 423.823 57.934C425.291 57.934 427.257 58.247 427.257 63.1859C427.257 68.1278 425.192 69.0229 423.823 69.0229ZM646.286 52.9026C646.286 52.6142 646.171 52.3388 645.973 52.1353C645.766 51.9318 645.491 51.8179 645.2 51.8186C640.243 51.8309 619.985 51.8806 619.985 51.8806C616.199 51.8806 612.305 50.0178 612.305 46.2478C612.305 44.968 612.205 33.6811 612.205 33.2894C612.205 27.0102 615.893 24.384 620.1 24.384H651.022C660.179 24.384 660.164 32.3805 660.164 34.7941C660.164 36.3639 659.2 37.9628 654.441 37.9628C649.675 37.9628 647.809 37.0639 647.809 36.3502C647.809 35.6356 647.327 35.7443 646.829 35.7443C646.34 35.7443 631.759 35.7634 627.146 35.7634C626.802 35.7634 626.48 35.8988 626.236 36.1406C625.998 36.3815 625.861 36.709 625.861 37.0502C625.861 37.7188 625.861 39.0407 625.861 39.7093C625.861 40.0505 625.998 40.3779 626.236 40.6189C626.48 40.8607 626.802 40.996 627.146 40.996C632.654 40.996 653.944 40.996 653.944 40.996C657.731 40.996 660.164 42.8581 660.164 46.628V63.6678C660.164 67.0109 657.562 68.9922 653.363 68.9922H620.758C614.623 68.9922 612.305 65.4043 612.305 60.9183V57.0742C612.305 56.2526 613.016 54.4273 619.045 54.4273C625.065 54.4273 625.348 55.2443 625.685 55.9068C626.006 56.5609 626.519 57.0742 627.146 57.0742C627.773 57.0742 640.954 57.0803 645.208 57.0819C645.491 57.0819 645.766 56.9679 645.973 56.7644C646.171 56.5616 646.286 56.2855 646.286 55.9979C646.286 55.0929 646.286 53.8084 646.286 52.9026ZM590.747 52.9026C590.747 52.6142 590.632 52.3388 590.426 52.1353C590.219 51.9318 589.944 51.8179 589.661 51.8186C584.696 51.8309 564.446 51.8806 564.446 51.8806C560.652 51.8806 556.765 50.0178 556.765 46.2478C556.765 44.968 556.666 33.6811 556.666 33.2894C556.666 27.0102 560.353 24.384 564.553 24.384H595.475C604.632 24.384 604.617 32.3805 604.617 34.7941C604.617 36.3639 603.66 37.9628 598.894 37.9628C594.128 37.9628 592.261 37.0639 592.261 36.3502C592.261 35.6356 591.78 35.7443 591.29 35.7443C590.793 35.7443 576.212 35.7634 571.606 35.7634C571.262 35.7634 570.933 35.8988 570.696 36.1406C570.451 36.3815 570.314 36.709 570.314 37.0502C570.314 37.7188 570.314 39.0407 570.314 39.7093C570.314 40.0505 570.451 40.3779 570.696 40.6189C570.933 40.8607 571.262 40.996 571.606 40.996C577.107 40.996 598.397 40.996 598.397 40.996C602.184 40.996 604.617 42.8581 604.617 46.628V63.6678C604.617 67.0109 602.023 68.9922 597.823 68.9922H565.211C559.076 68.9922 556.765 65.4043 556.765 60.9183V57.0742C556.765 56.2526 557.469 54.4273 563.498 54.4273C569.526 54.4273 569.809 55.2443 570.138 55.9068C570.467 56.5609 570.979 57.0742 571.606 57.0742C572.226 57.0742 585.415 57.0803 589.661 57.0819C589.951 57.0819 590.227 56.9679 590.426 56.7644C590.632 56.5616 590.747 56.2855 590.747 55.9979C590.747 55.0929 590.747 53.8084 590.747 52.9026ZM474.657 64.2645L474.573 8.02811C474.573 6.5547 475.109 5.52881 481.726 5.52881C488.244 5.52881 488.45 6.61897 488.458 7.96998C488.458 7.96998 488.473 38.5014 488.473 54.6606C488.473 57.0757 490.531 57.013 490.531 57.013C492.007 57.013 493.033 56.7093 493.033 62.7498C493.033 68.7857 491.908 68.8928 490.531 68.8928C490.531 68.8928 480.655 68.8928 478.062 68.8928C474.237 68.8928 474.657 66.0164 474.657 64.2645ZM350.581 55.877L359.7 26.0723C360.396 24.5369 362.286 24.0504 367.419 24.0504C373.042 24.0504 375.65 25.139 375.145 26.5459C375.145 26.5459 362.316 59.9108 359.447 67.3704C359.103 68.2578 358.254 68.8392 357.313 68.8392C354.131 68.8392 346.97 68.8392 343.81 68.8392C342.877 68.8392 342.028 68.2655 341.684 67.401C338.716 60.0026 325.298 26.5459 325.298 26.5459C324.793 25.139 327.401 24.0504 333.024 24.0504C338.15 24.0504 340.039 24.5369 340.735 26.0723L350.581 55.877ZM211.312 53.2071C211.312 52.9187 211.197 52.6433 210.99 52.4398C210.791 52.2363 210.516 52.1223 210.225 52.1231C205.268 52.1353 185.011 52.1851 185.011 52.1851C181.224 52.1851 177.33 50.3222 177.33 46.5523C177.33 45.2724 177.23 33.9856 177.23 33.5939C177.23 27.3147 180.918 24.6884 185.118 24.6884H216.039C225.204 24.6884 225.181 32.685 225.181 35.0986C225.181 36.6684 225.487 38.7729 219.459 38.7729C213.438 38.7729 212.826 37.8748 212.826 37.1603C212.826 36.4466 212.344 36.0488 211.855 36.0488C211.357 36.0488 196.776 36.0679 192.171 36.0679C191.827 36.0679 191.498 36.2033 191.261 36.445C191.016 36.686 190.886 37.0134 190.886 37.3546C190.886 38.0232 190.886 39.3452 190.886 40.0138C190.886 40.355 191.016 40.6824 191.261 40.9234C191.498 41.1651 191.827 41.3005 192.171 41.3005C197.672 41.3005 218.962 41.3005 218.962 41.3005C222.748 41.3005 225.181 43.1626 225.181 46.9325V63.9738C225.181 67.3169 222.588 69.2983 218.388 69.2983H185.783C179.648 69.2983 177.33 65.7104 177.33 61.2198V57.3787C177.33 56.5571 178.041 54.7318 184.062 54.7318C190.09 54.7318 190.373 55.5488 190.71 56.2113C191.031 56.8654 191.544 57.3787 192.171 57.3787C192.798 57.3787 205.98 57.3848 210.225 57.3863C210.516 57.3863 210.791 57.2723 210.99 57.0688C211.197 56.8661 211.312 56.5899 211.312 56.3023C211.312 55.3973 211.312 54.1129 211.312 53.2071ZM411.185 36.0067C411.85 36.0067 413.334 36.3532 413.334 38.1709V41.1613C413.327 41.1598 392.756 41.1598 392.748 41.1613V38.1709C392.748 36.3532 394.232 36.0067 394.89 36.0067H411.185ZM265.619 36.0067C266.285 36.0067 267.769 36.3532 267.769 38.1709V41.1613C267.761 41.1598 247.19 41.1598 247.183 41.1613V38.1709C247.183 36.3532 248.667 36.0067 249.325 36.0067H265.619ZM533.134 36.0067C533.8 36.0067 535.276 36.3532 535.276 38.1709V41.1613C535.276 41.1598 514.698 41.1598 514.698 41.1613V38.1709C514.698 36.3532 516.174 36.0067 516.84 36.0067H533.134Z" fill="#FFFBF9"/>
<path fill-rule="evenodd" clip-rule="evenodd" d="M37.5902 100.748C37.6825 100.615 37.6921 100.44 37.615 100.289C37.5378 100.145 37.3864 100.054 37.2218 100.054C33.7328 100.054 20.139 100.054 11.1683 100.054C9.0008 100.054 6.92193 99.1922 5.38994 97.6608C3.85794 96.1294 2.99819 94.0493 3 91.8788C3.00905 80.5905 3.02533 60.8379 3.03136 53.9569C3.03256 52.3538 3.45281 50.779 4.25046 49.3887C7.12755 44.3743 14.3878 31.721 18.1681 25.1324C19.6349 22.576 22.3565 21 25.3035 21H109.756C111.533 21 113.171 21.9646 114.032 23.519C114.893 25.0739 114.842 26.973 113.9 28.4803C110.766 33.4911 106.853 39.7457 104.818 42.999C104.542 43.4415 104.527 43.9993 104.78 44.4557C105.032 44.9121 105.513 45.1954 106.035 45.1954C110.545 45.1954 119.992 45.1954 126.611 45.1954C130.587 45.1954 133.81 48.4186 133.81 52.3942C133.81 62.1855 133.81 79.5366 133.81 88.7799C133.81 92.8435 132.78 96.8468 130.815 100.404C128.34 104.89 124.324 111.244 121.792 115.833C119.81 119.426 116.031 121.657 111.929 121.657C95.2074 121.657 51.8865 121.657 32.6681 121.657C30.8515 121.657 29.1838 120.656 28.3331 119.046C27.4824 117.442 27.5879 115.501 28.6075 114C32.0627 108.899 36.2114 102.786 37.5902 100.748Z" fill="#E27152"/>
<path fill-rule="evenodd" clip-rule="evenodd" d="M49.8006 96.9429C48.1432 96.9429 46.5889 97.7448 45.6338 99.1013C42.9997 102.839 37.6157 110.478 34.9063 114.319C34.5897 114.771 34.5499 115.356 34.8032 115.844C35.0558 116.332 35.5592 116.64 36.1091 116.64C48.2421 116.64 95.3125 116.64 110.091 116.64C112.816 116.64 115.332 115.181 116.69 112.818C118.624 109.459 121.946 104.564 123.938 101.103C124.432 100.247 124.431 99.1857 123.934 98.3296C123.438 97.4674 122.521 96.9429 121.53 96.9429C106.588 96.9429 61.242 96.9429 49.8006 96.9429Z" fill="#FFFBF9"/>
<path fill-rule="evenodd" clip-rule="evenodd" d="M28.9564 75.7466C26.1697 75.7563 23.5416 77.0429 21.8251 79.2387C19.3761 82.372 15.7568 87.0012 13.0696 90.4378C12.4004 91.2939 12.2781 92.4575 12.7544 93.4342C13.2307 94.411 14.2224 95.0319 15.3095 95.0319C24.3899 95.0319 40.8814 95.0319 40.8814 95.0319C41.7845 93.1267 43.7048 91.9089 45.8138 91.9089C55.9276 91.9089 85.3822 91.9089 95.2362 91.9089C97.2584 91.9089 99.1346 90.8598 100.19 89.1355C102.065 86.0727 105.062 81.1765 106.914 78.1523C107.246 77.6102 107.258 76.9307 106.947 76.3773C106.635 75.8232 106.048 75.4808 105.412 75.4832C92.5544 75.5278 43.9267 75.6948 28.9564 75.7466Z" fill="#FFFBF9"/>
<path fill-rule="evenodd" clip-rule="evenodd" d="M107.471 87.8298C106.958 88.6497 106.932 89.6928 107.404 90.5368C107.875 91.3869 108.769 91.9115 109.74 91.9115C113.968 91.9115 120.056 91.9115 124.081 91.9115C125.187 91.9115 126.249 91.4714 127.032 90.6936C127.814 89.9098 128.254 88.8487 128.254 87.7393C128.254 79.7242 128.254 62.2615 128.254 54.3115C128.254 52.053 126.423 50.222 124.164 50.222C111.07 50.222 70.2735 50.222 57.2651 50.222C54.7558 50.222 52.4207 51.5044 51.0744 53.6224C48.7014 57.3556 45.9382 63.3082 43.6014 66.9847C43.1866 67.6377 43.16 68.4649 43.5326 69.1437C43.9052 69.822 44.6179 70.2435 45.3914 70.2435C57.1476 70.2435 91.7203 70.2435 108.915 70.2435C110.831 70.2435 112.597 71.2823 113.528 72.9578C114.458 74.6327 114.407 76.6807 113.395 78.308C111.378 81.5504 109.139 85.1468 107.471 87.8298Z" fill="#FFFBF9"/>
<path fill-rule="evenodd" clip-rule="evenodd" d="M95.8253 45.1962C96.3745 45.1962 96.8864 44.9188 97.1866 44.4588C98.7729 42.0297 103.893 34.1888 106.69 29.9051C107.061 29.3366 107.091 28.6113 106.768 28.0144C106.445 27.4175 105.821 27.0455 105.142 27.0455C92.8143 27.0455 50.4098 27.0455 32.7698 27.0455C30.7024 27.0455 28.7194 27.8667 27.258 29.3287C25.7959 30.7902 24.9747 32.7732 24.9747 34.84C24.9747 42.5988 24.9747 54.4659 24.9747 62.4057C24.9747 64.5761 25.8641 66.6526 27.4352 68.1502C29.0058 69.6485 31.122 70.4377 33.2901 70.3346C33.2907 70.3346 34.3114 70.3346 34.3114 70.3346C34.3386 70.1139 42.5611 55.9183 47.0998 48.9595C48.6312 46.6118 51.2448 45.1962 54.0477 45.1962C64.6469 45.1962 90.7072 45.1962 95.8253 45.1962Z" fill="#FFFBF9"/>
</svg>
