<svg width="664" height="164" viewBox="0 0 664 164" fill="none" xmlns="http://www.w3.org/2000/svg">
<path fill-rule="evenodd" clip-rule="evenodd" d="M279.336 94.3759H307.105C312.445 94.3759 312.537 98.0158 312.537 99.5963V138.426C312.537 138.909 312.147 139.301 311.665 139.301C309.156 139.301 301.965 139.301 299.455 139.301C298.973 139.301 298.584 138.909 298.584 138.426C298.584 138.089 298.584 137.784 298.584 137.784C296.464 138.566 294.123 138.883 291.813 138.883H281.019C272.459 138.883 263.424 136.4 263.424 118.151V114.049C263.424 97.8919 269.896 94.3759 279.336 94.3759ZM420.633 92.0702L402.586 113.731C402.586 113.731 418.422 132.317 423.807 137.438C424.098 137.714 424.19 138.137 424.045 138.508C423.899 138.878 423.54 139.121 423.142 139.121C418.758 139.121 409.823 139.121 407.742 139.121C407.459 139.121 407.191 139.001 407.008 138.791C404.958 136.467 392.794 122.168 392.794 122.168V138.146C392.794 138.684 392.358 139.121 391.815 139.121C389.267 139.121 382.428 139.121 379.881 139.121C379.621 139.121 379.376 139.019 379.192 138.835C379.008 138.652 378.909 138.404 378.909 138.145C378.902 130.907 378.894 82.3064 378.909 82.1098V82.1014C378.909 80.804 379.712 80.2975 385.618 80.2975C391.455 80.2975 392.763 80.9845 392.763 82.1014L392.794 106.595L404.705 91.6877C405.784 90.2396 407.796 89.7247 412.86 89.7247C418.284 89.7247 421.191 91.1935 420.633 92.0702ZM211.312 122.989C211.312 122.701 211.197 122.426 210.99 122.222C210.791 122.019 210.516 121.905 210.225 121.905C205.268 121.918 185.011 121.967 185.011 121.967C181.224 121.967 177.33 120.105 177.33 116.335C177.33 115.055 177.23 103.768 177.23 103.376C177.23 97.0971 180.918 94.4708 185.118 94.4708H216.039C225.204 94.4708 225.181 102.467 225.181 104.881C225.181 106.451 225.487 108.555 219.459 108.555C213.438 108.555 212.826 107.657 212.826 106.943C212.826 106.229 212.344 105.831 211.855 105.831C211.357 105.831 196.776 105.85 192.171 105.85C191.827 105.85 191.498 105.986 191.261 106.227C191.016 106.468 190.886 106.796 190.886 107.137C190.886 107.806 190.886 109.128 190.886 109.796C190.886 110.137 191.016 110.465 191.261 110.706C191.498 110.947 191.827 111.083 192.171 111.083C197.672 111.083 218.962 111.083 218.962 111.083C222.748 111.083 225.181 112.945 225.181 116.715V133.753C225.181 137.1 222.588 139.081 218.388 139.081H185.783C179.648 139.081 177.33 135.491 177.33 131.005V127.161C177.33 126.339 178.041 124.514 184.062 124.514C190.09 124.514 190.373 125.331 190.71 125.994C191.031 126.648 191.544 127.161 192.171 127.161C192.798 127.161 205.98 127.167 210.225 127.169C210.516 127.169 210.791 127.055 210.99 126.851C211.197 126.648 211.312 126.372 211.312 126.085C211.312 125.18 211.312 123.895 211.312 122.989ZM235.425 94.467L235.348 88.516C235.348 87.0449 235.447 85.648 242.057 85.648C248.583 85.648 249.225 87.1099 249.225 88.4579L249.241 94.467L254.335 94.3821C255.812 94.3821 256.837 94.0791 256.837 100.104C256.837 105.5 255.934 106.152 254.764 106.229V106.237H249.241V124.715C249.241 127.127 250.61 127.144 250.61 127.144L253.188 127.064C254.657 127.064 255.682 126.761 255.682 132.786C255.682 138.812 254.565 138.921 253.188 138.921C253.188 138.921 241.43 138.922 238.836 138.922C235.011 138.922 235.425 136.047 235.425 134.299V106.237L233.451 106.243C231.982 106.243 230.957 106.546 230.957 100.521C230.957 94.4953 232.074 94.3859 233.451 94.3859L235.425 94.467ZM365.024 119.836C370.157 119.836 371.909 120.82 371.909 123.404C371.909 137.432 363.762 138.687 355.898 138.687H339.282C330.209 138.687 320.631 136.662 320.631 118.269V114.135C320.631 97.8521 327.493 94.3086 337.499 94.3086H355.538C364.879 94.3086 371.794 99.9192 371.794 106.301L371.894 109C371.894 110.648 370.716 112.21 365.491 112.21C360.258 112.21 358.613 111.776 358.613 109C358.613 106.223 352.478 106.458 350.68 106.458H342.785C337.071 106.458 334.355 108.314 334.355 113.038V118.776C334.355 124.344 338.501 126.032 342.785 126.032H351.254C353.434 126.032 358.613 126.825 358.613 123.404C358.613 123.401 358.269 119.836 365.024 119.836ZM298.499 120.913V112.374C298.499 108.021 296.671 106.43 291.01 106.43H284.324C278.93 106.43 276.368 108.272 276.368 112.96V118.653C276.368 124.178 279.198 125.852 283.245 125.852H291.553C295.195 125.852 298.499 124.848 298.499 120.913ZM291.132 69.0596C290.65 69.0596 290.268 68.6733 290.268 68.1959C290.26 62.1141 290.199 25.9691 290.199 25.9691C290.199 24.498 291.308 23.4737 297.336 23.4737C303.357 23.4737 303.395 24.5936 303.395 25.9691L303.403 30.9195L303.411 30.9922C303.411 30.9922 306.731 24.0122 318.496 24.0122C321.105 24.0122 320.991 25.4321 320.991 31.4244C320.991 37.4167 319.874 38.4311 318.496 38.4311L314.916 38.4387C307.664 38.558 304.084 40.4438 304.084 41.7764V68.1944C304.084 68.6717 303.694 69.0596 303.22 69.0596C300.733 69.0596 293.611 69.0596 291.132 69.0596ZM437.677 69.0596C437.203 69.0596 436.82 68.6733 436.812 68.1959C436.805 62.1141 436.751 25.9691 436.751 25.9691C436.751 24.498 437.861 23.4737 443.889 23.4737C449.909 23.4737 449.948 24.5936 449.948 25.9691L449.955 30.9195V30.9922C449.955 30.9922 453.283 24.0122 465.049 24.0122C467.65 24.0122 467.543 25.4321 467.543 31.4244C467.543 37.4167 466.418 38.4311 465.049 38.4311L461.469 38.4387C454.216 38.558 450.629 40.4438 450.629 41.7764V68.1944C450.629 68.6717 450.246 69.0596 449.764 69.0596C447.285 69.0596 440.163 69.0596 437.677 69.0596ZM545.765 68.8056L510.949 68.7651C504.515 68.7651 501.333 66.3484 501.333 59.9163C501.333 35.4322 501.172 33.2451 501.172 33.2451C501.172 30.4849 502.389 24.2853 509.695 24.2853H540.18C545.918 24.2853 549.199 27.5052 549.199 33.2451V49.1404C549.199 51.0873 547.746 51.6565 546.514 51.6565H515.202V53.9217C515.202 56.2672 515.968 57.6924 519.846 57.6924C523.105 57.6924 545.765 57.7199 545.765 57.7199C547.233 57.7199 549.199 58.0328 549.199 62.9725C549.199 67.9113 547.142 68.8056 545.765 68.8056ZM278.257 68.8056L243.442 68.7651C237.008 68.7651 233.818 66.3484 233.818 59.9163C233.818 35.4322 233.665 33.2451 233.665 33.2451C233.665 30.4849 234.874 24.2853 242.18 24.2853H272.665C278.41 24.2853 281.692 27.5052 281.692 33.2451V49.1404C281.692 51.0873 280.231 51.6565 279.007 51.6565H247.687V53.9217C247.687 56.2672 248.46 57.6924 252.331 57.6924C255.598 57.6924 278.257 57.7199 278.257 57.7199C279.726 57.7199 281.692 58.0328 281.692 62.9725C281.692 67.9113 279.626 68.8056 278.257 68.8056ZM423.823 68.8056L389.007 68.7651C382.573 68.7651 379.383 66.3484 379.383 59.9163C379.383 35.4322 379.23 33.2451 379.23 33.2451C379.23 30.4849 380.439 24.2853 387.745 24.2853H418.23C423.976 24.2853 427.257 27.5052 427.257 33.2451C427.257 33.2451 427.257 46.3229 427.257 49.1404C427.257 51.0873 425.796 51.6565 424.572 51.6565H393.253V53.9217C393.253 56.2672 394.026 57.6924 397.897 57.6924C401.163 57.6924 423.823 57.7199 423.823 57.7199C425.291 57.7199 427.257 58.0328 427.257 62.9725C427.257 67.9113 425.192 68.8056 423.823 68.8056ZM646.286 52.6885C646.286 52.4001 646.171 52.1239 645.973 51.9212C645.766 51.7177 645.491 51.6037 645.2 51.6045C640.243 51.6167 619.985 51.6664 619.985 51.6664C616.199 51.6664 612.305 49.8036 612.305 46.0337C612.305 44.7538 612.205 33.4669 612.205 33.0753C612.205 26.7961 615.893 24.1698 620.1 24.1698H651.022C660.179 24.1698 660.164 32.1664 660.164 34.58C660.164 36.1498 659.2 37.7487 654.441 37.7487C649.675 37.7487 647.809 36.8498 647.809 36.1361C647.809 35.4215 647.327 35.5302 646.829 35.5302C646.34 35.5302 631.759 35.5493 627.146 35.5493C626.802 35.5493 626.48 35.6847 626.236 35.9257C625.998 36.1674 625.861 36.4948 625.861 36.836C625.861 37.5046 625.861 38.8258 625.861 39.4952C625.861 39.8364 625.998 40.1638 626.236 40.4048C626.48 40.6458 626.802 40.7819 627.146 40.7819C632.654 40.7819 653.944 40.7819 653.944 40.7819C657.731 40.7819 660.164 42.644 660.164 46.4139V63.4521C660.164 66.7983 657.562 68.7796 653.363 68.7796H620.758C614.623 68.7796 612.305 65.1894 612.305 60.7042V56.8601C612.305 56.0384 613.016 54.2131 619.045 54.2131C625.065 54.2131 625.348 55.0302 625.685 55.6927C626.006 56.3467 626.519 56.8601 627.146 56.8601C627.773 56.8601 640.954 56.8662 645.208 56.8677C645.491 56.8677 645.766 56.7537 645.973 56.5502C646.171 56.3467 646.286 56.0713 646.286 55.7837C646.286 54.8787 646.286 53.5942 646.286 52.6885ZM590.747 52.6885C590.747 52.4001 590.632 52.1239 590.426 51.9212C590.219 51.7177 589.944 51.6037 589.661 51.6045C584.696 51.6167 564.446 51.6664 564.446 51.6664C560.652 51.6664 556.765 49.8036 556.765 46.0337C556.765 44.7538 556.666 33.4669 556.666 33.0753C556.666 26.7961 560.353 24.1698 564.553 24.1698H595.475C604.632 24.1698 604.617 32.1664 604.617 34.58C604.617 36.1498 603.66 37.7487 598.894 37.7487C594.128 37.7487 592.261 36.8498 592.261 36.1361C592.261 35.4215 591.78 35.5302 591.29 35.5302C590.793 35.5302 576.212 35.5493 571.606 35.5493C571.262 35.5493 570.933 35.6847 570.696 35.9257C570.451 36.1674 570.314 36.4948 570.314 36.836C570.314 37.5046 570.314 38.8258 570.314 39.4952C570.314 39.8364 570.451 40.1638 570.696 40.4048C570.933 40.6458 571.262 40.7819 571.606 40.7819C577.107 40.7819 598.397 40.7819 598.397 40.7819C602.184 40.7819 604.617 42.644 604.617 46.4139V63.4521C604.617 66.7983 602.023 68.7796 597.823 68.7796H565.211C559.076 68.7796 556.765 65.1894 556.765 60.7042V56.8601C556.765 56.0384 557.469 54.2131 563.498 54.2131C569.526 54.2131 569.809 55.0302 570.138 55.6927C570.467 56.3467 570.979 56.8601 571.606 56.8601C572.226 56.8601 585.415 56.8662 589.661 56.8677C589.951 56.8677 590.227 56.7537 590.426 56.5502C590.632 56.3467 590.747 56.0713 590.747 55.7837C590.747 54.8787 590.747 53.5942 590.747 52.6885ZM211.312 52.6143C211.312 52.3259 211.197 52.0497 210.99 51.847C210.791 51.6435 210.516 51.5295 210.225 51.5303C205.268 51.5425 185.011 51.5922 185.011 51.5922C181.224 51.5922 177.33 49.7294 177.33 45.9595C177.33 44.6796 177.23 33.3927 177.23 33.001C177.23 26.7219 180.918 24.0956 185.118 24.0956H216.039C225.204 24.0956 225.181 32.0922 225.181 34.5058C225.181 36.0756 225.487 38.1801 219.459 38.1801C213.438 38.1801 212.826 37.282 212.826 36.5675C212.826 35.8538 212.344 35.456 211.855 35.456C211.357 35.456 196.776 35.4751 192.171 35.4751C191.827 35.4751 191.498 35.6105 191.261 35.8522C191.016 36.0932 190.886 36.4206 190.886 36.7618C190.886 37.4304 190.886 38.7516 190.886 39.421C190.886 39.7622 191.016 40.0896 191.261 40.3306C191.498 40.5716 191.827 40.7077 192.171 40.7077C197.672 40.7077 218.962 40.7077 218.962 40.7077C222.748 40.7077 225.181 42.5697 225.181 46.3397V63.3779C225.181 66.724 222.588 68.7054 218.388 68.7054H185.783C179.648 68.7054 177.33 65.116 177.33 60.63V56.7858C177.33 55.9642 178.041 54.1389 184.062 54.1389C190.09 54.1389 190.373 54.9559 190.71 55.6184C191.031 56.2725 191.544 56.7858 192.171 56.7858C192.798 56.7858 205.98 56.792 210.225 56.7935C210.516 56.7935 210.791 56.6795 210.99 56.476C211.197 56.2733 211.312 55.9971 211.312 55.7095C211.312 54.8045 211.312 53.52 211.312 52.6143ZM474.657 64.0481L474.573 7.81401C474.573 6.34061 475.109 5.31396 481.726 5.31396C488.244 5.31396 488.45 6.40485 488.458 7.75585C488.458 7.75585 488.473 38.2865 488.473 54.4457C488.473 56.8616 490.531 56.7988 490.531 56.7988C492.007 56.7988 493.033 56.4951 493.033 62.5326C493.033 68.5692 491.908 68.6786 490.531 68.6786C490.531 68.6786 480.655 68.6802 478.062 68.6802C474.237 68.6802 474.657 65.7992 474.657 64.0481ZM350.581 55.6628L359.7 25.8582C360.396 24.3228 362.286 23.8363 367.419 23.8363C373.042 23.8363 375.65 24.9241 375.145 26.3317C375.145 26.3317 362.316 59.6967 359.447 67.1563C359.103 68.0398 358.254 68.6228 357.313 68.6228C354.131 68.6228 346.97 68.6228 343.81 68.6228C342.877 68.6228 342.028 68.0544 341.684 67.1869C338.716 59.7885 325.298 26.3317 325.298 26.3317C324.793 24.9241 327.401 23.8363 333.024 23.8363C338.15 23.8363 340.039 24.3228 340.735 25.8582L350.581 55.6628ZM411.185 35.7926C411.85 35.7926 413.334 36.1391 413.334 37.9568V40.9472C413.327 40.9456 392.756 40.9456 392.748 40.9472V37.9568C392.748 36.1391 394.232 35.7926 394.89 35.7926H411.185ZM265.619 35.7926C266.285 35.7926 267.769 36.1391 267.769 37.9568V40.9472C267.761 40.9456 247.19 40.9456 247.183 40.9472V37.9568C247.183 36.1391 248.667 35.7926 249.325 35.7926H265.619ZM533.134 35.7926C533.8 35.7926 535.276 36.1391 535.276 37.9568V40.9472C535.276 40.9456 514.698 40.9456 514.698 40.9472V37.9568C514.698 36.1391 516.174 35.7926 516.84 35.7926H533.134Z" fill="#E27152"/>
<path fill-rule="evenodd" clip-rule="evenodd" d="M37.5902 100.748C37.6825 100.615 37.6921 100.44 37.615 100.289C37.5378 100.145 37.3864 100.054 37.2218 100.054C33.7328 100.054 20.139 100.054 11.1683 100.054C9.0008 100.054 6.92193 99.1922 5.38994 97.6608C3.85794 96.1294 2.99819 94.0493 3 91.8788C3.00905 80.5905 3.02533 60.8379 3.03136 53.9569C3.03256 52.3538 3.45281 50.779 4.25046 49.3887C7.12755 44.3743 14.3878 31.721 18.1681 25.1324C19.6349 22.576 22.3565 21 25.3035 21H109.756C111.533 21 113.171 21.9646 114.032 23.519C114.893 25.0739 114.842 26.973 113.9 28.4803C110.766 33.4911 106.853 39.7457 104.818 42.999C104.542 43.4415 104.527 43.9992 104.78 44.4557C105.032 44.9121 105.513 45.1954 106.035 45.1954C110.545 45.1954 119.992 45.1954 126.611 45.1954C130.587 45.1954 133.81 48.4186 133.81 52.3942C133.81 62.1855 133.81 79.5366 133.81 88.7799C133.81 92.8435 132.78 96.8468 130.815 100.404C128.34 104.89 124.324 111.244 121.792 115.833C119.81 119.426 116.031 121.657 111.929 121.657C95.2074 121.657 51.8865 121.657 32.6681 121.657C30.8515 121.657 29.1838 120.656 28.3331 119.046C27.4824 117.442 27.5879 115.501 28.6075 114C32.0627 108.899 36.2114 102.786 37.5902 100.748Z" fill="#E27152"/>
<path fill-rule="evenodd" clip-rule="evenodd" d="M49.8006 96.9429C48.1432 96.9429 46.5889 97.7448 45.6338 99.1013C42.9997 102.839 37.6157 110.478 34.9063 114.319C34.5897 114.771 34.5499 115.356 34.8032 115.844C35.0558 116.332 35.5592 116.64 36.1091 116.64C48.2421 116.64 95.3125 116.64 110.091 116.64C112.816 116.64 115.332 115.181 116.69 112.818C118.624 109.459 121.946 104.564 123.938 101.103C124.432 100.247 124.431 99.1857 123.934 98.3296C123.438 97.4674 122.521 96.9429 121.53 96.9429C106.588 96.9429 61.242 96.9429 49.8006 96.9429Z" fill="#FFFBF9"/>
<path fill-rule="evenodd" clip-rule="evenodd" d="M28.9564 75.7466C26.1697 75.7563 23.5416 77.0429 21.8251 79.2387C19.3761 82.372 15.7568 87.0012 13.0696 90.4378C12.4004 91.2939 12.2781 92.4575 12.7544 93.4342C13.2307 94.411 14.2224 95.0319 15.3095 95.0319C24.3899 95.0319 40.8814 95.0319 40.8814 95.0319C41.7845 93.1267 43.7048 91.9089 45.8138 91.9089C55.9276 91.9089 85.3822 91.9089 95.2362 91.9089C97.2584 91.9089 99.1346 90.8598 100.19 89.1355C102.065 86.0727 105.062 81.1765 106.914 78.1523C107.246 77.6102 107.258 76.9307 106.947 76.3773C106.635 75.8232 106.048 75.4808 105.412 75.4832C92.5544 75.5278 43.9267 75.6948 28.9564 75.7466Z" fill="#FFFBF9"/>
<path fill-rule="evenodd" clip-rule="evenodd" d="M107.471 87.8298C106.958 88.6497 106.932 89.6928 107.404 90.5368C107.875 91.3869 108.769 91.9115 109.74 91.9115C113.968 91.9115 120.056 91.9115 124.081 91.9115C125.187 91.9115 126.249 91.4714 127.032 90.6936C127.814 89.9098 128.254 88.8487 128.254 87.7393C128.254 79.7242 128.254 62.2615 128.254 54.3115C128.254 52.053 126.423 50.222 124.164 50.222C111.07 50.222 70.2735 50.222 57.2651 50.222C54.7558 50.222 52.4207 51.5044 51.0744 53.6224C48.7014 57.3556 45.9382 63.3082 43.6014 66.9847C43.1866 67.6377 43.16 68.4649 43.5326 69.1437C43.9052 69.822 44.6179 70.2435 45.3914 70.2435C57.1476 70.2435 91.7203 70.2435 108.915 70.2435C110.831 70.2435 112.597 71.2823 113.528 72.9578C114.458 74.6327 114.407 76.6807 113.395 78.308C111.378 81.5504 109.139 85.1468 107.471 87.8298Z" fill="#FFFBF9"/>
<path fill-rule="evenodd" clip-rule="evenodd" d="M95.8253 45.1962C96.3745 45.1962 96.8864 44.9188 97.1866 44.4588C98.7729 42.0297 103.893 34.1888 106.69 29.9051C107.061 29.3366 107.091 28.6113 106.768 28.0144C106.445 27.4175 105.821 27.0455 105.142 27.0455C92.8143 27.0455 50.4098 27.0455 32.7698 27.0455C30.7024 27.0455 28.7194 27.8667 27.258 29.3287C25.7959 30.7902 24.9747 32.7732 24.9747 34.84C24.9747 42.5988 24.9747 54.4659 24.9747 62.4057C24.9747 64.5761 25.8641 66.6526 27.4352 68.1502C29.0058 69.6485 31.122 70.4377 33.2901 70.3346C33.2907 70.3346 34.3114 70.3346 34.3114 70.3346C34.3386 70.1139 42.5611 55.9183 47.0998 48.9595C48.6312 46.6118 51.2448 45.1962 54.0477 45.1962C64.6469 45.1962 90.7072 45.1962 95.8253 45.1962Z" fill="#FFFBF9"/>
</svg>
