<svg width="664" height="164" viewBox="0 0 664 164" fill="none" xmlns="http://www.w3.org/2000/svg">
<path fill-rule="evenodd" clip-rule="evenodd" d="M462.204 20.0019C465.501 14.1955 468.66 8.67977 470.144 6.20115C470.971 4.81648 471.613 3.82197 471.934 3.41651C472.256 3.01871 472.547 2.8198 472.707 2.73564C474.092 1.94004 476.808 1.22095 481.903 1.22095C485.315 1.22095 487.326 1.54231 488.527 1.94776C490.432 2.58271 491.335 3.56955 491.893 4.50285C492.482 5.47441 492.704 6.53773 492.704 7.71584V7.7235C492.704 7.7235 492.712 22.8324 492.72 37.4134C496.384 31.1404 499.857 25.2345 500.523 24.3471C501.961 22.4499 505.602 20.6981 510.299 20.6981H540.051C544.174 20.6981 547.364 22.0292 549.575 24.2401C550.814 25.487 551.786 27.04 552.398 28.8989C554.119 25.9766 555.359 23.8957 555.565 23.5897C557.072 21.3712 560.721 20.2085 563.965 20.2085C567.208 20.2085 589.967 20.3156 594.993 20.3156C600.226 20.3156 603.271 22.0368 605.145 24.0335C606.583 25.5559 607.348 27.3536 607.754 29.0366C609.521 26.0454 610.798 23.8957 611.005 23.5897C612.512 21.3712 616.161 20.2085 619.405 20.2085C622.648 20.2085 645.407 20.3156 650.441 20.3156C655.666 20.3156 658.711 22.0368 660.592 24.0335C663.423 27.04 663.645 31.1481 663.645 33.2212C663.645 35.2179 663.477 37.3064 662.344 38.9588C662.061 39.3719 661.717 39.7926 661.281 40.1828C662.742 41.7587 663.645 43.916 663.645 46.7388C663.645 49.5694 663.461 60.815 663.37 66.216C663.339 68.1208 662.65 69.9262 661.656 71.5557C658.757 76.3523 648.123 91.8436 648.1 91.8819C648.1 91.8819 646.975 94.0163 640.878 94.0163C634.422 94.0163 606.545 93.8403 599.798 93.8403C597.656 93.8403 595.95 93.0982 594.749 91.8819C594.328 91.4458 593.96 90.9562 593.67 90.3978C593.035 91.3234 592.66 91.8742 592.653 91.8819C592.653 91.8819 591.536 94.0163 585.438 94.0163C578.974 94.0163 551.105 93.8403 544.35 93.8403C542.216 93.8403 540.502 93.0982 539.309 91.8819C539.133 91.6983 538.964 91.507 538.811 91.3081L538.605 91.6676C538.605 91.6676 537.48 93.848 531.383 93.848H488.344C486.202 93.848 484.488 93.083 483.295 91.8437C482.254 90.765 481.581 89.2962 481.436 87.506C479.401 89.9082 477.985 91.5606 477.947 91.5988C477.947 91.5988 475.27 93.8556 471.881 93.8556H459.029C457.177 93.8556 454.898 93.2513 453.36 91.5376C452.327 90.3978 451.57 88.7683 451.57 86.4044C451.57 85.2492 451.555 81.3325 451.524 76.2299L442.329 92.8305C441.954 93.496 441.258 93.9015 440.5 93.9015H425.284C425.017 93.9015 424.733 93.8861 424.443 93.8632C424.336 94.1157 424.198 94.3758 424.045 94.6206C424.007 94.6818 412.058 109.049 408.11 113.799L429.278 137.752C429.966 138.425 430.119 139.481 429.645 140.314L416.678 162.66C416.303 163.318 415.599 163.724 414.85 163.724C414.85 163.724 413.58 163.923 411.361 163.923C410.887 163.923 409.762 163.747 408.699 162.607C407.253 161.069 393.207 143.015 393.207 143.015L385.588 162.66C385.251 163.425 384.487 163.923 383.653 163.923H369.653C367.802 163.923 365.53 163.318 363.984 161.605C363.242 160.786 362.638 159.707 362.363 158.277C361.184 160.319 360.443 161.628 360.443 161.628C360.297 161.911 359.096 163.884 353.664 163.884H312.553C308.04 163.884 305.63 162.744 304.367 161.23C303.97 160.755 303.664 160.235 303.442 159.661L301.529 162.959C301.139 163.555 300.474 163.915 299.762 163.915H292.15C291.623 163.915 289.121 163.724 288.754 163.402C287.645 163.662 286.252 163.915 285.089 163.915H250.695C248.553 163.915 246.839 163.158 245.646 161.934C245.508 161.788 245.385 161.643 245.255 161.497C245.164 161.643 245.102 161.735 245.095 161.742C245.095 161.742 242.417 163.999 239.028 163.999H223.713C221.862 163.999 219.59 163.395 218.044 161.681C217.011 160.549 216.254 158.912 216.254 156.548L216.262 156.441C214.097 159.524 212.46 161.819 212.452 161.834C212.452 161.834 211.327 163.961 205.23 163.961H164.173C162.031 163.961 160.325 163.219 159.123 162.002C157.945 160.801 157.234 159.103 157.234 157.015C157.234 149.303 157.211 126.98 157.211 127.026C157.211 127.026 157.219 124.708 158.664 122.36C159.904 120.355 174.615 95.2173 175.357 94.1157C175.411 94.0392 175.472 93.955 175.533 93.8785C170.522 93.8556 166.284 93.8403 164.149 93.8403C162.007 93.8403 160.302 93.0982 159.101 91.8819C157.923 90.6808 157.211 88.9748 157.211 86.8863C157.211 79.1751 157.211 56.4544 157.211 56.5003C157.211 56.5003 157.219 54.1824 158.664 51.8338C159.904 49.8295 174.615 24.6913 175.357 23.5897C176.864 21.3712 180.521 20.2085 183.764 20.2085C187 20.2085 209.767 20.3156 214.793 20.3156C220.018 20.3156 223.07 22.0368 224.945 24.0335C227.561 26.8105 227.951 30.5207 227.997 32.7086C230.514 28.4246 232.556 25.005 233.046 24.3471C234.484 22.4499 238.126 20.6981 242.823 20.6981H272.574C276.705 20.6981 279.887 22.0292 282.098 24.2401C282.496 24.6455 282.871 25.0739 283.208 25.5405C284.791 23.8422 287.881 20.897 289.006 20.415C290.322 19.8413 292.579 19.3745 296.427 19.3745C300.305 19.3745 302.57 19.8871 303.878 20.4762C305.24 21.0882 306.112 21.8226 306.67 22.6411C309.47 21.1264 313.341 19.9254 318.597 19.9254C320.7 19.9254 322.054 20.5603 323.049 21.486C323.079 21.5166 323.11 21.5472 323.149 21.5854C323.661 21.2488 324.281 20.9429 325.007 20.6904C326.583 20.1396 329.085 19.7418 332.505 19.7418C335.549 19.7418 337.63 19.9331 339.053 20.3079C341.799 21.027 343.123 22.3963 343.926 24.1635C343.964 24.2553 344.003 24.3547 344.041 24.4465L348.631 37.0386C348.631 37.0386 357.275 22.4882 357.482 22.3275C357.482 22.3275 359.417 20.8205 361.368 20.3079C362.791 19.9331 364.864 19.7418 367.909 19.7418C373.31 19.7418 376.584 20.9428 377.885 22.0444C378.42 22.5034 378.841 22.9854 379.147 23.4903C380.914 21.9526 384.135 20.6981 388.113 20.6981H417.864C421.987 20.6981 425.177 22.0292 427.388 24.2401C427.893 24.7526 428.352 25.3034 428.765 25.9154C430.188 24.3318 433.692 20.9352 434.908 20.415C436.224 19.8413 438.481 19.3745 442.329 19.3745C446.215 19.3745 448.472 19.8871 449.78 20.4762C451.142 21.0882 452.021 21.8226 452.572 22.6411C454.951 21.3559 458.096 20.2926 462.204 20.0019ZM337.071 120.386C337.156 120.593 337.263 120.769 337.393 120.906C338.272 121.832 339.726 121.939 341.141 121.939H352.647C352.923 121.939 353.259 121.954 353.634 121.977L353.626 121.939C353.626 121.939 353.458 120.417 351.943 120.417L337.071 120.386ZM286.015 120.256C285.9 119.659 285.732 119.177 285.388 118.864C285.074 118.573 284.638 118.496 284.095 118.496H279.122V118.626C279.122 119.889 279.168 120.784 279.719 121.296C280.247 121.778 281.05 121.755 281.93 121.755H286.015V120.256ZM308.697 63.5613C308.713 67.1951 308.713 70.6606 308.621 70.8136L297.498 90.895H305.791C309.44 90.895 311.566 92.1266 312.912 93.496C314.993 95.6074 315.292 98.5068 315.292 100.182V103.648C316.47 101.804 317.442 100.328 318 99.5626C318.811 98.0861 319.759 96.8468 320.815 95.8063C321.595 95.0337 322.445 94.3681 323.355 93.7944C321.205 93.2512 319.408 91.4611 317.717 87.3071C316.516 84.3772 312.148 72.7643 308.697 63.5613ZM266.293 93.7179C265.597 93.7944 264.809 93.848 263.907 93.848H259.814C259.905 94.0775 259.989 94.3299 260.074 94.6053C260.372 95.661 260.594 97.3516 260.594 100.075C260.594 100.412 260.594 100.733 260.586 101.039C262.384 97.9789 263.585 95.9288 263.6 95.9135C264.419 95.0643 265.321 94.3299 266.293 93.7179ZM359.333 75.7632C356.572 80.6057 352.678 87.4142 350.727 90.8261H356.931C358.147 90.8261 359.326 90.9027 360.458 91.048C359.67 89.9005 359.219 88.447 359.219 86.741C359.219 84.0941 359.264 80.0167 359.333 75.7632Z" fill="#E27152"/>
<path fill-rule="evenodd" clip-rule="evenodd" d="M279.336 94.3112H307.105C312.445 94.3112 312.537 97.9526 312.537 99.5362V138.36C312.537 138.842 312.147 139.24 311.665 139.24C309.156 139.24 301.965 139.24 299.455 139.24C298.973 139.24 298.584 138.842 298.584 138.36C298.584 138.024 298.584 137.718 298.584 137.718C296.464 138.506 294.123 138.819 291.813 138.819H281.019C272.459 138.819 263.424 136.333 263.424 118.088V113.987C263.424 97.8302 269.896 94.3112 279.336 94.3112ZM420.633 92.0086L402.586 113.666C402.586 113.666 418.422 132.255 423.807 137.373C424.098 137.649 424.19 138.07 424.045 138.444C423.899 138.812 423.54 139.056 423.142 139.056C418.758 139.056 409.823 139.056 407.742 139.056C407.459 139.056 407.191 138.934 407.008 138.727C404.958 136.402 392.794 122.104 392.794 122.104V138.085C392.794 138.62 392.358 139.056 391.815 139.056C389.267 139.056 382.428 139.056 379.881 139.056C379.621 139.056 379.376 138.957 379.192 138.773C379.008 138.59 378.909 138.337 378.909 138.085C378.902 130.84 378.894 82.2394 378.909 82.0482V82.0405C378.909 80.74 379.712 80.2351 385.618 80.2351C391.455 80.2351 392.763 80.9236 392.763 82.0405L392.794 106.528L404.705 91.6261C405.784 90.1726 407.796 89.6599 412.86 89.6599C418.284 89.6599 421.191 91.1288 420.633 92.0086ZM211.312 122.922C211.312 122.639 211.197 122.364 210.99 122.157C210.791 121.959 210.516 121.844 210.225 121.844C205.268 121.851 185.011 121.905 185.011 121.905C181.224 121.905 177.33 120.038 177.33 116.275C177.33 114.989 177.23 103.706 177.23 103.315C177.23 97.0347 180.918 94.4107 185.118 94.4107H216.039C225.204 94.4107 225.181 102.405 225.181 104.815C225.181 106.383 225.487 108.494 219.459 108.494C213.438 108.494 212.826 107.592 212.826 106.88C212.826 106.161 212.344 105.771 211.855 105.771C211.357 105.771 196.776 105.786 192.171 105.786C191.827 105.786 191.498 105.924 191.261 106.161C191.016 106.406 190.886 106.735 190.886 107.071C190.886 107.745 190.886 109.061 190.886 109.734C190.886 110.07 191.016 110.399 191.261 110.644C191.498 110.881 191.827 111.019 192.171 111.019C197.672 111.019 218.962 111.019 218.962 111.019C222.748 111.019 225.181 112.878 225.181 116.649V133.686C225.181 137.037 222.588 139.018 218.388 139.018H185.783C179.648 139.018 177.33 135.43 177.33 130.94V127.099C177.33 126.273 178.041 124.452 184.062 124.452C190.09 124.452 190.373 125.271 190.71 125.929C191.031 126.587 191.544 127.099 192.171 127.099C192.798 127.099 205.98 127.107 210.225 127.107C210.516 127.107 210.791 126.992 210.99 126.786C211.197 126.587 211.312 126.311 211.312 126.021C211.312 125.118 211.312 123.833 211.312 122.922ZM235.425 94.403L235.348 88.4513C235.348 86.9825 235.447 85.5825 242.057 85.5825C248.583 85.5825 249.225 87.0437 249.225 88.3978L249.241 94.403L254.335 94.3189C255.812 94.3189 256.837 94.0129 256.837 100.041C256.837 105.434 255.934 106.085 254.764 106.169H249.241V124.651C249.241 127.061 250.61 127.084 250.61 127.084L253.188 127C254.657 127 255.682 126.694 255.682 132.722C255.682 138.75 254.565 138.857 253.188 138.857C253.188 138.857 241.43 138.857 238.836 138.857C235.011 138.857 235.425 135.981 235.425 134.237V106.169L233.451 106.176C231.982 106.176 230.957 106.482 230.957 100.454C230.957 94.4337 232.074 94.3189 233.451 94.3189L235.425 94.403ZM365.024 119.771C370.157 119.771 371.909 120.757 371.909 123.343C371.909 137.366 363.762 138.62 355.898 138.62H339.282C330.209 138.62 320.631 136.601 320.631 118.202V114.071C320.631 97.7843 327.493 94.2424 337.499 94.2424H355.538C364.879 94.2424 371.794 99.8575 371.794 106.238L371.894 108.938C371.894 110.583 370.716 112.143 365.491 112.143C360.258 112.143 358.613 111.715 358.613 108.938C358.613 106.161 352.478 106.391 350.68 106.391H342.785C337.071 106.391 334.355 108.25 334.355 112.977V118.715C334.355 124.284 338.501 125.967 342.785 125.967H351.254C353.434 125.967 358.613 126.763 358.613 123.343C358.613 123.336 358.269 119.771 365.024 119.771ZM298.499 120.849V112.312C298.499 107.959 296.671 106.368 291.01 106.368H284.324C278.93 106.368 276.368 108.211 276.368 112.893V118.585C276.368 124.116 279.198 125.791 283.245 125.791H291.553C295.195 125.791 298.499 124.781 298.499 120.849ZM437.677 68.9972C437.203 68.9972 436.82 68.6071 436.812 68.1328C436.805 62.051 436.751 25.9044 436.751 25.9044C436.751 24.4356 437.861 23.4105 443.889 23.4105C449.909 23.4105 449.948 24.5274 449.948 25.9044L449.955 30.854V30.9306C449.955 30.9306 453.283 23.9461 465.049 23.9461C467.65 23.9461 467.543 25.3689 467.543 31.3589C467.543 37.3489 466.418 38.3664 465.049 38.3664L461.469 38.374C454.216 38.4964 450.629 40.3783 450.629 41.7095V68.1328C450.629 68.6071 450.246 68.9972 449.764 68.9972C447.285 68.9972 440.163 68.9972 437.677 68.9972ZM291.132 68.9972C290.65 68.9972 290.268 68.6071 290.268 68.1328C290.26 62.051 290.199 25.9044 290.199 25.9044C290.199 24.4356 291.308 23.4105 297.336 23.4105C303.357 23.4105 303.395 24.5274 303.395 25.9044L303.403 30.854L303.411 30.9306C303.411 30.9306 306.731 23.9461 318.496 23.9461C321.105 23.9461 320.991 25.3689 320.991 31.3589C320.991 37.3489 319.874 38.3664 318.496 38.3664L314.916 38.374C307.664 38.4964 304.084 40.3783 304.084 41.7095V68.1328C304.084 68.6071 303.694 68.9972 303.22 68.9972C300.733 68.9972 293.611 68.9972 291.132 68.9972ZM423.823 68.7447L389.007 68.6989C382.573 68.6989 379.383 66.2814 379.383 59.8554C379.383 35.3675 379.23 33.1796 379.23 33.1796C379.23 30.418 380.439 24.2214 387.745 24.2214H418.23C423.976 24.2214 427.257 27.4421 427.257 33.1796C427.257 33.1796 427.257 46.2612 427.257 49.0765C427.257 51.0272 425.796 51.5934 424.572 51.5934H393.253V53.8577C393.253 56.2063 394.026 57.6292 397.897 57.6292C401.163 57.6292 423.823 57.6598 423.823 57.6598C425.291 57.6598 427.257 57.9658 427.257 62.9077C427.257 67.8497 425.192 68.7447 423.823 68.7447ZM278.257 68.7447L243.442 68.6989C237.008 68.6989 233.818 66.2814 233.818 59.8554C233.818 35.3675 233.665 33.1796 233.665 33.1796C233.665 30.418 234.874 24.2214 242.18 24.2214H272.665C278.41 24.2214 281.692 27.4421 281.692 33.1796V49.0765C281.692 51.0272 280.231 51.5934 279.007 51.5934H247.687V53.8577C247.687 56.2063 248.46 57.6292 252.331 57.6292C255.598 57.6292 278.257 57.6598 278.257 57.6598C279.726 57.6598 281.692 57.9658 281.692 62.9077C281.692 67.8497 279.626 68.7447 278.257 68.7447ZM545.765 68.7447L510.949 68.6989C504.515 68.6989 501.333 66.2814 501.333 59.8554C501.333 35.3675 501.172 33.1796 501.172 33.1796C501.172 30.418 502.389 24.2214 509.695 24.2214H540.18C545.918 24.2214 549.199 27.4421 549.199 33.1796V49.0765C549.199 51.0272 547.746 51.5934 546.514 51.5934H515.202V53.8577C515.202 56.2063 515.968 57.6292 519.846 57.6292C523.105 57.6292 545.765 57.6598 545.765 57.6598C547.233 57.6598 549.199 57.9658 549.199 62.9077C549.199 67.8497 547.142 68.7447 545.765 68.7447ZM646.286 52.6261C646.286 52.3354 646.171 52.06 645.973 51.8534C645.766 51.6545 645.491 51.5398 645.2 51.5398C640.243 51.5551 619.985 51.6009 619.985 51.6009C616.199 51.6009 612.305 49.742 612.305 45.9705C612.305 44.6929 612.205 33.4015 612.205 33.0113C612.205 26.7307 615.893 24.1067 620.1 24.1067H651.022C660.179 24.1067 660.164 32.101 660.164 34.5184C660.164 36.0866 659.2 37.6855 654.441 37.6855C649.675 37.6855 647.809 36.7828 647.809 36.0714C647.809 35.3599 647.327 35.467 646.829 35.467C646.34 35.467 631.759 35.4823 627.146 35.4823C626.802 35.4823 626.48 35.62 626.236 35.8648C625.998 36.102 625.861 36.4309 625.861 36.7751C625.861 37.4407 625.861 38.7642 625.861 39.4298C625.861 39.774 625.998 40.1029 626.236 40.3401C626.48 40.5849 626.802 40.7149 627.146 40.7149C632.654 40.7149 653.944 40.7149 653.944 40.7149C657.731 40.7149 660.164 42.5815 660.164 46.353V63.3897C660.164 66.7328 657.562 68.7141 653.363 68.7141H620.758C614.623 68.7141 612.305 65.1263 612.305 60.6433V56.7953C612.305 55.9768 613.016 54.1484 619.045 54.1484C625.065 54.1484 625.348 54.967 625.685 55.6325C626.006 56.2828 626.519 56.7953 627.146 56.7953C627.773 56.7953 640.954 56.803 645.208 56.803C645.491 56.803 645.766 56.6882 645.973 56.4893C646.171 56.2828 646.286 56.0074 646.286 55.7167C646.286 54.8139 646.286 53.5288 646.286 52.6261ZM590.747 52.6261C590.747 52.3354 590.632 52.06 590.426 51.8534C590.219 51.6545 589.944 51.5398 589.661 51.5398C584.696 51.5551 564.446 51.6009 564.446 51.6009C560.652 51.6009 556.765 49.742 556.765 45.9705C556.765 44.6929 556.666 33.4015 556.666 33.0113C556.666 26.7307 560.353 24.1067 564.553 24.1067H595.475C604.632 24.1067 604.617 32.101 604.617 34.5184C604.617 36.0866 603.66 37.6855 598.894 37.6855C594.128 37.6855 592.261 36.7828 592.261 36.0714C592.261 35.3599 591.78 35.467 591.29 35.467C590.793 35.467 576.212 35.4823 571.606 35.4823C571.262 35.4823 570.933 35.62 570.696 35.8648C570.451 36.102 570.314 36.4309 570.314 36.7751C570.314 37.4407 570.314 38.7642 570.314 39.4298C570.314 39.774 570.451 40.1029 570.696 40.3401C570.933 40.5849 571.262 40.7149 571.606 40.7149C577.107 40.7149 598.397 40.7149 598.397 40.7149C602.184 40.7149 604.617 42.5815 604.617 46.353V63.3897C604.617 66.7328 602.023 68.7141 597.823 68.7141H565.211C559.076 68.7141 556.765 65.1263 556.765 60.6433V56.7953C556.765 55.9768 557.469 54.1484 563.498 54.1484C569.526 54.1484 569.809 54.967 570.138 55.6325C570.467 56.2828 570.979 56.7953 571.606 56.7953C572.226 56.7953 585.415 56.803 589.661 56.803C589.951 56.803 590.227 56.6882 590.426 56.4893C590.632 56.2828 590.747 56.0074 590.747 55.7167C590.747 54.8139 590.747 53.5288 590.747 52.6261ZM474.657 63.9864L474.573 7.75085C474.573 6.27439 475.109 5.24927 481.726 5.24927C488.244 5.24927 488.45 6.34327 488.458 7.68968C488.458 7.68968 488.473 38.221 488.473 54.3856C488.473 56.7953 490.531 56.7342 490.531 56.7342C492.007 56.7342 493.033 56.4282 493.033 62.4717C493.033 68.5076 491.908 68.6147 490.531 68.6147C490.531 68.6147 480.655 68.6147 478.062 68.6147C474.237 68.6147 474.657 65.7383 474.657 63.9864ZM350.581 55.602L359.7 25.7973C360.396 24.2596 362.286 23.77 367.419 23.77C373.042 23.77 375.65 24.864 375.145 26.2639C375.145 26.2639 362.316 59.6335 359.447 67.0923C359.103 67.9797 358.254 68.5611 357.313 68.5611C354.131 68.5611 346.97 68.5611 343.81 68.5611C342.877 68.5611 342.028 67.9874 341.684 67.1229C338.716 59.7253 325.298 26.2639 325.298 26.2639C324.793 24.864 327.401 23.77 333.024 23.77C338.15 23.77 340.039 24.2596 340.735 25.7973L350.581 55.602ZM177.33 56.9407C177.33 56.1222 178.041 54.2938 184.062 54.2938C190.09 54.2938 190.373 55.1124 190.71 55.7779C191.031 56.4282 191.544 56.9407 192.171 56.9407C192.798 56.9407 205.98 56.9484 210.225 56.9484C210.516 56.9484 210.791 56.8336 210.99 56.6347C211.197 56.4282 211.312 56.1528 211.312 55.8697V52.9321C211.312 52.6414 211.197 52.366 210.99 52.1595C210.791 51.9606 210.516 51.8458 210.225 51.8458C205.268 51.8534 185.011 51.9069 185.011 51.9069C181.224 51.9069 177.33 50.048 177.33 46.2765C177.33 44.9913 177.23 33.7075 177.23 33.3174C177.23 33.2868 177.23 33.2485 177.23 33.2179V33.1567C177.23 26.8836 180.918 24.252 185.118 24.252H216.039C225.204 24.252 225.181 32.254 225.181 34.6638C225.181 34.8321 225.189 35.0003 225.189 35.1763C225.197 36.691 225.043 38.4964 219.459 38.4964C213.438 38.4964 212.826 37.5937 212.826 36.8822C212.826 36.1708 212.344 35.773 211.855 35.773C211.357 35.773 196.776 35.7883 192.171 35.7883C191.827 35.7883 191.498 35.926 191.261 36.1632C191.016 36.408 190.886 36.7369 190.886 37.0735V39.5827C190.886 39.9193 191.016 40.2483 191.261 40.4855C191.498 40.7303 191.827 40.868 192.171 40.868C197.672 40.868 218.962 40.868 218.962 40.868C222.748 40.868 225.181 42.7269 225.181 46.4984V63.6957C225.181 67.0388 222.588 69.0201 218.388 69.0201H185.783C179.648 69.0201 177.33 65.4323 177.33 60.9417V56.9407ZM533.134 35.7271C533.8 35.7271 535.276 36.079 535.276 37.8921V40.8833H514.698V37.8921C514.698 36.079 516.174 35.7271 516.84 35.7271H533.134ZM411.185 35.7271C411.85 35.7271 413.334 36.079 413.334 37.8921V40.8833C413.327 40.8833 392.756 40.8833 392.748 40.8833V37.8921C392.748 36.079 394.232 35.7271 394.89 35.7271H411.185ZM265.619 35.7271C266.285 35.7271 267.769 36.079 267.769 37.8921V40.8833C267.761 40.8833 247.19 40.8833 247.183 40.8833V37.8921C247.183 36.079 248.667 35.7271 249.325 35.7271H265.619Z" fill="#FFFBF9"/>
<path fill-rule="evenodd" clip-rule="evenodd" d="M37.5902 100.748C37.6825 100.615 37.6921 100.44 37.615 100.289C37.5378 100.145 37.3864 100.054 37.2218 100.054C33.7328 100.054 20.139 100.054 11.1683 100.054C9.0008 100.054 6.92193 99.1922 5.38994 97.6608C3.85794 96.1294 2.99819 94.0493 3 91.8788C3.00905 80.5905 3.02533 60.8379 3.03136 53.9569C3.03256 52.3538 3.45281 50.779 4.25046 49.3887C7.12755 44.3743 14.3878 31.721 18.1681 25.1324C19.6349 22.576 22.3565 21 25.3035 21H109.756C111.533 21 113.171 21.9646 114.032 23.519C114.893 25.0739 114.842 26.973 113.9 28.4803C110.766 33.4911 106.853 39.7457 104.818 42.999C104.542 43.4415 104.527 43.9993 104.78 44.4557C105.032 44.9121 105.513 45.1954 106.035 45.1954C110.545 45.1954 119.992 45.1954 126.611 45.1954C130.587 45.1954 133.81 48.4186 133.81 52.3942C133.81 62.1855 133.81 79.5366 133.81 88.7799C133.81 92.8435 132.78 96.8468 130.815 100.404C128.34 104.89 124.324 111.244 121.792 115.833C119.81 119.426 116.031 121.657 111.929 121.657C95.2074 121.657 51.8865 121.657 32.6681 121.657C30.8515 121.657 29.1838 120.656 28.3331 119.046C27.4824 117.442 27.5879 115.501 28.6075 114C32.0627 108.899 36.2114 102.786 37.5902 100.748Z" fill="#E27152"/>
<path fill-rule="evenodd" clip-rule="evenodd" d="M49.8006 96.9429C48.1432 96.9429 46.5889 97.7448 45.6338 99.1013C42.9997 102.839 37.6157 110.478 34.9063 114.319C34.5897 114.771 34.5499 115.356 34.8032 115.844C35.0558 116.332 35.5592 116.64 36.1091 116.64C48.2421 116.64 95.3125 116.64 110.091 116.64C112.816 116.64 115.332 115.181 116.69 112.818C118.624 109.459 121.946 104.564 123.938 101.103C124.432 100.247 124.431 99.1857 123.934 98.3296C123.438 97.4674 122.521 96.9429 121.53 96.9429C106.588 96.9429 61.242 96.9429 49.8006 96.9429Z" fill="#FFFBF9"/>
<path fill-rule="evenodd" clip-rule="evenodd" d="M28.9564 75.7466C26.1697 75.7563 23.5416 77.0429 21.8251 79.2387C19.3761 82.372 15.7568 87.0012 13.0696 90.4378C12.4004 91.2939 12.2781 92.4575 12.7544 93.4342C13.2307 94.411 14.2224 95.0319 15.3095 95.0319C24.3899 95.0319 40.8814 95.0319 40.8814 95.0319C41.7845 93.1267 43.7048 91.9089 45.8138 91.9089C55.9276 91.9089 85.3822 91.9089 95.2362 91.9089C97.2584 91.9089 99.1346 90.8598 100.19 89.1355C102.065 86.0727 105.062 81.1765 106.914 78.1523C107.246 77.6102 107.258 76.9307 106.947 76.3773C106.635 75.8232 106.048 75.4808 105.412 75.4832C92.5544 75.5278 43.9267 75.6948 28.9564 75.7466Z" fill="#FFFBF9"/>
<path fill-rule="evenodd" clip-rule="evenodd" d="M107.471 87.8298C106.958 88.6497 106.932 89.6928 107.404 90.5368C107.875 91.3869 108.769 91.9115 109.74 91.9115C113.968 91.9115 120.056 91.9115 124.081 91.9115C125.187 91.9115 126.249 91.4714 127.032 90.6936C127.814 89.9098 128.254 88.8487 128.254 87.7393C128.254 79.7242 128.254 62.2615 128.254 54.3115C128.254 52.053 126.423 50.222 124.164 50.222C111.07 50.222 70.2735 50.222 57.2651 50.222C54.7558 50.222 52.4207 51.5044 51.0744 53.6224C48.7014 57.3556 45.9382 63.3082 43.6014 66.9847C43.1866 67.6377 43.16 68.4649 43.5326 69.1437C43.9052 69.822 44.6179 70.2435 45.3914 70.2435C57.1476 70.2435 91.7203 70.2435 108.915 70.2435C110.831 70.2435 112.597 71.2823 113.528 72.9578C114.458 74.6327 114.407 76.6807 113.395 78.308C111.378 81.5504 109.139 85.1468 107.471 87.8298Z" fill="#FFFBF9"/>
<path fill-rule="evenodd" clip-rule="evenodd" d="M95.8253 45.1962C96.3745 45.1962 96.8864 44.9188 97.1866 44.4588C98.7729 42.0297 103.893 34.1888 106.69 29.9051C107.061 29.3366 107.091 28.6113 106.768 28.0144C106.445 27.4175 105.821 27.0455 105.142 27.0455C92.8143 27.0455 50.4098 27.0455 32.7698 27.0455C30.7024 27.0455 28.7194 27.8667 27.258 29.3287C25.7959 30.7902 24.9747 32.7732 24.9747 34.84C24.9747 42.5988 24.9747 54.4659 24.9747 62.4057C24.9747 64.5761 25.8641 66.6526 27.4352 68.1502C29.0058 69.6485 31.122 70.4377 33.2901 70.3346C33.2907 70.3346 34.3114 70.3346 34.3114 70.3346C34.3386 70.1139 42.5611 55.9183 47.0998 48.9595C48.6312 46.6118 51.2448 45.1962 54.0477 45.1962C64.6469 45.1962 90.7072 45.1962 95.8253 45.1962Z" fill="#FFFBF9"/>
</svg>
