<svg width="665" height="164" viewBox="0 0 665 164" fill="none" xmlns="http://www.w3.org/2000/svg">
<path fill-rule="evenodd" clip-rule="evenodd" d="M462.512 19.4056C465.136 14.6794 468.357 8.93427 470.346 5.61261C471.172 4.22719 471.814 3.2342 472.136 2.83181C472.457 2.43247 472.748 2.23435 472.909 2.14408C474.293 1.35612 477.009 0.630127 482.104 0.630127C485.516 0.630127 487.528 0.954452 488.729 1.35685C490.634 1.99486 491.536 2.98402 492.095 3.91273C492.684 4.88429 492.906 5.95303 492.906 7.12502C492.906 7.12885 492.906 7.13343 492.906 7.13725C492.906 7.13725 492.913 21.4696 492.921 35.6941C493.127 34.9536 493.472 34.1106 494.022 33.279C496.432 29.6147 500.173 24.2382 500.518 23.7578C501.971 21.6938 505.597 20.1118 510.294 20.1118H540.038C544.169 20.1118 547.351 21.4413 549.562 23.6537C551.023 25.111 552.102 26.9938 552.668 29.298C554.206 26.5891 555.927 23.5765 556.409 23.005C558.474 20.5891 561.573 19.6183 564.816 19.6183C580.055 19.6183 590.819 19.7277 595.845 19.7277C601.07 19.7277 604.122 21.4482 605.996 23.4418C607.374 24.9068 608.139 26.6319 608.552 28.256C609.921 25.8784 611.275 23.5329 611.657 23.005C613.019 21.1392 617.036 19.6183 620.065 19.6183C626.438 19.6183 646.068 19.7277 651.094 19.7277C656.326 19.7277 659.371 21.4482 661.245 23.4418C664.076 26.4514 664.305 30.5556 664.305 32.6303C664.305 34.6315 664.129 36.7208 663.005 38.3671C662.714 38.7863 662.37 39.2017 661.934 39.5926C663.395 41.1708 664.305 43.3281 664.305 46.151C664.305 48.9792 664.114 60.2256 664.022 65.625C663.992 67.5368 663.395 69.3965 662.309 70.9709C659.271 75.3995 658.415 75.9694 658.392 76.0023C658.392 76.0023 657.267 78.1344 651.17 78.1344H610.832C608.69 78.1344 606.984 77.3916 605.782 76.176C605.293 75.6726 604.88 75.0805 604.566 74.4088C603.51 75.7407 603.158 75.9817 603.143 76.0023C603.143 76.0023 602.019 78.1344 595.921 78.1344H555.583C553.441 78.1344 551.735 77.3916 550.534 76.176C549.501 75.1271 548.828 73.6966 548.675 71.9593L545.439 75.9021C545.439 75.9021 544.322 78.0816 538.225 78.0816C531.76 78.0816 506.255 78.2293 499.5 78.2293C497.366 78.2293 495.652 77.4704 494.459 76.2272C493.747 75.4905 493.212 74.5687 492.89 73.4877C491.85 74.7676 490.993 75.7583 490.932 75.8111C490.932 75.8111 488.255 78.0686 484.866 78.0686H465.687C463.828 78.0686 461.556 77.4627 460.01 75.7529C458.985 74.6154 458.228 72.9798 458.228 70.6152C458.228 68.6835 458.175 59.8095 458.121 50.6707L454.717 54.5309C454.717 54.5309 454.9 69.9022 454.717 70.2258L450.991 76.9547C450.616 77.6165 449.913 78.0242 449.163 78.0242H432.248C430.397 78.0242 428.125 77.4122 426.58 75.6833C426.167 75.2243 425.8 74.685 425.509 74.0508L423.994 75.9021C423.994 75.9021 422.869 78.0816 416.772 78.0816C413.223 78.0816 404.104 78.126 395.49 78.1665C396.683 79.2406 397.005 80.5403 397.005 81.889L397.02 93.3542L401.771 88.8514C402.788 87.5593 404.18 86.5686 406.498 86.004C407.99 85.6407 410.063 85.4502 413.032 85.4502C416.818 85.4502 419.611 86.1065 421.225 86.8042C422.617 87.4063 423.474 88.1812 423.956 88.8032C425.371 90.6484 425.233 92.4652 424.246 94.0343C424.208 94.0955 412.259 108.46 408.312 113.21L429.479 137.165C430.168 137.835 430.321 138.889 429.846 139.726L425.363 147.366C424.988 148.024 424.292 148.429 423.535 148.429H400.309C399.835 148.429 398.741 148.308 397.647 147.21C395.88 145.447 393.409 142.428 393.409 142.428L391.726 147.261C391.389 148.028 390.632 148.522 389.798 148.522H376.013C374.162 148.522 371.889 147.917 370.344 146.207C370.168 146.011 370 145.801 369.839 145.575C369.618 145.987 369.495 146.225 369.495 146.225C369.357 146.502 368.148 148.48 362.725 148.48H318.201C314.591 148.48 312.326 147.748 310.919 146.68L310.498 147.414C310.107 148.009 309.449 148.368 308.73 148.368H301.119C300.599 148.368 298.089 148.177 297.722 147.861C296.613 148.117 295.221 148.368 294.058 148.368H257.437C255.723 148.368 254.293 147.888 253.176 147.069C252.09 147.728 250.269 148.589 248.173 148.589H229.973C228.122 148.589 225.85 147.984 224.304 146.274C224.014 145.956 223.746 145.599 223.517 145.198C222.736 146.138 222.461 146.326 222.453 146.344C222.453 146.344 221.329 148.476 215.232 148.476H174.893C172.751 148.476 171.045 147.733 169.844 146.518C168.666 145.316 167.954 143.613 167.954 141.523C167.954 133.812 167.954 108.716 167.954 108.765C167.954 108.765 167.87 106.389 169.408 104.099C171.297 101.288 174.793 94.2997 175.719 93.3465C177.907 91.0859 180.883 89.9591 184.126 89.9591C199.365 89.9591 210.129 90.0692 215.155 90.0692C220.38 90.0692 223.432 91.789 225.307 93.7834C225.651 94.146 225.949 94.5239 226.225 94.9133C228.466 90.0693 230.991 84.627 231.128 84.4151C231.733 83.4871 232.689 82.5286 234.479 81.8623C235.81 81.365 237.96 80.9642 241.448 80.9642C245.641 80.9642 248.088 81.583 249.504 82.27C252.617 83.7755 253.184 85.9252 253.191 87.827L253.199 89.715L254.239 89.6982C255.853 89.6982 257.177 89.9721 258.294 90.871C259.028 91.4562 259.801 92.3512 260.275 94.0182C260.558 95.0127 260.772 96.5764 260.795 99.0451C262.517 96.8992 263.786 95.3409 263.802 95.3264C267.328 91.6689 272.263 90.3072 278.222 90.3072H305.992C309.641 90.3072 311.767 91.5388 313.114 92.9036C315.195 95.0211 315.493 97.9213 315.493 99.5943V102.573C316.488 101.276 317.436 100.024 318.201 98.9724C319.012 97.4944 319.961 96.2559 321.016 95.2162C324.696 91.5916 329.845 90.2399 336.057 90.2399H357.132C361.592 90.2399 365.547 91.2443 368.753 92.9281C368.783 92.7192 368.852 92.5165 368.952 92.326C368.952 92.326 375.646 79.1679 376.013 78.6669C376.181 78.4328 376.38 78.1979 376.617 77.9707C375.416 77.6494 374.406 77.042 373.626 76.2272C372.44 74.9986 371.729 73.2582 371.729 71.1216C371.729 66.3066 371.729 55.0159 371.729 46.9696L362.648 69.6834C362.571 69.8754 358.471 77.0129 358.471 77.0129C358.089 77.6509 357.4 78.0411 356.658 78.0411H336.562C333.655 78.0411 331.375 76.5417 329.263 71.3641C327.81 67.7885 321.499 52.6146 317.949 44.0909L308.746 54.5309C308.746 54.5309 308.929 69.9022 308.746 70.2258L305.02 76.9547C304.646 77.6165 303.949 78.0242 303.192 78.0242H286.278C284.426 78.0242 282.154 77.4122 280.609 75.6833C280.203 75.2243 279.836 74.685 279.538 74.0508L278.023 75.9021C278.023 75.9021 276.899 78.0816 270.809 78.0816C264.345 78.0816 239.452 78.2293 232.704 78.2293C230.562 78.2293 228.848 77.4704 227.655 76.2272C226.607 75.134 225.926 73.6347 225.788 71.8116C223.226 75.4737 222.476 75.9717 222.453 76.0023C222.453 76.0023 221.329 78.1344 215.232 78.1344H174.893C172.751 78.1344 171.045 77.3916 169.844 76.176C168.666 74.9749 167.954 73.272 167.954 71.182C167.954 63.4715 167.954 38.3747 167.954 38.4237C167.954 38.4237 167.87 36.0483 169.408 33.7579C171.297 30.9465 174.793 23.9582 175.719 23.005C177.907 20.7444 180.883 19.6183 184.126 19.6183C199.365 19.6183 210.129 19.7277 215.155 19.7277C220.38 19.7277 223.432 21.4482 225.307 23.4418C227.693 25.9732 228.229 29.278 228.336 31.4988C230.027 28.7678 232.85 24.1357 233.095 23.7578C234.426 21.7428 238.174 20.1118 242.871 20.1118H272.622C276.753 20.1118 279.936 21.4413 282.146 23.6537C282.82 24.3315 283.417 25.1004 283.921 25.9618C285.168 23.9444 286.217 22.2515 286.278 22.1528C286.836 21.2937 287.685 20.4483 289.123 19.8241C290.439 19.2557 292.704 18.7898 296.552 18.7898C300.43 18.7898 302.695 19.2963 304.003 19.8846C305.357 20.4966 306.237 21.2379 306.795 22.0564C309.595 20.5394 313.466 19.3337 318.721 19.3337C320.825 19.3337 322.179 19.9725 323.166 20.8982C323.212 20.9395 323.258 20.9816 323.304 21.0252C323.832 20.6756 324.459 20.3611 325.209 20.0995C326.785 19.5525 329.286 19.1524 332.706 19.1524C335.751 19.1524 337.831 19.3483 339.254 19.7216C342.001 20.4415 343.324 21.8116 344.127 23.5757C344.165 23.669 344.204 23.7631 344.242 23.8587L348.832 36.45C348.832 36.45 355.924 24.6811 357.683 21.742C358.288 20.7291 359.619 20.2319 361.57 19.7216C362.992 19.3483 365.066 19.1524 368.11 19.1524C373.511 19.1524 376.785 20.3543 378.086 21.4574C378.744 22.0159 379.218 22.6095 379.532 23.2291C381.238 21.5171 384.581 20.1118 388.842 20.1118H418.593C422.717 20.1118 425.906 21.4413 428.117 23.6537C428.79 24.3315 429.387 25.1004 429.884 25.9618C431.139 23.9444 432.187 22.2515 432.248 22.1528C432.807 21.2937 433.648 20.4483 435.094 19.8241C436.41 19.2557 438.675 18.7898 442.515 18.7898C446.401 18.7898 448.658 19.2963 449.966 19.8846C451.328 20.4966 452.207 21.2379 452.766 22.0564C455.16 20.7574 458.343 19.6864 462.512 19.4056ZM337.273 119.801C337.357 120.005 337.464 120.18 337.594 120.316C338.474 121.244 339.928 121.347 341.343 121.347H352.849C353.124 121.347 353.46 121.366 353.835 121.386L353.828 121.35C353.828 121.35 353.659 119.83 352.144 119.83L337.273 119.801ZM286.216 119.67C286.102 119.071 285.933 118.589 285.589 118.274C285.275 117.987 284.839 117.907 284.296 117.911H279.324V118.036C279.324 119.298 279.37 120.198 279.92 120.705C280.448 121.189 281.251 121.168 282.131 121.168H286.216V119.67ZM548.644 54.6235C548.476 54.6778 548.307 54.7252 548.131 54.7665C548.307 54.8614 548.476 54.9662 548.644 55.0817V54.6235Z" fill="#E27152"/>
<path fill-rule="evenodd" clip-rule="evenodd" d="M279.161 93.7205H306.931C312.27 93.7205 312.362 97.3604 312.362 98.9409V137.77C312.362 138.254 311.972 138.645 311.49 138.645C308.981 138.645 301.79 138.645 299.281 138.645C298.799 138.645 298.409 138.254 298.409 137.77C298.409 137.434 298.409 137.128 298.409 137.128C296.29 137.911 293.949 138.228 291.638 138.228H280.844C272.284 138.228 263.249 135.745 263.249 117.495V113.393C263.249 97.2364 269.721 93.7205 279.161 93.7205ZM420.458 91.4147L402.411 113.075C402.411 113.075 418.247 131.662 423.633 136.783C423.923 137.057 424.015 137.481 423.87 137.852C423.724 138.222 423.365 138.466 422.967 138.466C418.583 138.466 409.648 138.466 407.567 138.466C407.284 138.466 407.017 138.346 406.833 138.135C404.783 135.812 392.619 121.512 392.619 121.512V137.49C392.619 138.029 392.183 138.466 391.64 138.466C389.092 138.466 382.253 138.466 379.706 138.466C379.446 138.466 379.201 138.363 379.017 138.18C378.834 137.997 378.734 137.748 378.734 137.49C378.727 130.251 378.719 81.651 378.734 81.4544V81.4459C378.734 80.1485 379.538 79.6421 385.444 79.6421C391.281 79.6421 392.589 80.3283 392.589 81.4459L392.619 105.94L404.53 91.0322C405.609 89.5833 407.621 89.0692 412.685 89.0692C418.109 89.0692 421.016 90.538 420.458 91.4147ZM211.137 122.334C211.137 122.046 211.022 121.769 210.816 121.566C210.617 121.363 210.341 121.249 210.051 121.25C205.093 121.262 184.836 121.311 184.836 121.311C181.049 121.311 177.155 119.449 177.155 115.679C177.155 114.399 177.056 103.112 177.056 102.721C177.056 96.4416 180.743 93.8153 184.943 93.8153H215.864C225.029 93.8153 225.006 101.812 225.006 104.226C225.006 105.795 225.312 107.9 219.284 107.9C213.263 107.9 212.652 107.001 212.652 106.287C212.652 105.573 212.17 105.176 211.68 105.176C211.183 105.176 196.602 105.195 191.996 105.195C191.652 105.195 191.323 105.33 191.086 105.571C190.841 105.813 190.711 106.14 190.711 106.481C190.711 107.15 190.711 108.471 190.711 109.141C190.711 109.482 190.841 109.809 191.086 110.05C191.323 110.291 191.652 110.427 191.996 110.427C197.497 110.427 218.787 110.427 218.787 110.427C222.574 110.427 225.006 112.289 225.006 116.059V133.098C225.006 136.444 222.413 138.425 218.213 138.425H185.608C179.473 138.425 177.155 134.835 177.155 130.35V126.506C177.155 125.684 177.867 123.859 183.887 123.859C189.915 123.859 190.198 124.676 190.535 125.338C190.856 125.992 191.369 126.506 191.996 126.506C192.624 126.506 205.805 126.512 210.051 126.513C210.341 126.513 210.617 126.399 210.816 126.196C211.022 125.992 211.137 125.717 211.137 125.429C211.137 124.524 211.137 123.24 211.137 122.334ZM235.25 93.8107L235.173 87.8605C235.173 86.3894 235.273 84.9925 241.882 84.9925C248.408 84.9925 249.051 86.4537 249.051 87.8024L249.066 93.8107L254.161 93.7266C255.637 93.7266 256.662 93.4229 256.662 99.4488C256.662 104.844 255.759 105.496 254.589 105.573V105.581H249.066V124.06C249.066 126.471 250.435 126.488 250.435 126.488L253.013 126.408C254.482 126.408 255.507 126.105 255.507 132.131C255.507 138.157 254.39 138.265 253.013 138.265C253.013 138.265 241.255 138.266 238.662 138.266C234.837 138.266 235.25 135.391 235.25 133.643V105.581L233.276 105.587C231.807 105.587 230.782 105.891 230.782 99.865C230.782 93.8398 231.899 93.7304 233.276 93.7304L235.25 93.8107ZM364.849 119.181C369.982 119.181 371.734 120.164 371.734 122.749C371.734 136.777 363.587 138.031 355.723 138.031H339.107C330.034 138.031 320.456 136.006 320.456 117.614V113.48C320.456 97.1967 327.318 93.6532 337.324 93.6532H355.363C364.704 93.6532 371.62 99.2629 371.62 105.645L371.719 108.344C371.719 109.993 370.541 111.554 365.316 111.554C360.084 111.554 358.439 111.121 358.439 108.344C358.439 105.567 352.303 105.802 350.505 105.802H342.611C336.896 105.802 334.18 107.658 334.18 112.383V118.12C334.18 123.689 338.327 125.376 342.611 125.376H351.079C353.259 125.376 358.439 126.17 358.439 122.749C358.439 122.746 358.094 119.181 364.849 119.181ZM298.324 120.257V111.719C298.324 107.365 296.496 105.775 290.835 105.775H284.149C278.756 105.775 276.193 107.617 276.193 112.305V117.997C276.193 123.522 279.023 125.197 283.07 125.197H291.378C295.02 125.197 298.324 124.192 298.324 120.257ZM290.957 68.4034C290.475 68.4034 290.093 68.017 290.093 67.5404C290.085 61.4586 290.024 25.3129 290.024 25.3129C290.024 23.8425 291.133 22.8182 297.162 22.8182C303.182 22.8182 303.221 23.9381 303.221 25.3129L303.228 30.264L303.236 30.3367C303.236 30.3367 306.556 23.356 318.322 23.356C320.93 23.356 320.816 24.7758 320.816 30.7689C320.816 36.7612 319.699 37.7756 318.322 37.7756L314.741 37.7825C307.489 37.9026 303.909 39.7883 303.909 41.1209V67.5389C303.909 68.0163 303.519 68.4034 303.045 68.4034C300.558 68.4034 293.436 68.4034 290.957 68.4034ZM437.502 68.4034C437.028 68.4034 436.645 68.017 436.638 67.5404C436.63 61.4586 436.576 25.3129 436.576 25.3129C436.576 23.8425 437.686 22.8182 443.714 22.8182C449.735 22.8182 449.773 23.9381 449.773 25.3129L449.78 30.264V30.3367C449.78 30.3367 453.108 23.356 464.874 23.356C467.475 23.356 467.368 24.7758 467.368 30.7689C467.368 36.7612 466.243 37.7756 464.874 37.7756L461.294 37.7825C454.042 37.9026 450.454 39.7883 450.454 41.1209V67.5389C450.454 68.0163 450.071 68.4034 449.589 68.4034C447.11 68.4034 439.988 68.4034 437.502 68.4034ZM545.59 68.1494L510.774 68.1096C504.34 68.1096 501.158 65.6929 501.158 59.2608C501.158 34.776 500.998 32.5896 500.998 32.5896C500.998 29.8295 502.214 23.6298 509.52 23.6298H540.005C545.743 23.6298 549.024 26.8498 549.024 32.5896V48.4841C549.024 50.4318 547.571 51.0002 546.339 51.0002H515.028V53.2662C515.028 55.6117 515.793 57.0369 519.671 57.0369C522.93 57.0369 545.59 57.0644 545.59 57.0644C547.059 57.0644 549.024 57.3773 549.024 62.3162C549.024 67.2558 546.967 68.1494 545.59 68.1494ZM278.082 68.1494L243.267 68.1096C236.833 68.1096 233.643 65.6929 233.643 59.2608C233.643 34.776 233.49 32.5896 233.49 32.5896C233.49 29.8295 234.699 23.6298 242.005 23.6298H272.49C278.235 23.6298 281.517 26.8498 281.517 32.5896V48.4841C281.517 50.4318 280.056 51.0002 278.832 51.0002H247.513V53.2662C247.513 55.6117 248.286 57.0369 252.157 57.0369C255.423 57.0369 278.082 57.0644 278.082 57.0644C279.551 57.0644 281.517 57.3773 281.517 62.3162C281.517 67.2558 279.452 68.1494 278.082 68.1494ZM423.648 68.1494L388.832 68.1096C382.399 68.1096 379.208 65.6929 379.208 59.2608C379.208 34.776 379.056 32.5896 379.056 32.5896C379.056 29.8295 380.264 23.6298 387.57 23.6298H418.056C423.801 23.6298 427.083 26.8498 427.083 32.5896C427.083 32.5896 427.083 45.6674 427.083 48.4841C427.083 50.4318 425.622 51.0002 424.398 51.0002H393.078V53.2662C393.078 55.6117 393.851 57.0369 397.722 57.0369C400.988 57.0369 423.648 57.0644 423.648 57.0644C425.117 57.0644 427.083 57.3773 427.083 62.3162C427.083 67.2558 425.017 68.1494 423.648 68.1494ZM590.572 52.0322C590.572 51.7446 590.457 51.4684 590.251 51.2649C590.044 51.0622 589.769 50.9482 589.486 50.949C584.521 50.9604 564.271 51.0102 564.271 51.0102C560.477 51.0102 556.59 49.1482 556.59 45.3782C556.59 44.0984 556.491 32.8107 556.491 32.4198C556.491 26.1406 560.178 23.5143 564.378 23.5143H595.3C604.457 23.5143 604.442 31.511 604.442 33.9246C604.442 35.4936 603.486 37.0932 598.72 37.0932C593.954 37.0932 592.087 36.1943 592.087 35.4806C592.087 34.7661 591.605 34.8747 591.115 34.8747C590.618 34.8747 576.037 34.8938 571.431 34.8938C571.087 34.8938 570.758 35.0292 570.521 35.2702C570.276 35.5119 570.139 35.8386 570.139 36.1798C570.139 36.8492 570.139 38.1703 570.139 38.8397C570.139 39.1809 570.276 39.5075 570.521 39.7493C570.758 39.9902 571.087 40.1257 571.431 40.1257C576.932 40.1257 598.222 40.1257 598.222 40.1257C602.009 40.1257 604.442 41.9885 604.442 45.7584V62.7966C604.442 66.1428 601.848 68.1241 597.648 68.1241H565.036C558.901 68.1241 556.59 64.534 556.59 60.0487V56.2046C556.59 55.3829 557.294 53.5577 563.323 53.5577C569.351 53.5577 569.634 54.3747 569.963 55.0372C570.292 55.6912 570.804 56.2046 571.431 56.2046C572.051 56.2046 585.24 56.2107 589.486 56.2122C589.776 56.2122 590.052 56.0982 590.251 55.8948C590.457 55.6913 590.572 55.4159 590.572 55.1282C590.572 54.2224 590.572 52.9388 590.572 52.0322ZM646.111 52.0322C646.111 51.7446 645.997 51.4684 645.798 51.2649C645.591 51.0622 645.316 50.9482 645.025 50.949C640.068 50.9604 619.811 51.0102 619.811 51.0102C616.024 51.0102 612.13 49.1482 612.13 45.3782C612.13 44.0984 612.031 32.8107 612.031 32.4198C612.031 26.1406 615.718 23.5143 619.925 23.5143H650.847C660.004 23.5143 659.989 31.511 659.989 33.9246C659.989 35.4936 659.025 37.0932 654.267 37.0932C649.501 37.0932 647.634 36.1943 647.634 35.4806C647.634 34.7661 647.152 34.8747 646.655 34.8747C646.165 34.8747 631.584 34.8938 626.971 34.8938C626.627 34.8938 626.306 35.0292 626.061 35.2702C625.824 35.5119 625.686 35.8386 625.686 36.1798C625.686 36.8492 625.686 38.1703 625.686 38.8397C625.686 39.1809 625.824 39.5075 626.061 39.7493C626.306 39.9902 626.627 40.1257 626.971 40.1257C632.479 40.1257 653.769 40.1257 653.769 40.1257C657.556 40.1257 659.989 41.9885 659.989 45.7584V62.7966C659.989 66.1428 657.388 68.1241 653.188 68.1241H620.583C614.448 68.1241 612.13 64.534 612.13 60.0487V56.2046C612.13 55.3829 612.841 53.5577 618.87 53.5577C624.89 53.5577 625.173 54.3747 625.51 55.0372C625.831 55.6912 626.344 56.2046 626.971 56.2046C627.598 56.2046 640.779 56.2107 645.033 56.2122C645.316 56.2122 645.591 56.0982 645.798 55.8948C645.997 55.6913 646.111 55.4159 646.111 55.1282C646.111 54.2224 646.111 52.9388 646.111 52.0322ZM210.823 52.0322C210.823 51.7446 210.708 51.4684 210.502 51.2649C210.303 51.0622 210.028 50.9482 209.737 50.949C204.78 50.9604 184.522 51.0102 184.522 51.0102C180.735 51.0102 176.842 49.1482 176.842 45.3782C176.842 44.0984 176.742 32.8107 176.742 32.4198C176.742 26.1406 180.43 23.5143 184.629 23.5143H215.551C224.716 23.5143 224.693 31.511 224.693 33.9246C224.693 35.4936 223.736 37.0932 218.97 37.0932C214.212 37.0932 212.338 35.6887 212.338 34.9741C212.338 34.2604 211.863 34.3682 211.366 34.3682C210.869 34.3682 196.288 34.3874 191.683 34.3874C191.338 34.3874 191.017 34.5235 190.772 34.7645C190.527 35.0055 190.398 35.3329 190.398 35.6741C190.398 36.3435 190.398 37.6647 190.398 38.3333C190.398 38.6745 190.527 39.0019 190.772 39.2436C191.017 39.4846 191.338 39.62 191.683 39.62C197.183 39.62 218.473 39.62 218.473 39.62C222.268 39.62 224.693 41.4828 224.693 45.252V62.7966C224.693 66.1428 222.099 68.1241 217.899 68.1241H185.295C179.159 68.1241 176.842 64.534 176.842 60.0487V56.2046C176.842 55.3829 177.553 53.5577 183.581 53.5577C189.602 53.5577 189.885 54.8803 190.222 55.5428C190.543 56.1969 191.055 56.7102 191.683 56.7102C192.31 56.7102 205.491 56.7164 209.737 56.7179C210.028 56.7179 210.303 56.6039 210.509 56.4004C210.708 56.1977 210.823 55.9215 210.823 55.6339C210.823 54.7289 210.823 52.9388 210.823 52.0322ZM474.482 63.3918L474.398 7.15849C474.398 5.68509 474.934 4.65845 481.551 4.65845C488.069 4.65845 488.275 5.74936 488.283 7.10036C488.283 7.10036 488.298 37.631 488.298 53.7902C488.298 56.2061 490.356 56.1434 490.356 56.1434C491.833 56.1434 492.858 55.8397 492.858 61.8763C492.858 67.9137 491.733 68.0232 490.356 68.0232C490.356 68.0232 480.48 68.0239 477.887 68.0239C474.062 68.0239 474.482 65.1437 474.482 63.3918ZM350.406 55.0073L359.525 25.2027C360.221 23.6673 362.111 23.1808 367.244 23.1808C372.867 23.1808 375.476 24.2686 374.971 25.6755C374.971 25.6755 362.141 59.0412 359.273 66.5C358.928 67.3844 358.079 67.9673 357.138 67.9673C353.956 67.9673 346.795 67.9673 343.636 67.9673C342.702 67.9673 341.853 67.3989 341.509 66.5306C338.541 59.133 325.123 25.6755 325.123 25.6755C324.618 24.2686 327.227 23.1808 332.849 23.1808C337.975 23.1808 339.864 23.6673 340.56 25.2027L350.406 55.0073ZM411.01 35.1371C411.676 35.1371 413.16 35.4836 413.16 37.3013V40.2909C413.152 40.2901 392.581 40.2901 392.573 40.2909V37.3013C392.573 35.4836 394.057 35.1371 394.715 35.1371H411.01ZM265.444 35.1371C266.11 35.1371 267.594 35.4836 267.594 37.3013V40.2909C267.586 40.2901 247.016 40.2901 247.008 40.2909V37.3013C247.008 35.4836 248.492 35.1371 249.15 35.1371H265.444ZM532.959 35.1371C533.625 35.1371 535.102 35.4836 535.102 37.3013V40.2909C535.102 40.2901 514.523 40.2901 514.523 40.2909V37.3013C514.523 35.4836 515.999 35.1371 516.665 35.1371H532.959Z" fill="#FFFBF9"/>
<path fill-rule="evenodd" clip-rule="evenodd" d="M37.5902 100.748C37.6825 100.615 37.6921 100.44 37.615 100.289C37.5378 100.145 37.3864 100.054 37.2218 100.054C33.7328 100.054 20.139 100.054 11.1683 100.054C9.0008 100.054 6.92193 99.1922 5.38994 97.6608C3.85794 96.1294 2.99819 94.0493 3 91.8788C3.00905 80.5905 3.02533 60.8379 3.03136 53.9569C3.03256 52.3538 3.45281 50.779 4.25046 49.3887C7.12755 44.3743 14.3878 31.721 18.1681 25.1324C19.6349 22.576 22.3565 21 25.3035 21H109.756C111.533 21 113.171 21.9646 114.032 23.519C114.893 25.0739 114.842 26.973 113.9 28.4803C110.766 33.4911 106.853 39.7457 104.818 42.999C104.542 43.4415 104.527 43.9993 104.78 44.4557C105.032 44.9121 105.513 45.1954 106.035 45.1954C110.545 45.1954 119.992 45.1954 126.611 45.1954C130.587 45.1954 133.81 48.4186 133.81 52.3942C133.81 62.1855 133.81 79.5366 133.81 88.7799C133.81 92.8435 132.78 96.8468 130.815 100.404C128.34 104.89 124.324 111.244 121.792 115.833C119.81 119.426 116.031 121.657 111.929 121.657C95.2074 121.657 51.8865 121.657 32.6681 121.657C30.8515 121.657 29.1838 120.656 28.3331 119.046C27.4824 117.442 27.5879 115.501 28.6075 114C32.0627 108.899 36.2114 102.786 37.5902 100.748Z" fill="#E27152"/>
<path fill-rule="evenodd" clip-rule="evenodd" d="M49.8006 96.9429C48.1432 96.9429 46.5889 97.7448 45.6338 99.1013C42.9997 102.839 37.6157 110.478 34.9063 114.319C34.5897 114.771 34.5499 115.356 34.8032 115.844C35.0558 116.332 35.5592 116.64 36.1091 116.64C48.2421 116.64 95.3125 116.64 110.091 116.64C112.816 116.64 115.332 115.181 116.69 112.818C118.624 109.459 121.946 104.564 123.938 101.103C124.432 100.247 124.431 99.1857 123.934 98.3296C123.438 97.4674 122.521 96.9429 121.53 96.9429C106.588 96.9429 61.242 96.9429 49.8006 96.9429Z" fill="#FFFBF9"/>
<path fill-rule="evenodd" clip-rule="evenodd" d="M28.9564 75.7466C26.1697 75.7563 23.5416 77.0429 21.8251 79.2387C19.3761 82.372 15.7568 87.0012 13.0696 90.4378C12.4004 91.2939 12.2781 92.4575 12.7544 93.4342C13.2307 94.411 14.2224 95.0319 15.3095 95.0319C24.3899 95.0319 40.8814 95.0319 40.8814 95.0319C41.7845 93.1267 43.7048 91.9089 45.8138 91.9089C55.9276 91.9089 85.3822 91.9089 95.2362 91.9089C97.2584 91.9089 99.1346 90.8598 100.19 89.1355C102.065 86.0727 105.062 81.1765 106.914 78.1523C107.246 77.6102 107.258 76.9307 106.947 76.3773C106.635 75.8232 106.048 75.4808 105.412 75.4832C92.5544 75.5278 43.9267 75.6948 28.9564 75.7466Z" fill="#FFFBF9"/>
<path fill-rule="evenodd" clip-rule="evenodd" d="M107.471 87.8298C106.958 88.6497 106.932 89.6928 107.404 90.5368C107.875 91.3869 108.77 91.9115 109.74 91.9115C113.968 91.9115 120.056 91.9115 124.081 91.9115C125.187 91.9115 126.249 91.4714 127.032 90.6936C127.814 89.9098 128.254 88.8487 128.254 87.7393C128.254 79.7242 128.254 62.2615 128.254 54.3115C128.254 52.053 126.423 50.222 124.164 50.222C111.07 50.222 70.2736 50.222 57.2652 50.222C54.7559 50.222 52.4208 51.5044 51.0745 53.6224C48.7015 57.3556 45.9384 63.3082 43.6015 66.9847C43.1867 67.6377 43.1601 68.4649 43.5327 69.1437C43.9053 69.822 44.618 70.2435 45.3915 70.2435C57.1477 70.2435 91.7204 70.2435 108.915 70.2435C110.831 70.2435 112.597 71.2823 113.528 72.9578C114.459 74.6327 114.407 76.6807 113.395 78.308C111.378 81.5504 109.139 85.1468 107.471 87.8298Z" fill="#FFFBF9"/>
<path fill-rule="evenodd" clip-rule="evenodd" d="M95.8253 45.1962C96.3745 45.1962 96.8864 44.9188 97.1866 44.4588C98.7729 42.0297 103.893 34.1888 106.69 29.9051C107.061 29.3366 107.091 28.6113 106.768 28.0144C106.445 27.4175 105.821 27.0455 105.142 27.0455C92.8143 27.0455 50.4098 27.0455 32.7698 27.0455C30.7024 27.0455 28.7194 27.8667 27.258 29.3287C25.7959 30.7902 24.9747 32.7732 24.9747 34.84C24.9747 42.5988 24.9747 54.4659 24.9747 62.4057C24.9747 64.5761 25.8641 66.6526 27.4352 68.1502C29.0058 69.6485 31.122 70.4377 33.2901 70.3346C33.2907 70.3346 34.3114 70.3346 34.3114 70.3346C34.3386 70.1139 42.5611 55.9183 47.0998 48.9595C48.6312 46.6118 51.2448 45.1962 54.0477 45.1962C64.6469 45.1962 90.7072 45.1962 95.8253 45.1962Z" fill="#FFFBF9"/>
</svg>
