<?xml version="1.0" encoding="UTF-8"?>
<svg width="2116px" height="266px" viewBox="0 0 2116 266" version="1.1" xmlns="http://www.w3.org/2000/svg" xmlns:xlink="http://www.w3.org/1999/xlink">
    <!-- Generator: Sketch 63.1 (92452) - https://sketch.com -->
    <title>Doorvest</title>
    <desc>Created with Sketch.</desc>
    <g id="Page-1" stroke="none" stroke-width="1" fill="none" fill-rule="evenodd">
        <g id="Doorvest" fill="#FFFFFF">
            <path d="M728.634348,266 C718.878165,264.298366 708.872887,263.343791 699.573375,260.729085 C648.716672,246.534966 614.798365,214.826468 603.42307,162.822871 C586.8168,86.8303836 631.985855,17.561426 709.537137,3.15979132 C741.268313,-3.4328395 774.279094,0.350334383 803.69469,13.9506415 C847.618275,34.7022765 872.652228,69.5650233 878.049265,117.708816 C882.200833,155.933328 872.901322,190.547055 847.28615,219.889867 C825.49042,244.791829 797.467339,258.570915 764.877533,263.800327 L750.679172,265.958497 L728.634348,266 Z M830.846239,132.940516 C830.846239,80.6048931 791.239987,41.384303 739.137814,41.6321434 C687.035641,41.8823422 647.595749,81.0199258 647.802512,133.189536 C648.010906,185.359146 687.24322,224.49673 739.594487,224.49673 C791.945754,224.49673 830.970489,185.193133 830.846239,132.940516 Z" id="Shape"></path>
            <path d="M417.306955,265.833984 C407.382844,264.132317 397.334162,263.011707 387.576145,260.604471 C335.293916,248.565756 296.062359,205.227442 289.290075,152.029822 C279.532058,77.2394863 326.038352,15.7719575 398.040061,2.94719967 C439.563538,-4.44052492 478.471036,1.6190694 513.184663,26.1479752 C546.403444,49.6392792 563.884828,82.5105033 566.625378,122.976972 C569.15831,160.621164 558.943534,194.280966 533.032885,222.337718 C511.935827,245.011042 483.630832,259.677587 452.934098,263.841788 L438.234787,266 L417.306955,265.833984 Z M336.003987,132.771933 C335.505705,184.112468 374.37168,223.541336 426.317549,224.080889 C478.263419,224.620441 518.582715,186.229176 519.080997,135.137665 C519.620802,81.182373 481.087015,41.8365139 427.729347,41.5458515 C375.57586,41.4629773 336.377698,79.978755 336.003987,132.771933 Z" id="Shape"></path>
            <polygon id="Path" points="2116 35.8030938 2026.94074 35.8030938 2026.94074 262 1990.76821 262 1990.76821 35.8446665 1902 35.8446665 1902 4 2116 4"></polygon>
            <path d="M931,4.24901247 C933.075472,4.24901247 934.818868,4 936.603774,4 C972.633962,4 1008.62264,4 1044.5283,4.24901247 C1063.84023,4.11317082 1082.9117,8.53537534 1100.19245,17.156159 C1130.78491,32.8024428 1145.85283,58.2847192 1146.89057,92.1919177 C1147.67925,117.342178 1141.3283,140.251325 1122.35849,157.848207 C1114.67797,164.042876 1106.5007,169.595217 1097.90943,174.449038 C1095.99028,175.546709 1094.00825,176.530623 1091.97358,177.395686 L1151,261.561902 C1149.45825,261.778052 1147.90661,261.916567 1146.35094,261.976923 C1132.40377,261.976923 1118.4566,261.976923 1104.55094,261.976923 C1101.57482,262.205252 1098.72694,260.725259 1097.20377,258.158731 C1081.63774,235.747609 1065.90566,213.460992 1050.38113,191.008368 C1048.58348,187.88153 1045.1328,186.08361 1041.53962,186.401637 C1022.61132,186.692151 1003.72453,186.401637 984.796226,186.401637 L978.320755,186.401637 L978.320755,261.561902 L931,261.561902 L931,4.24901247 Z M978.403774,147.431185 C979.778365,147.656708 981.163963,147.809097 982.554717,147.887708 C1000.27925,147.887708 1018.08679,148.593243 1035.76981,147.887708 C1046.8415,147.469933 1057.80433,145.54305 1068.35472,142.160421 C1107.74717,128.547739 1105.46415,77.0436589 1084.62642,59.4052753 C1073.12477,49.9582653 1058.70769,44.7819393 1043.82264,44.7550415 C1023.77358,44.1325103 1003.68302,44.3815228 983.592453,44.2570165 C981.973585,44.2570165 980.354717,44.2570165 978.486792,44.5475311 L978.403774,147.431185 Z" id="Shape"></path>
            <path d="M1651,230.470815 L1651,261.7096 C1649.17642,261.7096 1647.39428,262 1645.65359,262 C1587.02268,262 1528.37796,262 1469.71941,262 C1465.57491,262 1464,260.879884 1464,256.482393 C1464,174.174626 1464,91.853031 1464,9.51760733 C1464,5.12011577 1465.40913,4 1469.71941,4 C1526.72015,4 1583.70708,4 1640.68019,4 C1642.29654,4 1643.9129,4 1645.86082,4.24891462 L1645.86082,35.5291848 L1501.09331,35.5291848 L1501.09331,115.555234 L1629.94592,115.555234 L1629.94592,146.628075 L1501.01042,146.628075 L1501.01042,230.470815 L1651,230.470815 Z" id="Path"></path>
            <path d="M1865.97789,52.9132925 C1849.42334,42.5036627 1830.81757,35.7615801 1811.4208,33.1437065 C1792.85286,30.0564134 1773.79358,32.0032801 1756.23996,38.780318 C1739.6067,45.7846367 1731.29006,58.0111102 1731.74748,75.2525101 C1732.02279,84.858302 1737.05252,93.7049466 1745.17884,98.8765436 C1755.74096,106.461102 1768.09115,109.942538 1780.39977,113.341083 C1800.02701,118.729021 1819.86218,123.536719 1839.32309,129.504896 C1852.34651,133.193318 1864.15556,140.25818 1873.54603,149.979058 C1894.91977,172.857069 1893.92177,213.100818 1871.79953,236.268949 C1857.65565,250.510561 1839.13943,259.628644 1819.19685,262.172494 C1782.14202,268.933648 1743.88605,263.492813 1710.20741,246.671813 C1702.88877,242.983148 1696.23547,237.926776 1689,233.326306 L1702.68086,204.604455 C1703.5541,205.143249 1704.26102,205.433368 1704.84318,205.889271 C1732.78706,227.399575 1764.63975,235.688709 1799.5696,233.492089 C1811.563,233.142175 1823.32646,230.126072 1834.00045,224.66416 C1849.30305,216.375026 1856.37218,200.62567 1851.8812,185.042097 C1849.40248,177.047934 1843.8993,170.3292 1836.53702,166.308653 C1824.06208,158.599758 1809.59114,155.408441 1795.57762,151.512548 C1777.07311,146.373285 1758.48545,141.44125 1740.27203,135.514518 C1728.9031,131.660055 1718.67245,125.052053 1710.49849,116.283726 C1689,93.8616172 1688.87525,44.4169295 1722.97343,20.295548 C1737.40776,10.4403967 1754.09375,4.3552548 1771.50097,2.5982457 C1798.91588,-1.19149509 1826.84502,1.78288736 1852.83762,11.2603913 C1860.34065,14.329379 1867.64557,17.8590312 1874.71035,21.8290379 C1876.13298,22.8661972 1876.93134,24.5512523 1876.83109,26.3051705 C1873.54603,35.0916532 1869.80354,43.7123531 1865.97789,52.9132925 Z" id="Path"></path>
            <path d="M1430,4.42712696 L1412.6821,43.9696522 C1381.4436,115.293113 1350.21891,186.616575 1319.00803,257.940036 C1318.033,261.29498 1314.74957,263.420969 1311.30198,262.929629 C1302.68447,262.652429 1294.08076,262.652429 1285.49086,262.929629 C1282.18715,263.379017 1279.0649,261.29594 1278.19912,258.064776 C1257.15249,209.915202 1236.00919,161.793349 1214.76922,113.699216 C1199.6057,79.1878634 1184.41457,44.6903712 1169.19581,10.206739 C1168.49149,8.5851212 1167.87004,6.88034356 1167,4.67660662 C1168.98866,4.67660662 1170.56301,4.34396708 1172.13737,4.34396708 C1181.54206,4.34396708 1190.98819,4.59344673 1200.43431,4.34396708 C1204.02542,3.78359496 1207.47062,5.99363033 1208.4718,9.49987994 C1233.77195,67.7117993 1259.2102,125.923719 1284.78655,184.135638 C1288.92958,193.407965 1292.86547,202.638712 1296.92565,211.86946 C1297.58853,213.366338 1298.37571,214.780056 1299.4529,216.942213 C1300.44723,214.987955 1301.15154,213.782137 1301.73157,212.493159 C1331.42334,145.216812 1361.10129,77.9127452 1390.76544,10.5809584 C1391.655,6.39747705 1395.56179,3.57371497 1399.79726,4.05290748 C1409.49197,4.42712696 1419.26953,4.42712696 1430,4.42712696 Z" id="Path"></path>
            <path d="M0.124534751,132.321611 L0.124534751,10.0462852 C0.124534751,3.14230425 0.124534751,3.100714 6.80789973,3.100714 C44.9570452,3.14230425 83.1477022,2.68481154 121.296848,3.43343598 C156.830763,4.14047017 189.292822,14.5380319 215.98477,38.9099165 C240.559628,61.243879 252.514964,89.7747882 254.632055,122.464722 C256.541587,151.785846 251.186593,179.609721 234.623471,204.480689 C214.241284,235.132701 184.809571,251.81039 149.234144,258.54801 C137.994517,260.660587 126.588602,261.760191 115.153133,261.833639 C78.9965438,262.207951 42.8399544,261.833639 6.6418534,261.833639 C0.0415115837,261.833639 0,261.833639 0,255.345561 L0.124534751,132.321611 Z M41.6361185,43.8591558 L41.2625142,44.9820925 C42.6739081,45.7307169 44.0853019,46.4793414 45.4136726,47.1447853 C63.3881884,55.4628347 81.2796809,63.780884 99.3787315,71.6414406 C102.315285,72.6457165 104.184782,75.5326035 103.903494,78.6286021 C103.903494,99.6732669 103.903494,120.717932 103.903494,141.762597 C103.903494,166.425613 103.903494,191.13022 103.903494,215.793236 C103.903494,219.952261 105.024307,221.61587 109.258488,221.283148 C116.190923,220.700885 123.206381,220.950426 130.01428,219.952261 C152.389024,216.666631 172.065515,207.932679 186.926662,190.298415 C201.165135,173.412774 206.603152,153.532636 206.521064,131.780937 C206.229548,84.6591879 175.593999,49.9729221 128.478352,45.3564047 C111.873718,43.6512046 95.0200152,44.3166485 78.2908469,44.067107 C66.0449297,43.6927948 53.7575009,43.8591558 41.6361185,43.8591558 Z" id="Shape"></path>
        </g>
    </g>
</svg>