<svg width="269" height="40" viewBox="0 0 269 40" fill="none" xmlns="http://www.w3.org/2000/svg">
<path d="M265.496 0.24H264.902V0H266.255V0.24H265.654V2.144H265.456V0.24H265.496ZM266.69 0H266.888L267.561 1.264L268.233 0H268.439V2.144H268.233V0.44L267.561 1.704L266.888 0.44V2.144H266.69V0Z" fill="white"/>
<path d="M200.794 20.0401C200.794 25.5681 198.839 30.2241 194.963 34.0641C191.141 37.9361 186.576 39.9201 181.117 39.9201C175.658 39.9201 171.101 37.9361 167.271 34.0641C165.926 32.7041 164.827 31.2561 163.925 29.6881H172.113C174.637 32.0801 177.652 33.2401 181.117 33.2401C184.701 33.2401 187.755 32.0001 190.326 29.4001C192.929 26.7601 194.148 23.6321 194.148 20.0001C194.148 16.3681 192.89 13.2401 190.326 10.6401C187.795 8.04008 184.701 6.76008 181.117 6.76008C177.652 6.76008 174.685 7.88008 172.153 10.3121H163.925C164.827 8.74408 165.926 7.29608 167.271 5.93608C171.053 2.06408 175.658 0.0800781 181.117 0.0800781C186.576 0.0800781 191.141 2.06408 194.963 5.93608C198.839 9.81608 200.794 14.4721 200.794 20.0401Z" fill="white"/>
<path d="M203.238 13.4399L209.789 19.4239V39.8319H203.238V13.4399Z" fill="white"/>
<path d="M235.906 0.0800781V39.8321L203.238 10.1041V0.0800781L229.387 23.8801V0.0800781H235.906Z" fill="white"/>
<path d="M244.902 33.2402H264.579V39.8322H244.902H238.391V33.2402H244.902Z" fill="white"/>
<path d="M244.902 16.6558H264.579V23.2558H244.902H238.391V16.6558H244.902Z" fill="white"/>
<path d="M244.902 0.0800781H264.579V6.68008H244.902H238.391V0.0800781H244.902Z" fill="white"/>
<path d="M8.77452 17.3923C6.16363 21.5363 3.51319 23.1363 1.06055 23.1363V9.84033H18.4506V11.1123C15.3492 11.1123 11.4724 13.1683 8.77452 17.3923Z" fill="white"/>
<path d="M10.7366 19.2406C13.3475 15.0966 15.998 13.4966 18.4506 13.4966V26.7526H1.06055V25.4806C4.20152 25.4806 8.08619 23.4246 10.7366 19.2406Z" fill="white"/>
<path d="M39.8837 23.8323C39.8837 25.7203 39.8363 25.8883 42.1623 26.0083V26.7523C41.023 26.6643 39.8837 26.6243 38.697 26.6243C37.5102 26.6243 36.3709 26.6643 35.3107 26.7523V26.0083C37.6368 25.8883 37.5972 25.7203 37.5972 23.8323V18.2163H27.9607V23.8323C27.9607 25.7203 27.9211 25.8883 30.2472 26.0083V26.7523C29.1079 26.6643 27.9607 26.6243 26.7739 26.6243C25.5951 26.6243 24.4479 26.6643 23.3877 26.7523V26.0083C25.7138 25.8883 25.6742 25.7203 25.6742 23.8323V12.7123C25.6742 10.8323 25.7138 10.6643 23.3877 10.5443V9.80029C24.4953 9.88829 25.5951 9.92829 26.7739 9.92829C27.9607 9.92829 29.1079 9.88829 30.2472 9.80029V10.5443C27.9211 10.6643 27.9607 10.8323 27.9607 12.7123V17.1923H37.5972V12.7123C37.5972 10.8323 37.6368 10.6643 35.3107 10.5443V9.80029C36.4105 9.88829 37.5102 9.92829 38.697 9.92829C39.8837 9.92829 41.023 9.88829 42.1623 9.80029V10.5443C39.8363 10.6643 39.8837 10.8323 39.8837 12.7123V23.8323Z" fill="white"/>
<path d="M46.696 24.04C46.696 24.736 46.7355 25.192 46.7751 25.72C47.4713 25.808 48.4919 25.808 49.3939 25.808C50.4145 25.808 51.4747 25.768 52.4953 25.48C52.5744 25.192 52.701 24.824 52.7405 24.496L52.8988 23.424H53.5555C53.4763 23.832 53.3497 24.368 53.3497 24.984V26.624C52.614 26.712 51.3481 26.712 50.1692 26.712C49.022 26.664 47.8827 26.624 46.696 26.624C45.5171 26.624 44.3699 26.664 43.2306 26.712V26.136C44.2037 26.096 44.9 25.68 44.9 24.408V15.504C44.9 13.984 44.9 13.864 43.0645 13.744V13.168C44.2512 13.208 45.3905 13.248 46.5773 13.248C47.7561 13.248 48.9429 13.208 50.0822 13.168C51.3085 13.168 52.614 13.168 53.2706 13.248C53.0649 13.904 52.9858 14.52 52.9383 15.136C52.9383 15.544 52.8988 15.872 52.8988 16.288H52.2896C52.2896 15.544 52.163 14.976 52.0047 14.4C51.0632 14.112 50.0822 14.072 49.1486 14.072C48.2862 14.072 47.3922 14.072 46.7751 14.152C46.696 14.648 46.696 15.096 46.696 15.752V19.36C50.905 19.408 51.1424 19.648 51.1898 17.72H51.8386V22.192H51.1898C51.1898 20.016 51.0632 20.144 46.696 20.264V24.04Z" fill="white"/>
<path d="M66.8633 24.696V15.056C66.8633 13.944 66.531 13.744 65.3522 13.744H65.0278V13.168C65.8031 13.208 66.5785 13.248 67.3538 13.248C68.1292 13.248 68.9045 13.208 69.6403 13.168V13.744H69.308C68.0896 13.744 67.7178 13.904 67.7178 15.056V26.256L67.7573 26.952L66.2462 26.664L56.942 15.304V24.736C56.942 25.848 57.3138 26.048 58.5322 26.048H58.8645V26.624C58.1287 26.584 57.3534 26.544 56.578 26.544C55.8027 26.544 55.0273 26.584 54.252 26.624V26.048H54.5763C55.7552 26.048 56.0875 25.888 56.0875 24.736V15.056C56.0875 13.944 55.7552 13.744 54.695 13.744H54.4102V13.168C54.9798 13.208 55.5178 13.248 56.0875 13.248C56.6571 13.248 57.1872 13.208 57.7569 13.168L66.8633 24.696Z" fill="white"/>
<path d="M72.1637 15.5042C72.1637 13.9842 72.1637 13.8642 70.3281 13.7442V13.1682C71.3883 13.2082 72.5355 13.2482 73.6748 13.2482C74.822 13.2482 75.9217 13.2082 77.0689 13.1682C79.7194 13.0482 80.9457 14.4802 80.9457 16.1202C80.9457 18.2162 79.0627 19.4882 77.1876 19.8562L81.5549 25.6002C81.8793 25.9682 82.2511 26.0962 82.6546 26.1362V26.7122C82.2511 26.6642 81.8002 26.6242 81.3492 26.6242C80.9061 26.6242 80.4947 26.6642 80.0438 26.7122C79.7194 26.2962 79.5137 25.9682 79.2684 25.6402L74.6954 19.7362L74.7824 19.4482C75.3916 19.4882 75.9613 19.4482 76.5309 19.3602C77.8839 19.1202 79.0231 18.0882 79.0231 16.6562C79.0231 14.5602 77.4724 13.9442 76.0483 13.9442C75.3521 13.9442 74.6559 14.0322 74.1258 14.1922C74.0071 14.5202 74.0071 14.9282 74.0071 15.5442V24.4482C74.0071 25.9682 74.0071 26.0962 75.8426 26.1762V26.7522C74.9011 26.7122 74.0071 26.6642 73.0656 26.6642C72.1241 26.6642 71.2301 26.7122 70.3677 26.7522V26.1762C72.2111 26.0962 72.2111 25.9282 72.2111 24.4482V15.5042H72.1637Z" fill="white"/>
<path d="M88.4147 20.0161L90.4163 16.8641C91.1442 15.6321 91.8405 14.4401 92.4971 13.1681H94.0479V13.4561C92.4101 15.3441 90.0841 18.6241 89.3087 20.3521C89.0634 20.8401 89.0239 21.3361 89.0239 21.7841V24.3681C89.0239 25.8881 89.0239 26.0081 90.8594 26.0961V26.6641C89.9258 26.6241 89.0239 26.5841 88.0903 26.5841C87.1488 26.5841 86.2468 26.6241 85.3528 26.6641V26.0961C87.1883 26.0081 87.1883 25.8481 87.1883 24.3681V21.5361C87.1883 21.3761 87.1883 21.1681 87.1092 20.9201L84.7832 16.8641C84.1265 15.7521 82.9872 13.8641 81.5947 14.0321V13.4561L83.636 13.0481C84.2056 12.9601 84.4983 13.2881 84.8227 13.7041C85.1471 14.1121 85.3924 14.5201 85.6772 14.9761L88.4147 20.0161Z" fill="white"/>
<path d="M107.845 13.8642C107.845 12.9602 107.845 12.3042 107.6 11.9362C106.943 10.9122 105.227 10.5442 104.087 10.5442C102.125 10.5442 100.416 11.9362 100.416 13.9842C100.416 19.2402 110.005 14.8882 110.005 20.9602C110.005 25.1042 106.334 27.0802 102.742 27.0802C101.31 27.0802 99.9653 26.7122 98.6203 26.1762C98.6994 25.2722 98.7785 24.0802 98.7785 23.1362V22.4802H99.5934V23.6322C99.5934 24.1682 99.6409 24.6162 99.9257 24.9042C100.907 25.7682 102.41 26.0082 103.636 26.0082C105.804 26.0082 107.924 24.7362 107.924 22.3202C107.924 16.4482 98.375 21.9522 98.375 14.8882C98.375 11.5682 101.144 9.47217 104.293 9.47217C105.923 9.47217 107.434 10.0082 108.945 10.5842C108.866 10.9522 108.779 11.3602 108.739 11.7282C108.7 12.4722 108.573 13.1682 108.573 13.9042H107.845V13.8642Z" fill="white"/>
<path d="M122.863 25.8484C121.636 26.5444 119.722 26.9924 118.495 26.9924C114.255 26.9924 110.702 24.4964 110.702 19.8964C110.702 15.4244 114.294 12.8804 118.131 12.8804C119.84 12.8804 121.518 13.2884 123.147 13.7444C122.95 14.7284 122.823 15.6724 122.744 16.6564H122.166C122.127 15.4244 122.412 14.9764 121.272 14.4004C120.497 14.0324 119.555 13.7044 118.171 13.7044C114.982 13.7044 112.783 15.9604 112.783 19.4884C112.783 23.3444 115.275 26.0484 119.152 26.0484C120.536 26.0484 121.929 25.6004 123.068 24.8244L123.234 25.0244L122.863 25.8484Z" fill="white"/>
<path d="M137.396 24.368C137.396 25.888 137.396 26.008 139.232 26.096V26.664C138.29 26.624 137.396 26.584 136.455 26.584C135.521 26.584 134.619 26.624 133.725 26.664V26.096C135.561 26.008 135.561 25.848 135.561 24.368V19.896H127.847V24.368C127.847 25.888 127.799 26.008 129.682 26.096V26.664C128.741 26.624 127.847 26.584 126.905 26.584C125.964 26.584 125.07 26.624 124.168 26.664V26.096C126.003 26.008 126.003 25.848 126.003 24.368V15.504C126.003 13.984 126.003 13.864 124.168 13.744V13.168C125.03 13.208 125.924 13.248 126.905 13.248C127.847 13.248 128.741 13.208 129.682 13.168V13.744C127.847 13.824 127.847 13.984 127.847 15.504V19.072H135.561V15.504C135.561 13.984 135.561 13.864 133.725 13.744V13.168C134.58 13.208 135.474 13.248 136.455 13.248C137.396 13.248 138.29 13.208 139.232 13.168V13.744C137.396 13.824 137.396 13.984 137.396 15.504V24.368Z" fill="white"/>
<path d="M143.678 24.04C143.678 24.736 143.678 25.192 143.765 25.72C144.454 25.808 145.474 25.808 146.376 25.808C147.397 25.808 148.457 25.768 149.478 25.48C149.557 25.192 149.683 24.824 149.723 24.496L149.889 23.424H150.538C150.459 23.832 150.332 24.368 150.332 24.984V26.624C149.644 26.712 148.338 26.712 147.152 26.712C146.004 26.664 144.865 26.624 143.678 26.624C142.5 26.624 141.352 26.664 140.213 26.712V26.136C141.194 26.096 141.882 25.68 141.882 24.408V15.504C141.882 13.984 141.882 13.864 140.047 13.744V13.168C141.234 13.208 142.373 13.248 143.56 13.248C144.746 13.248 145.925 13.208 147.073 13.168C148.291 13.168 149.596 13.168 150.253 13.248C150.047 13.904 149.968 14.52 149.929 15.136C149.929 15.544 149.889 15.872 149.889 16.288H149.272C149.232 15.544 149.153 14.976 148.987 14.4C148.046 14.112 147.073 14.072 146.131 14.072C145.277 14.072 144.375 14.072 143.726 14.152C143.639 14.648 143.639 15.096 143.639 15.752V19.36C147.848 19.408 148.093 19.648 148.133 17.72H148.781V22.192H148.172C148.172 20.016 148.046 20.144 143.678 20.264V24.04Z" fill="white"/>
<path d="M155.19 24.368C155.19 25.888 155.15 26.008 157.025 26.096V26.664C156.092 26.624 155.19 26.584 154.256 26.584C153.315 26.584 152.413 26.624 151.519 26.664V26.096C153.354 26.008 153.354 25.848 153.354 24.368V15.504C153.354 13.984 153.354 13.864 151.519 13.744V13.168C152.373 13.208 153.275 13.248 154.256 13.248C155.19 13.248 156.092 13.208 157.025 13.168V13.744C155.19 13.824 155.19 13.984 155.19 15.504V24.368Z" fill="white"/>
<path d="M170.135 24.696V15.056C170.135 13.944 169.803 13.744 168.624 13.744H168.291V13.168C169.067 13.208 169.842 13.248 170.618 13.248C171.393 13.248 172.168 13.208 172.904 13.168V13.744H172.58C171.353 13.744 170.989 13.904 170.989 15.056V26.256L171.029 26.952L169.518 26.664L160.214 15.304V24.736C160.214 25.848 160.577 26.048 161.804 26.048H162.128V26.624C161.392 26.584 160.617 26.544 159.842 26.544C159.066 26.544 158.291 26.584 157.516 26.624V26.048H157.848C159.027 26.048 159.359 25.888 159.359 24.736V15.056C159.359 13.944 159.027 13.744 157.967 13.744H157.682V13.168C158.251 13.208 158.782 13.248 159.359 13.248C159.929 13.248 160.459 13.208 161.028 13.168L170.135 24.696Z" fill="white"/>
</svg>
